<?xml version="1.0" encoding="UTF-8" standalone="no"?>
<svg
   xmlns:dc="http://purl.org/dc/elements/1.1/"
   xmlns:cc="http://creativecommons.org/ns#"
   xmlns:rdf="http://www.w3.org/1999/02/22-rdf-syntax-ns#"
   xmlns:svg="http://www.w3.org/2000/svg"
   xmlns="http://www.w3.org/2000/svg"
   xmlns:sodipodi="http://sodipodi.sourceforge.net/DTD/sodipodi-0.dtd"
   xmlns:inkscape="http://www.inkscape.org/namespaces/inkscape"
   version="1.1"
   width="17cm"
   height="14cm"
   viewBox="0 0 66929.181 55118.108"
   id="svg204"
   sodipodi:docname="LeftPlate.svg"
   inkscape:version="0.92.4 5da689c313, 2019-01-14">
  <metadata
     id="metadata210">
    <rdf:RDF>
      <cc:Work
         rdf:about="">
        <dc:format>image/svg+xml</dc:format>
        <dc:type
           rdf:resource="http://purl.org/dc/dcmitype/StillImage" />
        <dc:title>SVG Picture created as Apollo-Edge_Cuts.svg date 2020/02/25 23:28:32 </dc:title>
      </cc:Work>
    </rdf:RDF>
  </metadata>
  <defs
     id="defs208" />
  <sodipodi:namedview
     pagecolor="#ffffff"
     bordercolor="#666666"
     borderopacity="1"
     objecttolerance="10"
     gridtolerance="10"
     guidetolerance="10"
     inkscape:pageopacity="0"
     inkscape:pageshadow="2"
     inkscape:window-width="3840"
     inkscape:window-height="2065"
     id="namedview206"
     showgrid="false"
     fit-margin-top="0"
     fit-margin-left="0"
     fit-margin-right="0"
     fit-margin-bottom="0"
     inkscape:zoom="1.1893962"
     inkscape:cx="31.043334"
     inkscape:cy="586.03111"
     inkscape:window-x="3840"
     inkscape:window-y="0"
     inkscape:window-maximized="1"
     inkscape:current-layer="svg204" />
  <title
     id="title2">SVG Picture created as Apollo-Edge_Cuts.svg date 2020/02/25 23:28:32 </title>
  <desc
     id="desc4">Picture generated by PCBNEW </desc>
  <g
     style="fill:#000000;fill-opacity:1;stroke:#000000;stroke-linecap:round;stroke-linejoin:round;stroke-opacity:1"
     id="g6"
     transform="translate(-20306.608,-18955.833)" />
  <g
     style="fill:#000000;fill-opacity:0;stroke:#000000;stroke-width:-0.0003937;stroke-linecap:round;stroke-linejoin:round;stroke-opacity:1"
     id="g8"
     transform="translate(-20306.608,-18955.833)" />
  <g
     style="fill:#000000;fill-opacity:0;stroke:#000000;stroke-width:19.68499947;stroke-linecap:round;stroke-linejoin:round;stroke-opacity:1"
     id="g202"
     transform="translate(-18992.916,-19831.628)">
    <circle
       cx="28965.6"
       cy="23860"
       r="615"
       id="circle10" />
    <circle
       cx="46040.602"
       cy="63885"
       r="615"
       id="circle12" />
    <circle
       cx="70325"
       cy="70685"
       r="615"
       id="circle14" />
    <circle
       cx="74465.602"
       cy="51085"
       r="615"
       id="circle16" />
    <circle
       cx="71540.602"
       cy="22960"
       r="615"
       id="circle18" />
    <path
       d="M 69515,68745 67980,67745"
       id="path20"
       inkscape:connector-curvature="0" />
    <path
       d="m 64025,65875 3955,1870"
       id="path22"
       inkscape:connector-curvature="0" />
    <path
       d="m 69515,68745 -485,765"
       id="path24"
       inkscape:connector-curvature="0" />
    <path
       d="m 72505,70685 -482,743"
       id="path26"
       inkscape:connector-curvature="0" />
    <path
       d="m 69030,69510 a 1777.67,1777.67 0 1 0 2993.1,1918.8"
       id="path28"
       inkscape:connector-curvature="0" />
    <path
       d="M 73325,23925 V 49320"
       id="path30"
       inkscape:connector-curvature="0" />
    <path
       d="m 47829,63555 v -680"
       id="path32"
       inkscape:connector-curvature="0" />
    <path
       d="m 44274.7,63555.9 a 1777.65,1777.65 0 0 0 3555.3,0"
       id="path34"
       inkscape:connector-curvature="0" />
    <path
       d="m 44274,63555 v -680"
       id="path36"
       inkscape:connector-curvature="0" />
    <path
       d="m 74155,49320 h -830"
       id="path38"
       inkscape:connector-curvature="0" />
    <path
       d="m 74155.9,52875.3 a 1777.65,1777.65 0 0 0 0,-3555.3"
       id="path40"
       inkscape:connector-curvature="0" />
    <path
       d="m 74155,52875 h -830"
       id="path42"
       inkscape:connector-curvature="0" />
    <path
       d="m 69770,23244 v 681"
       id="path44"
       inkscape:connector-curvature="0" />
    <path
       d="m 73325.3,23244.1 a 1777.65,1777.65 0 0 0 -3555.3,0"
       id="path46"
       inkscape:connector-curvature="0" />
    <path
       d="m 73325,23244 v 681"
       id="path48"
       inkscape:connector-curvature="0" />
    <path
       d="m 22094,52189 h 681"
       id="path50"
       inkscape:connector-curvature="0" />
    <path
       d="m 22094.1,48634.7 a 1777.65,1777.65 0 0 0 0,3555.3"
       id="path52"
       inkscape:connector-curvature="0" />
    <path
       d="m 22094,48634 h 681"
       id="path54"
       inkscape:connector-curvature="0" />
    <circle
       cx="21790.6"
       cy="50410"
       r="615"
       id="circle56" />
    <path
       d="m 27195,24169 v 681"
       id="path58"
       inkscape:connector-curvature="0" />
    <path
       d="m 30750,24169 v 681"
       id="path60"
       inkscape:connector-curvature="0" />
    <path
       d="m 30750.3,24169.1 a 1777.65,1777.65 0 0 0 -3555.3,0"
       id="path62"
       inkscape:connector-curvature="0" />
    <path
       d="m 72505,70685 5135,3335"
       id="path64"
       inkscape:connector-curvature="0" />
    <path
       d="m 73325,52875 v 2194"
       id="path66"
       inkscape:connector-curvature="0" />
    <path
       d="M 27195,24850 H 23325"
       id="path68"
       inkscape:connector-curvature="0" />
    <path
       d="M 22775,52189 V 64200"
       id="path70"
       inkscape:connector-curvature="0" />
    <path
       d="m 44274,62875 h -824"
       id="path72"
       inkscape:connector-curvature="0" />
    <path
       d="m 73325,55069.8 a 375,375 0 0 0 197.2,330.2"
       id="path74"
       inkscape:connector-curvature="0" />
    <path
       d="m 85029,63270 a 362.353,362.353 0 0 0 -119,-471.5"
       id="path76"
       inkscape:connector-curvature="0" />
    <path
       d="m 73272,55240 11638,7560"
       id="path78"
       inkscape:connector-curvature="0" />
    <path
       d="m 77640,74020 a 362.353,362.353 0 0 0 471.5,-119"
       id="path80"
       inkscape:connector-curvature="0" />
    <path
       d="M 85029,63270 78011,74064"
       id="path82"
       inkscape:connector-curvature="0" />
    <path
       d="m 57050,63150 6975,2725"
       id="path84"
       inkscape:connector-curvature="0" />
    <path
       d="m 49950,62875 7100,275"
       id="path86"
       inkscape:connector-curvature="0" />
    <path
       d="m 42900,64200 v -775"
       id="path88"
       inkscape:connector-curvature="0" />
    <path
       d="m 65400,23175 v 200"
       id="path90"
       inkscape:connector-curvature="0" />
    <path
       d="m 57900,22275 v 125"
       id="path92"
       inkscape:connector-curvature="0" />
    <path
       d="m 48850,22275 v 150"
       id="path94"
       inkscape:connector-curvature="0" />
    <path
       d="m 41350,23525 v 775"
       id="path96"
       inkscape:connector-curvature="0" />
    <path
       d="M 49950,62875 H 47829"
       id="path98"
       inkscape:connector-curvature="0" />
    <path
       d="M 42350,64750 H 23325"
       id="path100"
       inkscape:connector-curvature="0" />
    <path
       d="M 69770,23925 H 65950"
       id="path102"
       inkscape:connector-curvature="0" />
    <path
       d="M 65175,22950 H 58450"
       id="path104"
       inkscape:connector-curvature="0" />
    <path
       d="M 57675,22050 H 49075"
       id="path106"
       inkscape:connector-curvature="0" />
    <path
       d="M 48300,22975 H 41900"
       id="path108"
       inkscape:connector-curvature="0" />
    <path
       d="M 40800,24850 H 30750"
       id="path110"
       inkscape:connector-curvature="0" />
    <path
       d="m 65400,23175 a 225,225 0 0 0 -225,-225"
       id="path112"
       inkscape:connector-curvature="0" />
    <path
       d="m 57900,22275 a 225,225 0 0 0 -225,-225"
       id="path114"
       inkscape:connector-curvature="0" />
    <path
       d="m 49075,22050 a 225,225 0 0 0 -225,225"
       id="path116"
       inkscape:connector-curvature="0" />
    <path
       d="m 43450,62875 a 550,550 0 0 0 -550,550"
       id="path118"
       inkscape:connector-curvature="0" />
    <path
       d="m 42350,64750 a 550,550 0 0 0 550,-550"
       id="path120"
       inkscape:connector-curvature="0" />
    <path
       d="m 22775,64200 a 550,550 0 0 0 550,550"
       id="path122"
       inkscape:connector-curvature="0" />
    <path
       d="m 65400,23375 a 550,550 0 0 0 550,550"
       id="path124"
       inkscape:connector-curvature="0" />
    <path
       d="m 57900,22400 a 550,550 0 0 0 550,550"
       id="path126"
       inkscape:connector-curvature="0" />
    <path
       d="m 48300,22975 a 550,550 0 0 0 550,-550"
       id="path128"
       inkscape:connector-curvature="0" />
    <path
       d="m 41900,22975 a 550,550 0 0 0 -550,550"
       id="path130"
       inkscape:connector-curvature="0" />
    <path
       d="m 40800,24850 a 550,550 0 0 0 550,-550"
       id="path132"
       inkscape:connector-curvature="0" />
    <path
       d="m 23325,24850 a 550,550 0 0 0 -550,550"
       id="path134"
       inkscape:connector-curvature="0" />
    <path
       d="M 22775,48634 V 25400"
       id="path136"
       inkscape:connector-curvature="0" />
    <g
       id="g138" />
    <g
       id="g140" />
    <g
       id="g142" />
    <g
       id="g144" />
    <g
       id="g146" />
    <g
       id="g148" />
    <g
       id="g150" />
    <g
       id="g152" />
    <g
       id="g154" />
    <g
       id="g156" />
    <g
       id="g158" />
    <g
       id="g160" />
    <g
       id="g162" />
    <g
       id="g164" />
    <g
       id="g166" />
    <g
       id="g168" />
    <g
       id="g170" />
    <g
       id="g172" />
    <g
       id="g174" />
    <g
       id="g176" />
    <g
       id="g178" />
    <g
       id="g180" />
    <g
       id="g182" />
    <g
       id="g184" />
    <g
       id="g186" />
    <g
       id="g188" />
    <g
       id="g190" />
    <g
       id="g192" />
    <g
       id="g194" />
    <g
       id="g196" />
    <g
       id="g198" />
    <g
       id="g200" />
  </g>
</svg>
