<?xml version="1.0" encoding="UTF-8" standalone="no"?>
<svg
   xmlns:dc="http://purl.org/dc/elements/1.1/"
   xmlns:cc="http://creativecommons.org/ns#"
   xmlns:rdf="http://www.w3.org/1999/02/22-rdf-syntax-ns#"
   xmlns:svg="http://www.w3.org/2000/svg"
   xmlns="http://www.w3.org/2000/svg"
   xmlns:sodipodi="http://sodipodi.sourceforge.net/DTD/sodipodi-0.dtd"
   xmlns:inkscape="http://www.inkscape.org/namespaces/inkscape"
   version="1.1"
   width="17cm"
   height="14cm"
   viewBox="0 0 66929.181 55118.108"
   id="svg204"
   sodipodi:docname="RightPlate.svg"
   inkscape:version="0.92.4 5da689c313, 2019-01-14">
  <metadata
     id="metadata210">
    <rdf:RDF>
      <cc:Work
         rdf:about="">
        <dc:format>image/svg+xml</dc:format>
        <dc:type
           rdf:resource="http://purl.org/dc/dcmitype/StillImage" />
        <dc:title>SVG Picture created as Apollo-Edge_Cuts.svg date 2020/02/25 23:29:38 </dc:title>
      </cc:Work>
    </rdf:RDF>
  </metadata>
  <defs
     id="defs208" />
  <sodipodi:namedview
     pagecolor="#ffffff"
     bordercolor="#666666"
     borderopacity="1"
     objecttolerance="10"
     gridtolerance="10"
     guidetolerance="10"
     inkscape:pageopacity="0"
     inkscape:pageshadow="2"
     inkscape:window-width="3840"
     inkscape:window-height="2065"
     id="namedview206"
     showgrid="false"
     fit-margin-top="0"
     fit-margin-left="0"
     fit-margin-right="0"
     fit-margin-bottom="0"
     inkscape:zoom="2.3787924"
     inkscape:cx="242.38984"
     inkscape:cy="245.2057"
     inkscape:window-x="3840"
     inkscape:window-y="0"
     inkscape:window-maximized="1"
     inkscape:current-layer="svg204" />
  <title
     id="title2">SVG Picture created as Apollo-Edge_Cuts.svg date 2020/02/25 23:29:38 </title>
  <desc
     id="desc4">Picture generated by PCBNEW </desc>
  <g
     style="fill:#000000;fill-opacity:1;stroke:#000000;stroke-linecap:round;stroke-linejoin:round;stroke-opacity:1"
     id="g6"
     transform="translate(-35590.26,-17419.525)" />
  <g
     style="fill:#000000;fill-opacity:0;stroke:#000000;stroke-width:-0.0003937;stroke-linecap:round;stroke-linejoin:round;stroke-opacity:1"
     id="g8"
     transform="translate(-35590.26,-17419.525)" />
  <g
     style="fill:#000000;fill-opacity:0;stroke:#000000;stroke-width:19.68499947;stroke-linecap:round;stroke-linejoin:round;stroke-opacity:1"
     id="g202"
     transform="translate(-35590.26,-17419.525)">
    <circle
       cx="92844.398"
       cy="21010"
       r="615"
       id="circle10" />
    <circle
       cx="75769.398"
       cy="61035"
       r="615"
       id="circle12" />
    <circle
       cx="51485"
       cy="67835"
       r="615"
       id="circle14" />
    <circle
       cx="47344.398"
       cy="48235"
       r="615"
       id="circle16" />
    <circle
       cx="50269.398"
       cy="20110"
       r="615"
       id="circle18" />
    <path
       d="m 52295,65895 1535,-1000"
       id="path20"
       inkscape:connector-curvature="0" />
    <path
       d="m 57785,63025 -3955,1870"
       id="path22"
       inkscape:connector-curvature="0" />
    <path
       d="m 52295,65895 485,765"
       id="path24"
       inkscape:connector-curvature="0" />
    <path
       d="m 49305,67835 481,743"
       id="path26"
       inkscape:connector-curvature="0" />
    <path
       d="M 49786.9,68578.8 A 1777.67,1777.67 0 1 0 52780,66660"
       id="path28"
       inkscape:connector-curvature="0" />
    <path
       d="m 48484,21075 1,25395"
       id="path30"
       inkscape:connector-curvature="0" />
    <path
       d="m 73980,60705 v -680"
       id="path32"
       inkscape:connector-curvature="0" />
    <path
       d="m 73980,60705.9 a 1777.65,1777.65 0 0 0 3555.3,0"
       id="path34"
       inkscape:connector-curvature="0" />
    <path
       d="m 77535,60705 v -680"
       id="path36"
       inkscape:connector-curvature="0" />
    <path
       d="m 47654,46470 h 831"
       id="path38"
       inkscape:connector-curvature="0" />
    <path
       d="m 47654.1,46470 a 1777.65,1777.65 0 0 0 0,3555.3"
       id="path40"
       inkscape:connector-curvature="0" />
    <path
       d="m 47654,50025 h 831"
       id="path42"
       inkscape:connector-curvature="0" />
    <path
       d="m 52039,20394 v 681"
       id="path44"
       inkscape:connector-curvature="0" />
    <path
       d="m 52040,20394.1 a 1777.65,1777.65 0 0 0 -3555.3,0"
       id="path46"
       inkscape:connector-curvature="0" />
    <path
       d="m 48484,20394 v 681"
       id="path48"
       inkscape:connector-curvature="0" />
    <path
       d="m 99715,49339 h -680"
       id="path50"
       inkscape:connector-curvature="0" />
    <path
       d="m 99715.9,49340 a 1777.65,1777.65 0 0 0 0,-3555.3"
       id="path52"
       inkscape:connector-curvature="0" />
    <path
       d="m 99715,45784 h -680"
       id="path54"
       inkscape:connector-curvature="0" />
    <circle
       cx="100019"
       cy="47560"
       r="615"
       id="circle56" />
    <path
       d="m 94614,21319 v 681"
       id="path58"
       inkscape:connector-curvature="0" />
    <path
       d="m 91059,21319 v 681"
       id="path60"
       inkscape:connector-curvature="0" />
    <path
       d="m 94615,21319.1 a 1777.65,1777.65 0 0 0 -3555.3,0"
       id="path62"
       inkscape:connector-curvature="0" />
    <path
       d="m 49305,67835 -5135,3335"
       id="path64"
       inkscape:connector-curvature="0" />
    <path
       d="m 48485,50025 v 2194"
       id="path66"
       inkscape:connector-curvature="0" />
    <path
       d="m 94614,22000 h 3871"
       id="path68"
       inkscape:connector-curvature="0" />
    <path
       d="M 99035,49339 V 61350"
       id="path70"
       inkscape:connector-curvature="0" />
    <path
       d="m 77535,60025 h 825"
       id="path72"
       inkscape:connector-curvature="0" />
    <path
       d="m 48287.8,52550 a 375,375 0 0 0 197.2,-330.2"
       id="path74"
       inkscape:connector-curvature="0" />
    <path
       d="m 36900,59948.5 a 362.353,362.353 0 0 0 -119,471.5"
       id="path76"
       inkscape:connector-curvature="0" />
    <path
       d="M 48537,52390 36900,59950"
       id="path78"
       inkscape:connector-curvature="0" />
    <path
       d="m 43698.5,71051 a 362.353,362.353 0 0 0 471.5,119"
       id="path80"
       inkscape:connector-curvature="0" />
    <path
       d="m 36780,60420 7018,10794"
       id="path82"
       inkscape:connector-curvature="0" />
    <path
       d="m 64760,60300 -6975,2725"
       id="path84"
       inkscape:connector-curvature="0" />
    <path
       d="m 71860,60025 -7100,275"
       id="path86"
       inkscape:connector-curvature="0" />
    <path
       d="m 78910,61350 v -775"
       id="path88"
       inkscape:connector-curvature="0" />
    <path
       d="m 56410,20325 v 200"
       id="path90"
       inkscape:connector-curvature="0" />
    <path
       d="m 63910,19425 v 125"
       id="path92"
       inkscape:connector-curvature="0" />
    <path
       d="m 72960,19425 v 150"
       id="path94"
       inkscape:connector-curvature="0" />
    <path
       d="m 80460,20675 v 775"
       id="path96"
       inkscape:connector-curvature="0" />
    <path
       d="m 71860,60025 h 2120"
       id="path98"
       inkscape:connector-curvature="0" />
    <path
       d="M 79460,61900 H 98485"
       id="path100"
       inkscape:connector-curvature="0" />
    <path
       d="m 52039,21075 h 3821"
       id="path102"
       inkscape:connector-curvature="0" />
    <path
       d="m 56635,20100 h 6725"
       id="path104"
       inkscape:connector-curvature="0" />
    <path
       d="m 64135,19200 h 8600"
       id="path106"
       inkscape:connector-curvature="0" />
    <path
       d="m 73510,20125 h 6400"
       id="path108"
       inkscape:connector-curvature="0" />
    <path
       d="M 81010,22000 H 91059"
       id="path110"
       inkscape:connector-curvature="0" />
    <path
       d="m 56635,20100 a 225,225 0 0 0 -225,225"
       id="path112"
       inkscape:connector-curvature="0" />
    <path
       d="m 64135,19200 a 225,225 0 0 0 -225,225"
       id="path114"
       inkscape:connector-curvature="0" />
    <path
       d="m 72960,19425 a 225,225 0 0 0 -225,-225"
       id="path116"
       inkscape:connector-curvature="0" />
    <path
       d="m 78910,60575 a 550,550 0 0 0 -550,-550"
       id="path118"
       inkscape:connector-curvature="0" />
    <path
       d="m 78910,61350 a 550,550 0 0 0 550,550"
       id="path120"
       inkscape:connector-curvature="0" />
    <path
       d="m 98485,61900 a 550,550 0 0 0 550,-550"
       id="path122"
       inkscape:connector-curvature="0" />
    <path
       d="m 55860,21075 a 550,550 0 0 0 550,-550"
       id="path124"
       inkscape:connector-curvature="0" />
    <path
       d="m 63360,20100 a 550,550 0 0 0 550,-550"
       id="path126"
       inkscape:connector-curvature="0" />
    <path
       d="m 72960,19575 a 550,550 0 0 0 550,550"
       id="path128"
       inkscape:connector-curvature="0" />
    <path
       d="m 80460,20675 a 550,550 0 0 0 -550,-550"
       id="path130"
       inkscape:connector-curvature="0" />
    <path
       d="m 80460,21450 a 550,550 0 0 0 550,550"
       id="path132"
       inkscape:connector-curvature="0" />
    <path
       d="m 99035,22550 a 550,550 0 0 0 -550,-550"
       id="path134"
       inkscape:connector-curvature="0" />
    <path
       d="M 99035,45784 V 22550"
       id="path136"
       inkscape:connector-curvature="0" />
    <g
       id="g138" />
    <g
       id="g140" />
    <g
       id="g142" />
    <g
       id="g144" />
    <g
       id="g146" />
    <g
       id="g148" />
    <g
       id="g150" />
    <g
       id="g152" />
    <g
       id="g154" />
    <g
       id="g156" />
    <g
       id="g158" />
    <g
       id="g160" />
    <g
       id="g162" />
    <g
       id="g164" />
    <g
       id="g166" />
    <g
       id="g168" />
    <g
       id="g170" />
    <g
       id="g172" />
    <g
       id="g174" />
    <g
       id="g176" />
    <g
       id="g178" />
    <g
       id="g180" />
    <g
       id="g182" />
    <g
       id="g184" />
    <g
       id="g186" />
    <g
       id="g188" />
    <g
       id="g190" />
    <g
       id="g192" />
    <g
       id="g194" />
    <g
       id="g196" />
    <g
       id="g198" />
    <g
       id="g200" />
  </g>
</svg>
