  0
SECTION
  2
HEADER
  9
$ANGBASE
  50
0.0
  9
$ANGDIR
  70
1
  9
$MEASUREMENT
  70
1
  0
ENDSEC
  0
SECTION
  2
TABLES
  0
TABLE
  2
LTYPE
  70
4
  0
LTYPE
  5
40F
  2
CONTINUOUS
  70
0
  3
Solid line
  72
65
  73
0
  40
0.0
  0
LTYPE
  5
410
  2
DASHDOT
 70
0
  3
Dash Dot ____ _ ____ _
 72
65
 73
4
 40
2.0
 49
1.25
 49
-0.25
 49
0.25
 49
-0.25
  0
LTYPE
  5
411
  2
DASHED
 70
0
  3
Dashed __ __ __ __ __
 72
65
 73
2
 40
0.75
 49
0.5
 49
-0.25
  0
LTYPE
  5
43B
  2
DOTTED
 70
0
  3
Dotted .  .  .  .
 72
65
 73
2
 40
0.2
 49
0.0
 49
-0.2
  0
ENDTAB
  0
TABLE
  2
STYLE
  70
4
  0
STYLE
  2
KICAD
  70
0
  40
0
  41
1
  42
1
  50
0
  71
0
  3
isocp.shx
  0
STYLE
  2
KICADB
  70
0
  40
0
  41
1
  42
1
  50
0
  71
0
  3
isocp.shx
  0
STYLE
  2
KICADI
  70
0
  40
0
  41
1
  42
1
  50
15
  71
0
  3
isocp.shx
  0
STYLE
  2
KICADBI
  70
0
  40
0
  41
1
  42
1
  50
15
  71
0
  3
isocp.shx
  0
ENDTAB
  0
TABLE
  2
LAYER
  70
1
  0
LAYER
  2
BLACK
  70
0
  62
7
  6
CONTINUOUS
  0
ENDTAB
  0
ENDSEC
  0
SECTION
  2
ENTITIES
0
LINE
8
BLACK
6
CONTINUOUS
10
201.826
20
-157.251
11
201.826
21
-157.251
0
LINE
8
BLACK
6
CONTINUOUS
10
201.826
20
-157.251
11
201.555
21
-157.224
0
LINE
8
BLACK
6
CONTINUOUS
10
201.555
20
-157.224
11
201.554
21
-157.224
0
LINE
8
BLACK
6
CONTINUOUS
10
201.554
20
-157.224
11
201.552
21
-157.224
0
LINE
8
BLACK
6
CONTINUOUS
10
201.552
20
-157.224
11
201.55
21
-157.223
0
LINE
8
BLACK
6
CONTINUOUS
10
201.55
20
-157.223
11
201.289
21
-157.145
0
LINE
8
BLACK
6
CONTINUOUS
10
201.289
20
-157.145
11
201.288
21
-157.144
0
LINE
8
BLACK
6
CONTINUOUS
10
201.288
20
-157.144
11
201.286
21
-157.144
0
LINE
8
BLACK
6
CONTINUOUS
10
201.286
20
-157.144
11
201.284
21
-157.143
0
LINE
8
BLACK
6
CONTINUOUS
10
201.284
20
-157.143
11
201.044
21
-157.015
0
LINE
8
BLACK
6
CONTINUOUS
10
201.044
20
-157.015
11
201.043
21
-157.014
0
LINE
8
BLACK
6
CONTINUOUS
10
201.043
20
-157.014
11
201.041
21
-157.013
0
LINE
8
BLACK
6
CONTINUOUS
10
201.041
20
-157.013
11
201.04
21
-157.012
0
LINE
8
BLACK
6
CONTINUOUS
10
201.04
20
-157.012
11
200.828
21
-156.84
0
LINE
8
BLACK
6
CONTINUOUS
10
200.828
20
-156.84
11
200.828
21
-156.839
0
LINE
8
BLACK
6
CONTINUOUS
10
200.828
20
-156.839
11
200.826
21
-156.838
0
LINE
8
BLACK
6
CONTINUOUS
10
200.826
20
-156.838
11
200.825
21
-156.836
0
LINE
8
BLACK
6
CONTINUOUS
10
200.825
20
-156.836
11
200.651
21
-156.626
0
LINE
8
BLACK
6
CONTINUOUS
10
200.651
20
-156.626
11
200.651
21
-156.626
0
LINE
8
BLACK
6
CONTINUOUS
10
200.651
20
-156.626
11
200.65
21
-156.624
0
LINE
8
BLACK
6
CONTINUOUS
10
200.65
20
-156.624
11
200.648
21
-156.622
0
LINE
8
BLACK
6
CONTINUOUS
10
200.648
20
-156.622
11
200.519
21
-156.382
0
LINE
8
BLACK
6
CONTINUOUS
10
200.519
20
-156.382
11
200.518
21
-156.382
0
LINE
8
BLACK
6
CONTINUOUS
10
200.518
20
-156.382
11
200.518
21
-156.38
0
LINE
8
BLACK
6
CONTINUOUS
10
200.518
20
-156.38
11
200.517
21
-156.378
0
LINE
8
BLACK
6
CONTINUOUS
10
200.517
20
-156.378
11
200.436
21
-156.117
0
LINE
8
BLACK
6
CONTINUOUS
10
200.436
20
-156.117
11
200.436
21
-156.117
0
LINE
8
BLACK
6
CONTINUOUS
10
200.436
20
-156.117
11
200.436
21
-156.115
0
LINE
8
BLACK
6
CONTINUOUS
10
200.436
20
-156.115
11
200.435
21
-156.113
0
LINE
8
BLACK
6
CONTINUOUS
10
200.435
20
-156.113
11
200.407
21
-155.841
0
LINE
8
BLACK
6
CONTINUOUS
10
200.407
20
-155.841
11
200.407
21
-155.841
0
LINE
8
BLACK
6
CONTINUOUS
10
200.407
20
-155.841
11
200.407
21
-155.84
0
LINE
8
BLACK
6
CONTINUOUS
10
200.407
20
-155.84
11
200.406
21
-155.839
0
LINE
8
BLACK
6
CONTINUOUS
10
200.406
20
-155.839
11
200.406
21
-155.83
0
LINE
8
BLACK
6
CONTINUOUS
10
200.406
20
-155.83
11
200.406
21
-155.83
0
LINE
8
BLACK
6
CONTINUOUS
10
200.406
20
-155.83
11
200.406
21
-153.861
0
LINE
8
BLACK
6
CONTINUOUS
10
200.406
20
-153.861
11
200.406
21
-153.861
0
LINE
8
BLACK
6
CONTINUOUS
10
200.406
20
-153.861
11
200.406
21
-153.852
0
LINE
8
BLACK
6
CONTINUOUS
10
200.406
20
-153.852
11
200.378
21
-153.585
0
LINE
8
BLACK
6
CONTINUOUS
10
200.378
20
-153.585
11
200.299
21
-153.329
0
LINE
8
BLACK
6
CONTINUOUS
10
200.299
20
-153.329
11
200.172
21
-153.093
0
LINE
8
BLACK
6
CONTINUOUS
10
200.172
20
-153.093
11
200.001
21
-152.887
0
LINE
8
BLACK
6
CONTINUOUS
10
200.001
20
-152.887
11
199.794
21
-152.718
0
LINE
8
BLACK
6
CONTINUOUS
10
199.794
20
-152.718
11
199.557
21
-152.592
0
LINE
8
BLACK
6
CONTINUOUS
10
199.557
20
-152.592
11
199.301
21
-152.515
0
LINE
8
BLACK
6
CONTINUOUS
10
199.301
20
-152.515
11
199.033
21
-152.488
0
LINE
8
BLACK
6
CONTINUOUS
10
199.033
20
-152.488
11
196.965
21
-152.488
0
LINE
8
BLACK
6
CONTINUOUS
10
196.965
20
-152.488
11
196.965
21
-154.194
0
LINE
8
BLACK
6
CONTINUOUS
10
196.965
20
-154.194
11
196.964
21
-154.195
0
LINE
8
BLACK
6
CONTINUOUS
10
196.964
20
-154.195
11
196.964
21
-154.195
0
LINE
8
BLACK
6
CONTINUOUS
10
196.964
20
-154.195
11
196.883
21
-155.049
0
LINE
8
BLACK
6
CONTINUOUS
10
196.883
20
-155.049
11
196.883
21
-155.052
0
LINE
8
BLACK
6
CONTINUOUS
10
196.883
20
-155.052
11
196.882
21
-155.053
0
LINE
8
BLACK
6
CONTINUOUS
10
196.882
20
-155.053
11
196.882
21
-155.054
0
LINE
8
BLACK
6
CONTINUOUS
10
196.882
20
-155.054
11
196.641
21
-155.877
0
LINE
8
BLACK
6
CONTINUOUS
10
196.641
20
-155.877
11
196.64
21
-155.879
0
LINE
8
BLACK
6
CONTINUOUS
10
196.64
20
-155.879
11
196.639
21
-155.88
0
LINE
8
BLACK
6
CONTINUOUS
10
196.639
20
-155.88
11
196.639
21
-155.881
0
LINE
8
BLACK
6
CONTINUOUS
10
196.639
20
-155.881
11
196.246
21
-156.644
0
LINE
8
BLACK
6
CONTINUOUS
10
196.246
20
-156.644
11
196.245
21
-156.646
0
LINE
8
BLACK
6
CONTINUOUS
10
196.245
20
-156.646
11
196.244
21
-156.647
0
LINE
8
BLACK
6
CONTINUOUS
10
196.244
20
-156.647
11
196.244
21
-156.648
0
LINE
8
BLACK
6
CONTINUOUS
10
196.244
20
-156.648
11
195.714
21
-157.322
0
LINE
8
BLACK
6
CONTINUOUS
10
195.714
20
-157.322
11
195.712
21
-157.324
0
LINE
8
BLACK
6
CONTINUOUS
10
195.712
20
-157.324
11
195.711
21
-157.325
0
LINE
8
BLACK
6
CONTINUOUS
10
195.711
20
-157.325
11
195.711
21
-157.326
0
LINE
8
BLACK
6
CONTINUOUS
10
195.711
20
-157.326
11
195.063
21
-157.888
0
LINE
8
BLACK
6
CONTINUOUS
10
195.063
20
-157.888
11
195.061
21
-157.889
0
LINE
8
BLACK
6
CONTINUOUS
10
195.061
20
-157.889
11
195.06
21
-157.89
0
LINE
8
BLACK
6
CONTINUOUS
10
195.06
20
-157.89
11
195.059
21
-157.891
0
LINE
8
BLACK
6
CONTINUOUS
10
195.059
20
-157.891
11
194.317
21
-158.32
0
LINE
8
BLACK
6
CONTINUOUS
10
194.317
20
-158.32
11
194.314
21
-158.321
0
LINE
8
BLACK
6
CONTINUOUS
10
194.314
20
-158.321
11
194.313
21
-158.322
0
LINE
8
BLACK
6
CONTINUOUS
10
194.313
20
-158.322
11
194.312
21
-158.322
0
LINE
8
BLACK
6
CONTINUOUS
10
194.312
20
-158.322
11
193.502
21
-158.603
0
LINE
8
BLACK
6
CONTINUOUS
10
193.502
20
-158.603
11
193.5
21
-158.604
0
LINE
8
BLACK
6
CONTINUOUS
10
193.5
20
-158.604
11
193.498
21
-158.604
0
LINE
8
BLACK
6
CONTINUOUS
10
193.498
20
-158.604
11
193.497
21
-158.604
0
LINE
8
BLACK
6
CONTINUOUS
10
193.497
20
-158.604
11
192.649
21
-158.728
0
LINE
8
BLACK
6
CONTINUOUS
10
192.649
20
-158.728
11
192.646
21
-158.728
0
LINE
8
BLACK
6
CONTINUOUS
10
192.646
20
-158.728
11
192.645
21
-158.728
0
LINE
8
BLACK
6
CONTINUOUS
10
192.645
20
-158.728
11
192.644
21
-158.728
0
LINE
8
BLACK
6
CONTINUOUS
10
192.644
20
-158.728
11
191.787
21
-158.688
0
LINE
8
BLACK
6
CONTINUOUS
10
191.787
20
-158.688
11
191.785
21
-158.688
0
LINE
8
BLACK
6
CONTINUOUS
10
191.785
20
-158.688
11
191.783
21
-158.688
0
LINE
8
BLACK
6
CONTINUOUS
10
191.783
20
-158.688
11
191.782
21
-158.687
0
LINE
8
BLACK
6
CONTINUOUS
10
191.782
20
-158.687
11
190.949
21
-158.486
0
LINE
8
BLACK
6
CONTINUOUS
10
190.949
20
-158.486
11
190.946
21
-158.486
0
LINE
8
BLACK
6
CONTINUOUS
10
190.946
20
-158.486
11
190.945
21
-158.485
0
LINE
8
BLACK
6
CONTINUOUS
10
190.945
20
-158.485
11
190.944
21
-158.485
0
LINE
8
BLACK
6
CONTINUOUS
10
190.944
20
-158.485
11
190.163
21
-158.13
0
LINE
8
BLACK
6
CONTINUOUS
10
190.163
20
-158.13
11
190.163
21
-158.13
0
LINE
8
BLACK
6
CONTINUOUS
10
190.163
20
-158.13
11
190.163
21
-158.13
0
LINE
8
BLACK
6
CONTINUOUS
10
190.163
20
-158.13
11
190.161
21
-158.129
0
LINE
8
BLACK
6
CONTINUOUS
10
190.161
20
-158.129
11
190.16
21
-158.128
0
LINE
8
BLACK
6
CONTINUOUS
10
190.16
20
-158.128
11
190.159
21
-158.128
0
LINE
8
BLACK
6
CONTINUOUS
10
190.159
20
-158.128
11
189.46
21
-157.631
0
LINE
8
BLACK
6
CONTINUOUS
10
189.46
20
-157.631
11
189.458
21
-157.63
0
LINE
8
BLACK
6
CONTINUOUS
10
189.458
20
-157.63
11
189.457
21
-157.629
0
LINE
8
BLACK
6
CONTINUOUS
10
189.457
20
-157.629
11
189.456
21
-157.628
0
LINE
8
BLACK
6
CONTINUOUS
10
189.456
20
-157.628
11
188.863
21
-157.009
0
LINE
8
BLACK
6
CONTINUOUS
10
188.863
20
-157.009
11
188.861
21
-157.007
0
LINE
8
BLACK
6
CONTINUOUS
10
188.861
20
-157.007
11
188.861
21
-157.006
0
LINE
8
BLACK
6
CONTINUOUS
10
188.861
20
-157.006
11
188.86
21
-157.005
0
LINE
8
BLACK
6
CONTINUOUS
10
188.86
20
-157.005
11
188.395
21
-156.284
0
LINE
8
BLACK
6
CONTINUOUS
10
188.395
20
-156.284
11
188.394
21
-156.282
0
LINE
8
BLACK
6
CONTINUOUS
10
188.394
20
-156.282
11
188.393
21
-156.281
0
LINE
8
BLACK
6
CONTINUOUS
10
188.393
20
-156.281
11
188.393
21
-156.28
0
LINE
8
BLACK
6
CONTINUOUS
10
188.393
20
-156.28
11
188.072
21
-155.485
0
LINE
8
BLACK
6
CONTINUOUS
10
188.072
20
-155.485
11
188.071
21
-155.482
0
LINE
8
BLACK
6
CONTINUOUS
10
188.071
20
-155.482
11
188.071
21
-155.481
0
LINE
8
BLACK
6
CONTINUOUS
10
188.071
20
-155.481
11
188.071
21
-155.48
0
LINE
8
BLACK
6
CONTINUOUS
10
188.071
20
-155.48
11
187.906
21
-154.638
0
LINE
8
BLACK
6
CONTINUOUS
10
187.906
20
-154.638
11
187.906
21
-154.636
0
LINE
8
BLACK
6
CONTINUOUS
10
187.906
20
-154.636
11
187.906
21
-154.635
0
LINE
8
BLACK
6
CONTINUOUS
10
187.906
20
-154.635
11
187.906
21
-154.635
0
LINE
8
BLACK
6
CONTINUOUS
10
187.906
20
-154.635
11
187.884
21
-154.195
0
LINE
8
BLACK
6
CONTINUOUS
10
187.884
20
-154.195
11
187.884
21
-154.194
0
LINE
8
BLACK
6
CONTINUOUS
10
187.884
20
-154.194
11
187.884
21
-152.488
0
LINE
8
BLACK
6
CONTINUOUS
10
187.884
20
-152.488
11
182.525
21
-152.488
0
LINE
8
BLACK
6
CONTINUOUS
10
182.525
20
-152.488
11
164.496
21
-153.187
0
LINE
8
BLACK
6
CONTINUOUS
10
164.496
20
-153.187
11
146.784
21
-160.106
0
LINE
8
BLACK
6
CONTINUOUS
10
146.784
20
-160.106
11
136.74
21
-164.855
0
LINE
8
BLACK
6
CONTINUOUS
10
136.74
20
-164.855
11
132.864
21
-167.381
0
LINE
8
BLACK
6
CONTINUOUS
10
132.864
20
-167.381
11
134.083
21
-169.304
0
LINE
8
BLACK
6
CONTINUOUS
10
134.083
20
-169.304
11
134.083
21
-169.305
0
LINE
8
BLACK
6
CONTINUOUS
10
134.083
20
-169.305
11
134.479
21
-170.066
0
LINE
8
BLACK
6
CONTINUOUS
10
134.479
20
-170.066
11
134.48
21
-170.068
0
LINE
8
BLACK
6
CONTINUOUS
10
134.48
20
-170.068
11
134.48
21
-170.069
0
LINE
8
BLACK
6
CONTINUOUS
10
134.48
20
-170.069
11
134.481
21
-170.07
0
LINE
8
BLACK
6
CONTINUOUS
10
134.481
20
-170.07
11
134.725
21
-170.892
0
LINE
8
BLACK
6
CONTINUOUS
10
134.725
20
-170.892
11
134.726
21
-170.895
0
LINE
8
BLACK
6
CONTINUOUS
10
134.726
20
-170.895
11
134.726
21
-170.896
0
LINE
8
BLACK
6
CONTINUOUS
10
134.726
20
-170.896
11
134.726
21
-170.897
0
LINE
8
BLACK
6
CONTINUOUS
10
134.726
20
-170.897
11
134.811
21
-171.751
0
LINE
8
BLACK
6
CONTINUOUS
10
134.811
20
-171.751
11
134.811
21
-171.753
0
LINE
8
BLACK
6
CONTINUOUS
10
134.811
20
-171.753
11
134.811
21
-171.754
0
LINE
8
BLACK
6
CONTINUOUS
10
134.811
20
-171.754
11
134.811
21
-171.755
0
LINE
8
BLACK
6
CONTINUOUS
10
134.811
20
-171.755
11
134.732
21
-172.609
0
LINE
8
BLACK
6
CONTINUOUS
10
134.732
20
-172.609
11
134.732
21
-172.612
0
LINE
8
BLACK
6
CONTINUOUS
10
134.732
20
-172.612
11
134.732
21
-172.613
0
LINE
8
BLACK
6
CONTINUOUS
10
134.732
20
-172.613
11
134.732
21
-172.614
0
LINE
8
BLACK
6
CONTINUOUS
10
134.732
20
-172.614
11
134.493
21
-173.438
0
LINE
8
BLACK
6
CONTINUOUS
10
134.493
20
-173.438
11
134.492
21
-173.44
0
LINE
8
BLACK
6
CONTINUOUS
10
134.492
20
-173.44
11
134.492
21
-173.441
0
LINE
8
BLACK
6
CONTINUOUS
10
134.492
20
-173.441
11
134.491
21
-173.442
0
LINE
8
BLACK
6
CONTINUOUS
10
134.491
20
-173.442
11
134.102
21
-174.206
0
LINE
8
BLACK
6
CONTINUOUS
10
134.102
20
-174.206
11
134.1
21
-174.209
0
LINE
8
BLACK
6
CONTINUOUS
10
134.1
20
-174.209
11
134.1
21
-174.209
0
LINE
8
BLACK
6
CONTINUOUS
10
134.1
20
-174.209
11
134.099
21
-174.21
0
LINE
8
BLACK
6
CONTINUOUS
10
134.099
20
-174.21
11
133.572
21
-174.887
0
LINE
8
BLACK
6
CONTINUOUS
10
133.572
20
-174.887
11
133.57
21
-174.889
0
LINE
8
BLACK
6
CONTINUOUS
10
133.57
20
-174.889
11
133.569
21
-174.889
0
LINE
8
BLACK
6
CONTINUOUS
10
133.569
20
-174.889
11
133.568
21
-174.89
0
LINE
8
BLACK
6
CONTINUOUS
10
133.568
20
-174.89
11
132.923
21
-175.455
0
LINE
8
BLACK
6
CONTINUOUS
10
132.923
20
-175.455
11
132.921
21
-175.456
0
LINE
8
BLACK
6
CONTINUOUS
10
132.921
20
-175.456
11
132.92
21
-175.457
0
LINE
8
BLACK
6
CONTINUOUS
10
132.92
20
-175.457
11
132.919
21
-175.458
0
LINE
8
BLACK
6
CONTINUOUS
10
132.919
20
-175.458
11
132.178
21
-175.89
0
LINE
8
BLACK
6
CONTINUOUS
10
132.178
20
-175.89
11
132.176
21
-175.891
0
LINE
8
BLACK
6
CONTINUOUS
10
132.176
20
-175.891
11
132.175
21
-175.891
0
LINE
8
BLACK
6
CONTINUOUS
10
132.175
20
-175.891
11
132.174
21
-175.892
0
LINE
8
BLACK
6
CONTINUOUS
10
132.174
20
-175.892
11
131.365
21
-176.176
0
LINE
8
BLACK
6
CONTINUOUS
10
131.365
20
-176.176
11
131.362
21
-176.177
0
LINE
8
BLACK
6
CONTINUOUS
10
131.362
20
-176.177
11
131.361
21
-176.177
0
LINE
8
BLACK
6
CONTINUOUS
10
131.361
20
-176.177
11
131.36
21
-176.177
0
LINE
8
BLACK
6
CONTINUOUS
10
131.36
20
-176.177
11
130.512
21
-176.304
0
LINE
8
BLACK
6
CONTINUOUS
10
130.512
20
-176.304
11
130.509
21
-176.304
0
LINE
8
BLACK
6
CONTINUOUS
10
130.509
20
-176.304
11
130.508
21
-176.304
0
LINE
8
BLACK
6
CONTINUOUS
10
130.508
20
-176.304
11
130.507
21
-176.304
0
LINE
8
BLACK
6
CONTINUOUS
10
130.507
20
-176.304
11
129.65
21
-176.267
0
LINE
8
BLACK
6
CONTINUOUS
10
129.65
20
-176.267
11
129.647
21
-176.267
0
LINE
8
BLACK
6
CONTINUOUS
10
129.647
20
-176.267
11
129.646
21
-176.267
0
LINE
8
BLACK
6
CONTINUOUS
10
129.646
20
-176.267
11
129.645
21
-176.267
0
LINE
8
BLACK
6
CONTINUOUS
10
129.645
20
-176.267
11
128.811
21
-176.069
0
LINE
8
BLACK
6
CONTINUOUS
10
128.811
20
-176.069
11
128.811
21
-176.069
0
LINE
8
BLACK
6
CONTINUOUS
10
128.811
20
-176.069
11
128.811
21
-176.069
0
LINE
8
BLACK
6
CONTINUOUS
10
128.811
20
-176.069
11
128.808
21
-176.068
0
LINE
8
BLACK
6
CONTINUOUS
10
128.808
20
-176.068
11
128.807
21
-176.068
0
LINE
8
BLACK
6
CONTINUOUS
10
128.807
20
-176.068
11
128.806
21
-176.067
0
LINE
8
BLACK
6
CONTINUOUS
10
128.806
20
-176.067
11
128.024
21
-175.715
0
LINE
8
BLACK
6
CONTINUOUS
10
128.024
20
-175.715
11
128.022
21
-175.714
0
LINE
8
BLACK
6
CONTINUOUS
10
128.022
20
-175.714
11
128.021
21
-175.713
0
LINE
8
BLACK
6
CONTINUOUS
10
128.021
20
-175.713
11
128.02
21
-175.713
0
LINE
8
BLACK
6
CONTINUOUS
10
128.02
20
-175.713
11
127.319
21
-175.219
0
LINE
8
BLACK
6
CONTINUOUS
10
127.319
20
-175.219
11
127.317
21
-175.218
0
LINE
8
BLACK
6
CONTINUOUS
10
127.317
20
-175.218
11
127.316
21
-175.217
0
LINE
8
BLACK
6
CONTINUOUS
10
127.316
20
-175.217
11
127.315
21
-175.216
0
LINE
8
BLACK
6
CONTINUOUS
10
127.315
20
-175.216
11
126.72
21
-174.599
0
LINE
8
BLACK
6
CONTINUOUS
10
126.72
20
-174.599
11
126.718
21
-174.597
0
LINE
8
BLACK
6
CONTINUOUS
10
126.718
20
-174.597
11
126.718
21
-174.596
0
LINE
8
BLACK
6
CONTINUOUS
10
126.718
20
-174.596
11
126.717
21
-174.596
0
LINE
8
BLACK
6
CONTINUOUS
10
126.717
20
-174.596
11
126.439
21
-174.205
0
LINE
8
BLACK
6
CONTINUOUS
10
126.439
20
-174.205
11
126.438
21
-174.205
0
LINE
8
BLACK
6
CONTINUOUS
10
126.438
20
-174.205
11
125.227
21
-172.335
0
LINE
8
BLACK
6
CONTINUOUS
10
125.227
20
-172.335
11
112.204
21
-180.793
0
LINE
8
BLACK
6
CONTINUOUS
10
112.204
20
-180.793
11
112.201
21
-180.795
0
LINE
8
BLACK
6
CONTINUOUS
10
112.201
20
-180.795
11
112.2
21
-180.795
0
LINE
8
BLACK
6
CONTINUOUS
10
112.2
20
-180.795
11
112.035
21
-180.863
0
LINE
8
BLACK
6
CONTINUOUS
10
112.035
20
-180.863
11
112.035
21
-180.863
0
LINE
8
BLACK
6
CONTINUOUS
10
112.035
20
-180.863
11
112.033
21
-180.864
0
LINE
8
BLACK
6
CONTINUOUS
10
112.033
20
-180.864
11
112.031
21
-180.865
0
LINE
8
BLACK
6
CONTINUOUS
10
112.031
20
-180.865
11
111.854
21
-180.9
0
LINE
8
BLACK
6
CONTINUOUS
10
111.854
20
-180.9
11
111.854
21
-180.9
0
LINE
8
BLACK
6
CONTINUOUS
10
111.854
20
-180.9
11
111.852
21
-180.9
0
LINE
8
BLACK
6
CONTINUOUS
10
111.852
20
-180.9
11
111.849
21
-180.9
0
LINE
8
BLACK
6
CONTINUOUS
10
111.849
20
-180.9
11
111.67
21
-180.9
0
LINE
8
BLACK
6
CONTINUOUS
10
111.67
20
-180.9
11
111.67
21
-180.9
0
LINE
8
BLACK
6
CONTINUOUS
10
111.67
20
-180.9
11
111.667
21
-180.9
0
LINE
8
BLACK
6
CONTINUOUS
10
111.667
20
-180.9
11
111.665
21
-180.899
0
LINE
8
BLACK
6
CONTINUOUS
10
111.665
20
-180.899
11
111.489
21
-180.865
0
LINE
8
BLACK
6
CONTINUOUS
10
111.489
20
-180.865
11
111.488
21
-180.864
0
LINE
8
BLACK
6
CONTINUOUS
10
111.488
20
-180.864
11
111.486
21
-180.864
0
LINE
8
BLACK
6
CONTINUOUS
10
111.486
20
-180.864
11
111.484
21
-180.863
0
LINE
8
BLACK
6
CONTINUOUS
10
111.484
20
-180.863
11
111.318
21
-180.795
0
LINE
8
BLACK
6
CONTINUOUS
10
111.318
20
-180.795
11
111.318
21
-180.794
0
LINE
8
BLACK
6
CONTINUOUS
10
111.318
20
-180.794
11
111.316
21
-180.793
0
LINE
8
BLACK
6
CONTINUOUS
10
111.316
20
-180.793
11
111.314
21
-180.792
0
LINE
8
BLACK
6
CONTINUOUS
10
111.314
20
-180.792
11
111.164
21
-180.693
0
LINE
8
BLACK
6
CONTINUOUS
10
111.164
20
-180.693
11
111.164
21
-180.693
0
LINE
8
BLACK
6
CONTINUOUS
10
111.164
20
-180.693
11
111.162
21
-180.691
0
LINE
8
BLACK
6
CONTINUOUS
10
111.162
20
-180.691
11
111.16
21
-180.69
0
LINE
8
BLACK
6
CONTINUOUS
10
111.16
20
-180.69
11
111.134
21
-180.664
0
LINE
8
BLACK
6
CONTINUOUS
10
111.134
20
-180.664
11
111.27
21
-180.872
0
LINE
8
BLACK
6
CONTINUOUS
10
111.27
20
-180.872
11
111.272
21
-180.876
0
LINE
8
BLACK
6
CONTINUOUS
10
111.272
20
-180.876
11
111.273
21
-180.88
0
LINE
8
BLACK
6
CONTINUOUS
10
111.273
20
-180.88
11
111.273
21
-180.885
0
LINE
8
BLACK
6
CONTINUOUS
10
111.273
20
-180.885
11
111.273
21
-180.89
0
LINE
8
BLACK
6
CONTINUOUS
10
111.273
20
-180.89
11
111.271
21
-180.895
0
LINE
8
BLACK
6
CONTINUOUS
10
111.271
20
-180.895
11
111.269
21
-180.899
0
LINE
8
BLACK
6
CONTINUOUS
10
111.269
20
-180.899
11
111.266
21
-180.903
0
LINE
8
BLACK
6
CONTINUOUS
10
111.266
20
-180.903
11
111.262
21
-180.906
0
LINE
8
BLACK
6
CONTINUOUS
10
111.262
20
-180.906
11
111.258
21
-180.908
0
LINE
8
BLACK
6
CONTINUOUS
10
111.258
20
-180.908
11
111.253
21
-180.91
0
LINE
8
BLACK
6
CONTINUOUS
10
111.253
20
-180.91
11
111.248
21
-180.91
0
LINE
8
BLACK
6
CONTINUOUS
10
111.248
20
-180.91
11
111.243
21
-180.909
0
LINE
8
BLACK
6
CONTINUOUS
10
111.243
20
-180.909
11
111.238
21
-180.908
0
LINE
8
BLACK
6
CONTINUOUS
10
111.238
20
-180.908
11
111.234
21
-180.906
0
LINE
8
BLACK
6
CONTINUOUS
10
111.234
20
-180.906
11
111.23
21
-180.902
0
LINE
8
BLACK
6
CONTINUOUS
10
111.23
20
-180.902
11
111.228
21
-180.899
0
LINE
8
BLACK
6
CONTINUOUS
10
111.228
20
-180.899
11
93.4021
21
-153.479
0
LINE
8
BLACK
6
CONTINUOUS
10
93.4021
20
-153.479
11
93.4004
21
-153.476
0
LINE
8
BLACK
6
CONTINUOUS
10
93.4004
20
-153.476
11
93.4001
21
-153.475
0
LINE
8
BLACK
6
CONTINUOUS
10
93.4001
20
-153.475
11
93.3322
21
-153.31
0
LINE
8
BLACK
6
CONTINUOUS
10
93.3322
20
-153.31
11
93.3321
21
-153.31
0
LINE
8
BLACK
6
CONTINUOUS
10
93.3321
20
-153.31
11
93.3315
21
-153.308
0
LINE
8
BLACK
6
CONTINUOUS
10
93.3315
20
-153.308
11
93.3308
21
-153.306
0
LINE
8
BLACK
6
CONTINUOUS
10
93.3308
20
-153.306
11
93.296
21
-153.129
0
LINE
8
BLACK
6
CONTINUOUS
10
93.296
20
-153.129
11
93.2959
21
-153.129
0
LINE
8
BLACK
6
CONTINUOUS
10
93.2959
20
-153.129
11
93.2957
21
-153.127
0
LINE
8
BLACK
6
CONTINUOUS
10
93.2957
20
-153.127
11
93.2955
21
-153.124
0
LINE
8
BLACK
6
CONTINUOUS
10
93.2955
20
-153.124
11
93.2956
21
-152.945
0
LINE
8
BLACK
6
CONTINUOUS
10
93.2956
20
-152.945
11
93.2956
21
-152.945
0
LINE
8
BLACK
6
CONTINUOUS
10
93.2956
20
-152.945
11
93.2958
21
-152.942
0
LINE
8
BLACK
6
CONTINUOUS
10
93.2958
20
-152.942
11
93.2961
21
-152.94
0
LINE
8
BLACK
6
CONTINUOUS
10
93.2961
20
-152.94
11
93.331
21
-152.764
0
LINE
8
BLACK
6
CONTINUOUS
10
93.331
20
-152.764
11
93.3311
21
-152.763
0
LINE
8
BLACK
6
CONTINUOUS
10
93.3311
20
-152.763
11
93.3318
21
-152.761
0
LINE
8
BLACK
6
CONTINUOUS
10
93.3318
20
-152.761
11
93.3324
21
-152.759
0
LINE
8
BLACK
6
CONTINUOUS
10
93.3324
20
-152.759
11
93.4009
21
-152.593
0
LINE
8
BLACK
6
CONTINUOUS
10
93.4009
20
-152.593
11
93.4011
21
-152.593
0
LINE
8
BLACK
6
CONTINUOUS
10
93.4011
20
-152.593
11
93.4022
21
-152.591
0
LINE
8
BLACK
6
CONTINUOUS
10
93.4022
20
-152.591
11
93.4032
21
-152.589
0
LINE
8
BLACK
6
CONTINUOUS
10
93.4032
20
-152.589
11
93.5027
21
-152.439
0
LINE
8
BLACK
6
CONTINUOUS
10
93.5027
20
-152.439
11
93.5029
21
-152.439
0
LINE
8
BLACK
6
CONTINUOUS
10
93.5029
20
-152.439
11
93.5043
21
-152.437
0
LINE
8
BLACK
6
CONTINUOUS
10
93.5043
20
-152.437
11
93.5058
21
-152.435
0
LINE
8
BLACK
6
CONTINUOUS
10
93.5058
20
-152.435
11
93.6324
21
-152.308
0
LINE
8
BLACK
6
CONTINUOUS
10
93.6324
20
-152.308
11
93.6326
21
-152.308
0
LINE
8
BLACK
6
CONTINUOUS
10
93.6326
20
-152.308
11
93.6339
21
-152.307
0
LINE
8
BLACK
6
CONTINUOUS
10
93.6339
20
-152.307
11
93.6352
21
-152.306
0
LINE
8
BLACK
6
CONTINUOUS
10
93.6352
20
-152.306
11
93.7111
21
-152.249
0
LINE
8
BLACK
6
CONTINUOUS
10
93.7111
20
-152.249
11
93.7114
21
-152.249
0
LINE
8
BLACK
6
CONTINUOUS
10
93.7114
20
-152.249
11
93.7156
21
-152.246
0
LINE
8
BLACK
6
CONTINUOUS
10
93.7156
20
-152.246
11
93.7202
21
-152.245
0
LINE
8
BLACK
6
CONTINUOUS
10
93.7202
20
-152.245
11
93.7242
21
-152.244
0
LINE
8
BLACK
6
CONTINUOUS
10
93.7242
20
-152.244
11
122.628
21
-133.468
0
LINE
8
BLACK
6
CONTINUOUS
10
122.628
20
-133.468
11
122.628
21
-133.466
0
LINE
8
BLACK
6
CONTINUOUS
10
122.628
20
-133.466
11
122.631
21
-133.462
0
LINE
8
BLACK
6
CONTINUOUS
10
122.631
20
-133.462
11
122.634
21
-133.459
0
LINE
8
BLACK
6
CONTINUOUS
10
122.634
20
-133.459
11
122.638
21
-133.456
0
LINE
8
BLACK
6
CONTINUOUS
10
122.638
20
-133.456
11
122.718
21
-133.408
0
LINE
8
BLACK
6
CONTINUOUS
10
122.718
20
-133.408
11
122.857
21
-133.292
0
LINE
8
BLACK
6
CONTINUOUS
10
122.857
20
-133.292
11
122.972
21
-133.152
0
LINE
8
BLACK
6
CONTINUOUS
10
122.972
20
-133.152
11
123.057
21
-132.992
0
LINE
8
BLACK
6
CONTINUOUS
10
123.057
20
-132.992
11
123.109
21
-132.818
0
LINE
8
BLACK
6
CONTINUOUS
10
123.109
20
-132.818
11
123.127
21
-132.637
0
LINE
8
BLACK
6
CONTINUOUS
10
123.127
20
-132.637
11
123.127
21
-127.089
0
LINE
8
BLACK
6
CONTINUOUS
10
123.127
20
-127.089
11
121.04
21
-127.089
0
LINE
8
BLACK
6
CONTINUOUS
10
121.04
20
-127.089
11
121.039
21
-127.089
0
LINE
8
BLACK
6
CONTINUOUS
10
121.039
20
-127.089
11
121.039
21
-127.089
0
LINE
8
BLACK
6
CONTINUOUS
10
121.039
20
-127.089
11
120.185
21
-127.008
0
LINE
8
BLACK
6
CONTINUOUS
10
120.185
20
-127.008
11
120.183
21
-127.007
0
LINE
8
BLACK
6
CONTINUOUS
10
120.183
20
-127.007
11
120.182
21
-127.007
0
LINE
8
BLACK
6
CONTINUOUS
10
120.182
20
-127.007
11
120.181
21
-127.007
0
LINE
8
BLACK
6
CONTINUOUS
10
120.181
20
-127.007
11
119.358
21
-126.765
0
LINE
8
BLACK
6
CONTINUOUS
10
119.358
20
-126.765
11
119.355
21
-126.764
0
LINE
8
BLACK
6
CONTINUOUS
10
119.355
20
-126.764
11
119.354
21
-126.764
0
LINE
8
BLACK
6
CONTINUOUS
10
119.354
20
-126.764
11
119.353
21
-126.764
0
LINE
8
BLACK
6
CONTINUOUS
10
119.353
20
-126.764
11
118.591
21
-126.371
0
LINE
8
BLACK
6
CONTINUOUS
10
118.591
20
-126.371
11
118.589
21
-126.37
0
LINE
8
BLACK
6
CONTINUOUS
10
118.589
20
-126.37
11
118.588
21
-126.369
0
LINE
8
BLACK
6
CONTINUOUS
10
118.588
20
-126.369
11
118.587
21
-126.368
0
LINE
8
BLACK
6
CONTINUOUS
10
118.587
20
-126.368
11
117.912
21
-125.838
0
LINE
8
BLACK
6
CONTINUOUS
10
117.912
20
-125.838
11
117.91
21
-125.837
0
LINE
8
BLACK
6
CONTINUOUS
10
117.91
20
-125.837
11
117.91
21
-125.836
0
LINE
8
BLACK
6
CONTINUOUS
10
117.91
20
-125.836
11
117.909
21
-125.835
0
LINE
8
BLACK
6
CONTINUOUS
10
117.909
20
-125.835
11
117.347
21
-125.187
0
LINE
8
BLACK
6
CONTINUOUS
10
117.347
20
-125.187
11
117.345
21
-125.185
0
LINE
8
BLACK
6
CONTINUOUS
10
117.345
20
-125.185
11
117.345
21
-125.184
0
LINE
8
BLACK
6
CONTINUOUS
10
117.345
20
-125.184
11
117.344
21
-125.183
0
LINE
8
BLACK
6
CONTINUOUS
10
117.344
20
-125.183
11
116.914
21
-124.441
0
LINE
8
BLACK
6
CONTINUOUS
10
116.914
20
-124.441
11
116.913
21
-124.439
0
LINE
8
BLACK
6
CONTINUOUS
10
116.913
20
-124.439
11
116.913
21
-124.438
0
LINE
8
BLACK
6
CONTINUOUS
10
116.913
20
-124.438
11
116.912
21
-124.437
0
LINE
8
BLACK
6
CONTINUOUS
10
116.912
20
-124.437
11
116.631
21
-123.627
0
LINE
8
BLACK
6
CONTINUOUS
10
116.631
20
-123.627
11
116.63
21
-123.624
0
LINE
8
BLACK
6
CONTINUOUS
10
116.63
20
-123.624
11
116.63
21
-123.623
0
LINE
8
BLACK
6
CONTINUOUS
10
116.63
20
-123.623
11
116.63
21
-123.622
0
LINE
8
BLACK
6
CONTINUOUS
10
116.63
20
-123.622
11
116.507
21
-122.773
0
LINE
8
BLACK
6
CONTINUOUS
10
116.507
20
-122.773
11
116.507
21
-122.771
0
LINE
8
BLACK
6
CONTINUOUS
10
116.507
20
-122.771
11
116.507
21
-122.77
0
LINE
8
BLACK
6
CONTINUOUS
10
116.507
20
-122.77
11
116.507
21
-122.768
0
LINE
8
BLACK
6
CONTINUOUS
10
116.507
20
-122.768
11
116.546
21
-121.912
0
LINE
8
BLACK
6
CONTINUOUS
10
116.546
20
-121.912
11
116.547
21
-121.909
0
LINE
8
BLACK
6
CONTINUOUS
10
116.547
20
-121.909
11
116.547
21
-121.908
0
LINE
8
BLACK
6
CONTINUOUS
10
116.547
20
-121.908
11
116.547
21
-121.907
0
LINE
8
BLACK
6
CONTINUOUS
10
116.547
20
-121.907
11
116.748
21
-121.073
0
LINE
8
BLACK
6
CONTINUOUS
10
116.748
20
-121.073
11
116.749
21
-121.071
0
LINE
8
BLACK
6
CONTINUOUS
10
116.749
20
-121.071
11
116.749
21
-121.07
0
LINE
8
BLACK
6
CONTINUOUS
10
116.749
20
-121.07
11
116.749
21
-121.069
0
LINE
8
BLACK
6
CONTINUOUS
10
116.749
20
-121.069
11
117.104
21
-120.288
0
LINE
8
BLACK
6
CONTINUOUS
10
117.104
20
-120.288
11
117.106
21
-120.286
0
LINE
8
BLACK
6
CONTINUOUS
10
117.106
20
-120.286
11
117.106
21
-120.285
0
LINE
8
BLACK
6
CONTINUOUS
10
117.106
20
-120.285
11
117.107
21
-120.284
0
LINE
8
BLACK
6
CONTINUOUS
10
117.107
20
-120.284
11
117.603
21
-119.584
0
LINE
8
BLACK
6
CONTINUOUS
10
117.603
20
-119.584
11
117.603
21
-119.584
0
LINE
8
BLACK
6
CONTINUOUS
10
117.603
20
-119.584
11
117.603
21
-119.584
0
LINE
8
BLACK
6
CONTINUOUS
10
117.603
20
-119.584
11
117.605
21
-119.582
0
LINE
8
BLACK
6
CONTINUOUS
10
117.605
20
-119.582
11
117.605
21
-119.582
0
LINE
8
BLACK
6
CONTINUOUS
10
117.605
20
-119.582
11
117.606
21
-119.581
0
LINE
8
BLACK
6
CONTINUOUS
10
117.606
20
-119.581
11
118.226
21
-118.988
0
LINE
8
BLACK
6
CONTINUOUS
10
118.226
20
-118.988
11
118.228
21
-118.986
0
LINE
8
BLACK
6
CONTINUOUS
10
118.228
20
-118.986
11
118.229
21
-118.985
0
LINE
8
BLACK
6
CONTINUOUS
10
118.229
20
-118.985
11
118.229
21
-118.985
0
LINE
8
BLACK
6
CONTINUOUS
10
118.229
20
-118.985
11
118.95
21
-118.519
0
LINE
8
BLACK
6
CONTINUOUS
10
118.95
20
-118.519
11
118.95
21
-118.519
0
LINE
8
BLACK
6
CONTINUOUS
10
118.95
20
-118.519
11
118.95
21
-118.519
0
LINE
8
BLACK
6
CONTINUOUS
10
118.95
20
-118.519
11
118.952
21
-118.518
0
LINE
8
BLACK
6
CONTINUOUS
10
118.952
20
-118.518
11
118.953
21
-118.518
0
LINE
8
BLACK
6
CONTINUOUS
10
118.953
20
-118.518
11
118.954
21
-118.517
0
LINE
8
BLACK
6
CONTINUOUS
10
118.954
20
-118.517
11
119.75
21
-118.197
0
LINE
8
BLACK
6
CONTINUOUS
10
119.75
20
-118.197
11
119.752
21
-118.196
0
LINE
8
BLACK
6
CONTINUOUS
10
119.752
20
-118.196
11
119.753
21
-118.196
0
LINE
8
BLACK
6
CONTINUOUS
10
119.753
20
-118.196
11
119.754
21
-118.195
0
LINE
8
BLACK
6
CONTINUOUS
10
119.754
20
-118.195
11
120.596
21
-118.031
0
LINE
8
BLACK
6
CONTINUOUS
10
120.596
20
-118.031
11
120.598
21
-118.03
0
LINE
8
BLACK
6
CONTINUOUS
10
120.598
20
-118.03
11
120.599
21
-118.03
0
LINE
8
BLACK
6
CONTINUOUS
10
120.599
20
-118.03
11
120.6
21
-118.03
0
LINE
8
BLACK
6
CONTINUOUS
10
120.6
20
-118.03
11
121.04
21
-118.009
0
LINE
8
BLACK
6
CONTINUOUS
10
121.04
20
-118.009
11
121.04
21
-118.009
0
LINE
8
BLACK
6
CONTINUOUS
10
121.04
20
-118.009
11
123.127
21
-118.009
0
LINE
8
BLACK
6
CONTINUOUS
10
123.127
20
-118.009
11
123.126
21
-53.5293
0
LINE
8
BLACK
6
CONTINUOUS
10
123.126
20
-53.5293
11
123.126
21
-53.5293
0
LINE
8
BLACK
6
CONTINUOUS
10
123.126
20
-53.5293
11
123.126
21
-51.7998
0
LINE
8
BLACK
6
CONTINUOUS
10
123.126
20
-51.7998
11
123.126
21
-51.7986
0
LINE
8
BLACK
6
CONTINUOUS
10
123.126
20
-51.7986
11
123.126
21
-51.7986
0
LINE
8
BLACK
6
CONTINUOUS
10
123.126
20
-51.7986
11
123.208
21
-50.9448
0
LINE
8
BLACK
6
CONTINUOUS
10
123.208
20
-50.9448
11
123.208
21
-50.9424
0
LINE
8
BLACK
6
CONTINUOUS
10
123.208
20
-50.9424
11
123.208
21
-50.9413
0
LINE
8
BLACK
6
CONTINUOUS
10
123.208
20
-50.9413
11
123.209
21
-50.9402
0
LINE
8
BLACK
6
CONTINUOUS
10
123.209
20
-50.9402
11
123.45
21
-50.1172
0
LINE
8
BLACK
6
CONTINUOUS
10
123.45
20
-50.1172
11
123.451
21
-50.1149
0
LINE
8
BLACK
6
CONTINUOUS
10
123.451
20
-50.1149
11
123.451
21
-50.1138
0
LINE
8
BLACK
6
CONTINUOUS
10
123.451
20
-50.1138
11
123.452
21
-50.1128
0
LINE
8
BLACK
6
CONTINUOUS
10
123.452
20
-50.1128
11
123.845
21
-49.3503
0
LINE
8
BLACK
6
CONTINUOUS
10
123.845
20
-49.3503
11
123.846
21
-49.3482
0
LINE
8
BLACK
6
CONTINUOUS
10
123.846
20
-49.3482
11
123.847
21
-49.3472
0
LINE
8
BLACK
6
CONTINUOUS
10
123.847
20
-49.3472
11
123.847
21
-49.3463
0
LINE
8
BLACK
6
CONTINUOUS
10
123.847
20
-49.3463
11
124.377
21
-48.6718
0
LINE
8
BLACK
6
CONTINUOUS
10
124.377
20
-48.6718
11
124.379
21
-48.67
0
LINE
8
BLACK
6
CONTINUOUS
10
124.379
20
-48.67
11
124.379
21
-48.6692
0
LINE
8
BLACK
6
CONTINUOUS
10
124.379
20
-48.6692
11
124.38
21
-48.6684
0
LINE
8
BLACK
6
CONTINUOUS
10
124.38
20
-48.6684
11
125.028
21
-48.1062
0
LINE
8
BLACK
6
CONTINUOUS
10
125.028
20
-48.1062
11
125.03
21
-48.1047
0
LINE
8
BLACK
6
CONTINUOUS
10
125.03
20
-48.1047
11
125.031
21
-48.1042
0
LINE
8
BLACK
6
CONTINUOUS
10
125.031
20
-48.1042
11
125.032
21
-48.1035
0
LINE
8
BLACK
6
CONTINUOUS
10
125.032
20
-48.1035
11
125.774
21
-47.674
0
LINE
8
BLACK
6
CONTINUOUS
10
125.774
20
-47.674
11
125.776
21
-47.6729
0
LINE
8
BLACK
6
CONTINUOUS
10
125.776
20
-47.6729
11
125.778
21
-47.6725
0
LINE
8
BLACK
6
CONTINUOUS
10
125.778
20
-47.6725
11
125.779
21
-47.672
0
LINE
8
BLACK
6
CONTINUOUS
10
125.779
20
-47.672
11
126.589
21
-47.3907
0
LINE
8
BLACK
6
CONTINUOUS
10
126.589
20
-47.3907
11
126.591
21
-47.39
0
LINE
8
BLACK
6
CONTINUOUS
10
126.591
20
-47.39
11
126.592
21
-47.3898
0
LINE
8
BLACK
6
CONTINUOUS
10
126.592
20
-47.3898
11
126.593
21
-47.3895
0
LINE
8
BLACK
6
CONTINUOUS
10
126.593
20
-47.3895
11
127.442
21
-47.2665
0
LINE
8
BLACK
6
CONTINUOUS
10
127.442
20
-47.2665
11
127.445
21
-47.2662
0
LINE
8
BLACK
6
CONTINUOUS
10
127.445
20
-47.2662
11
127.446
21
-47.2663
0
LINE
8
BLACK
6
CONTINUOUS
10
127.446
20
-47.2663
11
127.447
21
-47.2662
0
LINE
8
BLACK
6
CONTINUOUS
10
127.447
20
-47.2662
11
128.304
21
-47.3059
0
LINE
8
BLACK
6
CONTINUOUS
10
128.304
20
-47.3059
11
128.306
21
-47.3061
0
LINE
8
BLACK
6
CONTINUOUS
10
128.306
20
-47.3061
11
128.307
21
-47.3064
0
LINE
8
BLACK
6
CONTINUOUS
10
128.307
20
-47.3064
11
128.308
21
-47.3066
0
LINE
8
BLACK
6
CONTINUOUS
10
128.308
20
-47.3066
11
129.142
21
-47.5075
0
LINE
8
BLACK
6
CONTINUOUS
10
129.142
20
-47.5075
11
129.142
21
-47.5075
0
LINE
8
BLACK
6
CONTINUOUS
10
129.142
20
-47.5075
11
129.142
21
-47.5075
0
LINE
8
BLACK
6
CONTINUOUS
10
129.142
20
-47.5075
11
129.145
21
-47.5082
0
LINE
8
BLACK
6
CONTINUOUS
10
129.145
20
-47.5082
11
129.146
21
-47.5087
0
LINE
8
BLACK
6
CONTINUOUS
10
129.146
20
-47.5087
11
129.147
21
-47.5091
0
LINE
8
BLACK
6
CONTINUOUS
10
129.147
20
-47.5091
11
129.928
21
-47.864
0
LINE
8
BLACK
6
CONTINUOUS
10
129.928
20
-47.864
11
129.93
21
-47.8652
0
LINE
8
BLACK
6
CONTINUOUS
10
129.93
20
-47.8652
11
129.931
21
-47.8658
0
LINE
8
BLACK
6
CONTINUOUS
10
129.931
20
-47.8658
11
129.932
21
-47.8664
0
LINE
8
BLACK
6
CONTINUOUS
10
129.932
20
-47.8664
11
130.631
21
-48.3626
0
LINE
8
BLACK
6
CONTINUOUS
10
130.631
20
-48.3626
11
130.631
21
-48.3626
0
LINE
8
BLACK
6
CONTINUOUS
10
130.631
20
-48.3626
11
130.631
21
-48.3626
0
LINE
8
BLACK
6
CONTINUOUS
10
130.631
20
-48.3626
11
130.633
21
-48.3641
0
LINE
8
BLACK
6
CONTINUOUS
10
130.633
20
-48.3641
11
130.634
21
-48.365
0
LINE
8
BLACK
6
CONTINUOUS
10
130.634
20
-48.365
11
130.635
21
-48.3657
0
LINE
8
BLACK
6
CONTINUOUS
10
130.635
20
-48.3657
11
131.228
21
-48.9853
0
LINE
8
BLACK
6
CONTINUOUS
10
131.228
20
-48.9853
11
131.229
21
-48.9871
0
LINE
8
BLACK
6
CONTINUOUS
10
131.229
20
-48.9871
11
131.23
21
-48.9881
0
LINE
8
BLACK
6
CONTINUOUS
10
131.23
20
-48.9881
11
131.231
21
-48.989
0
LINE
8
BLACK
6
CONTINUOUS
10
131.231
20
-48.989
11
131.696
21
-49.7095
0
LINE
8
BLACK
6
CONTINUOUS
10
131.696
20
-49.7095
11
131.696
21
-49.7096
0
LINE
8
BLACK
6
CONTINUOUS
10
131.696
20
-49.7096
11
131.696
21
-49.7096
0
LINE
8
BLACK
6
CONTINUOUS
10
131.696
20
-49.7096
11
131.697
21
-49.7117
0
LINE
8
BLACK
6
CONTINUOUS
10
131.697
20
-49.7117
11
131.698
21
-49.7127
0
LINE
8
BLACK
6
CONTINUOUS
10
131.698
20
-49.7127
11
131.698
21
-49.7138
0
LINE
8
BLACK
6
CONTINUOUS
10
131.698
20
-49.7138
11
132.019
21
-50.5093
0
LINE
8
BLACK
6
CONTINUOUS
10
132.019
20
-50.5093
11
132.02
21
-50.5116
0
LINE
8
BLACK
6
CONTINUOUS
10
132.02
20
-50.5116
11
132.02
21
-50.5127
0
LINE
8
BLACK
6
CONTINUOUS
10
132.02
20
-50.5127
11
132.02
21
-50.5138
0
LINE
8
BLACK
6
CONTINUOUS
10
132.02
20
-50.5138
11
132.185
21
-51.3556
0
LINE
8
BLACK
6
CONTINUOUS
10
132.185
20
-51.3556
11
132.185
21
-51.358
0
LINE
8
BLACK
6
CONTINUOUS
10
132.185
20
-51.358
11
132.185
21
-51.3586
0
LINE
8
BLACK
6
CONTINUOUS
10
132.185
20
-51.3586
11
132.185
21
-51.3592
0
LINE
8
BLACK
6
CONTINUOUS
10
132.185
20
-51.3592
11
132.207
21
-51.7992
0
LINE
8
BLACK
6
CONTINUOUS
10
132.207
20
-51.7992
11
132.207
21
-51.7998
0
LINE
8
BLACK
6
CONTINUOUS
10
132.207
20
-51.7998
11
132.207
21
-53.5055
0
LINE
8
BLACK
6
CONTINUOUS
10
132.207
20
-53.5055
11
141.884
21
-53.5055
0
LINE
8
BLACK
6
CONTINUOUS
10
141.884
20
-53.5055
11
141.893
21
-53.5055
0
LINE
8
BLACK
6
CONTINUOUS
10
141.893
20
-53.5055
11
142.16
21
-53.4774
0
LINE
8
BLACK
6
CONTINUOUS
10
142.16
20
-53.4774
11
142.416
21
-53.3982
0
LINE
8
BLACK
6
CONTINUOUS
10
142.416
20
-53.3982
11
142.652
21
-53.2708
0
LINE
8
BLACK
6
CONTINUOUS
10
142.652
20
-53.2708
11
142.858
21
-53.1002
0
LINE
8
BLACK
6
CONTINUOUS
10
142.858
20
-53.1002
11
143.027
21
-52.8927
0
LINE
8
BLACK
6
CONTINUOUS
10
143.027
20
-52.8927
11
143.153
21
-52.6563
0
LINE
8
BLACK
6
CONTINUOUS
10
143.153
20
-52.6563
11
143.23
21
-52.4
0
LINE
8
BLACK
6
CONTINUOUS
10
143.23
20
-52.4
11
143.256
21
-52.1323
0
LINE
8
BLACK
6
CONTINUOUS
10
143.256
20
-52.1323
11
143.256
21
-51.6243
0
LINE
8
BLACK
6
CONTINUOUS
10
143.256
20
-51.6243
11
143.257
21
-51.6231
0
LINE
8
BLACK
6
CONTINUOUS
10
143.257
20
-51.6231
11
143.257
21
-51.6231
0
LINE
8
BLACK
6
CONTINUOUS
10
143.257
20
-51.6231
11
143.267
21
-51.5121
0
LINE
8
BLACK
6
CONTINUOUS
10
143.267
20
-51.5121
11
143.267
21
-51.5117
0
LINE
8
BLACK
6
CONTINUOUS
10
143.267
20
-51.5117
11
143.268
21
-51.5095
0
LINE
8
BLACK
6
CONTINUOUS
10
143.268
20
-51.5095
11
143.268
21
-51.5073
0
LINE
8
BLACK
6
CONTINUOUS
10
143.268
20
-51.5073
11
143.301
21
-51.4005
0
LINE
8
BLACK
6
CONTINUOUS
10
143.301
20
-51.4005
11
143.301
21
-51.4002
0
LINE
8
BLACK
6
CONTINUOUS
10
143.301
20
-51.4002
11
143.302
21
-51.398
0
LINE
8
BLACK
6
CONTINUOUS
10
143.302
20
-51.398
11
143.302
21
-51.396
0
LINE
8
BLACK
6
CONTINUOUS
10
143.302
20
-51.396
11
143.355
21
-51.2975
0
LINE
8
BLACK
6
CONTINUOUS
10
143.355
20
-51.2975
11
143.355
21
-51.2972
0
LINE
8
BLACK
6
CONTINUOUS
10
143.355
20
-51.2972
11
143.356
21
-51.2953
0
LINE
8
BLACK
6
CONTINUOUS
10
143.356
20
-51.2953
11
143.358
21
-51.2934
0
LINE
8
BLACK
6
CONTINUOUS
10
143.358
20
-51.2934
11
143.428
21
-51.207
0
LINE
8
BLACK
6
CONTINUOUS
10
143.428
20
-51.207
11
143.428
21
-51.207
0
LINE
8
BLACK
6
CONTINUOUS
10
143.428
20
-51.207
11
143.428
21
-51.207
0
LINE
8
BLACK
6
CONTINUOUS
10
143.428
20
-51.207
11
143.428
21
-51.2067
0
LINE
8
BLACK
6
CONTINUOUS
10
143.428
20
-51.2067
11
143.43
21
-51.2052
0
LINE
8
BLACK
6
CONTINUOUS
10
143.43
20
-51.2052
11
143.431
21
-51.2035
0
LINE
8
BLACK
6
CONTINUOUS
10
143.431
20
-51.2035
11
143.517
21
-51.1324
0
LINE
8
BLACK
6
CONTINUOUS
10
143.517
20
-51.1324
11
143.517
21
-51.1324
0
LINE
8
BLACK
6
CONTINUOUS
10
143.517
20
-51.1324
11
143.517
21
-51.1324
0
LINE
8
BLACK
6
CONTINUOUS
10
143.517
20
-51.1324
11
143.518
21
-51.1322
0
LINE
8
BLACK
6
CONTINUOUS
10
143.518
20
-51.1322
11
143.52
21
-51.131
0
LINE
8
BLACK
6
CONTINUOUS
10
143.52
20
-51.131
11
143.521
21
-51.1297
0
LINE
8
BLACK
6
CONTINUOUS
10
143.521
20
-51.1297
11
143.62
21
-51.0767
0
LINE
8
BLACK
6
CONTINUOUS
10
143.62
20
-51.0767
11
143.62
21
-51.0767
0
LINE
8
BLACK
6
CONTINUOUS
10
143.62
20
-51.0767
11
143.62
21
-51.0767
0
LINE
8
BLACK
6
CONTINUOUS
10
143.62
20
-51.0767
11
143.62
21
-51.0765
0
LINE
8
BLACK
6
CONTINUOUS
10
143.62
20
-51.0765
11
143.622
21
-51.0756
0
LINE
8
BLACK
6
CONTINUOUS
10
143.622
20
-51.0756
11
143.624
21
-51.0748
0
LINE
8
BLACK
6
CONTINUOUS
10
143.624
20
-51.0748
11
143.731
21
-51.0418
0
LINE
8
BLACK
6
CONTINUOUS
10
143.731
20
-51.0418
11
143.731
21
-51.0417
0
LINE
8
BLACK
6
CONTINUOUS
10
143.731
20
-51.0417
11
143.733
21
-51.0413
0
LINE
8
BLACK
6
CONTINUOUS
10
143.733
20
-51.0413
11
143.735
21
-51.0408
0
LINE
8
BLACK
6
CONTINUOUS
10
143.735
20
-51.0408
11
143.846
21
-51.0292
0
LINE
8
BLACK
6
CONTINUOUS
10
143.846
20
-51.0292
11
143.847
21
-51.0291
0
LINE
8
BLACK
6
CONTINUOUS
10
143.847
20
-51.0291
11
143.848
21
-51.0291
0
LINE
8
BLACK
6
CONTINUOUS
10
143.848
20
-51.0291
11
143.849
21
-51.029
0
LINE
8
BLACK
6
CONTINUOUS
10
143.849
20
-51.029
11
143.852
21
-51.029
0
LINE
8
BLACK
6
CONTINUOUS
10
143.852
20
-51.029
11
143.852
21
-51.029
0
LINE
8
BLACK
6
CONTINUOUS
10
143.852
20
-51.029
11
160.934
21
-51.029
0
LINE
8
BLACK
6
CONTINUOUS
10
160.934
20
-51.029
11
160.943
21
-51.029
0
LINE
8
BLACK
6
CONTINUOUS
10
160.943
20
-51.029
11
161.21
21
-51.0009
0
LINE
8
BLACK
6
CONTINUOUS
10
161.21
20
-51.0009
11
161.466
21
-50.9217
0
LINE
8
BLACK
6
CONTINUOUS
10
161.466
20
-50.9217
11
161.702
21
-50.7943
0
LINE
8
BLACK
6
CONTINUOUS
10
161.702
20
-50.7943
11
161.908
21
-50.6237
0
LINE
8
BLACK
6
CONTINUOUS
10
161.908
20
-50.6237
11
162.077
21
-50.4162
0
LINE
8
BLACK
6
CONTINUOUS
10
162.077
20
-50.4162
11
162.203
21
-50.1798
0
LINE
8
BLACK
6
CONTINUOUS
10
162.203
20
-50.1798
11
162.28
21
-49.9235
0
LINE
8
BLACK
6
CONTINUOUS
10
162.28
20
-49.9235
11
162.306
21
-49.6558
0
LINE
8
BLACK
6
CONTINUOUS
10
162.306
20
-49.6558
11
162.306
21
-49.3383
0
LINE
8
BLACK
6
CONTINUOUS
10
162.306
20
-49.3383
11
162.307
21
-49.3371
0
LINE
8
BLACK
6
CONTINUOUS
10
162.307
20
-49.3371
11
162.307
21
-49.3371
0
LINE
8
BLACK
6
CONTINUOUS
10
162.307
20
-49.3371
11
162.317
21
-49.2261
0
LINE
8
BLACK
6
CONTINUOUS
10
162.317
20
-49.2261
11
162.317
21
-49.2257
0
LINE
8
BLACK
6
CONTINUOUS
10
162.317
20
-49.2257
11
162.318
21
-49.2235
0
LINE
8
BLACK
6
CONTINUOUS
10
162.318
20
-49.2235
11
162.318
21
-49.2213
0
LINE
8
BLACK
6
CONTINUOUS
10
162.318
20
-49.2213
11
162.351
21
-49.1145
0
LINE
8
BLACK
6
CONTINUOUS
10
162.351
20
-49.1145
11
162.351
21
-49.1142
0
LINE
8
BLACK
6
CONTINUOUS
10
162.351
20
-49.1142
11
162.352
21
-49.112
0
LINE
8
BLACK
6
CONTINUOUS
10
162.352
20
-49.112
11
162.352
21
-49.11
0
LINE
8
BLACK
6
CONTINUOUS
10
162.352
20
-49.11
11
162.405
21
-49.0115
0
LINE
8
BLACK
6
CONTINUOUS
10
162.405
20
-49.0115
11
162.405
21
-49.0112
0
LINE
8
BLACK
6
CONTINUOUS
10
162.405
20
-49.0112
11
162.406
21
-49.0093
0
LINE
8
BLACK
6
CONTINUOUS
10
162.406
20
-49.0093
11
162.408
21
-49.0074
0
LINE
8
BLACK
6
CONTINUOUS
10
162.408
20
-49.0074
11
162.478
21
-48.921
0
LINE
8
BLACK
6
CONTINUOUS
10
162.478
20
-48.921
11
162.478
21
-48.921
0
LINE
8
BLACK
6
CONTINUOUS
10
162.478
20
-48.921
11
162.478
21
-48.921
0
LINE
8
BLACK
6
CONTINUOUS
10
162.478
20
-48.921
11
162.478
21
-48.9207
0
LINE
8
BLACK
6
CONTINUOUS
10
162.478
20
-48.9207
11
162.48
21
-48.9192
0
LINE
8
BLACK
6
CONTINUOUS
10
162.48
20
-48.9192
11
162.481
21
-48.9175
0
LINE
8
BLACK
6
CONTINUOUS
10
162.481
20
-48.9175
11
162.567
21
-48.8464
0
LINE
8
BLACK
6
CONTINUOUS
10
162.567
20
-48.8464
11
162.567
21
-48.8464
0
LINE
8
BLACK
6
CONTINUOUS
10
162.567
20
-48.8464
11
162.567
21
-48.8464
0
LINE
8
BLACK
6
CONTINUOUS
10
162.567
20
-48.8464
11
162.568
21
-48.8462
0
LINE
8
BLACK
6
CONTINUOUS
10
162.568
20
-48.8462
11
162.57
21
-48.845
0
LINE
8
BLACK
6
CONTINUOUS
10
162.57
20
-48.845
11
162.571
21
-48.8437
0
LINE
8
BLACK
6
CONTINUOUS
10
162.571
20
-48.8437
11
162.67
21
-48.7907
0
LINE
8
BLACK
6
CONTINUOUS
10
162.67
20
-48.7907
11
162.67
21
-48.7907
0
LINE
8
BLACK
6
CONTINUOUS
10
162.67
20
-48.7907
11
162.67
21
-48.7907
0
LINE
8
BLACK
6
CONTINUOUS
10
162.67
20
-48.7907
11
162.67
21
-48.7905
0
LINE
8
BLACK
6
CONTINUOUS
10
162.67
20
-48.7905
11
162.672
21
-48.7896
0
LINE
8
BLACK
6
CONTINUOUS
10
162.672
20
-48.7896
11
162.674
21
-48.7888
0
LINE
8
BLACK
6
CONTINUOUS
10
162.674
20
-48.7888
11
162.781
21
-48.7558
0
LINE
8
BLACK
6
CONTINUOUS
10
162.781
20
-48.7558
11
162.781
21
-48.7557
0
LINE
8
BLACK
6
CONTINUOUS
10
162.781
20
-48.7557
11
162.783
21
-48.7553
0
LINE
8
BLACK
6
CONTINUOUS
10
162.783
20
-48.7553
11
162.785
21
-48.7548
0
LINE
8
BLACK
6
CONTINUOUS
10
162.785
20
-48.7548
11
162.896
21
-48.7432
0
LINE
8
BLACK
6
CONTINUOUS
10
162.896
20
-48.7432
11
162.897
21
-48.7431
0
LINE
8
BLACK
6
CONTINUOUS
10
162.897
20
-48.7431
11
162.898
21
-48.7431
0
LINE
8
BLACK
6
CONTINUOUS
10
162.898
20
-48.7431
11
162.899
21
-48.743
0
LINE
8
BLACK
6
CONTINUOUS
10
162.899
20
-48.743
11
162.902
21
-48.743
0
LINE
8
BLACK
6
CONTINUOUS
10
162.902
20
-48.743
11
162.902
21
-48.743
0
LINE
8
BLACK
6
CONTINUOUS
10
162.902
20
-48.743
11
184.748
21
-48.743
0
LINE
8
BLACK
6
CONTINUOUS
10
184.748
20
-48.743
11
184.749
21
-48.7431
0
LINE
8
BLACK
6
CONTINUOUS
10
184.749
20
-48.7431
11
184.749
21
-48.7431
0
LINE
8
BLACK
6
CONTINUOUS
10
184.749
20
-48.7431
11
184.86
21
-48.754
0
LINE
8
BLACK
6
CONTINUOUS
10
184.86
20
-48.754
11
184.861
21
-48.754
0
LINE
8
BLACK
6
CONTINUOUS
10
184.861
20
-48.754
11
184.863
21
-48.7545
0
LINE
8
BLACK
6
CONTINUOUS
10
184.863
20
-48.7545
11
184.865
21
-48.755
0
LINE
8
BLACK
6
CONTINUOUS
10
184.865
20
-48.755
11
184.972
21
-48.7872
0
LINE
8
BLACK
6
CONTINUOUS
10
184.972
20
-48.7872
11
184.972
21
-48.7873
0
LINE
8
BLACK
6
CONTINUOUS
10
184.972
20
-48.7873
11
184.974
21
-48.7882
0
LINE
8
BLACK
6
CONTINUOUS
10
184.974
20
-48.7882
11
184.976
21
-48.789
0
LINE
8
BLACK
6
CONTINUOUS
10
184.976
20
-48.789
11
185.075
21
-48.8414
0
LINE
8
BLACK
6
CONTINUOUS
10
185.075
20
-48.8414
11
185.075
21
-48.8416
0
LINE
8
BLACK
6
CONTINUOUS
10
185.075
20
-48.8416
11
185.077
21
-48.8429
0
LINE
8
BLACK
6
CONTINUOUS
10
185.077
20
-48.8429
11
185.079
21
-48.8441
0
LINE
8
BLACK
6
CONTINUOUS
10
185.079
20
-48.8441
11
185.165
21
-48.9146
0
LINE
8
BLACK
6
CONTINUOUS
10
185.165
20
-48.9146
11
185.165
21
-48.9146
0
LINE
8
BLACK
6
CONTINUOUS
10
185.165
20
-48.9146
11
185.165
21
-48.9146
0
LINE
8
BLACK
6
CONTINUOUS
10
185.165
20
-48.9146
11
185.166
21
-48.9148
0
LINE
8
BLACK
6
CONTINUOUS
10
185.166
20
-48.9148
11
185.167
21
-48.9164
0
LINE
8
BLACK
6
CONTINUOUS
10
185.167
20
-48.9164
11
185.169
21
-48.918
0
LINE
8
BLACK
6
CONTINUOUS
10
185.169
20
-48.918
11
185.24
21
-49.004
0
LINE
8
BLACK
6
CONTINUOUS
10
185.24
20
-49.004
11
185.24
21
-49.004
0
LINE
8
BLACK
6
CONTINUOUS
10
185.24
20
-49.004
11
185.24
21
-49.004
0
LINE
8
BLACK
6
CONTINUOUS
10
185.24
20
-49.004
11
185.24
21
-49.0043
0
LINE
8
BLACK
6
CONTINUOUS
10
185.24
20
-49.0043
11
185.241
21
-49.0062
0
LINE
8
BLACK
6
CONTINUOUS
10
185.241
20
-49.0062
11
185.243
21
-49.008
0
LINE
8
BLACK
6
CONTINUOUS
10
185.243
20
-49.008
11
185.296
21
-49.1061
0
LINE
8
BLACK
6
CONTINUOUS
10
185.296
20
-49.1061
11
185.296
21
-49.1061
0
LINE
8
BLACK
6
CONTINUOUS
10
185.296
20
-49.1061
11
185.296
21
-49.1061
0
LINE
8
BLACK
6
CONTINUOUS
10
185.296
20
-49.1061
11
185.296
21
-49.1065
0
LINE
8
BLACK
6
CONTINUOUS
10
185.296
20
-49.1065
11
185.297
21
-49.1086
0
LINE
8
BLACK
6
CONTINUOUS
10
185.297
20
-49.1086
11
185.298
21
-49.1106
0
LINE
8
BLACK
6
CONTINUOUS
10
185.298
20
-49.1106
11
185.331
21
-49.2172
0
LINE
8
BLACK
6
CONTINUOUS
10
185.331
20
-49.2172
11
185.331
21
-49.2175
0
LINE
8
BLACK
6
CONTINUOUS
10
185.331
20
-49.2175
11
185.331
21
-49.2198
0
LINE
8
BLACK
6
CONTINUOUS
10
185.331
20
-49.2198
11
185.332
21
-49.222
0
LINE
8
BLACK
6
CONTINUOUS
10
185.332
20
-49.222
11
185.343
21
-49.3329
0
LINE
8
BLACK
6
CONTINUOUS
10
185.343
20
-49.3329
11
185.343
21
-49.3332
0
LINE
8
BLACK
6
CONTINUOUS
10
185.343
20
-49.3332
11
185.343
21
-49.3343
0
LINE
8
BLACK
6
CONTINUOUS
10
185.343
20
-49.3343
11
185.343
21
-49.3354
0
LINE
8
BLACK
6
CONTINUOUS
10
185.343
20
-49.3354
11
185.343
21
-49.3382
0
LINE
8
BLACK
6
CONTINUOUS
10
185.343
20
-49.3382
11
185.343
21
-49.3383
0
LINE
8
BLACK
6
CONTINUOUS
10
185.343
20
-49.3383
11
185.343
21
-49.7204
0
LINE
8
BLACK
6
CONTINUOUS
10
185.343
20
-49.7204
11
185.343
21
-49.7289
0
LINE
8
BLACK
6
CONTINUOUS
10
185.343
20
-49.7289
11
185.372
21
-49.9964
0
LINE
8
BLACK
6
CONTINUOUS
10
185.372
20
-49.9964
11
185.451
21
-50.2521
0
LINE
8
BLACK
6
CONTINUOUS
10
185.451
20
-50.2521
11
185.578
21
-50.4876
0
LINE
8
BLACK
6
CONTINUOUS
10
185.578
20
-50.4876
11
185.749
21
-50.6939
0
LINE
8
BLACK
6
CONTINUOUS
10
185.749
20
-50.6939
11
185.956
21
-50.8632
0
LINE
8
BLACK
6
CONTINUOUS
10
185.956
20
-50.8632
11
186.193
21
-50.9889
0
LINE
8
BLACK
6
CONTINUOUS
10
186.193
20
-50.9889
11
186.449
21
-51.0663
0
LINE
8
BLACK
6
CONTINUOUS
10
186.449
20
-51.0663
11
186.717
21
-51.0925
0
LINE
8
BLACK
6
CONTINUOUS
10
186.717
20
-51.0925
11
202.973
21
-51.0925
0
LINE
8
BLACK
6
CONTINUOUS
10
202.973
20
-51.0925
11
202.974
21
-51.0926
0
LINE
8
BLACK
6
CONTINUOUS
10
202.974
20
-51.0926
11
202.974
21
-51.0926
0
LINE
8
BLACK
6
CONTINUOUS
10
202.974
20
-51.0926
11
203.245
21
-51.1192
0
LINE
8
BLACK
6
CONTINUOUS
10
203.245
20
-51.1192
11
203.246
21
-51.1193
0
LINE
8
BLACK
6
CONTINUOUS
10
203.246
20
-51.1193
11
203.248
21
-51.1197
0
LINE
8
BLACK
6
CONTINUOUS
10
203.248
20
-51.1197
11
203.25
21
-51.1202
0
LINE
8
BLACK
6
CONTINUOUS
10
203.25
20
-51.1202
11
203.511
21
-51.199
0
LINE
8
BLACK
6
CONTINUOUS
10
203.511
20
-51.199
11
203.511
21
-51.1991
0
LINE
8
BLACK
6
CONTINUOUS
10
203.511
20
-51.1991
11
203.513
21
-51.2
0
LINE
8
BLACK
6
CONTINUOUS
10
203.513
20
-51.2
11
203.515
21
-51.2008
0
LINE
8
BLACK
6
CONTINUOUS
10
203.515
20
-51.2008
11
203.756
21
-51.3288
0
LINE
8
BLACK
6
CONTINUOUS
10
203.756
20
-51.3288
11
203.757
21
-51.329
0
LINE
8
BLACK
6
CONTINUOUS
10
203.757
20
-51.329
11
203.758
21
-51.3303
0
LINE
8
BLACK
6
CONTINUOUS
10
203.758
20
-51.3303
11
203.76
21
-51.3315
0
LINE
8
BLACK
6
CONTINUOUS
10
203.76
20
-51.3315
11
203.972
21
-51.5039
0
LINE
8
BLACK
6
CONTINUOUS
10
203.972
20
-51.5039
11
203.972
21
-51.5039
0
LINE
8
BLACK
6
CONTINUOUS
10
203.972
20
-51.5039
11
203.972
21
-51.5039
0
LINE
8
BLACK
6
CONTINUOUS
10
203.972
20
-51.5039
11
203.972
21
-51.5041
0
LINE
8
BLACK
6
CONTINUOUS
10
203.972
20
-51.5041
11
203.973
21
-51.5057
0
LINE
8
BLACK
6
CONTINUOUS
10
203.973
20
-51.5057
11
203.975
21
-51.5073
0
LINE
8
BLACK
6
CONTINUOUS
10
203.975
20
-51.5073
11
204.149
21
-51.7174
0
LINE
8
BLACK
6
CONTINUOUS
10
204.149
20
-51.7174
11
204.149
21
-51.7176
0
LINE
8
BLACK
6
CONTINUOUS
10
204.149
20
-51.7176
11
204.15
21
-51.7196
0
LINE
8
BLACK
6
CONTINUOUS
10
204.15
20
-51.7196
11
204.152
21
-51.7214
0
LINE
8
BLACK
6
CONTINUOUS
10
204.152
20
-51.7214
11
204.281
21
-51.9612
0
LINE
8
BLACK
6
CONTINUOUS
10
204.281
20
-51.9612
11
204.281
21
-51.9612
0
LINE
8
BLACK
6
CONTINUOUS
10
204.281
20
-51.9612
11
204.281
21
-51.9613
0
LINE
8
BLACK
6
CONTINUOUS
10
204.281
20
-51.9613
11
204.281
21
-51.9616
0
LINE
8
BLACK
6
CONTINUOUS
10
204.281
20
-51.9616
11
204.282
21
-51.9637
0
LINE
8
BLACK
6
CONTINUOUS
10
204.282
20
-51.9637
11
204.283
21
-51.9657
0
LINE
8
BLACK
6
CONTINUOUS
10
204.283
20
-51.9657
11
204.364
21
-52.2262
0
LINE
8
BLACK
6
CONTINUOUS
10
204.364
20
-52.2262
11
204.364
21
-52.2265
0
LINE
8
BLACK
6
CONTINUOUS
10
204.364
20
-52.2265
11
204.364
21
-52.2288
0
LINE
8
BLACK
6
CONTINUOUS
10
204.364
20
-52.2288
11
204.365
21
-52.231
0
LINE
8
BLACK
6
CONTINUOUS
10
204.365
20
-52.231
11
204.393
21
-52.5021
0
LINE
8
BLACK
6
CONTINUOUS
10
204.393
20
-52.5021
11
204.393
21
-52.5025
0
LINE
8
BLACK
6
CONTINUOUS
10
204.393
20
-52.5025
11
204.393
21
-52.5036
0
LINE
8
BLACK
6
CONTINUOUS
10
204.393
20
-52.5036
11
204.393
21
-52.5047
0
LINE
8
BLACK
6
CONTINUOUS
10
204.393
20
-52.5047
11
204.393
21
-52.5132
0
LINE
8
BLACK
6
CONTINUOUS
10
204.393
20
-52.5132
11
204.393
21
-52.5133
0
LINE
8
BLACK
6
CONTINUOUS
10
204.393
20
-52.5133
11
204.393
21
-54.4829
0
LINE
8
BLACK
6
CONTINUOUS
10
204.393
20
-54.4829
11
204.393
21
-54.4914
0
LINE
8
BLACK
6
CONTINUOUS
10
204.393
20
-54.4914
11
204.422
21
-54.7589
0
LINE
8
BLACK
6
CONTINUOUS
10
204.422
20
-54.7589
11
204.501
21
-55.0146
0
LINE
8
BLACK
6
CONTINUOUS
10
204.501
20
-55.0146
11
204.628
21
-55.2501
0
LINE
8
BLACK
6
CONTINUOUS
10
204.628
20
-55.2501
11
204.799
21
-55.4564
0
LINE
8
BLACK
6
CONTINUOUS
10
204.799
20
-55.4564
11
205.006
21
-55.6257
0
LINE
8
BLACK
6
CONTINUOUS
10
205.006
20
-55.6257
11
205.243
21
-55.7514
0
LINE
8
BLACK
6
CONTINUOUS
10
205.243
20
-55.7514
11
205.499
21
-55.8288
0
LINE
8
BLACK
6
CONTINUOUS
10
205.499
20
-55.8288
11
205.767
21
-55.855
0
LINE
8
BLACK
6
CONTINUOUS
10
205.767
20
-55.855
11
231.267
21
-55.855
0
LINE
8
BLACK
6
CONTINUOUS
10
231.267
20
-55.855
11
231.267
21
-54.1493
0
LINE
8
BLACK
6
CONTINUOUS
10
231.267
20
-54.1493
11
231.267
21
-54.1481
0
LINE
8
BLACK
6
CONTINUOUS
10
231.267
20
-54.1481
11
231.267
21
-54.1481
0
LINE
8
BLACK
6
CONTINUOUS
10
231.267
20
-54.1481
11
231.348
21
-53.2943
0
LINE
8
BLACK
6
CONTINUOUS
10
231.348
20
-53.2943
11
231.349
21
-53.2919
0
LINE
8
BLACK
6
CONTINUOUS
10
231.349
20
-53.2919
11
231.349
21
-53.2908
0
LINE
8
BLACK
6
CONTINUOUS
10
231.349
20
-53.2908
11
231.349
21
-53.2897
0
LINE
8
BLACK
6
CONTINUOUS
10
231.349
20
-53.2897
11
231.591
21
-52.4667
0
LINE
8
BLACK
6
CONTINUOUS
10
231.591
20
-52.4667
11
231.591
21
-52.4644
0
LINE
8
BLACK
6
CONTINUOUS
10
231.591
20
-52.4644
11
231.592
21
-52.4633
0
LINE
8
BLACK
6
CONTINUOUS
10
231.592
20
-52.4633
11
231.592
21
-52.4623
0
LINE
8
BLACK
6
CONTINUOUS
10
231.592
20
-52.4623
11
231.985
21
-51.6998
0
LINE
8
BLACK
6
CONTINUOUS
10
231.985
20
-51.6998
11
231.986
21
-51.6977
0
LINE
8
BLACK
6
CONTINUOUS
10
231.986
20
-51.6977
11
231.987
21
-51.6967
0
LINE
8
BLACK
6
CONTINUOUS
10
231.987
20
-51.6967
11
231.988
21
-51.6958
0
LINE
8
BLACK
6
CONTINUOUS
10
231.988
20
-51.6958
11
232.517
21
-51.0213
0
LINE
8
BLACK
6
CONTINUOUS
10
232.517
20
-51.0213
11
232.519
21
-51.0195
0
LINE
8
BLACK
6
CONTINUOUS
10
232.519
20
-51.0195
11
232.52
21
-51.0187
0
LINE
8
BLACK
6
CONTINUOUS
10
232.52
20
-51.0187
11
232.521
21
-51.0179
0
LINE
8
BLACK
6
CONTINUOUS
10
232.521
20
-51.0179
11
233.169
21
-50.4557
0
LINE
8
BLACK
6
CONTINUOUS
10
233.169
20
-50.4557
11
233.17
21
-50.4542
0
LINE
8
BLACK
6
CONTINUOUS
10
233.17
20
-50.4542
11
233.171
21
-50.4537
0
LINE
8
BLACK
6
CONTINUOUS
10
233.171
20
-50.4537
11
233.172
21
-50.453
0
LINE
8
BLACK
6
CONTINUOUS
10
233.172
20
-50.453
11
233.915
21
-50.0235
0
LINE
8
BLACK
6
CONTINUOUS
10
233.915
20
-50.0235
11
233.917
21
-50.0224
0
LINE
8
BLACK
6
CONTINUOUS
10
233.917
20
-50.0224
11
233.918
21
-50.022
0
LINE
8
BLACK
6
CONTINUOUS
10
233.918
20
-50.022
11
233.919
21
-50.0215
0
LINE
8
BLACK
6
CONTINUOUS
10
233.919
20
-50.0215
11
234.729
21
-49.7402
0
LINE
8
BLACK
6
CONTINUOUS
10
234.729
20
-49.7402
11
234.732
21
-49.7395
0
LINE
8
BLACK
6
CONTINUOUS
10
234.732
20
-49.7395
11
234.733
21
-49.7393
0
LINE
8
BLACK
6
CONTINUOUS
10
234.733
20
-49.7393
11
234.734
21
-49.739
0
LINE
8
BLACK
6
CONTINUOUS
10
234.734
20
-49.739
11
235.583
21
-49.616
0
LINE
8
BLACK
6
CONTINUOUS
10
235.583
20
-49.616
11
235.585
21
-49.6157
0
LINE
8
BLACK
6
CONTINUOUS
10
235.585
20
-49.6157
11
235.586
21
-49.6158
0
LINE
8
BLACK
6
CONTINUOUS
10
235.586
20
-49.6158
11
235.587
21
-49.6157
0
LINE
8
BLACK
6
CONTINUOUS
10
235.587
20
-49.6157
11
236.444
21
-49.6554
0
LINE
8
BLACK
6
CONTINUOUS
10
236.444
20
-49.6554
11
236.447
21
-49.6556
0
LINE
8
BLACK
6
CONTINUOUS
10
236.447
20
-49.6556
11
236.448
21
-49.6559
0
LINE
8
BLACK
6
CONTINUOUS
10
236.448
20
-49.6559
11
236.449
21
-49.6561
0
LINE
8
BLACK
6
CONTINUOUS
10
236.449
20
-49.6561
11
237.283
21
-49.857
0
LINE
8
BLACK
6
CONTINUOUS
10
237.283
20
-49.857
11
237.283
21
-49.857
0
LINE
8
BLACK
6
CONTINUOUS
10
237.283
20
-49.857
11
237.283
21
-49.857
0
LINE
8
BLACK
6
CONTINUOUS
10
237.283
20
-49.857
11
237.285
21
-49.8577
0
LINE
8
BLACK
6
CONTINUOUS
10
237.285
20
-49.8577
11
237.286
21
-49.8582
0
LINE
8
BLACK
6
CONTINUOUS
10
237.286
20
-49.8582
11
237.287
21
-49.8586
0
LINE
8
BLACK
6
CONTINUOUS
10
237.287
20
-49.8586
11
238.068
21
-50.2135
0
LINE
8
BLACK
6
CONTINUOUS
10
238.068
20
-50.2135
11
238.07
21
-50.2147
0
LINE
8
BLACK
6
CONTINUOUS
10
238.07
20
-50.2147
11
238.071
21
-50.2153
0
LINE
8
BLACK
6
CONTINUOUS
10
238.071
20
-50.2153
11
238.072
21
-50.2159
0
LINE
8
BLACK
6
CONTINUOUS
10
238.072
20
-50.2159
11
238.772
21
-50.7121
0
LINE
8
BLACK
6
CONTINUOUS
10
238.772
20
-50.7121
11
238.772
21
-50.7121
0
LINE
8
BLACK
6
CONTINUOUS
10
238.772
20
-50.7121
11
238.772
21
-50.7121
0
LINE
8
BLACK
6
CONTINUOUS
10
238.772
20
-50.7121
11
238.774
21
-50.7136
0
LINE
8
BLACK
6
CONTINUOUS
10
238.774
20
-50.7136
11
238.774
21
-50.7145
0
LINE
8
BLACK
6
CONTINUOUS
10
238.774
20
-50.7145
11
238.775
21
-50.7152
0
LINE
8
BLACK
6
CONTINUOUS
10
238.775
20
-50.7152
11
239.368
21
-51.3348
0
LINE
8
BLACK
6
CONTINUOUS
10
239.368
20
-51.3348
11
239.37
21
-51.3366
0
LINE
8
BLACK
6
CONTINUOUS
10
239.37
20
-51.3366
11
239.371
21
-51.3376
0
LINE
8
BLACK
6
CONTINUOUS
10
239.371
20
-51.3376
11
239.371
21
-51.3385
0
LINE
8
BLACK
6
CONTINUOUS
10
239.371
20
-51.3385
11
239.837
21
-52.059
0
LINE
8
BLACK
6
CONTINUOUS
10
239.837
20
-52.059
11
239.837
21
-52.0591
0
LINE
8
BLACK
6
CONTINUOUS
10
239.837
20
-52.0591
11
239.837
21
-52.0591
0
LINE
8
BLACK
6
CONTINUOUS
10
239.837
20
-52.0591
11
239.838
21
-52.0612
0
LINE
8
BLACK
6
CONTINUOUS
10
239.838
20
-52.0612
11
239.838
21
-52.0622
0
LINE
8
BLACK
6
CONTINUOUS
10
239.838
20
-52.0622
11
239.839
21
-52.0633
0
LINE
8
BLACK
6
CONTINUOUS
10
239.839
20
-52.0633
11
240.159
21
-52.8588
0
LINE
8
BLACK
6
CONTINUOUS
10
240.159
20
-52.8588
11
240.16
21
-52.8611
0
LINE
8
BLACK
6
CONTINUOUS
10
240.16
20
-52.8611
11
240.16
21
-52.8622
0
LINE
8
BLACK
6
CONTINUOUS
10
240.16
20
-52.8622
11
240.161
21
-52.8633
0
LINE
8
BLACK
6
CONTINUOUS
10
240.161
20
-52.8633
11
240.325
21
-53.7051
0
LINE
8
BLACK
6
CONTINUOUS
10
240.325
20
-53.7051
11
240.325
21
-53.7075
0
LINE
8
BLACK
6
CONTINUOUS
10
240.325
20
-53.7075
11
240.325
21
-53.7081
0
LINE
8
BLACK
6
CONTINUOUS
10
240.325
20
-53.7081
11
240.326
21
-53.7087
0
LINE
8
BLACK
6
CONTINUOUS
10
240.326
20
-53.7087
11
240.347
21
-54.1487
0
LINE
8
BLACK
6
CONTINUOUS
10
240.347
20
-54.1487
11
240.347
21
-54.1493
0
LINE
8
BLACK
6
CONTINUOUS
10
240.347
20
-54.1493
11
240.347
21
-55.855
0
LINE
8
BLACK
6
CONTINUOUS
10
240.347
20
-55.855
11
250.153
21
-55.855
0
LINE
8
BLACK
6
CONTINUOUS
10
250.153
20
-55.855
11
250.154
21
-55.8551
0
LINE
8
BLACK
6
CONTINUOUS
10
250.154
20
-55.8551
11
250.154
21
-55.8551
0
LINE
8
BLACK
6
CONTINUOUS
10
250.154
20
-55.8551
11
250.426
21
-55.8817
0
LINE
8
BLACK
6
CONTINUOUS
10
250.426
20
-55.8817
11
250.426
21
-55.8818
0
LINE
8
BLACK
6
CONTINUOUS
10
250.426
20
-55.8818
11
250.428
21
-55.8822
0
LINE
8
BLACK
6
CONTINUOUS
10
250.428
20
-55.8822
11
250.43
21
-55.8827
0
LINE
8
BLACK
6
CONTINUOUS
10
250.43
20
-55.8827
11
250.691
21
-55.9615
0
LINE
8
BLACK
6
CONTINUOUS
10
250.691
20
-55.9615
11
250.692
21
-55.9616
0
LINE
8
BLACK
6
CONTINUOUS
10
250.692
20
-55.9616
11
250.694
21
-55.9625
0
LINE
8
BLACK
6
CONTINUOUS
10
250.694
20
-55.9625
11
250.696
21
-55.9633
0
LINE
8
BLACK
6
CONTINUOUS
10
250.696
20
-55.9633
11
250.937
21
-56.0913
0
LINE
8
BLACK
6
CONTINUOUS
10
250.937
20
-56.0913
11
250.937
21
-56.0915
0
LINE
8
BLACK
6
CONTINUOUS
10
250.937
20
-56.0915
11
250.939
21
-56.0928
0
LINE
8
BLACK
6
CONTINUOUS
10
250.939
20
-56.0928
11
250.941
21
-56.094
0
LINE
8
BLACK
6
CONTINUOUS
10
250.941
20
-56.094
11
251.152
21
-56.2664
0
LINE
8
BLACK
6
CONTINUOUS
10
251.152
20
-56.2664
11
251.152
21
-56.2664
0
LINE
8
BLACK
6
CONTINUOUS
10
251.152
20
-56.2664
11
251.152
21
-56.2664
0
LINE
8
BLACK
6
CONTINUOUS
10
251.152
20
-56.2664
11
251.152
21
-56.2666
0
LINE
8
BLACK
6
CONTINUOUS
10
251.152
20
-56.2666
11
251.154
21
-56.2682
0
LINE
8
BLACK
6
CONTINUOUS
10
251.154
20
-56.2682
11
251.156
21
-56.2698
0
LINE
8
BLACK
6
CONTINUOUS
10
251.156
20
-56.2698
11
251.329
21
-56.4799
0
LINE
8
BLACK
6
CONTINUOUS
10
251.329
20
-56.4799
11
251.33
21
-56.4801
0
LINE
8
BLACK
6
CONTINUOUS
10
251.33
20
-56.4801
11
251.331
21
-56.4821
0
LINE
8
BLACK
6
CONTINUOUS
10
251.331
20
-56.4821
11
251.332
21
-56.4839
0
LINE
8
BLACK
6
CONTINUOUS
10
251.332
20
-56.4839
11
251.462
21
-56.7237
0
LINE
8
BLACK
6
CONTINUOUS
10
251.462
20
-56.7237
11
251.462
21
-56.7237
0
LINE
8
BLACK
6
CONTINUOUS
10
251.462
20
-56.7237
11
251.462
21
-56.7238
0
LINE
8
BLACK
6
CONTINUOUS
10
251.462
20
-56.7238
11
251.462
21
-56.7241
0
LINE
8
BLACK
6
CONTINUOUS
10
251.462
20
-56.7241
11
251.463
21
-56.7262
0
LINE
8
BLACK
6
CONTINUOUS
10
251.463
20
-56.7262
11
251.464
21
-56.7282
0
LINE
8
BLACK
6
CONTINUOUS
10
251.464
20
-56.7282
11
251.544
21
-56.9887
0
LINE
8
BLACK
6
CONTINUOUS
10
251.544
20
-56.9887
11
251.544
21
-56.989
0
LINE
8
BLACK
6
CONTINUOUS
10
251.544
20
-56.989
11
251.545
21
-56.9913
0
LINE
8
BLACK
6
CONTINUOUS
10
251.545
20
-56.9913
11
251.545
21
-56.9935
0
LINE
8
BLACK
6
CONTINUOUS
10
251.545
20
-56.9935
11
251.574
21
-57.2646
0
LINE
8
BLACK
6
CONTINUOUS
10
251.574
20
-57.2646
11
251.574
21
-57.265
0
LINE
8
BLACK
6
CONTINUOUS
10
251.574
20
-57.265
11
251.574
21
-57.2661
0
LINE
8
BLACK
6
CONTINUOUS
10
251.574
20
-57.2661
11
251.574
21
-57.2672
0
LINE
8
BLACK
6
CONTINUOUS
10
251.574
20
-57.2672
11
251.574
21
-57.2757
0
LINE
8
BLACK
6
CONTINUOUS
10
251.574
20
-57.2757
11
251.574
21
-57.2758
0
LINE
8
BLACK
6
CONTINUOUS
10
251.574
20
-57.2758
11
251.574
21
-116.268
0
LINE
8
BLACK
6
CONTINUOUS
10
251.574
20
-116.268
11
253.28
21
-116.268
0
LINE
8
BLACK
6
CONTINUOUS
10
253.28
20
-116.268
11
253.281
21
-116.268
0
LINE
8
BLACK
6
CONTINUOUS
10
253.281
20
-116.268
11
253.281
21
-116.268
0
LINE
8
BLACK
6
CONTINUOUS
10
253.281
20
-116.268
11
254.135
21
-116.35
0
LINE
8
BLACK
6
CONTINUOUS
10
254.135
20
-116.35
11
254.135
21
-116.35
0
LINE
8
BLACK
6
CONTINUOUS
10
254.135
20
-116.35
11
254.135
21
-116.35
0
LINE
8
BLACK
6
CONTINUOUS
10
254.135
20
-116.35
11
254.137
21
-116.35
0
LINE
8
BLACK
6
CONTINUOUS
10
254.137
20
-116.35
11
254.138
21
-116.35
0
LINE
8
BLACK
6
CONTINUOUS
10
254.138
20
-116.35
11
254.139
21
-116.351
0
LINE
8
BLACK
6
CONTINUOUS
10
254.139
20
-116.351
11
254.962
21
-116.592
0
LINE
8
BLACK
6
CONTINUOUS
10
254.962
20
-116.592
11
254.965
21
-116.593
0
LINE
8
BLACK
6
CONTINUOUS
10
254.965
20
-116.593
11
254.966
21
-116.593
0
LINE
8
BLACK
6
CONTINUOUS
10
254.966
20
-116.593
11
254.967
21
-116.594
0
LINE
8
BLACK
6
CONTINUOUS
10
254.967
20
-116.594
11
255.729
21
-116.987
0
LINE
8
BLACK
6
CONTINUOUS
10
255.729
20
-116.987
11
255.731
21
-116.988
0
LINE
8
BLACK
6
CONTINUOUS
10
255.731
20
-116.988
11
255.732
21
-116.989
0
LINE
8
BLACK
6
CONTINUOUS
10
255.732
20
-116.989
11
255.733
21
-116.989
0
LINE
8
BLACK
6
CONTINUOUS
10
255.733
20
-116.989
11
256.408
21
-117.519
0
LINE
8
BLACK
6
CONTINUOUS
10
256.408
20
-117.519
11
256.409
21
-117.521
0
LINE
8
BLACK
6
CONTINUOUS
10
256.409
20
-117.521
11
256.41
21
-117.521
0
LINE
8
BLACK
6
CONTINUOUS
10
256.41
20
-117.521
11
256.411
21
-117.522
0
LINE
8
BLACK
6
CONTINUOUS
10
256.411
20
-117.522
11
256.973
21
-118.17
0
LINE
8
BLACK
6
CONTINUOUS
10
256.973
20
-118.17
11
256.975
21
-118.172
0
LINE
8
BLACK
6
CONTINUOUS
10
256.975
20
-118.172
11
256.975
21
-118.173
0
LINE
8
BLACK
6
CONTINUOUS
10
256.975
20
-118.173
11
256.976
21
-118.174
0
LINE
8
BLACK
6
CONTINUOUS
10
256.976
20
-118.174
11
257.405
21
-118.916
0
LINE
8
BLACK
6
CONTINUOUS
10
257.405
20
-118.916
11
257.407
21
-118.918
0
LINE
8
BLACK
6
CONTINUOUS
10
257.407
20
-118.918
11
257.407
21
-118.92
0
LINE
8
BLACK
6
CONTINUOUS
10
257.407
20
-118.92
11
257.407
21
-118.921
0
LINE
8
BLACK
6
CONTINUOUS
10
257.407
20
-118.921
11
257.689
21
-119.731
0
LINE
8
BLACK
6
CONTINUOUS
10
257.689
20
-119.731
11
257.689
21
-119.733
0
LINE
8
BLACK
6
CONTINUOUS
10
257.689
20
-119.733
11
257.69
21
-119.734
0
LINE
8
BLACK
6
CONTINUOUS
10
257.69
20
-119.734
11
257.69
21
-119.735
0
LINE
8
BLACK
6
CONTINUOUS
10
257.69
20
-119.735
11
257.813
21
-120.584
0
LINE
8
BLACK
6
CONTINUOUS
10
257.813
20
-120.584
11
257.813
21
-120.587
0
LINE
8
BLACK
6
CONTINUOUS
10
257.813
20
-120.587
11
257.813
21
-120.588
0
LINE
8
BLACK
6
CONTINUOUS
10
257.813
20
-120.588
11
257.813
21
-120.589
0
LINE
8
BLACK
6
CONTINUOUS
10
257.813
20
-120.589
11
257.774
21
-121.446
0
LINE
8
BLACK
6
CONTINUOUS
10
257.774
20
-121.446
11
257.773
21
-121.448
0
LINE
8
BLACK
6
CONTINUOUS
10
257.773
20
-121.448
11
257.773
21
-121.449
0
LINE
8
BLACK
6
CONTINUOUS
10
257.773
20
-121.449
11
257.773
21
-121.45
0
LINE
8
BLACK
6
CONTINUOUS
10
257.773
20
-121.45
11
257.572
21
-122.284
0
LINE
8
BLACK
6
CONTINUOUS
10
257.572
20
-122.284
11
257.571
21
-122.287
0
LINE
8
BLACK
6
CONTINUOUS
10
257.571
20
-122.287
11
257.571
21
-122.288
0
LINE
8
BLACK
6
CONTINUOUS
10
257.571
20
-122.288
11
257.57
21
-122.289
0
LINE
8
BLACK
6
CONTINUOUS
10
257.57
20
-122.289
11
257.215
21
-123.07
0
LINE
8
BLACK
6
CONTINUOUS
10
257.215
20
-123.07
11
257.215
21
-123.07
0
LINE
8
BLACK
6
CONTINUOUS
10
257.215
20
-123.07
11
257.215
21
-123.07
0
LINE
8
BLACK
6
CONTINUOUS
10
257.215
20
-123.07
11
257.214
21
-123.072
0
LINE
8
BLACK
6
CONTINUOUS
10
257.214
20
-123.072
11
257.214
21
-123.073
0
LINE
8
BLACK
6
CONTINUOUS
10
257.214
20
-123.073
11
257.213
21
-123.074
0
LINE
8
BLACK
6
CONTINUOUS
10
257.213
20
-123.074
11
256.717
21
-123.773
0
LINE
8
BLACK
6
CONTINUOUS
10
256.717
20
-123.773
11
256.715
21
-123.775
0
LINE
8
BLACK
6
CONTINUOUS
10
256.715
20
-123.775
11
256.714
21
-123.776
0
LINE
8
BLACK
6
CONTINUOUS
10
256.714
20
-123.776
11
256.714
21
-123.777
0
LINE
8
BLACK
6
CONTINUOUS
10
256.714
20
-123.777
11
256.094
21
-124.37
0
LINE
8
BLACK
6
CONTINUOUS
10
256.094
20
-124.37
11
256.092
21
-124.371
0
LINE
8
BLACK
6
CONTINUOUS
10
256.092
20
-124.371
11
256.091
21
-124.372
0
LINE
8
BLACK
6
CONTINUOUS
10
256.091
20
-124.372
11
256.09
21
-124.373
0
LINE
8
BLACK
6
CONTINUOUS
10
256.09
20
-124.373
11
255.37
21
-124.838
0
LINE
8
BLACK
6
CONTINUOUS
10
255.37
20
-124.838
11
255.368
21
-124.839
0
LINE
8
BLACK
6
CONTINUOUS
10
255.368
20
-124.839
11
255.367
21
-124.84
0
LINE
8
BLACK
6
CONTINUOUS
10
255.367
20
-124.84
11
255.366
21
-124.84
0
LINE
8
BLACK
6
CONTINUOUS
10
255.366
20
-124.84
11
254.57
21
-125.161
0
LINE
8
BLACK
6
CONTINUOUS
10
254.57
20
-125.161
11
254.568
21
-125.162
0
LINE
8
BLACK
6
CONTINUOUS
10
254.568
20
-125.162
11
254.567
21
-125.162
0
LINE
8
BLACK
6
CONTINUOUS
10
254.567
20
-125.162
11
254.566
21
-125.162
0
LINE
8
BLACK
6
CONTINUOUS
10
254.566
20
-125.162
11
253.724
21
-125.327
0
LINE
8
BLACK
6
CONTINUOUS
10
253.724
20
-125.327
11
253.721
21
-125.327
0
LINE
8
BLACK
6
CONTINUOUS
10
253.721
20
-125.327
11
253.721
21
-125.327
0
LINE
8
BLACK
6
CONTINUOUS
10
253.721
20
-125.327
11
253.72
21
-125.327
0
LINE
8
BLACK
6
CONTINUOUS
10
253.72
20
-125.327
11
253.28
21
-125.349
0
LINE
8
BLACK
6
CONTINUOUS
10
253.28
20
-125.349
11
253.28
21
-125.349
0
LINE
8
BLACK
6
CONTINUOUS
10
253.28
20
-125.349
11
251.574
21
-125.349
0
LINE
8
BLACK
6
CONTINUOUS
10
251.574
20
-125.349
11
251.574
21
-155.83
0
LINE
8
BLACK
6
CONTINUOUS
10
251.574
20
-155.83
11
251.574
21
-155.831
0
LINE
8
BLACK
6
CONTINUOUS
10
251.574
20
-155.831
11
251.574
21
-155.831
0
LINE
8
BLACK
6
CONTINUOUS
10
251.574
20
-155.831
11
251.547
21
-156.103
0
LINE
8
BLACK
6
CONTINUOUS
10
251.547
20
-156.103
11
251.547
21
-156.103
0
LINE
8
BLACK
6
CONTINUOUS
10
251.547
20
-156.103
11
251.547
21
-156.105
0
LINE
8
BLACK
6
CONTINUOUS
10
251.547
20
-156.105
11
251.546
21
-156.108
0
LINE
8
BLACK
6
CONTINUOUS
10
251.546
20
-156.108
11
251.467
21
-156.369
0
LINE
8
BLACK
6
CONTINUOUS
10
251.467
20
-156.369
11
251.467
21
-156.369
0
LINE
8
BLACK
6
CONTINUOUS
10
251.467
20
-156.369
11
251.466
21
-156.371
0
LINE
8
BLACK
6
CONTINUOUS
10
251.466
20
-156.371
11
251.466
21
-156.373
0
LINE
8
BLACK
6
CONTINUOUS
10
251.466
20
-156.373
11
251.338
21
-156.614
0
LINE
8
BLACK
6
CONTINUOUS
10
251.338
20
-156.614
11
251.337
21
-156.614
0
LINE
8
BLACK
6
CONTINUOUS
10
251.337
20
-156.614
11
251.336
21
-156.616
0
LINE
8
BLACK
6
CONTINUOUS
10
251.336
20
-156.616
11
251.335
21
-156.618
0
LINE
8
BLACK
6
CONTINUOUS
10
251.335
20
-156.618
11
251.163
21
-156.829
0
LINE
8
BLACK
6
CONTINUOUS
10
251.163
20
-156.829
11
251.162
21
-156.829
0
LINE
8
BLACK
6
CONTINUOUS
10
251.162
20
-156.829
11
251.161
21
-156.831
0
LINE
8
BLACK
6
CONTINUOUS
10
251.161
20
-156.831
11
251.159
21
-156.833
0
LINE
8
BLACK
6
CONTINUOUS
10
251.159
20
-156.833
11
250.949
21
-157.006
0
LINE
8
BLACK
6
CONTINUOUS
10
250.949
20
-157.006
11
250.949
21
-157.007
0
LINE
8
BLACK
6
CONTINUOUS
10
250.949
20
-157.007
11
250.947
21
-157.008
0
LINE
8
BLACK
6
CONTINUOUS
10
250.947
20
-157.008
11
250.945
21
-157.009
0
LINE
8
BLACK
6
CONTINUOUS
10
250.945
20
-157.009
11
250.705
21
-157.139
0
LINE
8
BLACK
6
CONTINUOUS
10
250.705
20
-157.139
11
250.705
21
-157.139
0
LINE
8
BLACK
6
CONTINUOUS
10
250.705
20
-157.139
11
250.703
21
-157.14
0
LINE
8
BLACK
6
CONTINUOUS
10
250.703
20
-157.14
11
250.701
21
-157.141
0
LINE
8
BLACK
6
CONTINUOUS
10
250.701
20
-157.141
11
250.44
21
-157.221
0
LINE
8
BLACK
6
CONTINUOUS
10
250.44
20
-157.221
11
250.44
21
-157.221
0
LINE
8
BLACK
6
CONTINUOUS
10
250.44
20
-157.221
11
250.438
21
-157.222
0
LINE
8
BLACK
6
CONTINUOUS
10
250.438
20
-157.222
11
250.435
21
-157.222
0
LINE
8
BLACK
6
CONTINUOUS
10
250.435
20
-157.222
11
250.164
21
-157.251
0
LINE
8
BLACK
6
CONTINUOUS
10
250.164
20
-157.251
11
250.164
21
-157.251
0
LINE
8
BLACK
6
CONTINUOUS
10
250.164
20
-157.251
11
250.163
21
-157.251
0
LINE
8
BLACK
6
CONTINUOUS
10
250.163
20
-157.251
11
250.162
21
-157.251
0
LINE
8
BLACK
6
CONTINUOUS
10
250.162
20
-157.251
11
250.153
21
-157.251
0
LINE
8
BLACK
6
CONTINUOUS
10
250.153
20
-157.251
11
250.153
21
-157.251
0
LINE
8
BLACK
6
CONTINUOUS
10
250.153
20
-157.251
11
201.827
21
-157.251
0
LINE
8
BLACK
6
CONTINUOUS
10
201.827
20
-157.251
11
201.826
21
-157.251
0
LINE
8
BLACK
6
CONTINUOUS
10
123.17
20
-127.046
11
123.173
21
-127.05
0
LINE
8
BLACK
6
CONTINUOUS
10
123.173
20
-127.05
11
123.175
21
-127.054
0
LINE
8
BLACK
6
CONTINUOUS
10
123.175
20
-127.054
11
123.177
21
-127.059
0
LINE
8
BLACK
6
CONTINUOUS
10
123.177
20
-127.059
11
123.177
21
-127.062
0
LINE
8
BLACK
6
CONTINUOUS
10
123.177
20
-127.062
11
123.177
21
-127.062
0
LINE
8
BLACK
6
CONTINUOUS
10
123.177
20
-127.062
11
123.177
21
-127.063
0
LINE
8
BLACK
6
CONTINUOUS
10
123.177
20
-127.063
11
123.177
21
-127.065
0
LINE
8
BLACK
6
CONTINUOUS
10
123.177
20
-127.065
11
123.177
21
-132.64
0
LINE
8
BLACK
6
CONTINUOUS
10
123.177
20
-132.64
11
123.177
21
-132.641
0
LINE
8
BLACK
6
CONTINUOUS
10
123.177
20
-132.641
11
123.177
21
-132.641
0
LINE
8
BLACK
6
CONTINUOUS
10
123.177
20
-132.641
11
123.159
21
-132.826
0
LINE
8
BLACK
6
CONTINUOUS
10
123.159
20
-132.826
11
123.159
21
-132.826
0
LINE
8
BLACK
6
CONTINUOUS
10
123.159
20
-132.826
11
123.158
21
-132.828
0
LINE
8
BLACK
6
CONTINUOUS
10
123.158
20
-132.828
11
123.158
21
-132.831
0
LINE
8
BLACK
6
CONTINUOUS
10
123.158
20
-132.831
11
123.104
21
-133.009
0
LINE
8
BLACK
6
CONTINUOUS
10
123.104
20
-133.009
11
123.104
21
-133.009
0
LINE
8
BLACK
6
CONTINUOUS
10
123.104
20
-133.009
11
123.103
21
-133.011
0
LINE
8
BLACK
6
CONTINUOUS
10
123.103
20
-133.011
11
123.102
21
-133.013
0
LINE
8
BLACK
6
CONTINUOUS
10
123.102
20
-133.013
11
123.015
21
-133.177
0
LINE
8
BLACK
6
CONTINUOUS
10
123.015
20
-133.177
11
123.015
21
-133.177
0
LINE
8
BLACK
6
CONTINUOUS
10
123.015
20
-133.177
11
123.013
21
-133.179
0
LINE
8
BLACK
6
CONTINUOUS
10
123.013
20
-133.179
11
123.012
21
-133.181
0
LINE
8
BLACK
6
CONTINUOUS
10
123.012
20
-133.181
11
122.947
21
-133.261
0
LINE
8
BLACK
6
CONTINUOUS
10
122.947
20
-133.261
11
123.273
21
-133.049
0
LINE
8
BLACK
6
CONTINUOUS
10
123.273
20
-133.049
11
123.277
21
-133.047
0
LINE
8
BLACK
6
CONTINUOUS
10
123.277
20
-133.047
11
123.281
21
-133.046
0
LINE
8
BLACK
6
CONTINUOUS
10
123.281
20
-133.046
11
123.286
21
-133.045
0
LINE
8
BLACK
6
CONTINUOUS
10
123.286
20
-133.045
11
123.291
21
-133.046
0
LINE
8
BLACK
6
CONTINUOUS
10
123.291
20
-133.046
11
123.296
21
-133.048
0
LINE
8
BLACK
6
CONTINUOUS
10
123.296
20
-133.048
11
123.3
21
-133.05
0
LINE
8
BLACK
6
CONTINUOUS
10
123.3
20
-133.05
11
123.304
21
-133.053
0
LINE
8
BLACK
6
CONTINUOUS
10
123.304
20
-133.053
11
123.307
21
-133.057
0
LINE
8
BLACK
6
CONTINUOUS
10
123.307
20
-133.057
11
123.309
21
-133.061
0
LINE
8
BLACK
6
CONTINUOUS
10
123.309
20
-133.061
11
123.311
21
-133.066
0
LINE
8
BLACK
6
CONTINUOUS
10
123.311
20
-133.066
11
123.311
21
-133.071
0
LINE
8
BLACK
6
CONTINUOUS
10
123.311
20
-133.071
11
123.311
21
-133.076
0
LINE
8
BLACK
6
CONTINUOUS
10
123.311
20
-133.076
11
123.309
21
-133.081
0
LINE
8
BLACK
6
CONTINUOUS
10
123.309
20
-133.081
11
123.307
21
-133.085
0
LINE
8
BLACK
6
CONTINUOUS
10
123.307
20
-133.085
11
123.304
21
-133.089
0
LINE
8
BLACK
6
CONTINUOUS
10
123.304
20
-133.089
11
123.301
21
-133.091
0
LINE
8
BLACK
6
CONTINUOUS
10
123.301
20
-133.091
11
93.7386
21
-152.295
0
LINE
8
BLACK
6
CONTINUOUS
10
93.7386
20
-152.295
11
93.7353
21
-152.296
0
LINE
8
BLACK
6
CONTINUOUS
10
93.7353
20
-152.296
11
93.7306
21
-152.298
0
LINE
8
BLACK
6
CONTINUOUS
10
93.7306
20
-152.298
11
93.7294
21
-152.298
0
LINE
8
BLACK
6
CONTINUOUS
10
93.7294
20
-152.298
11
93.6665
21
-152.345
0
LINE
8
BLACK
6
CONTINUOUS
10
93.6665
20
-152.345
11
93.543
21
-152.469
0
LINE
8
BLACK
6
CONTINUOUS
10
93.543
20
-152.469
11
93.4462
21
-152.614
0
LINE
8
BLACK
6
CONTINUOUS
10
93.4462
20
-152.614
11
93.3796
21
-152.776
0
LINE
8
BLACK
6
CONTINUOUS
10
93.3796
20
-152.776
11
93.3456
21
-152.947
0
LINE
8
BLACK
6
CONTINUOUS
10
93.3456
20
-152.947
11
93.3455
21
-153.122
0
LINE
8
BLACK
6
CONTINUOUS
10
93.3455
20
-153.122
11
93.3794
21
-153.293
0
LINE
8
BLACK
6
CONTINUOUS
10
93.3794
20
-153.293
11
93.446
21
-153.455
0
LINE
8
BLACK
6
CONTINUOUS
10
93.446
20
-153.455
11
110.992
21
-180.445
0
LINE
8
BLACK
6
CONTINUOUS
10
110.992
20
-180.445
11
110.993
21
-180.445
0
LINE
8
BLACK
6
CONTINUOUS
10
110.993
20
-180.445
11
110.998
21
-180.445
0
LINE
8
BLACK
6
CONTINUOUS
10
110.998
20
-180.445
11
111.003
21
-180.446
0
LINE
8
BLACK
6
CONTINUOUS
10
111.003
20
-180.446
11
111.007
21
-180.448
0
LINE
8
BLACK
6
CONTINUOUS
10
111.007
20
-180.448
11
111.011
21
-180.451
0
LINE
8
BLACK
6
CONTINUOUS
10
111.011
20
-180.451
11
111.014
21
-180.455
0
LINE
8
BLACK
6
CONTINUOUS
10
111.014
20
-180.455
11
111.07
21
-180.529
0
LINE
8
BLACK
6
CONTINUOUS
10
111.07
20
-180.529
11
111.194
21
-180.653
0
LINE
8
BLACK
6
CONTINUOUS
10
111.194
20
-180.653
11
111.339
21
-180.749
0
LINE
8
BLACK
6
CONTINUOUS
10
111.339
20
-180.749
11
111.501
21
-180.816
0
LINE
8
BLACK
6
CONTINUOUS
10
111.501
20
-180.816
11
111.672
21
-180.85
0
LINE
8
BLACK
6
CONTINUOUS
10
111.672
20
-180.85
11
111.847
21
-180.85
0
LINE
8
BLACK
6
CONTINUOUS
10
111.847
20
-180.85
11
112.018
21
-180.816
0
LINE
8
BLACK
6
CONTINUOUS
10
112.018
20
-180.816
11
112.18
21
-180.75
0
LINE
8
BLACK
6
CONTINUOUS
10
112.18
20
-180.75
11
125.22
21
-172.281
0
LINE
8
BLACK
6
CONTINUOUS
10
125.22
20
-172.281
11
125.221
21
-172.28
0
LINE
8
BLACK
6
CONTINUOUS
10
125.221
20
-172.28
11
125.223
21
-172.279
0
LINE
8
BLACK
6
CONTINUOUS
10
125.223
20
-172.279
11
125.225
21
-172.278
0
LINE
8
BLACK
6
CONTINUOUS
10
125.225
20
-172.278
11
125.225
21
-172.278
0
LINE
8
BLACK
6
CONTINUOUS
10
125.225
20
-172.278
11
125.225
21
-172.278
0
LINE
8
BLACK
6
CONTINUOUS
10
125.225
20
-172.278
11
125.227
21
-172.277
0
LINE
8
BLACK
6
CONTINUOUS
10
125.227
20
-172.277
11
125.23
21
-172.276
0
LINE
8
BLACK
6
CONTINUOUS
10
125.23
20
-172.276
11
125.23
21
-172.276
0
LINE
8
BLACK
6
CONTINUOUS
10
125.23
20
-172.276
11
125.23
21
-172.276
0
LINE
8
BLACK
6
CONTINUOUS
10
125.23
20
-172.276
11
125.232
21
-172.276
0
LINE
8
BLACK
6
CONTINUOUS
10
125.232
20
-172.276
11
125.235
21
-172.276
0
LINE
8
BLACK
6
CONTINUOUS
10
125.235
20
-172.276
11
125.235
21
-172.276
0
LINE
8
BLACK
6
CONTINUOUS
10
125.235
20
-172.276
11
125.235
21
-172.276
0
LINE
8
BLACK
6
CONTINUOUS
10
125.235
20
-172.276
11
125.238
21
-172.276
0
LINE
8
BLACK
6
CONTINUOUS
10
125.238
20
-172.276
11
125.24
21
-172.276
0
LINE
8
BLACK
6
CONTINUOUS
10
125.24
20
-172.276
11
125.24
21
-172.276
0
LINE
8
BLACK
6
CONTINUOUS
10
125.24
20
-172.276
11
125.24
21
-172.276
0
LINE
8
BLACK
6
CONTINUOUS
10
125.24
20
-172.276
11
125.243
21
-172.277
0
LINE
8
BLACK
6
CONTINUOUS
10
125.243
20
-172.277
11
125.245
21
-172.278
0
LINE
8
BLACK
6
CONTINUOUS
10
125.245
20
-172.278
11
125.245
21
-172.278
0
LINE
8
BLACK
6
CONTINUOUS
10
125.245
20
-172.278
11
125.245
21
-172.278
0
LINE
8
BLACK
6
CONTINUOUS
10
125.245
20
-172.278
11
125.247
21
-172.279
0
LINE
8
BLACK
6
CONTINUOUS
10
125.247
20
-172.279
11
125.249
21
-172.28
0
LINE
8
BLACK
6
CONTINUOUS
10
125.249
20
-172.28
11
125.249
21
-172.28
0
LINE
8
BLACK
6
CONTINUOUS
10
125.249
20
-172.28
11
125.249
21
-172.28
0
LINE
8
BLACK
6
CONTINUOUS
10
125.249
20
-172.28
11
125.251
21
-172.282
0
LINE
8
BLACK
6
CONTINUOUS
10
125.251
20
-172.282
11
125.253
21
-172.283
0
LINE
8
BLACK
6
CONTINUOUS
10
125.253
20
-172.283
11
125.253
21
-172.283
0
LINE
8
BLACK
6
CONTINUOUS
10
125.253
20
-172.283
11
125.253
21
-172.283
0
LINE
8
BLACK
6
CONTINUOUS
10
125.253
20
-172.283
11
125.254
21
-172.285
0
LINE
8
BLACK
6
CONTINUOUS
10
125.254
20
-172.285
11
125.256
21
-172.287
0
LINE
8
BLACK
6
CONTINUOUS
10
125.256
20
-172.287
11
125.256
21
-172.288
0
LINE
8
BLACK
6
CONTINUOUS
10
125.256
20
-172.288
11
126.479
21
-174.176
0
LINE
8
BLACK
6
CONTINUOUS
10
126.479
20
-174.176
11
126.757
21
-174.565
0
LINE
8
BLACK
6
CONTINUOUS
10
126.757
20
-174.565
11
127.349
21
-175.18
0
LINE
8
BLACK
6
CONTINUOUS
10
127.349
20
-175.18
11
128.047
21
-175.671
0
LINE
8
BLACK
6
CONTINUOUS
10
128.047
20
-175.671
11
128.824
21
-176.021
0
LINE
8
BLACK
6
CONTINUOUS
10
128.824
20
-176.021
11
129.654
21
-176.217
0
LINE
8
BLACK
6
CONTINUOUS
10
129.654
20
-176.217
11
130.507
21
-176.254
0
LINE
8
BLACK
6
CONTINUOUS
10
130.507
20
-176.254
11
131.35
21
-176.128
0
LINE
8
BLACK
6
CONTINUOUS
10
131.35
20
-176.128
11
132.155
21
-175.845
0
LINE
8
BLACK
6
CONTINUOUS
10
132.155
20
-175.845
11
132.892
21
-175.416
0
LINE
8
BLACK
6
CONTINUOUS
10
132.892
20
-175.416
11
133.534
21
-174.854
0
LINE
8
BLACK
6
CONTINUOUS
10
133.534
20
-174.854
11
134.058
21
-174.182
0
LINE
8
BLACK
6
CONTINUOUS
10
134.058
20
-174.182
11
134.446
21
-173.422
0
LINE
8
BLACK
6
CONTINUOUS
10
134.446
20
-173.422
11
134.683
21
-172.603
0
LINE
8
BLACK
6
CONTINUOUS
10
134.683
20
-172.603
11
134.761
21
-171.753
0
LINE
8
BLACK
6
CONTINUOUS
10
134.761
20
-171.753
11
134.677
21
-170.904
0
LINE
8
BLACK
6
CONTINUOUS
10
134.677
20
-170.904
11
134.433
21
-170.087
0
LINE
8
BLACK
6
CONTINUOUS
10
134.433
20
-170.087
11
134.04
21
-169.329
0
LINE
8
BLACK
6
CONTINUOUS
10
134.04
20
-169.329
11
132.809
21
-167.388
0
LINE
8
BLACK
6
CONTINUOUS
10
132.809
20
-167.388
11
132.808
21
-167.387
0
LINE
8
BLACK
6
CONTINUOUS
10
132.808
20
-167.387
11
132.808
21
-167.386
0
LINE
8
BLACK
6
CONTINUOUS
10
132.808
20
-167.386
11
132.808
21
-167.386
0
LINE
8
BLACK
6
CONTINUOUS
10
132.808
20
-167.386
11
132.807
21
-167.385
0
LINE
8
BLACK
6
CONTINUOUS
10
132.807
20
-167.385
11
132.806
21
-167.383
0
LINE
8
BLACK
6
CONTINUOUS
10
132.806
20
-167.383
11
132.806
21
-167.382
0
LINE
8
BLACK
6
CONTINUOUS
10
132.806
20
-167.382
11
132.806
21
-167.382
0
LINE
8
BLACK
6
CONTINUOUS
10
132.806
20
-167.382
11
132.805
21
-167.38
0
LINE
8
BLACK
6
CONTINUOUS
10
132.805
20
-167.38
11
132.805
21
-167.378
0
LINE
8
BLACK
6
CONTINUOUS
10
132.805
20
-167.378
11
132.805
21
-167.378
0
LINE
8
BLACK
6
CONTINUOUS
10
132.805
20
-167.378
11
132.805
21
-167.378
0
LINE
8
BLACK
6
CONTINUOUS
10
132.805
20
-167.378
11
132.804
21
-167.375
0
LINE
8
BLACK
6
CONTINUOUS
10
132.804
20
-167.375
11
132.804
21
-167.373
0
LINE
8
BLACK
6
CONTINUOUS
10
132.804
20
-167.373
11
132.804
21
-167.373
0
LINE
8
BLACK
6
CONTINUOUS
10
132.804
20
-167.373
11
132.804
21
-167.373
0
LINE
8
BLACK
6
CONTINUOUS
10
132.804
20
-167.373
11
132.804
21
-167.37
0
LINE
8
BLACK
6
CONTINUOUS
10
132.804
20
-167.37
11
132.805
21
-167.368
0
LINE
8
BLACK
6
CONTINUOUS
10
132.805
20
-167.368
11
132.805
21
-167.368
0
LINE
8
BLACK
6
CONTINUOUS
10
132.805
20
-167.368
11
132.805
21
-167.368
0
LINE
8
BLACK
6
CONTINUOUS
10
132.805
20
-167.368
11
132.806
21
-167.366
0
LINE
8
BLACK
6
CONTINUOUS
10
132.806
20
-167.366
11
132.806
21
-167.363
0
LINE
8
BLACK
6
CONTINUOUS
10
132.806
20
-167.363
11
132.806
21
-167.363
0
LINE
8
BLACK
6
CONTINUOUS
10
132.806
20
-167.363
11
132.806
21
-167.363
0
LINE
8
BLACK
6
CONTINUOUS
10
132.806
20
-167.363
11
132.807
21
-167.361
0
LINE
8
BLACK
6
CONTINUOUS
10
132.807
20
-167.361
11
132.809
21
-167.359
0
LINE
8
BLACK
6
CONTINUOUS
10
132.809
20
-167.359
11
132.809
21
-167.359
0
LINE
8
BLACK
6
CONTINUOUS
10
132.809
20
-167.359
11
132.809
21
-167.359
0
LINE
8
BLACK
6
CONTINUOUS
10
132.809
20
-167.359
11
132.81
21
-167.357
0
LINE
8
BLACK
6
CONTINUOUS
10
132.81
20
-167.357
11
132.812
21
-167.355
0
LINE
8
BLACK
6
CONTINUOUS
10
132.812
20
-167.355
11
132.812
21
-167.355
0
LINE
8
BLACK
6
CONTINUOUS
10
132.812
20
-167.355
11
132.812
21
-167.355
0
LINE
8
BLACK
6
CONTINUOUS
10
132.812
20
-167.355
11
132.814
21
-167.354
0
LINE
8
BLACK
6
CONTINUOUS
10
132.814
20
-167.354
11
132.815
21
-167.353
0
LINE
8
BLACK
6
CONTINUOUS
10
132.815
20
-167.353
11
132.815
21
-167.353
0
LINE
8
BLACK
6
CONTINUOUS
10
132.815
20
-167.353
11
132.816
21
-167.352
0
LINE
8
BLACK
6
CONTINUOUS
10
132.816
20
-167.352
11
132.817
21
-167.352
0
LINE
8
BLACK
6
CONTINUOUS
10
132.817
20
-167.352
11
136.713
21
-164.813
0
LINE
8
BLACK
6
CONTINUOUS
10
136.713
20
-164.813
11
136.713
21
-164.813
0
LINE
8
BLACK
6
CONTINUOUS
10
136.713
20
-164.813
11
136.715
21
-164.812
0
LINE
8
BLACK
6
CONTINUOUS
10
136.715
20
-164.812
11
136.716
21
-164.812
0
LINE
8
BLACK
6
CONTINUOUS
10
136.716
20
-164.812
11
136.716
21
-164.811
0
LINE
8
BLACK
6
CONTINUOUS
10
136.716
20
-164.811
11
136.716
21
-164.811
0
LINE
8
BLACK
6
CONTINUOUS
10
136.716
20
-164.811
11
136.717
21
-164.811
0
LINE
8
BLACK
6
CONTINUOUS
10
136.717
20
-164.811
11
136.719
21
-164.81
0
LINE
8
BLACK
6
CONTINUOUS
10
136.719
20
-164.81
11
136.719
21
-164.81
0
LINE
8
BLACK
6
CONTINUOUS
10
136.719
20
-164.81
11
146.763
21
-160.061
0
LINE
8
BLACK
6
CONTINUOUS
10
146.763
20
-160.061
11
146.764
21
-160.061
0
LINE
8
BLACK
6
CONTINUOUS
10
146.764
20
-160.061
11
146.764
21
-160.061
0
LINE
8
BLACK
6
CONTINUOUS
10
146.764
20
-160.061
11
146.764
21
-160.06
0
LINE
8
BLACK
6
CONTINUOUS
10
146.764
20
-160.06
11
146.765
21
-160.06
0
LINE
8
BLACK
6
CONTINUOUS
10
146.765
20
-160.06
11
164.479
21
-153.139
0
LINE
8
BLACK
6
CONTINUOUS
10
164.479
20
-153.139
11
164.48
21
-153.139
0
LINE
8
BLACK
6
CONTINUOUS
10
164.48
20
-153.139
11
164.482
21
-153.139
0
LINE
8
BLACK
6
CONTINUOUS
10
164.482
20
-153.139
11
164.482
21
-153.138
0
LINE
8
BLACK
6
CONTINUOUS
10
164.482
20
-153.138
11
164.483
21
-153.138
0
LINE
8
BLACK
6
CONTINUOUS
10
164.483
20
-153.138
11
164.485
21
-153.138
0
LINE
8
BLACK
6
CONTINUOUS
10
164.485
20
-153.138
11
164.485
21
-153.137
0
LINE
8
BLACK
6
CONTINUOUS
10
164.485
20
-153.137
11
164.486
21
-153.137
0
LINE
8
BLACK
6
CONTINUOUS
10
164.486
20
-153.137
11
164.488
21
-153.137
0
LINE
8
BLACK
6
CONTINUOUS
10
164.488
20
-153.137
11
164.488
21
-153.137
0
LINE
8
BLACK
6
CONTINUOUS
10
164.488
20
-153.137
11
164.489
21
-153.137
0
LINE
8
BLACK
6
CONTINUOUS
10
164.489
20
-153.137
11
164.491
21
-153.137
0
LINE
8
BLACK
6
CONTINUOUS
10
164.491
20
-153.137
11
164.491
21
-153.137
0
LINE
8
BLACK
6
CONTINUOUS
10
164.491
20
-153.137
11
182.523
21
-152.439
0
LINE
8
BLACK
6
CONTINUOUS
10
182.523
20
-152.439
11
182.523
21
-152.439
0
LINE
8
BLACK
6
CONTINUOUS
10
182.523
20
-152.439
11
182.524
21
-152.439
0
LINE
8
BLACK
6
CONTINUOUS
10
182.524
20
-152.439
11
182.525
21
-152.438
0
LINE
8
BLACK
6
CONTINUOUS
10
182.525
20
-152.438
11
182.525
21
-152.439
0
LINE
8
BLACK
6
CONTINUOUS
10
182.525
20
-152.439
11
187.908
21
-152.439
0
LINE
8
BLACK
6
CONTINUOUS
10
187.908
20
-152.439
11
187.909
21
-152.438
0
LINE
8
BLACK
6
CONTINUOUS
10
187.909
20
-152.438
11
187.91
21
-152.439
0
LINE
8
BLACK
6
CONTINUOUS
10
187.91
20
-152.439
11
187.914
21
-152.439
0
LINE
8
BLACK
6
CONTINUOUS
10
187.914
20
-152.439
11
187.919
21
-152.44
0
LINE
8
BLACK
6
CONTINUOUS
10
187.919
20
-152.44
11
187.923
21
-152.443
0
LINE
8
BLACK
6
CONTINUOUS
10
187.923
20
-152.443
11
187.927
21
-152.446
0
LINE
8
BLACK
6
CONTINUOUS
10
187.927
20
-152.446
11
187.93
21
-152.45
0
LINE
8
BLACK
6
CONTINUOUS
10
187.93
20
-152.45
11
187.932
21
-152.454
0
LINE
8
BLACK
6
CONTINUOUS
10
187.932
20
-152.454
11
187.934
21
-152.459
0
LINE
8
BLACK
6
CONTINUOUS
10
187.934
20
-152.459
11
187.934
21
-152.463
0
LINE
8
BLACK
6
CONTINUOUS
10
187.934
20
-152.463
11
187.934
21
-152.465
0
LINE
8
BLACK
6
CONTINUOUS
10
187.934
20
-152.465
11
187.934
21
-154.192
0
LINE
8
BLACK
6
CONTINUOUS
10
187.934
20
-154.192
11
187.956
21
-154.631
0
LINE
8
BLACK
6
CONTINUOUS
10
187.956
20
-154.631
11
188.119
21
-155.468
0
LINE
8
BLACK
6
CONTINUOUS
10
188.119
20
-155.468
11
188.438
21
-156.259
0
LINE
8
BLACK
6
CONTINUOUS
10
188.438
20
-156.259
11
188.901
21
-156.976
0
LINE
8
BLACK
6
CONTINUOUS
10
188.901
20
-156.976
11
189.49
21
-157.592
0
LINE
8
BLACK
6
CONTINUOUS
10
189.49
20
-157.592
11
190.186
21
-158.085
0
LINE
8
BLACK
6
CONTINUOUS
10
190.186
20
-158.085
11
190.963
21
-158.438
0
LINE
8
BLACK
6
CONTINUOUS
10
190.963
20
-158.438
11
191.792
21
-158.638
0
LINE
8
BLACK
6
CONTINUOUS
10
191.792
20
-158.638
11
192.644
21
-158.678
0
LINE
8
BLACK
6
CONTINUOUS
10
192.644
20
-158.678
11
193.488
21
-158.555
0
LINE
8
BLACK
6
CONTINUOUS
10
193.488
20
-158.555
11
194.294
21
-158.276
0
LINE
8
BLACK
6
CONTINUOUS
10
194.294
20
-158.276
11
195.032
21
-157.848
0
LINE
8
BLACK
6
CONTINUOUS
10
195.032
20
-157.848
11
195.676
21
-157.289
0
LINE
8
BLACK
6
CONTINUOUS
10
195.676
20
-157.289
11
196.203
21
-156.619
0
LINE
8
BLACK
6
CONTINUOUS
10
196.203
20
-156.619
11
196.593
21
-155.86
0
LINE
8
BLACK
6
CONTINUOUS
10
196.593
20
-155.86
11
196.833
21
-155.042
0
LINE
8
BLACK
6
CONTINUOUS
10
196.833
20
-155.042
11
196.915
21
-154.192
0
LINE
8
BLACK
6
CONTINUOUS
10
196.915
20
-154.192
11
196.915
21
-152.465
0
LINE
8
BLACK
6
CONTINUOUS
10
196.915
20
-152.465
11
196.914
21
-152.463
0
LINE
8
BLACK
6
CONTINUOUS
10
196.914
20
-152.463
11
196.915
21
-152.459
0
LINE
8
BLACK
6
CONTINUOUS
10
196.915
20
-152.459
11
196.916
21
-152.454
0
LINE
8
BLACK
6
CONTINUOUS
10
196.916
20
-152.454
11
196.919
21
-152.45
0
LINE
8
BLACK
6
CONTINUOUS
10
196.919
20
-152.45
11
196.922
21
-152.446
0
LINE
8
BLACK
6
CONTINUOUS
10
196.922
20
-152.446
11
196.926
21
-152.443
0
LINE
8
BLACK
6
CONTINUOUS
10
196.926
20
-152.443
11
196.93
21
-152.44
0
LINE
8
BLACK
6
CONTINUOUS
10
196.93
20
-152.44
11
196.935
21
-152.439
0
LINE
8
BLACK
6
CONTINUOUS
10
196.935
20
-152.439
11
196.938
21
-152.439
0
LINE
8
BLACK
6
CONTINUOUS
10
196.938
20
-152.439
11
196.938
21
-152.439
0
LINE
8
BLACK
6
CONTINUOUS
10
196.938
20
-152.439
11
196.94
21
-152.438
0
LINE
8
BLACK
6
CONTINUOUS
10
196.94
20
-152.438
11
196.941
21
-152.439
0
LINE
8
BLACK
6
CONTINUOUS
10
196.941
20
-152.439
11
199.036
21
-152.439
0
LINE
8
BLACK
6
CONTINUOUS
10
199.036
20
-152.439
11
199.037
21
-152.439
0
LINE
8
BLACK
6
CONTINUOUS
10
199.037
20
-152.439
11
199.037
21
-152.439
0
LINE
8
BLACK
6
CONTINUOUS
10
199.037
20
-152.439
11
199.308
21
-152.465
0
LINE
8
BLACK
6
CONTINUOUS
10
199.308
20
-152.465
11
199.309
21
-152.465
0
LINE
8
BLACK
6
CONTINUOUS
10
199.309
20
-152.465
11
199.311
21
-152.466
0
LINE
8
BLACK
6
CONTINUOUS
10
199.311
20
-152.466
11
199.313
21
-152.466
0
LINE
8
BLACK
6
CONTINUOUS
10
199.313
20
-152.466
11
199.574
21
-152.545
0
LINE
8
BLACK
6
CONTINUOUS
10
199.574
20
-152.545
11
199.574
21
-152.545
0
LINE
8
BLACK
6
CONTINUOUS
10
199.574
20
-152.545
11
199.576
21
-152.546
0
LINE
8
BLACK
6
CONTINUOUS
10
199.576
20
-152.546
11
199.578
21
-152.547
0
LINE
8
BLACK
6
CONTINUOUS
10
199.578
20
-152.547
11
199.819
21
-152.675
0
LINE
8
BLACK
6
CONTINUOUS
10
199.819
20
-152.675
11
199.82
21
-152.675
0
LINE
8
BLACK
6
CONTINUOUS
10
199.82
20
-152.675
11
199.821
21
-152.676
0
LINE
8
BLACK
6
CONTINUOUS
10
199.821
20
-152.676
11
199.823
21
-152.678
0
LINE
8
BLACK
6
CONTINUOUS
10
199.823
20
-152.678
11
200.035
21
-152.85
0
LINE
8
BLACK
6
CONTINUOUS
10
200.035
20
-152.85
11
200.035
21
-152.85
0
LINE
8
BLACK
6
CONTINUOUS
10
200.035
20
-152.85
11
200.035
21
-152.85
0
LINE
8
BLACK
6
CONTINUOUS
10
200.035
20
-152.85
11
200.035
21
-152.85
0
LINE
8
BLACK
6
CONTINUOUS
10
200.035
20
-152.85
11
200.036
21
-152.852
0
LINE
8
BLACK
6
CONTINUOUS
10
200.036
20
-152.852
11
200.038
21
-152.853
0
LINE
8
BLACK
6
CONTINUOUS
10
200.038
20
-152.853
11
200.212
21
-153.063
0
LINE
8
BLACK
6
CONTINUOUS
10
200.212
20
-153.063
11
200.212
21
-153.064
0
LINE
8
BLACK
6
CONTINUOUS
10
200.212
20
-153.064
11
200.213
21
-153.066
0
LINE
8
BLACK
6
CONTINUOUS
10
200.213
20
-153.066
11
200.215
21
-153.067
0
LINE
8
BLACK
6
CONTINUOUS
10
200.215
20
-153.067
11
200.344
21
-153.307
0
LINE
8
BLACK
6
CONTINUOUS
10
200.344
20
-153.307
11
200.344
21
-153.307
0
LINE
8
BLACK
6
CONTINUOUS
10
200.344
20
-153.307
11
200.344
21
-153.307
0
LINE
8
BLACK
6
CONTINUOUS
10
200.344
20
-153.307
11
200.344
21
-153.308
0
LINE
8
BLACK
6
CONTINUOUS
10
200.344
20
-153.308
11
200.345
21
-153.31
0
LINE
8
BLACK
6
CONTINUOUS
10
200.345
20
-153.31
11
200.346
21
-153.312
0
LINE
8
BLACK
6
CONTINUOUS
10
200.346
20
-153.312
11
200.427
21
-153.572
0
LINE
8
BLACK
6
CONTINUOUS
10
200.427
20
-153.572
11
200.427
21
-153.573
0
LINE
8
BLACK
6
CONTINUOUS
10
200.427
20
-153.573
11
200.427
21
-153.575
0
LINE
8
BLACK
6
CONTINUOUS
10
200.427
20
-153.575
11
200.428
21
-153.577
0
LINE
8
BLACK
6
CONTINUOUS
10
200.428
20
-153.577
11
200.456
21
-153.848
0
LINE
8
BLACK
6
CONTINUOUS
10
200.456
20
-153.848
11
200.456
21
-153.848
0
LINE
8
BLACK
6
CONTINUOUS
10
200.456
20
-153.848
11
200.456
21
-153.85
0
LINE
8
BLACK
6
CONTINUOUS
10
200.456
20
-153.85
11
200.456
21
-153.851
0
LINE
8
BLACK
6
CONTINUOUS
10
200.456
20
-153.851
11
200.456
21
-153.859
0
LINE
8
BLACK
6
CONTINUOUS
10
200.456
20
-153.859
11
200.456
21
-153.859
0
LINE
8
BLACK
6
CONTINUOUS
10
200.456
20
-153.859
11
200.456
21
-155.829
0
LINE
8
BLACK
6
CONTINUOUS
10
200.456
20
-155.829
11
200.456
21
-155.837
0
LINE
8
BLACK
6
CONTINUOUS
10
200.456
20
-155.837
11
200.485
21
-156.105
0
LINE
8
BLACK
6
CONTINUOUS
10
200.485
20
-156.105
11
200.564
21
-156.361
0
LINE
8
BLACK
6
CONTINUOUS
10
200.564
20
-156.361
11
200.691
21
-156.596
0
LINE
8
BLACK
6
CONTINUOUS
10
200.691
20
-156.596
11
200.862
21
-156.802
0
LINE
8
BLACK
6
CONTINUOUS
10
200.862
20
-156.802
11
201.069
21
-156.972
0
LINE
8
BLACK
6
CONTINUOUS
10
201.069
20
-156.972
11
201.306
21
-157.097
0
LINE
8
BLACK
6
CONTINUOUS
10
201.306
20
-157.097
11
201.562
21
-157.175
0
LINE
8
BLACK
6
CONTINUOUS
10
201.562
20
-157.175
11
201.83
21
-157.201
0
LINE
8
BLACK
6
CONTINUOUS
10
201.83
20
-157.201
11
250.152
21
-157.201
0
LINE
8
BLACK
6
CONTINUOUS
10
250.152
20
-157.201
11
250.16
21
-157.201
0
LINE
8
BLACK
6
CONTINUOUS
10
250.16
20
-157.201
11
250.428
21
-157.173
0
LINE
8
BLACK
6
CONTINUOUS
10
250.428
20
-157.173
11
250.684
21
-157.094
0
LINE
8
BLACK
6
CONTINUOUS
10
250.684
20
-157.094
11
250.919
21
-156.966
0
LINE
8
BLACK
6
CONTINUOUS
10
250.919
20
-156.966
11
251.125
21
-156.796
0
LINE
8
BLACK
6
CONTINUOUS
10
251.125
20
-156.796
11
251.295
21
-156.588
0
LINE
8
BLACK
6
CONTINUOUS
10
251.295
20
-156.588
11
251.42
21
-156.352
0
LINE
8
BLACK
6
CONTINUOUS
10
251.42
20
-156.352
11
251.498
21
-156.095
0
LINE
8
BLACK
6
CONTINUOUS
10
251.498
20
-156.095
11
251.524
21
-155.828
0
LINE
8
BLACK
6
CONTINUOUS
10
251.524
20
-155.828
11
251.524
21
-125.325
0
LINE
8
BLACK
6
CONTINUOUS
10
251.524
20
-125.325
11
251.524
21
-125.324
0
LINE
8
BLACK
6
CONTINUOUS
10
251.524
20
-125.324
11
251.524
21
-125.319
0
LINE
8
BLACK
6
CONTINUOUS
10
251.524
20
-125.319
11
251.526
21
-125.314
0
LINE
8
BLACK
6
CONTINUOUS
10
251.526
20
-125.314
11
251.528
21
-125.31
0
LINE
8
BLACK
6
CONTINUOUS
10
251.528
20
-125.31
11
251.531
21
-125.306
0
LINE
8
BLACK
6
CONTINUOUS
10
251.531
20
-125.306
11
251.535
21
-125.303
0
LINE
8
BLACK
6
CONTINUOUS
10
251.535
20
-125.303
11
251.539
21
-125.3
0
LINE
8
BLACK
6
CONTINUOUS
10
251.539
20
-125.3
11
251.544
21
-125.299
0
LINE
8
BLACK
6
CONTINUOUS
10
251.544
20
-125.299
11
251.548
21
-125.299
0
LINE
8
BLACK
6
CONTINUOUS
10
251.548
20
-125.299
11
251.549
21
-125.298
0
LINE
8
BLACK
6
CONTINUOUS
10
251.549
20
-125.298
11
251.55
21
-125.299
0
LINE
8
BLACK
6
CONTINUOUS
10
251.55
20
-125.299
11
253.278
21
-125.299
0
LINE
8
BLACK
6
CONTINUOUS
10
253.278
20
-125.299
11
253.716
21
-125.277
0
LINE
8
BLACK
6
CONTINUOUS
10
253.716
20
-125.277
11
254.554
21
-125.114
0
LINE
8
BLACK
6
CONTINUOUS
10
254.554
20
-125.114
11
255.345
21
-124.795
0
LINE
8
BLACK
6
CONTINUOUS
10
255.345
20
-124.795
11
256.061
21
-124.332
0
LINE
8
BLACK
6
CONTINUOUS
10
256.061
20
-124.332
11
256.677
21
-123.742
0
LINE
8
BLACK
6
CONTINUOUS
10
256.677
20
-123.742
11
257.171
21
-123.047
0
LINE
8
BLACK
6
CONTINUOUS
10
257.171
20
-123.047
11
257.524
21
-122.27
0
LINE
8
BLACK
6
CONTINUOUS
10
257.524
20
-122.27
11
257.724
21
-121.441
0
LINE
8
BLACK
6
CONTINUOUS
10
257.724
20
-121.441
11
257.763
21
-120.589
0
LINE
8
BLACK
6
CONTINUOUS
10
257.763
20
-120.589
11
257.641
21
-119.745
0
LINE
8
BLACK
6
CONTINUOUS
10
257.641
20
-119.745
11
257.361
21
-118.939
0
LINE
8
BLACK
6
CONTINUOUS
10
257.361
20
-118.939
11
256.934
21
-118.201
0
LINE
8
BLACK
6
CONTINUOUS
10
256.934
20
-118.201
11
256.375
21
-117.557
0
LINE
8
BLACK
6
CONTINUOUS
10
256.375
20
-117.557
11
255.704
21
-117.03
0
LINE
8
BLACK
6
CONTINUOUS
10
255.704
20
-117.03
11
254.946
21
-116.639
0
LINE
8
BLACK
6
CONTINUOUS
10
254.946
20
-116.639
11
254.127
21
-116.399
0
LINE
8
BLACK
6
CONTINUOUS
10
254.127
20
-116.399
11
253.277
21
-116.318
0
LINE
8
BLACK
6
CONTINUOUS
10
253.277
20
-116.318
11
251.55
21
-116.318
0
LINE
8
BLACK
6
CONTINUOUS
10
251.55
20
-116.318
11
251.549
21
-116.318
0
LINE
8
BLACK
6
CONTINUOUS
10
251.549
20
-116.318
11
251.544
21
-116.318
0
LINE
8
BLACK
6
CONTINUOUS
10
251.544
20
-116.318
11
251.539
21
-116.316
0
LINE
8
BLACK
6
CONTINUOUS
10
251.539
20
-116.316
11
251.535
21
-116.314
0
LINE
8
BLACK
6
CONTINUOUS
10
251.535
20
-116.314
11
251.531
21
-116.311
0
LINE
8
BLACK
6
CONTINUOUS
10
251.531
20
-116.311
11
251.528
21
-116.308
0
LINE
8
BLACK
6
CONTINUOUS
10
251.528
20
-116.308
11
251.528
21
-116.307
0
LINE
8
BLACK
6
CONTINUOUS
10
251.528
20
-116.307
11
251.526
21
-116.303
0
LINE
8
BLACK
6
CONTINUOUS
10
251.526
20
-116.303
11
251.524
21
-116.298
0
LINE
8
BLACK
6
CONTINUOUS
10
251.524
20
-116.298
11
251.524
21
-116.293
0
LINE
8
BLACK
6
CONTINUOUS
10
251.524
20
-116.293
11
251.524
21
-116.292
0
LINE
8
BLACK
6
CONTINUOUS
10
251.524
20
-116.292
11
251.524
21
-57.2771
0
LINE
8
BLACK
6
CONTINUOUS
10
251.524
20
-57.2771
11
251.524
21
-57.2771
0
LINE
8
BLACK
6
CONTINUOUS
10
251.524
20
-57.2771
11
251.524
21
-57.2686
0
LINE
8
BLACK
6
CONTINUOUS
10
251.524
20
-57.2686
11
251.496
21
-57.0011
0
LINE
8
BLACK
6
CONTINUOUS
10
251.496
20
-57.0011
11
251.417
21
-56.7454
0
LINE
8
BLACK
6
CONTINUOUS
10
251.417
20
-56.7454
11
251.289
21
-56.5099
0
LINE
8
BLACK
6
CONTINUOUS
10
251.289
20
-56.5099
11
251.119
21
-56.3036
0
LINE
8
BLACK
6
CONTINUOUS
10
251.119
20
-56.3036
11
250.911
21
-56.1343
0
LINE
8
BLACK
6
CONTINUOUS
10
250.911
20
-56.1343
11
250.675
21
-56.0086
0
LINE
8
BLACK
6
CONTINUOUS
10
250.675
20
-56.0086
11
250.418
21
-55.9312
0
LINE
8
BLACK
6
CONTINUOUS
10
250.418
20
-55.9312
11
250.151
21
-55.905
0
LINE
8
BLACK
6
CONTINUOUS
10
250.151
20
-55.905
11
240.323
21
-55.905
0
LINE
8
BLACK
6
CONTINUOUS
10
240.323
20
-55.905
11
240.322
21
-55.9051
0
LINE
8
BLACK
6
CONTINUOUS
10
240.322
20
-55.9051
11
240.321
21
-55.905
0
LINE
8
BLACK
6
CONTINUOUS
10
240.321
20
-55.905
11
240.321
21
-55.905
0
LINE
8
BLACK
6
CONTINUOUS
10
240.321
20
-55.905
11
240.317
21
-55.9046
0
LINE
8
BLACK
6
CONTINUOUS
10
240.317
20
-55.9046
11
240.312
21
-55.9032
0
LINE
8
BLACK
6
CONTINUOUS
10
240.312
20
-55.9032
11
240.308
21
-55.9009
0
LINE
8
BLACK
6
CONTINUOUS
10
240.308
20
-55.9009
11
240.304
21
-55.8978
0
LINE
8
BLACK
6
CONTINUOUS
10
240.304
20
-55.8978
11
240.301
21
-55.894
0
LINE
8
BLACK
6
CONTINUOUS
10
240.301
20
-55.894
11
240.299
21
-55.8896
0
LINE
8
BLACK
6
CONTINUOUS
10
240.299
20
-55.8896
11
240.297
21
-55.8849
0
LINE
8
BLACK
6
CONTINUOUS
10
240.297
20
-55.8849
11
240.297
21
-55.88
0
LINE
8
BLACK
6
CONTINUOUS
10
240.297
20
-55.88
11
240.297
21
-55.8788
0
LINE
8
BLACK
6
CONTINUOUS
10
240.297
20
-55.8788
11
240.297
21
-54.1511
0
LINE
8
BLACK
6
CONTINUOUS
10
240.297
20
-54.1511
11
240.276
21
-53.7129
0
LINE
8
BLACK
6
CONTINUOUS
10
240.276
20
-53.7129
11
240.112
21
-52.8752
0
LINE
8
BLACK
6
CONTINUOUS
10
240.112
20
-52.8752
11
239.793
21
-52.0842
0
LINE
8
BLACK
6
CONTINUOUS
10
239.793
20
-52.0842
11
239.331
21
-51.3677
0
LINE
8
BLACK
6
CONTINUOUS
10
239.331
20
-51.3677
11
238.741
21
-50.7515
0
LINE
8
BLACK
6
CONTINUOUS
10
238.741
20
-50.7515
11
238.045
21
-50.2581
0
LINE
8
BLACK
6
CONTINUOUS
10
238.045
20
-50.2581
11
237.269
21
-49.9051
0
LINE
8
BLACK
6
CONTINUOUS
10
237.269
20
-49.9051
11
236.44
21
-49.7052
0
LINE
8
BLACK
6
CONTINUOUS
10
236.44
20
-49.7052
11
235.588
21
-49.6658
0
LINE
8
BLACK
6
CONTINUOUS
10
235.588
20
-49.6658
11
234.743
21
-49.7882
0
LINE
8
BLACK
6
CONTINUOUS
10
234.743
20
-49.7882
11
233.938
21
-50.068
0
LINE
8
BLACK
6
CONTINUOUS
10
233.938
20
-50.068
11
233.2
21
-50.4951
0
LINE
8
BLACK
6
CONTINUOUS
10
233.2
20
-50.4951
11
232.555
21
-51.0541
0
LINE
8
BLACK
6
CONTINUOUS
10
232.555
20
-51.0541
11
232.028
21
-51.7248
0
LINE
8
BLACK
6
CONTINUOUS
10
232.028
20
-51.7248
11
231.638
21
-52.483
0
LINE
8
BLACK
6
CONTINUOUS
10
231.638
20
-52.483
11
231.398
21
-53.3014
0
LINE
8
BLACK
6
CONTINUOUS
10
231.398
20
-53.3014
11
231.317
21
-54.1517
0
LINE
8
BLACK
6
CONTINUOUS
10
231.317
20
-54.1517
11
231.317
21
-55.8788
0
LINE
8
BLACK
6
CONTINUOUS
10
231.317
20
-55.8788
11
231.317
21
-55.88
0
LINE
8
BLACK
6
CONTINUOUS
10
231.317
20
-55.88
11
231.316
21
-55.8849
0
LINE
8
BLACK
6
CONTINUOUS
10
231.316
20
-55.8849
11
231.315
21
-55.8896
0
LINE
8
BLACK
6
CONTINUOUS
10
231.315
20
-55.8896
11
231.313
21
-55.894
0
LINE
8
BLACK
6
CONTINUOUS
10
231.313
20
-55.894
11
231.309
21
-55.8978
0
LINE
8
BLACK
6
CONTINUOUS
10
231.309
20
-55.8978
11
231.306
21
-55.9009
0
LINE
8
BLACK
6
CONTINUOUS
10
231.306
20
-55.9009
11
231.301
21
-55.9032
0
LINE
8
BLACK
6
CONTINUOUS
10
231.301
20
-55.9032
11
231.297
21
-55.9046
0
LINE
8
BLACK
6
CONTINUOUS
10
231.297
20
-55.9046
11
231.295
21
-55.9048
0
LINE
8
BLACK
6
CONTINUOUS
10
231.295
20
-55.9048
11
231.292
21
-55.9051
0
LINE
8
BLACK
6
CONTINUOUS
10
231.292
20
-55.9051
11
231.291
21
-55.905
0
LINE
8
BLACK
6
CONTINUOUS
10
231.291
20
-55.905
11
205.764
21
-55.905
0
LINE
8
BLACK
6
CONTINUOUS
10
205.764
20
-55.905
11
205.763
21
-55.9049
0
LINE
8
BLACK
6
CONTINUOUS
10
205.763
20
-55.9049
11
205.763
21
-55.9049
0
LINE
8
BLACK
6
CONTINUOUS
10
205.763
20
-55.9049
11
205.492
21
-55.8783
0
LINE
8
BLACK
6
CONTINUOUS
10
205.492
20
-55.8783
11
205.491
21
-55.8782
0
LINE
8
BLACK
6
CONTINUOUS
10
205.491
20
-55.8782
11
205.489
21
-55.8778
0
LINE
8
BLACK
6
CONTINUOUS
10
205.489
20
-55.8778
11
205.487
21
-55.8773
0
LINE
8
BLACK
6
CONTINUOUS
10
205.487
20
-55.8773
11
205.226
21
-55.7985
0
LINE
8
BLACK
6
CONTINUOUS
10
205.226
20
-55.7985
11
205.225
21
-55.7984
0
LINE
8
BLACK
6
CONTINUOUS
10
205.225
20
-55.7984
11
205.223
21
-55.7975
0
LINE
8
BLACK
6
CONTINUOUS
10
205.223
20
-55.7975
11
205.221
21
-55.7967
0
LINE
8
BLACK
6
CONTINUOUS
10
205.221
20
-55.7967
11
204.981
21
-55.6687
0
LINE
8
BLACK
6
CONTINUOUS
10
204.981
20
-55.6687
11
204.98
21
-55.6685
0
LINE
8
BLACK
6
CONTINUOUS
10
204.98
20
-55.6685
11
204.978
21
-55.6672
0
LINE
8
BLACK
6
CONTINUOUS
10
204.978
20
-55.6672
11
204.977
21
-55.666
0
LINE
8
BLACK
6
CONTINUOUS
10
204.977
20
-55.666
11
204.765
21
-55.4936
0
LINE
8
BLACK
6
CONTINUOUS
10
204.765
20
-55.4936
11
204.765
21
-55.4934
0
LINE
8
BLACK
6
CONTINUOUS
10
204.765
20
-55.4934
11
204.763
21
-55.4918
0
LINE
8
BLACK
6
CONTINUOUS
10
204.763
20
-55.4918
11
204.762
21
-55.4902
0
LINE
8
BLACK
6
CONTINUOUS
10
204.762
20
-55.4902
11
204.588
21
-55.2801
0
LINE
8
BLACK
6
CONTINUOUS
10
204.588
20
-55.2801
11
204.588
21
-55.2799
0
LINE
8
BLACK
6
CONTINUOUS
10
204.588
20
-55.2799
11
204.587
21
-55.278
0
LINE
8
BLACK
6
CONTINUOUS
10
204.587
20
-55.278
11
204.585
21
-55.2761
0
LINE
8
BLACK
6
CONTINUOUS
10
204.585
20
-55.2761
11
204.456
21
-55.0362
0
LINE
8
BLACK
6
CONTINUOUS
10
204.456
20
-55.0362
11
204.455
21
-55.0359
0
LINE
8
BLACK
6
CONTINUOUS
10
204.455
20
-55.0359
11
204.455
21
-55.0338
0
LINE
8
BLACK
6
CONTINUOUS
10
204.455
20
-55.0338
11
204.454
21
-55.0318
0
LINE
8
BLACK
6
CONTINUOUS
10
204.454
20
-55.0318
11
204.373
21
-54.7713
0
LINE
8
BLACK
6
CONTINUOUS
10
204.373
20
-54.7713
11
204.373
21
-54.771
0
LINE
8
BLACK
6
CONTINUOUS
10
204.373
20
-54.771
11
204.373
21
-54.7687
0
LINE
8
BLACK
6
CONTINUOUS
10
204.373
20
-54.7687
11
204.372
21
-54.7665
0
LINE
8
BLACK
6
CONTINUOUS
10
204.372
20
-54.7665
11
204.344
21
-54.4954
0
LINE
8
BLACK
6
CONTINUOUS
10
204.344
20
-54.4954
11
204.344
21
-54.495
0
LINE
8
BLACK
6
CONTINUOUS
10
204.344
20
-54.495
11
204.344
21
-54.4939
0
LINE
8
BLACK
6
CONTINUOUS
10
204.344
20
-54.4939
11
204.343
21
-54.4928
0
LINE
8
BLACK
6
CONTINUOUS
10
204.343
20
-54.4928
11
204.343
21
-54.4842
0
LINE
8
BLACK
6
CONTINUOUS
10
204.343
20
-54.4842
11
204.343
21
-54.4842
0
LINE
8
BLACK
6
CONTINUOUS
10
204.343
20
-54.4842
11
204.343
21
-54.4834
0
LINE
8
BLACK
6
CONTINUOUS
10
204.343
20
-54.4834
11
204.343
21
-54.4831
0
LINE
8
BLACK
6
CONTINUOUS
10
204.343
20
-54.4831
11
204.343
21
-54.4827
0
LINE
8
BLACK
6
CONTINUOUS
10
204.343
20
-54.4827
11
204.343
21
-52.5146
0
LINE
8
BLACK
6
CONTINUOUS
10
204.343
20
-52.5146
11
204.343
21
-52.5061
0
LINE
8
BLACK
6
CONTINUOUS
10
204.343
20
-52.5061
11
204.315
21
-52.2386
0
LINE
8
BLACK
6
CONTINUOUS
10
204.315
20
-52.2386
11
204.236
21
-51.9829
0
LINE
8
BLACK
6
CONTINUOUS
10
204.236
20
-51.9829
11
204.109
21
-51.7474
0
LINE
8
BLACK
6
CONTINUOUS
10
204.109
20
-51.7474
11
203.938
21
-51.5411
0
LINE
8
BLACK
6
CONTINUOUS
10
203.938
20
-51.5411
11
203.731
21
-51.3718
0
LINE
8
BLACK
6
CONTINUOUS
10
203.731
20
-51.3718
11
203.494
21
-51.2461
0
LINE
8
BLACK
6
CONTINUOUS
10
203.494
20
-51.2461
11
203.238
21
-51.1687
0
LINE
8
BLACK
6
CONTINUOUS
10
203.238
20
-51.1687
11
202.97
21
-51.1425
0
LINE
8
BLACK
6
CONTINUOUS
10
202.97
20
-51.1425
11
186.714
21
-51.1425
0
LINE
8
BLACK
6
CONTINUOUS
10
186.714
20
-51.1425
11
186.713
21
-51.1424
0
LINE
8
BLACK
6
CONTINUOUS
10
186.713
20
-51.1424
11
186.713
21
-51.1424
0
LINE
8
BLACK
6
CONTINUOUS
10
186.713
20
-51.1424
11
186.442
21
-51.1158
0
LINE
8
BLACK
6
CONTINUOUS
10
186.442
20
-51.1158
11
186.441
21
-51.1157
0
LINE
8
BLACK
6
CONTINUOUS
10
186.441
20
-51.1157
11
186.439
21
-51.1153
0
LINE
8
BLACK
6
CONTINUOUS
10
186.439
20
-51.1153
11
186.437
21
-51.1148
0
LINE
8
BLACK
6
CONTINUOUS
10
186.437
20
-51.1148
11
186.176
21
-51.036
0
LINE
8
BLACK
6
CONTINUOUS
10
186.176
20
-51.036
11
186.175
21
-51.0359
0
LINE
8
BLACK
6
CONTINUOUS
10
186.175
20
-51.0359
11
186.173
21
-51.035
0
LINE
8
BLACK
6
CONTINUOUS
10
186.173
20
-51.035
11
186.171
21
-51.0342
0
LINE
8
BLACK
6
CONTINUOUS
10
186.171
20
-51.0342
11
185.931
21
-50.9062
0
LINE
8
BLACK
6
CONTINUOUS
10
185.931
20
-50.9062
11
185.93
21
-50.906
0
LINE
8
BLACK
6
CONTINUOUS
10
185.93
20
-50.906
11
185.928
21
-50.9047
0
LINE
8
BLACK
6
CONTINUOUS
10
185.928
20
-50.9047
11
185.927
21
-50.9035
0
LINE
8
BLACK
6
CONTINUOUS
10
185.927
20
-50.9035
11
185.715
21
-50.7311
0
LINE
8
BLACK
6
CONTINUOUS
10
185.715
20
-50.7311
11
185.715
21
-50.7309
0
LINE
8
BLACK
6
CONTINUOUS
10
185.715
20
-50.7309
11
185.713
21
-50.7293
0
LINE
8
BLACK
6
CONTINUOUS
10
185.713
20
-50.7293
11
185.712
21
-50.7277
0
LINE
8
BLACK
6
CONTINUOUS
10
185.712
20
-50.7277
11
185.538
21
-50.5176
0
LINE
8
BLACK
6
CONTINUOUS
10
185.538
20
-50.5176
11
185.538
21
-50.5174
0
LINE
8
BLACK
6
CONTINUOUS
10
185.538
20
-50.5174
11
185.537
21
-50.5155
0
LINE
8
BLACK
6
CONTINUOUS
10
185.537
20
-50.5155
11
185.535
21
-50.5136
0
LINE
8
BLACK
6
CONTINUOUS
10
185.535
20
-50.5136
11
185.406
21
-50.2737
0
LINE
8
BLACK
6
CONTINUOUS
10
185.406
20
-50.2737
11
185.405
21
-50.2734
0
LINE
8
BLACK
6
CONTINUOUS
10
185.405
20
-50.2734
11
185.405
21
-50.2713
0
LINE
8
BLACK
6
CONTINUOUS
10
185.405
20
-50.2713
11
185.404
21
-50.2693
0
LINE
8
BLACK
6
CONTINUOUS
10
185.404
20
-50.2693
11
185.323
21
-50.0088
0
LINE
8
BLACK
6
CONTINUOUS
10
185.323
20
-50.0088
11
185.323
21
-50.0085
0
LINE
8
BLACK
6
CONTINUOUS
10
185.323
20
-50.0085
11
185.323
21
-50.0062
0
LINE
8
BLACK
6
CONTINUOUS
10
185.323
20
-50.0062
11
185.322
21
-50.004
0
LINE
8
BLACK
6
CONTINUOUS
10
185.322
20
-50.004
11
185.294
21
-49.7329
0
LINE
8
BLACK
6
CONTINUOUS
10
185.294
20
-49.7329
11
185.294
21
-49.7325
0
LINE
8
BLACK
6
CONTINUOUS
10
185.294
20
-49.7325
11
185.294
21
-49.7314
0
LINE
8
BLACK
6
CONTINUOUS
10
185.294
20
-49.7314
11
185.293
21
-49.7303
0
LINE
8
BLACK
6
CONTINUOUS
10
185.293
20
-49.7303
11
185.293
21
-49.7217
0
LINE
8
BLACK
6
CONTINUOUS
10
185.293
20
-49.7217
11
185.293
21
-49.7217
0
LINE
8
BLACK
6
CONTINUOUS
10
185.293
20
-49.7217
11
185.293
21
-49.7207
0
LINE
8
BLACK
6
CONTINUOUS
10
185.293
20
-49.7207
11
185.293
21
-49.7206
0
LINE
8
BLACK
6
CONTINUOUS
10
185.293
20
-49.7206
11
185.293
21
-49.7202
0
LINE
8
BLACK
6
CONTINUOUS
10
185.293
20
-49.7202
11
185.293
21
-49.3396
0
LINE
8
BLACK
6
CONTINUOUS
10
185.293
20
-49.3396
11
185.293
21
-49.3369
0
LINE
8
BLACK
6
CONTINUOUS
10
185.293
20
-49.3369
11
185.282
21
-49.2296
0
LINE
8
BLACK
6
CONTINUOUS
10
185.282
20
-49.2296
11
185.251
21
-49.1278
0
LINE
8
BLACK
6
CONTINUOUS
10
185.251
20
-49.1278
11
185.2
21
-49.034
0
LINE
8
BLACK
6
CONTINUOUS
10
185.2
20
-49.034
11
185.132
21
-48.9518
0
LINE
8
BLACK
6
CONTINUOUS
10
185.132
20
-48.9518
11
185.049
21
-48.8844
0
LINE
8
BLACK
6
CONTINUOUS
10
185.049
20
-48.8844
11
184.955
21
-48.8343
0
LINE
8
BLACK
6
CONTINUOUS
10
184.955
20
-48.8343
11
184.853
21
-48.8035
0
LINE
8
BLACK
6
CONTINUOUS
10
184.853
20
-48.8035
11
184.746
21
-48.793
0
LINE
8
BLACK
6
CONTINUOUS
10
184.746
20
-48.793
11
162.903
21
-48.793
0
LINE
8
BLACK
6
CONTINUOUS
10
162.903
20
-48.793
11
162.9
21
-48.793
0
LINE
8
BLACK
6
CONTINUOUS
10
162.9
20
-48.793
11
162.793
21
-48.8043
0
LINE
8
BLACK
6
CONTINUOUS
10
162.793
20
-48.8043
11
162.691
21
-48.8358
0
LINE
8
BLACK
6
CONTINUOUS
10
162.691
20
-48.8358
11
162.597
21
-48.8865
0
LINE
8
BLACK
6
CONTINUOUS
10
162.597
20
-48.8865
11
162.515
21
-48.9545
0
LINE
8
BLACK
6
CONTINUOUS
10
162.515
20
-48.9545
11
162.448
21
-49.0371
0
LINE
8
BLACK
6
CONTINUOUS
10
162.448
20
-49.0371
11
162.398
21
-49.1313
0
LINE
8
BLACK
6
CONTINUOUS
10
162.398
20
-49.1313
11
162.367
21
-49.2334
0
LINE
8
BLACK
6
CONTINUOUS
10
162.367
20
-49.2334
11
162.356
21
-49.3407
0
LINE
8
BLACK
6
CONTINUOUS
10
162.356
20
-49.3407
11
162.356
21
-49.6582
0
LINE
8
BLACK
6
CONTINUOUS
10
162.356
20
-49.6582
11
162.356
21
-49.6594
0
LINE
8
BLACK
6
CONTINUOUS
10
162.356
20
-49.6594
11
162.356
21
-49.6594
0
LINE
8
BLACK
6
CONTINUOUS
10
162.356
20
-49.6594
11
162.33
21
-49.9308
0
LINE
8
BLACK
6
CONTINUOUS
10
162.33
20
-49.9308
11
162.33
21
-49.9311
0
LINE
8
BLACK
6
CONTINUOUS
10
162.33
20
-49.9311
11
162.329
21
-49.9334
0
LINE
8
BLACK
6
CONTINUOUS
10
162.329
20
-49.9334
11
162.329
21
-49.9356
0
LINE
8
BLACK
6
CONTINUOUS
10
162.329
20
-49.9356
11
162.25
21
-50.1966
0
LINE
8
BLACK
6
CONTINUOUS
10
162.25
20
-50.1966
11
162.25
21
-50.1969
0
LINE
8
BLACK
6
CONTINUOUS
10
162.25
20
-50.1969
11
162.249
21
-50.199
0
LINE
8
BLACK
6
CONTINUOUS
10
162.249
20
-50.199
11
162.248
21
-50.2011
0
LINE
8
BLACK
6
CONTINUOUS
10
162.248
20
-50.2011
11
162.12
21
-50.4418
0
LINE
8
BLACK
6
CONTINUOUS
10
162.12
20
-50.4418
11
162.12
21
-50.4421
0
LINE
8
BLACK
6
CONTINUOUS
10
162.12
20
-50.4421
11
162.119
21
-50.444
0
LINE
8
BLACK
6
CONTINUOUS
10
162.119
20
-50.444
11
162.117
21
-50.4459
0
LINE
8
BLACK
6
CONTINUOUS
10
162.117
20
-50.4459
11
161.945
21
-50.6572
0
LINE
8
BLACK
6
CONTINUOUS
10
161.945
20
-50.6572
11
161.945
21
-50.6574
0
LINE
8
BLACK
6
CONTINUOUS
10
161.945
20
-50.6574
11
161.943
21
-50.6591
0
LINE
8
BLACK
6
CONTINUOUS
10
161.943
20
-50.6591
11
161.942
21
-50.6606
0
LINE
8
BLACK
6
CONTINUOUS
10
161.942
20
-50.6606
11
161.732
21
-50.8344
0
LINE
8
BLACK
6
CONTINUOUS
10
161.732
20
-50.8344
11
161.731
21
-50.8346
0
LINE
8
BLACK
6
CONTINUOUS
10
161.731
20
-50.8346
11
161.729
21
-50.8359
0
LINE
8
BLACK
6
CONTINUOUS
10
161.729
20
-50.8359
11
161.727
21
-50.8372
0
LINE
8
BLACK
6
CONTINUOUS
10
161.727
20
-50.8372
11
161.488
21
-50.9668
0
LINE
8
BLACK
6
CONTINUOUS
10
161.488
20
-50.9668
11
161.487
21
-50.967
0
LINE
8
BLACK
6
CONTINUOUS
10
161.487
20
-50.967
11
161.485
21
-50.9679
0
LINE
8
BLACK
6
CONTINUOUS
10
161.485
20
-50.9679
11
161.483
21
-50.9687
0
LINE
8
BLACK
6
CONTINUOUS
10
161.483
20
-50.9687
11
161.223
21
-51.0493
0
LINE
8
BLACK
6
CONTINUOUS
10
161.223
20
-51.0493
11
161.222
21
-51.0495
0
LINE
8
BLACK
6
CONTINUOUS
10
161.222
20
-51.0495
11
161.22
21
-51.0499
0
LINE
8
BLACK
6
CONTINUOUS
10
161.22
20
-51.0499
11
161.218
21
-51.0503
0
LINE
8
BLACK
6
CONTINUOUS
10
161.218
20
-51.0503
11
160.947
21
-51.0788
0
LINE
8
BLACK
6
CONTINUOUS
10
160.947
20
-51.0788
11
160.946
21
-51.0789
0
LINE
8
BLACK
6
CONTINUOUS
10
160.946
20
-51.0789
11
160.945
21
-51.0789
0
LINE
8
BLACK
6
CONTINUOUS
10
160.945
20
-51.0789
11
160.944
21
-51.079
0
LINE
8
BLACK
6
CONTINUOUS
10
160.944
20
-51.079
11
160.936
21
-51.079
0
LINE
8
BLACK
6
CONTINUOUS
10
160.936
20
-51.079
11
160.936
21
-51.079
0
LINE
8
BLACK
6
CONTINUOUS
10
160.936
20
-51.079
11
143.853
21
-51.079
0
LINE
8
BLACK
6
CONTINUOUS
10
143.853
20
-51.079
11
143.85
21
-51.079
0
LINE
8
BLACK
6
CONTINUOUS
10
143.85
20
-51.079
11
143.743
21
-51.0903
0
LINE
8
BLACK
6
CONTINUOUS
10
143.743
20
-51.0903
11
143.641
21
-51.1218
0
LINE
8
BLACK
6
CONTINUOUS
10
143.641
20
-51.1218
11
143.547
21
-51.1725
0
LINE
8
BLACK
6
CONTINUOUS
10
143.547
20
-51.1725
11
143.465
21
-51.2405
0
LINE
8
BLACK
6
CONTINUOUS
10
143.465
20
-51.2405
11
143.398
21
-51.3231
0
LINE
8
BLACK
6
CONTINUOUS
10
143.398
20
-51.3231
11
143.348
21
-51.4173
0
LINE
8
BLACK
6
CONTINUOUS
10
143.348
20
-51.4173
11
143.317
21
-51.5194
0
LINE
8
BLACK
6
CONTINUOUS
10
143.317
20
-51.5194
11
143.306
21
-51.6267
0
LINE
8
BLACK
6
CONTINUOUS
10
143.306
20
-51.6267
11
143.306
21
-52.1347
0
LINE
8
BLACK
6
CONTINUOUS
10
143.306
20
-52.1347
11
143.306
21
-52.1359
0
LINE
8
BLACK
6
CONTINUOUS
10
143.306
20
-52.1359
11
143.306
21
-52.1359
0
LINE
8
BLACK
6
CONTINUOUS
10
143.306
20
-52.1359
11
143.28
21
-52.4073
0
LINE
8
BLACK
6
CONTINUOUS
10
143.28
20
-52.4073
11
143.28
21
-52.4076
0
LINE
8
BLACK
6
CONTINUOUS
10
143.28
20
-52.4076
11
143.279
21
-52.4099
0
LINE
8
BLACK
6
CONTINUOUS
10
143.279
20
-52.4099
11
143.279
21
-52.4121
0
LINE
8
BLACK
6
CONTINUOUS
10
143.279
20
-52.4121
11
143.2
21
-52.6731
0
LINE
8
BLACK
6
CONTINUOUS
10
143.2
20
-52.6731
11
143.2
21
-52.6734
0
LINE
8
BLACK
6
CONTINUOUS
10
143.2
20
-52.6734
11
143.199
21
-52.6755
0
LINE
8
BLACK
6
CONTINUOUS
10
143.199
20
-52.6755
11
143.198
21
-52.6776
0
LINE
8
BLACK
6
CONTINUOUS
10
143.198
20
-52.6776
11
143.07
21
-52.9183
0
LINE
8
BLACK
6
CONTINUOUS
10
143.07
20
-52.9183
11
143.07
21
-52.9186
0
LINE
8
BLACK
6
CONTINUOUS
10
143.07
20
-52.9186
11
143.069
21
-52.9205
0
LINE
8
BLACK
6
CONTINUOUS
10
143.069
20
-52.9205
11
143.067
21
-52.9224
0
LINE
8
BLACK
6
CONTINUOUS
10
143.067
20
-52.9224
11
142.895
21
-53.1337
0
LINE
8
BLACK
6
CONTINUOUS
10
142.895
20
-53.1337
11
142.895
21
-53.1339
0
LINE
8
BLACK
6
CONTINUOUS
10
142.895
20
-53.1339
11
142.893
21
-53.1356
0
LINE
8
BLACK
6
CONTINUOUS
10
142.893
20
-53.1356
11
142.892
21
-53.1371
0
LINE
8
BLACK
6
CONTINUOUS
10
142.892
20
-53.1371
11
142.682
21
-53.3109
0
LINE
8
BLACK
6
CONTINUOUS
10
142.682
20
-53.3109
11
142.681
21
-53.3111
0
LINE
8
BLACK
6
CONTINUOUS
10
142.681
20
-53.3111
11
142.679
21
-53.3124
0
LINE
8
BLACK
6
CONTINUOUS
10
142.679
20
-53.3124
11
142.677
21
-53.3137
0
LINE
8
BLACK
6
CONTINUOUS
10
142.677
20
-53.3137
11
142.438
21
-53.4433
0
LINE
8
BLACK
6
CONTINUOUS
10
142.438
20
-53.4433
11
142.437
21
-53.4435
0
LINE
8
BLACK
6
CONTINUOUS
10
142.437
20
-53.4435
11
142.435
21
-53.4444
0
LINE
8
BLACK
6
CONTINUOUS
10
142.435
20
-53.4444
11
142.433
21
-53.4452
0
LINE
8
BLACK
6
CONTINUOUS
10
142.433
20
-53.4452
11
142.173
21
-53.5258
0
LINE
8
BLACK
6
CONTINUOUS
10
142.173
20
-53.5258
11
142.172
21
-53.5259
0
LINE
8
BLACK
6
CONTINUOUS
10
142.172
20
-53.5259
11
142.17
21
-53.5264
0
LINE
8
BLACK
6
CONTINUOUS
10
142.17
20
-53.5264
11
142.168
21
-53.5268
0
LINE
8
BLACK
6
CONTINUOUS
10
142.168
20
-53.5268
11
141.897
21
-53.5553
0
LINE
8
BLACK
6
CONTINUOUS
10
141.897
20
-53.5553
11
141.896
21
-53.5554
0
LINE
8
BLACK
6
CONTINUOUS
10
141.896
20
-53.5554
11
141.895
21
-53.5554
0
LINE
8
BLACK
6
CONTINUOUS
10
141.895
20
-53.5554
11
141.894
21
-53.5555
0
LINE
8
BLACK
6
CONTINUOUS
10
141.894
20
-53.5555
11
141.886
21
-53.5555
0
LINE
8
BLACK
6
CONTINUOUS
10
141.886
20
-53.5555
11
141.886
21
-53.5555
0
LINE
8
BLACK
6
CONTINUOUS
10
141.886
20
-53.5555
11
132.183
21
-53.5555
0
LINE
8
BLACK
6
CONTINUOUS
10
132.183
20
-53.5555
11
132.182
21
-53.5556
0
LINE
8
BLACK
6
CONTINUOUS
10
132.182
20
-53.5556
11
132.18
21
-53.5555
0
LINE
8
BLACK
6
CONTINUOUS
10
132.18
20
-53.5555
11
132.18
21
-53.5555
0
LINE
8
BLACK
6
CONTINUOUS
10
132.18
20
-53.5555
11
132.177
21
-53.5551
0
LINE
8
BLACK
6
CONTINUOUS
10
132.177
20
-53.5551
11
132.172
21
-53.5537
0
LINE
8
BLACK
6
CONTINUOUS
10
132.172
20
-53.5537
11
132.168
21
-53.5514
0
LINE
8
BLACK
6
CONTINUOUS
10
132.168
20
-53.5514
11
132.164
21
-53.5483
0
LINE
8
BLACK
6
CONTINUOUS
10
132.164
20
-53.5483
11
132.161
21
-53.5445
0
LINE
8
BLACK
6
CONTINUOUS
10
132.161
20
-53.5445
11
132.158
21
-53.5401
0
LINE
8
BLACK
6
CONTINUOUS
10
132.158
20
-53.5401
11
132.157
21
-53.5354
0
LINE
8
BLACK
6
CONTINUOUS
10
132.157
20
-53.5354
11
132.156
21
-53.5305
0
LINE
8
BLACK
6
CONTINUOUS
10
132.156
20
-53.5305
11
132.157
21
-53.5293
0
LINE
8
BLACK
6
CONTINUOUS
10
132.157
20
-53.5293
11
132.157
21
-51.8016
0
LINE
8
BLACK
6
CONTINUOUS
10
132.157
20
-51.8016
11
132.135
21
-51.3634
0
LINE
8
BLACK
6
CONTINUOUS
10
132.135
20
-51.3634
11
131.972
21
-50.5257
0
LINE
8
BLACK
6
CONTINUOUS
10
131.972
20
-50.5257
11
131.653
21
-49.7347
0
LINE
8
BLACK
6
CONTINUOUS
10
131.653
20
-49.7347
11
131.19
21
-49.0182
0
LINE
8
BLACK
6
CONTINUOUS
10
131.19
20
-49.0182
11
130.6
21
-48.402
0
LINE
8
BLACK
6
CONTINUOUS
10
130.6
20
-48.402
11
129.905
21
-47.9086
0
LINE
8
BLACK
6
CONTINUOUS
10
129.905
20
-47.9086
11
129.128
21
-47.5556
0
LINE
8
BLACK
6
CONTINUOUS
10
129.128
20
-47.5556
11
128.299
21
-47.3557
0
LINE
8
BLACK
6
CONTINUOUS
10
128.299
20
-47.3557
11
127.447
21
-47.3163
0
LINE
8
BLACK
6
CONTINUOUS
10
127.447
20
-47.3163
11
126.603
21
-47.4387
0
LINE
8
BLACK
6
CONTINUOUS
10
126.603
20
-47.4387
11
125.797
21
-47.7185
0
LINE
8
BLACK
6
CONTINUOUS
10
125.797
20
-47.7185
11
125.059
21
-48.1456
0
LINE
8
BLACK
6
CONTINUOUS
10
125.059
20
-48.1456
11
124.415
21
-48.7046
0
LINE
8
BLACK
6
CONTINUOUS
10
124.415
20
-48.7046
11
123.888
21
-49.3753
0
LINE
8
BLACK
6
CONTINUOUS
10
123.888
20
-49.3753
11
123.497
21
-50.1335
0
LINE
8
BLACK
6
CONTINUOUS
10
123.497
20
-50.1335
11
123.257
21
-50.9519
0
LINE
8
BLACK
6
CONTINUOUS
10
123.257
20
-50.9519
11
123.176
21
-51.8022
0
LINE
8
BLACK
6
CONTINUOUS
10
123.176
20
-51.8022
11
123.176
21
-53.5317
0
LINE
8
BLACK
6
CONTINUOUS
10
123.176
20
-53.5317
11
123.176
21
-53.5317
0
LINE
8
BLACK
6
CONTINUOUS
10
123.176
20
-53.5317
11
123.177
21
-118.033
0
LINE
8
BLACK
6
CONTINUOUS
10
123.177
20
-118.033
11
123.177
21
-118.034
0
LINE
8
BLACK
6
CONTINUOUS
10
123.177
20
-118.034
11
123.177
21
-118.039
0
LINE
8
BLACK
6
CONTINUOUS
10
123.177
20
-118.039
11
123.175
21
-118.043
0
LINE
8
BLACK
6
CONTINUOUS
10
123.175
20
-118.043
11
123.173
21
-118.048
0
LINE
8
BLACK
6
CONTINUOUS
10
123.173
20
-118.048
11
123.17
21
-118.052
0
LINE
8
BLACK
6
CONTINUOUS
10
123.17
20
-118.052
11
123.166
21
-118.055
0
LINE
8
BLACK
6
CONTINUOUS
10
123.166
20
-118.055
11
123.162
21
-118.057
0
LINE
8
BLACK
6
CONTINUOUS
10
123.162
20
-118.057
11
123.157
21
-118.058
0
LINE
8
BLACK
6
CONTINUOUS
10
123.157
20
-118.058
11
123.153
21
-118.059
0
LINE
8
BLACK
6
CONTINUOUS
10
123.153
20
-118.059
11
123.153
21
-118.059
0
LINE
8
BLACK
6
CONTINUOUS
10
123.153
20
-118.059
11
123.152
21
-118.059
0
LINE
8
BLACK
6
CONTINUOUS
10
123.152
20
-118.059
11
123.151
21
-118.059
0
LINE
8
BLACK
6
CONTINUOUS
10
123.151
20
-118.059
11
121.042
21
-118.059
0
LINE
8
BLACK
6
CONTINUOUS
10
121.042
20
-118.059
11
120.604
21
-118.08
0
LINE
8
BLACK
6
CONTINUOUS
10
120.604
20
-118.08
11
119.766
21
-118.244
0
LINE
8
BLACK
6
CONTINUOUS
10
119.766
20
-118.244
11
118.975
21
-118.563
0
LINE
8
BLACK
6
CONTINUOUS
10
118.975
20
-118.563
11
118.259
21
-119.025
0
LINE
8
BLACK
6
CONTINUOUS
10
118.259
20
-119.025
11
117.642
21
-119.615
0
LINE
8
BLACK
6
CONTINUOUS
10
117.642
20
-119.615
11
117.149
21
-120.311
0
LINE
8
BLACK
6
CONTINUOUS
10
117.149
20
-120.311
11
116.796
21
-121.087
0
LINE
8
BLACK
6
CONTINUOUS
10
116.796
20
-121.087
11
116.596
21
-121.916
0
LINE
8
BLACK
6
CONTINUOUS
10
116.596
20
-121.916
11
116.557
21
-122.768
0
LINE
8
BLACK
6
CONTINUOUS
10
116.557
20
-122.768
11
116.679
21
-123.612
0
LINE
8
BLACK
6
CONTINUOUS
10
116.679
20
-123.612
11
116.959
21
-124.418
0
LINE
8
BLACK
6
CONTINUOUS
10
116.959
20
-124.418
11
117.386
21
-125.156
0
LINE
8
BLACK
6
CONTINUOUS
10
117.386
20
-125.156
11
117.945
21
-125.801
0
LINE
8
BLACK
6
CONTINUOUS
10
117.945
20
-125.801
11
118.616
21
-126.327
0
LINE
8
BLACK
6
CONTINUOUS
10
118.616
20
-126.327
11
119.374
21
-126.718
0
LINE
8
BLACK
6
CONTINUOUS
10
119.374
20
-126.718
11
120.192
21
-126.958
0
LINE
8
BLACK
6
CONTINUOUS
10
120.192
20
-126.958
11
121.043
21
-127.039
0
LINE
8
BLACK
6
CONTINUOUS
10
121.043
20
-127.039
11
123.151
21
-127.039
0
LINE
8
BLACK
6
CONTINUOUS
10
123.151
20
-127.039
11
123.152
21
-127.038
0
LINE
8
BLACK
6
CONTINUOUS
10
123.152
20
-127.038
11
123.156
21
-127.039
0
LINE
8
BLACK
6
CONTINUOUS
10
123.156
20
-127.039
11
123.157
21
-127.039
0
LINE
8
BLACK
6
CONTINUOUS
10
123.157
20
-127.039
11
123.157
21
-127.039
0
LINE
8
BLACK
6
CONTINUOUS
10
123.157
20
-127.039
11
123.157
21
-127.039
0
LINE
8
BLACK
6
CONTINUOUS
10
123.157
20
-127.039
11
123.16
21
-127.04
0
LINE
8
BLACK
6
CONTINUOUS
10
123.16
20
-127.04
11
123.162
21
-127.04
0
LINE
8
BLACK
6
CONTINUOUS
10
123.162
20
-127.04
11
123.162
21
-127.04
0
LINE
8
BLACK
6
CONTINUOUS
10
123.162
20
-127.04
11
123.162
21
-127.04
0
LINE
8
BLACK
6
CONTINUOUS
10
123.162
20
-127.04
11
123.163
21
-127.041
0
LINE
8
BLACK
6
CONTINUOUS
10
123.163
20
-127.041
11
123.166
21
-127.043
0
LINE
8
BLACK
6
CONTINUOUS
10
123.166
20
-127.043
11
123.166
21
-127.043
0
LINE
8
BLACK
6
CONTINUOUS
10
123.166
20
-127.043
11
123.17
21
-127.046
0
LINE
8
BLACK
6
CONTINUOUS
10
129.234
20
-171.834
11
129.355
21
-171.543
0
LINE
8
BLACK
6
CONTINUOUS
10
129.355
20
-171.543
11
129.53
21
-171.281
0
LINE
8
BLACK
6
CONTINUOUS
10
129.53
20
-171.281
11
129.752
21
-171.059
0
LINE
8
BLACK
6
CONTINUOUS
10
129.752
20
-171.059
11
130.014
21
-170.884
0
LINE
8
BLACK
6
CONTINUOUS
10
130.014
20
-170.884
11
130.305
21
-170.763
0
LINE
8
BLACK
6
CONTINUOUS
10
130.305
20
-170.763
11
130.614
21
-170.702
0
LINE
8
BLACK
6
CONTINUOUS
10
130.614
20
-170.702
11
130.929
21
-170.702
0
LINE
8
BLACK
6
CONTINUOUS
10
130.929
20
-170.702
11
131.238
21
-170.763
0
LINE
8
BLACK
6
CONTINUOUS
10
131.238
20
-170.763
11
131.529
21
-170.884
0
LINE
8
BLACK
6
CONTINUOUS
10
131.529
20
-170.884
11
131.791
21
-171.059
0
LINE
8
BLACK
6
CONTINUOUS
10
131.791
20
-171.059
11
132.014
21
-171.281
0
LINE
8
BLACK
6
CONTINUOUS
10
132.014
20
-171.281
11
132.189
21
-171.543
0
LINE
8
BLACK
6
CONTINUOUS
10
132.189
20
-171.543
11
132.31
21
-171.834
0
LINE
8
BLACK
6
CONTINUOUS
10
132.31
20
-171.834
11
132.371
21
-172.143
0
LINE
8
BLACK
6
CONTINUOUS
10
132.371
20
-172.143
11
132.371
21
-172.458
0
LINE
8
BLACK
6
CONTINUOUS
10
132.371
20
-172.458
11
132.31
21
-172.767
0
LINE
8
BLACK
6
CONTINUOUS
10
132.31
20
-172.767
11
132.189
21
-173.058
0
LINE
8
BLACK
6
CONTINUOUS
10
132.189
20
-173.058
11
132.014
21
-173.32
0
LINE
8
BLACK
6
CONTINUOUS
10
132.014
20
-173.32
11
131.791
21
-173.543
0
LINE
8
BLACK
6
CONTINUOUS
10
131.791
20
-173.543
11
131.529
21
-173.718
0
LINE
8
BLACK
6
CONTINUOUS
10
131.529
20
-173.718
11
131.238
21
-173.839
0
LINE
8
BLACK
6
CONTINUOUS
10
131.238
20
-173.839
11
130.929
21
-173.9
0
LINE
8
BLACK
6
CONTINUOUS
10
130.929
20
-173.9
11
130.614
21
-173.9
0
LINE
8
BLACK
6
CONTINUOUS
10
130.614
20
-173.9
11
130.305
21
-173.839
0
LINE
8
BLACK
6
CONTINUOUS
10
130.305
20
-173.839
11
130.014
21
-173.718
0
LINE
8
BLACK
6
CONTINUOUS
10
130.014
20
-173.718
11
129.752
21
-173.543
0
LINE
8
BLACK
6
CONTINUOUS
10
129.752
20
-173.543
11
129.53
21
-173.32
0
LINE
8
BLACK
6
CONTINUOUS
10
129.53
20
-173.32
11
129.355
21
-173.058
0
LINE
8
BLACK
6
CONTINUOUS
10
129.355
20
-173.058
11
129.234
21
-172.767
0
LINE
8
BLACK
6
CONTINUOUS
10
129.234
20
-172.767
11
129.173
21
-172.458
0
LINE
8
BLACK
6
CONTINUOUS
10
129.173
20
-172.458
11
129.173
21
-172.143
0
LINE
8
BLACK
6
CONTINUOUS
10
129.173
20
-172.143
11
129.234
21
-171.834
0
LINE
8
BLACK
6
CONTINUOUS
10
129.301
20
-172.747
11
129.416
21
-173.025
0
LINE
8
BLACK
6
CONTINUOUS
10
129.416
20
-173.025
11
129.584
21
-173.276
0
LINE
8
BLACK
6
CONTINUOUS
10
129.584
20
-173.276
11
129.797
21
-173.489
0
LINE
8
BLACK
6
CONTINUOUS
10
129.797
20
-173.489
11
130.047
21
-173.657
0
LINE
8
BLACK
6
CONTINUOUS
10
130.047
20
-173.657
11
130.326
21
-173.772
0
LINE
8
BLACK
6
CONTINUOUS
10
130.326
20
-173.772
11
130.621
21
-173.831
0
LINE
8
BLACK
6
CONTINUOUS
10
130.621
20
-173.831
11
130.923
21
-173.831
0
LINE
8
BLACK
6
CONTINUOUS
10
130.923
20
-173.831
11
131.218
21
-173.772
0
LINE
8
BLACK
6
CONTINUOUS
10
131.218
20
-173.772
11
131.496
21
-173.657
0
LINE
8
BLACK
6
CONTINUOUS
10
131.496
20
-173.657
11
131.747
21
-173.489
0
LINE
8
BLACK
6
CONTINUOUS
10
131.747
20
-173.489
11
131.96
21
-173.276
0
LINE
8
BLACK
6
CONTINUOUS
10
131.96
20
-173.276
11
132.128
21
-173.025
0
LINE
8
BLACK
6
CONTINUOUS
10
132.128
20
-173.025
11
132.243
21
-172.747
0
LINE
8
BLACK
6
CONTINUOUS
10
132.243
20
-172.747
11
132.302
21
-172.452
0
LINE
8
BLACK
6
CONTINUOUS
10
132.302
20
-172.452
11
132.302
21
-172.15
0
LINE
8
BLACK
6
CONTINUOUS
10
132.302
20
-172.15
11
132.243
21
-171.855
0
LINE
8
BLACK
6
CONTINUOUS
10
132.243
20
-171.855
11
132.128
21
-171.576
0
LINE
8
BLACK
6
CONTINUOUS
10
132.128
20
-171.576
11
131.96
21
-171.326
0
LINE
8
BLACK
6
CONTINUOUS
10
131.96
20
-171.326
11
131.747
21
-171.113
0
LINE
8
BLACK
6
CONTINUOUS
10
131.747
20
-171.113
11
131.496
21
-170.945
0
LINE
8
BLACK
6
CONTINUOUS
10
131.496
20
-170.945
11
131.218
21
-170.83
0
LINE
8
BLACK
6
CONTINUOUS
10
131.218
20
-170.83
11
130.923
21
-170.771
0
LINE
8
BLACK
6
CONTINUOUS
10
130.923
20
-170.771
11
130.621
21
-170.771
0
LINE
8
BLACK
6
CONTINUOUS
10
130.621
20
-170.771
11
130.326
21
-170.83
0
LINE
8
BLACK
6
CONTINUOUS
10
130.326
20
-170.83
11
130.047
21
-170.945
0
LINE
8
BLACK
6
CONTINUOUS
10
130.047
20
-170.945
11
129.797
21
-171.113
0
LINE
8
BLACK
6
CONTINUOUS
10
129.797
20
-171.113
11
129.584
21
-171.326
0
LINE
8
BLACK
6
CONTINUOUS
10
129.584
20
-171.326
11
129.416
21
-171.576
0
LINE
8
BLACK
6
CONTINUOUS
10
129.416
20
-171.576
11
129.301
21
-171.855
0
LINE
8
BLACK
6
CONTINUOUS
10
129.301
20
-171.855
11
129.242
21
-172.15
0
LINE
8
BLACK
6
CONTINUOUS
10
129.242
20
-172.15
11
129.242
21
-172.452
0
LINE
8
BLACK
6
CONTINUOUS
10
129.242
20
-172.452
11
129.301
21
-172.747
0
LINE
8
BLACK
6
CONTINUOUS
10
190.917
20
-154.562
11
191.037
21
-154.271
0
LINE
8
BLACK
6
CONTINUOUS
10
191.037
20
-154.271
11
191.212
21
-154.009
0
LINE
8
BLACK
6
CONTINUOUS
10
191.212
20
-154.009
11
191.435
21
-153.787
0
LINE
8
BLACK
6
CONTINUOUS
10
191.435
20
-153.787
11
191.697
21
-153.612
0
LINE
8
BLACK
6
CONTINUOUS
10
191.697
20
-153.612
11
191.988
21
-153.491
0
LINE
8
BLACK
6
CONTINUOUS
10
191.988
20
-153.491
11
192.297
21
-153.43
0
LINE
8
BLACK
6
CONTINUOUS
10
192.297
20
-153.43
11
192.612
21
-153.43
0
LINE
8
BLACK
6
CONTINUOUS
10
192.612
20
-153.43
11
192.921
21
-153.491
0
LINE
8
BLACK
6
CONTINUOUS
10
192.921
20
-153.491
11
193.212
21
-153.612
0
LINE
8
BLACK
6
CONTINUOUS
10
193.212
20
-153.612
11
193.474
21
-153.787
0
LINE
8
BLACK
6
CONTINUOUS
10
193.474
20
-153.787
11
193.697
21
-154.009
0
LINE
8
BLACK
6
CONTINUOUS
10
193.697
20
-154.009
11
193.872
21
-154.271
0
LINE
8
BLACK
6
CONTINUOUS
10
193.872
20
-154.271
11
193.992
21
-154.562
0
LINE
8
BLACK
6
CONTINUOUS
10
193.992
20
-154.562
11
194.054
21
-154.871
0
LINE
8
BLACK
6
CONTINUOUS
10
194.054
20
-154.871
11
194.054
21
-155.186
0
LINE
8
BLACK
6
CONTINUOUS
10
194.054
20
-155.186
11
193.992
21
-155.495
0
LINE
8
BLACK
6
CONTINUOUS
10
193.992
20
-155.495
11
193.872
21
-155.786
0
LINE
8
BLACK
6
CONTINUOUS
10
193.872
20
-155.786
11
193.697
21
-156.048
0
LINE
8
BLACK
6
CONTINUOUS
10
193.697
20
-156.048
11
193.474
21
-156.271
0
LINE
8
BLACK
6
CONTINUOUS
10
193.474
20
-156.271
11
193.212
21
-156.446
0
LINE
8
BLACK
6
CONTINUOUS
10
193.212
20
-156.446
11
192.921
21
-156.567
0
LINE
8
BLACK
6
CONTINUOUS
10
192.921
20
-156.567
11
192.612
21
-156.628
0
LINE
8
BLACK
6
CONTINUOUS
10
192.612
20
-156.628
11
192.297
21
-156.628
0
LINE
8
BLACK
6
CONTINUOUS
10
192.297
20
-156.628
11
191.988
21
-156.567
0
LINE
8
BLACK
6
CONTINUOUS
10
191.988
20
-156.567
11
191.697
21
-156.446
0
LINE
8
BLACK
6
CONTINUOUS
10
191.697
20
-156.446
11
191.435
21
-156.271
0
LINE
8
BLACK
6
CONTINUOUS
10
191.435
20
-156.271
11
191.212
21
-156.048
0
LINE
8
BLACK
6
CONTINUOUS
10
191.212
20
-156.048
11
191.037
21
-155.786
0
LINE
8
BLACK
6
CONTINUOUS
10
191.037
20
-155.786
11
190.917
21
-155.495
0
LINE
8
BLACK
6
CONTINUOUS
10
190.917
20
-155.495
11
190.855
21
-155.186
0
LINE
8
BLACK
6
CONTINUOUS
10
190.855
20
-155.186
11
190.855
21
-154.871
0
LINE
8
BLACK
6
CONTINUOUS
10
190.855
20
-154.871
11
190.917
21
-154.562
0
LINE
8
BLACK
6
CONTINUOUS
10
190.983
20
-155.475
11
191.099
21
-155.753
0
LINE
8
BLACK
6
CONTINUOUS
10
191.099
20
-155.753
11
191.266
21
-156.004
0
LINE
8
BLACK
6
CONTINUOUS
10
191.266
20
-156.004
11
191.479
21
-156.217
0
LINE
8
BLACK
6
CONTINUOUS
10
191.479
20
-156.217
11
191.73
21
-156.385
0
LINE
8
BLACK
6
CONTINUOUS
10
191.73
20
-156.385
11
192.008
21
-156.5
0
LINE
8
BLACK
6
CONTINUOUS
10
192.008
20
-156.5
11
192.304
21
-156.559
0
LINE
8
BLACK
6
CONTINUOUS
10
192.304
20
-156.559
11
192.605
21
-156.559
0
LINE
8
BLACK
6
CONTINUOUS
10
192.605
20
-156.559
11
192.901
21
-156.5
0
LINE
8
BLACK
6
CONTINUOUS
10
192.901
20
-156.5
11
193.179
21
-156.385
0
LINE
8
BLACK
6
CONTINUOUS
10
193.179
20
-156.385
11
193.43
21
-156.217
0
LINE
8
BLACK
6
CONTINUOUS
10
193.43
20
-156.217
11
193.643
21
-156.004
0
LINE
8
BLACK
6
CONTINUOUS
10
193.643
20
-156.004
11
193.81
21
-155.753
0
LINE
8
BLACK
6
CONTINUOUS
10
193.81
20
-155.753
11
193.925
21
-155.475
0
LINE
8
BLACK
6
CONTINUOUS
10
193.925
20
-155.475
11
193.984
21
-155.18
0
LINE
8
BLACK
6
CONTINUOUS
10
193.984
20
-155.18
11
193.984
21
-154.878
0
LINE
8
BLACK
6
CONTINUOUS
10
193.984
20
-154.878
11
193.925
21
-154.583
0
LINE
8
BLACK
6
CONTINUOUS
10
193.925
20
-154.583
11
193.81
21
-154.304
0
LINE
8
BLACK
6
CONTINUOUS
10
193.81
20
-154.304
11
193.643
21
-154.054
0
LINE
8
BLACK
6
CONTINUOUS
10
193.643
20
-154.054
11
193.43
21
-153.841
0
LINE
8
BLACK
6
CONTINUOUS
10
193.43
20
-153.841
11
193.179
21
-153.673
0
LINE
8
BLACK
6
CONTINUOUS
10
193.179
20
-153.673
11
192.901
21
-153.558
0
LINE
8
BLACK
6
CONTINUOUS
10
192.901
20
-153.558
11
192.605
21
-153.499
0
LINE
8
BLACK
6
CONTINUOUS
10
192.605
20
-153.499
11
192.304
21
-153.499
0
LINE
8
BLACK
6
CONTINUOUS
10
192.304
20
-153.499
11
192.008
21
-153.558
0
LINE
8
BLACK
6
CONTINUOUS
10
192.008
20
-153.558
11
191.73
21
-153.673
0
LINE
8
BLACK
6
CONTINUOUS
10
191.73
20
-153.673
11
191.479
21
-153.841
0
LINE
8
BLACK
6
CONTINUOUS
10
191.479
20
-153.841
11
191.266
21
-154.054
0
LINE
8
BLACK
6
CONTINUOUS
10
191.266
20
-154.054
11
191.099
21
-154.304
0
LINE
8
BLACK
6
CONTINUOUS
10
191.099
20
-154.304
11
190.983
21
-154.583
0
LINE
8
BLACK
6
CONTINUOUS
10
190.983
20
-154.583
11
190.925
21
-154.878
0
LINE
8
BLACK
6
CONTINUOUS
10
190.925
20
-154.878
11
190.925
21
-155.18
0
LINE
8
BLACK
6
CONTINUOUS
10
190.925
20
-155.18
11
190.983
21
-155.475
0
LINE
8
BLACK
6
CONTINUOUS
10
118.717
20
-122.05
11
118.838
21
-121.759
0
LINE
8
BLACK
6
CONTINUOUS
10
118.838
20
-121.759
11
119.013
21
-121.497
0
LINE
8
BLACK
6
CONTINUOUS
10
119.013
20
-121.497
11
119.235
21
-121.275
0
LINE
8
BLACK
6
CONTINUOUS
10
119.235
20
-121.275
11
119.497
21
-121.1
0
LINE
8
BLACK
6
CONTINUOUS
10
119.497
20
-121.1
11
119.788
21
-120.979
0
LINE
8
BLACK
6
CONTINUOUS
10
119.788
20
-120.979
11
120.097
21
-120.918
0
LINE
8
BLACK
6
CONTINUOUS
10
120.097
20
-120.918
11
120.412
21
-120.918
0
LINE
8
BLACK
6
CONTINUOUS
10
120.412
20
-120.918
11
120.721
21
-120.979
0
LINE
8
BLACK
6
CONTINUOUS
10
120.721
20
-120.979
11
121.012
21
-121.1
0
LINE
8
BLACK
6
CONTINUOUS
10
121.012
20
-121.1
11
121.274
21
-121.275
0
LINE
8
BLACK
6
CONTINUOUS
10
121.274
20
-121.275
11
121.497
21
-121.497
0
LINE
8
BLACK
6
CONTINUOUS
10
121.497
20
-121.497
11
121.672
21
-121.759
0
LINE
8
BLACK
6
CONTINUOUS
10
121.672
20
-121.759
11
121.793
21
-122.05
0
LINE
8
BLACK
6
CONTINUOUS
10
121.793
20
-122.05
11
121.854
21
-122.359
0
LINE
8
BLACK
6
CONTINUOUS
10
121.854
20
-122.359
11
121.854
21
-122.674
0
LINE
8
BLACK
6
CONTINUOUS
10
121.854
20
-122.674
11
121.793
21
-122.983
0
LINE
8
BLACK
6
CONTINUOUS
10
121.793
20
-122.983
11
121.672
21
-123.274
0
LINE
8
BLACK
6
CONTINUOUS
10
121.672
20
-123.274
11
121.497
21
-123.536
0
LINE
8
BLACK
6
CONTINUOUS
10
121.497
20
-123.536
11
121.274
21
-123.759
0
LINE
8
BLACK
6
CONTINUOUS
10
121.274
20
-123.759
11
121.012
21
-123.934
0
LINE
8
BLACK
6
CONTINUOUS
10
121.012
20
-123.934
11
120.721
21
-124.055
0
LINE
8
BLACK
6
CONTINUOUS
10
120.721
20
-124.055
11
120.412
21
-124.116
0
LINE
8
BLACK
6
CONTINUOUS
10
120.412
20
-124.116
11
120.097
21
-124.116
0
LINE
8
BLACK
6
CONTINUOUS
10
120.097
20
-124.116
11
119.788
21
-124.055
0
LINE
8
BLACK
6
CONTINUOUS
10
119.788
20
-124.055
11
119.497
21
-123.934
0
LINE
8
BLACK
6
CONTINUOUS
10
119.497
20
-123.934
11
119.235
21
-123.759
0
LINE
8
BLACK
6
CONTINUOUS
10
119.235
20
-123.759
11
119.013
21
-123.536
0
LINE
8
BLACK
6
CONTINUOUS
10
119.013
20
-123.536
11
118.838
21
-123.274
0
LINE
8
BLACK
6
CONTINUOUS
10
118.838
20
-123.274
11
118.717
21
-122.983
0
LINE
8
BLACK
6
CONTINUOUS
10
118.717
20
-122.983
11
118.656
21
-122.674
0
LINE
8
BLACK
6
CONTINUOUS
10
118.656
20
-122.674
11
118.656
21
-122.359
0
LINE
8
BLACK
6
CONTINUOUS
10
118.656
20
-122.359
11
118.717
21
-122.05
0
LINE
8
BLACK
6
CONTINUOUS
10
118.784
20
-122.963
11
118.899
21
-123.241
0
LINE
8
BLACK
6
CONTINUOUS
10
118.899
20
-123.241
11
119.067
21
-123.492
0
LINE
8
BLACK
6
CONTINUOUS
10
119.067
20
-123.492
11
119.28
21
-123.705
0
LINE
8
BLACK
6
CONTINUOUS
10
119.28
20
-123.705
11
119.53
21
-123.873
0
LINE
8
BLACK
6
CONTINUOUS
10
119.53
20
-123.873
11
119.809
21
-123.988
0
LINE
8
BLACK
6
CONTINUOUS
10
119.809
20
-123.988
11
120.104
21
-124.047
0
LINE
8
BLACK
6
CONTINUOUS
10
120.104
20
-124.047
11
120.406
21
-124.047
0
LINE
8
BLACK
6
CONTINUOUS
10
120.406
20
-124.047
11
120.701
21
-123.988
0
LINE
8
BLACK
6
CONTINUOUS
10
120.701
20
-123.988
11
120.979
21
-123.873
0
LINE
8
BLACK
6
CONTINUOUS
10
120.979
20
-123.873
11
121.23
21
-123.705
0
LINE
8
BLACK
6
CONTINUOUS
10
121.23
20
-123.705
11
121.443
21
-123.492
0
LINE
8
BLACK
6
CONTINUOUS
10
121.443
20
-123.492
11
121.611
21
-123.241
0
LINE
8
BLACK
6
CONTINUOUS
10
121.611
20
-123.241
11
121.726
21
-122.963
0
LINE
8
BLACK
6
CONTINUOUS
10
121.726
20
-122.963
11
121.785
21
-122.668
0
LINE
8
BLACK
6
CONTINUOUS
10
121.785
20
-122.668
11
121.785
21
-122.366
0
LINE
8
BLACK
6
CONTINUOUS
10
121.785
20
-122.366
11
121.726
21
-122.071
0
LINE
8
BLACK
6
CONTINUOUS
10
121.726
20
-122.071
11
121.611
21
-121.792
0
LINE
8
BLACK
6
CONTINUOUS
10
121.611
20
-121.792
11
121.443
21
-121.542
0
LINE
8
BLACK
6
CONTINUOUS
10
121.443
20
-121.542
11
121.23
21
-121.329
0
LINE
8
BLACK
6
CONTINUOUS
10
121.23
20
-121.329
11
120.979
21
-121.161
0
LINE
8
BLACK
6
CONTINUOUS
10
120.979
20
-121.161
11
120.701
21
-121.046
0
LINE
8
BLACK
6
CONTINUOUS
10
120.701
20
-121.046
11
120.406
21
-120.987
0
LINE
8
BLACK
6
CONTINUOUS
10
120.406
20
-120.987
11
120.104
21
-120.987
0
LINE
8
BLACK
6
CONTINUOUS
10
120.104
20
-120.987
11
119.809
21
-121.046
0
LINE
8
BLACK
6
CONTINUOUS
10
119.809
20
-121.046
11
119.53
21
-121.161
0
LINE
8
BLACK
6
CONTINUOUS
10
119.53
20
-121.161
11
119.28
21
-121.329
0
LINE
8
BLACK
6
CONTINUOUS
10
119.28
20
-121.329
11
119.067
21
-121.542
0
LINE
8
BLACK
6
CONTINUOUS
10
119.067
20
-121.542
11
118.899
21
-121.792
0
LINE
8
BLACK
6
CONTINUOUS
10
118.899
20
-121.792
11
118.784
21
-122.071
0
LINE
8
BLACK
6
CONTINUOUS
10
118.784
20
-122.071
11
118.725
21
-122.366
0
LINE
8
BLACK
6
CONTINUOUS
10
118.725
20
-122.366
11
118.725
21
-122.668
0
LINE
8
BLACK
6
CONTINUOUS
10
118.725
20
-122.668
11
118.784
21
-122.963
0
LINE
8
BLACK
6
CONTINUOUS
10
252.512
20
-120.336
11
252.632
21
-120.045
0
LINE
8
BLACK
6
CONTINUOUS
10
252.632
20
-120.045
11
252.807
21
-119.783
0
LINE
8
BLACK
6
CONTINUOUS
10
252.807
20
-119.783
11
253.03
21
-119.56
0
LINE
8
BLACK
6
CONTINUOUS
10
253.03
20
-119.56
11
253.292
21
-119.385
0
LINE
8
BLACK
6
CONTINUOUS
10
253.292
20
-119.385
11
253.583
21
-119.265
0
LINE
8
BLACK
6
CONTINUOUS
10
253.583
20
-119.265
11
253.892
21
-119.203
0
LINE
8
BLACK
6
CONTINUOUS
10
253.892
20
-119.203
11
254.207
21
-119.203
0
LINE
8
BLACK
6
CONTINUOUS
10
254.207
20
-119.203
11
254.516
21
-119.265
0
LINE
8
BLACK
6
CONTINUOUS
10
254.516
20
-119.265
11
254.807
21
-119.385
0
LINE
8
BLACK
6
CONTINUOUS
10
254.807
20
-119.385
11
255.069
21
-119.56
0
LINE
8
BLACK
6
CONTINUOUS
10
255.069
20
-119.56
11
255.292
21
-119.783
0
LINE
8
BLACK
6
CONTINUOUS
10
255.292
20
-119.783
11
255.467
21
-120.045
0
LINE
8
BLACK
6
CONTINUOUS
10
255.467
20
-120.045
11
255.587
21
-120.336
0
LINE
8
BLACK
6
CONTINUOUS
10
255.587
20
-120.336
11
255.649
21
-120.645
0
LINE
8
BLACK
6
CONTINUOUS
10
255.649
20
-120.645
11
255.649
21
-120.96
0
LINE
8
BLACK
6
CONTINUOUS
10
255.649
20
-120.96
11
255.587
21
-121.269
0
LINE
8
BLACK
6
CONTINUOUS
10
255.587
20
-121.269
11
255.467
21
-121.56
0
LINE
8
BLACK
6
CONTINUOUS
10
255.467
20
-121.56
11
255.292
21
-121.822
0
LINE
8
BLACK
6
CONTINUOUS
10
255.292
20
-121.822
11
255.069
21
-122.045
0
LINE
8
BLACK
6
CONTINUOUS
10
255.069
20
-122.045
11
254.807
21
-122.22
0
LINE
8
BLACK
6
CONTINUOUS
10
254.807
20
-122.22
11
254.516
21
-122.34
0
LINE
8
BLACK
6
CONTINUOUS
10
254.516
20
-122.34
11
254.207
21
-122.402
0
LINE
8
BLACK
6
CONTINUOUS
10
254.207
20
-122.402
11
253.892
21
-122.402
0
LINE
8
BLACK
6
CONTINUOUS
10
253.892
20
-122.402
11
253.583
21
-122.34
0
LINE
8
BLACK
6
CONTINUOUS
10
253.583
20
-122.34
11
253.292
21
-122.22
0
LINE
8
BLACK
6
CONTINUOUS
10
253.292
20
-122.22
11
253.03
21
-122.045
0
LINE
8
BLACK
6
CONTINUOUS
10
253.03
20
-122.045
11
252.807
21
-121.822
0
LINE
8
BLACK
6
CONTINUOUS
10
252.807
20
-121.822
11
252.632
21
-121.56
0
LINE
8
BLACK
6
CONTINUOUS
10
252.632
20
-121.56
11
252.512
21
-121.269
0
LINE
8
BLACK
6
CONTINUOUS
10
252.512
20
-121.269
11
252.45
21
-120.96
0
LINE
8
BLACK
6
CONTINUOUS
10
252.45
20
-120.96
11
252.45
21
-120.645
0
LINE
8
BLACK
6
CONTINUOUS
10
252.45
20
-120.645
11
252.512
21
-120.336
0
LINE
8
BLACK
6
CONTINUOUS
10
252.578
20
-121.249
11
252.694
21
-121.527
0
LINE
8
BLACK
6
CONTINUOUS
10
252.694
20
-121.527
11
252.861
21
-121.778
0
LINE
8
BLACK
6
CONTINUOUS
10
252.861
20
-121.778
11
253.074
21
-121.991
0
LINE
8
BLACK
6
CONTINUOUS
10
253.074
20
-121.991
11
253.325
21
-122.158
0
LINE
8
BLACK
6
CONTINUOUS
10
253.325
20
-122.158
11
253.603
21
-122.273
0
LINE
8
BLACK
6
CONTINUOUS
10
253.603
20
-122.273
11
253.899
21
-122.332
0
LINE
8
BLACK
6
CONTINUOUS
10
253.899
20
-122.332
11
254.2
21
-122.332
0
LINE
8
BLACK
6
CONTINUOUS
10
254.2
20
-122.332
11
254.496
21
-122.273
0
LINE
8
BLACK
6
CONTINUOUS
10
254.496
20
-122.273
11
254.774
21
-122.158
0
LINE
8
BLACK
6
CONTINUOUS
10
254.774
20
-122.158
11
255.025
21
-121.991
0
LINE
8
BLACK
6
CONTINUOUS
10
255.025
20
-121.991
11
255.238
21
-121.778
0
LINE
8
BLACK
6
CONTINUOUS
10
255.238
20
-121.778
11
255.405
21
-121.527
0
LINE
8
BLACK
6
CONTINUOUS
10
255.405
20
-121.527
11
255.52
21
-121.249
0
LINE
8
BLACK
6
CONTINUOUS
10
255.52
20
-121.249
11
255.579
21
-120.953
0
LINE
8
BLACK
6
CONTINUOUS
10
255.579
20
-120.953
11
255.579
21
-120.652
0
LINE
8
BLACK
6
CONTINUOUS
10
255.579
20
-120.652
11
255.52
21
-120.356
0
LINE
8
BLACK
6
CONTINUOUS
10
255.52
20
-120.356
11
255.405
21
-120.078
0
LINE
8
BLACK
6
CONTINUOUS
10
255.405
20
-120.078
11
255.238
21
-119.827
0
LINE
8
BLACK
6
CONTINUOUS
10
255.238
20
-119.827
11
255.025
21
-119.614
0
LINE
8
BLACK
6
CONTINUOUS
10
255.025
20
-119.614
11
254.774
21
-119.447
0
LINE
8
BLACK
6
CONTINUOUS
10
254.774
20
-119.447
11
254.496
21
-119.331
0
LINE
8
BLACK
6
CONTINUOUS
10
254.496
20
-119.331
11
254.2
21
-119.273
0
LINE
8
BLACK
6
CONTINUOUS
10
254.2
20
-119.273
11
253.899
21
-119.273
0
LINE
8
BLACK
6
CONTINUOUS
10
253.899
20
-119.273
11
253.603
21
-119.331
0
LINE
8
BLACK
6
CONTINUOUS
10
253.603
20
-119.331
11
253.325
21
-119.447
0
LINE
8
BLACK
6
CONTINUOUS
10
253.325
20
-119.447
11
253.074
21
-119.614
0
LINE
8
BLACK
6
CONTINUOUS
10
253.074
20
-119.614
11
252.861
21
-119.827
0
LINE
8
BLACK
6
CONTINUOUS
10
252.861
20
-119.827
11
252.694
21
-120.078
0
LINE
8
BLACK
6
CONTINUOUS
10
252.694
20
-120.078
11
252.578
21
-120.356
0
LINE
8
BLACK
6
CONTINUOUS
10
252.578
20
-120.356
11
252.52
21
-120.652
0
LINE
8
BLACK
6
CONTINUOUS
10
252.52
20
-120.652
11
252.52
21
-120.953
0
LINE
8
BLACK
6
CONTINUOUS
10
252.52
20
-120.953
11
252.578
21
-121.249
0
LINE
8
BLACK
6
CONTINUOUS
10
234.287
20
-52.8989
11
234.408
21
-52.6078
0
LINE
8
BLACK
6
CONTINUOUS
10
234.408
20
-52.6078
11
234.583
21
-52.3459
0
LINE
8
BLACK
6
CONTINUOUS
10
234.583
20
-52.3459
11
234.805
21
-52.1231
0
LINE
8
BLACK
6
CONTINUOUS
10
234.805
20
-52.1231
11
235.067
21
-51.9481
0
LINE
8
BLACK
6
CONTINUOUS
10
235.067
20
-51.9481
11
235.358
21
-51.8275
0
LINE
8
BLACK
6
CONTINUOUS
10
235.358
20
-51.8275
11
235.667
21
-51.766
0
LINE
8
BLACK
6
CONTINUOUS
10
235.667
20
-51.766
11
235.982
21
-51.766
0
LINE
8
BLACK
6
CONTINUOUS
10
235.982
20
-51.766
11
236.291
21
-51.8275
0
LINE
8
BLACK
6
CONTINUOUS
10
236.291
20
-51.8275
11
236.582
21
-51.9481
0
LINE
8
BLACK
6
CONTINUOUS
10
236.582
20
-51.9481
11
236.844
21
-52.1231
0
LINE
8
BLACK
6
CONTINUOUS
10
236.844
20
-52.1231
11
237.067
21
-52.3459
0
LINE
8
BLACK
6
CONTINUOUS
10
237.067
20
-52.3459
11
237.242
21
-52.6078
0
LINE
8
BLACK
6
CONTINUOUS
10
237.242
20
-52.6078
11
237.363
21
-52.8989
0
LINE
8
BLACK
6
CONTINUOUS
10
237.363
20
-52.8989
11
237.424
21
-53.2079
0
LINE
8
BLACK
6
CONTINUOUS
10
237.424
20
-53.2079
11
237.424
21
-53.5229
0
LINE
8
BLACK
6
CONTINUOUS
10
237.424
20
-53.5229
11
237.363
21
-53.8319
0
LINE
8
BLACK
6
CONTINUOUS
10
237.363
20
-53.8319
11
237.242
21
-54.123
0
LINE
8
BLACK
6
CONTINUOUS
10
237.242
20
-54.123
11
237.067
21
-54.3849
0
LINE
8
BLACK
6
CONTINUOUS
10
237.067
20
-54.3849
11
236.844
21
-54.6077
0
LINE
8
BLACK
6
CONTINUOUS
10
236.844
20
-54.6077
11
236.582
21
-54.7827
0
LINE
8
BLACK
6
CONTINUOUS
10
236.582
20
-54.7827
11
236.291
21
-54.9033
0
LINE
8
BLACK
6
CONTINUOUS
10
236.291
20
-54.9033
11
235.982
21
-54.9648
0
LINE
8
BLACK
6
CONTINUOUS
10
235.982
20
-54.9648
11
235.667
21
-54.9648
0
LINE
8
BLACK
6
CONTINUOUS
10
235.667
20
-54.9648
11
235.358
21
-54.9033
0
LINE
8
BLACK
6
CONTINUOUS
10
235.358
20
-54.9033
11
235.067
21
-54.7827
0
LINE
8
BLACK
6
CONTINUOUS
10
235.067
20
-54.7827
11
234.805
21
-54.6077
0
LINE
8
BLACK
6
CONTINUOUS
10
234.805
20
-54.6077
11
234.583
21
-54.3849
0
LINE
8
BLACK
6
CONTINUOUS
10
234.583
20
-54.3849
11
234.408
21
-54.123
0
LINE
8
BLACK
6
CONTINUOUS
10
234.408
20
-54.123
11
234.287
21
-53.8319
0
LINE
8
BLACK
6
CONTINUOUS
10
234.287
20
-53.8319
11
234.226
21
-53.5229
0
LINE
8
BLACK
6
CONTINUOUS
10
234.226
20
-53.5229
11
234.226
21
-53.2079
0
LINE
8
BLACK
6
CONTINUOUS
10
234.226
20
-53.2079
11
234.287
21
-52.8989
0
LINE
8
BLACK
6
CONTINUOUS
10
234.354
20
-53.8116
11
234.469
21
-54.09
0
LINE
8
BLACK
6
CONTINUOUS
10
234.469
20
-54.09
11
234.637
21
-54.3405
0
LINE
8
BLACK
6
CONTINUOUS
10
234.637
20
-54.3405
11
234.85
21
-54.5536
0
LINE
8
BLACK
6
CONTINUOUS
10
234.85
20
-54.5536
11
235.1
21
-54.721
0
LINE
8
BLACK
6
CONTINUOUS
10
235.1
20
-54.721
11
235.379
21
-54.8363
0
LINE
8
BLACK
6
CONTINUOUS
10
235.379
20
-54.8363
11
235.674
21
-54.8951
0
LINE
8
BLACK
6
CONTINUOUS
10
235.674
20
-54.8951
11
235.976
21
-54.8951
0
LINE
8
BLACK
6
CONTINUOUS
10
235.976
20
-54.8951
11
236.271
21
-54.8363
0
LINE
8
BLACK
6
CONTINUOUS
10
236.271
20
-54.8363
11
236.549
21
-54.721
0
LINE
8
BLACK
6
CONTINUOUS
10
236.549
20
-54.721
11
236.8
21
-54.5536
0
LINE
8
BLACK
6
CONTINUOUS
10
236.8
20
-54.5536
11
237.013
21
-54.3405
0
LINE
8
BLACK
6
CONTINUOUS
10
237.013
20
-54.3405
11
237.181
21
-54.09
0
LINE
8
BLACK
6
CONTINUOUS
10
237.181
20
-54.09
11
237.296
21
-53.8116
0
LINE
8
BLACK
6
CONTINUOUS
10
237.296
20
-53.8116
11
237.355
21
-53.5161
0
LINE
8
BLACK
6
CONTINUOUS
10
237.355
20
-53.5161
11
237.355
21
-53.2147
0
LINE
8
BLACK
6
CONTINUOUS
10
237.355
20
-53.2147
11
237.296
21
-52.9192
0
LINE
8
BLACK
6
CONTINUOUS
10
237.296
20
-52.9192
11
237.181
21
-52.6408
0
LINE
8
BLACK
6
CONTINUOUS
10
237.181
20
-52.6408
11
237.013
21
-52.3903
0
LINE
8
BLACK
6
CONTINUOUS
10
237.013
20
-52.3903
11
236.8
21
-52.1772
0
LINE
8
BLACK
6
CONTINUOUS
10
236.8
20
-52.1772
11
236.549
21
-52.0098
0
LINE
8
BLACK
6
CONTINUOUS
10
236.549
20
-52.0098
11
236.271
21
-51.8945
0
LINE
8
BLACK
6
CONTINUOUS
10
236.271
20
-51.8945
11
235.976
21
-51.8357
0
LINE
8
BLACK
6
CONTINUOUS
10
235.976
20
-51.8357
11
235.674
21
-51.8357
0
LINE
8
BLACK
6
CONTINUOUS
10
235.674
20
-51.8357
11
235.379
21
-51.8945
0
LINE
8
BLACK
6
CONTINUOUS
10
235.379
20
-51.8945
11
235.1
21
-52.0098
0
LINE
8
BLACK
6
CONTINUOUS
10
235.1
20
-52.0098
11
234.85
21
-52.1772
0
LINE
8
BLACK
6
CONTINUOUS
10
234.85
20
-52.1772
11
234.637
21
-52.3903
0
LINE
8
BLACK
6
CONTINUOUS
10
234.637
20
-52.3903
11
234.469
21
-52.6408
0
LINE
8
BLACK
6
CONTINUOUS
10
234.469
20
-52.6408
11
234.354
21
-52.9192
0
LINE
8
BLACK
6
CONTINUOUS
10
234.354
20
-52.9192
11
234.295
21
-53.2147
0
LINE
8
BLACK
6
CONTINUOUS
10
234.295
20
-53.2147
11
234.295
21
-53.5161
0
LINE
8
BLACK
6
CONTINUOUS
10
234.295
20
-53.5161
11
234.354
21
-53.8116
0
LINE
8
BLACK
6
CONTINUOUS
10
126.147
20
-50.6129
11
126.267
21
-50.3218
0
LINE
8
BLACK
6
CONTINUOUS
10
126.267
20
-50.3218
11
126.442
21
-50.0599
0
LINE
8
BLACK
6
CONTINUOUS
10
126.442
20
-50.0599
11
126.665
21
-49.8371
0
LINE
8
BLACK
6
CONTINUOUS
10
126.665
20
-49.8371
11
126.927
21
-49.6621
0
LINE
8
BLACK
6
CONTINUOUS
10
126.927
20
-49.6621
11
127.218
21
-49.5415
0
LINE
8
BLACK
6
CONTINUOUS
10
127.218
20
-49.5415
11
127.527
21
-49.48
0
LINE
8
BLACK
6
CONTINUOUS
10
127.527
20
-49.48
11
127.842
21
-49.48
0
LINE
8
BLACK
6
CONTINUOUS
10
127.842
20
-49.48
11
128.151
21
-49.5415
0
LINE
8
BLACK
6
CONTINUOUS
10
128.151
20
-49.5415
11
128.442
21
-49.6621
0
LINE
8
BLACK
6
CONTINUOUS
10
128.442
20
-49.6621
11
128.704
21
-49.8371
0
LINE
8
BLACK
6
CONTINUOUS
10
128.704
20
-49.8371
11
128.927
21
-50.0599
0
LINE
8
BLACK
6
CONTINUOUS
10
128.927
20
-50.0599
11
129.102
21
-50.3218
0
LINE
8
BLACK
6
CONTINUOUS
10
129.102
20
-50.3218
11
129.222
21
-50.6129
0
LINE
8
BLACK
6
CONTINUOUS
10
129.222
20
-50.6129
11
129.284
21
-50.9219
0
LINE
8
BLACK
6
CONTINUOUS
10
129.284
20
-50.9219
11
129.284
21
-51.2369
0
LINE
8
BLACK
6
CONTINUOUS
10
129.284
20
-51.2369
11
129.222
21
-51.5459
0
LINE
8
BLACK
6
CONTINUOUS
10
129.222
20
-51.5459
11
129.102
21
-51.837
0
LINE
8
BLACK
6
CONTINUOUS
10
129.102
20
-51.837
11
128.927
21
-52.0989
0
LINE
8
BLACK
6
CONTINUOUS
10
128.927
20
-52.0989
11
128.704
21
-52.3217
0
LINE
8
BLACK
6
CONTINUOUS
10
128.704
20
-52.3217
11
128.442
21
-52.4967
0
LINE
8
BLACK
6
CONTINUOUS
10
128.442
20
-52.4967
11
128.151
21
-52.6173
0
LINE
8
BLACK
6
CONTINUOUS
10
128.151
20
-52.6173
11
127.842
21
-52.6788
0
LINE
8
BLACK
6
CONTINUOUS
10
127.842
20
-52.6788
11
127.527
21
-52.6788
0
LINE
8
BLACK
6
CONTINUOUS
10
127.527
20
-52.6788
11
127.218
21
-52.6173
0
LINE
8
BLACK
6
CONTINUOUS
10
127.218
20
-52.6173
11
126.927
21
-52.4967
0
LINE
8
BLACK
6
CONTINUOUS
10
126.927
20
-52.4967
11
126.665
21
-52.3217
0
LINE
8
BLACK
6
CONTINUOUS
10
126.665
20
-52.3217
11
126.442
21
-52.0989
0
LINE
8
BLACK
6
CONTINUOUS
10
126.442
20
-52.0989
11
126.267
21
-51.837
0
LINE
8
BLACK
6
CONTINUOUS
10
126.267
20
-51.837
11
126.147
21
-51.5459
0
LINE
8
BLACK
6
CONTINUOUS
10
126.147
20
-51.5459
11
126.085
21
-51.2369
0
LINE
8
BLACK
6
CONTINUOUS
10
126.085
20
-51.2369
11
126.085
21
-50.9219
0
LINE
8
BLACK
6
CONTINUOUS
10
126.085
20
-50.9219
11
126.147
21
-50.6129
0
LINE
8
BLACK
6
CONTINUOUS
10
126.213
20
-51.5256
11
126.329
21
-51.804
0
LINE
8
BLACK
6
CONTINUOUS
10
126.329
20
-51.804
11
126.496
21
-52.0545
0
LINE
8
BLACK
6
CONTINUOUS
10
126.496
20
-52.0545
11
126.709
21
-52.2676
0
LINE
8
BLACK
6
CONTINUOUS
10
126.709
20
-52.2676
11
126.96
21
-52.435
0
LINE
8
BLACK
6
CONTINUOUS
10
126.96
20
-52.435
11
127.238
21
-52.5503
0
LINE
8
BLACK
6
CONTINUOUS
10
127.238
20
-52.5503
11
127.534
21
-52.6091
0
LINE
8
BLACK
6
CONTINUOUS
10
127.534
20
-52.6091
11
127.835
21
-52.6091
0
LINE
8
BLACK
6
CONTINUOUS
10
127.835
20
-52.6091
11
128.131
21
-52.5503
0
LINE
8
BLACK
6
CONTINUOUS
10
128.131
20
-52.5503
11
128.409
21
-52.435
0
LINE
8
BLACK
6
CONTINUOUS
10
128.409
20
-52.435
11
128.66
21
-52.2676
0
LINE
8
BLACK
6
CONTINUOUS
10
128.66
20
-52.2676
11
128.873
21
-52.0545
0
LINE
8
BLACK
6
CONTINUOUS
10
128.873
20
-52.0545
11
129.04
21
-51.804
0
LINE
8
BLACK
6
CONTINUOUS
10
129.04
20
-51.804
11
129.155
21
-51.5256
0
LINE
8
BLACK
6
CONTINUOUS
10
129.155
20
-51.5256
11
129.214
21
-51.2301
0
LINE
8
BLACK
6
CONTINUOUS
10
129.214
20
-51.2301
11
129.214
21
-50.9287
0
LINE
8
BLACK
6
CONTINUOUS
10
129.214
20
-50.9287
11
129.155
21
-50.6332
0
LINE
8
BLACK
6
CONTINUOUS
10
129.155
20
-50.6332
11
129.04
21
-50.3548
0
LINE
8
BLACK
6
CONTINUOUS
10
129.04
20
-50.3548
11
128.873
21
-50.1043
0
LINE
8
BLACK
6
CONTINUOUS
10
128.873
20
-50.1043
11
128.66
21
-49.8912
0
LINE
8
BLACK
6
CONTINUOUS
10
128.66
20
-49.8912
11
128.409
21
-49.7238
0
LINE
8
BLACK
6
CONTINUOUS
10
128.409
20
-49.7238
11
128.131
21
-49.6085
0
LINE
8
BLACK
6
CONTINUOUS
10
128.131
20
-49.6085
11
127.835
21
-49.5497
0
LINE
8
BLACK
6
CONTINUOUS
10
127.835
20
-49.5497
11
127.534
21
-49.5497
0
LINE
8
BLACK
6
CONTINUOUS
10
127.534
20
-49.5497
11
127.238
21
-49.6085
0
LINE
8
BLACK
6
CONTINUOUS
10
127.238
20
-49.6085
11
126.96
21
-49.7238
0
LINE
8
BLACK
6
CONTINUOUS
10
126.96
20
-49.7238
11
126.709
21
-49.8912
0
LINE
8
BLACK
6
CONTINUOUS
10
126.709
20
-49.8912
11
126.496
21
-50.1043
0
LINE
8
BLACK
6
CONTINUOUS
10
126.496
20
-50.1043
11
126.329
21
-50.3548
0
LINE
8
BLACK
6
CONTINUOUS
10
126.329
20
-50.3548
11
126.213
21
-50.6332
0
LINE
8
BLACK
6
CONTINUOUS
10
126.213
20
-50.6332
11
126.155
21
-50.9287
0
LINE
8
BLACK
6
CONTINUOUS
10
126.155
20
-50.9287
11
126.155
21
-51.2301
0
LINE
8
BLACK
6
CONTINUOUS
10
126.155
20
-51.2301
11
126.213
21
-51.5256
  0
ENDSEC
  0
EOF
