<?xml version="1.0" standalone="no"?>
 <!DOCTYPE svg PUBLIC "-//W3C//DTD SVG 1.1//EN" 
 "http://www.w3.org/Graphics/SVG/1.1/DTD/svg11.dtd"> 
<svg xmlns="http://www.w3.org/2000/svg" version="1.1" 
    width="59.4004cm" height="41.9989cm" viewBox="0 0 233860 165350 ">
<title>SVG Picture created as Apollo-Dwgs_User.svg date 2020/02/28 14:15:39 </title>
  <desc>Picture generated by PCBNEW </desc>
<g style="fill:#000000; fill-opacity:1;stroke:#000000; stroke-opacity:1;
stroke-linecap:round; stroke-linejoin:round; "
 transform="translate(0 0) scale(1 1)">
</g>
<g style="fill:#000000; fill-opacity:0.0; 
stroke:#000000; stroke-width:-0.000393701; stroke-opacity:1; 
stroke-linecap:round; stroke-linejoin:round;">
</g>
<g style="fill:#000000; fill-opacity:0.0; 
stroke:#000000; stroke-width:59.0551; stroke-opacity:1; 
stroke-linecap:round; stroke-linejoin:round;">
<path d="M30968 27044
L31755 27044
" />
<path d="M31755 27044
L31755 27831
" />
<path d="M30968 32555
L31755 32555
" />
<path d="M31755 32555
L31755 31768
" />
<path d="M26244 31768
L26244 32555
" />
<path d="M26244 32555
L27031 32555
" />
<path d="M27031 27044
L26244 27044
" />
<path d="M26244 27044
L26244 27831
" />
<path d="M23375 26050
L34625 26050
" />
<path d="M34625 26050
L34625 33550
" />
<path d="M23375 33550
L34625 33550
" />
<path d="M23375 33550
L23375 26050
" />
<path d="M32843 27044
L33630 27044
" />
<path d="M33630 27044
L33630 27831
" />
<path d="M32843 32555
L33630 32555
" />
<path d="M33630 32555
L33630 31768
" />
<path d="M28119 31768
L28119 32555
" />
<path d="M28119 32555
L28906 32555
" />
<path d="M28906 27044
L28119 27044
" />
<path d="M28119 27044
L28119 27831
" />
<path d="M27125 26050
L34625 26050
" />
<path d="M34625 26050
L34625 33550
" />
<path d="M34625 33550
L27125 33550
" />
<path d="M27125 33550
L27125 26050
" />
<path d="M70743 55115
L64616 64550
" />
<path d="M77033 59199
L70743 55115
" />
<path d="M70906 68634
L64616 64550
" />
<path d="M77033 59199
L70906 68634
" />
<path d="M70014 58062
L69585 58723
" />
<path d="M70675 58491
L70014 58062
" />
<path d="M67012 62685
L67673 63114
" />
<path d="M67441 62024
L67012 62685
" />
<path d="M71635 65687
L72064 65026
" />
<path d="M70974 65258
L71635 65687
" />
<path d="M74637 61064
L74208 61725
" />
<path d="M73976 60635
L74637 61064
" />
<path d="M62843 25169
L63630 25169
" />
<path d="M63630 25169
L63630 25956
" />
<path d="M62843 30680
L63630 30680
" />
<path d="M63630 30680
L63630 29893
" />
<path d="M58119 29893
L58119 30680
" />
<path d="M58119 30680
L58906 30680
" />
<path d="M58906 25169
L58119 25169
" />
<path d="M58119 25169
L58119 25956
" />
<path d="M57125 24175
L64625 24175
" />
<path d="M64625 24175
L64625 31675
" />
<path d="M64625 31675
L57125 31675
" />
<path d="M57125 31675
L57125 24175
" />
<path d="M66217 56248
L64276 63492
" />
<path d="M58973 54307
L66217 56248
" />
<path d="M57032 61551
L58973 54307
" />
<path d="M64276 63492
L57032 61551
" />
<path d="M63573 62275
L63777 61514
" />
<path d="M62813 62071
L63573 62275
" />
<path d="M65000 56951
L64239 56747
" />
<path d="M64796 57711
L65000 56951
" />
<path d="M59676 55524
L59472 56285
" />
<path d="M60436 55728
L59676 55524
" />
<path d="M58249 60848
L58453 60088
" />
<path d="M59010 61052
L58249 60848
" />
<path d="M32865 22540
L36384 22540
" />
<path d="M32865 22540
L32865 25414
" />
<path d="M36384 22540
L36384 25414
" />
<path d="M32865 25414
L36384 25414
" />
<path d="M62865 22550
L66384 22550
" />
<path d="M62865 22550
L62865 25424
" />
<path d="M66384 22550
L66384 25424
" />
<path d="M62865 25424
L66384 25424
" />
<path d="M64625 32625
L64625 25125
" />
<path d="M72125 32625
L64625 32625
" />
<path d="M72125 25125
L72125 32625
" />
<path d="M64625 25125
L72125 25125
" />
<path d="M65619 26119
L65619 26906
" />
<path d="M66406 26119
L65619 26119
" />
<path d="M65619 31630
L66406 31630
" />
<path d="M65619 30843
L65619 31630
" />
<path d="M71130 31630
L71130 30843
" />
<path d="M70343 31630
L71130 31630
" />
<path d="M71130 26119
L71130 26906
" />
<path d="M70343 26119
L71130 26119
" />
<path d="M55343 46744
L56130 46744
" />
<path d="M56130 46744
L56130 47531
" />
<path d="M55343 52255
L56130 52255
" />
<path d="M56130 52255
L56130 51468
" />
<path d="M50619 51468
L50619 52255
" />
<path d="M50619 52255
L51406 52255
" />
<path d="M51406 46744
L50619 46744
" />
<path d="M50619 46744
L50619 47531
" />
<path d="M49625 45750
L57125 45750
" />
<path d="M57125 45750
L57125 53250
" />
<path d="M57125 53250
L49625 53250
" />
<path d="M49625 53250
L49625 45750
" />
<path d="M34625 33550
L34625 26050
" />
<path d="M42125 33550
L34625 33550
" />
<path d="M42125 26050
L42125 33550
" />
<path d="M34625 26050
L42125 26050
" />
<path d="M35619 27044
L35619 27831
" />
<path d="M36406 27044
L35619 27044
" />
<path d="M35619 32555
L36406 32555
" />
<path d="M35619 31768
L35619 32555
" />
<path d="M41130 32555
L41130 31768
" />
<path d="M40343 32555
L41130 32555
" />
<path d="M41130 27044
L41130 27831
" />
<path d="M40343 27044
L41130 27044
" />
<path d="M47843 25169
L48630 25169
" />
<path d="M48630 25169
L48630 25956
" />
<path d="M47843 30680
L48630 30680
" />
<path d="M48630 30680
L48630 29893
" />
<path d="M43119 29893
L43119 30680
" />
<path d="M43119 30680
L43906 30680
" />
<path d="M43906 25169
L43119 25169
" />
<path d="M43119 25169
L43119 25956
" />
<path d="M42125 24175
L49625 24175
" />
<path d="M49625 24175
L49625 31675
" />
<path d="M49625 31675
L42125 31675
" />
<path d="M42125 31675
L42125 24175
" />
<path d="M49625 30750
L49625 23250
" />
<path d="M57125 30750
L49625 30750
" />
<path d="M57125 23250
L57125 30750
" />
<path d="M49625 23250
L57125 23250
" />
<path d="M50619 24244
L50619 25031
" />
<path d="M51406 24244
L50619 24244
" />
<path d="M50619 29755
L51406 29755
" />
<path d="M50619 28968
L50619 29755
" />
<path d="M56130 29755
L56130 28968
" />
<path d="M55343 29755
L56130 29755
" />
<path d="M56130 24244
L56130 25031
" />
<path d="M55343 24244
L56130 24244
" />
<path d="M23375 41050
L23375 33550
" />
<path d="M23375 41050
L34625 41050
" />
<path d="M34625 33550
L34625 41050
" />
<path d="M23375 33550
L34625 33550
" />
<path d="M26244 34544
L26244 35331
" />
<path d="M27031 34544
L26244 34544
" />
<path d="M26244 40055
L27031 40055
" />
<path d="M26244 39268
L26244 40055
" />
<path d="M31755 40055
L31755 39268
" />
<path d="M30968 40055
L31755 40055
" />
<path d="M31755 34544
L31755 35331
" />
<path d="M30968 34544
L31755 34544
" />
<path d="M34625 41050
L34625 33550
" />
<path d="M42125 41050
L34625 41050
" />
<path d="M42125 33550
L42125 41050
" />
<path d="M34625 33550
L42125 33550
" />
<path d="M35619 34544
L35619 35331
" />
<path d="M36406 34544
L35619 34544
" />
<path d="M35619 40055
L36406 40055
" />
<path d="M35619 39268
L35619 40055
" />
<path d="M41130 40055
L41130 39268
" />
<path d="M40343 40055
L41130 40055
" />
<path d="M41130 34544
L41130 35331
" />
<path d="M40343 34544
L41130 34544
" />
<path d="M47843 32669
L48630 32669
" />
<path d="M48630 32669
L48630 33456
" />
<path d="M47843 38180
L48630 38180
" />
<path d="M48630 38180
L48630 37393
" />
<path d="M43119 37393
L43119 38180
" />
<path d="M43119 38180
L43906 38180
" />
<path d="M43906 32669
L43119 32669
" />
<path d="M43119 32669
L43119 33456
" />
<path d="M42125 31675
L49625 31675
" />
<path d="M49625 31675
L49625 39175
" />
<path d="M49625 39175
L42125 39175
" />
<path d="M42125 39175
L42125 31675
" />
<path d="M49625 38250
L49625 30750
" />
<path d="M57125 38250
L49625 38250
" />
<path d="M57125 30750
L57125 38250
" />
<path d="M49625 30750
L57125 30750
" />
<path d="M50619 31744
L50619 32531
" />
<path d="M51406 31744
L50619 31744
" />
<path d="M50619 37255
L51406 37255
" />
<path d="M50619 36468
L50619 37255
" />
<path d="M56130 37255
L56130 36468
" />
<path d="M55343 37255
L56130 37255
" />
<path d="M56130 31744
L56130 32531
" />
<path d="M55343 31744
L56130 31744
" />
<path d="M62843 32669
L63630 32669
" />
<path d="M63630 32669
L63630 33456
" />
<path d="M62843 38180
L63630 38180
" />
<path d="M63630 38180
L63630 37393
" />
<path d="M58119 37393
L58119 38180
" />
<path d="M58119 38180
L58906 38180
" />
<path d="M58906 32669
L58119 32669
" />
<path d="M58119 32669
L58119 33456
" />
<path d="M57125 31675
L64625 31675
" />
<path d="M64625 31675
L64625 39175
" />
<path d="M64625 39175
L57125 39175
" />
<path d="M57125 39175
L57125 31675
" />
<path d="M70343 33619
L71130 33619
" />
<path d="M71130 33619
L71130 34406
" />
<path d="M70343 39130
L71130 39130
" />
<path d="M71130 39130
L71130 38343
" />
<path d="M65619 38343
L65619 39130
" />
<path d="M65619 39130
L66406 39130
" />
<path d="M66406 33619
L65619 33619
" />
<path d="M65619 33619
L65619 34406
" />
<path d="M64625 32625
L72125 32625
" />
<path d="M72125 32625
L72125 40125
" />
<path d="M72125 40125
L64625 40125
" />
<path d="M64625 40125
L64625 32625
" />
<path d="M40343 42044
L41130 42044
" />
<path d="M41130 42044
L41130 42831
" />
<path d="M40343 47555
L41130 47555
" />
<path d="M41130 47555
L41130 46768
" />
<path d="M35619 46768
L35619 47555
" />
<path d="M35619 47555
L36406 47555
" />
<path d="M36406 42044
L35619 42044
" />
<path d="M35619 42044
L35619 42831
" />
<path d="M34625 41050
L42125 41050
" />
<path d="M42125 41050
L42125 48550
" />
<path d="M42125 48550
L34625 48550
" />
<path d="M34625 48550
L34625 41050
" />
<path d="M42125 46675
L42125 39175
" />
<path d="M49625 46675
L42125 46675
" />
<path d="M49625 39175
L49625 46675
" />
<path d="M42125 39175
L49625 39175
" />
<path d="M43119 40169
L43119 40956
" />
<path d="M43906 40169
L43119 40169
" />
<path d="M43119 45680
L43906 45680
" />
<path d="M43119 44893
L43119 45680
" />
<path d="M48630 45680
L48630 44893
" />
<path d="M47843 45680
L48630 45680
" />
<path d="M48630 40169
L48630 40956
" />
<path d="M47843 40169
L48630 40169
" />
<path d="M55343 39244
L56130 39244
" />
<path d="M56130 39244
L56130 40031
" />
<path d="M55343 44755
L56130 44755
" />
<path d="M56130 44755
L56130 43968
" />
<path d="M50619 43968
L50619 44755
" />
<path d="M50619 44755
L51406 44755
" />
<path d="M51406 39244
L50619 39244
" />
<path d="M50619 39244
L50619 40031
" />
<path d="M49625 38250
L57125 38250
" />
<path d="M57125 38250
L57125 45750
" />
<path d="M57125 45750
L49625 45750
" />
<path d="M49625 45750
L49625 38250
" />
<path d="M57125 46675
L57125 39175
" />
<path d="M64625 46675
L57125 46675
" />
<path d="M64625 39175
L64625 46675
" />
<path d="M57125 39175
L64625 39175
" />
<path d="M58119 40169
L58119 40956
" />
<path d="M58906 40169
L58119 40169
" />
<path d="M58119 45680
L58906 45680
" />
<path d="M58119 44893
L58119 45680
" />
<path d="M63630 45680
L63630 44893
" />
<path d="M62843 45680
L63630 45680
" />
<path d="M63630 40169
L63630 40956
" />
<path d="M62843 40169
L63630 40169
" />
<path d="M70343 41119
L71130 41119
" />
<path d="M71130 41119
L71130 41906
" />
<path d="M70343 46630
L71130 46630
" />
<path d="M71130 46630
L71130 45843
" />
<path d="M65619 45843
L65619 46630
" />
<path d="M65619 46630
L66406 46630
" />
<path d="M66406 41119
L65619 41119
" />
<path d="M65619 41119
L65619 41906
" />
<path d="M64625 40125
L72125 40125
" />
<path d="M72125 40125
L72125 47625
" />
<path d="M72125 47625
L64625 47625
" />
<path d="M64625 47625
L64625 40125
" />
<path d="M30968 49544
L31755 49544
" />
<path d="M31755 49544
L31755 50331
" />
<path d="M30968 55055
L31755 55055
" />
<path d="M31755 55055
L31755 54268
" />
<path d="M26244 54268
L26244 55055
" />
<path d="M26244 55055
L27031 55055
" />
<path d="M27031 49544
L26244 49544
" />
<path d="M26244 49544
L26244 50331
" />
<path d="M23375 48550
L34625 48550
" />
<path d="M34625 48550
L34625 56050
" />
<path d="M23375 56050
L34625 56050
" />
<path d="M23375 56050
L23375 48550
" />
<path d="M40343 49544
L41130 49544
" />
<path d="M41130 49544
L41130 50331
" />
<path d="M40343 55055
L41130 55055
" />
<path d="M41130 55055
L41130 54268
" />
<path d="M35619 54268
L35619 55055
" />
<path d="M35619 55055
L36406 55055
" />
<path d="M36406 49544
L35619 49544
" />
<path d="M35619 49544
L35619 50331
" />
<path d="M34625 48550
L42125 48550
" />
<path d="M42125 48550
L42125 56050
" />
<path d="M42125 56050
L34625 56050
" />
<path d="M34625 56050
L34625 48550
" />
<path d="M42125 54175
L42125 46675
" />
<path d="M49625 54175
L42125 54175
" />
<path d="M49625 46675
L49625 54175
" />
<path d="M42125 46675
L49625 46675
" />
<path d="M43119 47669
L43119 48456
" />
<path d="M43906 47669
L43119 47669
" />
<path d="M43119 53180
L43906 53180
" />
<path d="M43119 52393
L43119 53180
" />
<path d="M48630 53180
L48630 52393
" />
<path d="M47843 53180
L48630 53180
" />
<path d="M48630 47669
L48630 48456
" />
<path d="M47843 47669
L48630 47669
" />
<path d="M57125 54175
L57125 46675
" />
<path d="M64625 54175
L57125 54175
" />
<path d="M64625 46675
L64625 54175
" />
<path d="M57125 46675
L64625 46675
" />
<path d="M58119 47669
L58119 48456
" />
<path d="M58906 47669
L58119 47669
" />
<path d="M58119 53180
L58906 53180
" />
<path d="M58119 52393
L58119 53180
" />
<path d="M63630 53180
L63630 52393
" />
<path d="M62843 53180
L63630 53180
" />
<path d="M63630 47669
L63630 48456
" />
<path d="M62843 47669
L63630 47669
" />
<path d="M70343 48619
L71130 48619
" />
<path d="M71130 48619
L71130 49406
" />
<path d="M70343 54130
L71130 54130
" />
<path d="M71130 54130
L71130 53343
" />
<path d="M65619 53343
L65619 54130
" />
<path d="M65619 54130
L66406 54130
" />
<path d="M66406 48619
L65619 48619
" />
<path d="M65619 48619
L65619 49406
" />
<path d="M64625 47625
L72125 47625
" />
<path d="M72125 47625
L72125 55125
" />
<path d="M72125 55125
L64625 55125
" />
<path d="M64625 55125
L64625 47625
" />
<path d="M30968 57044
L31755 57044
" />
<path d="M31755 57044
L31755 57831
" />
<path d="M30968 62555
L31755 62555
" />
<path d="M31755 62555
L31755 61768
" />
<path d="M26244 61768
L26244 62555
" />
<path d="M26244 62555
L27031 62555
" />
<path d="M27031 57044
L26244 57044
" />
<path d="M26244 57044
L26244 57831
" />
<path d="M23375 56050
L34625 56050
" />
<path d="M34625 56050
L34625 63550
" />
<path d="M23375 63550
L34625 63550
" />
<path d="M23375 63550
L23375 56050
" />
<path d="M40343 57044
L41130 57044
" />
<path d="M41130 57044
L41130 57831
" />
<path d="M40343 62555
L41130 62555
" />
<path d="M41130 62555
L41130 61768
" />
<path d="M35619 61768
L35619 62555
" />
<path d="M35619 62555
L36406 62555
" />
<path d="M36406 57044
L35619 57044
" />
<path d="M35619 57044
L35619 57831
" />
<path d="M34625 56050
L42125 56050
" />
<path d="M42125 56050
L42125 63550
" />
<path d="M42125 63550
L34625 63550
" />
<path d="M34625 63550
L34625 56050
" />
<path d="M42125 61675
L42125 54175
" />
<path d="M49625 61675
L42125 61675
" />
<path d="M49625 54175
L49625 61675
" />
<path d="M42125 54175
L49625 54175
" />
<path d="M43119 55169
L43119 55956
" />
<path d="M43906 55169
L43119 55169
" />
<path d="M43119 60680
L43906 60680
" />
<path d="M43119 59893
L43119 60680
" />
<path d="M48630 60680
L48630 59893
" />
<path d="M47843 60680
L48630 60680
" />
<path d="M48630 55169
L48630 55956
" />
<path d="M47843 55169
L48630 55169
" />
<path d="M55343 54244
L56130 54244
" />
<path d="M56130 54244
L56130 55031
" />
<path d="M55343 59755
L56130 59755
" />
<path d="M56130 59755
L56130 58968
" />
<path d="M50619 58968
L50619 59755
" />
<path d="M50619 59755
L51406 59755
" />
<path d="M51406 54244
L50619 54244
" />
<path d="M50619 54244
L50619 55031
" />
<path d="M49625 53250
L57125 53250
" />
<path d="M57125 53250
L57125 60750
" />
<path d="M57125 60750
L49625 60750
" />
<path d="M49625 60750
L49625 53250
" />
<path d="M27125 41050
L27125 33550
" />
<path d="M34625 41050
L27125 41050
" />
<path d="M34625 33550
L34625 41050
" />
<path d="M27125 33550
L34625 33550
" />
<path d="M28119 34544
L28119 35331
" />
<path d="M28906 34544
L28119 34544
" />
<path d="M28119 40055
L28906 40055
" />
<path d="M28119 39268
L28119 40055
" />
<path d="M33630 40055
L33630 39268
" />
<path d="M32843 40055
L33630 40055
" />
<path d="M33630 34544
L33630 35331
" />
<path d="M32843 34544
L33630 34544
" />
<path d="M27125 56050
L27125 48550
" />
<path d="M34625 56050
L27125 56050
" />
<path d="M34625 48550
L34625 56050
" />
<path d="M27125 48550
L34625 48550
" />
<path d="M28119 49544
L28119 50331
" />
<path d="M28906 49544
L28119 49544
" />
<path d="M28119 55055
L28906 55055
" />
<path d="M28119 54268
L28119 55055
" />
<path d="M33630 55055
L33630 54268
" />
<path d="M32843 55055
L33630 55055
" />
<path d="M33630 49544
L33630 50331
" />
<path d="M32843 49544
L33630 49544
" />
<path d="M32843 57044
L33630 57044
" />
<path d="M33630 57044
L33630 57831
" />
<path d="M32843 62555
L33630 62555
" />
<path d="M33630 62555
L33630 61768
" />
<path d="M28119 61768
L28119 62555
" />
<path d="M28119 62555
L28906 62555
" />
<path d="M28906 57044
L28119 57044
" />
<path d="M28119 57044
L28119 57831
" />
<path d="M27125 56050
L34625 56050
" />
<path d="M34625 56050
L34625 63550
" />
<path d="M34625 63550
L27125 63550
" />
<path d="M27125 63550
L27125 56050
" />
<path d="M34625 41050
L34625 48550
" />
<path d="M34625 41050
L23375 41050
" />
<path d="M23375 48550
L23375 41050
" />
<path d="M34625 48550
L23375 48550
" />
<path d="M31755 47555
L31755 46768
" />
<path d="M30968 47555
L31755 47555
" />
<path d="M31755 42044
L30968 42044
" />
<path d="M31755 42831
L31755 42044
" />
<path d="M26244 42044
L26244 42831
" />
<path d="M27031 42044
L26244 42044
" />
<path d="M26244 47555
L26244 46768
" />
<path d="M27031 47555
L26244 47555
" />
<path d="M28906 47555
L28119 47555
" />
<path d="M28119 47555
L28119 46768
" />
<path d="M28906 42044
L28119 42044
" />
<path d="M28119 42044
L28119 42831
" />
<path d="M33630 42831
L33630 42044
" />
<path d="M33630 42044
L32843 42044
" />
<path d="M32843 47555
L33630 47555
" />
<path d="M33630 47555
L33630 46768
" />
<path d="M34625 48550
L27125 48550
" />
<path d="M27125 48550
L27125 41050
" />
<path d="M27125 41050
L34625 41050
" />
<path d="M34625 41050
L34625 48550
" />
<path d="M80251 64710
L80912 65139
" />
<path d="M80912 65139
L80483 65800
" />
<path d="M77249 69333
L77910 69762
" />
<path d="M77910 69762
L78339 69101
" />
<path d="M73716 66099
L73287 66760
" />
<path d="M73287 66760
L73948 67189
" />
<path d="M76950 62566
L76289 62137
" />
<path d="M76289 62137
L75860 62798
" />
<path d="M83308 63274
L77181 72709
" />
<path d="M77181 72709
L70891 68625
" />
<path d="M83308 63274
L77018 59190
" />
<path d="M77018 59190
L70891 68625
" />
<g >
</g>
<g >
</g>
<g >
</g>
<g >
</g>
<g >
</g>
<g >
</g>
<g >
</g>
<g >
</g>
<g >
</g>
<g >
</g>
<g >
</g>
<g >
</g>
<g >
</g>
<g >
</g>
<g >
</g>
<g >
</g>
<g >
</g>
<g >
</g>
<g >
</g>
<g >
</g>
<g >
</g>
<g >
</g>
<g >
</g>
<g >
</g>
<g >
</g>
<g >
</g>
<g >
</g>
<g >
</g>
<g >
</g>
<g >
</g>
<g >
</g>
<g >
</g>
<g >
</g>
<g >
</g>
<g >
</g>
<g >
</g>
<g >
</g>
<g >
</g>
<g >
</g>
<g >
</g>
<g >
</g>
<g >
</g>
<g >
</g>
<g >
</g>
<g >
</g>
<g >
</g>
<g >
</g>
<g >
</g>
<g >
</g>
<g >
</g>
<g >
</g>
<g >
</g>
<g >
</g>
<g >
</g>
<g >
</g>
<g >
</g>
<g >
</g>
<g >
</g>
<g >
</g>
<g >
</g>
<g >
</g>
<g >
</g>
<g >
</g>
<g >
</g>
<g >
</g>
<g >
</g>
<g >
</g>
<g >
</g>
<g >
</g>
<g >
</g>
<g >
</g>
<g >
</g>
<g >
</g>
<g >
</g>
<g >
</g>
<g >
</g>
<g >
</g>
<g >
</g>
<g >
</g>
<g >
</g>
<g >
</g>
<g >
</g>
<g >
</g>
<g >
</g>
<g >
</g>
<g >
</g>
<g >
</g>
<g >
</g>
<g >
</g>
<g >
</g>
<g >
</g>
<g >
</g>
<g >
</g>
<g >
</g>
</g>
<g style="fill:#000000; fill-opacity:0.0; 
stroke:#000000; stroke-width:59.0551; stroke-opacity:1; 
stroke-linecap:round; stroke-linejoin:round;">
<text x="29000" y="31246.9"
textLength="1276.62" font-size="524.934" lengthAdjust="spacingAndGlyphs"
text-anchor="middle" opacity="0">MX1</text>
<path d="M28493 31228
L28493 30834
L28625 31115
L28756 30834
L28756 31228
" />
<path d="M28906 30834
L29168 31228
" />
<path d="M29168 30834
L28906 31228
" />
<path d="M29524 31228
L29299 31228
" />
<path d="M29412 31228
L29412 30834
L29374 30890
L29337 30928
L29299 30946
" />
<text x="29000" y="26871.9"
textLength="3226.38" font-size="524.934" lengthAdjust="spacingAndGlyphs"
text-anchor="middle" opacity="0">MX-NoLED</text>
<path d="M27518 26853
L27518 26459
L27650 26740
L27781 26459
L27781 26853
" />
<path d="M27931 26459
L28193 26853
" />
<path d="M28193 26459
L27931 26853
" />
<path d="M28343 26703
L28643 26703
" />
<path d="M28831 26853
L28831 26459
L29056 26853
L29056 26459
" />
<path d="M29299 26853
L29262 26834
L29243 26815
L29224 26778
L29224 26665
L29243 26628
L29262 26609
L29299 26590
L29356 26590
L29393 26609
L29412 26628
L29431 26665
L29431 26778
L29412 26815
L29393 26834
L29356 26853
L29299 26853
" />
<path d="M29787 26853
L29599 26853
L29599 26459
" />
<path d="M29918 26646
L30049 26646
" />
<path d="M30106 26853
L29918 26853
L29918 26459
L30106 26459
" />
<path d="M30274 26853
L30274 26459
L30368 26459
L30424 26478
L30462 26515
L30481 26553
L30499 26628
L30499 26684
L30481 26759
L30462 26796
L30424 26834
L30368 26853
L30274 26853
" />
<text x="30875" y="31246.9"
textLength="1651.57" font-size="524.934" lengthAdjust="spacingAndGlyphs"
text-anchor="middle" opacity="0">MX63</text>
<path d="M30181 31228
L30181 30834
L30312 31115
L30443 30834
L30443 31228
" />
<path d="M30593 30834
L30856 31228
" />
<path d="M30856 30834
L30593 31228
" />
<path d="M31174 30834
L31099 30834
L31062 30853
L31043 30871
L31006 30928
L30987 31003
L30987 31153
L31006 31190
L31024 31209
L31062 31228
L31137 31228
L31174 31209
L31193 31190
L31212 31153
L31212 31059
L31193 31021
L31174 31003
L31137 30984
L31062 30984
L31024 31003
L31006 31021
L30987 31059
" />
<path d="M31343 30834
L31587 30834
L31456 30984
L31512 30984
L31549 31003
L31568 31021
L31587 31059
L31587 31153
L31568 31190
L31549 31209
L31512 31228
L31399 31228
L31362 31209
L31343 31190
" />
<text x="30875" y="26871.9"
textLength="3226.38" font-size="524.934" lengthAdjust="spacingAndGlyphs"
text-anchor="middle" opacity="0">MX-NoLED</text>
<path d="M29393 26853
L29393 26459
L29525 26740
L29656 26459
L29656 26853
" />
<path d="M29806 26459
L30068 26853
" />
<path d="M30068 26459
L29806 26853
" />
<path d="M30218 26703
L30518 26703
" />
<path d="M30706 26853
L30706 26459
L30931 26853
L30931 26459
" />
<path d="M31174 26853
L31137 26834
L31118 26815
L31099 26778
L31099 26665
L31118 26628
L31137 26609
L31174 26590
L31231 26590
L31268 26609
L31287 26628
L31306 26665
L31306 26778
L31287 26815
L31268 26834
L31231 26853
L31174 26853
" />
<path d="M31662 26853
L31474 26853
L31474 26459
" />
<path d="M31793 26646
L31924 26646
" />
<path d="M31981 26853
L31793 26853
L31793 26459
L31981 26459
" />
<path d="M32149 26853
L32149 26459
L32243 26459
L32299 26478
L32337 26515
L32356 26553
L32374 26628
L32374 26684
L32356 26759
L32337 26796
L32299 26834
L32243 26853
L32149 26853
" />
<g transform="rotate(33 70144.2 62923.3)">
<text x="70144.2" y="63120.2"
textLength="1651.57" font-size="524.934" lengthAdjust="spacingAndGlyphs"
text-anchor="middle" opacity="0">MX30</text>
</g>
<path d="M69465 62694
L69679 62364
L69636 62672
L69899 62507
L69685 62837
" />
<path d="M70025 62589
L70031 63062
" />
<path d="M70245 62732
L69811 62919
" />
<path d="M70340 62793
L70544 62926
L70352 62980
L70400 63011
L70421 63047
L70426 63073
L70422 63114
L70371 63193
L70334 63214
L70308 63220
L70267 63215
L70172 63154
L70151 63118
L70146 63092
" />
<path d="M70749 63059
L70780 63079
L70801 63115
L70807 63141
L70802 63183
L70777 63256
L70726 63334
L70669 63387
L70633 63408
L70607 63414
L70566 63409
L70534 63389
L70513 63353
L70507 63327
L70512 63285
L70537 63212
L70588 63133
L70645 63081
L70681 63059
L70707 63054
L70749 63059
" />
<g transform="rotate(33 72527 59254.2)">
<text x="72527" y="59451"
textLength="3226.38" font-size="524.934" lengthAdjust="spacingAndGlyphs"
text-anchor="middle" opacity="0">MX-NoLED</text>
</g>
<path d="M71187 58596
L71402 58266
L71359 58574
L71622 58409
L71407 58739
" />
<path d="M71748 58491
L71753 58964
" />
<path d="M71968 58634
L71533 58821
" />
<path d="M71961 58920
L72212 59083
" />
<path d="M72288 59311
L72502 58981
L72477 59434
L72691 59103
" />
<path d="M72681 59566
L72660 59530
L72654 59504
L72659 59463
L72720 59368
L72756 59347
L72782 59342
L72824 59346
L72871 59377
L72892 59413
L72898 59439
L72893 59481
L72832 59575
L72796 59596
L72770 59602
L72728 59597
L72681 59566
" />
<path d="M73090 59832
L72933 59730
L73147 59400
" />
<path d="M73312 59730
L73422 59802
" />
<path d="M73357 60005
L73200 59903
L73414 59573
L73572 59675
" />
<path d="M73499 60097
L73713 59767
L73792 59818
L73829 59865
L73840 59916
L73835 59958
L73810 60031
L73779 60078
L73723 60131
L73687 60152
L73635 60163
L73577 60148
L73499 60097
" />
<text x="60875" y="29371.9"
textLength="1276.62" font-size="524.934" lengthAdjust="spacingAndGlyphs"
text-anchor="middle" opacity="0">MX5</text>
<path d="M60368 29353
L60368 28959
L60500 29240
L60631 28959
L60631 29353
" />
<path d="M60781 28959
L61043 29353
" />
<path d="M61043 28959
L60781 29353
" />
<path d="M61381 28959
L61193 28959
L61174 29146
L61193 29128
L61231 29109
L61324 29109
L61362 29128
L61381 29146
L61399 29184
L61399 29278
L61381 29315
L61362 29334
L61324 29353
L61231 29353
L61193 29334
L61174 29315
" />
<text x="60875" y="24996.9"
textLength="3226.38" font-size="524.934" lengthAdjust="spacingAndGlyphs"
text-anchor="middle" opacity="0">MX-NoLED</text>
<path d="M59393 24978
L59393 24584
L59525 24865
L59656 24584
L59656 24978
" />
<path d="M59806 24584
L60068 24978
" />
<path d="M60068 24584
L59806 24978
" />
<path d="M60218 24828
L60518 24828
" />
<path d="M60706 24978
L60706 24584
L60931 24978
L60931 24584
" />
<path d="M61174 24978
L61137 24959
L61118 24940
L61099 24903
L61099 24790
L61118 24753
L61137 24734
L61174 24715
L61231 24715
L61268 24734
L61287 24753
L61306 24790
L61306 24903
L61287 24940
L61268 24959
L61231 24978
L61174 24978
" />
<path d="M61662 24978
L61474 24978
L61474 24584
" />
<path d="M61793 24771
L61924 24771
" />
<path d="M61981 24978
L61793 24978
L61793 24584
L61981 24584
" />
<path d="M62149 24978
L62149 24584
L62243 24584
L62299 24603
L62337 24640
L62356 24678
L62374 24753
L62374 24809
L62356 24884
L62337 24921
L62299 24959
L62243 24978
L62149 24978
" />
<g transform="rotate(15 61948.5 57692.6)">
<text x="61948.5" y="57889.4"
textLength="1651.57" font-size="524.934" lengthAdjust="spacingAndGlyphs"
text-anchor="middle" opacity="0">MX29</text>
</g>
<path d="M61232 57685
L61334 57304
L61388 57610
L61587 57372
L61485 57753
" />
<path d="M61732 57411
L61884 57859
" />
<path d="M61986 57479
L61630 57791
" />
<path d="M62103 57549
L62126 57536
L62167 57528
L62257 57552
L62289 57580
L62302 57603
L62310 57644
L62301 57680
L62268 57729
L61992 57888
L62228 57951
" />
<path d="M62409 58000
L62481 58019
L62522 58011
L62545 57998
L62596 57953
L62634 57886
L62673 57741
L62664 57700
L62651 57677
L62620 57649
L62547 57629
L62506 57638
L62483 57651
L62455 57682
L62431 57773
L62439 57814
L62453 57837
L62484 57865
L62556 57884
L62598 57876
L62620 57863
L62648 57831
" />
<g transform="rotate(15 60816.2 61918.5)">
<text x="60816.2" y="62115.4"
textLength="3226.38" font-size="524.934" lengthAdjust="spacingAndGlyphs"
text-anchor="middle" opacity="0">MX-NoLED</text>
</g>
<path d="M59339 61707
L59441 61326
L59495 61632
L59694 61394
L59593 61775
" />
<path d="M59839 61433
L59991 61881
" />
<path d="M60093 61501
L59737 61813
" />
<path d="M60175 61775
L60464 61853
" />
<path d="M60607 62046
L60709 61666
L60824 62105
L60926 61724
" />
<path d="M61059 62168
L61028 62140
L61015 62117
L61006 62076
L61035 61967
L61063 61936
L61086 61923
L61127 61914
L61182 61929
L61213 61957
L61226 61979
L61235 62021
L61206 62129
L61178 62161
L61155 62174
L61114 62182
L61059 62168
" />
<path d="M61530 62294
L61349 62245
L61451 61865
" />
<path d="M61710 62129
L61837 62163
" />
<path d="M61838 62376
L61657 62328
L61759 61948
L61940 61996
" />
<path d="M62001 62420
L62103 62040
L62193 62064
L62243 62097
L62269 62143
L62278 62184
L62277 62261
L62262 62315
L62224 62383
L62197 62414
L62151 62441
L62092 62444
L62001 62420
" />
<text x="34625" y="22284.1"
textLength="7463.35" font-size="524.934" lengthAdjust="spacingAndGlyphs"
text-anchor="middle" opacity="0">HRO-TYPE-C-31-M-12</text>
<path d="M31025 22265
L31025 21871
" />
<path d="M31025 22059
L31250 22059
" />
<path d="M31250 22265
L31250 21871
" />
<path d="M31662 22265
L31531 22077
" />
<path d="M31437 22265
L31437 21871
L31587 21871
L31625 21890
L31644 21909
L31662 21946
L31662 22002
L31644 22040
L31625 22059
L31587 22077
L31437 22077
" />
<path d="M31906 21871
L31981 21871
L32019 21890
L32056 21927
L32075 22002
L32075 22134
L32056 22209
L32019 22246
L31981 22265
L31906 22265
L31869 22246
L31831 22209
L31812 22134
L31812 22002
L31831 21927
L31869 21890
L31906 21871
" />
<path d="M32244 22115
L32544 22115
" />
<path d="M32675 21871
L32900 21871
" />
<path d="M32787 22265
L32787 21871
" />
<path d="M33106 22077
L33106 22265
" />
<path d="M32975 21871
L33106 22077
L33237 21871
" />
<path d="M33368 22265
L33368 21871
L33518 21871
L33556 21890
L33575 21909
L33593 21946
L33593 22002
L33575 22040
L33556 22059
L33518 22077
L33368 22077
" />
<path d="M33762 22059
L33893 22059
" />
<path d="M33950 22265
L33762 22265
L33762 21871
L33950 21871
" />
<path d="M34118 22115
L34418 22115
" />
<path d="M34831 22227
L34812 22246
L34756 22265
L34718 22265
L34662 22246
L34625 22209
L34606 22171
L34587 22096
L34587 22040
L34606 21965
L34625 21927
L34662 21890
L34718 21871
L34756 21871
L34812 21890
L34831 21909
" />
<path d="M34999 22115
L35299 22115
" />
<path d="M35449 21871
L35693 21871
L35562 22021
L35618 22021
L35656 22040
L35674 22059
L35693 22096
L35693 22190
L35674 22227
L35656 22246
L35618 22265
L35506 22265
L35468 22246
L35449 22227
" />
<path d="M36068 22265
L35843 22265
" />
<path d="M35956 22265
L35956 21871
L35918 21927
L35881 21965
L35843 21984
" />
<path d="M36237 22115
L36537 22115
" />
<path d="M36724 22265
L36724 21871
L36855 22152
L36987 21871
L36987 22265
" />
<path d="M37174 22115
L37474 22115
" />
<path d="M37868 22265
L37643 22265
" />
<path d="M37755 22265
L37755 21871
L37718 21927
L37680 21965
L37643 21984
" />
<path d="M38018 21909
L38037 21890
L38074 21871
L38168 21871
L38205 21890
L38224 21909
L38243 21946
L38243 21984
L38224 22040
L37999 22265
L38243 22265
" />
<text x="64625" y="22294.1"
textLength="7463.35" font-size="524.934" lengthAdjust="spacingAndGlyphs"
text-anchor="middle" opacity="0">HRO-TYPE-C-31-M-12</text>
<path d="M61025 22275
L61025 21881
" />
<path d="M61025 22069
L61250 22069
" />
<path d="M61250 22275
L61250 21881
" />
<path d="M61662 22275
L61531 22087
" />
<path d="M61437 22275
L61437 21881
L61587 21881
L61625 21900
L61644 21919
L61662 21956
L61662 22012
L61644 22050
L61625 22069
L61587 22087
L61437 22087
" />
<path d="M61906 21881
L61981 21881
L62019 21900
L62056 21937
L62075 22012
L62075 22144
L62056 22219
L62019 22256
L61981 22275
L61906 22275
L61869 22256
L61831 22219
L61812 22144
L61812 22012
L61831 21937
L61869 21900
L61906 21881
" />
<path d="M62244 22125
L62544 22125
" />
<path d="M62675 21881
L62900 21881
" />
<path d="M62787 22275
L62787 21881
" />
<path d="M63106 22087
L63106 22275
" />
<path d="M62975 21881
L63106 22087
L63237 21881
" />
<path d="M63368 22275
L63368 21881
L63518 21881
L63556 21900
L63575 21919
L63593 21956
L63593 22012
L63575 22050
L63556 22069
L63518 22087
L63368 22087
" />
<path d="M63762 22069
L63893 22069
" />
<path d="M63950 22275
L63762 22275
L63762 21881
L63950 21881
" />
<path d="M64118 22125
L64418 22125
" />
<path d="M64831 22237
L64812 22256
L64756 22275
L64718 22275
L64662 22256
L64625 22219
L64606 22181
L64587 22106
L64587 22050
L64606 21975
L64625 21937
L64662 21900
L64718 21881
L64756 21881
L64812 21900
L64831 21919
" />
<path d="M64999 22125
L65299 22125
" />
<path d="M65449 21881
L65693 21881
L65562 22031
L65618 22031
L65656 22050
L65674 22069
L65693 22106
L65693 22200
L65674 22237
L65656 22256
L65618 22275
L65506 22275
L65468 22256
L65449 22237
" />
<path d="M66068 22275
L65843 22275
" />
<path d="M65956 22275
L65956 21881
L65918 21937
L65881 21975
L65843 21994
" />
<path d="M66237 22125
L66537 22125
" />
<path d="M66724 22275
L66724 21881
L66855 22162
L66987 21881
L66987 22275
" />
<path d="M67174 22125
L67474 22125
" />
<path d="M67868 22275
L67643 22275
" />
<path d="M67755 22275
L67755 21881
L67718 21937
L67680 21975
L67643 21994
" />
<path d="M68018 21919
L68037 21900
L68074 21881
L68168 21881
L68205 21900
L68224 21919
L68243 21956
L68243 21994
L68224 22050
L67999 22275
L68243 22275
" />
<text x="68375" y="30321.9"
textLength="1276.62" font-size="524.934" lengthAdjust="spacingAndGlyphs"
text-anchor="middle" opacity="0">MX6</text>
<path d="M67868 30303
L67868 29909
L68000 30190
L68131 29909
L68131 30303
" />
<path d="M68281 29909
L68543 30303
" />
<path d="M68543 29909
L68281 30303
" />
<path d="M68862 29909
L68787 29909
L68749 29928
L68731 29946
L68693 30003
L68674 30078
L68674 30228
L68693 30265
L68712 30284
L68749 30303
L68824 30303
L68862 30284
L68881 30265
L68899 30228
L68899 30134
L68881 30096
L68862 30078
L68824 30059
L68749 30059
L68712 30078
L68693 30096
L68674 30134
" />
<text x="68375" y="25946.9"
textLength="3226.38" font-size="524.934" lengthAdjust="spacingAndGlyphs"
text-anchor="middle" opacity="0">MX-NoLED</text>
<path d="M66893 25928
L66893 25534
L67025 25815
L67156 25534
L67156 25928
" />
<path d="M67306 25534
L67568 25928
" />
<path d="M67568 25534
L67306 25928
" />
<path d="M67718 25778
L68018 25778
" />
<path d="M68206 25928
L68206 25534
L68431 25928
L68431 25534
" />
<path d="M68674 25928
L68637 25909
L68618 25890
L68599 25853
L68599 25740
L68618 25703
L68637 25684
L68674 25665
L68731 25665
L68768 25684
L68787 25703
L68806 25740
L68806 25853
L68787 25890
L68768 25909
L68731 25928
L68674 25928
" />
<path d="M69162 25928
L68974 25928
L68974 25534
" />
<path d="M69293 25721
L69424 25721
" />
<path d="M69481 25928
L69293 25928
L69293 25534
L69481 25534
" />
<path d="M69649 25928
L69649 25534
L69743 25534
L69799 25553
L69837 25590
L69856 25628
L69874 25703
L69874 25759
L69856 25834
L69837 25871
L69799 25909
L69743 25928
L69649 25928
" />
<text x="53375" y="50946.9"
textLength="1651.57" font-size="524.934" lengthAdjust="spacingAndGlyphs"
text-anchor="middle" opacity="0">MX22</text>
<path d="M52681 50928
L52681 50534
L52812 50815
L52943 50534
L52943 50928
" />
<path d="M53093 50534
L53356 50928
" />
<path d="M53356 50534
L53093 50928
" />
<path d="M53487 50571
L53506 50553
L53543 50534
L53637 50534
L53674 50553
L53693 50571
L53712 50609
L53712 50646
L53693 50703
L53468 50928
L53712 50928
" />
<path d="M53862 50571
L53881 50553
L53918 50534
L54012 50534
L54049 50553
L54068 50571
L54087 50609
L54087 50646
L54068 50703
L53843 50928
L54087 50928
" />
<text x="53375" y="46571.9"
textLength="3226.38" font-size="524.934" lengthAdjust="spacingAndGlyphs"
text-anchor="middle" opacity="0">MX-NoLED</text>
<path d="M51893 46553
L51893 46159
L52025 46440
L52156 46159
L52156 46553
" />
<path d="M52306 46159
L52568 46553
" />
<path d="M52568 46159
L52306 46553
" />
<path d="M52718 46403
L53018 46403
" />
<path d="M53206 46553
L53206 46159
L53431 46553
L53431 46159
" />
<path d="M53674 46553
L53637 46534
L53618 46515
L53599 46478
L53599 46365
L53618 46328
L53637 46309
L53674 46290
L53731 46290
L53768 46309
L53787 46328
L53806 46365
L53806 46478
L53787 46515
L53768 46534
L53731 46553
L53674 46553
" />
<path d="M54162 46553
L53974 46553
L53974 46159
" />
<path d="M54293 46346
L54424 46346
" />
<path d="M54481 46553
L54293 46553
L54293 46159
L54481 46159
" />
<path d="M54649 46553
L54649 46159
L54743 46159
L54799 46178
L54837 46215
L54856 46253
L54874 46328
L54874 46384
L54856 46459
L54837 46496
L54799 46534
L54743 46553
L54649 46553
" />
<text x="38375" y="31246.9"
textLength="1276.62" font-size="524.934" lengthAdjust="spacingAndGlyphs"
text-anchor="middle" opacity="0">MX2</text>
<path d="M37868 31228
L37868 30834
L38000 31115
L38131 30834
L38131 31228
" />
<path d="M38281 30834
L38543 31228
" />
<path d="M38543 30834
L38281 31228
" />
<path d="M38674 30871
L38693 30853
L38731 30834
L38824 30834
L38862 30853
L38881 30871
L38899 30909
L38899 30946
L38881 31003
L38656 31228
L38899 31228
" />
<text x="38375" y="26871.9"
textLength="3226.38" font-size="524.934" lengthAdjust="spacingAndGlyphs"
text-anchor="middle" opacity="0">MX-NoLED</text>
<path d="M36893 26853
L36893 26459
L37025 26740
L37156 26459
L37156 26853
" />
<path d="M37306 26459
L37568 26853
" />
<path d="M37568 26459
L37306 26853
" />
<path d="M37718 26703
L38018 26703
" />
<path d="M38206 26853
L38206 26459
L38431 26853
L38431 26459
" />
<path d="M38674 26853
L38637 26834
L38618 26815
L38599 26778
L38599 26665
L38618 26628
L38637 26609
L38674 26590
L38731 26590
L38768 26609
L38787 26628
L38806 26665
L38806 26778
L38787 26815
L38768 26834
L38731 26853
L38674 26853
" />
<path d="M39162 26853
L38974 26853
L38974 26459
" />
<path d="M39293 26646
L39424 26646
" />
<path d="M39481 26853
L39293 26853
L39293 26459
L39481 26459
" />
<path d="M39649 26853
L39649 26459
L39743 26459
L39799 26478
L39837 26515
L39856 26553
L39874 26628
L39874 26684
L39856 26759
L39837 26796
L39799 26834
L39743 26853
L39649 26853
" />
<text x="45875" y="29371.9"
textLength="1276.62" font-size="524.934" lengthAdjust="spacingAndGlyphs"
text-anchor="middle" opacity="0">MX3</text>
<path d="M45368 29353
L45368 28959
L45500 29240
L45631 28959
L45631 29353
" />
<path d="M45781 28959
L46043 29353
" />
<path d="M46043 28959
L45781 29353
" />
<path d="M46156 28959
L46399 28959
L46268 29109
L46324 29109
L46362 29128
L46381 29146
L46399 29184
L46399 29278
L46381 29315
L46362 29334
L46324 29353
L46212 29353
L46174 29334
L46156 29315
" />
<text x="45875" y="24996.9"
textLength="3226.38" font-size="524.934" lengthAdjust="spacingAndGlyphs"
text-anchor="middle" opacity="0">MX-NoLED</text>
<path d="M44393 24978
L44393 24584
L44525 24865
L44656 24584
L44656 24978
" />
<path d="M44806 24584
L45068 24978
" />
<path d="M45068 24584
L44806 24978
" />
<path d="M45218 24828
L45518 24828
" />
<path d="M45706 24978
L45706 24584
L45931 24978
L45931 24584
" />
<path d="M46174 24978
L46137 24959
L46118 24940
L46099 24903
L46099 24790
L46118 24753
L46137 24734
L46174 24715
L46231 24715
L46268 24734
L46287 24753
L46306 24790
L46306 24903
L46287 24940
L46268 24959
L46231 24978
L46174 24978
" />
<path d="M46662 24978
L46474 24978
L46474 24584
" />
<path d="M46793 24771
L46924 24771
" />
<path d="M46981 24978
L46793 24978
L46793 24584
L46981 24584
" />
<path d="M47149 24978
L47149 24584
L47243 24584
L47299 24603
L47337 24640
L47356 24678
L47374 24753
L47374 24809
L47356 24884
L47337 24921
L47299 24959
L47243 24978
L47149 24978
" />
<text x="53375" y="28446.9"
textLength="1276.62" font-size="524.934" lengthAdjust="spacingAndGlyphs"
text-anchor="middle" opacity="0">MX4</text>
<path d="M52868 28428
L52868 28034
L53000 28315
L53131 28034
L53131 28428
" />
<path d="M53281 28034
L53543 28428
" />
<path d="M53543 28034
L53281 28428
" />
<path d="M53862 28165
L53862 28428
" />
<path d="M53768 28015
L53674 28296
L53918 28296
" />
<text x="53375" y="24071.9"
textLength="3226.38" font-size="524.934" lengthAdjust="spacingAndGlyphs"
text-anchor="middle" opacity="0">MX-NoLED</text>
<path d="M51893 24053
L51893 23659
L52025 23940
L52156 23659
L52156 24053
" />
<path d="M52306 23659
L52568 24053
" />
<path d="M52568 23659
L52306 24053
" />
<path d="M52718 23903
L53018 23903
" />
<path d="M53206 24053
L53206 23659
L53431 24053
L53431 23659
" />
<path d="M53674 24053
L53637 24034
L53618 24015
L53599 23978
L53599 23865
L53618 23828
L53637 23809
L53674 23790
L53731 23790
L53768 23809
L53787 23828
L53806 23865
L53806 23978
L53787 24015
L53768 24034
L53731 24053
L53674 24053
" />
<path d="M54162 24053
L53974 24053
L53974 23659
" />
<path d="M54293 23846
L54424 23846
" />
<path d="M54481 24053
L54293 24053
L54293 23659
L54481 23659
" />
<path d="M54649 24053
L54649 23659
L54743 23659
L54799 23678
L54837 23715
L54856 23753
L54874 23828
L54874 23884
L54856 23959
L54837 23996
L54799 24034
L54743 24053
L54649 24053
" />
<text x="29000" y="38746.9"
textLength="1276.62" font-size="524.934" lengthAdjust="spacingAndGlyphs"
text-anchor="middle" opacity="0">MX7</text>
<path d="M28493 38728
L28493 38334
L28625 38615
L28756 38334
L28756 38728
" />
<path d="M28906 38334
L29168 38728
" />
<path d="M29168 38334
L28906 38728
" />
<path d="M29281 38334
L29543 38334
L29374 38728
" />
<text x="29000" y="34371.9"
textLength="3226.38" font-size="524.934" lengthAdjust="spacingAndGlyphs"
text-anchor="middle" opacity="0">MX-NoLED</text>
<path d="M27518 34353
L27518 33959
L27650 34240
L27781 33959
L27781 34353
" />
<path d="M27931 33959
L28193 34353
" />
<path d="M28193 33959
L27931 34353
" />
<path d="M28343 34203
L28643 34203
" />
<path d="M28831 34353
L28831 33959
L29056 34353
L29056 33959
" />
<path d="M29299 34353
L29262 34334
L29243 34315
L29224 34278
L29224 34165
L29243 34128
L29262 34109
L29299 34090
L29356 34090
L29393 34109
L29412 34128
L29431 34165
L29431 34278
L29412 34315
L29393 34334
L29356 34353
L29299 34353
" />
<path d="M29787 34353
L29599 34353
L29599 33959
" />
<path d="M29918 34146
L30049 34146
" />
<path d="M30106 34353
L29918 34353
L29918 33959
L30106 33959
" />
<path d="M30274 34353
L30274 33959
L30368 33959
L30424 33978
L30462 34015
L30481 34053
L30499 34128
L30499 34184
L30481 34259
L30462 34296
L30424 34334
L30368 34353
L30274 34353
" />
<text x="38375" y="38746.9"
textLength="1276.62" font-size="524.934" lengthAdjust="spacingAndGlyphs"
text-anchor="middle" opacity="0">MX8</text>
<path d="M37868 38728
L37868 38334
L38000 38615
L38131 38334
L38131 38728
" />
<path d="M38281 38334
L38543 38728
" />
<path d="M38543 38334
L38281 38728
" />
<path d="M38749 38503
L38712 38484
L38693 38465
L38674 38428
L38674 38409
L38693 38371
L38712 38353
L38749 38334
L38824 38334
L38862 38353
L38881 38371
L38899 38409
L38899 38428
L38881 38465
L38862 38484
L38824 38503
L38749 38503
L38712 38521
L38693 38540
L38674 38578
L38674 38653
L38693 38690
L38712 38709
L38749 38728
L38824 38728
L38862 38709
L38881 38690
L38899 38653
L38899 38578
L38881 38540
L38862 38521
L38824 38503
" />
<text x="38375" y="34371.9"
textLength="3226.38" font-size="524.934" lengthAdjust="spacingAndGlyphs"
text-anchor="middle" opacity="0">MX-NoLED</text>
<path d="M36893 34353
L36893 33959
L37025 34240
L37156 33959
L37156 34353
" />
<path d="M37306 33959
L37568 34353
" />
<path d="M37568 33959
L37306 34353
" />
<path d="M37718 34203
L38018 34203
" />
<path d="M38206 34353
L38206 33959
L38431 34353
L38431 33959
" />
<path d="M38674 34353
L38637 34334
L38618 34315
L38599 34278
L38599 34165
L38618 34128
L38637 34109
L38674 34090
L38731 34090
L38768 34109
L38787 34128
L38806 34165
L38806 34278
L38787 34315
L38768 34334
L38731 34353
L38674 34353
" />
<path d="M39162 34353
L38974 34353
L38974 33959
" />
<path d="M39293 34146
L39424 34146
" />
<path d="M39481 34353
L39293 34353
L39293 33959
L39481 33959
" />
<path d="M39649 34353
L39649 33959
L39743 33959
L39799 33978
L39837 34015
L39856 34053
L39874 34128
L39874 34184
L39856 34259
L39837 34296
L39799 34334
L39743 34353
L39649 34353
" />
<text x="45875" y="36871.9"
textLength="1276.62" font-size="524.934" lengthAdjust="spacingAndGlyphs"
text-anchor="middle" opacity="0">MX9</text>
<path d="M45368 36853
L45368 36459
L45500 36740
L45631 36459
L45631 36853
" />
<path d="M45781 36459
L46043 36853
" />
<path d="M46043 36459
L45781 36853
" />
<path d="M46212 36853
L46287 36853
L46324 36834
L46343 36815
L46381 36759
L46399 36684
L46399 36534
L46381 36496
L46362 36478
L46324 36459
L46249 36459
L46212 36478
L46193 36496
L46174 36534
L46174 36628
L46193 36665
L46212 36684
L46249 36703
L46324 36703
L46362 36684
L46381 36665
L46399 36628
" />
<text x="45875" y="32496.9"
textLength="3226.38" font-size="524.934" lengthAdjust="spacingAndGlyphs"
text-anchor="middle" opacity="0">MX-NoLED</text>
<path d="M44393 32478
L44393 32084
L44525 32365
L44656 32084
L44656 32478
" />
<path d="M44806 32084
L45068 32478
" />
<path d="M45068 32084
L44806 32478
" />
<path d="M45218 32328
L45518 32328
" />
<path d="M45706 32478
L45706 32084
L45931 32478
L45931 32084
" />
<path d="M46174 32478
L46137 32459
L46118 32440
L46099 32403
L46099 32290
L46118 32253
L46137 32234
L46174 32215
L46231 32215
L46268 32234
L46287 32253
L46306 32290
L46306 32403
L46287 32440
L46268 32459
L46231 32478
L46174 32478
" />
<path d="M46662 32478
L46474 32478
L46474 32084
" />
<path d="M46793 32271
L46924 32271
" />
<path d="M46981 32478
L46793 32478
L46793 32084
L46981 32084
" />
<path d="M47149 32478
L47149 32084
L47243 32084
L47299 32103
L47337 32140
L47356 32178
L47374 32253
L47374 32309
L47356 32384
L47337 32421
L47299 32459
L47243 32478
L47149 32478
" />
<text x="53375" y="35946.9"
textLength="1651.57" font-size="524.934" lengthAdjust="spacingAndGlyphs"
text-anchor="middle" opacity="0">MX10</text>
<path d="M52681 35928
L52681 35534
L52812 35815
L52943 35534
L52943 35928
" />
<path d="M53093 35534
L53356 35928
" />
<path d="M53356 35534
L53093 35928
" />
<path d="M53712 35928
L53487 35928
" />
<path d="M53599 35928
L53599 35534
L53562 35590
L53524 35628
L53487 35646
" />
<path d="M53956 35534
L53993 35534
L54031 35553
L54049 35571
L54068 35609
L54087 35684
L54087 35778
L54068 35853
L54049 35890
L54031 35909
L53993 35928
L53956 35928
L53918 35909
L53899 35890
L53881 35853
L53862 35778
L53862 35684
L53881 35609
L53899 35571
L53918 35553
L53956 35534
" />
<text x="53375" y="31571.9"
textLength="3226.38" font-size="524.934" lengthAdjust="spacingAndGlyphs"
text-anchor="middle" opacity="0">MX-NoLED</text>
<path d="M51893 31553
L51893 31159
L52025 31440
L52156 31159
L52156 31553
" />
<path d="M52306 31159
L52568 31553
" />
<path d="M52568 31159
L52306 31553
" />
<path d="M52718 31403
L53018 31403
" />
<path d="M53206 31553
L53206 31159
L53431 31553
L53431 31159
" />
<path d="M53674 31553
L53637 31534
L53618 31515
L53599 31478
L53599 31365
L53618 31328
L53637 31309
L53674 31290
L53731 31290
L53768 31309
L53787 31328
L53806 31365
L53806 31478
L53787 31515
L53768 31534
L53731 31553
L53674 31553
" />
<path d="M54162 31553
L53974 31553
L53974 31159
" />
<path d="M54293 31346
L54424 31346
" />
<path d="M54481 31553
L54293 31553
L54293 31159
L54481 31159
" />
<path d="M54649 31553
L54649 31159
L54743 31159
L54799 31178
L54837 31215
L54856 31253
L54874 31328
L54874 31384
L54856 31459
L54837 31496
L54799 31534
L54743 31553
L54649 31553
" />
<text x="60875" y="36871.9"
textLength="1651.57" font-size="524.934" lengthAdjust="spacingAndGlyphs"
text-anchor="middle" opacity="0">MX11</text>
<path d="M60181 36853
L60181 36459
L60312 36740
L60443 36459
L60443 36853
" />
<path d="M60593 36459
L60856 36853
" />
<path d="M60856 36459
L60593 36853
" />
<path d="M61212 36853
L60987 36853
" />
<path d="M61099 36853
L61099 36459
L61062 36515
L61024 36553
L60987 36571
" />
<path d="M61587 36853
L61362 36853
" />
<path d="M61474 36853
L61474 36459
L61437 36515
L61399 36553
L61362 36571
" />
<text x="60875" y="32496.9"
textLength="3226.38" font-size="524.934" lengthAdjust="spacingAndGlyphs"
text-anchor="middle" opacity="0">MX-NoLED</text>
<path d="M59393 32478
L59393 32084
L59525 32365
L59656 32084
L59656 32478
" />
<path d="M59806 32084
L60068 32478
" />
<path d="M60068 32084
L59806 32478
" />
<path d="M60218 32328
L60518 32328
" />
<path d="M60706 32478
L60706 32084
L60931 32478
L60931 32084
" />
<path d="M61174 32478
L61137 32459
L61118 32440
L61099 32403
L61099 32290
L61118 32253
L61137 32234
L61174 32215
L61231 32215
L61268 32234
L61287 32253
L61306 32290
L61306 32403
L61287 32440
L61268 32459
L61231 32478
L61174 32478
" />
<path d="M61662 32478
L61474 32478
L61474 32084
" />
<path d="M61793 32271
L61924 32271
" />
<path d="M61981 32478
L61793 32478
L61793 32084
L61981 32084
" />
<path d="M62149 32478
L62149 32084
L62243 32084
L62299 32103
L62337 32140
L62356 32178
L62374 32253
L62374 32309
L62356 32384
L62337 32421
L62299 32459
L62243 32478
L62149 32478
" />
<text x="68375" y="37821.9"
textLength="1651.57" font-size="524.934" lengthAdjust="spacingAndGlyphs"
text-anchor="middle" opacity="0">MX12</text>
<path d="M67681 37803
L67681 37409
L67812 37690
L67943 37409
L67943 37803
" />
<path d="M68093 37409
L68356 37803
" />
<path d="M68356 37409
L68093 37803
" />
<path d="M68712 37803
L68487 37803
" />
<path d="M68599 37803
L68599 37409
L68562 37465
L68524 37503
L68487 37521
" />
<path d="M68862 37446
L68881 37428
L68918 37409
L69012 37409
L69049 37428
L69068 37446
L69087 37484
L69087 37521
L69068 37578
L68843 37803
L69087 37803
" />
<text x="68375" y="33446.9"
textLength="3226.38" font-size="524.934" lengthAdjust="spacingAndGlyphs"
text-anchor="middle" opacity="0">MX-NoLED</text>
<path d="M66893 33428
L66893 33034
L67025 33315
L67156 33034
L67156 33428
" />
<path d="M67306 33034
L67568 33428
" />
<path d="M67568 33034
L67306 33428
" />
<path d="M67718 33278
L68018 33278
" />
<path d="M68206 33428
L68206 33034
L68431 33428
L68431 33034
" />
<path d="M68674 33428
L68637 33409
L68618 33390
L68599 33353
L68599 33240
L68618 33203
L68637 33184
L68674 33165
L68731 33165
L68768 33184
L68787 33203
L68806 33240
L68806 33353
L68787 33390
L68768 33409
L68731 33428
L68674 33428
" />
<path d="M69162 33428
L68974 33428
L68974 33034
" />
<path d="M69293 33221
L69424 33221
" />
<path d="M69481 33428
L69293 33428
L69293 33034
L69481 33034
" />
<path d="M69649 33428
L69649 33034
L69743 33034
L69799 33053
L69837 33090
L69856 33128
L69874 33203
L69874 33259
L69856 33334
L69837 33371
L69799 33409
L69743 33428
L69649 33428
" />
<text x="38375" y="46246.9"
textLength="1651.57" font-size="524.934" lengthAdjust="spacingAndGlyphs"
text-anchor="middle" opacity="0">MX14</text>
<path d="M37681 46228
L37681 45834
L37812 46115
L37943 45834
L37943 46228
" />
<path d="M38093 45834
L38356 46228
" />
<path d="M38356 45834
L38093 46228
" />
<path d="M38712 46228
L38487 46228
" />
<path d="M38599 46228
L38599 45834
L38562 45890
L38524 45928
L38487 45946
" />
<path d="M39049 45965
L39049 46228
" />
<path d="M38956 45815
L38862 46096
L39106 46096
" />
<text x="38375" y="41871.9"
textLength="3226.38" font-size="524.934" lengthAdjust="spacingAndGlyphs"
text-anchor="middle" opacity="0">MX-NoLED</text>
<path d="M36893 41853
L36893 41459
L37025 41740
L37156 41459
L37156 41853
" />
<path d="M37306 41459
L37568 41853
" />
<path d="M37568 41459
L37306 41853
" />
<path d="M37718 41703
L38018 41703
" />
<path d="M38206 41853
L38206 41459
L38431 41853
L38431 41459
" />
<path d="M38674 41853
L38637 41834
L38618 41815
L38599 41778
L38599 41665
L38618 41628
L38637 41609
L38674 41590
L38731 41590
L38768 41609
L38787 41628
L38806 41665
L38806 41778
L38787 41815
L38768 41834
L38731 41853
L38674 41853
" />
<path d="M39162 41853
L38974 41853
L38974 41459
" />
<path d="M39293 41646
L39424 41646
" />
<path d="M39481 41853
L39293 41853
L39293 41459
L39481 41459
" />
<path d="M39649 41853
L39649 41459
L39743 41459
L39799 41478
L39837 41515
L39856 41553
L39874 41628
L39874 41684
L39856 41759
L39837 41796
L39799 41834
L39743 41853
L39649 41853
" />
<text x="45875" y="44371.9"
textLength="1651.57" font-size="524.934" lengthAdjust="spacingAndGlyphs"
text-anchor="middle" opacity="0">MX15</text>
<path d="M45181 44353
L45181 43959
L45312 44240
L45443 43959
L45443 44353
" />
<path d="M45593 43959
L45856 44353
" />
<path d="M45856 43959
L45593 44353
" />
<path d="M46212 44353
L45987 44353
" />
<path d="M46099 44353
L46099 43959
L46062 44015
L46024 44053
L45987 44071
" />
<path d="M46568 43959
L46381 43959
L46362 44146
L46381 44128
L46418 44109
L46512 44109
L46549 44128
L46568 44146
L46587 44184
L46587 44278
L46568 44315
L46549 44334
L46512 44353
L46418 44353
L46381 44334
L46362 44315
" />
<text x="45875" y="39996.9"
textLength="3226.38" font-size="524.934" lengthAdjust="spacingAndGlyphs"
text-anchor="middle" opacity="0">MX-NoLED</text>
<path d="M44393 39978
L44393 39584
L44525 39865
L44656 39584
L44656 39978
" />
<path d="M44806 39584
L45068 39978
" />
<path d="M45068 39584
L44806 39978
" />
<path d="M45218 39828
L45518 39828
" />
<path d="M45706 39978
L45706 39584
L45931 39978
L45931 39584
" />
<path d="M46174 39978
L46137 39959
L46118 39940
L46099 39903
L46099 39790
L46118 39753
L46137 39734
L46174 39715
L46231 39715
L46268 39734
L46287 39753
L46306 39790
L46306 39903
L46287 39940
L46268 39959
L46231 39978
L46174 39978
" />
<path d="M46662 39978
L46474 39978
L46474 39584
" />
<path d="M46793 39771
L46924 39771
" />
<path d="M46981 39978
L46793 39978
L46793 39584
L46981 39584
" />
<path d="M47149 39978
L47149 39584
L47243 39584
L47299 39603
L47337 39640
L47356 39678
L47374 39753
L47374 39809
L47356 39884
L47337 39921
L47299 39959
L47243 39978
L47149 39978
" />
<text x="53375" y="43446.9"
textLength="1651.57" font-size="524.934" lengthAdjust="spacingAndGlyphs"
text-anchor="middle" opacity="0">MX16</text>
<path d="M52681 43428
L52681 43034
L52812 43315
L52943 43034
L52943 43428
" />
<path d="M53093 43034
L53356 43428
" />
<path d="M53356 43034
L53093 43428
" />
<path d="M53712 43428
L53487 43428
" />
<path d="M53599 43428
L53599 43034
L53562 43090
L53524 43128
L53487 43146
" />
<path d="M54049 43034
L53974 43034
L53937 43053
L53918 43071
L53881 43128
L53862 43203
L53862 43353
L53881 43390
L53899 43409
L53937 43428
L54012 43428
L54049 43409
L54068 43390
L54087 43353
L54087 43259
L54068 43221
L54049 43203
L54012 43184
L53937 43184
L53899 43203
L53881 43221
L53862 43259
" />
<text x="53375" y="39071.9"
textLength="3226.38" font-size="524.934" lengthAdjust="spacingAndGlyphs"
text-anchor="middle" opacity="0">MX-NoLED</text>
<path d="M51893 39053
L51893 38659
L52025 38940
L52156 38659
L52156 39053
" />
<path d="M52306 38659
L52568 39053
" />
<path d="M52568 38659
L52306 39053
" />
<path d="M52718 38903
L53018 38903
" />
<path d="M53206 39053
L53206 38659
L53431 39053
L53431 38659
" />
<path d="M53674 39053
L53637 39034
L53618 39015
L53599 38978
L53599 38865
L53618 38828
L53637 38809
L53674 38790
L53731 38790
L53768 38809
L53787 38828
L53806 38865
L53806 38978
L53787 39015
L53768 39034
L53731 39053
L53674 39053
" />
<path d="M54162 39053
L53974 39053
L53974 38659
" />
<path d="M54293 38846
L54424 38846
" />
<path d="M54481 39053
L54293 39053
L54293 38659
L54481 38659
" />
<path d="M54649 39053
L54649 38659
L54743 38659
L54799 38678
L54837 38715
L54856 38753
L54874 38828
L54874 38884
L54856 38959
L54837 38996
L54799 39034
L54743 39053
L54649 39053
" />
<text x="60875" y="44371.9"
textLength="1651.57" font-size="524.934" lengthAdjust="spacingAndGlyphs"
text-anchor="middle" opacity="0">MX17</text>
<path d="M60181 44353
L60181 43959
L60312 44240
L60443 43959
L60443 44353
" />
<path d="M60593 43959
L60856 44353
" />
<path d="M60856 43959
L60593 44353
" />
<path d="M61212 44353
L60987 44353
" />
<path d="M61099 44353
L61099 43959
L61062 44015
L61024 44053
L60987 44071
" />
<path d="M61343 43959
L61606 43959
L61437 44353
" />
<text x="60875" y="39996.9"
textLength="3226.38" font-size="524.934" lengthAdjust="spacingAndGlyphs"
text-anchor="middle" opacity="0">MX-NoLED</text>
<path d="M59393 39978
L59393 39584
L59525 39865
L59656 39584
L59656 39978
" />
<path d="M59806 39584
L60068 39978
" />
<path d="M60068 39584
L59806 39978
" />
<path d="M60218 39828
L60518 39828
" />
<path d="M60706 39978
L60706 39584
L60931 39978
L60931 39584
" />
<path d="M61174 39978
L61137 39959
L61118 39940
L61099 39903
L61099 39790
L61118 39753
L61137 39734
L61174 39715
L61231 39715
L61268 39734
L61287 39753
L61306 39790
L61306 39903
L61287 39940
L61268 39959
L61231 39978
L61174 39978
" />
<path d="M61662 39978
L61474 39978
L61474 39584
" />
<path d="M61793 39771
L61924 39771
" />
<path d="M61981 39978
L61793 39978
L61793 39584
L61981 39584
" />
<path d="M62149 39978
L62149 39584
L62243 39584
L62299 39603
L62337 39640
L62356 39678
L62374 39753
L62374 39809
L62356 39884
L62337 39921
L62299 39959
L62243 39978
L62149 39978
" />
<text x="68375" y="45321.9"
textLength="1651.57" font-size="524.934" lengthAdjust="spacingAndGlyphs"
text-anchor="middle" opacity="0">MX18</text>
<path d="M67681 45303
L67681 44909
L67812 45190
L67943 44909
L67943 45303
" />
<path d="M68093 44909
L68356 45303
" />
<path d="M68356 44909
L68093 45303
" />
<path d="M68712 45303
L68487 45303
" />
<path d="M68599 45303
L68599 44909
L68562 44965
L68524 45003
L68487 45021
" />
<path d="M68937 45078
L68899 45059
L68881 45040
L68862 45003
L68862 44984
L68881 44946
L68899 44928
L68937 44909
L69012 44909
L69049 44928
L69068 44946
L69087 44984
L69087 45003
L69068 45040
L69049 45059
L69012 45078
L68937 45078
L68899 45096
L68881 45115
L68862 45153
L68862 45228
L68881 45265
L68899 45284
L68937 45303
L69012 45303
L69049 45284
L69068 45265
L69087 45228
L69087 45153
L69068 45115
L69049 45096
L69012 45078
" />
<text x="68375" y="40946.9"
textLength="3226.38" font-size="524.934" lengthAdjust="spacingAndGlyphs"
text-anchor="middle" opacity="0">MX-NoLED</text>
<path d="M66893 40928
L66893 40534
L67025 40815
L67156 40534
L67156 40928
" />
<path d="M67306 40534
L67568 40928
" />
<path d="M67568 40534
L67306 40928
" />
<path d="M67718 40778
L68018 40778
" />
<path d="M68206 40928
L68206 40534
L68431 40928
L68431 40534
" />
<path d="M68674 40928
L68637 40909
L68618 40890
L68599 40853
L68599 40740
L68618 40703
L68637 40684
L68674 40665
L68731 40665
L68768 40684
L68787 40703
L68806 40740
L68806 40853
L68787 40890
L68768 40909
L68731 40928
L68674 40928
" />
<path d="M69162 40928
L68974 40928
L68974 40534
" />
<path d="M69293 40721
L69424 40721
" />
<path d="M69481 40928
L69293 40928
L69293 40534
L69481 40534
" />
<path d="M69649 40928
L69649 40534
L69743 40534
L69799 40553
L69837 40590
L69856 40628
L69874 40703
L69874 40759
L69856 40834
L69837 40871
L69799 40909
L69743 40928
L69649 40928
" />
<text x="29000" y="53746.9"
textLength="1651.57" font-size="524.934" lengthAdjust="spacingAndGlyphs"
text-anchor="middle" opacity="0">MX19</text>
<path d="M28306 53728
L28306 53334
L28437 53615
L28568 53334
L28568 53728
" />
<path d="M28718 53334
L28981 53728
" />
<path d="M28981 53334
L28718 53728
" />
<path d="M29337 53728
L29112 53728
" />
<path d="M29224 53728
L29224 53334
L29187 53390
L29149 53428
L29112 53446
" />
<path d="M29524 53728
L29599 53728
L29637 53709
L29656 53690
L29693 53634
L29712 53559
L29712 53409
L29693 53371
L29674 53353
L29637 53334
L29562 53334
L29524 53353
L29506 53371
L29487 53409
L29487 53503
L29506 53540
L29524 53559
L29562 53578
L29637 53578
L29674 53559
L29693 53540
L29712 53503
" />
<text x="29000" y="49371.9"
textLength="3226.38" font-size="524.934" lengthAdjust="spacingAndGlyphs"
text-anchor="middle" opacity="0">MX-NoLED</text>
<path d="M27518 49353
L27518 48959
L27650 49240
L27781 48959
L27781 49353
" />
<path d="M27931 48959
L28193 49353
" />
<path d="M28193 48959
L27931 49353
" />
<path d="M28343 49203
L28643 49203
" />
<path d="M28831 49353
L28831 48959
L29056 49353
L29056 48959
" />
<path d="M29299 49353
L29262 49334
L29243 49315
L29224 49278
L29224 49165
L29243 49128
L29262 49109
L29299 49090
L29356 49090
L29393 49109
L29412 49128
L29431 49165
L29431 49278
L29412 49315
L29393 49334
L29356 49353
L29299 49353
" />
<path d="M29787 49353
L29599 49353
L29599 48959
" />
<path d="M29918 49146
L30049 49146
" />
<path d="M30106 49353
L29918 49353
L29918 48959
L30106 48959
" />
<path d="M30274 49353
L30274 48959
L30368 48959
L30424 48978
L30462 49015
L30481 49053
L30499 49128
L30499 49184
L30481 49259
L30462 49296
L30424 49334
L30368 49353
L30274 49353
" />
<text x="38375" y="53746.9"
textLength="1651.57" font-size="524.934" lengthAdjust="spacingAndGlyphs"
text-anchor="middle" opacity="0">MX20</text>
<path d="M37681 53728
L37681 53334
L37812 53615
L37943 53334
L37943 53728
" />
<path d="M38093 53334
L38356 53728
" />
<path d="M38356 53334
L38093 53728
" />
<path d="M38487 53371
L38506 53353
L38543 53334
L38637 53334
L38674 53353
L38693 53371
L38712 53409
L38712 53446
L38693 53503
L38468 53728
L38712 53728
" />
<path d="M38956 53334
L38993 53334
L39031 53353
L39049 53371
L39068 53409
L39087 53484
L39087 53578
L39068 53653
L39049 53690
L39031 53709
L38993 53728
L38956 53728
L38918 53709
L38899 53690
L38881 53653
L38862 53578
L38862 53484
L38881 53409
L38899 53371
L38918 53353
L38956 53334
" />
<text x="38375" y="49371.9"
textLength="3226.38" font-size="524.934" lengthAdjust="spacingAndGlyphs"
text-anchor="middle" opacity="0">MX-NoLED</text>
<path d="M36893 49353
L36893 48959
L37025 49240
L37156 48959
L37156 49353
" />
<path d="M37306 48959
L37568 49353
" />
<path d="M37568 48959
L37306 49353
" />
<path d="M37718 49203
L38018 49203
" />
<path d="M38206 49353
L38206 48959
L38431 49353
L38431 48959
" />
<path d="M38674 49353
L38637 49334
L38618 49315
L38599 49278
L38599 49165
L38618 49128
L38637 49109
L38674 49090
L38731 49090
L38768 49109
L38787 49128
L38806 49165
L38806 49278
L38787 49315
L38768 49334
L38731 49353
L38674 49353
" />
<path d="M39162 49353
L38974 49353
L38974 48959
" />
<path d="M39293 49146
L39424 49146
" />
<path d="M39481 49353
L39293 49353
L39293 48959
L39481 48959
" />
<path d="M39649 49353
L39649 48959
L39743 48959
L39799 48978
L39837 49015
L39856 49053
L39874 49128
L39874 49184
L39856 49259
L39837 49296
L39799 49334
L39743 49353
L39649 49353
" />
<text x="45875" y="51871.9"
textLength="1651.57" font-size="524.934" lengthAdjust="spacingAndGlyphs"
text-anchor="middle" opacity="0">MX21</text>
<path d="M45181 51853
L45181 51459
L45312 51740
L45443 51459
L45443 51853
" />
<path d="M45593 51459
L45856 51853
" />
<path d="M45856 51459
L45593 51853
" />
<path d="M45987 51496
L46006 51478
L46043 51459
L46137 51459
L46174 51478
L46193 51496
L46212 51534
L46212 51571
L46193 51628
L45968 51853
L46212 51853
" />
<path d="M46587 51853
L46362 51853
" />
<path d="M46474 51853
L46474 51459
L46437 51515
L46399 51553
L46362 51571
" />
<text x="45875" y="47496.9"
textLength="3226.38" font-size="524.934" lengthAdjust="spacingAndGlyphs"
text-anchor="middle" opacity="0">MX-NoLED</text>
<path d="M44393 47478
L44393 47084
L44525 47365
L44656 47084
L44656 47478
" />
<path d="M44806 47084
L45068 47478
" />
<path d="M45068 47084
L44806 47478
" />
<path d="M45218 47328
L45518 47328
" />
<path d="M45706 47478
L45706 47084
L45931 47478
L45931 47084
" />
<path d="M46174 47478
L46137 47459
L46118 47440
L46099 47403
L46099 47290
L46118 47253
L46137 47234
L46174 47215
L46231 47215
L46268 47234
L46287 47253
L46306 47290
L46306 47403
L46287 47440
L46268 47459
L46231 47478
L46174 47478
" />
<path d="M46662 47478
L46474 47478
L46474 47084
" />
<path d="M46793 47271
L46924 47271
" />
<path d="M46981 47478
L46793 47478
L46793 47084
L46981 47084
" />
<path d="M47149 47478
L47149 47084
L47243 47084
L47299 47103
L47337 47140
L47356 47178
L47374 47253
L47374 47309
L47356 47384
L47337 47421
L47299 47459
L47243 47478
L47149 47478
" />
<text x="60875" y="51871.9"
textLength="1651.57" font-size="524.934" lengthAdjust="spacingAndGlyphs"
text-anchor="middle" opacity="0">MX23</text>
<path d="M60181 51853
L60181 51459
L60312 51740
L60443 51459
L60443 51853
" />
<path d="M60593 51459
L60856 51853
" />
<path d="M60856 51459
L60593 51853
" />
<path d="M60987 51496
L61006 51478
L61043 51459
L61137 51459
L61174 51478
L61193 51496
L61212 51534
L61212 51571
L61193 51628
L60968 51853
L61212 51853
" />
<path d="M61343 51459
L61587 51459
L61456 51609
L61512 51609
L61549 51628
L61568 51646
L61587 51684
L61587 51778
L61568 51815
L61549 51834
L61512 51853
L61399 51853
L61362 51834
L61343 51815
" />
<text x="60875" y="47496.9"
textLength="3226.38" font-size="524.934" lengthAdjust="spacingAndGlyphs"
text-anchor="middle" opacity="0">MX-NoLED</text>
<path d="M59393 47478
L59393 47084
L59525 47365
L59656 47084
L59656 47478
" />
<path d="M59806 47084
L60068 47478
" />
<path d="M60068 47084
L59806 47478
" />
<path d="M60218 47328
L60518 47328
" />
<path d="M60706 47478
L60706 47084
L60931 47478
L60931 47084
" />
<path d="M61174 47478
L61137 47459
L61118 47440
L61099 47403
L61099 47290
L61118 47253
L61137 47234
L61174 47215
L61231 47215
L61268 47234
L61287 47253
L61306 47290
L61306 47403
L61287 47440
L61268 47459
L61231 47478
L61174 47478
" />
<path d="M61662 47478
L61474 47478
L61474 47084
" />
<path d="M61793 47271
L61924 47271
" />
<path d="M61981 47478
L61793 47478
L61793 47084
L61981 47084
" />
<path d="M62149 47478
L62149 47084
L62243 47084
L62299 47103
L62337 47140
L62356 47178
L62374 47253
L62374 47309
L62356 47384
L62337 47421
L62299 47459
L62243 47478
L62149 47478
" />
<text x="68375" y="52821.9"
textLength="1651.57" font-size="524.934" lengthAdjust="spacingAndGlyphs"
text-anchor="middle" opacity="0">MX24</text>
<path d="M67681 52803
L67681 52409
L67812 52690
L67943 52409
L67943 52803
" />
<path d="M68093 52409
L68356 52803
" />
<path d="M68356 52409
L68093 52803
" />
<path d="M68487 52446
L68506 52428
L68543 52409
L68637 52409
L68674 52428
L68693 52446
L68712 52484
L68712 52521
L68693 52578
L68468 52803
L68712 52803
" />
<path d="M69049 52540
L69049 52803
" />
<path d="M68956 52390
L68862 52671
L69106 52671
" />
<text x="68375" y="48446.9"
textLength="3226.38" font-size="524.934" lengthAdjust="spacingAndGlyphs"
text-anchor="middle" opacity="0">MX-NoLED</text>
<path d="M66893 48428
L66893 48034
L67025 48315
L67156 48034
L67156 48428
" />
<path d="M67306 48034
L67568 48428
" />
<path d="M67568 48034
L67306 48428
" />
<path d="M67718 48278
L68018 48278
" />
<path d="M68206 48428
L68206 48034
L68431 48428
L68431 48034
" />
<path d="M68674 48428
L68637 48409
L68618 48390
L68599 48353
L68599 48240
L68618 48203
L68637 48184
L68674 48165
L68731 48165
L68768 48184
L68787 48203
L68806 48240
L68806 48353
L68787 48390
L68768 48409
L68731 48428
L68674 48428
" />
<path d="M69162 48428
L68974 48428
L68974 48034
" />
<path d="M69293 48221
L69424 48221
" />
<path d="M69481 48428
L69293 48428
L69293 48034
L69481 48034
" />
<path d="M69649 48428
L69649 48034
L69743 48034
L69799 48053
L69837 48090
L69856 48128
L69874 48203
L69874 48259
L69856 48334
L69837 48371
L69799 48409
L69743 48428
L69649 48428
" />
<text x="29000" y="61246.9"
textLength="1651.57" font-size="524.934" lengthAdjust="spacingAndGlyphs"
text-anchor="middle" opacity="0">MX25</text>
<path d="M28306 61228
L28306 60834
L28437 61115
L28568 60834
L28568 61228
" />
<path d="M28718 60834
L28981 61228
" />
<path d="M28981 60834
L28718 61228
" />
<path d="M29112 60871
L29131 60853
L29168 60834
L29262 60834
L29299 60853
L29318 60871
L29337 60909
L29337 60946
L29318 61003
L29093 61228
L29337 61228
" />
<path d="M29693 60834
L29506 60834
L29487 61021
L29506 61003
L29543 60984
L29637 60984
L29674 61003
L29693 61021
L29712 61059
L29712 61153
L29693 61190
L29674 61209
L29637 61228
L29543 61228
L29506 61209
L29487 61190
" />
<text x="29000" y="56871.9"
textLength="3226.38" font-size="524.934" lengthAdjust="spacingAndGlyphs"
text-anchor="middle" opacity="0">MX-NoLED</text>
<path d="M27518 56853
L27518 56459
L27650 56740
L27781 56459
L27781 56853
" />
<path d="M27931 56459
L28193 56853
" />
<path d="M28193 56459
L27931 56853
" />
<path d="M28343 56703
L28643 56703
" />
<path d="M28831 56853
L28831 56459
L29056 56853
L29056 56459
" />
<path d="M29299 56853
L29262 56834
L29243 56815
L29224 56778
L29224 56665
L29243 56628
L29262 56609
L29299 56590
L29356 56590
L29393 56609
L29412 56628
L29431 56665
L29431 56778
L29412 56815
L29393 56834
L29356 56853
L29299 56853
" />
<path d="M29787 56853
L29599 56853
L29599 56459
" />
<path d="M29918 56646
L30049 56646
" />
<path d="M30106 56853
L29918 56853
L29918 56459
L30106 56459
" />
<path d="M30274 56853
L30274 56459
L30368 56459
L30424 56478
L30462 56515
L30481 56553
L30499 56628
L30499 56684
L30481 56759
L30462 56796
L30424 56834
L30368 56853
L30274 56853
" />
<text x="38375" y="61246.9"
textLength="1651.57" font-size="524.934" lengthAdjust="spacingAndGlyphs"
text-anchor="middle" opacity="0">MX26</text>
<path d="M37681 61228
L37681 60834
L37812 61115
L37943 60834
L37943 61228
" />
<path d="M38093 60834
L38356 61228
" />
<path d="M38356 60834
L38093 61228
" />
<path d="M38487 60871
L38506 60853
L38543 60834
L38637 60834
L38674 60853
L38693 60871
L38712 60909
L38712 60946
L38693 61003
L38468 61228
L38712 61228
" />
<path d="M39049 60834
L38974 60834
L38937 60853
L38918 60871
L38881 60928
L38862 61003
L38862 61153
L38881 61190
L38899 61209
L38937 61228
L39012 61228
L39049 61209
L39068 61190
L39087 61153
L39087 61059
L39068 61021
L39049 61003
L39012 60984
L38937 60984
L38899 61003
L38881 61021
L38862 61059
" />
<text x="38375" y="56871.9"
textLength="3226.38" font-size="524.934" lengthAdjust="spacingAndGlyphs"
text-anchor="middle" opacity="0">MX-NoLED</text>
<path d="M36893 56853
L36893 56459
L37025 56740
L37156 56459
L37156 56853
" />
<path d="M37306 56459
L37568 56853
" />
<path d="M37568 56459
L37306 56853
" />
<path d="M37718 56703
L38018 56703
" />
<path d="M38206 56853
L38206 56459
L38431 56853
L38431 56459
" />
<path d="M38674 56853
L38637 56834
L38618 56815
L38599 56778
L38599 56665
L38618 56628
L38637 56609
L38674 56590
L38731 56590
L38768 56609
L38787 56628
L38806 56665
L38806 56778
L38787 56815
L38768 56834
L38731 56853
L38674 56853
" />
<path d="M39162 56853
L38974 56853
L38974 56459
" />
<path d="M39293 56646
L39424 56646
" />
<path d="M39481 56853
L39293 56853
L39293 56459
L39481 56459
" />
<path d="M39649 56853
L39649 56459
L39743 56459
L39799 56478
L39837 56515
L39856 56553
L39874 56628
L39874 56684
L39856 56759
L39837 56796
L39799 56834
L39743 56853
L39649 56853
" />
<text x="45875" y="59371.9"
textLength="1651.57" font-size="524.934" lengthAdjust="spacingAndGlyphs"
text-anchor="middle" opacity="0">MX27</text>
<path d="M45181 59353
L45181 58959
L45312 59240
L45443 58959
L45443 59353
" />
<path d="M45593 58959
L45856 59353
" />
<path d="M45856 58959
L45593 59353
" />
<path d="M45987 58996
L46006 58978
L46043 58959
L46137 58959
L46174 58978
L46193 58996
L46212 59034
L46212 59071
L46193 59128
L45968 59353
L46212 59353
" />
<path d="M46343 58959
L46606 58959
L46437 59353
" />
<text x="45875" y="54996.9"
textLength="3226.38" font-size="524.934" lengthAdjust="spacingAndGlyphs"
text-anchor="middle" opacity="0">MX-NoLED</text>
<path d="M44393 54978
L44393 54584
L44525 54865
L44656 54584
L44656 54978
" />
<path d="M44806 54584
L45068 54978
" />
<path d="M45068 54584
L44806 54978
" />
<path d="M45218 54828
L45518 54828
" />
<path d="M45706 54978
L45706 54584
L45931 54978
L45931 54584
" />
<path d="M46174 54978
L46137 54959
L46118 54940
L46099 54903
L46099 54790
L46118 54753
L46137 54734
L46174 54715
L46231 54715
L46268 54734
L46287 54753
L46306 54790
L46306 54903
L46287 54940
L46268 54959
L46231 54978
L46174 54978
" />
<path d="M46662 54978
L46474 54978
L46474 54584
" />
<path d="M46793 54771
L46924 54771
" />
<path d="M46981 54978
L46793 54978
L46793 54584
L46981 54584
" />
<path d="M47149 54978
L47149 54584
L47243 54584
L47299 54603
L47337 54640
L47356 54678
L47374 54753
L47374 54809
L47356 54884
L47337 54921
L47299 54959
L47243 54978
L47149 54978
" />
<text x="53375" y="58446.9"
textLength="1651.57" font-size="524.934" lengthAdjust="spacingAndGlyphs"
text-anchor="middle" opacity="0">MX28</text>
<path d="M52681 58428
L52681 58034
L52812 58315
L52943 58034
L52943 58428
" />
<path d="M53093 58034
L53356 58428
" />
<path d="M53356 58034
L53093 58428
" />
<path d="M53487 58071
L53506 58053
L53543 58034
L53637 58034
L53674 58053
L53693 58071
L53712 58109
L53712 58146
L53693 58203
L53468 58428
L53712 58428
" />
<path d="M53937 58203
L53899 58184
L53881 58165
L53862 58128
L53862 58109
L53881 58071
L53899 58053
L53937 58034
L54012 58034
L54049 58053
L54068 58071
L54087 58109
L54087 58128
L54068 58165
L54049 58184
L54012 58203
L53937 58203
L53899 58221
L53881 58240
L53862 58278
L53862 58353
L53881 58390
L53899 58409
L53937 58428
L54012 58428
L54049 58409
L54068 58390
L54087 58353
L54087 58278
L54068 58240
L54049 58221
L54012 58203
" />
<text x="53375" y="54071.9"
textLength="3226.38" font-size="524.934" lengthAdjust="spacingAndGlyphs"
text-anchor="middle" opacity="0">MX-NoLED</text>
<path d="M51893 54053
L51893 53659
L52025 53940
L52156 53659
L52156 54053
" />
<path d="M52306 53659
L52568 54053
" />
<path d="M52568 53659
L52306 54053
" />
<path d="M52718 53903
L53018 53903
" />
<path d="M53206 54053
L53206 53659
L53431 54053
L53431 53659
" />
<path d="M53674 54053
L53637 54034
L53618 54015
L53599 53978
L53599 53865
L53618 53828
L53637 53809
L53674 53790
L53731 53790
L53768 53809
L53787 53828
L53806 53865
L53806 53978
L53787 54015
L53768 54034
L53731 54053
L53674 54053
" />
<path d="M54162 54053
L53974 54053
L53974 53659
" />
<path d="M54293 53846
L54424 53846
" />
<path d="M54481 54053
L54293 54053
L54293 53659
L54481 53659
" />
<path d="M54649 54053
L54649 53659
L54743 53659
L54799 53678
L54837 53715
L54856 53753
L54874 53828
L54874 53884
L54856 53959
L54837 53996
L54799 54034
L54743 54053
L54649 54053
" />
<text x="30875" y="38746.9"
textLength="1651.57" font-size="524.934" lengthAdjust="spacingAndGlyphs"
text-anchor="middle" opacity="0">MX64</text>
<path d="M30181 38728
L30181 38334
L30312 38615
L30443 38334
L30443 38728
" />
<path d="M30593 38334
L30856 38728
" />
<path d="M30856 38334
L30593 38728
" />
<path d="M31174 38334
L31099 38334
L31062 38353
L31043 38371
L31006 38428
L30987 38503
L30987 38653
L31006 38690
L31024 38709
L31062 38728
L31137 38728
L31174 38709
L31193 38690
L31212 38653
L31212 38559
L31193 38521
L31174 38503
L31137 38484
L31062 38484
L31024 38503
L31006 38521
L30987 38559
" />
<path d="M31549 38465
L31549 38728
" />
<path d="M31456 38315
L31362 38596
L31606 38596
" />
<text x="30875" y="34371.9"
textLength="3226.38" font-size="524.934" lengthAdjust="spacingAndGlyphs"
text-anchor="middle" opacity="0">MX-NoLED</text>
<path d="M29393 34353
L29393 33959
L29525 34240
L29656 33959
L29656 34353
" />
<path d="M29806 33959
L30068 34353
" />
<path d="M30068 33959
L29806 34353
" />
<path d="M30218 34203
L30518 34203
" />
<path d="M30706 34353
L30706 33959
L30931 34353
L30931 33959
" />
<path d="M31174 34353
L31137 34334
L31118 34315
L31099 34278
L31099 34165
L31118 34128
L31137 34109
L31174 34090
L31231 34090
L31268 34109
L31287 34128
L31306 34165
L31306 34278
L31287 34315
L31268 34334
L31231 34353
L31174 34353
" />
<path d="M31662 34353
L31474 34353
L31474 33959
" />
<path d="M31793 34146
L31924 34146
" />
<path d="M31981 34353
L31793 34353
L31793 33959
L31981 33959
" />
<path d="M32149 34353
L32149 33959
L32243 33959
L32299 33978
L32337 34015
L32356 34053
L32374 34128
L32374 34184
L32356 34259
L32337 34296
L32299 34334
L32243 34353
L32149 34353
" />
<text x="30875" y="53746.9"
textLength="1651.57" font-size="524.934" lengthAdjust="spacingAndGlyphs"
text-anchor="middle" opacity="0">MX66</text>
<path d="M30181 53728
L30181 53334
L30312 53615
L30443 53334
L30443 53728
" />
<path d="M30593 53334
L30856 53728
" />
<path d="M30856 53334
L30593 53728
" />
<path d="M31174 53334
L31099 53334
L31062 53353
L31043 53371
L31006 53428
L30987 53503
L30987 53653
L31006 53690
L31024 53709
L31062 53728
L31137 53728
L31174 53709
L31193 53690
L31212 53653
L31212 53559
L31193 53521
L31174 53503
L31137 53484
L31062 53484
L31024 53503
L31006 53521
L30987 53559
" />
<path d="M31549 53334
L31474 53334
L31437 53353
L31418 53371
L31381 53428
L31362 53503
L31362 53653
L31381 53690
L31399 53709
L31437 53728
L31512 53728
L31549 53709
L31568 53690
L31587 53653
L31587 53559
L31568 53521
L31549 53503
L31512 53484
L31437 53484
L31399 53503
L31381 53521
L31362 53559
" />
<text x="30875" y="49371.9"
textLength="3226.38" font-size="524.934" lengthAdjust="spacingAndGlyphs"
text-anchor="middle" opacity="0">MX-NoLED</text>
<path d="M29393 49353
L29393 48959
L29525 49240
L29656 48959
L29656 49353
" />
<path d="M29806 48959
L30068 49353
" />
<path d="M30068 48959
L29806 49353
" />
<path d="M30218 49203
L30518 49203
" />
<path d="M30706 49353
L30706 48959
L30931 49353
L30931 48959
" />
<path d="M31174 49353
L31137 49334
L31118 49315
L31099 49278
L31099 49165
L31118 49128
L31137 49109
L31174 49090
L31231 49090
L31268 49109
L31287 49128
L31306 49165
L31306 49278
L31287 49315
L31268 49334
L31231 49353
L31174 49353
" />
<path d="M31662 49353
L31474 49353
L31474 48959
" />
<path d="M31793 49146
L31924 49146
" />
<path d="M31981 49353
L31793 49353
L31793 48959
L31981 48959
" />
<path d="M32149 49353
L32149 48959
L32243 48959
L32299 48978
L32337 49015
L32356 49053
L32374 49128
L32374 49184
L32356 49259
L32337 49296
L32299 49334
L32243 49353
L32149 49353
" />
<text x="30875" y="61246.9"
textLength="1651.57" font-size="524.934" lengthAdjust="spacingAndGlyphs"
text-anchor="middle" opacity="0">MX67</text>
<path d="M30181 61228
L30181 60834
L30312 61115
L30443 60834
L30443 61228
" />
<path d="M30593 60834
L30856 61228
" />
<path d="M30856 60834
L30593 61228
" />
<path d="M31174 60834
L31099 60834
L31062 60853
L31043 60871
L31006 60928
L30987 61003
L30987 61153
L31006 61190
L31024 61209
L31062 61228
L31137 61228
L31174 61209
L31193 61190
L31212 61153
L31212 61059
L31193 61021
L31174 61003
L31137 60984
L31062 60984
L31024 61003
L31006 61021
L30987 61059
" />
<path d="M31343 60834
L31606 60834
L31437 61228
" />
<text x="30875" y="56871.9"
textLength="3226.38" font-size="524.934" lengthAdjust="spacingAndGlyphs"
text-anchor="middle" opacity="0">MX-NoLED</text>
<path d="M29393 56853
L29393 56459
L29525 56740
L29656 56459
L29656 56853
" />
<path d="M29806 56459
L30068 56853
" />
<path d="M30068 56459
L29806 56853
" />
<path d="M30218 56703
L30518 56703
" />
<path d="M30706 56853
L30706 56459
L30931 56853
L30931 56459
" />
<path d="M31174 56853
L31137 56834
L31118 56815
L31099 56778
L31099 56665
L31118 56628
L31137 56609
L31174 56590
L31231 56590
L31268 56609
L31287 56628
L31306 56665
L31306 56778
L31287 56815
L31268 56834
L31231 56853
L31174 56853
" />
<path d="M31662 56853
L31474 56853
L31474 56459
" />
<path d="M31793 56646
L31924 56646
" />
<path d="M31981 56853
L31793 56853
L31793 56459
L31981 56459
" />
<path d="M32149 56853
L32149 56459
L32243 56459
L32299 56478
L32337 56515
L32356 56553
L32374 56628
L32374 56684
L32356 56759
L32337 56796
L32299 56834
L32243 56853
L32149 56853
" />
<text x="29000" y="43746.9"
textLength="1651.57" font-size="524.934" lengthAdjust="spacingAndGlyphs"
text-anchor="middle" opacity="0">MX13</text>
<path d="M28306 43728
L28306 43334
L28437 43615
L28568 43334
L28568 43728
" />
<path d="M28718 43334
L28981 43728
" />
<path d="M28981 43334
L28718 43728
" />
<path d="M29337 43728
L29112 43728
" />
<path d="M29224 43728
L29224 43334
L29187 43390
L29149 43428
L29112 43446
" />
<path d="M29468 43334
L29712 43334
L29581 43484
L29637 43484
L29674 43503
L29693 43521
L29712 43559
L29712 43653
L29693 43690
L29674 43709
L29637 43728
L29524 43728
L29487 43709
L29468 43690
" />
<text x="29000" y="48121.9"
textLength="3226.38" font-size="524.934" lengthAdjust="spacingAndGlyphs"
text-anchor="middle" opacity="0">MX-NoLED</text>
<path d="M27518 48103
L27518 47709
L27650 47990
L27781 47709
L27781 48103
" />
<path d="M27931 47709
L28193 48103
" />
<path d="M28193 47709
L27931 48103
" />
<path d="M28343 47953
L28643 47953
" />
<path d="M28831 48103
L28831 47709
L29056 48103
L29056 47709
" />
<path d="M29299 48103
L29262 48084
L29243 48065
L29224 48028
L29224 47915
L29243 47878
L29262 47859
L29299 47840
L29356 47840
L29393 47859
L29412 47878
L29431 47915
L29431 48028
L29412 48065
L29393 48084
L29356 48103
L29299 48103
" />
<path d="M29787 48103
L29599 48103
L29599 47709
" />
<path d="M29918 47896
L30049 47896
" />
<path d="M30106 48103
L29918 48103
L29918 47709
L30106 47709
" />
<path d="M30274 48103
L30274 47709
L30368 47709
L30424 47728
L30462 47765
L30481 47803
L30499 47878
L30499 47934
L30481 48009
L30462 48046
L30424 48084
L30368 48103
L30274 48103
" />
<text x="30875" y="43746.9"
textLength="1651.57" font-size="524.934" lengthAdjust="spacingAndGlyphs"
text-anchor="middle" opacity="0">MX65</text>
<path d="M30181 43728
L30181 43334
L30312 43615
L30443 43334
L30443 43728
" />
<path d="M30593 43334
L30856 43728
" />
<path d="M30856 43334
L30593 43728
" />
<path d="M31174 43334
L31099 43334
L31062 43353
L31043 43371
L31006 43428
L30987 43503
L30987 43653
L31006 43690
L31024 43709
L31062 43728
L31137 43728
L31174 43709
L31193 43690
L31212 43653
L31212 43559
L31193 43521
L31174 43503
L31137 43484
L31062 43484
L31024 43503
L31006 43521
L30987 43559
" />
<path d="M31568 43334
L31381 43334
L31362 43521
L31381 43503
L31418 43484
L31512 43484
L31549 43503
L31568 43521
L31587 43559
L31587 43653
L31568 43690
L31549 43709
L31512 43728
L31418 43728
L31381 43709
L31362 43690
" />
<text x="30875" y="48121.9"
textLength="2457.72" font-size="524.934" lengthAdjust="spacingAndGlyphs"
text-anchor="middle" opacity="0">MX-LED</text>
<path d="M29778 48103
L29778 47709
L29909 47990
L30040 47709
L30040 48103
" />
<path d="M30190 47709
L30453 48103
" />
<path d="M30453 47709
L30190 48103
" />
<path d="M30603 47953
L30903 47953
" />
<path d="M31278 48103
L31090 48103
L31090 47709
" />
<path d="M31409 47896
L31540 47896
" />
<path d="M31596 48103
L31409 48103
L31409 47709
L31596 47709
" />
<path d="M31765 48103
L31765 47709
L31859 47709
L31915 47728
L31952 47765
L31971 47803
L31990 47878
L31990 47934
L31971 48009
L31952 48046
L31915 48084
L31859 48103
L31765 48103
" />
<g transform="rotate(33 76419.2 66998.3)">
<text x="76419.2" y="67195.2"
textLength="1651.57" font-size="524.934" lengthAdjust="spacingAndGlyphs"
text-anchor="middle" opacity="0">MX31</text>
</g>
<path d="M75740 66769
L75954 66439
L75911 66747
L76174 66582
L75960 66912
" />
<path d="M76300 66664
L76306 67137
" />
<path d="M76520 66807
L76086 66994
" />
<path d="M76615 66868
L76819 67001
L76627 67055
L76675 67086
L76696 67122
L76701 67148
L76697 67189
L76646 67268
L76609 67289
L76583 67295
L76542 67290
L76447 67229
L76426 67193
L76421 67167
" />
<path d="M76919 67535
L76731 67413
" />
<path d="M76825 67474
L77039 67144
L76977 67171
L76925 67182
L76884 67177
" />
<g transform="rotate(33 78802 63329.2)">
<text x="78802" y="63526"
textLength="3226.38" font-size="524.934" lengthAdjust="spacingAndGlyphs"
text-anchor="middle" opacity="0">MX-NoLED</text>
</g>
<path d="M77462 62671
L77677 62341
L77634 62649
L77897 62484
L77682 62814
" />
<path d="M78023 62566
L78028 63039
" />
<path d="M78243 62709
L77808 62896
" />
<path d="M78236 62995
L78487 63158
" />
<path d="M78563 63386
L78777 63056
L78752 63509
L78966 63178
" />
<path d="M78956 63641
L78935 63605
L78929 63579
L78934 63538
L78995 63443
L79031 63422
L79057 63417
L79099 63421
L79146 63452
L79167 63488
L79173 63514
L79168 63556
L79107 63650
L79071 63671
L79045 63677
L79003 63672
L78956 63641
" />
<path d="M79365 63907
L79208 63805
L79422 63475
" />
<path d="M79587 63805
L79697 63877
" />
<path d="M79632 64080
L79475 63978
L79689 63648
L79847 63750
" />
<path d="M79774 64172
L79988 63842
L80067 63893
L80104 63940
L80115 63991
L80110 64033
L80085 64106
L80054 64153
L79998 64206
L79962 64227
L79910 64238
L79852 64223
L79774 64172
" />
<g transform="rotate(-57 76810.1 63921.2)">
<text x="76810.1" y="64118.1"
textLength="751.687" font-size="524.934" lengthAdjust="spacingAndGlyphs"
text-anchor="middle" opacity="0">J1</text>
</g>
<path d="M76557 63913
L76793 64067
L76830 64113
L76841 64165
L76826 64222
L76806 64254
" />
<path d="M77102 63798
L76979 63986
" />
<path d="M77041 63892
L76710 63678
L76737 63740
L76748 63791
L76744 63833
" />
<g transform="rotate(-57 72847.9 61348.1)">
<text x="72847.9" y="61545"
textLength="3451.35" font-size="524.934" lengthAdjust="spacingAndGlyphs"
text-anchor="middle" opacity="0">AVR-ISP-6</text>
</g>
<path d="M72024 62736
L72126 62578
" />
<path d="M72098 62828
L71840 62504
L72241 62608
" />
<path d="M71952 62331
L72353 62435
L72095 62111
" />
<path d="M72619 62026
L72390 62034
" />
<path d="M72496 62215
L72166 62001
L72248 61875
L72284 61854
L72310 61848
L72352 61853
L72399 61883
L72420 61920
L72426 61946
L72421 61987
L72339 62113
" />
<path d="M72585 61803
L72748 61552
" />
<path d="M72976 61476
L72646 61262
" />
<path d="M73053 61324
L73099 61287
L73150 61209
L73155 61167
L73149 61141
L73128 61105
L73096 61085
L73055 61080
L73029 61085
L72993 61107
L72936 61159
L72900 61181
L72874 61186
L72832 61181
L72801 61161
L72780 61125
L72774 61099
L72779 61057
L72830 60979
L72876 60942
" />
<path d="M73283 61004
L72952 60790
L73034 60664
L73070 60643
L73096 60637
L73138 60642
L73185 60673
L73206 60709
L73212 60735
L73207 60777
L73125 60902
" />
<path d="M73371 60593
L73535 60341
" />
<path d="M73524 59909
L73483 59972
L73479 60014
L73484 60040
L73511 60102
L73564 60159
L73689 60240
L73731 60245
L73757 60239
L73793 60218
L73834 60155
L73839 60114
L73833 60088
L73812 60052
L73733 60001
L73692 59996
L73666 60001
L73630 60023
L73589 60086
L73584 60127
L73590 60153
L73611 60189
" />
<g >
</g>
</g> 
</svg>
