<?xml version="1.0" standalone="no"?>
 <!DOCTYPE svg PUBLIC "-//W3C//DTD SVG 1.1//EN" 
 "http://www.w3.org/Graphics/SVG/1.1/DTD/svg11.dtd"> 
<svg xmlns="http://www.w3.org/2000/svg" version="1.1" 
    width="59.4004cm" height="41.9989cm" viewBox="0 0 233860 165350 ">
<title>SVG Picture created as Apollo-Edge_Cuts.svg date 2020/02/24 15:35:40 </title>
  <desc>Picture generated by PCBNEW </desc>
<g style="fill:#000000; fill-opacity:1;stroke:#000000; stroke-opacity:1;
stroke-linecap:round; stroke-linejoin:round; "
 transform="translate(0 0) scale(1 1)">
</g>
<g style="fill:#000000; fill-opacity:0.0; 
stroke:#000000; stroke-width:-0.000393701; stroke-opacity:1; 
stroke-linecap:round; stroke-linejoin:round;">
</g>
<g style="fill:#000000; fill-opacity:0.0; 
stroke:#000000; stroke-width:19.685; stroke-opacity:1; 
stroke-linecap:round; stroke-linejoin:round;">
<path d="M47125 61675
L49796 61673
" />
<path d="M29250 63550
L31750 63550
" />
<path d="M28475 26050
L25975 26050
" />
<path d="M47175 24175
L44675 24175
" />
<path d="M61500 24175
L59000 24175
" />
<path d="M61500 24175
L62300 24175
" />
<path d="M62300 24175 A225 225 0.0 0 0 62525 23950 " />
<path d="M64620 64540
L57050 61550
" />
<path d="M62525 23400
L62525 23950
" />
<path d="M51023.7 60899.9 A1483.91 1483.91 0.0 0 0 49796.8 61673.2 " />
<path d="M36725 23395 A225 225 0.0 0 0 36500 23170 " />
<path d="M32750 23170 A225 225 0.0 0 0 32525 23395 " />
<path d="M66725 23400 A225 225 0.0 0 0 66500 23175 " />
<path d="M62750 23175 A225 225 0.0 0 0 62525 23400 " />
<path d="M57125 23475 A225 225 0.0 0 0 56900 23250 " />
<path d="M49625 23625
L49625 23475
" />
<path d="M49850 23250 A225 225 0.0 0 0 49625 23475 " />
<path d="M72125 55819.8 A375 375 0.0 0 0 72322.2 56150 " />
<path d="M83125 63550 A362.353 362.353 0.0 0 0 83006 63078.5 " />
<path d="M76900 72520 A362.353 362.353 0.0 0 0 77371.5 72401 " />
<path d="M42675 61675 A550 550 0.0 0 0 42125 62225 " />
<path d="M41575 63550 A550 550 0.0 0 0 42125 63000 " />
<path d="M24250 63000 A550 550 0.0 0 0 24800 63550 " />
<path d="M72125 25675 A550 550 0.0 0 0 71575 25125 " />
<path d="M66725 24575 A550 550 0.0 0 0 67275 25125 " />
<path d="M57125 23625 A550 550 0.0 0 0 57675 24175 " />
<path d="M49075 24175 A550 550 0.0 0 0 49625 23625 " />
<path d="M42675 24175 A550 550 0.0 0 0 42125 24725 " />
<path d="M41575 26050 A550 550 0.0 0 0 42125 25500 " />
<path d="M36725 25500 A550 550 0.0 0 0 37275 26050 " />
<path d="M31975 26050 A550 550 0.0 0 0 32525 25500 " />
<path d="M24800 26050 A550 550 0.0 0 0 24250 26600 " />
<path d="M72322 56150
L83005 63078
" />
<path d="M70900 68625
L64620 64540
" />
<path d="M76900 72520
L70900 68625
" />
<path d="M83125 63550
L77371 72400
" />
<path d="M29250 63550
L24800 63550
" />
<path d="M59000 24175
L57675 24175
" />
<path d="M44675 24175
L42675 24175
" />
<path d="M24800 26050
L25975 26050
" />
<path d="M47175 24175
L49075 24175
" />
<path d="M42125 25500
L42125 24725
" />
<path d="M37275 26050
L41575 26050
" />
<path d="M36500 23170
L32750 23170
" />
<path d="M36725 25500
L36725 23395
" />
<path d="M32525 25500
L32525 23395
" />
<path d="M28475 26050
L31975 26050
" />
<path d="M24250 63000
L24250 26600
" />
<path d="M41575 63550
L31750 63550
" />
<path d="M42125 62225
L42125 63000
" />
<path d="M47125 61675
L42675 61675
" />
<path d="M57050 61550
L51023 60899
" />
<path d="M72125 25675
L72125 55819
" />
<path d="M67275 25125
L71575 25125
" />
<path d="M66500 23175
L62750 23175
" />
<path d="M66725 24575
L66725 23400
" />
<path d="M57125 23475
L57125 23625
" />
<path d="M49850 23250
L56900 23250
" />
<g >
</g>
<g >
</g>
<g >
</g>
<g >
</g>
<g >
</g>
<g >
</g>
<g >
</g>
<g >
</g>
<g >
</g>
<g >
</g>
<g >
</g>
<g >
</g>
<g >
</g>
<g >
</g>
<g >
</g>
<g >
</g>
<g >
</g>
<g >
</g>
<g >
</g>
<g >
</g>
<g >
</g>
<g >
</g>
<g >
</g>
<g >
</g>
<g >
</g>
<g >
</g>
<g >
</g>
<g >
</g>
<g >
</g>
<g >
</g>
<g >
</g>
<g >
</g>
<g >
</g>
<g >
</g>
<g >
</g>
<g >
</g>
<g >
</g>
<g >
</g>
<g >
</g>
<g >
</g>
<g >
</g>
<g >
</g>
<g >
</g>
<g >
</g>
<g >
</g>
<g >
</g>
<g >
</g>
<g >
</g>
<g >
</g>
<g >
</g>
<g >
</g>
<g >
</g>
<g >
</g>
<g >
</g>
<g >
</g>
<g >
</g>
<g >
</g>
<g >
</g>
<g >
</g>
<g >
</g>
<g >
</g>
<g >
</g>
<g >
</g>
<g >
</g>
<g >
</g>
<g >
</g>
<g >
</g>
<g >
</g>
<g >
</g>
<g >
</g>
<g >
</g>
<g >
</g>
<g >
</g>
<g >
</g>
<g >
</g>
<g >
</g>
<g >
</g>
<g >
</g>
<g >
</g>
<g >
</g>
<g >
</g>
<g >
</g>
<g >
</g>
<g >
</g>
<g >
</g>
<g >
</g>
<g >
</g>
<g >
</g>
<g >
</g>
<g >
</g>
<g >
</g>
<g >
</g>
<g >
</g>
<g >
</g>
</g> 
</svg>
