  0
SECTION
  2
HEADER
  9
$ANGBASE
  50
0.0
  9
$ANGDIR
  70
1
  9
$MEASUREMENT
  70
1
  0
ENDSEC
  0
SECTION
  2
TABLES
  0
TABLE
  2
LTYPE
  70
4
  0
LTYPE
  5
40F
  2
CONTINUOUS
  70
0
  3
Solid line
  72
65
  73
0
  40
0.0
  0
LTYPE
  5
410
  2
DASHDOT
 70
0
  3
Dash Dot ____ _ ____ _
 72
65
 73
4
 40
2.0
 49
1.25
 49
-0.25
 49
0.25
 49
-0.25
  0
LTYPE
  5
411
  2
DASHED
 70
0
  3
Dashed __ __ __ __ __
 72
65
 73
2
 40
0.75
 49
0.5
 49
-0.25
  0
LTYPE
  5
43B
  2
DOTTED
 70
0
  3
Dotted .  .  .  .
 72
65
 73
2
 40
0.2
 49
0.0
 49
-0.2
  0
ENDTAB
  0
TABLE
  2
STYLE
  70
4
  0
STYLE
  2
KICAD
  70
0
  40
0
  41
1
  42
1
  50
0
  71
0
  3
isocp.shx
  0
STYLE
  2
KICADB
  70
0
  40
0
  41
1
  42
1
  50
0
  71
0
  3
isocp.shx
  0
STYLE
  2
KICADI
  70
0
  40
0
  41
1
  42
1
  50
15
  71
0
  3
isocp.shx
  0
STYLE
  2
KICADBI
  70
0
  40
0
  41
1
  42
1
  50
15
  71
0
  3
isocp.shx
  0
ENDTAB
  0
TABLE
  2
LAYER
  70
1
  0
LAYER
  2
BLACK
  70
0
  62
7
  6
CONTINUOUS
  0
ENDTAB
  0
ENDSEC
  0
SECTION
  2
ENTITIES
0
LINE
8
BLACK
6
CONTINUOUS
10
124.659
20
-61.3795
11
124.926
21
-61.3514
0
LINE
8
BLACK
6
CONTINUOUS
10
124.926
20
-61.3514
11
125.182
21
-61.2722
0
LINE
8
BLACK
6
CONTINUOUS
10
125.182
20
-61.2722
11
125.418
21
-61.1448
0
LINE
8
BLACK
6
CONTINUOUS
10
125.418
20
-61.1448
11
125.624
21
-60.9742
0
LINE
8
BLACK
6
CONTINUOUS
10
125.624
20
-60.9742
11
125.793
21
-60.7667
0
LINE
8
BLACK
6
CONTINUOUS
10
125.793
20
-60.7667
11
125.919
21
-60.5303
0
LINE
8
BLACK
6
CONTINUOUS
10
125.919
20
-60.5303
11
125.996
21
-60.274
0
LINE
8
BLACK
6
CONTINUOUS
10
125.996
20
-60.274
11
126.022
21
-60.0063
0
LINE
8
BLACK
6
CONTINUOUS
10
126.022
20
-60.0063
11
126.023
21
-59.6253
0
LINE
8
BLACK
6
CONTINUOUS
10
126.023
20
-59.6253
11
126.023
21
-59.6241
0
LINE
8
BLACK
6
CONTINUOUS
10
126.023
20
-59.6241
11
126.023
21
-59.6241
0
LINE
8
BLACK
6
CONTINUOUS
10
126.023
20
-59.6241
11
126.034
21
-59.5131
0
LINE
8
BLACK
6
CONTINUOUS
10
126.034
20
-59.5131
11
126.034
21
-59.5127
0
LINE
8
BLACK
6
CONTINUOUS
10
126.034
20
-59.5127
11
126.034
21
-59.5105
0
LINE
8
BLACK
6
CONTINUOUS
10
126.034
20
-59.5105
11
126.034
21
-59.5083
0
LINE
8
BLACK
6
CONTINUOUS
10
126.034
20
-59.5083
11
126.067
21
-59.4015
0
LINE
8
BLACK
6
CONTINUOUS
10
126.067
20
-59.4015
11
126.067
21
-59.4012
0
LINE
8
BLACK
6
CONTINUOUS
10
126.067
20
-59.4012
11
126.068
21
-59.399
0
LINE
8
BLACK
6
CONTINUOUS
10
126.068
20
-59.399
11
126.069
21
-59.397
0
LINE
8
BLACK
6
CONTINUOUS
10
126.069
20
-59.397
11
126.121
21
-59.2985
0
LINE
8
BLACK
6
CONTINUOUS
10
126.121
20
-59.2985
11
126.121
21
-59.2982
0
LINE
8
BLACK
6
CONTINUOUS
10
126.121
20
-59.2982
11
126.122
21
-59.2963
0
LINE
8
BLACK
6
CONTINUOUS
10
126.122
20
-59.2963
11
126.124
21
-59.2944
0
LINE
8
BLACK
6
CONTINUOUS
10
126.124
20
-59.2944
11
126.194
21
-59.208
0
LINE
8
BLACK
6
CONTINUOUS
10
126.194
20
-59.208
11
126.194
21
-59.208
0
LINE
8
BLACK
6
CONTINUOUS
10
126.194
20
-59.208
11
126.194
21
-59.208
0
LINE
8
BLACK
6
CONTINUOUS
10
126.194
20
-59.208
11
126.194
21
-59.2077
0
LINE
8
BLACK
6
CONTINUOUS
10
126.194
20
-59.2077
11
126.196
21
-59.2062
0
LINE
8
BLACK
6
CONTINUOUS
10
126.196
20
-59.2062
11
126.198
21
-59.2045
0
LINE
8
BLACK
6
CONTINUOUS
10
126.198
20
-59.2045
11
126.283
21
-59.1334
0
LINE
8
BLACK
6
CONTINUOUS
10
126.283
20
-59.1334
11
126.283
21
-59.1334
0
LINE
8
BLACK
6
CONTINUOUS
10
126.283
20
-59.1334
11
126.283
21
-59.1334
0
LINE
8
BLACK
6
CONTINUOUS
10
126.283
20
-59.1334
11
126.284
21
-59.1332
0
LINE
8
BLACK
6
CONTINUOUS
10
126.284
20
-59.1332
11
126.286
21
-59.132
0
LINE
8
BLACK
6
CONTINUOUS
10
126.286
20
-59.132
11
126.288
21
-59.1307
0
LINE
8
BLACK
6
CONTINUOUS
10
126.288
20
-59.1307
11
126.386
21
-59.0777
0
LINE
8
BLACK
6
CONTINUOUS
10
126.386
20
-59.0777
11
126.386
21
-59.0777
0
LINE
8
BLACK
6
CONTINUOUS
10
126.386
20
-59.0777
11
126.386
21
-59.0777
0
LINE
8
BLACK
6
CONTINUOUS
10
126.386
20
-59.0777
11
126.386
21
-59.0775
0
LINE
8
BLACK
6
CONTINUOUS
10
126.386
20
-59.0775
11
126.388
21
-59.0766
0
LINE
8
BLACK
6
CONTINUOUS
10
126.388
20
-59.0766
11
126.39
21
-59.0758
0
LINE
8
BLACK
6
CONTINUOUS
10
126.39
20
-59.0758
11
126.497
21
-59.0428
0
LINE
8
BLACK
6
CONTINUOUS
10
126.497
20
-59.0428
11
126.497
21
-59.0427
0
LINE
8
BLACK
6
CONTINUOUS
10
126.497
20
-59.0427
11
126.499
21
-59.0423
0
LINE
8
BLACK
6
CONTINUOUS
10
126.499
20
-59.0423
11
126.501
21
-59.0418
0
LINE
8
BLACK
6
CONTINUOUS
10
126.501
20
-59.0418
11
126.612
21
-59.0302
0
LINE
8
BLACK
6
CONTINUOUS
10
126.612
20
-59.0302
11
126.613
21
-59.0301
0
LINE
8
BLACK
6
CONTINUOUS
10
126.613
20
-59.0301
11
126.614
21
-59.0301
0
LINE
8
BLACK
6
CONTINUOUS
10
126.614
20
-59.0301
11
126.615
21
-59.03
0
LINE
8
BLACK
6
CONTINUOUS
10
126.615
20
-59.03
11
126.618
21
-59.03
0
LINE
8
BLACK
6
CONTINUOUS
10
126.618
20
-59.03
11
126.618
21
-59.03
0
LINE
8
BLACK
6
CONTINUOUS
10
126.618
20
-59.03
11
144.527
21
-59.03
0
LINE
8
BLACK
6
CONTINUOUS
10
144.527
20
-59.03
11
144.528
21
-59.0301
0
LINE
8
BLACK
6
CONTINUOUS
10
144.528
20
-59.0301
11
144.528
21
-59.0301
0
LINE
8
BLACK
6
CONTINUOUS
10
144.528
20
-59.0301
11
144.639
21
-59.041
0
LINE
8
BLACK
6
CONTINUOUS
10
144.639
20
-59.041
11
144.64
21
-59.041
0
LINE
8
BLACK
6
CONTINUOUS
10
144.64
20
-59.041
11
144.642
21
-59.0415
0
LINE
8
BLACK
6
CONTINUOUS
10
144.642
20
-59.0415
11
144.644
21
-59.042
0
LINE
8
BLACK
6
CONTINUOUS
10
144.644
20
-59.042
11
144.751
21
-59.0742
0
LINE
8
BLACK
6
CONTINUOUS
10
144.751
20
-59.0742
11
144.751
21
-59.0743
0
LINE
8
BLACK
6
CONTINUOUS
10
144.751
20
-59.0743
11
144.753
21
-59.0752
0
LINE
8
BLACK
6
CONTINUOUS
10
144.753
20
-59.0752
11
144.756
21
-59.076
0
LINE
8
BLACK
6
CONTINUOUS
10
144.756
20
-59.076
11
144.854
21
-59.1284
0
LINE
8
BLACK
6
CONTINUOUS
10
144.854
20
-59.1284
11
144.854
21
-59.1286
0
LINE
8
BLACK
6
CONTINUOUS
10
144.854
20
-59.1286
11
144.856
21
-59.1299
0
LINE
8
BLACK
6
CONTINUOUS
10
144.856
20
-59.1299
11
144.858
21
-59.1311
0
LINE
8
BLACK
6
CONTINUOUS
10
144.858
20
-59.1311
11
144.944
21
-59.2016
0
LINE
8
BLACK
6
CONTINUOUS
10
144.944
20
-59.2016
11
144.944
21
-59.2016
0
LINE
8
BLACK
6
CONTINUOUS
10
144.944
20
-59.2016
11
144.945
21
-59.2016
0
LINE
8
BLACK
6
CONTINUOUS
10
144.945
20
-59.2016
11
144.945
21
-59.2018
0
LINE
8
BLACK
6
CONTINUOUS
10
144.945
20
-59.2018
11
144.946
21
-59.2034
0
LINE
8
BLACK
6
CONTINUOUS
10
144.946
20
-59.2034
11
144.948
21
-59.205
0
LINE
8
BLACK
6
CONTINUOUS
10
144.948
20
-59.205
11
145.019
21
-59.291
0
LINE
8
BLACK
6
CONTINUOUS
10
145.019
20
-59.291
11
145.019
21
-59.291
0
LINE
8
BLACK
6
CONTINUOUS
10
145.019
20
-59.291
11
145.019
21
-59.291
0
LINE
8
BLACK
6
CONTINUOUS
10
145.019
20
-59.291
11
145.019
21
-59.2913
0
LINE
8
BLACK
6
CONTINUOUS
10
145.019
20
-59.2913
11
145.021
21
-59.2932
0
LINE
8
BLACK
6
CONTINUOUS
10
145.021
20
-59.2932
11
145.022
21
-59.295
0
LINE
8
BLACK
6
CONTINUOUS
10
145.022
20
-59.295
11
145.075
21
-59.3931
0
LINE
8
BLACK
6
CONTINUOUS
10
145.075
20
-59.3931
11
145.075
21
-59.3931
0
LINE
8
BLACK
6
CONTINUOUS
10
145.075
20
-59.3931
11
145.075
21
-59.3931
0
LINE
8
BLACK
6
CONTINUOUS
10
145.075
20
-59.3931
11
145.075
21
-59.3935
0
LINE
8
BLACK
6
CONTINUOUS
10
145.075
20
-59.3935
11
145.076
21
-59.3956
0
LINE
8
BLACK
6
CONTINUOUS
10
145.076
20
-59.3956
11
145.077
21
-59.3976
0
LINE
8
BLACK
6
CONTINUOUS
10
145.077
20
-59.3976
11
145.11
21
-59.5042
0
LINE
8
BLACK
6
CONTINUOUS
10
145.11
20
-59.5042
11
145.11
21
-59.5045
0
LINE
8
BLACK
6
CONTINUOUS
10
145.11
20
-59.5045
11
145.11
21
-59.5068
0
LINE
8
BLACK
6
CONTINUOUS
10
145.11
20
-59.5068
11
145.111
21
-59.509
0
LINE
8
BLACK
6
CONTINUOUS
10
145.111
20
-59.509
11
145.122
21
-59.6199
0
LINE
8
BLACK
6
CONTINUOUS
10
145.122
20
-59.6199
11
145.122
21
-59.6202
0
LINE
8
BLACK
6
CONTINUOUS
10
145.122
20
-59.6202
11
145.122
21
-59.6213
0
LINE
8
BLACK
6
CONTINUOUS
10
145.122
20
-59.6213
11
145.122
21
-59.6224
0
LINE
8
BLACK
6
CONTINUOUS
10
145.122
20
-59.6224
11
145.122
21
-59.6252
0
LINE
8
BLACK
6
CONTINUOUS
10
145.122
20
-59.6252
11
145.123
21
-59.6253
0
LINE
8
BLACK
6
CONTINUOUS
10
145.123
20
-59.6253
11
145.123
21
-60.0074
0
LINE
8
BLACK
6
CONTINUOUS
10
145.123
20
-60.0074
11
145.123
21
-60.0159
0
LINE
8
BLACK
6
CONTINUOUS
10
145.123
20
-60.0159
11
145.151
21
-60.2834
0
LINE
8
BLACK
6
CONTINUOUS
10
145.151
20
-60.2834
11
145.23
21
-60.5391
0
LINE
8
BLACK
6
CONTINUOUS
10
145.23
20
-60.5391
11
145.357
21
-60.7746
0
LINE
8
BLACK
6
CONTINUOUS
10
145.357
20
-60.7746
11
145.528
21
-60.9809
0
LINE
8
BLACK
6
CONTINUOUS
10
145.528
20
-60.9809
11
145.735
21
-61.1502
0
LINE
8
BLACK
6
CONTINUOUS
10
145.735
20
-61.1502
11
145.972
21
-61.2759
0
LINE
8
BLACK
6
CONTINUOUS
10
145.972
20
-61.2759
11
146.228
21
-61.3533
0
LINE
8
BLACK
6
CONTINUOUS
10
146.228
20
-61.3533
11
146.496
21
-61.3795
0
LINE
8
BLACK
6
CONTINUOUS
10
146.496
20
-61.3795
11
158.242
21
-61.3795
0
LINE
8
BLACK
6
CONTINUOUS
10
158.242
20
-61.3795
11
158.245
21
-61.3795
0
LINE
8
BLACK
6
CONTINUOUS
10
158.245
20
-61.3795
11
158.352
21
-61.3682
0
LINE
8
BLACK
6
CONTINUOUS
10
158.352
20
-61.3682
11
158.454
21
-61.3367
0
LINE
8
BLACK
6
CONTINUOUS
10
158.454
20
-61.3367
11
158.548
21
-61.286
0
LINE
8
BLACK
6
CONTINUOUS
10
158.548
20
-61.286
11
158.63
21
-61.218
0
LINE
8
BLACK
6
CONTINUOUS
10
158.63
20
-61.218
11
158.697
21
-61.1354
0
LINE
8
BLACK
6
CONTINUOUS
10
158.697
20
-61.1354
11
158.747
21
-61.0412
0
LINE
8
BLACK
6
CONTINUOUS
10
158.747
20
-61.0412
11
158.778
21
-60.9391
0
LINE
8
BLACK
6
CONTINUOUS
10
158.778
20
-60.9391
11
158.789
21
-60.8318
0
LINE
8
BLACK
6
CONTINUOUS
10
158.789
20
-60.8318
11
158.788
21
-59.4348
0
LINE
8
BLACK
6
CONTINUOUS
10
158.788
20
-59.4348
11
158.789
21
-59.4336
0
LINE
8
BLACK
6
CONTINUOUS
10
158.789
20
-59.4336
11
158.789
21
-59.4336
0
LINE
8
BLACK
6
CONTINUOUS
10
158.789
20
-59.4336
11
158.8
21
-59.3226
0
LINE
8
BLACK
6
CONTINUOUS
10
158.8
20
-59.3226
11
158.8
21
-59.3222
0
LINE
8
BLACK
6
CONTINUOUS
10
158.8
20
-59.3222
11
158.8
21
-59.32
0
LINE
8
BLACK
6
CONTINUOUS
10
158.8
20
-59.32
11
158.8
21
-59.3178
0
LINE
8
BLACK
6
CONTINUOUS
10
158.8
20
-59.3178
11
158.833
21
-59.211
0
LINE
8
BLACK
6
CONTINUOUS
10
158.833
20
-59.211
11
158.833
21
-59.2107
0
LINE
8
BLACK
6
CONTINUOUS
10
158.833
20
-59.2107
11
158.834
21
-59.2085
0
LINE
8
BLACK
6
CONTINUOUS
10
158.834
20
-59.2085
11
158.835
21
-59.2065
0
LINE
8
BLACK
6
CONTINUOUS
10
158.835
20
-59.2065
11
158.887
21
-59.108
0
LINE
8
BLACK
6
CONTINUOUS
10
158.887
20
-59.108
11
158.887
21
-59.1077
0
LINE
8
BLACK
6
CONTINUOUS
10
158.887
20
-59.1077
11
158.888
21
-59.1058
0
LINE
8
BLACK
6
CONTINUOUS
10
158.888
20
-59.1058
11
158.89
21
-59.1039
0
LINE
8
BLACK
6
CONTINUOUS
10
158.89
20
-59.1039
11
158.96
21
-59.0175
0
LINE
8
BLACK
6
CONTINUOUS
10
158.96
20
-59.0175
11
158.96
21
-59.0175
0
LINE
8
BLACK
6
CONTINUOUS
10
158.96
20
-59.0175
11
158.96
21
-59.0175
0
LINE
8
BLACK
6
CONTINUOUS
10
158.96
20
-59.0175
11
158.96
21
-59.0172
0
LINE
8
BLACK
6
CONTINUOUS
10
158.96
20
-59.0172
11
158.962
21
-59.0157
0
LINE
8
BLACK
6
CONTINUOUS
10
158.962
20
-59.0157
11
158.964
21
-59.014
0
LINE
8
BLACK
6
CONTINUOUS
10
158.964
20
-59.014
11
159.049
21
-58.9429
0
LINE
8
BLACK
6
CONTINUOUS
10
159.049
20
-58.9429
11
159.049
21
-58.9429
0
LINE
8
BLACK
6
CONTINUOUS
10
159.049
20
-58.9429
11
159.049
21
-58.9429
0
LINE
8
BLACK
6
CONTINUOUS
10
159.049
20
-58.9429
11
159.05
21
-58.9427
0
LINE
8
BLACK
6
CONTINUOUS
10
159.05
20
-58.9427
11
159.052
21
-58.9415
0
LINE
8
BLACK
6
CONTINUOUS
10
159.052
20
-58.9415
11
159.054
21
-58.9402
0
LINE
8
BLACK
6
CONTINUOUS
10
159.054
20
-58.9402
11
159.152
21
-58.8872
0
LINE
8
BLACK
6
CONTINUOUS
10
159.152
20
-58.8872
11
159.152
21
-58.8872
0
LINE
8
BLACK
6
CONTINUOUS
10
159.152
20
-58.8872
11
159.152
21
-58.8872
0
LINE
8
BLACK
6
CONTINUOUS
10
159.152
20
-58.8872
11
159.152
21
-58.887
0
LINE
8
BLACK
6
CONTINUOUS
10
159.152
20
-58.887
11
159.154
21
-58.8861
0
LINE
8
BLACK
6
CONTINUOUS
10
159.154
20
-58.8861
11
159.156
21
-58.8853
0
LINE
8
BLACK
6
CONTINUOUS
10
159.156
20
-58.8853
11
159.263
21
-58.8523
0
LINE
8
BLACK
6
CONTINUOUS
10
159.263
20
-58.8523
11
159.263
21
-58.8522
0
LINE
8
BLACK
6
CONTINUOUS
10
159.263
20
-58.8522
11
159.265
21
-58.8518
0
LINE
8
BLACK
6
CONTINUOUS
10
159.265
20
-58.8518
11
159.267
21
-58.8513
0
LINE
8
BLACK
6
CONTINUOUS
10
159.267
20
-58.8513
11
159.378
21
-58.8397
0
LINE
8
BLACK
6
CONTINUOUS
10
159.378
20
-58.8397
11
159.379
21
-58.8396
0
LINE
8
BLACK
6
CONTINUOUS
10
159.379
20
-58.8396
11
159.38
21
-58.8396
0
LINE
8
BLACK
6
CONTINUOUS
10
159.38
20
-58.8396
11
159.381
21
-58.8395
0
LINE
8
BLACK
6
CONTINUOUS
10
159.381
20
-58.8395
11
159.384
21
-58.8395
0
LINE
8
BLACK
6
CONTINUOUS
10
159.384
20
-58.8395
11
159.384
21
-58.8395
0
LINE
8
BLACK
6
CONTINUOUS
10
159.384
20
-58.8395
11
168.911
21
-58.8395
0
LINE
8
BLACK
6
CONTINUOUS
10
168.911
20
-58.8395
11
168.912
21
-58.8396
0
LINE
8
BLACK
6
CONTINUOUS
10
168.912
20
-58.8396
11
168.912
21
-58.8396
0
LINE
8
BLACK
6
CONTINUOUS
10
168.912
20
-58.8396
11
169.023
21
-58.8505
0
LINE
8
BLACK
6
CONTINUOUS
10
169.023
20
-58.8505
11
169.024
21
-58.8505
0
LINE
8
BLACK
6
CONTINUOUS
10
169.024
20
-58.8505
11
169.026
21
-58.851
0
LINE
8
BLACK
6
CONTINUOUS
10
169.026
20
-58.851
11
169.028
21
-58.8515
0
LINE
8
BLACK
6
CONTINUOUS
10
169.028
20
-58.8515
11
169.135
21
-58.8837
0
LINE
8
BLACK
6
CONTINUOUS
10
169.135
20
-58.8837
11
169.135
21
-58.8838
0
LINE
8
BLACK
6
CONTINUOUS
10
169.135
20
-58.8838
11
169.137
21
-58.8847
0
LINE
8
BLACK
6
CONTINUOUS
10
169.137
20
-58.8847
11
169.14
21
-58.8855
0
LINE
8
BLACK
6
CONTINUOUS
10
169.14
20
-58.8855
11
169.238
21
-58.9379
0
LINE
8
BLACK
6
CONTINUOUS
10
169.238
20
-58.9379
11
169.238
21
-58.9381
0
LINE
8
BLACK
6
CONTINUOUS
10
169.238
20
-58.9381
11
169.24
21
-58.9394
0
LINE
8
BLACK
6
CONTINUOUS
10
169.24
20
-58.9394
11
169.242
21
-58.9406
0
LINE
8
BLACK
6
CONTINUOUS
10
169.242
20
-58.9406
11
169.328
21
-59.0111
0
LINE
8
BLACK
6
CONTINUOUS
10
169.328
20
-59.0111
11
169.328
21
-59.0111
0
LINE
8
BLACK
6
CONTINUOUS
10
169.328
20
-59.0111
11
169.329
21
-59.0111
0
LINE
8
BLACK
6
CONTINUOUS
10
169.329
20
-59.0111
11
169.329
21
-59.0113
0
LINE
8
BLACK
6
CONTINUOUS
10
169.329
20
-59.0113
11
169.33
21
-59.0129
0
LINE
8
BLACK
6
CONTINUOUS
10
169.33
20
-59.0129
11
169.332
21
-59.0145
0
LINE
8
BLACK
6
CONTINUOUS
10
169.332
20
-59.0145
11
169.403
21
-59.1005
0
LINE
8
BLACK
6
CONTINUOUS
10
169.403
20
-59.1005
11
169.403
21
-59.1005
0
LINE
8
BLACK
6
CONTINUOUS
10
169.403
20
-59.1005
11
169.403
21
-59.1005
0
LINE
8
BLACK
6
CONTINUOUS
10
169.403
20
-59.1005
11
169.403
21
-59.1008
0
LINE
8
BLACK
6
CONTINUOUS
10
169.403
20
-59.1008
11
169.405
21
-59.1027
0
LINE
8
BLACK
6
CONTINUOUS
10
169.405
20
-59.1027
11
169.406
21
-59.1045
0
LINE
8
BLACK
6
CONTINUOUS
10
169.406
20
-59.1045
11
169.459
21
-59.2026
0
LINE
8
BLACK
6
CONTINUOUS
10
169.459
20
-59.2026
11
169.459
21
-59.2026
0
LINE
8
BLACK
6
CONTINUOUS
10
169.459
20
-59.2026
11
169.459
21
-59.2026
0
LINE
8
BLACK
6
CONTINUOUS
10
169.459
20
-59.2026
11
169.459
21
-59.203
0
LINE
8
BLACK
6
CONTINUOUS
10
169.459
20
-59.203
11
169.46
21
-59.2051
0
LINE
8
BLACK
6
CONTINUOUS
10
169.46
20
-59.2051
11
169.461
21
-59.2071
0
LINE
8
BLACK
6
CONTINUOUS
10
169.461
20
-59.2071
11
169.494
21
-59.3137
0
LINE
8
BLACK
6
CONTINUOUS
10
169.494
20
-59.3137
11
169.494
21
-59.314
0
LINE
8
BLACK
6
CONTINUOUS
10
169.494
20
-59.314
11
169.494
21
-59.3163
0
LINE
8
BLACK
6
CONTINUOUS
10
169.494
20
-59.3163
11
169.495
21
-59.3185
0
LINE
8
BLACK
6
CONTINUOUS
10
169.495
20
-59.3185
11
169.506
21
-59.4294
0
LINE
8
BLACK
6
CONTINUOUS
10
169.506
20
-59.4294
11
169.506
21
-59.4297
0
LINE
8
BLACK
6
CONTINUOUS
10
169.506
20
-59.4297
11
169.506
21
-59.4308
0
LINE
8
BLACK
6
CONTINUOUS
10
169.506
20
-59.4308
11
169.506
21
-59.4319
0
LINE
8
BLACK
6
CONTINUOUS
10
169.506
20
-59.4319
11
169.506
21
-59.4347
0
LINE
8
BLACK
6
CONTINUOUS
10
169.506
20
-59.4347
11
169.506
21
-59.4348
0
LINE
8
BLACK
6
CONTINUOUS
10
169.506
20
-59.4348
11
169.506
21
-62.4204
0
LINE
8
BLACK
6
CONTINUOUS
10
169.506
20
-62.4204
11
169.507
21
-62.4289
0
LINE
8
BLACK
6
CONTINUOUS
10
169.507
20
-62.4289
11
169.535
21
-62.6964
0
LINE
8
BLACK
6
CONTINUOUS
10
169.535
20
-62.6964
11
169.614
21
-62.9521
0
LINE
8
BLACK
6
CONTINUOUS
10
169.614
20
-62.9521
11
169.741
21
-63.1876
0
LINE
8
BLACK
6
CONTINUOUS
10
169.741
20
-63.1876
11
169.912
21
-63.3939
0
LINE
8
BLACK
6
CONTINUOUS
10
169.912
20
-63.3939
11
170.119
21
-63.5632
0
LINE
8
BLACK
6
CONTINUOUS
10
170.119
20
-63.5632
11
170.356
21
-63.6889
0
LINE
8
BLACK
6
CONTINUOUS
10
170.356
20
-63.6889
11
170.612
21
-63.7663
0
LINE
8
BLACK
6
CONTINUOUS
10
170.612
20
-63.7663
11
170.88
21
-63.7925
0
LINE
8
BLACK
6
CONTINUOUS
10
170.88
20
-63.7925
11
181.802
21
-63.7925
0
LINE
8
BLACK
6
CONTINUOUS
10
181.802
20
-63.7925
11
181.803
21
-63.7926
0
LINE
8
BLACK
6
CONTINUOUS
10
181.803
20
-63.7926
11
181.803
21
-63.7926
0
LINE
8
BLACK
6
CONTINUOUS
10
181.803
20
-63.7926
11
182.074
21
-63.8192
0
LINE
8
BLACK
6
CONTINUOUS
10
182.074
20
-63.8192
11
182.075
21
-63.8193
0
LINE
8
BLACK
6
CONTINUOUS
10
182.075
20
-63.8193
11
182.077
21
-63.8197
0
LINE
8
BLACK
6
CONTINUOUS
10
182.077
20
-63.8197
11
182.079
21
-63.8202
0
LINE
8
BLACK
6
CONTINUOUS
10
182.079
20
-63.8202
11
182.34
21
-63.899
0
LINE
8
BLACK
6
CONTINUOUS
10
182.34
20
-63.899
11
182.34
21
-63.8991
0
LINE
8
BLACK
6
CONTINUOUS
10
182.34
20
-63.8991
11
182.343
21
-63.9
0
LINE
8
BLACK
6
CONTINUOUS
10
182.343
20
-63.9
11
182.345
21
-63.9008
0
LINE
8
BLACK
6
CONTINUOUS
10
182.345
20
-63.9008
11
182.585
21
-64.0288
0
LINE
8
BLACK
6
CONTINUOUS
10
182.585
20
-64.0288
11
182.586
21
-64.029
0
LINE
8
BLACK
6
CONTINUOUS
10
182.586
20
-64.029
11
182.587
21
-64.0303
0
LINE
8
BLACK
6
CONTINUOUS
10
182.587
20
-64.0303
11
182.589
21
-64.0315
0
LINE
8
BLACK
6
CONTINUOUS
10
182.589
20
-64.0315
11
182.801
21
-64.2039
0
LINE
8
BLACK
6
CONTINUOUS
10
182.801
20
-64.2039
11
182.801
21
-64.2039
0
LINE
8
BLACK
6
CONTINUOUS
10
182.801
20
-64.2039
11
182.801
21
-64.2039
0
LINE
8
BLACK
6
CONTINUOUS
10
182.801
20
-64.2039
11
182.801
21
-64.2041
0
LINE
8
BLACK
6
CONTINUOUS
10
182.801
20
-64.2041
11
182.803
21
-64.2057
0
LINE
8
BLACK
6
CONTINUOUS
10
182.803
20
-64.2057
11
182.804
21
-64.2073
0
LINE
8
BLACK
6
CONTINUOUS
10
182.804
20
-64.2073
11
182.978
21
-64.4174
0
LINE
8
BLACK
6
CONTINUOUS
10
182.978
20
-64.4174
11
182.978
21
-64.4176
0
LINE
8
BLACK
6
CONTINUOUS
10
182.978
20
-64.4176
11
182.979
21
-64.4196
0
LINE
8
BLACK
6
CONTINUOUS
10
182.979
20
-64.4196
11
182.981
21
-64.4214
0
LINE
8
BLACK
6
CONTINUOUS
10
182.981
20
-64.4214
11
183.11
21
-64.6612
0
LINE
8
BLACK
6
CONTINUOUS
10
183.11
20
-64.6612
11
183.11
21
-64.6612
0
LINE
8
BLACK
6
CONTINUOUS
10
183.11
20
-64.6612
11
183.11
21
-64.6613
0
LINE
8
BLACK
6
CONTINUOUS
10
183.11
20
-64.6613
11
183.11
21
-64.6616
0
LINE
8
BLACK
6
CONTINUOUS
10
183.11
20
-64.6616
11
183.111
21
-64.6637
0
LINE
8
BLACK
6
CONTINUOUS
10
183.111
20
-64.6637
11
183.112
21
-64.6657
0
LINE
8
BLACK
6
CONTINUOUS
10
183.112
20
-64.6657
11
183.193
21
-64.9262
0
LINE
8
BLACK
6
CONTINUOUS
10
183.193
20
-64.9262
11
183.193
21
-64.9265
0
LINE
8
BLACK
6
CONTINUOUS
10
183.193
20
-64.9265
11
183.193
21
-64.9288
0
LINE
8
BLACK
6
CONTINUOUS
10
183.193
20
-64.9288
11
183.194
21
-64.931
0
LINE
8
BLACK
6
CONTINUOUS
10
183.194
20
-64.931
11
183.222
21
-65.2021
0
LINE
8
BLACK
6
CONTINUOUS
10
183.222
20
-65.2021
11
183.222
21
-65.2025
0
LINE
8
BLACK
6
CONTINUOUS
10
183.222
20
-65.2025
11
183.222
21
-65.2036
0
LINE
8
BLACK
6
CONTINUOUS
10
183.222
20
-65.2036
11
183.222
21
-65.2047
0
LINE
8
BLACK
6
CONTINUOUS
10
183.222
20
-65.2047
11
183.222
21
-65.2132
0
LINE
8
BLACK
6
CONTINUOUS
10
183.222
20
-65.2132
11
183.222
21
-65.2133
0
LINE
8
BLACK
6
CONTINUOUS
10
183.222
20
-65.2133
11
183.222
21
-141.782
0
LINE
8
BLACK
6
CONTINUOUS
10
183.222
20
-141.782
11
183.227
21
-141.874
0
LINE
8
BLACK
6
CONTINUOUS
10
183.227
20
-141.874
11
183.263
21
-142.052
0
LINE
8
BLACK
6
CONTINUOUS
10
183.263
20
-142.052
11
183.332
21
-142.219
0
LINE
8
BLACK
6
CONTINUOUS
10
183.332
20
-142.219
11
183.432
21
-142.37
0
LINE
8
BLACK
6
CONTINUOUS
10
183.432
20
-142.37
11
183.56
21
-142.498
0
LINE
8
BLACK
6
CONTINUOUS
10
183.56
20
-142.498
11
183.712
21
-142.6
0
LINE
8
BLACK
6
CONTINUOUS
10
183.712
20
-142.6
11
210.85
21
-160.199
0
LINE
8
BLACK
6
CONTINUOUS
10
210.85
20
-160.199
11
210.853
21
-160.201
0
LINE
8
BLACK
6
CONTINUOUS
10
210.853
20
-160.201
11
210.853
21
-160.202
0
LINE
8
BLACK
6
CONTINUOUS
10
210.853
20
-160.202
11
210.99
21
-160.314
0
LINE
8
BLACK
6
CONTINUOUS
10
210.99
20
-160.314
11
210.99
21
-160.314
0
LINE
8
BLACK
6
CONTINUOUS
10
210.99
20
-160.314
11
210.992
21
-160.316
0
LINE
8
BLACK
6
CONTINUOUS
10
210.992
20
-160.316
11
210.994
21
-160.317
0
LINE
8
BLACK
6
CONTINUOUS
10
210.994
20
-160.317
11
211.108
21
-160.456
0
LINE
8
BLACK
6
CONTINUOUS
10
211.108
20
-160.456
11
211.108
21
-160.456
0
LINE
8
BLACK
6
CONTINUOUS
10
211.108
20
-160.456
11
211.109
21
-160.458
0
LINE
8
BLACK
6
CONTINUOUS
10
211.109
20
-160.458
11
211.111
21
-160.46
0
LINE
8
BLACK
6
CONTINUOUS
10
211.111
20
-160.46
11
211.196
21
-160.618
0
LINE
8
BLACK
6
CONTINUOUS
10
211.196
20
-160.618
11
211.196
21
-160.618
0
LINE
8
BLACK
6
CONTINUOUS
10
211.196
20
-160.618
11
211.197
21
-160.62
0
LINE
8
BLACK
6
CONTINUOUS
10
211.197
20
-160.62
11
211.198
21
-160.623
0
LINE
8
BLACK
6
CONTINUOUS
10
211.198
20
-160.623
11
211.25
21
-160.794
0
LINE
8
BLACK
6
CONTINUOUS
10
211.25
20
-160.794
11
211.251
21
-160.795
0
LINE
8
BLACK
6
CONTINUOUS
10
211.251
20
-160.795
11
211.251
21
-160.797
0
LINE
8
BLACK
6
CONTINUOUS
10
211.251
20
-160.797
11
211.251
21
-160.799
0
LINE
8
BLACK
6
CONTINUOUS
10
211.251
20
-160.799
11
211.27
21
-160.978
0
LINE
8
BLACK
6
CONTINUOUS
10
211.27
20
-160.978
11
211.27
21
-160.978
0
LINE
8
BLACK
6
CONTINUOUS
10
211.27
20
-160.978
11
211.27
21
-160.98
0
LINE
8
BLACK
6
CONTINUOUS
10
211.27
20
-160.98
11
211.27
21
-160.983
0
LINE
8
BLACK
6
CONTINUOUS
10
211.27
20
-160.983
11
211.253
21
-161.161
0
LINE
8
BLACK
6
CONTINUOUS
10
211.253
20
-161.161
11
211.253
21
-161.162
0
LINE
8
BLACK
6
CONTINUOUS
10
211.253
20
-161.162
11
211.253
21
-161.164
0
LINE
8
BLACK
6
CONTINUOUS
10
211.253
20
-161.164
11
211.252
21
-161.166
0
LINE
8
BLACK
6
CONTINUOUS
10
211.252
20
-161.166
11
211.201
21
-161.338
0
LINE
8
BLACK
6
CONTINUOUS
10
211.201
20
-161.338
11
211.201
21
-161.339
0
LINE
8
BLACK
6
CONTINUOUS
10
211.201
20
-161.339
11
211.201
21
-161.34
0
LINE
8
BLACK
6
CONTINUOUS
10
211.201
20
-161.34
11
211.2
21
-161.342
0
LINE
8
BLACK
6
CONTINUOUS
10
211.2
20
-161.342
11
211.161
21
-161.426
0
LINE
8
BLACK
6
CONTINUOUS
10
211.161
20
-161.426
11
211.161
21
-161.426
0
LINE
8
BLACK
6
CONTINUOUS
10
211.161
20
-161.426
11
211.159
21
-161.43
0
LINE
8
BLACK
6
CONTINUOUS
10
211.159
20
-161.43
11
196.544
21
-183.913
0
LINE
8
BLACK
6
CONTINUOUS
10
196.544
20
-183.913
11
196.543
21
-183.914
0
LINE
8
BLACK
6
CONTINUOUS
10
196.543
20
-183.914
11
196.543
21
-183.914
0
LINE
8
BLACK
6
CONTINUOUS
10
196.543
20
-183.914
11
196.543
21
-183.914
0
LINE
8
BLACK
6
CONTINUOUS
10
196.543
20
-183.914
11
196.542
21
-183.916
0
LINE
8
BLACK
6
CONTINUOUS
10
196.542
20
-183.916
11
196.541
21
-183.916
0
LINE
8
BLACK
6
CONTINUOUS
10
196.541
20
-183.916
11
196.429
21
-184.053
0
LINE
8
BLACK
6
CONTINUOUS
10
196.429
20
-184.053
11
196.429
21
-184.054
0
LINE
8
BLACK
6
CONTINUOUS
10
196.429
20
-184.054
11
196.427
21
-184.055
0
LINE
8
BLACK
6
CONTINUOUS
10
196.427
20
-184.055
11
196.426
21
-184.057
0
LINE
8
BLACK
6
CONTINUOUS
10
196.426
20
-184.057
11
196.287
21
-184.171
0
LINE
8
BLACK
6
CONTINUOUS
10
196.287
20
-184.171
11
196.287
21
-184.171
0
LINE
8
BLACK
6
CONTINUOUS
10
196.287
20
-184.171
11
196.285
21
-184.173
0
LINE
8
BLACK
6
CONTINUOUS
10
196.285
20
-184.173
11
196.283
21
-184.174
0
LINE
8
BLACK
6
CONTINUOUS
10
196.283
20
-184.174
11
196.125
21
-184.259
0
LINE
8
BLACK
6
CONTINUOUS
10
196.125
20
-184.259
11
196.125
21
-184.259
0
LINE
8
BLACK
6
CONTINUOUS
10
196.125
20
-184.259
11
196.123
21
-184.26
0
LINE
8
BLACK
6
CONTINUOUS
10
196.123
20
-184.26
11
196.12
21
-184.261
0
LINE
8
BLACK
6
CONTINUOUS
10
196.12
20
-184.261
11
195.949
21
-184.314
0
LINE
8
BLACK
6
CONTINUOUS
10
195.949
20
-184.314
11
195.949
21
-184.314
0
LINE
8
BLACK
6
CONTINUOUS
10
195.949
20
-184.314
11
195.948
21
-184.314
0
LINE
8
BLACK
6
CONTINUOUS
10
195.948
20
-184.314
11
195.946
21
-184.314
0
LINE
8
BLACK
6
CONTINUOUS
10
195.946
20
-184.314
11
195.944
21
-184.315
0
LINE
8
BLACK
6
CONTINUOUS
10
195.944
20
-184.315
11
195.765
21
-184.333
0
LINE
8
BLACK
6
CONTINUOUS
10
195.765
20
-184.333
11
195.765
21
-184.333
0
LINE
8
BLACK
6
CONTINUOUS
10
195.765
20
-184.333
11
195.763
21
-184.333
0
LINE
8
BLACK
6
CONTINUOUS
10
195.763
20
-184.333
11
195.76
21
-184.333
0
LINE
8
BLACK
6
CONTINUOUS
10
195.76
20
-184.333
11
195.582
21
-184.317
0
LINE
8
BLACK
6
CONTINUOUS
10
195.582
20
-184.317
11
195.581
21
-184.317
0
LINE
8
BLACK
6
CONTINUOUS
10
195.581
20
-184.317
11
195.579
21
-184.316
0
LINE
8
BLACK
6
CONTINUOUS
10
195.579
20
-184.316
11
195.577
21
-184.316
0
LINE
8
BLACK
6
CONTINUOUS
10
195.577
20
-184.316
11
195.405
21
-184.265
0
LINE
8
BLACK
6
CONTINUOUS
10
195.405
20
-184.265
11
195.404
21
-184.265
0
LINE
8
BLACK
6
CONTINUOUS
10
195.404
20
-184.265
11
195.403
21
-184.264
0
LINE
8
BLACK
6
CONTINUOUS
10
195.403
20
-184.264
11
195.401
21
-184.263
0
LINE
8
BLACK
6
CONTINUOUS
10
195.401
20
-184.263
11
195.317
21
-184.224
0
LINE
8
BLACK
6
CONTINUOUS
10
195.317
20
-184.224
11
195.317
21
-184.224
0
LINE
8
BLACK
6
CONTINUOUS
10
195.317
20
-184.224
11
195.313
21
-184.222
0
LINE
8
BLACK
6
CONTINUOUS
10
195.313
20
-184.222
11
180.073
21
-174.329
0
LINE
8
BLACK
6
CONTINUOUS
10
180.073
20
-174.329
11
180.073
21
-174.329
0
LINE
8
BLACK
6
CONTINUOUS
10
180.073
20
-174.329
11
180.072
21
-174.328
0
LINE
8
BLACK
6
CONTINUOUS
10
180.072
20
-174.328
11
180.071
21
-174.328
0
LINE
8
BLACK
6
CONTINUOUS
10
180.071
20
-174.328
11
180.071
21
-174.328
0
LINE
8
BLACK
6
CONTINUOUS
10
180.071
20
-174.328
11
164.123
21
-163.954
0
LINE
8
BLACK
6
CONTINUOUS
10
164.123
20
-163.954
11
144.901
21
-156.361
0
LINE
8
BLACK
6
CONTINUOUS
10
144.901
20
-156.361
11
129.6
21
-154.711
0
LINE
8
BLACK
6
CONTINUOUS
10
129.6
20
-154.711
11
129.439
21
-154.723
0
LINE
8
BLACK
6
CONTINUOUS
10
129.439
20
-154.723
11
128.721
21
-154.863
0
LINE
8
BLACK
6
CONTINUOUS
10
128.721
20
-154.863
11
128.045
21
-155.14
0
LINE
8
BLACK
6
CONTINUOUS
10
128.045
20
-155.14
11
127.435
21
-155.543
0
LINE
8
BLACK
6
CONTINUOUS
10
127.435
20
-155.543
11
126.916
21
-156.057
0
LINE
8
BLACK
6
CONTINUOUS
10
126.916
20
-156.057
11
126.505
21
-156.663
0
LINE
8
BLACK
6
CONTINUOUS
10
126.505
20
-156.663
11
126.505
21
-156.664
0
LINE
8
BLACK
6
CONTINUOUS
10
126.505
20
-156.664
11
126.502
21
-156.668
0
LINE
8
BLACK
6
CONTINUOUS
10
126.502
20
-156.668
11
126.498
21
-156.671
0
LINE
8
BLACK
6
CONTINUOUS
10
126.498
20
-156.671
11
126.493
21
-156.673
0
LINE
8
BLACK
6
CONTINUOUS
10
126.493
20
-156.673
11
126.489
21
-156.675
0
LINE
8
BLACK
6
CONTINUOUS
10
126.489
20
-156.675
11
126.485
21
-156.675
0
LINE
8
BLACK
6
CONTINUOUS
10
126.485
20
-156.675
11
119.699
21
-156.679
0
LINE
8
BLACK
6
CONTINUOUS
10
119.699
20
-156.679
11
119.699
21
-156.679
0
LINE
8
BLACK
6
CONTINUOUS
10
119.699
20
-156.679
11
108.395
21
-156.679
0
LINE
8
BLACK
6
CONTINUOUS
10
108.395
20
-156.679
11
108.386
21
-156.68
0
LINE
8
BLACK
6
CONTINUOUS
10
108.386
20
-156.68
11
108.119
21
-156.708
0
LINE
8
BLACK
6
CONTINUOUS
10
108.119
20
-156.708
11
107.863
21
-156.787
0
LINE
8
BLACK
6
CONTINUOUS
10
107.863
20
-156.787
11
107.627
21
-156.914
0
LINE
8
BLACK
6
CONTINUOUS
10
107.627
20
-156.914
11
107.421
21
-157.085
0
LINE
8
BLACK
6
CONTINUOUS
10
107.421
20
-157.085
11
107.252
21
-157.292
0
LINE
8
BLACK
6
CONTINUOUS
10
107.252
20
-157.292
11
107.126
21
-157.529
0
LINE
8
BLACK
6
CONTINUOUS
10
107.126
20
-157.529
11
107.049
21
-157.785
0
LINE
8
BLACK
6
CONTINUOUS
10
107.049
20
-157.785
11
107.022
21
-158.053
0
LINE
8
BLACK
6
CONTINUOUS
10
107.022
20
-158.053
11
107.022
21
-160.021
0
LINE
8
BLACK
6
CONTINUOUS
10
107.022
20
-160.021
11
107.022
21
-160.022
0
LINE
8
BLACK
6
CONTINUOUS
10
107.022
20
-160.022
11
107.022
21
-160.022
0
LINE
8
BLACK
6
CONTINUOUS
10
107.022
20
-160.022
11
106.996
21
-160.294
0
LINE
8
BLACK
6
CONTINUOUS
10
106.996
20
-160.294
11
106.996
21
-160.294
0
LINE
8
BLACK
6
CONTINUOUS
10
106.996
20
-160.294
11
106.995
21
-160.296
0
LINE
8
BLACK
6
CONTINUOUS
10
106.995
20
-160.296
11
106.995
21
-160.299
0
LINE
8
BLACK
6
CONTINUOUS
10
106.995
20
-160.299
11
106.916
21
-160.56
0
LINE
8
BLACK
6
CONTINUOUS
10
106.916
20
-160.56
11
106.916
21
-160.56
0
LINE
8
BLACK
6
CONTINUOUS
10
106.916
20
-160.56
11
106.915
21
-160.562
0
LINE
8
BLACK
6
CONTINUOUS
10
106.915
20
-160.562
11
106.914
21
-160.564
0
LINE
8
BLACK
6
CONTINUOUS
10
106.914
20
-160.564
11
106.786
21
-160.805
0
LINE
8
BLACK
6
CONTINUOUS
10
106.786
20
-160.805
11
106.786
21
-160.805
0
LINE
8
BLACK
6
CONTINUOUS
10
106.786
20
-160.805
11
106.785
21
-160.807
0
LINE
8
BLACK
6
CONTINUOUS
10
106.785
20
-160.807
11
106.783
21
-160.809
0
LINE
8
BLACK
6
CONTINUOUS
10
106.783
20
-160.809
11
106.611
21
-161.02
0
LINE
8
BLACK
6
CONTINUOUS
10
106.611
20
-161.02
11
106.611
21
-161.02
0
LINE
8
BLACK
6
CONTINUOUS
10
106.611
20
-161.02
11
106.609
21
-161.022
0
LINE
8
BLACK
6
CONTINUOUS
10
106.609
20
-161.022
11
106.608
21
-161.024
0
LINE
8
BLACK
6
CONTINUOUS
10
106.608
20
-161.024
11
106.398
21
-161.197
0
LINE
8
BLACK
6
CONTINUOUS
10
106.398
20
-161.197
11
106.397
21
-161.198
0
LINE
8
BLACK
6
CONTINUOUS
10
106.397
20
-161.198
11
106.395
21
-161.199
0
LINE
8
BLACK
6
CONTINUOUS
10
106.395
20
-161.199
11
106.394
21
-161.2
0
LINE
8
BLACK
6
CONTINUOUS
10
106.394
20
-161.2
11
106.154
21
-161.33
0
LINE
8
BLACK
6
CONTINUOUS
10
106.154
20
-161.33
11
106.153
21
-161.33
0
LINE
8
BLACK
6
CONTINUOUS
10
106.153
20
-161.33
11
106.151
21
-161.331
0
LINE
8
BLACK
6
CONTINUOUS
10
106.151
20
-161.331
11
106.149
21
-161.332
0
LINE
8
BLACK
6
CONTINUOUS
10
106.149
20
-161.332
11
105.889
21
-161.412
0
LINE
8
BLACK
6
CONTINUOUS
10
105.889
20
-161.412
11
105.888
21
-161.412
0
LINE
8
BLACK
6
CONTINUOUS
10
105.888
20
-161.412
11
105.886
21
-161.413
0
LINE
8
BLACK
6
CONTINUOUS
10
105.886
20
-161.413
11
105.884
21
-161.413
0
LINE
8
BLACK
6
CONTINUOUS
10
105.884
20
-161.413
11
105.613
21
-161.442
0
LINE
8
BLACK
6
CONTINUOUS
10
105.613
20
-161.442
11
105.613
21
-161.442
0
LINE
8
BLACK
6
CONTINUOUS
10
105.613
20
-161.442
11
105.611
21
-161.442
0
LINE
8
BLACK
6
CONTINUOUS
10
105.611
20
-161.442
11
105.61
21
-161.442
0
LINE
8
BLACK
6
CONTINUOUS
10
105.61
20
-161.442
11
105.602
21
-161.442
0
LINE
8
BLACK
6
CONTINUOUS
10
105.602
20
-161.442
11
105.602
21
-161.442
0
LINE
8
BLACK
6
CONTINUOUS
10
105.602
20
-161.442
11
62.9908
21
-161.442
0
LINE
8
BLACK
6
CONTINUOUS
10
62.9908
20
-161.442
11
62.9896
21
-161.442
0
LINE
8
BLACK
6
CONTINUOUS
10
62.9896
20
-161.442
11
62.9896
21
-161.442
0
LINE
8
BLACK
6
CONTINUOUS
10
62.9896
20
-161.442
11
62.7182
21
-161.415
0
LINE
8
BLACK
6
CONTINUOUS
10
62.7182
20
-161.415
11
62.7179
21
-161.415
0
LINE
8
BLACK
6
CONTINUOUS
10
62.7179
20
-161.415
11
62.7156
21
-161.415
0
LINE
8
BLACK
6
CONTINUOUS
10
62.7156
20
-161.415
11
62.7134
21
-161.414
0
LINE
8
BLACK
6
CONTINUOUS
10
62.7134
20
-161.414
11
62.4524
21
-161.336
0
LINE
8
BLACK
6
CONTINUOUS
10
62.4524
20
-161.336
11
62.4521
21
-161.335
0
LINE
8
BLACK
6
CONTINUOUS
10
62.4521
20
-161.335
11
62.45
21
-161.335
0
LINE
8
BLACK
6
CONTINUOUS
10
62.45
20
-161.335
11
62.4479
21
-161.334
0
LINE
8
BLACK
6
CONTINUOUS
10
62.4479
20
-161.334
11
62.2072
21
-161.206
0
LINE
8
BLACK
6
CONTINUOUS
10
62.2072
20
-161.206
11
62.2069
21
-161.205
0
LINE
8
BLACK
6
CONTINUOUS
10
62.2069
20
-161.205
11
62.205
21
-161.204
0
LINE
8
BLACK
6
CONTINUOUS
10
62.205
20
-161.204
11
62.2031
21
-161.203
0
LINE
8
BLACK
6
CONTINUOUS
10
62.2031
20
-161.203
11
61.9918
21
-161.031
0
LINE
8
BLACK
6
CONTINUOUS
10
61.9918
20
-161.031
11
61.9916
21
-161.03
0
LINE
8
BLACK
6
CONTINUOUS
10
61.9916
20
-161.03
11
61.9899
21
-161.029
0
LINE
8
BLACK
6
CONTINUOUS
10
61.9899
20
-161.029
11
61.9884
21
-161.027
0
LINE
8
BLACK
6
CONTINUOUS
10
61.9884
20
-161.027
11
61.8146
21
-160.817
0
LINE
8
BLACK
6
CONTINUOUS
10
61.8146
20
-160.817
11
61.8144
21
-160.817
0
LINE
8
BLACK
6
CONTINUOUS
10
61.8144
20
-160.817
11
61.8131
21
-160.815
0
LINE
8
BLACK
6
CONTINUOUS
10
61.8131
20
-160.815
11
61.8118
21
-160.813
0
LINE
8
BLACK
6
CONTINUOUS
10
61.8118
20
-160.813
11
61.6822
21
-160.573
0
LINE
8
BLACK
6
CONTINUOUS
10
61.6822
20
-160.573
11
61.682
21
-160.573
0
LINE
8
BLACK
6
CONTINUOUS
10
61.682
20
-160.573
11
61.6811
21
-160.571
0
LINE
8
BLACK
6
CONTINUOUS
10
61.6811
20
-160.571
11
61.6803
21
-160.569
0
LINE
8
BLACK
6
CONTINUOUS
10
61.6803
20
-160.569
11
61.5997
21
-160.308
0
LINE
8
BLACK
6
CONTINUOUS
10
61.5997
20
-160.308
11
61.5996
21
-160.308
0
LINE
8
BLACK
6
CONTINUOUS
10
61.5996
20
-160.308
11
61.5991
21
-160.306
0
LINE
8
BLACK
6
CONTINUOUS
10
61.5991
20
-160.306
11
61.5987
21
-160.304
0
LINE
8
BLACK
6
CONTINUOUS
10
61.5987
20
-160.304
11
61.5702
21
-160.032
0
LINE
8
BLACK
6
CONTINUOUS
10
61.5702
20
-160.032
11
61.5701
21
-160.032
0
LINE
8
BLACK
6
CONTINUOUS
10
61.5701
20
-160.032
11
61.5701
21
-160.031
0
LINE
8
BLACK
6
CONTINUOUS
10
61.5701
20
-160.031
11
61.57
21
-160.03
0
LINE
8
BLACK
6
CONTINUOUS
10
61.57
20
-160.03
11
61.57
21
-160.021
0
LINE
8
BLACK
6
CONTINUOUS
10
61.57
20
-160.021
11
61.57
21
-160.021
0
LINE
8
BLACK
6
CONTINUOUS
10
61.57
20
-160.021
11
61.57
21
-67.5628
0
LINE
8
BLACK
6
CONTINUOUS
10
61.57
20
-67.5628
11
61.5701
21
-67.5616
0
LINE
8
BLACK
6
CONTINUOUS
10
61.5701
20
-67.5616
11
61.5701
21
-67.5616
0
LINE
8
BLACK
6
CONTINUOUS
10
61.5701
20
-67.5616
11
61.5967
21
-67.2902
0
LINE
8
BLACK
6
CONTINUOUS
10
61.5967
20
-67.2902
11
61.5968
21
-67.2899
0
LINE
8
BLACK
6
CONTINUOUS
10
61.5968
20
-67.2899
11
61.5972
21
-67.2876
0
LINE
8
BLACK
6
CONTINUOUS
10
61.5972
20
-67.2876
11
61.5977
21
-67.2854
0
LINE
8
BLACK
6
CONTINUOUS
10
61.5977
20
-67.2854
11
61.6765
21
-67.0244
0
LINE
8
BLACK
6
CONTINUOUS
10
61.6765
20
-67.0244
11
61.6766
21
-67.0241
0
LINE
8
BLACK
6
CONTINUOUS
10
61.6766
20
-67.0241
11
61.6775
21
-67.022
0
LINE
8
BLACK
6
CONTINUOUS
10
61.6775
20
-67.022
11
61.6783
21
-67.0199
0
LINE
8
BLACK
6
CONTINUOUS
10
61.6783
20
-67.0199
11
61.8063
21
-66.7792
0
LINE
8
BLACK
6
CONTINUOUS
10
61.8063
20
-66.7792
11
61.8065
21
-66.7789
0
LINE
8
BLACK
6
CONTINUOUS
10
61.8065
20
-66.7789
11
61.8078
21
-66.777
0
LINE
8
BLACK
6
CONTINUOUS
10
61.8078
20
-66.777
11
61.809
21
-66.7751
0
LINE
8
BLACK
6
CONTINUOUS
10
61.809
20
-66.7751
11
61.9814
21
-66.5638
0
LINE
8
BLACK
6
CONTINUOUS
10
61.9814
20
-66.5638
11
61.9814
21
-66.5638
0
LINE
8
BLACK
6
CONTINUOUS
10
61.9814
20
-66.5638
11
61.9814
21
-66.5638
0
LINE
8
BLACK
6
CONTINUOUS
10
61.9814
20
-66.5638
11
61.9816
21
-66.5636
0
LINE
8
BLACK
6
CONTINUOUS
10
61.9816
20
-66.5636
11
61.9832
21
-66.562
0
LINE
8
BLACK
6
CONTINUOUS
10
61.9832
20
-66.562
11
61.9848
21
-66.5604
0
LINE
8
BLACK
6
CONTINUOUS
10
61.9848
20
-66.5604
11
62.1949
21
-66.3866
0
LINE
8
BLACK
6
CONTINUOUS
10
62.1949
20
-66.3866
11
62.1951
21
-66.3864
0
LINE
8
BLACK
6
CONTINUOUS
10
62.1951
20
-66.3864
11
62.1971
21
-66.3851
0
LINE
8
BLACK
6
CONTINUOUS
10
62.1971
20
-66.3851
11
62.1989
21
-66.3838
0
LINE
8
BLACK
6
CONTINUOUS
10
62.1989
20
-66.3838
11
62.4387
21
-66.2542
0
LINE
8
BLACK
6
CONTINUOUS
10
62.4387
20
-66.2542
11
62.4387
21
-66.2542
0
LINE
8
BLACK
6
CONTINUOUS
10
62.4387
20
-66.2542
11
62.4388
21
-66.2542
0
LINE
8
BLACK
6
CONTINUOUS
10
62.4388
20
-66.2542
11
62.4391
21
-66.254
0
LINE
8
BLACK
6
CONTINUOUS
10
62.4391
20
-66.254
11
62.4412
21
-66.2531
0
LINE
8
BLACK
6
CONTINUOUS
10
62.4412
20
-66.2531
11
62.4432
21
-66.2523
0
LINE
8
BLACK
6
CONTINUOUS
10
62.4432
20
-66.2523
11
62.7037
21
-66.1717
0
LINE
8
BLACK
6
CONTINUOUS
10
62.7037
20
-66.1717
11
62.704
21
-66.1715
0
LINE
8
BLACK
6
CONTINUOUS
10
62.704
20
-66.1715
11
62.7063
21
-66.1711
0
LINE
8
BLACK
6
CONTINUOUS
10
62.7063
20
-66.1711
11
62.7085
21
-66.1707
0
LINE
8
BLACK
6
CONTINUOUS
10
62.7085
20
-66.1707
11
62.9796
21
-66.1422
0
LINE
8
BLACK
6
CONTINUOUS
10
62.9796
20
-66.1422
11
62.98
21
-66.1421
0
LINE
8
BLACK
6
CONTINUOUS
10
62.98
20
-66.1421
11
62.9811
21
-66.1421
0
LINE
8
BLACK
6
CONTINUOUS
10
62.9811
20
-66.1421
11
62.9822
21
-66.142
0
LINE
8
BLACK
6
CONTINUOUS
10
62.9822
20
-66.142
11
62.9907
21
-66.142
0
LINE
8
BLACK
6
CONTINUOUS
10
62.9907
20
-66.142
11
62.9908
21
-66.142
0
LINE
8
BLACK
6
CONTINUOUS
10
62.9908
20
-66.142
11
81.2164
21
-66.142
0
LINE
8
BLACK
6
CONTINUOUS
10
81.2164
20
-66.142
11
81.2249
21
-66.142
0
LINE
8
BLACK
6
CONTINUOUS
10
81.2249
20
-66.142
11
81.4924
21
-66.1139
0
LINE
8
BLACK
6
CONTINUOUS
10
81.4924
20
-66.1139
11
81.7481
21
-66.0347
0
LINE
8
BLACK
6
CONTINUOUS
10
81.7481
20
-66.0347
11
81.9836
21
-65.9073
0
LINE
8
BLACK
6
CONTINUOUS
10
81.9836
20
-65.9073
11
82.1899
21
-65.7367
0
LINE
8
BLACK
6
CONTINUOUS
10
82.1899
20
-65.7367
11
82.3592
21
-65.5292
0
LINE
8
BLACK
6
CONTINUOUS
10
82.3592
20
-65.5292
11
82.4849
21
-65.2928
0
LINE
8
BLACK
6
CONTINUOUS
10
82.4849
20
-65.2928
11
82.5623
21
-65.0365
0
LINE
8
BLACK
6
CONTINUOUS
10
82.5623
20
-65.0365
11
82.5885
21
-64.7688
0
LINE
8
BLACK
6
CONTINUOUS
10
82.5885
20
-64.7688
11
82.5885
21
-59.4221
0
LINE
8
BLACK
6
CONTINUOUS
10
82.5885
20
-59.4221
11
82.5886
21
-59.4209
0
LINE
8
BLACK
6
CONTINUOUS
10
82.5886
20
-59.4209
11
82.5886
21
-59.4209
0
LINE
8
BLACK
6
CONTINUOUS
10
82.5886
20
-59.4209
11
82.5995
21
-59.3099
0
LINE
8
BLACK
6
CONTINUOUS
10
82.5995
20
-59.3099
11
82.5995
21
-59.3095
0
LINE
8
BLACK
6
CONTINUOUS
10
82.5995
20
-59.3095
11
82.6
21
-59.3073
0
LINE
8
BLACK
6
CONTINUOUS
10
82.6
20
-59.3073
11
82.6005
21
-59.3051
0
LINE
8
BLACK
6
CONTINUOUS
10
82.6005
20
-59.3051
11
82.6327
21
-59.1983
0
LINE
8
BLACK
6
CONTINUOUS
10
82.6327
20
-59.1983
11
82.6328
21
-59.198
0
LINE
8
BLACK
6
CONTINUOUS
10
82.6328
20
-59.198
11
82.6337
21
-59.1959
0
LINE
8
BLACK
6
CONTINUOUS
10
82.6337
20
-59.1959
11
82.6345
21
-59.1938
0
LINE
8
BLACK
6
CONTINUOUS
10
82.6345
20
-59.1938
11
82.6869
21
-59.0953
0
LINE
8
BLACK
6
CONTINUOUS
10
82.6869
20
-59.0953
11
82.6871
21
-59.095
0
LINE
8
BLACK
6
CONTINUOUS
10
82.6871
20
-59.095
11
82.6884
21
-59.0931
0
LINE
8
BLACK
6
CONTINUOUS
10
82.6884
20
-59.0931
11
82.6896
21
-59.0912
0
LINE
8
BLACK
6
CONTINUOUS
10
82.6896
20
-59.0912
11
82.7601
21
-59.0048
0
LINE
8
BLACK
6
CONTINUOUS
10
82.7601
20
-59.0048
11
82.7601
21
-59.0048
0
LINE
8
BLACK
6
CONTINUOUS
10
82.7601
20
-59.0048
11
82.7601
21
-59.0048
0
LINE
8
BLACK
6
CONTINUOUS
10
82.7601
20
-59.0048
11
82.7603
21
-59.0045
0
LINE
8
BLACK
6
CONTINUOUS
10
82.7603
20
-59.0045
11
82.7619
21
-59.003
0
LINE
8
BLACK
6
CONTINUOUS
10
82.7619
20
-59.003
11
82.7635
21
-59.0013
0
LINE
8
BLACK
6
CONTINUOUS
10
82.7635
20
-59.0013
11
82.8495
21
-58.9302
0
LINE
8
BLACK
6
CONTINUOUS
10
82.8495
20
-58.9302
11
82.8495
21
-58.9302
0
LINE
8
BLACK
6
CONTINUOUS
10
82.8495
20
-58.9302
11
82.8495
21
-58.9302
0
LINE
8
BLACK
6
CONTINUOUS
10
82.8495
20
-58.9302
11
82.8498
21
-58.93
0
LINE
8
BLACK
6
CONTINUOUS
10
82.8498
20
-58.93
11
82.8517
21
-58.9288
0
LINE
8
BLACK
6
CONTINUOUS
10
82.8517
20
-58.9288
11
82.8535
21
-58.9275
0
LINE
8
BLACK
6
CONTINUOUS
10
82.8535
20
-58.9275
11
82.9516
21
-58.8745
0
LINE
8
BLACK
6
CONTINUOUS
10
82.9516
20
-58.8745
11
82.9516
21
-58.8745
0
LINE
8
BLACK
6
CONTINUOUS
10
82.9516
20
-58.8745
11
82.9516
21
-58.8745
0
LINE
8
BLACK
6
CONTINUOUS
10
82.9516
20
-58.8745
11
82.952
21
-58.8743
0
LINE
8
BLACK
6
CONTINUOUS
10
82.952
20
-58.8743
11
82.9541
21
-58.8734
0
LINE
8
BLACK
6
CONTINUOUS
10
82.9541
20
-58.8734
11
82.9561
21
-58.8726
0
LINE
8
BLACK
6
CONTINUOUS
10
82.9561
20
-58.8726
11
83.0627
21
-58.8396
0
LINE
8
BLACK
6
CONTINUOUS
10
83.0627
20
-58.8396
11
83.063
21
-58.8395
0
LINE
8
BLACK
6
CONTINUOUS
10
83.063
20
-58.8395
11
83.0653
21
-58.8391
0
LINE
8
BLACK
6
CONTINUOUS
10
83.0653
20
-58.8391
11
83.0675
21
-58.8386
0
LINE
8
BLACK
6
CONTINUOUS
10
83.0675
20
-58.8386
11
83.1784
21
-58.827
0
LINE
8
BLACK
6
CONTINUOUS
10
83.1784
20
-58.827
11
83.1787
21
-58.8269
0
LINE
8
BLACK
6
CONTINUOUS
10
83.1787
20
-58.8269
11
83.1798
21
-58.8269
0
LINE
8
BLACK
6
CONTINUOUS
10
83.1798
20
-58.8269
11
83.1809
21
-58.8268
0
LINE
8
BLACK
6
CONTINUOUS
10
83.1809
20
-58.8268
11
83.1837
21
-58.8268
0
LINE
8
BLACK
6
CONTINUOUS
10
83.1837
20
-58.8268
11
83.1838
21
-58.8268
0
LINE
8
BLACK
6
CONTINUOUS
10
83.1838
20
-58.8268
11
92.7112
21
-58.8268
0
LINE
8
BLACK
6
CONTINUOUS
10
92.7112
20
-58.8268
11
92.7124
21
-58.8269
0
LINE
8
BLACK
6
CONTINUOUS
10
92.7124
20
-58.8269
11
92.7124
21
-58.8269
0
LINE
8
BLACK
6
CONTINUOUS
10
92.7124
20
-58.8269
11
92.8234
21
-58.8378
0
LINE
8
BLACK
6
CONTINUOUS
10
92.8234
20
-58.8378
11
92.8238
21
-58.8378
0
LINE
8
BLACK
6
CONTINUOUS
10
92.8238
20
-58.8378
11
92.826
21
-58.8383
0
LINE
8
BLACK
6
CONTINUOUS
10
92.826
20
-58.8383
11
92.8282
21
-58.8388
0
LINE
8
BLACK
6
CONTINUOUS
10
92.8282
20
-58.8388
11
92.935
21
-58.871
0
LINE
8
BLACK
6
CONTINUOUS
10
92.935
20
-58.871
11
92.9353
21
-58.8711
0
LINE
8
BLACK
6
CONTINUOUS
10
92.9353
20
-58.8711
11
92.9374
21
-58.872
0
LINE
8
BLACK
6
CONTINUOUS
10
92.9374
20
-58.872
11
92.9395
21
-58.8728
0
LINE
8
BLACK
6
CONTINUOUS
10
92.9395
20
-58.8728
11
93.038
21
-58.9252
0
LINE
8
BLACK
6
CONTINUOUS
10
93.038
20
-58.9252
11
93.0383
21
-58.9254
0
LINE
8
BLACK
6
CONTINUOUS
10
93.0383
20
-58.9254
11
93.0402
21
-58.9267
0
LINE
8
BLACK
6
CONTINUOUS
10
93.0402
20
-58.9267
11
93.0421
21
-58.9279
0
LINE
8
BLACK
6
CONTINUOUS
10
93.0421
20
-58.9279
11
93.1285
21
-58.9984
0
LINE
8
BLACK
6
CONTINUOUS
10
93.1285
20
-58.9984
11
93.1285
21
-58.9984
0
LINE
8
BLACK
6
CONTINUOUS
10
93.1285
20
-58.9984
11
93.1285
21
-58.9984
0
LINE
8
BLACK
6
CONTINUOUS
10
93.1285
20
-58.9984
11
93.1288
21
-58.9986
0
LINE
8
BLACK
6
CONTINUOUS
10
93.1288
20
-58.9986
11
93.1303
21
-59.0002
0
LINE
8
BLACK
6
CONTINUOUS
10
93.1303
20
-59.0002
11
93.132
21
-59.0018
0
LINE
8
BLACK
6
CONTINUOUS
10
93.132
20
-59.0018
11
93.2031
21
-59.0878
0
LINE
8
BLACK
6
CONTINUOUS
10
93.2031
20
-59.0878
11
93.2031
21
-59.0878
0
LINE
8
BLACK
6
CONTINUOUS
10
93.2031
20
-59.0878
11
93.2031
21
-59.0878
0
LINE
8
BLACK
6
CONTINUOUS
10
93.2031
20
-59.0878
11
93.2033
21
-59.0881
0
LINE
8
BLACK
6
CONTINUOUS
10
93.2033
20
-59.0881
11
93.2045
21
-59.09
0
LINE
8
BLACK
6
CONTINUOUS
10
93.2045
20
-59.09
11
93.2058
21
-59.0918
0
LINE
8
BLACK
6
CONTINUOUS
10
93.2058
20
-59.0918
11
93.2588
21
-59.1899
0
LINE
8
BLACK
6
CONTINUOUS
10
93.2588
20
-59.1899
11
93.2588
21
-59.1899
0
LINE
8
BLACK
6
CONTINUOUS
10
93.2588
20
-59.1899
11
93.2588
21
-59.1899
0
LINE
8
BLACK
6
CONTINUOUS
10
93.2588
20
-59.1899
11
93.259
21
-59.1903
0
LINE
8
BLACK
6
CONTINUOUS
10
93.259
20
-59.1903
11
93.2599
21
-59.1924
0
LINE
8
BLACK
6
CONTINUOUS
10
93.2599
20
-59.1924
11
93.2607
21
-59.1944
0
LINE
8
BLACK
6
CONTINUOUS
10
93.2607
20
-59.1944
11
93.2937
21
-59.301
0
LINE
8
BLACK
6
CONTINUOUS
10
93.2937
20
-59.301
11
93.2938
21
-59.3013
0
LINE
8
BLACK
6
CONTINUOUS
10
93.2938
20
-59.3013
11
93.2942
21
-59.3036
0
LINE
8
BLACK
6
CONTINUOUS
10
93.2942
20
-59.3036
11
93.2947
21
-59.3058
0
LINE
8
BLACK
6
CONTINUOUS
10
93.2947
20
-59.3058
11
93.3063
21
-59.4167
0
LINE
8
BLACK
6
CONTINUOUS
10
93.3063
20
-59.4167
11
93.3064
21
-59.417
0
LINE
8
BLACK
6
CONTINUOUS
10
93.3064
20
-59.417
11
93.3064
21
-59.4181
0
LINE
8
BLACK
6
CONTINUOUS
10
93.3064
20
-59.4181
11
93.3065
21
-59.4192
0
LINE
8
BLACK
6
CONTINUOUS
10
93.3065
20
-59.4192
11
93.3065
21
-59.422
0
LINE
8
BLACK
6
CONTINUOUS
10
93.3065
20
-59.422
11
93.3065
21
-59.4221
0
LINE
8
BLACK
6
CONTINUOUS
10
93.3065
20
-59.4221
11
93.3065
21
-64.7699
0
LINE
8
BLACK
6
CONTINUOUS
10
93.3065
20
-64.7699
11
93.3065
21
-64.7784
0
LINE
8
BLACK
6
CONTINUOUS
10
93.3065
20
-64.7784
11
93.3346
21
-65.0459
0
LINE
8
BLACK
6
CONTINUOUS
10
93.3346
20
-65.0459
11
93.4138
21
-65.3016
0
LINE
8
BLACK
6
CONTINUOUS
10
93.4138
20
-65.3016
11
93.5412
21
-65.5371
0
LINE
8
BLACK
6
CONTINUOUS
10
93.5412
20
-65.5371
11
93.7118
21
-65.7434
0
LINE
8
BLACK
6
CONTINUOUS
10
93.7118
20
-65.7434
11
93.9193
21
-65.9127
0
LINE
8
BLACK
6
CONTINUOUS
10
93.9193
20
-65.9127
11
94.1557
21
-66.0384
0
LINE
8
BLACK
6
CONTINUOUS
10
94.1557
20
-66.0384
11
94.412
21
-66.1158
0
LINE
8
BLACK
6
CONTINUOUS
10
94.412
20
-66.1158
11
94.6797
21
-66.142
0
LINE
8
BLACK
6
CONTINUOUS
10
94.6797
20
-66.142
11
105.6
21
-66.142
0
LINE
8
BLACK
6
CONTINUOUS
10
105.6
20
-66.142
11
105.609
21
-66.142
0
LINE
8
BLACK
6
CONTINUOUS
10
105.609
20
-66.142
11
105.876
21
-66.1139
0
LINE
8
BLACK
6
CONTINUOUS
10
105.876
20
-66.1139
11
106.132
21
-66.0347
0
LINE
8
BLACK
6
CONTINUOUS
10
106.132
20
-66.0347
11
106.368
21
-65.9073
0
LINE
8
BLACK
6
CONTINUOUS
10
106.368
20
-65.9073
11
106.574
21
-65.7367
0
LINE
8
BLACK
6
CONTINUOUS
10
106.574
20
-65.7367
11
106.743
21
-65.5292
0
LINE
8
BLACK
6
CONTINUOUS
10
106.743
20
-65.5292
11
106.869
21
-65.2928
0
LINE
8
BLACK
6
CONTINUOUS
10
106.869
20
-65.2928
11
106.946
21
-65.0365
0
LINE
8
BLACK
6
CONTINUOUS
10
106.946
20
-65.0365
11
106.972
21
-64.7688
0
LINE
8
BLACK
6
CONTINUOUS
10
106.972
20
-64.7688
11
106.973
21
-62.8003
0
LINE
8
BLACK
6
CONTINUOUS
10
106.973
20
-62.8003
11
106.973
21
-62.7991
0
LINE
8
BLACK
6
CONTINUOUS
10
106.973
20
-62.7991
11
106.973
21
-62.7991
0
LINE
8
BLACK
6
CONTINUOUS
10
106.973
20
-62.7991
11
106.999
21
-62.5277
0
LINE
8
BLACK
6
CONTINUOUS
10
106.999
20
-62.5277
11
106.999
21
-62.5274
0
LINE
8
BLACK
6
CONTINUOUS
10
106.999
20
-62.5274
11
107
21
-62.5251
0
LINE
8
BLACK
6
CONTINUOUS
10
107
20
-62.5251
11
107
21
-62.5229
0
LINE
8
BLACK
6
CONTINUOUS
10
107
20
-62.5229
11
107.079
21
-62.2619
0
LINE
8
BLACK
6
CONTINUOUS
10
107.079
20
-62.2619
11
107.079
21
-62.2616
0
LINE
8
BLACK
6
CONTINUOUS
10
107.079
20
-62.2616
11
107.08
21
-62.2595
0
LINE
8
BLACK
6
CONTINUOUS
10
107.08
20
-62.2595
11
107.081
21
-62.2574
0
LINE
8
BLACK
6
CONTINUOUS
10
107.081
20
-62.2574
11
107.209
21
-62.0167
0
LINE
8
BLACK
6
CONTINUOUS
10
107.209
20
-62.0167
11
107.209
21
-62.0164
0
LINE
8
BLACK
6
CONTINUOUS
10
107.209
20
-62.0164
11
107.21
21
-62.0145
0
LINE
8
BLACK
6
CONTINUOUS
10
107.21
20
-62.0145
11
107.212
21
-62.0126
0
LINE
8
BLACK
6
CONTINUOUS
10
107.212
20
-62.0126
11
107.384
21
-61.8013
0
LINE
8
BLACK
6
CONTINUOUS
10
107.384
20
-61.8013
11
107.384
21
-61.8013
0
LINE
8
BLACK
6
CONTINUOUS
10
107.384
20
-61.8013
11
107.384
21
-61.8013
0
LINE
8
BLACK
6
CONTINUOUS
10
107.384
20
-61.8013
11
107.384
21
-61.8011
0
LINE
8
BLACK
6
CONTINUOUS
10
107.384
20
-61.8011
11
107.386
21
-61.7995
0
LINE
8
BLACK
6
CONTINUOUS
10
107.386
20
-61.7995
11
107.387
21
-61.7979
0
LINE
8
BLACK
6
CONTINUOUS
10
107.387
20
-61.7979
11
107.597
21
-61.6241
0
LINE
8
BLACK
6
CONTINUOUS
10
107.597
20
-61.6241
11
107.598
21
-61.6239
0
LINE
8
BLACK
6
CONTINUOUS
10
107.598
20
-61.6239
11
107.6
21
-61.6226
0
LINE
8
BLACK
6
CONTINUOUS
10
107.6
20
-61.6226
11
107.601
21
-61.6213
0
LINE
8
BLACK
6
CONTINUOUS
10
107.601
20
-61.6213
11
107.841
21
-61.4917
0
LINE
8
BLACK
6
CONTINUOUS
10
107.841
20
-61.4917
11
107.841
21
-61.4917
0
LINE
8
BLACK
6
CONTINUOUS
10
107.841
20
-61.4917
11
107.841
21
-61.4917
0
LINE
8
BLACK
6
CONTINUOUS
10
107.841
20
-61.4917
11
107.842
21
-61.4915
0
LINE
8
BLACK
6
CONTINUOUS
10
107.842
20
-61.4915
11
107.844
21
-61.4906
0
LINE
8
BLACK
6
CONTINUOUS
10
107.844
20
-61.4906
11
107.846
21
-61.4898
0
LINE
8
BLACK
6
CONTINUOUS
10
107.846
20
-61.4898
11
108.106
21
-61.4092
0
LINE
8
BLACK
6
CONTINUOUS
10
108.106
20
-61.4092
11
108.107
21
-61.4091
0
LINE
8
BLACK
6
CONTINUOUS
10
108.107
20
-61.4091
11
108.109
21
-61.4086
0
LINE
8
BLACK
6
CONTINUOUS
10
108.109
20
-61.4086
11
108.111
21
-61.4082
0
LINE
8
BLACK
6
CONTINUOUS
10
108.111
20
-61.4082
11
108.382
21
-61.3797
0
LINE
8
BLACK
6
CONTINUOUS
10
108.382
20
-61.3797
11
108.382
21
-61.3796
0
LINE
8
BLACK
6
CONTINUOUS
10
108.382
20
-61.3796
11
108.384
21
-61.3796
0
LINE
8
BLACK
6
CONTINUOUS
10
108.384
20
-61.3796
11
108.385
21
-61.3795
0
LINE
8
BLACK
6
CONTINUOUS
10
108.385
20
-61.3795
11
108.393
21
-61.3795
0
LINE
8
BLACK
6
CONTINUOUS
10
108.393
20
-61.3795
11
108.393
21
-61.3795
0
LINE
8
BLACK
6
CONTINUOUS
10
108.393
20
-61.3795
11
124.65
21
-61.3795
0
LINE
8
BLACK
6
CONTINUOUS
10
124.65
20
-61.3795
11
124.659
21
-61.3795
0
LINE
8
BLACK
6
CONTINUOUS
10
62.9836
20
-66.192
11
62.7161
21
-66.2201
0
LINE
8
BLACK
6
CONTINUOUS
10
62.7161
20
-66.2201
11
62.4604
21
-66.2993
0
LINE
8
BLACK
6
CONTINUOUS
10
62.4604
20
-66.2993
11
62.2249
21
-66.4267
0
LINE
8
BLACK
6
CONTINUOUS
10
62.2249
20
-66.4267
11
62.0186
21
-66.5973
0
LINE
8
BLACK
6
CONTINUOUS
10
62.0186
20
-66.5973
11
61.8493
21
-66.8048
0
LINE
8
BLACK
6
CONTINUOUS
10
61.8493
20
-66.8048
11
61.7236
21
-67.0412
0
LINE
8
BLACK
6
CONTINUOUS
10
61.7236
20
-67.0412
11
61.6462
21
-67.2975
0
LINE
8
BLACK
6
CONTINUOUS
10
61.6462
20
-67.2975
11
61.62
21
-67.5652
0
LINE
8
BLACK
6
CONTINUOUS
10
61.62
20
-67.5652
11
61.62
21
-160.02
0
LINE
8
BLACK
6
CONTINUOUS
10
61.62
20
-160.02
11
61.62
21
-160.028
0
LINE
8
BLACK
6
CONTINUOUS
10
61.62
20
-160.028
11
61.6481
21
-160.296
0
LINE
8
BLACK
6
CONTINUOUS
10
61.6481
20
-160.296
11
61.7273
21
-160.552
0
LINE
8
BLACK
6
CONTINUOUS
10
61.7273
20
-160.552
11
61.8547
21
-160.787
0
LINE
8
BLACK
6
CONTINUOUS
10
61.8547
20
-160.787
11
62.0253
21
-160.993
0
LINE
8
BLACK
6
CONTINUOUS
10
62.0253
20
-160.993
11
62.2328
21
-161.163
0
LINE
8
BLACK
6
CONTINUOUS
10
62.2328
20
-161.163
11
62.4692
21
-161.288
0
LINE
8
BLACK
6
CONTINUOUS
10
62.4692
20
-161.288
11
62.7255
21
-161.366
0
LINE
8
BLACK
6
CONTINUOUS
10
62.7255
20
-161.366
11
62.9932
21
-161.392
0
LINE
8
BLACK
6
CONTINUOUS
10
62.9932
20
-161.392
11
105.6
21
-161.392
0
LINE
8
BLACK
6
CONTINUOUS
10
105.6
20
-161.392
11
105.609
21
-161.392
0
LINE
8
BLACK
6
CONTINUOUS
10
105.609
20
-161.392
11
105.876
21
-161.364
0
LINE
8
BLACK
6
CONTINUOUS
10
105.876
20
-161.364
11
106.132
21
-161.285
0
LINE
8
BLACK
6
CONTINUOUS
10
106.132
20
-161.285
11
106.368
21
-161.157
0
LINE
8
BLACK
6
CONTINUOUS
10
106.368
20
-161.157
11
106.574
21
-160.987
0
LINE
8
BLACK
6
CONTINUOUS
10
106.574
20
-160.987
11
106.743
21
-160.779
0
LINE
8
BLACK
6
CONTINUOUS
10
106.743
20
-160.779
11
106.869
21
-160.543
0
LINE
8
BLACK
6
CONTINUOUS
10
106.869
20
-160.543
11
106.946
21
-160.286
0
LINE
8
BLACK
6
CONTINUOUS
10
106.946
20
-160.286
11
106.973
21
-160.019
0
LINE
8
BLACK
6
CONTINUOUS
10
106.973
20
-160.019
11
106.972
21
-158.05
0
LINE
8
BLACK
6
CONTINUOUS
10
106.972
20
-158.05
11
106.973
21
-158.049
0
LINE
8
BLACK
6
CONTINUOUS
10
106.973
20
-158.049
11
106.973
21
-158.049
0
LINE
8
BLACK
6
CONTINUOUS
10
106.973
20
-158.049
11
106.999
21
-157.778
0
LINE
8
BLACK
6
CONTINUOUS
10
106.999
20
-157.778
11
106.999
21
-157.777
0
LINE
8
BLACK
6
CONTINUOUS
10
106.999
20
-157.777
11
107
21
-157.775
0
LINE
8
BLACK
6
CONTINUOUS
10
107
20
-157.775
11
107
21
-157.773
0
LINE
8
BLACK
6
CONTINUOUS
10
107
20
-157.773
11
107.079
21
-157.512
0
LINE
8
BLACK
6
CONTINUOUS
10
107.079
20
-157.512
11
107.079
21
-157.512
0
LINE
8
BLACK
6
CONTINUOUS
10
107.079
20
-157.512
11
107.08
21
-157.509
0
LINE
8
BLACK
6
CONTINUOUS
10
107.08
20
-157.509
11
107.081
21
-157.507
0
LINE
8
BLACK
6
CONTINUOUS
10
107.081
20
-157.507
11
107.209
21
-157.267
0
LINE
8
BLACK
6
CONTINUOUS
10
107.209
20
-157.267
11
107.209
21
-157.266
0
LINE
8
BLACK
6
CONTINUOUS
10
107.209
20
-157.266
11
107.21
21
-157.265
0
LINE
8
BLACK
6
CONTINUOUS
10
107.21
20
-157.265
11
107.212
21
-157.263
0
LINE
8
BLACK
6
CONTINUOUS
10
107.212
20
-157.263
11
107.384
21
-157.051
0
LINE
8
BLACK
6
CONTINUOUS
10
107.384
20
-157.051
11
107.384
21
-157.051
0
LINE
8
BLACK
6
CONTINUOUS
10
107.384
20
-157.051
11
107.384
21
-157.051
0
LINE
8
BLACK
6
CONTINUOUS
10
107.384
20
-157.051
11
107.384
21
-157.051
0
LINE
8
BLACK
6
CONTINUOUS
10
107.384
20
-157.051
11
107.386
21
-157.049
0
LINE
8
BLACK
6
CONTINUOUS
10
107.386
20
-157.049
11
107.387
21
-157.048
0
LINE
8
BLACK
6
CONTINUOUS
10
107.387
20
-157.048
11
107.597
21
-156.874
0
LINE
8
BLACK
6
CONTINUOUS
10
107.597
20
-156.874
11
107.598
21
-156.874
0
LINE
8
BLACK
6
CONTINUOUS
10
107.598
20
-156.874
11
107.6
21
-156.873
0
LINE
8
BLACK
6
CONTINUOUS
10
107.6
20
-156.873
11
107.601
21
-156.871
0
LINE
8
BLACK
6
CONTINUOUS
10
107.601
20
-156.871
11
107.841
21
-156.742
0
LINE
8
BLACK
6
CONTINUOUS
10
107.841
20
-156.742
11
107.841
21
-156.742
0
LINE
8
BLACK
6
CONTINUOUS
10
107.841
20
-156.742
11
107.841
21
-156.742
0
LINE
8
BLACK
6
CONTINUOUS
10
107.841
20
-156.742
11
107.842
21
-156.742
0
LINE
8
BLACK
6
CONTINUOUS
10
107.842
20
-156.742
11
107.844
21
-156.741
0
LINE
8
BLACK
6
CONTINUOUS
10
107.844
20
-156.741
11
107.846
21
-156.74
0
LINE
8
BLACK
6
CONTINUOUS
10
107.846
20
-156.74
11
108.106
21
-156.659
0
LINE
8
BLACK
6
CONTINUOUS
10
108.106
20
-156.659
11
108.107
21
-156.659
0
LINE
8
BLACK
6
CONTINUOUS
10
108.107
20
-156.659
11
108.109
21
-156.659
0
LINE
8
BLACK
6
CONTINUOUS
10
108.109
20
-156.659
11
108.111
21
-156.658
0
LINE
8
BLACK
6
CONTINUOUS
10
108.111
20
-156.658
11
108.382
21
-156.63
0
LINE
8
BLACK
6
CONTINUOUS
10
108.382
20
-156.63
11
108.382
21
-156.63
0
LINE
8
BLACK
6
CONTINUOUS
10
108.382
20
-156.63
11
108.384
21
-156.63
0
LINE
8
BLACK
6
CONTINUOUS
10
108.384
20
-156.63
11
108.385
21
-156.63
0
LINE
8
BLACK
6
CONTINUOUS
10
108.385
20
-156.63
11
108.393
21
-156.63
0
LINE
8
BLACK
6
CONTINUOUS
10
108.393
20
-156.63
11
108.393
21
-156.629
0
LINE
8
BLACK
6
CONTINUOUS
10
108.393
20
-156.629
11
119.698
21
-156.629
0
LINE
8
BLACK
6
CONTINUOUS
10
119.698
20
-156.629
11
126.471
21
-156.625
0
LINE
8
BLACK
6
CONTINUOUS
10
126.471
20
-156.625
11
126.876
21
-156.027
0
LINE
8
BLACK
6
CONTINUOUS
10
126.876
20
-156.027
11
126.876
21
-156.027
0
LINE
8
BLACK
6
CONTINUOUS
10
126.876
20
-156.027
11
126.877
21
-156.025
0
LINE
8
BLACK
6
CONTINUOUS
10
126.877
20
-156.025
11
126.879
21
-156.023
0
LINE
8
BLACK
6
CONTINUOUS
10
126.879
20
-156.023
11
127.402
21
-155.506
0
LINE
8
BLACK
6
CONTINUOUS
10
127.402
20
-155.506
11
127.402
21
-155.506
0
LINE
8
BLACK
6
CONTINUOUS
10
127.402
20
-155.506
11
127.404
21
-155.504
0
LINE
8
BLACK
6
CONTINUOUS
10
127.404
20
-155.504
11
127.406
21
-155.503
0
LINE
8
BLACK
6
CONTINUOUS
10
127.406
20
-155.503
11
128.019
21
-155.097
0
LINE
8
BLACK
6
CONTINUOUS
10
128.019
20
-155.097
11
128.019
21
-155.097
0
LINE
8
BLACK
6
CONTINUOUS
10
128.019
20
-155.097
11
128.019
21
-155.097
0
LINE
8
BLACK
6
CONTINUOUS
10
128.019
20
-155.097
11
128.02
21
-155.097
0
LINE
8
BLACK
6
CONTINUOUS
10
128.02
20
-155.097
11
128.022
21
-155.096
0
LINE
8
BLACK
6
CONTINUOUS
10
128.022
20
-155.096
11
128.024
21
-155.095
0
LINE
8
BLACK
6
CONTINUOUS
10
128.024
20
-155.095
11
128.704
21
-154.816
0
LINE
8
BLACK
6
CONTINUOUS
10
128.704
20
-154.816
11
128.705
21
-154.816
0
LINE
8
BLACK
6
CONTINUOUS
10
128.705
20
-154.816
11
128.707
21
-154.815
0
LINE
8
BLACK
6
CONTINUOUS
10
128.707
20
-154.815
11
128.709
21
-154.815
0
LINE
8
BLACK
6
CONTINUOUS
10
128.709
20
-154.815
11
129.431
21
-154.673
0
LINE
8
BLACK
6
CONTINUOUS
10
129.431
20
-154.673
11
129.431
21
-154.673
0
LINE
8
BLACK
6
CONTINUOUS
10
129.431
20
-154.673
11
129.433
21
-154.673
0
LINE
8
BLACK
6
CONTINUOUS
10
129.433
20
-154.673
11
129.434
21
-154.673
0
LINE
8
BLACK
6
CONTINUOUS
10
129.434
20
-154.673
11
129.597
21
-154.661
0
LINE
8
BLACK
6
CONTINUOUS
10
129.597
20
-154.661
11
129.598
21
-154.661
0
LINE
8
BLACK
6
CONTINUOUS
10
129.598
20
-154.661
11
129.602
21
-154.661
0
LINE
8
BLACK
6
CONTINUOUS
10
129.602
20
-154.661
11
144.909
21
-156.312
0
LINE
8
BLACK
6
CONTINUOUS
10
144.909
20
-156.312
11
144.911
21
-156.312
0
LINE
8
BLACK
6
CONTINUOUS
10
144.911
20
-156.312
11
144.913
21
-156.313
0
LINE
8
BLACK
6
CONTINUOUS
10
144.913
20
-156.313
11
144.915
21
-156.313
0
LINE
8
BLACK
6
CONTINUOUS
10
144.915
20
-156.313
11
144.916
21
-156.314
0
LINE
8
BLACK
6
CONTINUOUS
10
144.916
20
-156.314
11
164.143
21
-163.908
0
LINE
8
BLACK
6
CONTINUOUS
10
164.143
20
-163.908
11
164.144
21
-163.908
0
LINE
8
BLACK
6
CONTINUOUS
10
164.144
20
-163.908
11
164.146
21
-163.909
0
LINE
8
BLACK
6
CONTINUOUS
10
164.146
20
-163.909
11
164.148
21
-163.91
0
LINE
8
BLACK
6
CONTINUOUS
10
164.148
20
-163.91
11
164.149
21
-163.911
0
LINE
8
BLACK
6
CONTINUOUS
10
164.149
20
-163.911
11
180.101
21
-174.287
0
LINE
8
BLACK
6
CONTINUOUS
10
180.101
20
-174.287
11
195.338
21
-184.179
0
LINE
8
BLACK
6
CONTINUOUS
10
195.338
20
-184.179
11
195.421
21
-184.217
0
LINE
8
BLACK
6
CONTINUOUS
10
195.421
20
-184.217
11
195.589
21
-184.267
0
LINE
8
BLACK
6
CONTINUOUS
10
195.589
20
-184.267
11
195.763
21
-184.283
0
LINE
8
BLACK
6
CONTINUOUS
10
195.763
20
-184.283
11
195.936
21
-184.265
0
LINE
8
BLACK
6
CONTINUOUS
10
195.936
20
-184.265
11
196.103
21
-184.214
0
LINE
8
BLACK
6
CONTINUOUS
10
196.103
20
-184.214
11
196.257
21
-184.131
0
LINE
8
BLACK
6
CONTINUOUS
10
196.257
20
-184.131
11
196.392
21
-184.02
0
LINE
8
BLACK
6
CONTINUOUS
10
196.392
20
-184.02
11
196.503
21
-183.884
0
LINE
8
BLACK
6
CONTINUOUS
10
196.503
20
-183.884
11
211.116
21
-161.405
0
LINE
8
BLACK
6
CONTINUOUS
10
211.116
20
-161.405
11
211.154
21
-161.322
0
LINE
8
BLACK
6
CONTINUOUS
10
211.154
20
-161.322
11
211.204
21
-161.154
0
LINE
8
BLACK
6
CONTINUOUS
10
211.204
20
-161.154
11
211.22
21
-160.98
0
LINE
8
BLACK
6
CONTINUOUS
10
211.22
20
-160.98
11
211.202
21
-160.807
0
LINE
8
BLACK
6
CONTINUOUS
10
211.202
20
-160.807
11
211.151
21
-160.64
0
LINE
8
BLACK
6
CONTINUOUS
10
211.151
20
-160.64
11
211.068
21
-160.486
0
LINE
8
BLACK
6
CONTINUOUS
10
211.068
20
-160.486
11
210.957
21
-160.351
0
LINE
8
BLACK
6
CONTINUOUS
10
210.957
20
-160.351
11
210.82
21
-160.24
0
LINE
8
BLACK
6
CONTINUOUS
10
210.82
20
-160.24
11
183.684
21
-142.641
0
LINE
8
BLACK
6
CONTINUOUS
10
183.684
20
-142.641
11
183.684
21
-142.641
0
LINE
8
BLACK
6
CONTINUOUS
10
183.684
20
-142.641
11
183.53
21
-142.538
0
LINE
8
BLACK
6
CONTINUOUS
10
183.53
20
-142.538
11
183.53
21
-142.538
0
LINE
8
BLACK
6
CONTINUOUS
10
183.53
20
-142.538
11
183.528
21
-142.536
0
LINE
8
BLACK
6
CONTINUOUS
10
183.528
20
-142.536
11
183.526
21
-142.535
0
LINE
8
BLACK
6
CONTINUOUS
10
183.526
20
-142.535
11
183.395
21
-142.403
0
LINE
8
BLACK
6
CONTINUOUS
10
183.395
20
-142.403
11
183.395
21
-142.403
0
LINE
8
BLACK
6
CONTINUOUS
10
183.395
20
-142.403
11
183.394
21
-142.401
0
LINE
8
BLACK
6
CONTINUOUS
10
183.394
20
-142.401
11
183.392
21
-142.4
0
LINE
8
BLACK
6
CONTINUOUS
10
183.392
20
-142.4
11
183.289
21
-142.245
0
LINE
8
BLACK
6
CONTINUOUS
10
183.289
20
-142.245
11
183.289
21
-142.245
0
LINE
8
BLACK
6
CONTINUOUS
10
183.289
20
-142.245
11
183.288
21
-142.243
0
LINE
8
BLACK
6
CONTINUOUS
10
183.288
20
-142.243
11
183.287
21
-142.241
0
LINE
8
BLACK
6
CONTINUOUS
10
183.287
20
-142.241
11
183.216
21
-142.069
0
LINE
8
BLACK
6
CONTINUOUS
10
183.216
20
-142.069
11
183.215
21
-142.068
0
LINE
8
BLACK
6
CONTINUOUS
10
183.215
20
-142.068
11
183.215
21
-142.066
0
LINE
8
BLACK
6
CONTINUOUS
10
183.215
20
-142.066
11
183.214
21
-142.064
0
LINE
8
BLACK
6
CONTINUOUS
10
183.214
20
-142.064
11
183.178
21
-141.882
0
LINE
8
BLACK
6
CONTINUOUS
10
183.178
20
-141.882
11
183.178
21
-141.881
0
LINE
8
BLACK
6
CONTINUOUS
10
183.178
20
-141.881
11
183.177
21
-141.88
0
LINE
8
BLACK
6
CONTINUOUS
10
183.177
20
-141.88
11
183.177
21
-141.878
0
LINE
8
BLACK
6
CONTINUOUS
10
183.177
20
-141.878
11
183.173
21
-141.784
0
LINE
8
BLACK
6
CONTINUOUS
10
183.173
20
-141.784
11
183.173
21
-141.784
0
LINE
8
BLACK
6
CONTINUOUS
10
183.173
20
-141.784
11
183.172
21
-65.2146
0
LINE
8
BLACK
6
CONTINUOUS
10
183.172
20
-65.2146
11
183.172
21
-65.2061
0
LINE
8
BLACK
6
CONTINUOUS
10
183.172
20
-65.2061
11
183.144
21
-64.9386
0
LINE
8
BLACK
6
CONTINUOUS
10
183.144
20
-64.9386
11
183.065
21
-64.6829
0
LINE
8
BLACK
6
CONTINUOUS
10
183.065
20
-64.6829
11
182.938
21
-64.4474
0
LINE
8
BLACK
6
CONTINUOUS
10
182.938
20
-64.4474
11
182.767
21
-64.2411
0
LINE
8
BLACK
6
CONTINUOUS
10
182.767
20
-64.2411
11
182.56
21
-64.0718
0
LINE
8
BLACK
6
CONTINUOUS
10
182.56
20
-64.0718
11
182.323
21
-63.9461
0
LINE
8
BLACK
6
CONTINUOUS
10
182.323
20
-63.9461
11
182.067
21
-63.8687
0
LINE
8
BLACK
6
CONTINUOUS
10
182.067
20
-63.8687
11
181.799
21
-63.8425
0
LINE
8
BLACK
6
CONTINUOUS
10
181.799
20
-63.8425
11
170.877
21
-63.8425
0
LINE
8
BLACK
6
CONTINUOUS
10
170.877
20
-63.8425
11
170.876
21
-63.8424
0
LINE
8
BLACK
6
CONTINUOUS
10
170.876
20
-63.8424
11
170.876
21
-63.8424
0
LINE
8
BLACK
6
CONTINUOUS
10
170.876
20
-63.8424
11
170.605
21
-63.8158
0
LINE
8
BLACK
6
CONTINUOUS
10
170.605
20
-63.8158
11
170.604
21
-63.8157
0
LINE
8
BLACK
6
CONTINUOUS
10
170.604
20
-63.8157
11
170.602
21
-63.8153
0
LINE
8
BLACK
6
CONTINUOUS
10
170.602
20
-63.8153
11
170.6
21
-63.8148
0
LINE
8
BLACK
6
CONTINUOUS
10
170.6
20
-63.8148
11
170.339
21
-63.736
0
LINE
8
BLACK
6
CONTINUOUS
10
170.339
20
-63.736
11
170.339
21
-63.7359
0
LINE
8
BLACK
6
CONTINUOUS
10
170.339
20
-63.7359
11
170.337
21
-63.735
0
LINE
8
BLACK
6
CONTINUOUS
10
170.337
20
-63.735
11
170.334
21
-63.7342
0
LINE
8
BLACK
6
CONTINUOUS
10
170.334
20
-63.7342
11
170.094
21
-63.6062
0
LINE
8
BLACK
6
CONTINUOUS
10
170.094
20
-63.6062
11
170.093
21
-63.606
0
LINE
8
BLACK
6
CONTINUOUS
10
170.093
20
-63.606
11
170.092
21
-63.6047
0
LINE
8
BLACK
6
CONTINUOUS
10
170.092
20
-63.6047
11
170.09
21
-63.6035
0
LINE
8
BLACK
6
CONTINUOUS
10
170.09
20
-63.6035
11
169.878
21
-63.4311
0
LINE
8
BLACK
6
CONTINUOUS
10
169.878
20
-63.4311
11
169.878
21
-63.4309
0
LINE
8
BLACK
6
CONTINUOUS
10
169.878
20
-63.4309
11
169.876
21
-63.4293
0
LINE
8
BLACK
6
CONTINUOUS
10
169.876
20
-63.4293
11
169.875
21
-63.4277
0
LINE
8
BLACK
6
CONTINUOUS
10
169.875
20
-63.4277
11
169.701
21
-63.2176
0
LINE
8
BLACK
6
CONTINUOUS
10
169.701
20
-63.2176
11
169.701
21
-63.2174
0
LINE
8
BLACK
6
CONTINUOUS
10
169.701
20
-63.2174
11
169.7
21
-63.2155
0
LINE
8
BLACK
6
CONTINUOUS
10
169.7
20
-63.2155
11
169.698
21
-63.2136
0
LINE
8
BLACK
6
CONTINUOUS
10
169.698
20
-63.2136
11
169.569
21
-62.9737
0
LINE
8
BLACK
6
CONTINUOUS
10
169.569
20
-62.9737
11
169.569
21
-62.9734
0
LINE
8
BLACK
6
CONTINUOUS
10
169.569
20
-62.9734
11
169.568
21
-62.9713
0
LINE
8
BLACK
6
CONTINUOUS
10
169.568
20
-62.9713
11
169.567
21
-62.9693
0
LINE
8
BLACK
6
CONTINUOUS
10
169.567
20
-62.9693
11
169.486
21
-62.7088
0
LINE
8
BLACK
6
CONTINUOUS
10
169.486
20
-62.7088
11
169.486
21
-62.7085
0
LINE
8
BLACK
6
CONTINUOUS
10
169.486
20
-62.7085
11
169.486
21
-62.7062
0
LINE
8
BLACK
6
CONTINUOUS
10
169.486
20
-62.7062
11
169.485
21
-62.704
0
LINE
8
BLACK
6
CONTINUOUS
10
169.485
20
-62.704
11
169.457
21
-62.4329
0
LINE
8
BLACK
6
CONTINUOUS
10
169.457
20
-62.4329
11
169.457
21
-62.4325
0
LINE
8
BLACK
6
CONTINUOUS
10
169.457
20
-62.4325
11
169.457
21
-62.4314
0
LINE
8
BLACK
6
CONTINUOUS
10
169.457
20
-62.4314
11
169.457
21
-62.4303
0
LINE
8
BLACK
6
CONTINUOUS
10
169.457
20
-62.4303
11
169.457
21
-62.4218
0
LINE
8
BLACK
6
CONTINUOUS
10
169.457
20
-62.4218
11
169.457
21
-62.4217
0
LINE
8
BLACK
6
CONTINUOUS
10
169.457
20
-62.4217
11
169.457
21
-59.4361
0
LINE
8
BLACK
6
CONTINUOUS
10
169.457
20
-59.4361
11
169.457
21
-59.4361
0
LINE
8
BLACK
6
CONTINUOUS
10
169.457
20
-59.4361
11
169.456
21
-59.4334
0
LINE
8
BLACK
6
CONTINUOUS
10
169.456
20
-59.4334
11
169.445
21
-59.3261
0
LINE
8
BLACK
6
CONTINUOUS
10
169.445
20
-59.3261
11
169.414
21
-59.2243
0
LINE
8
BLACK
6
CONTINUOUS
10
169.414
20
-59.2243
11
169.363
21
-59.1305
0
LINE
8
BLACK
6
CONTINUOUS
10
169.363
20
-59.1305
11
169.295
21
-59.0483
0
LINE
8
BLACK
6
CONTINUOUS
10
169.295
20
-59.0483
11
169.212
21
-58.9809
0
LINE
8
BLACK
6
CONTINUOUS
10
169.212
20
-58.9809
11
169.118
21
-58.9308
0
LINE
8
BLACK
6
CONTINUOUS
10
169.118
20
-58.9308
11
169.016
21
-58.9
0
LINE
8
BLACK
6
CONTINUOUS
10
169.016
20
-58.9
11
168.909
21
-58.8895
0
LINE
8
BLACK
6
CONTINUOUS
10
168.909
20
-58.8895
11
159.385
21
-58.8895
0
LINE
8
BLACK
6
CONTINUOUS
10
159.385
20
-58.8895
11
159.382
21
-58.8895
0
LINE
8
BLACK
6
CONTINUOUS
10
159.382
20
-58.8895
11
159.275
21
-58.9008
0
LINE
8
BLACK
6
CONTINUOUS
10
159.275
20
-58.9008
11
159.173
21
-58.9323
0
LINE
8
BLACK
6
CONTINUOUS
10
159.173
20
-58.9323
11
159.079
21
-58.983
0
LINE
8
BLACK
6
CONTINUOUS
10
159.079
20
-58.983
11
158.997
21
-59.051
0
LINE
8
BLACK
6
CONTINUOUS
10
158.997
20
-59.051
11
158.93
21
-59.1336
0
LINE
8
BLACK
6
CONTINUOUS
10
158.93
20
-59.1336
11
158.88
21
-59.2278
0
LINE
8
BLACK
6
CONTINUOUS
10
158.88
20
-59.2278
11
158.849
21
-59.3299
0
LINE
8
BLACK
6
CONTINUOUS
10
158.849
20
-59.3299
11
158.838
21
-59.4372
0
LINE
8
BLACK
6
CONTINUOUS
10
158.838
20
-59.4372
11
158.838
21
-60.8342
0
LINE
8
BLACK
6
CONTINUOUS
10
158.838
20
-60.8342
11
158.838
21
-60.8354
0
LINE
8
BLACK
6
CONTINUOUS
10
158.838
20
-60.8354
11
158.838
21
-60.8354
0
LINE
8
BLACK
6
CONTINUOUS
10
158.838
20
-60.8354
11
158.827
21
-60.9464
0
LINE
8
BLACK
6
CONTINUOUS
10
158.827
20
-60.9464
11
158.827
21
-60.9468
0
LINE
8
BLACK
6
CONTINUOUS
10
158.827
20
-60.9468
11
158.827
21
-60.949
0
LINE
8
BLACK
6
CONTINUOUS
10
158.827
20
-60.949
11
158.827
21
-60.9512
0
LINE
8
BLACK
6
CONTINUOUS
10
158.827
20
-60.9512
11
158.794
21
-61.058
0
LINE
8
BLACK
6
CONTINUOUS
10
158.794
20
-61.058
11
158.794
21
-61.0583
0
LINE
8
BLACK
6
CONTINUOUS
10
158.794
20
-61.0583
11
158.793
21
-61.0604
0
LINE
8
BLACK
6
CONTINUOUS
10
158.793
20
-61.0604
11
158.792
21
-61.0625
0
LINE
8
BLACK
6
CONTINUOUS
10
158.792
20
-61.0625
11
158.74
21
-61.161
0
LINE
8
BLACK
6
CONTINUOUS
10
158.74
20
-61.161
11
158.74
21
-61.1613
0
LINE
8
BLACK
6
CONTINUOUS
10
158.74
20
-61.1613
11
158.739
21
-61.1632
0
LINE
8
BLACK
6
CONTINUOUS
10
158.739
20
-61.1632
11
158.737
21
-61.1651
0
LINE
8
BLACK
6
CONTINUOUS
10
158.737
20
-61.1651
11
158.667
21
-61.2515
0
LINE
8
BLACK
6
CONTINUOUS
10
158.667
20
-61.2515
11
158.667
21
-61.2518
0
LINE
8
BLACK
6
CONTINUOUS
10
158.667
20
-61.2518
11
158.665
21
-61.2534
0
LINE
8
BLACK
6
CONTINUOUS
10
158.665
20
-61.2534
11
158.663
21
-61.255
0
LINE
8
BLACK
6
CONTINUOUS
10
158.663
20
-61.255
11
158.578
21
-61.3261
0
LINE
8
BLACK
6
CONTINUOUS
10
158.578
20
-61.3261
11
158.577
21
-61.3263
0
LINE
8
BLACK
6
CONTINUOUS
10
158.577
20
-61.3263
11
158.575
21
-61.3275
0
LINE
8
BLACK
6
CONTINUOUS
10
158.575
20
-61.3275
11
158.573
21
-61.3288
0
LINE
8
BLACK
6
CONTINUOUS
10
158.573
20
-61.3288
11
158.475
21
-61.3818
0
LINE
8
BLACK
6
CONTINUOUS
10
158.475
20
-61.3818
11
158.475
21
-61.382
0
LINE
8
BLACK
6
CONTINUOUS
10
158.475
20
-61.382
11
158.473
21
-61.3828
0
LINE
8
BLACK
6
CONTINUOUS
10
158.473
20
-61.3828
11
158.471
21
-61.3837
0
LINE
8
BLACK
6
CONTINUOUS
10
158.471
20
-61.3837
11
158.364
21
-61.4167
0
LINE
8
BLACK
6
CONTINUOUS
10
158.364
20
-61.4167
11
158.364
21
-61.4168
0
LINE
8
BLACK
6
CONTINUOUS
10
158.364
20
-61.4168
11
158.362
21
-61.4172
0
LINE
8
BLACK
6
CONTINUOUS
10
158.362
20
-61.4172
11
158.36
21
-61.4177
0
LINE
8
BLACK
6
CONTINUOUS
10
158.36
20
-61.4177
11
158.249
21
-61.4293
0
LINE
8
BLACK
6
CONTINUOUS
10
158.249
20
-61.4293
11
158.248
21
-61.4294
0
LINE
8
BLACK
6
CONTINUOUS
10
158.248
20
-61.4294
11
158.247
21
-61.4294
0
LINE
8
BLACK
6
CONTINUOUS
10
158.247
20
-61.4294
11
158.246
21
-61.4295
0
LINE
8
BLACK
6
CONTINUOUS
10
158.246
20
-61.4295
11
158.243
21
-61.4295
0
LINE
8
BLACK
6
CONTINUOUS
10
158.243
20
-61.4295
11
158.243
21
-61.4295
0
LINE
8
BLACK
6
CONTINUOUS
10
158.243
20
-61.4295
11
146.493
21
-61.4295
0
LINE
8
BLACK
6
CONTINUOUS
10
146.493
20
-61.4295
11
146.492
21
-61.4294
0
LINE
8
BLACK
6
CONTINUOUS
10
146.492
20
-61.4294
11
146.492
21
-61.4294
0
LINE
8
BLACK
6
CONTINUOUS
10
146.492
20
-61.4294
11
146.221
21
-61.4028
0
LINE
8
BLACK
6
CONTINUOUS
10
146.221
20
-61.4028
11
146.22
21
-61.4027
0
LINE
8
BLACK
6
CONTINUOUS
10
146.22
20
-61.4027
11
146.218
21
-61.4023
0
LINE
8
BLACK
6
CONTINUOUS
10
146.218
20
-61.4023
11
146.216
21
-61.4018
0
LINE
8
BLACK
6
CONTINUOUS
10
146.216
20
-61.4018
11
145.955
21
-61.323
0
LINE
8
BLACK
6
CONTINUOUS
10
145.955
20
-61.323
11
145.955
21
-61.3229
0
LINE
8
BLACK
6
CONTINUOUS
10
145.955
20
-61.3229
11
145.953
21
-61.322
0
LINE
8
BLACK
6
CONTINUOUS
10
145.953
20
-61.322
11
145.95
21
-61.3212
0
LINE
8
BLACK
6
CONTINUOUS
10
145.95
20
-61.3212
11
145.71
21
-61.1932
0
LINE
8
BLACK
6
CONTINUOUS
10
145.71
20
-61.1932
11
145.709
21
-61.193
0
LINE
8
BLACK
6
CONTINUOUS
10
145.709
20
-61.193
11
145.708
21
-61.1917
0
LINE
8
BLACK
6
CONTINUOUS
10
145.708
20
-61.1917
11
145.706
21
-61.1905
0
LINE
8
BLACK
6
CONTINUOUS
10
145.706
20
-61.1905
11
145.494
21
-61.0181
0
LINE
8
BLACK
6
CONTINUOUS
10
145.494
20
-61.0181
11
145.494
21
-61.0179
0
LINE
8
BLACK
6
CONTINUOUS
10
145.494
20
-61.0179
11
145.492
21
-61.0163
0
LINE
8
BLACK
6
CONTINUOUS
10
145.492
20
-61.0163
11
145.491
21
-61.0147
0
LINE
8
BLACK
6
CONTINUOUS
10
145.491
20
-61.0147
11
145.317
21
-60.8046
0
LINE
8
BLACK
6
CONTINUOUS
10
145.317
20
-60.8046
11
145.317
21
-60.8044
0
LINE
8
BLACK
6
CONTINUOUS
10
145.317
20
-60.8044
11
145.316
21
-60.8025
0
LINE
8
BLACK
6
CONTINUOUS
10
145.316
20
-60.8025
11
145.314
21
-60.8006
0
LINE
8
BLACK
6
CONTINUOUS
10
145.314
20
-60.8006
11
145.185
21
-60.5607
0
LINE
8
BLACK
6
CONTINUOUS
10
145.185
20
-60.5607
11
145.185
21
-60.5604
0
LINE
8
BLACK
6
CONTINUOUS
10
145.185
20
-60.5604
11
145.184
21
-60.5583
0
LINE
8
BLACK
6
CONTINUOUS
10
145.184
20
-60.5583
11
145.183
21
-60.5563
0
LINE
8
BLACK
6
CONTINUOUS
10
145.183
20
-60.5563
11
145.102
21
-60.2958
0
LINE
8
BLACK
6
CONTINUOUS
10
145.102
20
-60.2958
11
145.102
21
-60.2955
0
LINE
8
BLACK
6
CONTINUOUS
10
145.102
20
-60.2955
11
145.102
21
-60.2932
0
LINE
8
BLACK
6
CONTINUOUS
10
145.102
20
-60.2932
11
145.101
21
-60.291
0
LINE
8
BLACK
6
CONTINUOUS
10
145.101
20
-60.291
11
145.073
21
-60.0199
0
LINE
8
BLACK
6
CONTINUOUS
10
145.073
20
-60.0199
11
145.073
21
-60.0195
0
LINE
8
BLACK
6
CONTINUOUS
10
145.073
20
-60.0195
11
145.073
21
-60.0184
0
LINE
8
BLACK
6
CONTINUOUS
10
145.073
20
-60.0184
11
145.073
21
-60.0173
0
LINE
8
BLACK
6
CONTINUOUS
10
145.073
20
-60.0173
11
145.073
21
-60.0087
0
LINE
8
BLACK
6
CONTINUOUS
10
145.073
20
-60.0087
11
145.073
21
-60.0087
0
LINE
8
BLACK
6
CONTINUOUS
10
145.073
20
-60.0087
11
145.073
21
-60.0079
0
LINE
8
BLACK
6
CONTINUOUS
10
145.073
20
-60.0079
11
145.072
21
-60.0076
0
LINE
8
BLACK
6
CONTINUOUS
10
145.072
20
-60.0076
11
145.073
21
-60.0072
0
LINE
8
BLACK
6
CONTINUOUS
10
145.073
20
-60.0072
11
145.072
21
-59.6266
0
LINE
8
BLACK
6
CONTINUOUS
10
145.072
20
-59.6266
11
145.072
21
-59.6239
0
LINE
8
BLACK
6
CONTINUOUS
10
145.072
20
-59.6239
11
145.061
21
-59.5166
0
LINE
8
BLACK
6
CONTINUOUS
10
145.061
20
-59.5166
11
145.03
21
-59.4148
0
LINE
8
BLACK
6
CONTINUOUS
10
145.03
20
-59.4148
11
144.979
21
-59.321
0
LINE
8
BLACK
6
CONTINUOUS
10
144.979
20
-59.321
11
144.911
21
-59.2388
0
LINE
8
BLACK
6
CONTINUOUS
10
144.911
20
-59.2388
11
144.828
21
-59.1714
0
LINE
8
BLACK
6
CONTINUOUS
10
144.828
20
-59.1714
11
144.734
21
-59.1213
0
LINE
8
BLACK
6
CONTINUOUS
10
144.734
20
-59.1213
11
144.632
21
-59.0905
0
LINE
8
BLACK
6
CONTINUOUS
10
144.632
20
-59.0905
11
144.525
21
-59.08
0
LINE
8
BLACK
6
CONTINUOUS
10
144.525
20
-59.08
11
126.619
21
-59.08
0
LINE
8
BLACK
6
CONTINUOUS
10
126.619
20
-59.08
11
126.616
21
-59.08
0
LINE
8
BLACK
6
CONTINUOUS
10
126.616
20
-59.08
11
126.509
21
-59.0913
0
LINE
8
BLACK
6
CONTINUOUS
10
126.509
20
-59.0913
11
126.407
21
-59.1228
0
LINE
8
BLACK
6
CONTINUOUS
10
126.407
20
-59.1228
11
126.313
21
-59.1735
0
LINE
8
BLACK
6
CONTINUOUS
10
126.313
20
-59.1735
11
126.231
21
-59.2415
0
LINE
8
BLACK
6
CONTINUOUS
10
126.231
20
-59.2415
11
126.164
21
-59.3241
0
LINE
8
BLACK
6
CONTINUOUS
10
126.164
20
-59.3241
11
126.114
21
-59.4183
0
LINE
8
BLACK
6
CONTINUOUS
10
126.114
20
-59.4183
11
126.083
21
-59.5204
0
LINE
8
BLACK
6
CONTINUOUS
10
126.083
20
-59.5204
11
126.072
21
-59.6277
0
LINE
8
BLACK
6
CONTINUOUS
10
126.072
20
-59.6277
11
126.072
21
-60.0087
0
LINE
8
BLACK
6
CONTINUOUS
10
126.072
20
-60.0087
11
126.072
21
-60.0099
0
LINE
8
BLACK
6
CONTINUOUS
10
126.072
20
-60.0099
11
126.072
21
-60.0099
0
LINE
8
BLACK
6
CONTINUOUS
10
126.072
20
-60.0099
11
126.046
21
-60.2813
0
LINE
8
BLACK
6
CONTINUOUS
10
126.046
20
-60.2813
11
126.046
21
-60.2816
0
LINE
8
BLACK
6
CONTINUOUS
10
126.046
20
-60.2816
11
126.045
21
-60.2839
0
LINE
8
BLACK
6
CONTINUOUS
10
126.045
20
-60.2839
11
126.045
21
-60.2861
0
LINE
8
BLACK
6
CONTINUOUS
10
126.045
20
-60.2861
11
125.966
21
-60.5471
0
LINE
8
BLACK
6
CONTINUOUS
10
125.966
20
-60.5471
11
125.966
21
-60.5474
0
LINE
8
BLACK
6
CONTINUOUS
10
125.966
20
-60.5474
11
125.965
21
-60.5495
0
LINE
8
BLACK
6
CONTINUOUS
10
125.965
20
-60.5495
11
125.964
21
-60.5516
0
LINE
8
BLACK
6
CONTINUOUS
10
125.964
20
-60.5516
11
125.836
21
-60.7923
0
LINE
8
BLACK
6
CONTINUOUS
10
125.836
20
-60.7923
11
125.836
21
-60.7926
0
LINE
8
BLACK
6
CONTINUOUS
10
125.836
20
-60.7926
11
125.835
21
-60.7945
0
LINE
8
BLACK
6
CONTINUOUS
10
125.835
20
-60.7945
11
125.833
21
-60.7964
0
LINE
8
BLACK
6
CONTINUOUS
10
125.833
20
-60.7964
11
125.661
21
-61.0077
0
LINE
8
BLACK
6
CONTINUOUS
10
125.661
20
-61.0077
11
125.661
21
-61.0079
0
LINE
8
BLACK
6
CONTINUOUS
10
125.661
20
-61.0079
11
125.659
21
-61.0096
0
LINE
8
BLACK
6
CONTINUOUS
10
125.659
20
-61.0096
11
125.658
21
-61.0111
0
LINE
8
BLACK
6
CONTINUOUS
10
125.658
20
-61.0111
11
125.448
21
-61.1849
0
LINE
8
BLACK
6
CONTINUOUS
10
125.448
20
-61.1849
11
125.447
21
-61.1851
0
LINE
8
BLACK
6
CONTINUOUS
10
125.447
20
-61.1851
11
125.445
21
-61.1864
0
LINE
8
BLACK
6
CONTINUOUS
10
125.445
20
-61.1864
11
125.444
21
-61.1877
0
LINE
8
BLACK
6
CONTINUOUS
10
125.444
20
-61.1877
11
125.204
21
-61.3173
0
LINE
8
BLACK
6
CONTINUOUS
10
125.204
20
-61.3173
11
125.203
21
-61.3175
0
LINE
8
BLACK
6
CONTINUOUS
10
125.203
20
-61.3175
11
125.201
21
-61.3184
0
LINE
8
BLACK
6
CONTINUOUS
10
125.201
20
-61.3184
11
125.199
21
-61.3192
0
LINE
8
BLACK
6
CONTINUOUS
10
125.199
20
-61.3192
11
124.939
21
-61.3998
0
LINE
8
BLACK
6
CONTINUOUS
10
124.939
20
-61.3998
11
124.938
21
-61.3999
0
LINE
8
BLACK
6
CONTINUOUS
10
124.938
20
-61.3999
11
124.936
21
-61.4004
0
LINE
8
BLACK
6
CONTINUOUS
10
124.936
20
-61.4004
11
124.934
21
-61.4008
0
LINE
8
BLACK
6
CONTINUOUS
10
124.934
20
-61.4008
11
124.663
21
-61.4293
0
LINE
8
BLACK
6
CONTINUOUS
10
124.663
20
-61.4293
11
124.663
21
-61.4294
0
LINE
8
BLACK
6
CONTINUOUS
10
124.663
20
-61.4294
11
124.661
21
-61.4294
0
LINE
8
BLACK
6
CONTINUOUS
10
124.661
20
-61.4294
11
124.66
21
-61.4295
0
LINE
8
BLACK
6
CONTINUOUS
10
124.66
20
-61.4295
11
124.652
21
-61.4295
0
LINE
8
BLACK
6
CONTINUOUS
10
124.652
20
-61.4295
11
124.652
21
-61.4295
0
LINE
8
BLACK
6
CONTINUOUS
10
124.652
20
-61.4295
11
108.395
21
-61.4295
0
LINE
8
BLACK
6
CONTINUOUS
10
108.395
20
-61.4295
11
108.386
21
-61.4295
0
LINE
8
BLACK
6
CONTINUOUS
10
108.386
20
-61.4295
11
108.119
21
-61.4576
0
LINE
8
BLACK
6
CONTINUOUS
10
108.119
20
-61.4576
11
107.863
21
-61.5368
0
LINE
8
BLACK
6
CONTINUOUS
10
107.863
20
-61.5368
11
107.627
21
-61.6642
0
LINE
8
BLACK
6
CONTINUOUS
10
107.627
20
-61.6642
11
107.421
21
-61.8348
0
LINE
8
BLACK
6
CONTINUOUS
10
107.421
20
-61.8348
11
107.252
21
-62.0423
0
LINE
8
BLACK
6
CONTINUOUS
10
107.252
20
-62.0423
11
107.126
21
-62.2787
0
LINE
8
BLACK
6
CONTINUOUS
10
107.126
20
-62.2787
11
107.049
21
-62.535
0
LINE
8
BLACK
6
CONTINUOUS
10
107.049
20
-62.535
11
107.022
21
-62.8027
0
LINE
8
BLACK
6
CONTINUOUS
10
107.022
20
-62.8027
11
107.022
21
-64.7712
0
LINE
8
BLACK
6
CONTINUOUS
10
107.022
20
-64.7712
11
107.022
21
-64.7724
0
LINE
8
BLACK
6
CONTINUOUS
10
107.022
20
-64.7724
11
107.022
21
-64.7724
0
LINE
8
BLACK
6
CONTINUOUS
10
107.022
20
-64.7724
11
106.996
21
-65.0438
0
LINE
8
BLACK
6
CONTINUOUS
10
106.996
20
-65.0438
11
106.996
21
-65.0441
0
LINE
8
BLACK
6
CONTINUOUS
10
106.996
20
-65.0441
11
106.995
21
-65.0464
0
LINE
8
BLACK
6
CONTINUOUS
10
106.995
20
-65.0464
11
106.995
21
-65.0486
0
LINE
8
BLACK
6
CONTINUOUS
10
106.995
20
-65.0486
11
106.916
21
-65.3096
0
LINE
8
BLACK
6
CONTINUOUS
10
106.916
20
-65.3096
11
106.916
21
-65.3099
0
LINE
8
BLACK
6
CONTINUOUS
10
106.916
20
-65.3099
11
106.915
21
-65.312
0
LINE
8
BLACK
6
CONTINUOUS
10
106.915
20
-65.312
11
106.914
21
-65.3141
0
LINE
8
BLACK
6
CONTINUOUS
10
106.914
20
-65.3141
11
106.786
21
-65.5548
0
LINE
8
BLACK
6
CONTINUOUS
10
106.786
20
-65.5548
11
106.786
21
-65.5551
0
LINE
8
BLACK
6
CONTINUOUS
10
106.786
20
-65.5551
11
106.785
21
-65.557
0
LINE
8
BLACK
6
CONTINUOUS
10
106.785
20
-65.557
11
106.783
21
-65.5589
0
LINE
8
BLACK
6
CONTINUOUS
10
106.783
20
-65.5589
11
106.611
21
-65.7702
0
LINE
8
BLACK
6
CONTINUOUS
10
106.611
20
-65.7702
11
106.611
21
-65.7704
0
LINE
8
BLACK
6
CONTINUOUS
10
106.611
20
-65.7704
11
106.609
21
-65.7721
0
LINE
8
BLACK
6
CONTINUOUS
10
106.609
20
-65.7721
11
106.608
21
-65.7736
0
LINE
8
BLACK
6
CONTINUOUS
10
106.608
20
-65.7736
11
106.398
21
-65.9474
0
LINE
8
BLACK
6
CONTINUOUS
10
106.398
20
-65.9474
11
106.397
21
-65.9476
0
LINE
8
BLACK
6
CONTINUOUS
10
106.397
20
-65.9476
11
106.395
21
-65.9489
0
LINE
8
BLACK
6
CONTINUOUS
10
106.395
20
-65.9489
11
106.394
21
-65.9502
0
LINE
8
BLACK
6
CONTINUOUS
10
106.394
20
-65.9502
11
106.154
21
-66.0798
0
LINE
8
BLACK
6
CONTINUOUS
10
106.154
20
-66.0798
11
106.153
21
-66.08
0
LINE
8
BLACK
6
CONTINUOUS
10
106.153
20
-66.08
11
106.151
21
-66.0809
0
LINE
8
BLACK
6
CONTINUOUS
10
106.151
20
-66.0809
11
106.149
21
-66.0817
0
LINE
8
BLACK
6
CONTINUOUS
10
106.149
20
-66.0817
11
105.889
21
-66.1623
0
LINE
8
BLACK
6
CONTINUOUS
10
105.889
20
-66.1623
11
105.888
21
-66.1624
0
LINE
8
BLACK
6
CONTINUOUS
10
105.888
20
-66.1624
11
105.886
21
-66.1629
0
LINE
8
BLACK
6
CONTINUOUS
10
105.886
20
-66.1629
11
105.884
21
-66.1633
0
LINE
8
BLACK
6
CONTINUOUS
10
105.884
20
-66.1633
11
105.613
21
-66.1918
0
LINE
8
BLACK
6
CONTINUOUS
10
105.613
20
-66.1918
11
105.613
21
-66.1919
0
LINE
8
BLACK
6
CONTINUOUS
10
105.613
20
-66.1919
11
105.611
21
-66.1919
0
LINE
8
BLACK
6
CONTINUOUS
10
105.611
20
-66.1919
11
105.61
21
-66.192
0
LINE
8
BLACK
6
CONTINUOUS
10
105.61
20
-66.192
11
105.602
21
-66.192
0
LINE
8
BLACK
6
CONTINUOUS
10
105.602
20
-66.192
11
105.602
21
-66.192
0
LINE
8
BLACK
6
CONTINUOUS
10
105.602
20
-66.192
11
94.6773
21
-66.192
0
LINE
8
BLACK
6
CONTINUOUS
10
94.6773
20
-66.192
11
94.6761
21
-66.1919
0
LINE
8
BLACK
6
CONTINUOUS
10
94.6761
20
-66.1919
11
94.6761
21
-66.1919
0
LINE
8
BLACK
6
CONTINUOUS
10
94.6761
20
-66.1919
11
94.4047
21
-66.1653
0
LINE
8
BLACK
6
CONTINUOUS
10
94.4047
20
-66.1653
11
94.4044
21
-66.1652
0
LINE
8
BLACK
6
CONTINUOUS
10
94.4044
20
-66.1652
11
94.4021
21
-66.1648
0
LINE
8
BLACK
6
CONTINUOUS
10
94.4021
20
-66.1648
11
94.3999
21
-66.1643
0
LINE
8
BLACK
6
CONTINUOUS
10
94.3999
20
-66.1643
11
94.1389
21
-66.0855
0
LINE
8
BLACK
6
CONTINUOUS
10
94.1389
20
-66.0855
11
94.1386
21
-66.0854
0
LINE
8
BLACK
6
CONTINUOUS
10
94.1386
20
-66.0854
11
94.1365
21
-66.0845
0
LINE
8
BLACK
6
CONTINUOUS
10
94.1365
20
-66.0845
11
94.1344
21
-66.0837
0
LINE
8
BLACK
6
CONTINUOUS
10
94.1344
20
-66.0837
11
93.8937
21
-65.9557
0
LINE
8
BLACK
6
CONTINUOUS
10
93.8937
20
-65.9557
11
93.8934
21
-65.9555
0
LINE
8
BLACK
6
CONTINUOUS
10
93.8934
20
-65.9555
11
93.8915
21
-65.9542
0
LINE
8
BLACK
6
CONTINUOUS
10
93.8915
20
-65.9542
11
93.8896
21
-65.953
0
LINE
8
BLACK
6
CONTINUOUS
10
93.8896
20
-65.953
11
93.6783
21
-65.7806
0
LINE
8
BLACK
6
CONTINUOUS
10
93.6783
20
-65.7806
11
93.6781
21
-65.7804
0
LINE
8
BLACK
6
CONTINUOUS
10
93.6781
20
-65.7804
11
93.6764
21
-65.7788
0
LINE
8
BLACK
6
CONTINUOUS
10
93.6764
20
-65.7788
11
93.6749
21
-65.7772
0
LINE
8
BLACK
6
CONTINUOUS
10
93.6749
20
-65.7772
11
93.5011
21
-65.5671
0
LINE
8
BLACK
6
CONTINUOUS
10
93.5011
20
-65.5671
11
93.5009
21
-65.5669
0
LINE
8
BLACK
6
CONTINUOUS
10
93.5009
20
-65.5669
11
93.4996
21
-65.565
0
LINE
8
BLACK
6
CONTINUOUS
10
93.4996
20
-65.565
11
93.4983
21
-65.5631
0
LINE
8
BLACK
6
CONTINUOUS
10
93.4983
20
-65.5631
11
93.3687
21
-65.3233
0
LINE
8
BLACK
6
CONTINUOUS
10
93.3687
20
-65.3233
11
93.3685
21
-65.3229
0
LINE
8
BLACK
6
CONTINUOUS
10
93.3685
20
-65.3229
11
93.3676
21
-65.3208
0
LINE
8
BLACK
6
CONTINUOUS
10
93.3676
20
-65.3208
11
93.3668
21
-65.3188
0
LINE
8
BLACK
6
CONTINUOUS
10
93.3668
20
-65.3188
11
93.2862
21
-65.0583
0
LINE
8
BLACK
6
CONTINUOUS
10
93.2862
20
-65.0583
11
93.286
21
-65.058
0
LINE
8
BLACK
6
CONTINUOUS
10
93.286
20
-65.058
11
93.2856
21
-65.0557
0
LINE
8
BLACK
6
CONTINUOUS
10
93.2856
20
-65.0557
11
93.2852
21
-65.0535
0
LINE
8
BLACK
6
CONTINUOUS
10
93.2852
20
-65.0535
11
93.2567
21
-64.7824
0
LINE
8
BLACK
6
CONTINUOUS
10
93.2567
20
-64.7824
11
93.2566
21
-64.782
0
LINE
8
BLACK
6
CONTINUOUS
10
93.2566
20
-64.782
11
93.2566
21
-64.7809
0
LINE
8
BLACK
6
CONTINUOUS
10
93.2566
20
-64.7809
11
93.2565
21
-64.7798
0
LINE
8
BLACK
6
CONTINUOUS
10
93.2565
20
-64.7798
11
93.2565
21
-64.7713
0
LINE
8
BLACK
6
CONTINUOUS
10
93.2565
20
-64.7713
11
93.2565
21
-64.7712
0
LINE
8
BLACK
6
CONTINUOUS
10
93.2565
20
-64.7712
11
93.2565
21
-59.4234
0
LINE
8
BLACK
6
CONTINUOUS
10
93.2565
20
-59.4234
11
93.2565
21
-59.4234
0
LINE
8
BLACK
6
CONTINUOUS
10
93.2565
20
-59.4234
11
93.2565
21
-59.4207
0
LINE
8
BLACK
6
CONTINUOUS
10
93.2565
20
-59.4207
11
93.2452
21
-59.3134
0
LINE
8
BLACK
6
CONTINUOUS
10
93.2452
20
-59.3134
11
93.2137
21
-59.2116
0
LINE
8
BLACK
6
CONTINUOUS
10
93.2137
20
-59.2116
11
93.163
21
-59.1178
0
LINE
8
BLACK
6
CONTINUOUS
10
93.163
20
-59.1178
11
93.095
21
-59.0356
0
LINE
8
BLACK
6
CONTINUOUS
10
93.095
20
-59.0356
11
93.0124
21
-58.9682
0
LINE
8
BLACK
6
CONTINUOUS
10
93.0124
20
-58.9682
11
92.9182
21
-58.9181
0
LINE
8
BLACK
6
CONTINUOUS
10
92.9182
20
-58.9181
11
92.8161
21
-58.8873
0
LINE
8
BLACK
6
CONTINUOUS
10
92.8161
20
-58.8873
11
92.7088
21
-58.8768
0
LINE
8
BLACK
6
CONTINUOUS
10
92.7088
20
-58.8768
11
83.1851
21
-58.8768
0
LINE
8
BLACK
6
CONTINUOUS
10
83.1851
20
-58.8768
11
83.1824
21
-58.8768
0
LINE
8
BLACK
6
CONTINUOUS
10
83.1824
20
-58.8768
11
83.0751
21
-58.8881
0
LINE
8
BLACK
6
CONTINUOUS
10
83.0751
20
-58.8881
11
82.9733
21
-58.9196
0
LINE
8
BLACK
6
CONTINUOUS
10
82.9733
20
-58.9196
11
82.8795
21
-58.9703
0
LINE
8
BLACK
6
CONTINUOUS
10
82.8795
20
-58.9703
11
82.7973
21
-59.0383
0
LINE
8
BLACK
6
CONTINUOUS
10
82.7973
20
-59.0383
11
82.7299
21
-59.1209
0
LINE
8
BLACK
6
CONTINUOUS
10
82.7299
20
-59.1209
11
82.6798
21
-59.2151
0
LINE
8
BLACK
6
CONTINUOUS
10
82.6798
20
-59.2151
11
82.649
21
-59.3172
0
LINE
8
BLACK
6
CONTINUOUS
10
82.649
20
-59.3172
11
82.6385
21
-59.4245
0
LINE
8
BLACK
6
CONTINUOUS
10
82.6385
20
-59.4245
11
82.6385
21
-64.7712
0
LINE
8
BLACK
6
CONTINUOUS
10
82.6385
20
-64.7712
11
82.6384
21
-64.7724
0
LINE
8
BLACK
6
CONTINUOUS
10
82.6384
20
-64.7724
11
82.6384
21
-64.7724
0
LINE
8
BLACK
6
CONTINUOUS
10
82.6384
20
-64.7724
11
82.6118
21
-65.0438
0
LINE
8
BLACK
6
CONTINUOUS
10
82.6118
20
-65.0438
11
82.6117
21
-65.0441
0
LINE
8
BLACK
6
CONTINUOUS
10
82.6117
20
-65.0441
11
82.6113
21
-65.0464
0
LINE
8
BLACK
6
CONTINUOUS
10
82.6113
20
-65.0464
11
82.6108
21
-65.0486
0
LINE
8
BLACK
6
CONTINUOUS
10
82.6108
20
-65.0486
11
82.532
21
-65.3096
0
LINE
8
BLACK
6
CONTINUOUS
10
82.532
20
-65.3096
11
82.5319
21
-65.3099
0
LINE
8
BLACK
6
CONTINUOUS
10
82.5319
20
-65.3099
11
82.531
21
-65.312
0
LINE
8
BLACK
6
CONTINUOUS
10
82.531
20
-65.312
11
82.5302
21
-65.3141
0
LINE
8
BLACK
6
CONTINUOUS
10
82.5302
20
-65.3141
11
82.4022
21
-65.5548
0
LINE
8
BLACK
6
CONTINUOUS
10
82.4022
20
-65.5548
11
82.402
21
-65.5551
0
LINE
8
BLACK
6
CONTINUOUS
10
82.402
20
-65.5551
11
82.4007
21
-65.557
0
LINE
8
BLACK
6
CONTINUOUS
10
82.4007
20
-65.557
11
82.3995
21
-65.5589
0
LINE
8
BLACK
6
CONTINUOUS
10
82.3995
20
-65.5589
11
82.2271
21
-65.7702
0
LINE
8
BLACK
6
CONTINUOUS
10
82.2271
20
-65.7702
11
82.2269
21
-65.7704
0
LINE
8
BLACK
6
CONTINUOUS
10
82.2269
20
-65.7704
11
82.2253
21
-65.7721
0
LINE
8
BLACK
6
CONTINUOUS
10
82.2253
20
-65.7721
11
82.2237
21
-65.7736
0
LINE
8
BLACK
6
CONTINUOUS
10
82.2237
20
-65.7736
11
82.0136
21
-65.9474
0
LINE
8
BLACK
6
CONTINUOUS
10
82.0136
20
-65.9474
11
82.0134
21
-65.9476
0
LINE
8
BLACK
6
CONTINUOUS
10
82.0134
20
-65.9476
11
82.0115
21
-65.9489
0
LINE
8
BLACK
6
CONTINUOUS
10
82.0115
20
-65.9489
11
82.0096
21
-65.9502
0
LINE
8
BLACK
6
CONTINUOUS
10
82.0096
20
-65.9502
11
81.7698
21
-66.0798
0
LINE
8
BLACK
6
CONTINUOUS
10
81.7698
20
-66.0798
11
81.7694
21
-66.08
0
LINE
8
BLACK
6
CONTINUOUS
10
81.7694
20
-66.08
11
81.7673
21
-66.0809
0
LINE
8
BLACK
6
CONTINUOUS
10
81.7673
20
-66.0809
11
81.7653
21
-66.0817
0
LINE
8
BLACK
6
CONTINUOUS
10
81.7653
20
-66.0817
11
81.5048
21
-66.1623
0
LINE
8
BLACK
6
CONTINUOUS
10
81.5048
20
-66.1623
11
81.5045
21
-66.1624
0
LINE
8
BLACK
6
CONTINUOUS
10
81.5045
20
-66.1624
11
81.5022
21
-66.1629
0
LINE
8
BLACK
6
CONTINUOUS
10
81.5022
20
-66.1629
11
81.5
21
-66.1633
0
LINE
8
BLACK
6
CONTINUOUS
10
81.5
20
-66.1633
11
81.2289
21
-66.1918
0
LINE
8
BLACK
6
CONTINUOUS
10
81.2289
20
-66.1918
11
81.2285
21
-66.1919
0
LINE
8
BLACK
6
CONTINUOUS
10
81.2285
20
-66.1919
11
81.2274
21
-66.1919
0
LINE
8
BLACK
6
CONTINUOUS
10
81.2274
20
-66.1919
11
81.2263
21
-66.192
0
LINE
8
BLACK
6
CONTINUOUS
10
81.2263
20
-66.192
11
81.2178
21
-66.192
0
LINE
8
BLACK
6
CONTINUOUS
10
81.2178
20
-66.192
11
81.2177
21
-66.192
0
LINE
8
BLACK
6
CONTINUOUS
10
81.2177
20
-66.192
11
62.9921
21
-66.192
0
LINE
8
BLACK
6
CONTINUOUS
10
62.9921
20
-66.192
11
62.9836
21
-66.192
  0
ENDSEC
  0
EOF
