  0
SECTION
  2
HEADER
  9
$ANGBASE
  50
0.0
  9
$ANGDIR
  70
1
  9
$MEASUREMENT
  70
1
  0
ENDSEC
  0
SECTION
  2
TABLES
  0
TABLE
  2
LTYPE
  70
4
  0
LTYPE
  5
40F
  2
CONTINUOUS
  70
0
  3
Solid line
  72
65
  73
0
  40
0.0
  0
LTYPE
  5
410
  2
DASHDOT
 70
0
  3
Dash Dot ____ _ ____ _
 72
65
 73
4
 40
2.0
 49
1.25
 49
-0.25
 49
0.25
 49
-0.25
  0
LTYPE
  5
411
  2
DASHED
 70
0
  3
Dashed __ __ __ __ __
 72
65
 73
2
 40
0.75
 49
0.5
 49
-0.25
  0
LTYPE
  5
43B
  2
DOTTED
 70
0
  3
Dotted .  .  .  .
 72
65
 73
2
 40
0.2
 49
0.0
 49
-0.2
  0
ENDTAB
  0
TABLE
  2
STYLE
  70
4
  0
STYLE
  2
KICAD
  70
0
  40
0
  41
1
  42
1
  50
0
  71
0
  3
isocp.shx
  0
STYLE
  2
KICADB
  70
0
  40
0
  41
1
  42
1
  50
0
  71
0
  3
isocp.shx
  0
STYLE
  2
KICADI
  70
0
  40
0
  41
1
  42
1
  50
15
  71
0
  3
isocp.shx
  0
STYLE
  2
KICADBI
  70
0
  40
0
  41
1
  42
1
  50
15
  71
0
  3
isocp.shx
  0
ENDTAB
  0
TABLE
  2
LAYER
  70
1
  0
LAYER
  2
BLACK
  70
0
  62
7
  6
CONTINUOUS
  0
ENDTAB
  0
ENDSEC
  0
SECTION
  2
ENTITIES
0
LINE
8
BLACK
6
CONTINUOUS
10
281.694
20
-61.3795
11
281.962
21
-61.3514
0
LINE
8
BLACK
6
CONTINUOUS
10
281.962
20
-61.3514
11
282.218
21
-61.2722
0
LINE
8
BLACK
6
CONTINUOUS
10
282.218
20
-61.2722
11
282.453
21
-61.1448
0
LINE
8
BLACK
6
CONTINUOUS
10
282.453
20
-61.1448
11
282.659
21
-60.9742
0
LINE
8
BLACK
6
CONTINUOUS
10
282.659
20
-60.9742
11
282.829
21
-60.7667
0
LINE
8
BLACK
6
CONTINUOUS
10
282.829
20
-60.7667
11
282.954
21
-60.5303
0
LINE
8
BLACK
6
CONTINUOUS
10
282.954
20
-60.5303
11
283.032
21
-60.274
0
LINE
8
BLACK
6
CONTINUOUS
10
283.032
20
-60.274
11
283.058
21
-60.0063
0
LINE
8
BLACK
6
CONTINUOUS
10
283.058
20
-60.0063
11
283.058
21
-59.6253
0
LINE
8
BLACK
6
CONTINUOUS
10
283.058
20
-59.6253
11
283.058
21
-59.6241
0
LINE
8
BLACK
6
CONTINUOUS
10
283.058
20
-59.6241
11
283.058
21
-59.6241
0
LINE
8
BLACK
6
CONTINUOUS
10
283.058
20
-59.6241
11
283.069
21
-59.5131
0
LINE
8
BLACK
6
CONTINUOUS
10
283.069
20
-59.5131
11
283.069
21
-59.5127
0
LINE
8
BLACK
6
CONTINUOUS
10
283.069
20
-59.5127
11
283.07
21
-59.5105
0
LINE
8
BLACK
6
CONTINUOUS
10
283.07
20
-59.5105
11
283.07
21
-59.5083
0
LINE
8
BLACK
6
CONTINUOUS
10
283.07
20
-59.5083
11
283.102
21
-59.4015
0
LINE
8
BLACK
6
CONTINUOUS
10
283.102
20
-59.4015
11
283.102
21
-59.4012
0
LINE
8
BLACK
6
CONTINUOUS
10
283.102
20
-59.4012
11
283.103
21
-59.399
0
LINE
8
BLACK
6
CONTINUOUS
10
283.103
20
-59.399
11
283.104
21
-59.397
0
LINE
8
BLACK
6
CONTINUOUS
10
283.104
20
-59.397
11
283.156
21
-59.2985
0
LINE
8
BLACK
6
CONTINUOUS
10
283.156
20
-59.2985
11
283.157
21
-59.2982
0
LINE
8
BLACK
6
CONTINUOUS
10
283.157
20
-59.2982
11
283.158
21
-59.2963
0
LINE
8
BLACK
6
CONTINUOUS
10
283.158
20
-59.2963
11
283.159
21
-59.2944
0
LINE
8
BLACK
6
CONTINUOUS
10
283.159
20
-59.2944
11
283.23
21
-59.208
0
LINE
8
BLACK
6
CONTINUOUS
10
283.23
20
-59.208
11
283.23
21
-59.208
0
LINE
8
BLACK
6
CONTINUOUS
10
283.23
20
-59.208
11
283.23
21
-59.208
0
LINE
8
BLACK
6
CONTINUOUS
10
283.23
20
-59.208
11
283.23
21
-59.2077
0
LINE
8
BLACK
6
CONTINUOUS
10
283.23
20
-59.2077
11
283.231
21
-59.2062
0
LINE
8
BLACK
6
CONTINUOUS
10
283.231
20
-59.2062
11
283.233
21
-59.2045
0
LINE
8
BLACK
6
CONTINUOUS
10
283.233
20
-59.2045
11
283.319
21
-59.1334
0
LINE
8
BLACK
6
CONTINUOUS
10
283.319
20
-59.1334
11
283.319
21
-59.1334
0
LINE
8
BLACK
6
CONTINUOUS
10
283.319
20
-59.1334
11
283.319
21
-59.1334
0
LINE
8
BLACK
6
CONTINUOUS
10
283.319
20
-59.1334
11
283.319
21
-59.1332
0
LINE
8
BLACK
6
CONTINUOUS
10
283.319
20
-59.1332
11
283.321
21
-59.132
0
LINE
8
BLACK
6
CONTINUOUS
10
283.321
20
-59.132
11
283.323
21
-59.1307
0
LINE
8
BLACK
6
CONTINUOUS
10
283.323
20
-59.1307
11
283.421
21
-59.0777
0
LINE
8
BLACK
6
CONTINUOUS
10
283.421
20
-59.0777
11
283.421
21
-59.0777
0
LINE
8
BLACK
6
CONTINUOUS
10
283.421
20
-59.0777
11
283.421
21
-59.0777
0
LINE
8
BLACK
6
CONTINUOUS
10
283.421
20
-59.0777
11
283.421
21
-59.0775
0
LINE
8
BLACK
6
CONTINUOUS
10
283.421
20
-59.0775
11
283.424
21
-59.0766
0
LINE
8
BLACK
6
CONTINUOUS
10
283.424
20
-59.0766
11
283.426
21
-59.0758
0
LINE
8
BLACK
6
CONTINUOUS
10
283.426
20
-59.0758
11
283.532
21
-59.0428
0
LINE
8
BLACK
6
CONTINUOUS
10
283.532
20
-59.0428
11
283.533
21
-59.0427
0
LINE
8
BLACK
6
CONTINUOUS
10
283.533
20
-59.0427
11
283.535
21
-59.0423
0
LINE
8
BLACK
6
CONTINUOUS
10
283.535
20
-59.0423
11
283.537
21
-59.0418
0
LINE
8
BLACK
6
CONTINUOUS
10
283.537
20
-59.0418
11
283.648
21
-59.0302
0
LINE
8
BLACK
6
CONTINUOUS
10
283.648
20
-59.0302
11
283.648
21
-59.0301
0
LINE
8
BLACK
6
CONTINUOUS
10
283.648
20
-59.0301
11
283.649
21
-59.0301
0
LINE
8
BLACK
6
CONTINUOUS
10
283.649
20
-59.0301
11
283.65
21
-59.03
0
LINE
8
BLACK
6
CONTINUOUS
10
283.65
20
-59.03
11
283.653
21
-59.03
0
LINE
8
BLACK
6
CONTINUOUS
10
283.653
20
-59.03
11
283.653
21
-59.03
0
LINE
8
BLACK
6
CONTINUOUS
10
283.653
20
-59.03
11
301.563
21
-59.03
0
LINE
8
BLACK
6
CONTINUOUS
10
301.563
20
-59.03
11
301.564
21
-59.0301
0
LINE
8
BLACK
6
CONTINUOUS
10
301.564
20
-59.0301
11
301.564
21
-59.0301
0
LINE
8
BLACK
6
CONTINUOUS
10
301.564
20
-59.0301
11
301.675
21
-59.041
0
LINE
8
BLACK
6
CONTINUOUS
10
301.675
20
-59.041
11
301.675
21
-59.041
0
LINE
8
BLACK
6
CONTINUOUS
10
301.675
20
-59.041
11
301.678
21
-59.0415
0
LINE
8
BLACK
6
CONTINUOUS
10
301.678
20
-59.0415
11
301.68
21
-59.042
0
LINE
8
BLACK
6
CONTINUOUS
10
301.68
20
-59.042
11
301.787
21
-59.0742
0
LINE
8
BLACK
6
CONTINUOUS
10
301.787
20
-59.0742
11
301.787
21
-59.0743
0
LINE
8
BLACK
6
CONTINUOUS
10
301.787
20
-59.0743
11
301.789
21
-59.0752
0
LINE
8
BLACK
6
CONTINUOUS
10
301.789
20
-59.0752
11
301.791
21
-59.076
0
LINE
8
BLACK
6
CONTINUOUS
10
301.791
20
-59.076
11
301.889
21
-59.1284
0
LINE
8
BLACK
6
CONTINUOUS
10
301.889
20
-59.1284
11
301.89
21
-59.1286
0
LINE
8
BLACK
6
CONTINUOUS
10
301.89
20
-59.1286
11
301.892
21
-59.1299
0
LINE
8
BLACK
6
CONTINUOUS
10
301.892
20
-59.1299
11
301.894
21
-59.1311
0
LINE
8
BLACK
6
CONTINUOUS
10
301.894
20
-59.1311
11
301.98
21
-59.2016
0
LINE
8
BLACK
6
CONTINUOUS
10
301.98
20
-59.2016
11
301.98
21
-59.2016
0
LINE
8
BLACK
6
CONTINUOUS
10
301.98
20
-59.2016
11
301.98
21
-59.2016
0
LINE
8
BLACK
6
CONTINUOUS
10
301.98
20
-59.2016
11
301.98
21
-59.2018
0
LINE
8
BLACK
6
CONTINUOUS
10
301.98
20
-59.2018
11
301.982
21
-59.2034
0
LINE
8
BLACK
6
CONTINUOUS
10
301.982
20
-59.2034
11
301.983
21
-59.205
0
LINE
8
BLACK
6
CONTINUOUS
10
301.983
20
-59.205
11
302.055
21
-59.291
0
LINE
8
BLACK
6
CONTINUOUS
10
302.055
20
-59.291
11
302.055
21
-59.291
0
LINE
8
BLACK
6
CONTINUOUS
10
302.055
20
-59.291
11
302.055
21
-59.291
0
LINE
8
BLACK
6
CONTINUOUS
10
302.055
20
-59.291
11
302.055
21
-59.2913
0
LINE
8
BLACK
6
CONTINUOUS
10
302.055
20
-59.2913
11
302.056
21
-59.2932
0
LINE
8
BLACK
6
CONTINUOUS
10
302.056
20
-59.2932
11
302.057
21
-59.295
0
LINE
8
BLACK
6
CONTINUOUS
10
302.057
20
-59.295
11
302.11
21
-59.3931
0
LINE
8
BLACK
6
CONTINUOUS
10
302.11
20
-59.3931
11
302.11
21
-59.3931
0
LINE
8
BLACK
6
CONTINUOUS
10
302.11
20
-59.3931
11
302.11
21
-59.3931
0
LINE
8
BLACK
6
CONTINUOUS
10
302.11
20
-59.3931
11
302.111
21
-59.3935
0
LINE
8
BLACK
6
CONTINUOUS
10
302.111
20
-59.3935
11
302.111
21
-59.3956
0
LINE
8
BLACK
6
CONTINUOUS
10
302.111
20
-59.3956
11
302.112
21
-59.3976
0
LINE
8
BLACK
6
CONTINUOUS
10
302.112
20
-59.3976
11
302.145
21
-59.5042
0
LINE
8
BLACK
6
CONTINUOUS
10
302.145
20
-59.5042
11
302.145
21
-59.5045
0
LINE
8
BLACK
6
CONTINUOUS
10
302.145
20
-59.5045
11
302.146
21
-59.5068
0
LINE
8
BLACK
6
CONTINUOUS
10
302.146
20
-59.5068
11
302.146
21
-59.509
0
LINE
8
BLACK
6
CONTINUOUS
10
302.146
20
-59.509
11
302.158
21
-59.6199
0
LINE
8
BLACK
6
CONTINUOUS
10
302.158
20
-59.6199
11
302.158
21
-59.6202
0
LINE
8
BLACK
6
CONTINUOUS
10
302.158
20
-59.6202
11
302.158
21
-59.6213
0
LINE
8
BLACK
6
CONTINUOUS
10
302.158
20
-59.6213
11
302.158
21
-59.6224
0
LINE
8
BLACK
6
CONTINUOUS
10
302.158
20
-59.6224
11
302.158
21
-59.6252
0
LINE
8
BLACK
6
CONTINUOUS
10
302.158
20
-59.6252
11
302.158
21
-59.6253
0
LINE
8
BLACK
6
CONTINUOUS
10
302.158
20
-59.6253
11
302.158
21
-60.0074
0
LINE
8
BLACK
6
CONTINUOUS
10
302.158
20
-60.0074
11
302.158
21
-60.0159
0
LINE
8
BLACK
6
CONTINUOUS
10
302.158
20
-60.0159
11
302.186
21
-60.2834
0
LINE
8
BLACK
6
CONTINUOUS
10
302.186
20
-60.2834
11
302.265
21
-60.5391
0
LINE
8
BLACK
6
CONTINUOUS
10
302.265
20
-60.5391
11
302.393
21
-60.7746
0
LINE
8
BLACK
6
CONTINUOUS
10
302.393
20
-60.7746
11
302.563
21
-60.9809
0
LINE
8
BLACK
6
CONTINUOUS
10
302.563
20
-60.9809
11
302.771
21
-61.1502
0
LINE
8
BLACK
6
CONTINUOUS
10
302.771
20
-61.1502
11
303.007
21
-61.2759
0
LINE
8
BLACK
6
CONTINUOUS
10
303.007
20
-61.2759
11
303.264
21
-61.3533
0
LINE
8
BLACK
6
CONTINUOUS
10
303.264
20
-61.3533
11
303.531
21
-61.3795
0
LINE
8
BLACK
6
CONTINUOUS
10
303.531
20
-61.3795
11
319.787
21
-61.3795
0
LINE
8
BLACK
6
CONTINUOUS
10
319.787
20
-61.3795
11
319.788
21
-61.3796
0
LINE
8
BLACK
6
CONTINUOUS
10
319.788
20
-61.3796
11
319.788
21
-61.3796
0
LINE
8
BLACK
6
CONTINUOUS
10
319.788
20
-61.3796
11
320.06
21
-61.4062
0
LINE
8
BLACK
6
CONTINUOUS
10
320.06
20
-61.4062
11
320.06
21
-61.4063
0
LINE
8
BLACK
6
CONTINUOUS
10
320.06
20
-61.4063
11
320.062
21
-61.4067
0
LINE
8
BLACK
6
CONTINUOUS
10
320.062
20
-61.4067
11
320.065
21
-61.4072
0
LINE
8
BLACK
6
CONTINUOUS
10
320.065
20
-61.4072
11
320.326
21
-61.486
0
LINE
8
BLACK
6
CONTINUOUS
10
320.326
20
-61.486
11
320.326
21
-61.4861
0
LINE
8
BLACK
6
CONTINUOUS
10
320.326
20
-61.4861
11
320.328
21
-61.487
0
LINE
8
BLACK
6
CONTINUOUS
10
320.328
20
-61.487
11
320.33
21
-61.4878
0
LINE
8
BLACK
6
CONTINUOUS
10
320.33
20
-61.4878
11
320.571
21
-61.6158
0
LINE
8
BLACK
6
CONTINUOUS
10
320.571
20
-61.6158
11
320.571
21
-61.616
0
LINE
8
BLACK
6
CONTINUOUS
10
320.571
20
-61.616
11
320.573
21
-61.6173
0
LINE
8
BLACK
6
CONTINUOUS
10
320.573
20
-61.6173
11
320.575
21
-61.6185
0
LINE
8
BLACK
6
CONTINUOUS
10
320.575
20
-61.6185
11
320.786
21
-61.7909
0
LINE
8
BLACK
6
CONTINUOUS
10
320.786
20
-61.7909
11
320.786
21
-61.7909
0
LINE
8
BLACK
6
CONTINUOUS
10
320.786
20
-61.7909
11
320.786
21
-61.7909
0
LINE
8
BLACK
6
CONTINUOUS
10
320.786
20
-61.7909
11
320.786
21
-61.7911
0
LINE
8
BLACK
6
CONTINUOUS
10
320.786
20
-61.7911
11
320.788
21
-61.7927
0
LINE
8
BLACK
6
CONTINUOUS
10
320.788
20
-61.7927
11
320.79
21
-61.7943
0
LINE
8
BLACK
6
CONTINUOUS
10
320.79
20
-61.7943
11
320.963
21
-62.0044
0
LINE
8
BLACK
6
CONTINUOUS
10
320.963
20
-62.0044
11
320.964
21
-62.0046
0
LINE
8
BLACK
6
CONTINUOUS
10
320.964
20
-62.0046
11
320.965
21
-62.0066
0
LINE
8
BLACK
6
CONTINUOUS
10
320.965
20
-62.0066
11
320.966
21
-62.0084
0
LINE
8
BLACK
6
CONTINUOUS
10
320.966
20
-62.0084
11
321.096
21
-62.2482
0
LINE
8
BLACK
6
CONTINUOUS
10
321.096
20
-62.2482
11
321.096
21
-62.2482
0
LINE
8
BLACK
6
CONTINUOUS
10
321.096
20
-62.2482
11
321.096
21
-62.2483
0
LINE
8
BLACK
6
CONTINUOUS
10
321.096
20
-62.2483
11
321.096
21
-62.2486
0
LINE
8
BLACK
6
CONTINUOUS
10
321.096
20
-62.2486
11
321.097
21
-62.2507
0
LINE
8
BLACK
6
CONTINUOUS
10
321.097
20
-62.2507
11
321.098
21
-62.2527
0
LINE
8
BLACK
6
CONTINUOUS
10
321.098
20
-62.2527
11
321.178
21
-62.5132
0
LINE
8
BLACK
6
CONTINUOUS
10
321.178
20
-62.5132
11
321.178
21
-62.5135
0
LINE
8
BLACK
6
CONTINUOUS
10
321.178
20
-62.5135
11
321.179
21
-62.5158
0
LINE
8
BLACK
6
CONTINUOUS
10
321.179
20
-62.5158
11
321.179
21
-62.518
0
LINE
8
BLACK
6
CONTINUOUS
10
321.179
20
-62.518
11
321.208
21
-62.7891
0
LINE
8
BLACK
6
CONTINUOUS
10
321.208
20
-62.7891
11
321.208
21
-62.7895
0
LINE
8
BLACK
6
CONTINUOUS
10
321.208
20
-62.7895
11
321.208
21
-62.7906
0
LINE
8
BLACK
6
CONTINUOUS
10
321.208
20
-62.7906
11
321.208
21
-62.7917
0
LINE
8
BLACK
6
CONTINUOUS
10
321.208
20
-62.7917
11
321.208
21
-62.8002
0
LINE
8
BLACK
6
CONTINUOUS
10
321.208
20
-62.8002
11
321.208
21
-62.8003
0
LINE
8
BLACK
6
CONTINUOUS
10
321.208
20
-62.8003
11
321.208
21
-64.7699
0
LINE
8
BLACK
6
CONTINUOUS
10
321.208
20
-64.7699
11
321.208
21
-64.7784
0
LINE
8
BLACK
6
CONTINUOUS
10
321.208
20
-64.7784
11
321.236
21
-65.0459
0
LINE
8
BLACK
6
CONTINUOUS
10
321.236
20
-65.0459
11
321.315
21
-65.3016
0
LINE
8
BLACK
6
CONTINUOUS
10
321.315
20
-65.3016
11
321.443
21
-65.5371
0
LINE
8
BLACK
6
CONTINUOUS
10
321.443
20
-65.5371
11
321.613
21
-65.7434
0
LINE
8
BLACK
6
CONTINUOUS
10
321.613
20
-65.7434
11
321.821
21
-65.9127
0
LINE
8
BLACK
6
CONTINUOUS
10
321.821
20
-65.9127
11
322.057
21
-66.0384
0
LINE
8
BLACK
6
CONTINUOUS
10
322.057
20
-66.0384
11
322.314
21
-66.1158
0
LINE
8
BLACK
6
CONTINUOUS
10
322.314
20
-66.1158
11
322.581
21
-66.142
0
LINE
8
BLACK
6
CONTINUOUS
10
322.581
20
-66.142
11
333.502
21
-66.142
0
LINE
8
BLACK
6
CONTINUOUS
10
333.502
20
-66.142
11
333.51
21
-66.142
0
LINE
8
BLACK
6
CONTINUOUS
10
333.51
20
-66.142
11
333.778
21
-66.1139
0
LINE
8
BLACK
6
CONTINUOUS
10
333.778
20
-66.1139
11
334.034
21
-66.0347
0
LINE
8
BLACK
6
CONTINUOUS
10
334.034
20
-66.0347
11
334.269
21
-65.9073
0
LINE
8
BLACK
6
CONTINUOUS
10
334.269
20
-65.9073
11
334.475
21
-65.7367
0
LINE
8
BLACK
6
CONTINUOUS
10
334.475
20
-65.7367
11
334.645
21
-65.5292
0
LINE
8
BLACK
6
CONTINUOUS
10
334.645
20
-65.5292
11
334.77
21
-65.2928
0
LINE
8
BLACK
6
CONTINUOUS
10
334.77
20
-65.2928
11
334.848
21
-65.0365
0
LINE
8
BLACK
6
CONTINUOUS
10
334.848
20
-65.0365
11
334.874
21
-64.7688
0
LINE
8
BLACK
6
CONTINUOUS
10
334.874
20
-64.7688
11
334.874
21
-59.4348
0
LINE
8
BLACK
6
CONTINUOUS
10
334.874
20
-59.4348
11
334.874
21
-59.4336
0
LINE
8
BLACK
6
CONTINUOUS
10
334.874
20
-59.4336
11
334.874
21
-59.4336
0
LINE
8
BLACK
6
CONTINUOUS
10
334.874
20
-59.4336
11
334.885
21
-59.3226
0
LINE
8
BLACK
6
CONTINUOUS
10
334.885
20
-59.3226
11
334.885
21
-59.3222
0
LINE
8
BLACK
6
CONTINUOUS
10
334.885
20
-59.3222
11
334.886
21
-59.32
0
LINE
8
BLACK
6
CONTINUOUS
10
334.886
20
-59.32
11
334.886
21
-59.3178
0
LINE
8
BLACK
6
CONTINUOUS
10
334.886
20
-59.3178
11
334.918
21
-59.211
0
LINE
8
BLACK
6
CONTINUOUS
10
334.918
20
-59.211
11
334.918
21
-59.2107
0
LINE
8
BLACK
6
CONTINUOUS
10
334.918
20
-59.2107
11
334.919
21
-59.2085
0
LINE
8
BLACK
6
CONTINUOUS
10
334.919
20
-59.2085
11
334.92
21
-59.2065
0
LINE
8
BLACK
6
CONTINUOUS
10
334.92
20
-59.2065
11
334.972
21
-59.108
0
LINE
8
BLACK
6
CONTINUOUS
10
334.972
20
-59.108
11
334.973
21
-59.1077
0
LINE
8
BLACK
6
CONTINUOUS
10
334.973
20
-59.1077
11
334.974
21
-59.1058
0
LINE
8
BLACK
6
CONTINUOUS
10
334.974
20
-59.1058
11
334.975
21
-59.1039
0
LINE
8
BLACK
6
CONTINUOUS
10
334.975
20
-59.1039
11
335.046
21
-59.0175
0
LINE
8
BLACK
6
CONTINUOUS
10
335.046
20
-59.0175
11
335.046
21
-59.0175
0
LINE
8
BLACK
6
CONTINUOUS
10
335.046
20
-59.0175
11
335.046
21
-59.0175
0
LINE
8
BLACK
6
CONTINUOUS
10
335.046
20
-59.0175
11
335.046
21
-59.0172
0
LINE
8
BLACK
6
CONTINUOUS
10
335.046
20
-59.0172
11
335.047
21
-59.0157
0
LINE
8
BLACK
6
CONTINUOUS
10
335.047
20
-59.0157
11
335.049
21
-59.014
0
LINE
8
BLACK
6
CONTINUOUS
10
335.049
20
-59.014
11
335.135
21
-58.9429
0
LINE
8
BLACK
6
CONTINUOUS
10
335.135
20
-58.9429
11
335.135
21
-58.9429
0
LINE
8
BLACK
6
CONTINUOUS
10
335.135
20
-58.9429
11
335.135
21
-58.9429
0
LINE
8
BLACK
6
CONTINUOUS
10
335.135
20
-58.9429
11
335.135
21
-58.9427
0
LINE
8
BLACK
6
CONTINUOUS
10
335.135
20
-58.9427
11
335.137
21
-58.9415
0
LINE
8
BLACK
6
CONTINUOUS
10
335.137
20
-58.9415
11
335.139
21
-58.9402
0
LINE
8
BLACK
6
CONTINUOUS
10
335.139
20
-58.9402
11
335.237
21
-58.8872
0
LINE
8
BLACK
6
CONTINUOUS
10
335.237
20
-58.8872
11
335.237
21
-58.8872
0
LINE
8
BLACK
6
CONTINUOUS
10
335.237
20
-58.8872
11
335.237
21
-58.8872
0
LINE
8
BLACK
6
CONTINUOUS
10
335.237
20
-58.8872
11
335.237
21
-58.887
0
LINE
8
BLACK
6
CONTINUOUS
10
335.237
20
-58.887
11
335.24
21
-58.8861
0
LINE
8
BLACK
6
CONTINUOUS
10
335.24
20
-58.8861
11
335.242
21
-58.8853
0
LINE
8
BLACK
6
CONTINUOUS
10
335.242
20
-58.8853
11
335.348
21
-58.8523
0
LINE
8
BLACK
6
CONTINUOUS
10
335.348
20
-58.8523
11
335.349
21
-58.8522
0
LINE
8
BLACK
6
CONTINUOUS
10
335.349
20
-58.8522
11
335.351
21
-58.8518
0
LINE
8
BLACK
6
CONTINUOUS
10
335.351
20
-58.8518
11
335.353
21
-58.8513
0
LINE
8
BLACK
6
CONTINUOUS
10
335.353
20
-58.8513
11
335.464
21
-58.8397
0
LINE
8
BLACK
6
CONTINUOUS
10
335.464
20
-58.8397
11
335.464
21
-58.8396
0
LINE
8
BLACK
6
CONTINUOUS
10
335.464
20
-58.8396
11
335.465
21
-58.8396
0
LINE
8
BLACK
6
CONTINUOUS
10
335.465
20
-58.8396
11
335.466
21
-58.8395
0
LINE
8
BLACK
6
CONTINUOUS
10
335.466
20
-58.8395
11
335.469
21
-58.8395
0
LINE
8
BLACK
6
CONTINUOUS
10
335.469
20
-58.8395
11
335.469
21
-58.8395
0
LINE
8
BLACK
6
CONTINUOUS
10
335.469
20
-58.8395
11
344.997
21
-58.8395
0
LINE
8
BLACK
6
CONTINUOUS
10
344.997
20
-58.8395
11
344.998
21
-58.8396
0
LINE
8
BLACK
6
CONTINUOUS
10
344.998
20
-58.8396
11
344.998
21
-58.8396
0
LINE
8
BLACK
6
CONTINUOUS
10
344.998
20
-58.8396
11
345.109
21
-58.8505
0
LINE
8
BLACK
6
CONTINUOUS
10
345.109
20
-58.8505
11
345.109
21
-58.8505
0
LINE
8
BLACK
6
CONTINUOUS
10
345.109
20
-58.8505
11
345.112
21
-58.851
0
LINE
8
BLACK
6
CONTINUOUS
10
345.112
20
-58.851
11
345.114
21
-58.8515
0
LINE
8
BLACK
6
CONTINUOUS
10
345.114
20
-58.8515
11
345.221
21
-58.8837
0
LINE
8
BLACK
6
CONTINUOUS
10
345.221
20
-58.8837
11
345.221
21
-58.8838
0
LINE
8
BLACK
6
CONTINUOUS
10
345.221
20
-58.8838
11
345.223
21
-58.8847
0
LINE
8
BLACK
6
CONTINUOUS
10
345.223
20
-58.8847
11
345.225
21
-58.8855
0
LINE
8
BLACK
6
CONTINUOUS
10
345.225
20
-58.8855
11
345.323
21
-58.9379
0
LINE
8
BLACK
6
CONTINUOUS
10
345.323
20
-58.9379
11
345.324
21
-58.9381
0
LINE
8
BLACK
6
CONTINUOUS
10
345.324
20
-58.9381
11
345.326
21
-58.9394
0
LINE
8
BLACK
6
CONTINUOUS
10
345.326
20
-58.9394
11
345.328
21
-58.9406
0
LINE
8
BLACK
6
CONTINUOUS
10
345.328
20
-58.9406
11
345.414
21
-59.0111
0
LINE
8
BLACK
6
CONTINUOUS
10
345.414
20
-59.0111
11
345.414
21
-59.0111
0
LINE
8
BLACK
6
CONTINUOUS
10
345.414
20
-59.0111
11
345.414
21
-59.0111
0
LINE
8
BLACK
6
CONTINUOUS
10
345.414
20
-59.0111
11
345.414
21
-59.0113
0
LINE
8
BLACK
6
CONTINUOUS
10
345.414
20
-59.0113
11
345.416
21
-59.0129
0
LINE
8
BLACK
6
CONTINUOUS
10
345.416
20
-59.0129
11
345.417
21
-59.0145
0
LINE
8
BLACK
6
CONTINUOUS
10
345.417
20
-59.0145
11
345.489
21
-59.1005
0
LINE
8
BLACK
6
CONTINUOUS
10
345.489
20
-59.1005
11
345.489
21
-59.1005
0
LINE
8
BLACK
6
CONTINUOUS
10
345.489
20
-59.1005
11
345.489
21
-59.1005
0
LINE
8
BLACK
6
CONTINUOUS
10
345.489
20
-59.1005
11
345.489
21
-59.1008
0
LINE
8
BLACK
6
CONTINUOUS
10
345.489
20
-59.1008
11
345.49
21
-59.1027
0
LINE
8
BLACK
6
CONTINUOUS
10
345.49
20
-59.1027
11
345.491
21
-59.1045
0
LINE
8
BLACK
6
CONTINUOUS
10
345.491
20
-59.1045
11
345.544
21
-59.2026
0
LINE
8
BLACK
6
CONTINUOUS
10
345.544
20
-59.2026
11
345.544
21
-59.2026
0
LINE
8
BLACK
6
CONTINUOUS
10
345.544
20
-59.2026
11
345.544
21
-59.2026
0
LINE
8
BLACK
6
CONTINUOUS
10
345.544
20
-59.2026
11
345.545
21
-59.203
0
LINE
8
BLACK
6
CONTINUOUS
10
345.545
20
-59.203
11
345.545
21
-59.2051
0
LINE
8
BLACK
6
CONTINUOUS
10
345.545
20
-59.2051
11
345.546
21
-59.2071
0
LINE
8
BLACK
6
CONTINUOUS
10
345.546
20
-59.2071
11
345.579
21
-59.3137
0
LINE
8
BLACK
6
CONTINUOUS
10
345.579
20
-59.3137
11
345.579
21
-59.314
0
LINE
8
BLACK
6
CONTINUOUS
10
345.579
20
-59.314
11
345.58
21
-59.3163
0
LINE
8
BLACK
6
CONTINUOUS
10
345.58
20
-59.3163
11
345.58
21
-59.3185
0
LINE
8
BLACK
6
CONTINUOUS
10
345.58
20
-59.3185
11
345.592
21
-59.4294
0
LINE
8
BLACK
6
CONTINUOUS
10
345.592
20
-59.4294
11
345.592
21
-59.4297
0
LINE
8
BLACK
6
CONTINUOUS
10
345.592
20
-59.4297
11
345.592
21
-59.4308
0
LINE
8
BLACK
6
CONTINUOUS
10
345.592
20
-59.4308
11
345.592
21
-59.4319
0
LINE
8
BLACK
6
CONTINUOUS
10
345.592
20
-59.4319
11
345.592
21
-59.4347
0
LINE
8
BLACK
6
CONTINUOUS
10
345.592
20
-59.4347
11
345.592
21
-59.4348
0
LINE
8
BLACK
6
CONTINUOUS
10
345.592
20
-59.4348
11
345.592
21
-64.7699
0
LINE
8
BLACK
6
CONTINUOUS
10
345.592
20
-64.7699
11
345.592
21
-64.7784
0
LINE
8
BLACK
6
CONTINUOUS
10
345.592
20
-64.7784
11
345.62
21
-65.0459
0
LINE
8
BLACK
6
CONTINUOUS
10
345.62
20
-65.0459
11
345.699
21
-65.3016
0
LINE
8
BLACK
6
CONTINUOUS
10
345.699
20
-65.3016
11
345.827
21
-65.5371
0
LINE
8
BLACK
6
CONTINUOUS
10
345.827
20
-65.5371
11
345.997
21
-65.7434
0
LINE
8
BLACK
6
CONTINUOUS
10
345.997
20
-65.7434
11
346.205
21
-65.9127
0
LINE
8
BLACK
6
CONTINUOUS
10
346.205
20
-65.9127
11
346.441
21
-66.0384
0
LINE
8
BLACK
6
CONTINUOUS
10
346.441
20
-66.0384
11
346.698
21
-66.1158
0
LINE
8
BLACK
6
CONTINUOUS
10
346.698
20
-66.1158
11
346.965
21
-66.142
0
LINE
8
BLACK
6
CONTINUOUS
10
346.965
20
-66.142
11
367.412
21
-66.142
0
LINE
8
BLACK
6
CONTINUOUS
10
367.412
20
-66.142
11
367.413
21
-66.1421
0
LINE
8
BLACK
6
CONTINUOUS
10
367.413
20
-66.1421
11
367.413
21
-66.1421
0
LINE
8
BLACK
6
CONTINUOUS
10
367.413
20
-66.1421
11
367.685
21
-66.1687
0
LINE
8
BLACK
6
CONTINUOUS
10
367.685
20
-66.1687
11
367.685
21
-66.1688
0
LINE
8
BLACK
6
CONTINUOUS
10
367.685
20
-66.1688
11
367.687
21
-66.1692
0
LINE
8
BLACK
6
CONTINUOUS
10
367.687
20
-66.1692
11
367.69
21
-66.1697
0
LINE
8
BLACK
6
CONTINUOUS
10
367.69
20
-66.1697
11
367.951
21
-66.2485
0
LINE
8
BLACK
6
CONTINUOUS
10
367.951
20
-66.2485
11
367.951
21
-66.2486
0
LINE
8
BLACK
6
CONTINUOUS
10
367.951
20
-66.2486
11
367.953
21
-66.2495
0
LINE
8
BLACK
6
CONTINUOUS
10
367.953
20
-66.2495
11
367.955
21
-66.2503
0
LINE
8
BLACK
6
CONTINUOUS
10
367.955
20
-66.2503
11
368.196
21
-66.3783
0
LINE
8
BLACK
6
CONTINUOUS
10
368.196
20
-66.3783
11
368.196
21
-66.3785
0
LINE
8
BLACK
6
CONTINUOUS
10
368.196
20
-66.3785
11
368.198
21
-66.3798
0
LINE
8
BLACK
6
CONTINUOUS
10
368.198
20
-66.3798
11
368.2
21
-66.381
0
LINE
8
BLACK
6
CONTINUOUS
10
368.2
20
-66.381
11
368.411
21
-66.5534
0
LINE
8
BLACK
6
CONTINUOUS
10
368.411
20
-66.5534
11
368.411
21
-66.5534
0
LINE
8
BLACK
6
CONTINUOUS
10
368.411
20
-66.5534
11
368.411
21
-66.5534
0
LINE
8
BLACK
6
CONTINUOUS
10
368.411
20
-66.5534
11
368.411
21
-66.5536
0
LINE
8
BLACK
6
CONTINUOUS
10
368.411
20
-66.5536
11
368.413
21
-66.5552
0
LINE
8
BLACK
6
CONTINUOUS
10
368.413
20
-66.5552
11
368.415
21
-66.5568
0
LINE
8
BLACK
6
CONTINUOUS
10
368.415
20
-66.5568
11
368.588
21
-66.7669
0
LINE
8
BLACK
6
CONTINUOUS
10
368.588
20
-66.7669
11
368.589
21
-66.7671
0
LINE
8
BLACK
6
CONTINUOUS
10
368.589
20
-66.7671
11
368.59
21
-66.7691
0
LINE
8
BLACK
6
CONTINUOUS
10
368.59
20
-66.7691
11
368.591
21
-66.7709
0
LINE
8
BLACK
6
CONTINUOUS
10
368.591
20
-66.7709
11
368.721
21
-67.0107
0
LINE
8
BLACK
6
CONTINUOUS
10
368.721
20
-67.0107
11
368.721
21
-67.0108
0
LINE
8
BLACK
6
CONTINUOUS
10
368.721
20
-67.0108
11
368.721
21
-67.0108
0
LINE
8
BLACK
6
CONTINUOUS
10
368.721
20
-67.0108
11
368.721
21
-67.0111
0
LINE
8
BLACK
6
CONTINUOUS
10
368.721
20
-67.0111
11
368.722
21
-67.0132
0
LINE
8
BLACK
6
CONTINUOUS
10
368.722
20
-67.0132
11
368.723
21
-67.0152
0
LINE
8
BLACK
6
CONTINUOUS
10
368.723
20
-67.0152
11
368.803
21
-67.2757
0
LINE
8
BLACK
6
CONTINUOUS
10
368.803
20
-67.2757
11
368.803
21
-67.276
0
LINE
8
BLACK
6
CONTINUOUS
10
368.803
20
-67.276
11
368.804
21
-67.2783
0
LINE
8
BLACK
6
CONTINUOUS
10
368.804
20
-67.2783
11
368.804
21
-67.2805
0
LINE
8
BLACK
6
CONTINUOUS
10
368.804
20
-67.2805
11
368.833
21
-67.5516
0
LINE
8
BLACK
6
CONTINUOUS
10
368.833
20
-67.5516
11
368.833
21
-67.552
0
LINE
8
BLACK
6
CONTINUOUS
10
368.833
20
-67.552
11
368.833
21
-67.5531
0
LINE
8
BLACK
6
CONTINUOUS
10
368.833
20
-67.5531
11
368.833
21
-67.5542
0
LINE
8
BLACK
6
CONTINUOUS
10
368.833
20
-67.5542
11
368.833
21
-67.5627
0
LINE
8
BLACK
6
CONTINUOUS
10
368.833
20
-67.5627
11
368.833
21
-67.5628
0
LINE
8
BLACK
6
CONTINUOUS
10
368.833
20
-67.5628
11
368.833
21
-160.021
0
LINE
8
BLACK
6
CONTINUOUS
10
368.833
20
-160.021
11
368.833
21
-160.022
0
LINE
8
BLACK
6
CONTINUOUS
10
368.833
20
-160.022
11
368.833
21
-160.022
0
LINE
8
BLACK
6
CONTINUOUS
10
368.833
20
-160.022
11
368.806
21
-160.294
0
LINE
8
BLACK
6
CONTINUOUS
10
368.806
20
-160.294
11
368.806
21
-160.294
0
LINE
8
BLACK
6
CONTINUOUS
10
368.806
20
-160.294
11
368.806
21
-160.296
0
LINE
8
BLACK
6
CONTINUOUS
10
368.806
20
-160.296
11
368.805
21
-160.299
0
LINE
8
BLACK
6
CONTINUOUS
10
368.805
20
-160.299
11
368.727
21
-160.56
0
LINE
8
BLACK
6
CONTINUOUS
10
368.727
20
-160.56
11
368.726
21
-160.56
0
LINE
8
BLACK
6
CONTINUOUS
10
368.726
20
-160.56
11
368.726
21
-160.562
0
LINE
8
BLACK
6
CONTINUOUS
10
368.726
20
-160.562
11
368.725
21
-160.564
0
LINE
8
BLACK
6
CONTINUOUS
10
368.725
20
-160.564
11
368.597
21
-160.805
0
LINE
8
BLACK
6
CONTINUOUS
10
368.597
20
-160.805
11
368.596
21
-160.805
0
LINE
8
BLACK
6
CONTINUOUS
10
368.596
20
-160.805
11
368.595
21
-160.807
0
LINE
8
BLACK
6
CONTINUOUS
10
368.595
20
-160.807
11
368.594
21
-160.809
0
LINE
8
BLACK
6
CONTINUOUS
10
368.594
20
-160.809
11
368.422
21
-161.02
0
LINE
8
BLACK
6
CONTINUOUS
10
368.422
20
-161.02
11
368.421
21
-161.02
0
LINE
8
BLACK
6
CONTINUOUS
10
368.421
20
-161.02
11
368.42
21
-161.022
0
LINE
8
BLACK
6
CONTINUOUS
10
368.42
20
-161.022
11
368.418
21
-161.024
0
LINE
8
BLACK
6
CONTINUOUS
10
368.418
20
-161.024
11
368.208
21
-161.197
0
LINE
8
BLACK
6
CONTINUOUS
10
368.208
20
-161.197
11
368.208
21
-161.198
0
LINE
8
BLACK
6
CONTINUOUS
10
368.208
20
-161.198
11
368.206
21
-161.199
0
LINE
8
BLACK
6
CONTINUOUS
10
368.206
20
-161.199
11
368.204
21
-161.2
0
LINE
8
BLACK
6
CONTINUOUS
10
368.204
20
-161.2
11
367.964
21
-161.33
0
LINE
8
BLACK
6
CONTINUOUS
10
367.964
20
-161.33
11
367.964
21
-161.33
0
LINE
8
BLACK
6
CONTINUOUS
10
367.964
20
-161.33
11
367.962
21
-161.331
0
LINE
8
BLACK
6
CONTINUOUS
10
367.962
20
-161.331
11
367.96
21
-161.332
0
LINE
8
BLACK
6
CONTINUOUS
10
367.96
20
-161.332
11
367.699
21
-161.412
0
LINE
8
BLACK
6
CONTINUOUS
10
367.699
20
-161.412
11
367.699
21
-161.412
0
LINE
8
BLACK
6
CONTINUOUS
10
367.699
20
-161.412
11
367.697
21
-161.413
0
LINE
8
BLACK
6
CONTINUOUS
10
367.697
20
-161.413
11
367.695
21
-161.413
0
LINE
8
BLACK
6
CONTINUOUS
10
367.695
20
-161.413
11
367.423
21
-161.442
0
LINE
8
BLACK
6
CONTINUOUS
10
367.423
20
-161.442
11
367.423
21
-161.442
0
LINE
8
BLACK
6
CONTINUOUS
10
367.423
20
-161.442
11
367.422
21
-161.442
0
LINE
8
BLACK
6
CONTINUOUS
10
367.422
20
-161.442
11
367.421
21
-161.442
0
LINE
8
BLACK
6
CONTINUOUS
10
367.421
20
-161.442
11
367.412
21
-161.442
0
LINE
8
BLACK
6
CONTINUOUS
10
367.412
20
-161.442
11
367.412
21
-161.442
0
LINE
8
BLACK
6
CONTINUOUS
10
367.412
20
-161.442
11
322.579
21
-161.442
0
LINE
8
BLACK
6
CONTINUOUS
10
322.579
20
-161.442
11
322.578
21
-161.442
0
LINE
8
BLACK
6
CONTINUOUS
10
322.578
20
-161.442
11
322.578
21
-161.442
0
LINE
8
BLACK
6
CONTINUOUS
10
322.578
20
-161.442
11
322.306
21
-161.415
0
LINE
8
BLACK
6
CONTINUOUS
10
322.306
20
-161.415
11
322.306
21
-161.415
0
LINE
8
BLACK
6
CONTINUOUS
10
322.306
20
-161.415
11
322.304
21
-161.415
0
LINE
8
BLACK
6
CONTINUOUS
10
322.304
20
-161.415
11
322.301
21
-161.414
0
LINE
8
BLACK
6
CONTINUOUS
10
322.301
20
-161.414
11
322.04
21
-161.336
0
LINE
8
BLACK
6
CONTINUOUS
10
322.04
20
-161.336
11
322.04
21
-161.335
0
LINE
8
BLACK
6
CONTINUOUS
10
322.04
20
-161.335
11
322.038
21
-161.335
0
LINE
8
BLACK
6
CONTINUOUS
10
322.038
20
-161.335
11
322.036
21
-161.334
0
LINE
8
BLACK
6
CONTINUOUS
10
322.036
20
-161.334
11
321.795
21
-161.206
0
LINE
8
BLACK
6
CONTINUOUS
10
321.795
20
-161.206
11
321.795
21
-161.205
0
LINE
8
BLACK
6
CONTINUOUS
10
321.795
20
-161.205
11
321.793
21
-161.204
0
LINE
8
BLACK
6
CONTINUOUS
10
321.793
20
-161.204
11
321.791
21
-161.203
0
LINE
8
BLACK
6
CONTINUOUS
10
321.791
20
-161.203
11
321.58
21
-161.031
0
LINE
8
BLACK
6
CONTINUOUS
10
321.58
20
-161.031
11
321.58
21
-161.03
0
LINE
8
BLACK
6
CONTINUOUS
10
321.58
20
-161.03
11
321.578
21
-161.029
0
LINE
8
BLACK
6
CONTINUOUS
10
321.578
20
-161.029
11
321.576
21
-161.027
0
LINE
8
BLACK
6
CONTINUOUS
10
321.576
20
-161.027
11
321.403
21
-160.817
0
LINE
8
BLACK
6
CONTINUOUS
10
321.403
20
-160.817
11
321.402
21
-160.817
0
LINE
8
BLACK
6
CONTINUOUS
10
321.402
20
-160.817
11
321.401
21
-160.815
0
LINE
8
BLACK
6
CONTINUOUS
10
321.401
20
-160.815
11
321.4
21
-160.813
0
LINE
8
BLACK
6
CONTINUOUS
10
321.4
20
-160.813
11
321.27
21
-160.573
0
LINE
8
BLACK
6
CONTINUOUS
10
321.27
20
-160.573
11
321.27
21
-160.573
0
LINE
8
BLACK
6
CONTINUOUS
10
321.27
20
-160.573
11
321.269
21
-160.571
0
LINE
8
BLACK
6
CONTINUOUS
10
321.269
20
-160.571
11
321.268
21
-160.569
0
LINE
8
BLACK
6
CONTINUOUS
10
321.268
20
-160.569
11
321.188
21
-160.308
0
LINE
8
BLACK
6
CONTINUOUS
10
321.188
20
-160.308
11
321.188
21
-160.308
0
LINE
8
BLACK
6
CONTINUOUS
10
321.188
20
-160.308
11
321.187
21
-160.306
0
LINE
8
BLACK
6
CONTINUOUS
10
321.187
20
-160.306
11
321.187
21
-160.304
0
LINE
8
BLACK
6
CONTINUOUS
10
321.187
20
-160.304
11
321.158
21
-160.032
0
LINE
8
BLACK
6
CONTINUOUS
10
321.158
20
-160.032
11
321.158
21
-160.032
0
LINE
8
BLACK
6
CONTINUOUS
10
321.158
20
-160.032
11
321.158
21
-160.031
0
LINE
8
BLACK
6
CONTINUOUS
10
321.158
20
-160.031
11
321.158
21
-160.03
0
LINE
8
BLACK
6
CONTINUOUS
10
321.158
20
-160.03
11
321.158
21
-160.021
0
LINE
8
BLACK
6
CONTINUOUS
10
321.158
20
-160.021
11
321.158
21
-160.021
0
LINE
8
BLACK
6
CONTINUOUS
10
321.158
20
-160.021
11
321.158
21
-158.052
0
LINE
8
BLACK
6
CONTINUOUS
10
321.158
20
-158.052
11
321.158
21
-158.052
0
LINE
8
BLACK
6
CONTINUOUS
10
321.158
20
-158.052
11
321.158
21
-158.043
0
LINE
8
BLACK
6
CONTINUOUS
10
321.158
20
-158.043
11
321.13
21
-157.776
0
LINE
8
BLACK
6
CONTINUOUS
10
321.13
20
-157.776
11
321.051
21
-157.52
0
LINE
8
BLACK
6
CONTINUOUS
10
321.051
20
-157.52
11
320.923
21
-157.284
0
LINE
8
BLACK
6
CONTINUOUS
10
320.923
20
-157.284
11
320.753
21
-157.078
0
LINE
8
BLACK
6
CONTINUOUS
10
320.753
20
-157.078
11
320.545
21
-156.909
0
LINE
8
BLACK
6
CONTINUOUS
10
320.545
20
-156.909
11
320.309
21
-156.783
0
LINE
8
BLACK
6
CONTINUOUS
10
320.309
20
-156.783
11
320.052
21
-156.706
0
LINE
8
BLACK
6
CONTINUOUS
10
320.052
20
-156.706
11
319.785
21
-156.679
0
LINE
8
BLACK
6
CONTINUOUS
10
319.785
20
-156.679
11
308.482
21
-156.679
0
LINE
8
BLACK
6
CONTINUOUS
10
308.482
20
-156.679
11
308.482
21
-156.679
0
LINE
8
BLACK
6
CONTINUOUS
10
308.482
20
-156.679
11
301.695
21
-156.675
0
LINE
8
BLACK
6
CONTINUOUS
10
301.695
20
-156.675
11
301.692
21
-156.675
0
LINE
8
BLACK
6
CONTINUOUS
10
301.692
20
-156.675
11
301.687
21
-156.673
0
LINE
8
BLACK
6
CONTINUOUS
10
301.687
20
-156.673
11
301.683
21
-156.671
0
LINE
8
BLACK
6
CONTINUOUS
10
301.683
20
-156.671
11
301.679
21
-156.668
0
LINE
8
BLACK
6
CONTINUOUS
10
301.679
20
-156.668
11
301.676
21
-156.664
0
LINE
8
BLACK
6
CONTINUOUS
10
301.676
20
-156.664
11
301.675
21
-156.662
0
LINE
8
BLACK
6
CONTINUOUS
10
301.675
20
-156.662
11
301.594
21
-156.521
0
LINE
8
BLACK
6
CONTINUOUS
10
301.594
20
-156.521
11
301.157
21
-155.933
0
LINE
8
BLACK
6
CONTINUOUS
10
301.157
20
-155.933
11
300.616
21
-155.443
0
LINE
8
BLACK
6
CONTINUOUS
10
300.616
20
-155.443
11
299.989
21
-155.067
0
LINE
8
BLACK
6
CONTINUOUS
10
299.989
20
-155.067
11
299.301
21
-154.82
0
LINE
8
BLACK
6
CONTINUOUS
10
299.301
20
-154.82
11
298.58
21
-154.711
0
LINE
8
BLACK
6
CONTINUOUS
10
298.58
20
-154.711
11
283.343
21
-156.361
0
LINE
8
BLACK
6
CONTINUOUS
10
283.343
20
-156.361
11
264.019
21
-164.005
0
LINE
8
BLACK
6
CONTINUOUS
10
264.019
20
-164.005
11
232.867
21
-184.235
0
LINE
8
BLACK
6
CONTINUOUS
10
232.867
20
-184.235
11
232.864
21
-184.237
0
LINE
8
BLACK
6
CONTINUOUS
10
232.864
20
-184.237
11
232.863
21
-184.237
0
LINE
8
BLACK
6
CONTINUOUS
10
232.863
20
-184.237
11
232.698
21
-184.305
0
LINE
8
BLACK
6
CONTINUOUS
10
232.698
20
-184.305
11
232.698
21
-184.305
0
LINE
8
BLACK
6
CONTINUOUS
10
232.698
20
-184.305
11
232.695
21
-184.306
0
LINE
8
BLACK
6
CONTINUOUS
10
232.695
20
-184.306
11
232.693
21
-184.306
0
LINE
8
BLACK
6
CONTINUOUS
10
232.693
20
-184.306
11
232.517
21
-184.341
0
LINE
8
BLACK
6
CONTINUOUS
10
232.517
20
-184.341
11
232.517
21
-184.341
0
LINE
8
BLACK
6
CONTINUOUS
10
232.517
20
-184.341
11
232.514
21
-184.341
0
LINE
8
BLACK
6
CONTINUOUS
10
232.514
20
-184.341
11
232.512
21
-184.342
0
LINE
8
BLACK
6
CONTINUOUS
10
232.512
20
-184.342
11
232.333
21
-184.342
0
LINE
8
BLACK
6
CONTINUOUS
10
232.333
20
-184.342
11
232.332
21
-184.342
0
LINE
8
BLACK
6
CONTINUOUS
10
232.332
20
-184.342
11
232.33
21
-184.341
0
LINE
8
BLACK
6
CONTINUOUS
10
232.33
20
-184.341
11
232.328
21
-184.341
0
LINE
8
BLACK
6
CONTINUOUS
10
232.328
20
-184.341
11
232.152
21
-184.306
0
LINE
8
BLACK
6
CONTINUOUS
10
232.152
20
-184.306
11
232.151
21
-184.306
0
LINE
8
BLACK
6
CONTINUOUS
10
232.151
20
-184.306
11
232.149
21
-184.305
0
LINE
8
BLACK
6
CONTINUOUS
10
232.149
20
-184.305
11
232.147
21
-184.305
0
LINE
8
BLACK
6
CONTINUOUS
10
232.147
20
-184.305
11
231.981
21
-184.236
0
LINE
8
BLACK
6
CONTINUOUS
10
231.981
20
-184.236
11
231.98
21
-184.236
0
LINE
8
BLACK
6
CONTINUOUS
10
231.98
20
-184.236
11
231.978
21
-184.235
0
LINE
8
BLACK
6
CONTINUOUS
10
231.978
20
-184.235
11
231.976
21
-184.234
0
LINE
8
BLACK
6
CONTINUOUS
10
231.976
20
-184.234
11
231.827
21
-184.135
0
LINE
8
BLACK
6
CONTINUOUS
10
231.827
20
-184.135
11
231.827
21
-184.134
0
LINE
8
BLACK
6
CONTINUOUS
10
231.827
20
-184.134
11
231.825
21
-184.133
0
LINE
8
BLACK
6
CONTINUOUS
10
231.825
20
-184.133
11
231.823
21
-184.131
0
LINE
8
BLACK
6
CONTINUOUS
10
231.823
20
-184.131
11
231.696
21
-184.005
0
LINE
8
BLACK
6
CONTINUOUS
10
231.696
20
-184.005
11
231.695
21
-184.005
0
LINE
8
BLACK
6
CONTINUOUS
10
231.695
20
-184.005
11
231.694
21
-184.003
0
LINE
8
BLACK
6
CONTINUOUS
10
231.694
20
-184.003
11
231.693
21
-184.002
0
LINE
8
BLACK
6
CONTINUOUS
10
231.693
20
-184.002
11
231.637
21
-183.926
0
LINE
8
BLACK
6
CONTINUOUS
10
231.637
20
-183.926
11
231.637
21
-183.926
0
LINE
8
BLACK
6
CONTINUOUS
10
231.637
20
-183.926
11
217.021
21
-161.43
0
LINE
8
BLACK
6
CONTINUOUS
10
217.021
20
-161.43
11
217.02
21
-161.426
0
LINE
8
BLACK
6
CONTINUOUS
10
217.02
20
-161.426
11
217.019
21
-161.425
0
LINE
8
BLACK
6
CONTINUOUS
10
217.019
20
-161.425
11
216.951
21
-161.26
0
LINE
8
BLACK
6
CONTINUOUS
10
216.951
20
-161.26
11
216.951
21
-161.26
0
LINE
8
BLACK
6
CONTINUOUS
10
216.951
20
-161.26
11
216.951
21
-161.258
0
LINE
8
BLACK
6
CONTINUOUS
10
216.951
20
-161.258
11
216.95
21
-161.256
0
LINE
8
BLACK
6
CONTINUOUS
10
216.95
20
-161.256
11
216.915
21
-161.08
0
LINE
8
BLACK
6
CONTINUOUS
10
216.915
20
-161.08
11
216.915
21
-161.079
0
LINE
8
BLACK
6
CONTINUOUS
10
216.915
20
-161.079
11
216.915
21
-161.077
0
LINE
8
BLACK
6
CONTINUOUS
10
216.915
20
-161.077
11
216.915
21
-161.075
0
LINE
8
BLACK
6
CONTINUOUS
10
216.915
20
-161.075
11
216.915
21
-160.895
0
LINE
8
BLACK
6
CONTINUOUS
10
216.915
20
-160.895
11
216.915
21
-160.895
0
LINE
8
BLACK
6
CONTINUOUS
10
216.915
20
-160.895
11
216.915
21
-160.892
0
LINE
8
BLACK
6
CONTINUOUS
10
216.915
20
-160.892
11
216.915
21
-160.89
0
LINE
8
BLACK
6
CONTINUOUS
10
216.915
20
-160.89
11
216.95
21
-160.714
0
LINE
8
BLACK
6
CONTINUOUS
10
216.95
20
-160.714
11
216.95
21
-160.714
0
LINE
8
BLACK
6
CONTINUOUS
10
216.95
20
-160.714
11
216.951
21
-160.711
0
LINE
8
BLACK
6
CONTINUOUS
10
216.951
20
-160.711
11
216.952
21
-160.709
0
LINE
8
BLACK
6
CONTINUOUS
10
216.952
20
-160.709
11
217.02
21
-160.543
0
LINE
8
BLACK
6
CONTINUOUS
10
217.02
20
-160.543
11
217.02
21
-160.543
0
LINE
8
BLACK
6
CONTINUOUS
10
217.02
20
-160.543
11
217.021
21
-160.541
0
LINE
8
BLACK
6
CONTINUOUS
10
217.021
20
-160.541
11
217.022
21
-160.539
0
LINE
8
BLACK
6
CONTINUOUS
10
217.022
20
-160.539
11
217.122
21
-160.389
0
LINE
8
BLACK
6
CONTINUOUS
10
217.122
20
-160.389
11
217.122
21
-160.389
0
LINE
8
BLACK
6
CONTINUOUS
10
217.122
20
-160.389
11
217.124
21
-160.387
0
LINE
8
BLACK
6
CONTINUOUS
10
217.124
20
-160.387
11
217.125
21
-160.386
0
LINE
8
BLACK
6
CONTINUOUS
10
217.125
20
-160.386
11
217.252
21
-160.258
0
LINE
8
BLACK
6
CONTINUOUS
10
217.252
20
-160.258
11
217.252
21
-160.258
0
LINE
8
BLACK
6
CONTINUOUS
10
217.252
20
-160.258
11
217.253
21
-160.257
0
LINE
8
BLACK
6
CONTINUOUS
10
217.253
20
-160.257
11
217.254
21
-160.256
0
LINE
8
BLACK
6
CONTINUOUS
10
217.254
20
-160.256
11
217.33
21
-160.2
0
LINE
8
BLACK
6
CONTINUOUS
10
217.33
20
-160.2
11
217.331
21
-160.199
0
LINE
8
BLACK
6
CONTINUOUS
10
217.331
20
-160.199
11
244.469
21
-142.536
0
LINE
8
BLACK
6
CONTINUOUS
10
244.469
20
-142.536
11
244.47
21
-142.536
0
LINE
8
BLACK
6
CONTINUOUS
10
244.47
20
-142.536
11
244.549
21
-142.488
0
LINE
8
BLACK
6
CONTINUOUS
10
244.549
20
-142.488
11
244.689
21
-142.372
0
LINE
8
BLACK
6
CONTINUOUS
10
244.689
20
-142.372
11
244.803
21
-142.232
0
LINE
8
BLACK
6
CONTINUOUS
10
244.803
20
-142.232
11
244.888
21
-142.072
0
LINE
8
BLACK
6
CONTINUOUS
10
244.888
20
-142.072
11
244.94
21
-141.899
0
LINE
8
BLACK
6
CONTINUOUS
10
244.94
20
-141.899
11
244.958
21
-141.718
0
LINE
8
BLACK
6
CONTINUOUS
10
244.958
20
-141.718
11
244.958
21
-65.2133
0
LINE
8
BLACK
6
CONTINUOUS
10
244.958
20
-65.2133
11
244.958
21
-65.2121
0
LINE
8
BLACK
6
CONTINUOUS
10
244.958
20
-65.2121
11
244.958
21
-65.2121
0
LINE
8
BLACK
6
CONTINUOUS
10
244.958
20
-65.2121
11
244.985
21
-64.9407
0
LINE
8
BLACK
6
CONTINUOUS
10
244.985
20
-64.9407
11
244.985
21
-64.9404
0
LINE
8
BLACK
6
CONTINUOUS
10
244.985
20
-64.9404
11
244.985
21
-64.9381
0
LINE
8
BLACK
6
CONTINUOUS
10
244.985
20
-64.9381
11
244.986
21
-64.9359
0
LINE
8
BLACK
6
CONTINUOUS
10
244.986
20
-64.9359
11
245.064
21
-64.6749
0
LINE
8
BLACK
6
CONTINUOUS
10
245.064
20
-64.6749
11
245.065
21
-64.6746
0
LINE
8
BLACK
6
CONTINUOUS
10
245.065
20
-64.6746
11
245.065
21
-64.6725
0
LINE
8
BLACK
6
CONTINUOUS
10
245.065
20
-64.6725
11
245.066
21
-64.6704
0
LINE
8
BLACK
6
CONTINUOUS
10
245.066
20
-64.6704
11
245.194
21
-64.4297
0
LINE
8
BLACK
6
CONTINUOUS
10
245.194
20
-64.4297
11
245.195
21
-64.4294
0
LINE
8
BLACK
6
CONTINUOUS
10
245.195
20
-64.4294
11
245.196
21
-64.4275
0
LINE
8
BLACK
6
CONTINUOUS
10
245.196
20
-64.4275
11
245.197
21
-64.4256
0
LINE
8
BLACK
6
CONTINUOUS
10
245.197
20
-64.4256
11
245.369
21
-64.2143
0
LINE
8
BLACK
6
CONTINUOUS
10
245.369
20
-64.2143
11
245.369
21
-64.2143
0
LINE
8
BLACK
6
CONTINUOUS
10
245.369
20
-64.2143
11
245.369
21
-64.2143
0
LINE
8
BLACK
6
CONTINUOUS
10
245.369
20
-64.2143
11
245.37
21
-64.2141
0
LINE
8
BLACK
6
CONTINUOUS
10
245.37
20
-64.2141
11
245.371
21
-64.2125
0
LINE
8
BLACK
6
CONTINUOUS
10
245.371
20
-64.2125
11
245.373
21
-64.2109
0
LINE
8
BLACK
6
CONTINUOUS
10
245.373
20
-64.2109
11
245.583
21
-64.0371
0
LINE
8
BLACK
6
CONTINUOUS
10
245.583
20
-64.0371
11
245.583
21
-64.0369
0
LINE
8
BLACK
6
CONTINUOUS
10
245.583
20
-64.0369
11
245.585
21
-64.0356
0
LINE
8
BLACK
6
CONTINUOUS
10
245.585
20
-64.0356
11
245.587
21
-64.0343
0
LINE
8
BLACK
6
CONTINUOUS
10
245.587
20
-64.0343
11
245.827
21
-63.9047
0
LINE
8
BLACK
6
CONTINUOUS
10
245.827
20
-63.9047
11
245.827
21
-63.9047
0
LINE
8
BLACK
6
CONTINUOUS
10
245.827
20
-63.9047
11
245.827
21
-63.9047
0
LINE
8
BLACK
6
CONTINUOUS
10
245.827
20
-63.9047
11
245.827
21
-63.9045
0
LINE
8
BLACK
6
CONTINUOUS
10
245.827
20
-63.9045
11
245.829
21
-63.9036
0
LINE
8
BLACK
6
CONTINUOUS
10
245.829
20
-63.9036
11
245.831
21
-63.9028
0
LINE
8
BLACK
6
CONTINUOUS
10
245.831
20
-63.9028
11
246.092
21
-63.8222
0
LINE
8
BLACK
6
CONTINUOUS
10
246.092
20
-63.8222
11
246.092
21
-63.822
0
LINE
8
BLACK
6
CONTINUOUS
10
246.092
20
-63.822
11
246.094
21
-63.8216
0
LINE
8
BLACK
6
CONTINUOUS
10
246.094
20
-63.8216
11
246.096
21
-63.8212
0
LINE
8
BLACK
6
CONTINUOUS
10
246.096
20
-63.8212
11
246.368
21
-63.7927
0
LINE
8
BLACK
6
CONTINUOUS
10
246.368
20
-63.7927
11
246.368
21
-63.7926
0
LINE
8
BLACK
6
CONTINUOUS
10
246.368
20
-63.7926
11
246.369
21
-63.7926
0
LINE
8
BLACK
6
CONTINUOUS
10
246.369
20
-63.7926
11
246.37
21
-63.7925
0
LINE
8
BLACK
6
CONTINUOUS
10
246.37
20
-63.7925
11
246.379
21
-63.7925
0
LINE
8
BLACK
6
CONTINUOUS
10
246.379
20
-63.7925
11
246.379
21
-63.7925
0
LINE
8
BLACK
6
CONTINUOUS
10
246.379
20
-63.7925
11
257.302
21
-63.7925
0
LINE
8
BLACK
6
CONTINUOUS
10
257.302
20
-63.7925
11
257.31
21
-63.7925
0
LINE
8
BLACK
6
CONTINUOUS
10
257.31
20
-63.7925
11
257.578
21
-63.7644
0
LINE
8
BLACK
6
CONTINUOUS
10
257.578
20
-63.7644
11
257.834
21
-63.6852
0
LINE
8
BLACK
6
CONTINUOUS
10
257.834
20
-63.6852
11
258.069
21
-63.5578
0
LINE
8
BLACK
6
CONTINUOUS
10
258.069
20
-63.5578
11
258.275
21
-63.3872
0
LINE
8
BLACK
6
CONTINUOUS
10
258.275
20
-63.3872
11
258.445
21
-63.1797
0
LINE
8
BLACK
6
CONTINUOUS
10
258.445
20
-63.1797
11
258.57
21
-62.9433
0
LINE
8
BLACK
6
CONTINUOUS
10
258.57
20
-62.9433
11
258.648
21
-62.687
0
LINE
8
BLACK
6
CONTINUOUS
10
258.648
20
-62.687
11
258.674
21
-62.4193
0
LINE
8
BLACK
6
CONTINUOUS
10
258.674
20
-62.4193
11
258.674
21
-59.4348
0
LINE
8
BLACK
6
CONTINUOUS
10
258.674
20
-59.4348
11
258.674
21
-59.4336
0
LINE
8
BLACK
6
CONTINUOUS
10
258.674
20
-59.4336
11
258.674
21
-59.4336
0
LINE
8
BLACK
6
CONTINUOUS
10
258.674
20
-59.4336
11
258.685
21
-59.3226
0
LINE
8
BLACK
6
CONTINUOUS
10
258.685
20
-59.3226
11
258.685
21
-59.3222
0
LINE
8
BLACK
6
CONTINUOUS
10
258.685
20
-59.3222
11
258.686
21
-59.32
0
LINE
8
BLACK
6
CONTINUOUS
10
258.686
20
-59.32
11
258.686
21
-59.3178
0
LINE
8
BLACK
6
CONTINUOUS
10
258.686
20
-59.3178
11
258.718
21
-59.211
0
LINE
8
BLACK
6
CONTINUOUS
10
258.718
20
-59.211
11
258.718
21
-59.2107
0
LINE
8
BLACK
6
CONTINUOUS
10
258.718
20
-59.2107
11
258.719
21
-59.2085
0
LINE
8
BLACK
6
CONTINUOUS
10
258.719
20
-59.2085
11
258.72
21
-59.2065
0
LINE
8
BLACK
6
CONTINUOUS
10
258.72
20
-59.2065
11
258.772
21
-59.108
0
LINE
8
BLACK
6
CONTINUOUS
10
258.772
20
-59.108
11
258.773
21
-59.1077
0
LINE
8
BLACK
6
CONTINUOUS
10
258.773
20
-59.1077
11
258.774
21
-59.1058
0
LINE
8
BLACK
6
CONTINUOUS
10
258.774
20
-59.1058
11
258.775
21
-59.1039
0
LINE
8
BLACK
6
CONTINUOUS
10
258.775
20
-59.1039
11
258.846
21
-59.0175
0
LINE
8
BLACK
6
CONTINUOUS
10
258.846
20
-59.0175
11
258.846
21
-59.0175
0
LINE
8
BLACK
6
CONTINUOUS
10
258.846
20
-59.0175
11
258.846
21
-59.0175
0
LINE
8
BLACK
6
CONTINUOUS
10
258.846
20
-59.0175
11
258.846
21
-59.0172
0
LINE
8
BLACK
6
CONTINUOUS
10
258.846
20
-59.0172
11
258.847
21
-59.0157
0
LINE
8
BLACK
6
CONTINUOUS
10
258.847
20
-59.0157
11
258.849
21
-59.014
0
LINE
8
BLACK
6
CONTINUOUS
10
258.849
20
-59.014
11
258.935
21
-58.9429
0
LINE
8
BLACK
6
CONTINUOUS
10
258.935
20
-58.9429
11
258.935
21
-58.9429
0
LINE
8
BLACK
6
CONTINUOUS
10
258.935
20
-58.9429
11
258.935
21
-58.9429
0
LINE
8
BLACK
6
CONTINUOUS
10
258.935
20
-58.9429
11
258.935
21
-58.9427
0
LINE
8
BLACK
6
CONTINUOUS
10
258.935
20
-58.9427
11
258.937
21
-58.9415
0
LINE
8
BLACK
6
CONTINUOUS
10
258.937
20
-58.9415
11
258.939
21
-58.9402
0
LINE
8
BLACK
6
CONTINUOUS
10
258.939
20
-58.9402
11
259.037
21
-58.8872
0
LINE
8
BLACK
6
CONTINUOUS
10
259.037
20
-58.8872
11
259.037
21
-58.8872
0
LINE
8
BLACK
6
CONTINUOUS
10
259.037
20
-58.8872
11
259.037
21
-58.8872
0
LINE
8
BLACK
6
CONTINUOUS
10
259.037
20
-58.8872
11
259.037
21
-58.887
0
LINE
8
BLACK
6
CONTINUOUS
10
259.037
20
-58.887
11
259.04
21
-58.8861
0
LINE
8
BLACK
6
CONTINUOUS
10
259.04
20
-58.8861
11
259.042
21
-58.8853
0
LINE
8
BLACK
6
CONTINUOUS
10
259.042
20
-58.8853
11
259.148
21
-58.8523
0
LINE
8
BLACK
6
CONTINUOUS
10
259.148
20
-58.8523
11
259.149
21
-58.8522
0
LINE
8
BLACK
6
CONTINUOUS
10
259.149
20
-58.8522
11
259.151
21
-58.8518
0
LINE
8
BLACK
6
CONTINUOUS
10
259.151
20
-58.8518
11
259.153
21
-58.8513
0
LINE
8
BLACK
6
CONTINUOUS
10
259.153
20
-58.8513
11
259.264
21
-58.8397
0
LINE
8
BLACK
6
CONTINUOUS
10
259.264
20
-58.8397
11
259.264
21
-58.8396
0
LINE
8
BLACK
6
CONTINUOUS
10
259.264
20
-58.8396
11
259.265
21
-58.8396
0
LINE
8
BLACK
6
CONTINUOUS
10
259.265
20
-58.8396
11
259.266
21
-58.8395
0
LINE
8
BLACK
6
CONTINUOUS
10
259.266
20
-58.8395
11
259.269
21
-58.8395
0
LINE
8
BLACK
6
CONTINUOUS
10
259.269
20
-58.8395
11
259.269
21
-58.8395
0
LINE
8
BLACK
6
CONTINUOUS
10
259.269
20
-58.8395
11
268.797
21
-58.8395
0
LINE
8
BLACK
6
CONTINUOUS
10
268.797
20
-58.8395
11
268.798
21
-58.8396
0
LINE
8
BLACK
6
CONTINUOUS
10
268.798
20
-58.8396
11
268.798
21
-58.8396
0
LINE
8
BLACK
6
CONTINUOUS
10
268.798
20
-58.8396
11
268.909
21
-58.8505
0
LINE
8
BLACK
6
CONTINUOUS
10
268.909
20
-58.8505
11
268.909
21
-58.8505
0
LINE
8
BLACK
6
CONTINUOUS
10
268.909
20
-58.8505
11
268.912
21
-58.851
0
LINE
8
BLACK
6
CONTINUOUS
10
268.912
20
-58.851
11
268.914
21
-58.8515
0
LINE
8
BLACK
6
CONTINUOUS
10
268.914
20
-58.8515
11
269.021
21
-58.8837
0
LINE
8
BLACK
6
CONTINUOUS
10
269.021
20
-58.8837
11
269.021
21
-58.8838
0
LINE
8
BLACK
6
CONTINUOUS
10
269.021
20
-58.8838
11
269.023
21
-58.8847
0
LINE
8
BLACK
6
CONTINUOUS
10
269.023
20
-58.8847
11
269.025
21
-58.8855
0
LINE
8
BLACK
6
CONTINUOUS
10
269.025
20
-58.8855
11
269.123
21
-58.9379
0
LINE
8
BLACK
6
CONTINUOUS
10
269.123
20
-58.9379
11
269.124
21
-58.9381
0
LINE
8
BLACK
6
CONTINUOUS
10
269.124
20
-58.9381
11
269.126
21
-58.9394
0
LINE
8
BLACK
6
CONTINUOUS
10
269.126
20
-58.9394
11
269.128
21
-58.9406
0
LINE
8
BLACK
6
CONTINUOUS
10
269.128
20
-58.9406
11
269.214
21
-59.0111
0
LINE
8
BLACK
6
CONTINUOUS
10
269.214
20
-59.0111
11
269.214
21
-59.0111
0
LINE
8
BLACK
6
CONTINUOUS
10
269.214
20
-59.0111
11
269.214
21
-59.0111
0
LINE
8
BLACK
6
CONTINUOUS
10
269.214
20
-59.0111
11
269.214
21
-59.0113
0
LINE
8
BLACK
6
CONTINUOUS
10
269.214
20
-59.0113
11
269.216
21
-59.0129
0
LINE
8
BLACK
6
CONTINUOUS
10
269.216
20
-59.0129
11
269.217
21
-59.0145
0
LINE
8
BLACK
6
CONTINUOUS
10
269.217
20
-59.0145
11
269.289
21
-59.1005
0
LINE
8
BLACK
6
CONTINUOUS
10
269.289
20
-59.1005
11
269.289
21
-59.1005
0
LINE
8
BLACK
6
CONTINUOUS
10
269.289
20
-59.1005
11
269.289
21
-59.1005
0
LINE
8
BLACK
6
CONTINUOUS
10
269.289
20
-59.1005
11
269.289
21
-59.1008
0
LINE
8
BLACK
6
CONTINUOUS
10
269.289
20
-59.1008
11
269.29
21
-59.1027
0
LINE
8
BLACK
6
CONTINUOUS
10
269.29
20
-59.1027
11
269.291
21
-59.1045
0
LINE
8
BLACK
6
CONTINUOUS
10
269.291
20
-59.1045
11
269.344
21
-59.2026
0
LINE
8
BLACK
6
CONTINUOUS
10
269.344
20
-59.2026
11
269.344
21
-59.2026
0
LINE
8
BLACK
6
CONTINUOUS
10
269.344
20
-59.2026
11
269.344
21
-59.2026
0
LINE
8
BLACK
6
CONTINUOUS
10
269.344
20
-59.2026
11
269.345
21
-59.203
0
LINE
8
BLACK
6
CONTINUOUS
10
269.345
20
-59.203
11
269.345
21
-59.2051
0
LINE
8
BLACK
6
CONTINUOUS
10
269.345
20
-59.2051
11
269.346
21
-59.2071
0
LINE
8
BLACK
6
CONTINUOUS
10
269.346
20
-59.2071
11
269.379
21
-59.3137
0
LINE
8
BLACK
6
CONTINUOUS
10
269.379
20
-59.3137
11
269.379
21
-59.314
0
LINE
8
BLACK
6
CONTINUOUS
10
269.379
20
-59.314
11
269.38
21
-59.3163
0
LINE
8
BLACK
6
CONTINUOUS
10
269.38
20
-59.3163
11
269.38
21
-59.3185
0
LINE
8
BLACK
6
CONTINUOUS
10
269.38
20
-59.3185
11
269.392
21
-59.4294
0
LINE
8
BLACK
6
CONTINUOUS
10
269.392
20
-59.4294
11
269.392
21
-59.4297
0
LINE
8
BLACK
6
CONTINUOUS
10
269.392
20
-59.4297
11
269.392
21
-59.4308
0
LINE
8
BLACK
6
CONTINUOUS
10
269.392
20
-59.4308
11
269.392
21
-59.4319
0
LINE
8
BLACK
6
CONTINUOUS
10
269.392
20
-59.4319
11
269.392
21
-59.4347
0
LINE
8
BLACK
6
CONTINUOUS
10
269.392
20
-59.4347
11
269.392
21
-59.4348
0
LINE
8
BLACK
6
CONTINUOUS
10
269.392
20
-59.4348
11
269.392
21
-60.8329
0
LINE
8
BLACK
6
CONTINUOUS
10
269.392
20
-60.8329
11
269.392
21
-60.8356
0
LINE
8
BLACK
6
CONTINUOUS
10
269.392
20
-60.8356
11
269.403
21
-60.9429
0
LINE
8
BLACK
6
CONTINUOUS
10
269.403
20
-60.9429
11
269.435
21
-61.0447
0
LINE
8
BLACK
6
CONTINUOUS
10
269.435
20
-61.0447
11
269.486
21
-61.1385
0
LINE
8
BLACK
6
CONTINUOUS
10
269.486
20
-61.1385
11
269.553
21
-61.2207
0
LINE
8
BLACK
6
CONTINUOUS
10
269.553
20
-61.2207
11
269.636
21
-61.2881
0
LINE
8
BLACK
6
CONTINUOUS
10
269.636
20
-61.2881
11
269.73
21
-61.3382
0
LINE
8
BLACK
6
CONTINUOUS
10
269.73
20
-61.3382
11
269.832
21
-61.369
0
LINE
8
BLACK
6
CONTINUOUS
10
269.832
20
-61.369
11
269.94
21
-61.3795
0
LINE
8
BLACK
6
CONTINUOUS
10
269.94
20
-61.3795
11
281.686
21
-61.3795
0
LINE
8
BLACK
6
CONTINUOUS
10
281.686
20
-61.3795
11
281.694
21
-61.3795
0
LINE
8
BLACK
6
CONTINUOUS
10
322.578
20
-66.1919
11
322.578
21
-66.1919
0
LINE
8
BLACK
6
CONTINUOUS
10
322.578
20
-66.1919
11
322.306
21
-66.1653
0
LINE
8
BLACK
6
CONTINUOUS
10
322.306
20
-66.1653
11
322.306
21
-66.1652
0
LINE
8
BLACK
6
CONTINUOUS
10
322.306
20
-66.1652
11
322.304
21
-66.1648
0
LINE
8
BLACK
6
CONTINUOUS
10
322.304
20
-66.1648
11
322.301
21
-66.1643
0
LINE
8
BLACK
6
CONTINUOUS
10
322.301
20
-66.1643
11
322.04
21
-66.0855
0
LINE
8
BLACK
6
CONTINUOUS
10
322.04
20
-66.0855
11
322.04
21
-66.0854
0
LINE
8
BLACK
6
CONTINUOUS
10
322.04
20
-66.0854
11
322.038
21
-66.0845
0
LINE
8
BLACK
6
CONTINUOUS
10
322.038
20
-66.0845
11
322.036
21
-66.0837
0
LINE
8
BLACK
6
CONTINUOUS
10
322.036
20
-66.0837
11
321.795
21
-65.9557
0
LINE
8
BLACK
6
CONTINUOUS
10
321.795
20
-65.9557
11
321.795
21
-65.9555
0
LINE
8
BLACK
6
CONTINUOUS
10
321.795
20
-65.9555
11
321.793
21
-65.9542
0
LINE
8
BLACK
6
CONTINUOUS
10
321.793
20
-65.9542
11
321.791
21
-65.953
0
LINE
8
BLACK
6
CONTINUOUS
10
321.791
20
-65.953
11
321.58
21
-65.7806
0
LINE
8
BLACK
6
CONTINUOUS
10
321.58
20
-65.7806
11
321.58
21
-65.7804
0
LINE
8
BLACK
6
CONTINUOUS
10
321.58
20
-65.7804
11
321.578
21
-65.7788
0
LINE
8
BLACK
6
CONTINUOUS
10
321.578
20
-65.7788
11
321.576
21
-65.7772
0
LINE
8
BLACK
6
CONTINUOUS
10
321.576
20
-65.7772
11
321.403
21
-65.5671
0
LINE
8
BLACK
6
CONTINUOUS
10
321.403
20
-65.5671
11
321.402
21
-65.5669
0
LINE
8
BLACK
6
CONTINUOUS
10
321.402
20
-65.5669
11
321.401
21
-65.565
0
LINE
8
BLACK
6
CONTINUOUS
10
321.401
20
-65.565
11
321.4
21
-65.5631
0
LINE
8
BLACK
6
CONTINUOUS
10
321.4
20
-65.5631
11
321.27
21
-65.3233
0
LINE
8
BLACK
6
CONTINUOUS
10
321.27
20
-65.3233
11
321.27
21
-65.3229
0
LINE
8
BLACK
6
CONTINUOUS
10
321.27
20
-65.3229
11
321.269
21
-65.3208
0
LINE
8
BLACK
6
CONTINUOUS
10
321.269
20
-65.3208
11
321.268
21
-65.3188
0
LINE
8
BLACK
6
CONTINUOUS
10
321.268
20
-65.3188
11
321.188
21
-65.0583
0
LINE
8
BLACK
6
CONTINUOUS
10
321.188
20
-65.0583
11
321.188
21
-65.058
0
LINE
8
BLACK
6
CONTINUOUS
10
321.188
20
-65.058
11
321.187
21
-65.0557
0
LINE
8
BLACK
6
CONTINUOUS
10
321.187
20
-65.0557
11
321.187
21
-65.0535
0
LINE
8
BLACK
6
CONTINUOUS
10
321.187
20
-65.0535
11
321.158
21
-64.7824
0
LINE
8
BLACK
6
CONTINUOUS
10
321.158
20
-64.7824
11
321.158
21
-64.782
0
LINE
8
BLACK
6
CONTINUOUS
10
321.158
20
-64.782
11
321.158
21
-64.7809
0
LINE
8
BLACK
6
CONTINUOUS
10
321.158
20
-64.7809
11
321.158
21
-64.7798
0
LINE
8
BLACK
6
CONTINUOUS
10
321.158
20
-64.7798
11
321.158
21
-64.7712
0
LINE
8
BLACK
6
CONTINUOUS
10
321.158
20
-64.7712
11
321.158
21
-64.7712
0
LINE
8
BLACK
6
CONTINUOUS
10
321.158
20
-64.7712
11
321.158
21
-64.7704
0
LINE
8
BLACK
6
CONTINUOUS
10
321.158
20
-64.7704
11
321.158
21
-64.7701
0
LINE
8
BLACK
6
CONTINUOUS
10
321.158
20
-64.7701
11
321.158
21
-64.7697
0
LINE
8
BLACK
6
CONTINUOUS
10
321.158
20
-64.7697
11
321.158
21
-62.8016
0
LINE
8
BLACK
6
CONTINUOUS
10
321.158
20
-62.8016
11
321.158
21
-62.7931
0
LINE
8
BLACK
6
CONTINUOUS
10
321.158
20
-62.7931
11
321.13
21
-62.5256
0
LINE
8
BLACK
6
CONTINUOUS
10
321.13
20
-62.5256
11
321.051
21
-62.2699
0
LINE
8
BLACK
6
CONTINUOUS
10
321.051
20
-62.2699
11
320.923
21
-62.0344
0
LINE
8
BLACK
6
CONTINUOUS
10
320.923
20
-62.0344
11
320.753
21
-61.8281
0
LINE
8
BLACK
6
CONTINUOUS
10
320.753
20
-61.8281
11
320.545
21
-61.6588
0
LINE
8
BLACK
6
CONTINUOUS
10
320.545
20
-61.6588
11
320.309
21
-61.5331
0
LINE
8
BLACK
6
CONTINUOUS
10
320.309
20
-61.5331
11
320.052
21
-61.4557
0
LINE
8
BLACK
6
CONTINUOUS
10
320.052
20
-61.4557
11
319.785
21
-61.4295
0
LINE
8
BLACK
6
CONTINUOUS
10
319.785
20
-61.4295
11
303.529
21
-61.4295
0
LINE
8
BLACK
6
CONTINUOUS
10
303.529
20
-61.4295
11
303.528
21
-61.4294
0
LINE
8
BLACK
6
CONTINUOUS
10
303.528
20
-61.4294
11
303.528
21
-61.4294
0
LINE
8
BLACK
6
CONTINUOUS
10
303.528
20
-61.4294
11
303.256
21
-61.4028
0
LINE
8
BLACK
6
CONTINUOUS
10
303.256
20
-61.4028
11
303.256
21
-61.4027
0
LINE
8
BLACK
6
CONTINUOUS
10
303.256
20
-61.4027
11
303.254
21
-61.4023
0
LINE
8
BLACK
6
CONTINUOUS
10
303.254
20
-61.4023
11
303.251
21
-61.4018
0
LINE
8
BLACK
6
CONTINUOUS
10
303.251
20
-61.4018
11
302.99
21
-61.323
0
LINE
8
BLACK
6
CONTINUOUS
10
302.99
20
-61.323
11
302.99
21
-61.3229
0
LINE
8
BLACK
6
CONTINUOUS
10
302.99
20
-61.3229
11
302.988
21
-61.322
0
LINE
8
BLACK
6
CONTINUOUS
10
302.988
20
-61.322
11
302.986
21
-61.3212
0
LINE
8
BLACK
6
CONTINUOUS
10
302.986
20
-61.3212
11
302.745
21
-61.1932
0
LINE
8
BLACK
6
CONTINUOUS
10
302.745
20
-61.1932
11
302.745
21
-61.193
0
LINE
8
BLACK
6
CONTINUOUS
10
302.745
20
-61.193
11
302.743
21
-61.1917
0
LINE
8
BLACK
6
CONTINUOUS
10
302.743
20
-61.1917
11
302.741
21
-61.1905
0
LINE
8
BLACK
6
CONTINUOUS
10
302.741
20
-61.1905
11
302.53
21
-61.0181
0
LINE
8
BLACK
6
CONTINUOUS
10
302.53
20
-61.0181
11
302.53
21
-61.0179
0
LINE
8
BLACK
6
CONTINUOUS
10
302.53
20
-61.0179
11
302.528
21
-61.0163
0
LINE
8
BLACK
6
CONTINUOUS
10
302.528
20
-61.0163
11
302.526
21
-61.0147
0
LINE
8
BLACK
6
CONTINUOUS
10
302.526
20
-61.0147
11
302.353
21
-60.8046
0
LINE
8
BLACK
6
CONTINUOUS
10
302.353
20
-60.8046
11
302.352
21
-60.8044
0
LINE
8
BLACK
6
CONTINUOUS
10
302.352
20
-60.8044
11
302.351
21
-60.8025
0
LINE
8
BLACK
6
CONTINUOUS
10
302.351
20
-60.8025
11
302.35
21
-60.8006
0
LINE
8
BLACK
6
CONTINUOUS
10
302.35
20
-60.8006
11
302.22
21
-60.5607
0
LINE
8
BLACK
6
CONTINUOUS
10
302.22
20
-60.5607
11
302.22
21
-60.5604
0
LINE
8
BLACK
6
CONTINUOUS
10
302.22
20
-60.5604
11
302.219
21
-60.5583
0
LINE
8
BLACK
6
CONTINUOUS
10
302.219
20
-60.5583
11
302.218
21
-60.5563
0
LINE
8
BLACK
6
CONTINUOUS
10
302.218
20
-60.5563
11
302.138
21
-60.2958
0
LINE
8
BLACK
6
CONTINUOUS
10
302.138
20
-60.2958
11
302.138
21
-60.2955
0
LINE
8
BLACK
6
CONTINUOUS
10
302.138
20
-60.2955
11
302.137
21
-60.2932
0
LINE
8
BLACK
6
CONTINUOUS
10
302.137
20
-60.2932
11
302.137
21
-60.291
0
LINE
8
BLACK
6
CONTINUOUS
10
302.137
20
-60.291
11
302.108
21
-60.0199
0
LINE
8
BLACK
6
CONTINUOUS
10
302.108
20
-60.0199
11
302.108
21
-60.0195
0
LINE
8
BLACK
6
CONTINUOUS
10
302.108
20
-60.0195
11
302.108
21
-60.0184
0
LINE
8
BLACK
6
CONTINUOUS
10
302.108
20
-60.0184
11
302.108
21
-60.0173
0
LINE
8
BLACK
6
CONTINUOUS
10
302.108
20
-60.0173
11
302.108
21
-60.0087
0
LINE
8
BLACK
6
CONTINUOUS
10
302.108
20
-60.0087
11
302.108
21
-60.0087
0
LINE
8
BLACK
6
CONTINUOUS
10
302.108
20
-60.0087
11
302.108
21
-60.0079
0
LINE
8
BLACK
6
CONTINUOUS
10
302.108
20
-60.0079
11
302.108
21
-60.0076
0
LINE
8
BLACK
6
CONTINUOUS
10
302.108
20
-60.0076
11
302.108
21
-60.0072
0
LINE
8
BLACK
6
CONTINUOUS
10
302.108
20
-60.0072
11
302.108
21
-59.6266
0
LINE
8
BLACK
6
CONTINUOUS
10
302.108
20
-59.6266
11
302.108
21
-59.6239
0
LINE
8
BLACK
6
CONTINUOUS
10
302.108
20
-59.6239
11
302.097
21
-59.5166
0
LINE
8
BLACK
6
CONTINUOUS
10
302.097
20
-59.5166
11
302.065
21
-59.4148
0
LINE
8
BLACK
6
CONTINUOUS
10
302.065
20
-59.4148
11
302.014
21
-59.321
0
LINE
8
BLACK
6
CONTINUOUS
10
302.014
20
-59.321
11
301.946
21
-59.2388
0
LINE
8
BLACK
6
CONTINUOUS
10
301.946
20
-59.2388
11
301.864
21
-59.1714
0
LINE
8
BLACK
6
CONTINUOUS
10
301.864
20
-59.1714
11
301.77
21
-59.1213
0
LINE
8
BLACK
6
CONTINUOUS
10
301.77
20
-59.1213
11
301.668
21
-59.0905
0
LINE
8
BLACK
6
CONTINUOUS
10
301.668
20
-59.0905
11
301.56
21
-59.08
0
LINE
8
BLACK
6
CONTINUOUS
10
301.56
20
-59.08
11
283.655
21
-59.08
0
LINE
8
BLACK
6
CONTINUOUS
10
283.655
20
-59.08
11
283.652
21
-59.08
0
LINE
8
BLACK
6
CONTINUOUS
10
283.652
20
-59.08
11
283.545
21
-59.0913
0
LINE
8
BLACK
6
CONTINUOUS
10
283.545
20
-59.0913
11
283.443
21
-59.1228
0
LINE
8
BLACK
6
CONTINUOUS
10
283.443
20
-59.1228
11
283.349
21
-59.1735
0
LINE
8
BLACK
6
CONTINUOUS
10
283.349
20
-59.1735
11
283.267
21
-59.2415
0
LINE
8
BLACK
6
CONTINUOUS
10
283.267
20
-59.2415
11
283.199
21
-59.3241
0
LINE
8
BLACK
6
CONTINUOUS
10
283.199
20
-59.3241
11
283.149
21
-59.4183
0
LINE
8
BLACK
6
CONTINUOUS
10
283.149
20
-59.4183
11
283.119
21
-59.5204
0
LINE
8
BLACK
6
CONTINUOUS
10
283.119
20
-59.5204
11
283.108
21
-59.6277
0
LINE
8
BLACK
6
CONTINUOUS
10
283.108
20
-59.6277
11
283.108
21
-60.0087
0
LINE
8
BLACK
6
CONTINUOUS
10
283.108
20
-60.0087
11
283.108
21
-60.0099
0
LINE
8
BLACK
6
CONTINUOUS
10
283.108
20
-60.0099
11
283.108
21
-60.0099
0
LINE
8
BLACK
6
CONTINUOUS
10
283.108
20
-60.0099
11
283.081
21
-60.2813
0
LINE
8
BLACK
6
CONTINUOUS
10
283.081
20
-60.2813
11
283.081
21
-60.2816
0
LINE
8
BLACK
6
CONTINUOUS
10
283.081
20
-60.2816
11
283.081
21
-60.2839
0
LINE
8
BLACK
6
CONTINUOUS
10
283.081
20
-60.2839
11
283.08
21
-60.2861
0
LINE
8
BLACK
6
CONTINUOUS
10
283.08
20
-60.2861
11
283.002
21
-60.5471
0
LINE
8
BLACK
6
CONTINUOUS
10
283.002
20
-60.5471
11
283.001
21
-60.5474
0
LINE
8
BLACK
6
CONTINUOUS
10
283.001
20
-60.5474
11
283.001
21
-60.5495
0
LINE
8
BLACK
6
CONTINUOUS
10
283.001
20
-60.5495
11
283
21
-60.5516
0
LINE
8
BLACK
6
CONTINUOUS
10
283
20
-60.5516
11
282.872
21
-60.7923
0
LINE
8
BLACK
6
CONTINUOUS
10
282.872
20
-60.7923
11
282.871
21
-60.7926
0
LINE
8
BLACK
6
CONTINUOUS
10
282.871
20
-60.7926
11
282.87
21
-60.7945
0
LINE
8
BLACK
6
CONTINUOUS
10
282.87
20
-60.7945
11
282.869
21
-60.7964
0
LINE
8
BLACK
6
CONTINUOUS
10
282.869
20
-60.7964
11
282.697
21
-61.0077
0
LINE
8
BLACK
6
CONTINUOUS
10
282.697
20
-61.0077
11
282.696
21
-61.0079
0
LINE
8
BLACK
6
CONTINUOUS
10
282.696
20
-61.0079
11
282.695
21
-61.0096
0
LINE
8
BLACK
6
CONTINUOUS
10
282.695
20
-61.0096
11
282.693
21
-61.0111
0
LINE
8
BLACK
6
CONTINUOUS
10
282.693
20
-61.0111
11
282.483
21
-61.1849
0
LINE
8
BLACK
6
CONTINUOUS
10
282.483
20
-61.1849
11
282.483
21
-61.1851
0
LINE
8
BLACK
6
CONTINUOUS
10
282.483
20
-61.1851
11
282.481
21
-61.1864
0
LINE
8
BLACK
6
CONTINUOUS
10
282.481
20
-61.1864
11
282.479
21
-61.1877
0
LINE
8
BLACK
6
CONTINUOUS
10
282.479
20
-61.1877
11
282.239
21
-61.3173
0
LINE
8
BLACK
6
CONTINUOUS
10
282.239
20
-61.3173
11
282.239
21
-61.3175
0
LINE
8
BLACK
6
CONTINUOUS
10
282.239
20
-61.3175
11
282.237
21
-61.3184
0
LINE
8
BLACK
6
CONTINUOUS
10
282.237
20
-61.3184
11
282.235
21
-61.3192
0
LINE
8
BLACK
6
CONTINUOUS
10
282.235
20
-61.3192
11
281.974
21
-61.3998
0
LINE
8
BLACK
6
CONTINUOUS
10
281.974
20
-61.3998
11
281.974
21
-61.3999
0
LINE
8
BLACK
6
CONTINUOUS
10
281.974
20
-61.3999
11
281.972
21
-61.4004
0
LINE
8
BLACK
6
CONTINUOUS
10
281.972
20
-61.4004
11
281.97
21
-61.4008
0
LINE
8
BLACK
6
CONTINUOUS
10
281.97
20
-61.4008
11
281.698
21
-61.4293
0
LINE
8
BLACK
6
CONTINUOUS
10
281.698
20
-61.4293
11
281.698
21
-61.4294
0
LINE
8
BLACK
6
CONTINUOUS
10
281.698
20
-61.4294
11
281.697
21
-61.4294
0
LINE
8
BLACK
6
CONTINUOUS
10
281.697
20
-61.4294
11
281.696
21
-61.4295
0
LINE
8
BLACK
6
CONTINUOUS
10
281.696
20
-61.4295
11
281.687
21
-61.4295
0
LINE
8
BLACK
6
CONTINUOUS
10
281.687
20
-61.4295
11
281.687
21
-61.4295
0
LINE
8
BLACK
6
CONTINUOUS
10
281.687
20
-61.4295
11
269.937
21
-61.4295
0
LINE
8
BLACK
6
CONTINUOUS
10
269.937
20
-61.4295
11
269.936
21
-61.4294
0
LINE
8
BLACK
6
CONTINUOUS
10
269.936
20
-61.4294
11
269.936
21
-61.4294
0
LINE
8
BLACK
6
CONTINUOUS
10
269.936
20
-61.4294
11
269.825
21
-61.4185
0
LINE
8
BLACK
6
CONTINUOUS
10
269.825
20
-61.4185
11
269.825
21
-61.4185
0
LINE
8
BLACK
6
CONTINUOUS
10
269.825
20
-61.4185
11
269.822
21
-61.418
0
LINE
8
BLACK
6
CONTINUOUS
10
269.822
20
-61.418
11
269.82
21
-61.4175
0
LINE
8
BLACK
6
CONTINUOUS
10
269.82
20
-61.4175
11
269.713
21
-61.3853
0
LINE
8
BLACK
6
CONTINUOUS
10
269.713
20
-61.3853
11
269.713
21
-61.3852
0
LINE
8
BLACK
6
CONTINUOUS
10
269.713
20
-61.3852
11
269.711
21
-61.3843
0
LINE
8
BLACK
6
CONTINUOUS
10
269.711
20
-61.3843
11
269.709
21
-61.3835
0
LINE
8
BLACK
6
CONTINUOUS
10
269.709
20
-61.3835
11
269.611
21
-61.3311
0
LINE
8
BLACK
6
CONTINUOUS
10
269.611
20
-61.3311
11
269.61
21
-61.3309
0
LINE
8
BLACK
6
CONTINUOUS
10
269.61
20
-61.3309
11
269.608
21
-61.3296
0
LINE
8
BLACK
6
CONTINUOUS
10
269.608
20
-61.3296
11
269.606
21
-61.3284
0
LINE
8
BLACK
6
CONTINUOUS
10
269.606
20
-61.3284
11
269.52
21
-61.2579
0
LINE
8
BLACK
6
CONTINUOUS
10
269.52
20
-61.2579
11
269.52
21
-61.2577
0
LINE
8
BLACK
6
CONTINUOUS
10
269.52
20
-61.2577
11
269.518
21
-61.256
0
LINE
8
BLACK
6
CONTINUOUS
10
269.518
20
-61.256
11
269.517
21
-61.2545
0
LINE
8
BLACK
6
CONTINUOUS
10
269.517
20
-61.2545
11
269.445
21
-61.1685
0
LINE
8
BLACK
6
CONTINUOUS
10
269.445
20
-61.1685
11
269.445
21
-61.1682
0
LINE
8
BLACK
6
CONTINUOUS
10
269.445
20
-61.1682
11
269.444
21
-61.1663
0
LINE
8
BLACK
6
CONTINUOUS
10
269.444
20
-61.1663
11
269.443
21
-61.1645
0
LINE
8
BLACK
6
CONTINUOUS
10
269.443
20
-61.1645
11
269.39
21
-61.0664
0
LINE
8
BLACK
6
CONTINUOUS
10
269.39
20
-61.0664
11
269.389
21
-61.066
0
LINE
8
BLACK
6
CONTINUOUS
10
269.389
20
-61.066
11
269.389
21
-61.0639
0
LINE
8
BLACK
6
CONTINUOUS
10
269.389
20
-61.0639
11
269.388
21
-61.0619
0
LINE
8
BLACK
6
CONTINUOUS
10
269.388
20
-61.0619
11
269.355
21
-60.9553
0
LINE
8
BLACK
6
CONTINUOUS
10
269.355
20
-60.9553
11
269.355
21
-60.955
0
LINE
8
BLACK
6
CONTINUOUS
10
269.355
20
-60.955
11
269.354
21
-60.9527
0
LINE
8
BLACK
6
CONTINUOUS
10
269.354
20
-60.9527
11
269.354
21
-60.9505
0
LINE
8
BLACK
6
CONTINUOUS
10
269.354
20
-60.9505
11
269.342
21
-60.8396
0
LINE
8
BLACK
6
CONTINUOUS
10
269.342
20
-60.8396
11
269.342
21
-60.8393
0
LINE
8
BLACK
6
CONTINUOUS
10
269.342
20
-60.8393
11
269.342
21
-60.8382
0
LINE
8
BLACK
6
CONTINUOUS
10
269.342
20
-60.8382
11
269.342
21
-60.8371
0
LINE
8
BLACK
6
CONTINUOUS
10
269.342
20
-60.8371
11
269.342
21
-60.8343
0
LINE
8
BLACK
6
CONTINUOUS
10
269.342
20
-60.8343
11
269.342
21
-60.8342
0
LINE
8
BLACK
6
CONTINUOUS
10
269.342
20
-60.8342
11
269.342
21
-59.4361
0
LINE
8
BLACK
6
CONTINUOUS
10
269.342
20
-59.4361
11
269.342
21
-59.4361
0
LINE
8
BLACK
6
CONTINUOUS
10
269.342
20
-59.4361
11
269.342
21
-59.4334
0
LINE
8
BLACK
6
CONTINUOUS
10
269.342
20
-59.4334
11
269.331
21
-59.3261
0
LINE
8
BLACK
6
CONTINUOUS
10
269.331
20
-59.3261
11
269.299
21
-59.2243
0
LINE
8
BLACK
6
CONTINUOUS
10
269.299
20
-59.2243
11
269.248
21
-59.1305
0
LINE
8
BLACK
6
CONTINUOUS
10
269.248
20
-59.1305
11
269.18
21
-59.0483
0
LINE
8
BLACK
6
CONTINUOUS
10
269.18
20
-59.0483
11
269.098
21
-58.9809
0
LINE
8
BLACK
6
CONTINUOUS
10
269.098
20
-58.9809
11
269.004
21
-58.9308
0
LINE
8
BLACK
6
CONTINUOUS
10
269.004
20
-58.9308
11
268.902
21
-58.9
0
LINE
8
BLACK
6
CONTINUOUS
10
268.902
20
-58.9
11
268.794
21
-58.8895
0
LINE
8
BLACK
6
CONTINUOUS
10
268.794
20
-58.8895
11
259.271
21
-58.8895
0
LINE
8
BLACK
6
CONTINUOUS
10
259.271
20
-58.8895
11
259.268
21
-58.8895
0
LINE
8
BLACK
6
CONTINUOUS
10
259.268
20
-58.8895
11
259.161
21
-58.9008
0
LINE
8
BLACK
6
CONTINUOUS
10
259.161
20
-58.9008
11
259.059
21
-58.9323
0
LINE
8
BLACK
6
CONTINUOUS
10
259.059
20
-58.9323
11
258.965
21
-58.983
0
LINE
8
BLACK
6
CONTINUOUS
10
258.965
20
-58.983
11
258.883
21
-59.051
0
LINE
8
BLACK
6
CONTINUOUS
10
258.883
20
-59.051
11
258.815
21
-59.1336
0
LINE
8
BLACK
6
CONTINUOUS
10
258.815
20
-59.1336
11
258.765
21
-59.2278
0
LINE
8
BLACK
6
CONTINUOUS
10
258.765
20
-59.2278
11
258.735
21
-59.3299
0
LINE
8
BLACK
6
CONTINUOUS
10
258.735
20
-59.3299
11
258.724
21
-59.4372
0
LINE
8
BLACK
6
CONTINUOUS
10
258.724
20
-59.4372
11
258.724
21
-62.4217
0
LINE
8
BLACK
6
CONTINUOUS
10
258.724
20
-62.4217
11
258.724
21
-62.4229
0
LINE
8
BLACK
6
CONTINUOUS
10
258.724
20
-62.4229
11
258.724
21
-62.4229
0
LINE
8
BLACK
6
CONTINUOUS
10
258.724
20
-62.4229
11
258.697
21
-62.6943
0
LINE
8
BLACK
6
CONTINUOUS
10
258.697
20
-62.6943
11
258.697
21
-62.6946
0
LINE
8
BLACK
6
CONTINUOUS
10
258.697
20
-62.6946
11
258.697
21
-62.6969
0
LINE
8
BLACK
6
CONTINUOUS
10
258.697
20
-62.6969
11
258.696
21
-62.6991
0
LINE
8
BLACK
6
CONTINUOUS
10
258.696
20
-62.6991
11
258.618
21
-62.9601
0
LINE
8
BLACK
6
CONTINUOUS
10
258.618
20
-62.9601
11
258.617
21
-62.9604
0
LINE
8
BLACK
6
CONTINUOUS
10
258.617
20
-62.9604
11
258.617
21
-62.9625
0
LINE
8
BLACK
6
CONTINUOUS
10
258.617
20
-62.9625
11
258.616
21
-62.9646
0
LINE
8
BLACK
6
CONTINUOUS
10
258.616
20
-62.9646
11
258.488
21
-63.2053
0
LINE
8
BLACK
6
CONTINUOUS
10
258.488
20
-63.2053
11
258.487
21
-63.2056
0
LINE
8
BLACK
6
CONTINUOUS
10
258.487
20
-63.2056
11
258.486
21
-63.2075
0
LINE
8
BLACK
6
CONTINUOUS
10
258.486
20
-63.2075
11
258.485
21
-63.2094
0
LINE
8
BLACK
6
CONTINUOUS
10
258.485
20
-63.2094
11
258.313
21
-63.4207
0
LINE
8
BLACK
6
CONTINUOUS
10
258.313
20
-63.4207
11
258.312
21
-63.4209
0
LINE
8
BLACK
6
CONTINUOUS
10
258.312
20
-63.4209
11
258.311
21
-63.4226
0
LINE
8
BLACK
6
CONTINUOUS
10
258.311
20
-63.4226
11
258.309
21
-63.4241
0
LINE
8
BLACK
6
CONTINUOUS
10
258.309
20
-63.4241
11
258.099
21
-63.5979
0
LINE
8
BLACK
6
CONTINUOUS
10
258.099
20
-63.5979
11
258.099
21
-63.5981
0
LINE
8
BLACK
6
CONTINUOUS
10
258.099
20
-63.5981
11
258.097
21
-63.5994
0
LINE
8
BLACK
6
CONTINUOUS
10
258.097
20
-63.5994
11
258.095
21
-63.6007
0
LINE
8
BLACK
6
CONTINUOUS
10
258.095
20
-63.6007
11
257.855
21
-63.7303
0
LINE
8
BLACK
6
CONTINUOUS
10
257.855
20
-63.7303
11
257.855
21
-63.7305
0
LINE
8
BLACK
6
CONTINUOUS
10
257.855
20
-63.7305
11
257.853
21
-63.7314
0
LINE
8
BLACK
6
CONTINUOUS
10
257.853
20
-63.7314
11
257.851
21
-63.7322
0
LINE
8
BLACK
6
CONTINUOUS
10
257.851
20
-63.7322
11
257.59
21
-63.8128
0
LINE
8
BLACK
6
CONTINUOUS
10
257.59
20
-63.8128
11
257.59
21
-63.8129
0
LINE
8
BLACK
6
CONTINUOUS
10
257.59
20
-63.8129
11
257.588
21
-63.8134
0
LINE
8
BLACK
6
CONTINUOUS
10
257.588
20
-63.8134
11
257.586
21
-63.8138
0
LINE
8
BLACK
6
CONTINUOUS
10
257.586
20
-63.8138
11
257.314
21
-63.8423
0
LINE
8
BLACK
6
CONTINUOUS
10
257.314
20
-63.8423
11
257.314
21
-63.8424
0
LINE
8
BLACK
6
CONTINUOUS
10
257.314
20
-63.8424
11
257.313
21
-63.8424
0
LINE
8
BLACK
6
CONTINUOUS
10
257.313
20
-63.8424
11
257.312
21
-63.8425
0
LINE
8
BLACK
6
CONTINUOUS
10
257.312
20
-63.8425
11
257.303
21
-63.8425
0
LINE
8
BLACK
6
CONTINUOUS
10
257.303
20
-63.8425
11
257.303
21
-63.8425
0
LINE
8
BLACK
6
CONTINUOUS
10
257.303
20
-63.8425
11
246.38
21
-63.8425
0
LINE
8
BLACK
6
CONTINUOUS
10
246.38
20
-63.8425
11
246.372
21
-63.8425
0
LINE
8
BLACK
6
CONTINUOUS
10
246.372
20
-63.8425
11
246.104
21
-63.8706
0
LINE
8
BLACK
6
CONTINUOUS
10
246.104
20
-63.8706
11
245.848
21
-63.9498
0
LINE
8
BLACK
6
CONTINUOUS
10
245.848
20
-63.9498
11
245.613
21
-64.0772
0
LINE
8
BLACK
6
CONTINUOUS
10
245.613
20
-64.0772
11
245.407
21
-64.2478
0
LINE
8
BLACK
6
CONTINUOUS
10
245.407
20
-64.2478
11
245.237
21
-64.4553
0
LINE
8
BLACK
6
CONTINUOUS
10
245.237
20
-64.4553
11
245.112
21
-64.6917
0
LINE
8
BLACK
6
CONTINUOUS
10
245.112
20
-64.6917
11
245.034
21
-64.948
0
LINE
8
BLACK
6
CONTINUOUS
10
245.034
20
-64.948
11
245.008
21
-65.2157
0
LINE
8
BLACK
6
CONTINUOUS
10
245.008
20
-65.2157
11
245.008
21
-141.72
0
LINE
8
BLACK
6
CONTINUOUS
10
245.008
20
-141.72
11
245.008
21
-141.721
0
LINE
8
BLACK
6
CONTINUOUS
10
245.008
20
-141.721
11
245.008
21
-141.721
0
LINE
8
BLACK
6
CONTINUOUS
10
245.008
20
-141.721
11
244.99
21
-141.906
0
LINE
8
BLACK
6
CONTINUOUS
10
244.99
20
-141.906
11
244.99
21
-141.907
0
LINE
8
BLACK
6
CONTINUOUS
10
244.99
20
-141.907
11
244.989
21
-141.909
0
LINE
8
BLACK
6
CONTINUOUS
10
244.989
20
-141.909
11
244.989
21
-141.911
0
LINE
8
BLACK
6
CONTINUOUS
10
244.989
20
-141.911
11
244.935
21
-142.089
0
LINE
8
BLACK
6
CONTINUOUS
10
244.935
20
-142.089
11
244.935
21
-142.089
0
LINE
8
BLACK
6
CONTINUOUS
10
244.935
20
-142.089
11
244.934
21
-142.091
0
LINE
8
BLACK
6
CONTINUOUS
10
244.934
20
-142.091
11
244.933
21
-142.094
0
LINE
8
BLACK
6
CONTINUOUS
10
244.933
20
-142.094
11
244.846
21
-142.258
0
LINE
8
BLACK
6
CONTINUOUS
10
244.846
20
-142.258
11
244.846
21
-142.258
0
LINE
8
BLACK
6
CONTINUOUS
10
244.846
20
-142.258
11
244.844
21
-142.26
0
LINE
8
BLACK
6
CONTINUOUS
10
244.844
20
-142.26
11
244.843
21
-142.262
0
LINE
8
BLACK
6
CONTINUOUS
10
244.843
20
-142.262
11
244.726
21
-142.406
0
LINE
8
BLACK
6
CONTINUOUS
10
244.726
20
-142.406
11
244.726
21
-142.406
0
LINE
8
BLACK
6
CONTINUOUS
10
244.726
20
-142.406
11
244.724
21
-142.408
0
LINE
8
BLACK
6
CONTINUOUS
10
244.724
20
-142.408
11
244.722
21
-142.409
0
LINE
8
BLACK
6
CONTINUOUS
10
244.722
20
-142.409
11
244.579
21
-142.528
0
LINE
8
BLACK
6
CONTINUOUS
10
244.579
20
-142.528
11
244.579
21
-142.528
0
LINE
8
BLACK
6
CONTINUOUS
10
244.579
20
-142.528
11
244.577
21
-142.529
0
LINE
8
BLACK
6
CONTINUOUS
10
244.577
20
-142.529
11
244.576
21
-142.53
0
LINE
8
BLACK
6
CONTINUOUS
10
244.576
20
-142.53
11
244.495
21
-142.579
0
LINE
8
BLACK
6
CONTINUOUS
10
244.495
20
-142.579
11
217.36
21
-160.24
0
LINE
8
BLACK
6
CONTINUOUS
10
217.36
20
-160.24
11
217.286
21
-160.295
0
LINE
8
BLACK
6
CONTINUOUS
10
217.286
20
-160.295
11
217.162
21
-160.419
0
LINE
8
BLACK
6
CONTINUOUS
10
217.162
20
-160.419
11
217.065
21
-160.565
0
LINE
8
BLACK
6
CONTINUOUS
10
217.065
20
-160.565
11
216.999
21
-160.726
0
LINE
8
BLACK
6
CONTINUOUS
10
216.999
20
-160.726
11
216.965
21
-160.898
0
LINE
8
BLACK
6
CONTINUOUS
10
216.965
20
-160.898
11
216.965
21
-161.072
0
LINE
8
BLACK
6
CONTINUOUS
10
216.965
20
-161.072
11
216.999
21
-161.244
0
LINE
8
BLACK
6
CONTINUOUS
10
216.999
20
-161.244
11
217.065
21
-161.405
0
LINE
8
BLACK
6
CONTINUOUS
10
217.065
20
-161.405
11
231.677
21
-183.897
0
LINE
8
BLACK
6
CONTINUOUS
10
231.677
20
-183.897
11
231.732
21
-183.971
0
LINE
8
BLACK
6
CONTINUOUS
10
231.732
20
-183.971
11
231.857
21
-184.094
0
LINE
8
BLACK
6
CONTINUOUS
10
231.857
20
-184.094
11
232.002
21
-184.191
0
LINE
8
BLACK
6
CONTINUOUS
10
232.002
20
-184.191
11
232.164
21
-184.258
0
LINE
8
BLACK
6
CONTINUOUS
10
232.164
20
-184.258
11
232.335
21
-184.292
0
LINE
8
BLACK
6
CONTINUOUS
10
232.335
20
-184.292
11
232.51
21
-184.292
0
LINE
8
BLACK
6
CONTINUOUS
10
232.51
20
-184.292
11
232.681
21
-184.258
0
LINE
8
BLACK
6
CONTINUOUS
10
232.681
20
-184.258
11
232.843
21
-184.191
0
LINE
8
BLACK
6
CONTINUOUS
10
232.843
20
-184.191
11
263.993
21
-163.962
0
LINE
8
BLACK
6
CONTINUOUS
10
263.993
20
-163.962
11
263.994
21
-163.961
0
LINE
8
BLACK
6
CONTINUOUS
10
263.994
20
-163.961
11
263.996
21
-163.96
0
LINE
8
BLACK
6
CONTINUOUS
10
263.996
20
-163.96
11
263.998
21
-163.959
0
LINE
8
BLACK
6
CONTINUOUS
10
263.998
20
-163.959
11
264
21
-163.959
0
LINE
8
BLACK
6
CONTINUOUS
10
264
20
-163.959
11
283.328
21
-156.314
0
LINE
8
BLACK
6
CONTINUOUS
10
283.328
20
-156.314
11
283.329
21
-156.313
0
LINE
8
BLACK
6
CONTINUOUS
10
283.329
20
-156.313
11
283.331
21
-156.313
0
LINE
8
BLACK
6
CONTINUOUS
10
283.331
20
-156.313
11
283.332
21
-156.312
0
LINE
8
BLACK
6
CONTINUOUS
10
283.332
20
-156.312
11
283.335
21
-156.312
0
LINE
8
BLACK
6
CONTINUOUS
10
283.335
20
-156.312
11
298.579
21
-154.661
0
LINE
8
BLACK
6
CONTINUOUS
10
298.579
20
-154.661
11
298.582
21
-154.661
0
LINE
8
BLACK
6
CONTINUOUS
10
298.582
20
-154.661
11
298.584
21
-154.661
0
LINE
8
BLACK
6
CONTINUOUS
10
298.584
20
-154.661
11
299.311
21
-154.771
0
LINE
8
BLACK
6
CONTINUOUS
10
299.311
20
-154.771
11
299.312
21
-154.771
0
LINE
8
BLACK
6
CONTINUOUS
10
299.312
20
-154.771
11
299.314
21
-154.771
0
LINE
8
BLACK
6
CONTINUOUS
10
299.314
20
-154.771
11
299.316
21
-154.772
0
LINE
8
BLACK
6
CONTINUOUS
10
299.316
20
-154.772
11
300.008
21
-155.021
0
LINE
8
BLACK
6
CONTINUOUS
10
300.008
20
-155.021
11
300.008
21
-155.021
0
LINE
8
BLACK
6
CONTINUOUS
10
300.008
20
-155.021
11
300.008
21
-155.021
0
LINE
8
BLACK
6
CONTINUOUS
10
300.008
20
-155.021
11
300.009
21
-155.021
0
LINE
8
BLACK
6
CONTINUOUS
10
300.009
20
-155.021
11
300.011
21
-155.022
0
LINE
8
BLACK
6
CONTINUOUS
10
300.011
20
-155.022
11
300.013
21
-155.023
0
LINE
8
BLACK
6
CONTINUOUS
10
300.013
20
-155.023
11
300.643
21
-155.401
0
LINE
8
BLACK
6
CONTINUOUS
10
300.643
20
-155.401
11
300.643
21
-155.401
0
LINE
8
BLACK
6
CONTINUOUS
10
300.643
20
-155.401
11
300.643
21
-155.401
0
LINE
8
BLACK
6
CONTINUOUS
10
300.643
20
-155.401
11
300.644
21
-155.401
0
LINE
8
BLACK
6
CONTINUOUS
10
300.644
20
-155.401
11
300.646
21
-155.403
0
LINE
8
BLACK
6
CONTINUOUS
10
300.646
20
-155.403
11
300.647
21
-155.404
0
LINE
8
BLACK
6
CONTINUOUS
10
300.647
20
-155.404
11
301.193
21
-155.898
0
LINE
8
BLACK
6
CONTINUOUS
10
301.193
20
-155.898
11
301.193
21
-155.898
0
LINE
8
BLACK
6
CONTINUOUS
10
301.193
20
-155.898
11
301.194
21
-155.9
0
LINE
8
BLACK
6
CONTINUOUS
10
301.194
20
-155.9
11
301.196
21
-155.902
0
LINE
8
BLACK
6
CONTINUOUS
10
301.196
20
-155.902
11
301.635
21
-156.492
0
LINE
8
BLACK
6
CONTINUOUS
10
301.635
20
-156.492
11
301.635
21
-156.492
0
LINE
8
BLACK
6
CONTINUOUS
10
301.635
20
-156.492
11
301.636
21
-156.493
0
LINE
8
BLACK
6
CONTINUOUS
10
301.636
20
-156.493
11
301.636
21
-156.494
0
LINE
8
BLACK
6
CONTINUOUS
10
301.636
20
-156.494
11
301.711
21
-156.625
0
LINE
8
BLACK
6
CONTINUOUS
10
301.711
20
-156.625
11
308.483
21
-156.629
0
LINE
8
BLACK
6
CONTINUOUS
10
308.483
20
-156.629
11
319.787
21
-156.629
0
LINE
8
BLACK
6
CONTINUOUS
10
319.787
20
-156.629
11
319.788
21
-156.63
0
LINE
8
BLACK
6
CONTINUOUS
10
319.788
20
-156.63
11
319.788
21
-156.63
0
LINE
8
BLACK
6
CONTINUOUS
10
319.788
20
-156.63
11
320.06
21
-156.656
0
LINE
8
BLACK
6
CONTINUOUS
10
320.06
20
-156.656
11
320.06
21
-156.656
0
LINE
8
BLACK
6
CONTINUOUS
10
320.06
20
-156.656
11
320.062
21
-156.657
0
LINE
8
BLACK
6
CONTINUOUS
10
320.062
20
-156.657
11
320.065
21
-156.657
0
LINE
8
BLACK
6
CONTINUOUS
10
320.065
20
-156.657
11
320.326
21
-156.736
0
LINE
8
BLACK
6
CONTINUOUS
10
320.326
20
-156.736
11
320.326
21
-156.736
0
LINE
8
BLACK
6
CONTINUOUS
10
320.326
20
-156.736
11
320.328
21
-156.737
0
LINE
8
BLACK
6
CONTINUOUS
10
320.328
20
-156.737
11
320.33
21
-156.738
0
LINE
8
BLACK
6
CONTINUOUS
10
320.33
20
-156.738
11
320.571
21
-156.866
0
LINE
8
BLACK
6
CONTINUOUS
10
320.571
20
-156.866
11
320.571
21
-156.866
0
LINE
8
BLACK
6
CONTINUOUS
10
320.571
20
-156.866
11
320.573
21
-156.867
0
LINE
8
BLACK
6
CONTINUOUS
10
320.573
20
-156.867
11
320.575
21
-156.869
0
LINE
8
BLACK
6
CONTINUOUS
10
320.575
20
-156.869
11
320.786
21
-157.041
0
LINE
8
BLACK
6
CONTINUOUS
10
320.786
20
-157.041
11
320.786
21
-157.041
0
LINE
8
BLACK
6
CONTINUOUS
10
320.786
20
-157.041
11
320.786
21
-157.041
0
LINE
8
BLACK
6
CONTINUOUS
10
320.786
20
-157.041
11
320.786
21
-157.041
0
LINE
8
BLACK
6
CONTINUOUS
10
320.786
20
-157.041
11
320.788
21
-157.043
0
LINE
8
BLACK
6
CONTINUOUS
10
320.788
20
-157.043
11
320.79
21
-157.044
0
LINE
8
BLACK
6
CONTINUOUS
10
320.79
20
-157.044
11
320.963
21
-157.254
0
LINE
8
BLACK
6
CONTINUOUS
10
320.963
20
-157.254
11
320.964
21
-157.255
0
LINE
8
BLACK
6
CONTINUOUS
10
320.964
20
-157.255
11
320.965
21
-157.257
0
LINE
8
BLACK
6
CONTINUOUS
10
320.965
20
-157.257
11
320.966
21
-157.258
0
LINE
8
BLACK
6
CONTINUOUS
10
320.966
20
-157.258
11
321.096
21
-157.498
0
LINE
8
BLACK
6
CONTINUOUS
10
321.096
20
-157.498
11
321.096
21
-157.498
0
LINE
8
BLACK
6
CONTINUOUS
10
321.096
20
-157.498
11
321.096
21
-157.498
0
LINE
8
BLACK
6
CONTINUOUS
10
321.096
20
-157.498
11
321.096
21
-157.499
0
LINE
8
BLACK
6
CONTINUOUS
10
321.096
20
-157.499
11
321.097
21
-157.501
0
LINE
8
BLACK
6
CONTINUOUS
10
321.097
20
-157.501
11
321.098
21
-157.503
0
LINE
8
BLACK
6
CONTINUOUS
10
321.098
20
-157.503
11
321.178
21
-157.763
0
LINE
8
BLACK
6
CONTINUOUS
10
321.178
20
-157.763
11
321.178
21
-157.764
0
LINE
8
BLACK
6
CONTINUOUS
10
321.178
20
-157.764
11
321.179
21
-157.766
0
LINE
8
BLACK
6
CONTINUOUS
10
321.179
20
-157.766
11
321.179
21
-157.768
0
LINE
8
BLACK
6
CONTINUOUS
10
321.179
20
-157.768
11
321.208
21
-158.039
0
LINE
8
BLACK
6
CONTINUOUS
10
321.208
20
-158.039
11
321.208
21
-158.039
0
LINE
8
BLACK
6
CONTINUOUS
10
321.208
20
-158.039
11
321.208
21
-158.041
0
LINE
8
BLACK
6
CONTINUOUS
10
321.208
20
-158.041
11
321.208
21
-158.042
0
LINE
8
BLACK
6
CONTINUOUS
10
321.208
20
-158.042
11
321.208
21
-158.05
0
LINE
8
BLACK
6
CONTINUOUS
10
321.208
20
-158.05
11
321.208
21
-158.05
0
LINE
8
BLACK
6
CONTINUOUS
10
321.208
20
-158.05
11
321.208
21
-160.02
0
LINE
8
BLACK
6
CONTINUOUS
10
321.208
20
-160.02
11
321.208
21
-160.028
0
LINE
8
BLACK
6
CONTINUOUS
10
321.208
20
-160.028
11
321.236
21
-160.296
0
LINE
8
BLACK
6
CONTINUOUS
10
321.236
20
-160.296
11
321.315
21
-160.552
0
LINE
8
BLACK
6
CONTINUOUS
10
321.315
20
-160.552
11
321.443
21
-160.787
0
LINE
8
BLACK
6
CONTINUOUS
10
321.443
20
-160.787
11
321.613
21
-160.993
0
LINE
8
BLACK
6
CONTINUOUS
10
321.613
20
-160.993
11
321.821
21
-161.163
0
LINE
8
BLACK
6
CONTINUOUS
10
321.821
20
-161.163
11
322.057
21
-161.288
0
LINE
8
BLACK
6
CONTINUOUS
10
322.057
20
-161.288
11
322.314
21
-161.366
0
LINE
8
BLACK
6
CONTINUOUS
10
322.314
20
-161.366
11
322.581
21
-161.392
0
LINE
8
BLACK
6
CONTINUOUS
10
322.581
20
-161.392
11
367.411
21
-161.392
0
LINE
8
BLACK
6
CONTINUOUS
10
367.411
20
-161.392
11
367.419
21
-161.392
0
LINE
8
BLACK
6
CONTINUOUS
10
367.419
20
-161.392
11
367.687
21
-161.364
0
LINE
8
BLACK
6
CONTINUOUS
10
367.687
20
-161.364
11
367.943
21
-161.285
0
LINE
8
BLACK
6
CONTINUOUS
10
367.943
20
-161.285
11
368.178
21
-161.157
0
LINE
8
BLACK
6
CONTINUOUS
10
368.178
20
-161.157
11
368.384
21
-160.987
0
LINE
8
BLACK
6
CONTINUOUS
10
368.384
20
-160.987
11
368.554
21
-160.779
0
LINE
8
BLACK
6
CONTINUOUS
10
368.554
20
-160.779
11
368.679
21
-160.543
0
LINE
8
BLACK
6
CONTINUOUS
10
368.679
20
-160.543
11
368.757
21
-160.286
0
LINE
8
BLACK
6
CONTINUOUS
10
368.757
20
-160.286
11
368.783
21
-160.019
0
LINE
8
BLACK
6
CONTINUOUS
10
368.783
20
-160.019
11
368.783
21
-67.5641
0
LINE
8
BLACK
6
CONTINUOUS
10
368.783
20
-67.5641
11
368.783
21
-67.5556
0
LINE
8
BLACK
6
CONTINUOUS
10
368.783
20
-67.5556
11
368.755
21
-67.2881
0
LINE
8
BLACK
6
CONTINUOUS
10
368.755
20
-67.2881
11
368.676
21
-67.0324
0
LINE
8
BLACK
6
CONTINUOUS
10
368.676
20
-67.0324
11
368.548
21
-66.7969
0
LINE
8
BLACK
6
CONTINUOUS
10
368.548
20
-66.7969
11
368.378
21
-66.5906
0
LINE
8
BLACK
6
CONTINUOUS
10
368.378
20
-66.5906
11
368.17
21
-66.4213
0
LINE
8
BLACK
6
CONTINUOUS
10
368.17
20
-66.4213
11
367.934
21
-66.2956
0
LINE
8
BLACK
6
CONTINUOUS
10
367.934
20
-66.2956
11
367.677
21
-66.2182
0
LINE
8
BLACK
6
CONTINUOUS
10
367.677
20
-66.2182
11
367.41
21
-66.192
0
LINE
8
BLACK
6
CONTINUOUS
10
367.41
20
-66.192
11
346.963
21
-66.192
0
LINE
8
BLACK
6
CONTINUOUS
10
346.963
20
-66.192
11
346.962
21
-66.1919
0
LINE
8
BLACK
6
CONTINUOUS
10
346.962
20
-66.1919
11
346.962
21
-66.1919
0
LINE
8
BLACK
6
CONTINUOUS
10
346.962
20
-66.1919
11
346.69
21
-66.1653
0
LINE
8
BLACK
6
CONTINUOUS
10
346.69
20
-66.1653
11
346.69
21
-66.1652
0
LINE
8
BLACK
6
CONTINUOUS
10
346.69
20
-66.1652
11
346.688
21
-66.1648
0
LINE
8
BLACK
6
CONTINUOUS
10
346.688
20
-66.1648
11
346.685
21
-66.1643
0
LINE
8
BLACK
6
CONTINUOUS
10
346.685
20
-66.1643
11
346.424
21
-66.0855
0
LINE
8
BLACK
6
CONTINUOUS
10
346.424
20
-66.0855
11
346.424
21
-66.0854
0
LINE
8
BLACK
6
CONTINUOUS
10
346.424
20
-66.0854
11
346.422
21
-66.0845
0
LINE
8
BLACK
6
CONTINUOUS
10
346.422
20
-66.0845
11
346.42
21
-66.0837
0
LINE
8
BLACK
6
CONTINUOUS
10
346.42
20
-66.0837
11
346.179
21
-65.9557
0
LINE
8
BLACK
6
CONTINUOUS
10
346.179
20
-65.9557
11
346.179
21
-65.9555
0
LINE
8
BLACK
6
CONTINUOUS
10
346.179
20
-65.9555
11
346.177
21
-65.9542
0
LINE
8
BLACK
6
CONTINUOUS
10
346.177
20
-65.9542
11
346.175
21
-65.953
0
LINE
8
BLACK
6
CONTINUOUS
10
346.175
20
-65.953
11
345.964
21
-65.7806
0
LINE
8
BLACK
6
CONTINUOUS
10
345.964
20
-65.7806
11
345.964
21
-65.7804
0
LINE
8
BLACK
6
CONTINUOUS
10
345.964
20
-65.7804
11
345.962
21
-65.7788
0
LINE
8
BLACK
6
CONTINUOUS
10
345.962
20
-65.7788
11
345.96
21
-65.7772
0
LINE
8
BLACK
6
CONTINUOUS
10
345.96
20
-65.7772
11
345.787
21
-65.5671
0
LINE
8
BLACK
6
CONTINUOUS
10
345.787
20
-65.5671
11
345.786
21
-65.5669
0
LINE
8
BLACK
6
CONTINUOUS
10
345.786
20
-65.5669
11
345.785
21
-65.565
0
LINE
8
BLACK
6
CONTINUOUS
10
345.785
20
-65.565
11
345.784
21
-65.5631
0
LINE
8
BLACK
6
CONTINUOUS
10
345.784
20
-65.5631
11
345.654
21
-65.3233
0
LINE
8
BLACK
6
CONTINUOUS
10
345.654
20
-65.3233
11
345.654
21
-65.3229
0
LINE
8
BLACK
6
CONTINUOUS
10
345.654
20
-65.3229
11
345.653
21
-65.3208
0
LINE
8
BLACK
6
CONTINUOUS
10
345.653
20
-65.3208
11
345.652
21
-65.3188
0
LINE
8
BLACK
6
CONTINUOUS
10
345.652
20
-65.3188
11
345.572
21
-65.0583
0
LINE
8
BLACK
6
CONTINUOUS
10
345.572
20
-65.0583
11
345.572
21
-65.058
0
LINE
8
BLACK
6
CONTINUOUS
10
345.572
20
-65.058
11
345.571
21
-65.0557
0
LINE
8
BLACK
6
CONTINUOUS
10
345.571
20
-65.0557
11
345.571
21
-65.0535
0
LINE
8
BLACK
6
CONTINUOUS
10
345.571
20
-65.0535
11
345.542
21
-64.7824
0
LINE
8
BLACK
6
CONTINUOUS
10
345.542
20
-64.7824
11
345.542
21
-64.782
0
LINE
8
BLACK
6
CONTINUOUS
10
345.542
20
-64.782
11
345.542
21
-64.7809
0
LINE
8
BLACK
6
CONTINUOUS
10
345.542
20
-64.7809
11
345.542
21
-64.7798
0
LINE
8
BLACK
6
CONTINUOUS
10
345.542
20
-64.7798
11
345.542
21
-64.7713
0
LINE
8
BLACK
6
CONTINUOUS
10
345.542
20
-64.7713
11
345.542
21
-64.7712
0
LINE
8
BLACK
6
CONTINUOUS
10
345.542
20
-64.7712
11
345.542
21
-59.4361
0
LINE
8
BLACK
6
CONTINUOUS
10
345.542
20
-59.4361
11
345.542
21
-59.4361
0
LINE
8
BLACK
6
CONTINUOUS
10
345.542
20
-59.4361
11
345.542
21
-59.4334
0
LINE
8
BLACK
6
CONTINUOUS
10
345.542
20
-59.4334
11
345.531
21
-59.3261
0
LINE
8
BLACK
6
CONTINUOUS
10
345.531
20
-59.3261
11
345.499
21
-59.2243
0
LINE
8
BLACK
6
CONTINUOUS
10
345.499
20
-59.2243
11
345.448
21
-59.1305
0
LINE
8
BLACK
6
CONTINUOUS
10
345.448
20
-59.1305
11
345.38
21
-59.0483
0
LINE
8
BLACK
6
CONTINUOUS
10
345.38
20
-59.0483
11
345.298
21
-58.9809
0
LINE
8
BLACK
6
CONTINUOUS
10
345.298
20
-58.9809
11
345.204
21
-58.9308
0
LINE
8
BLACK
6
CONTINUOUS
10
345.204
20
-58.9308
11
345.102
21
-58.9
0
LINE
8
BLACK
6
CONTINUOUS
10
345.102
20
-58.9
11
344.994
21
-58.8895
0
LINE
8
BLACK
6
CONTINUOUS
10
344.994
20
-58.8895
11
335.471
21
-58.8895
0
LINE
8
BLACK
6
CONTINUOUS
10
335.471
20
-58.8895
11
335.468
21
-58.8895
0
LINE
8
BLACK
6
CONTINUOUS
10
335.468
20
-58.8895
11
335.361
21
-58.9008
0
LINE
8
BLACK
6
CONTINUOUS
10
335.361
20
-58.9008
11
335.259
21
-58.9323
0
LINE
8
BLACK
6
CONTINUOUS
10
335.259
20
-58.9323
11
335.165
21
-58.983
0
LINE
8
BLACK
6
CONTINUOUS
10
335.165
20
-58.983
11
335.083
21
-59.051
0
LINE
8
BLACK
6
CONTINUOUS
10
335.083
20
-59.051
11
335.015
21
-59.1336
0
LINE
8
BLACK
6
CONTINUOUS
10
335.015
20
-59.1336
11
334.965
21
-59.2278
0
LINE
8
BLACK
6
CONTINUOUS
10
334.965
20
-59.2278
11
334.935
21
-59.3299
0
LINE
8
BLACK
6
CONTINUOUS
10
334.935
20
-59.3299
11
334.924
21
-59.4372
0
LINE
8
BLACK
6
CONTINUOUS
10
334.924
20
-59.4372
11
334.924
21
-64.7712
0
LINE
8
BLACK
6
CONTINUOUS
10
334.924
20
-64.7712
11
334.924
21
-64.7724
0
LINE
8
BLACK
6
CONTINUOUS
10
334.924
20
-64.7724
11
334.924
21
-64.7724
0
LINE
8
BLACK
6
CONTINUOUS
10
334.924
20
-64.7724
11
334.897
21
-65.0438
0
LINE
8
BLACK
6
CONTINUOUS
10
334.897
20
-65.0438
11
334.897
21
-65.0441
0
LINE
8
BLACK
6
CONTINUOUS
10
334.897
20
-65.0441
11
334.897
21
-65.0464
0
LINE
8
BLACK
6
CONTINUOUS
10
334.897
20
-65.0464
11
334.896
21
-65.0486
0
LINE
8
BLACK
6
CONTINUOUS
10
334.896
20
-65.0486
11
334.818
21
-65.3096
0
LINE
8
BLACK
6
CONTINUOUS
10
334.818
20
-65.3096
11
334.817
21
-65.3099
0
LINE
8
BLACK
6
CONTINUOUS
10
334.817
20
-65.3099
11
334.817
21
-65.312
0
LINE
8
BLACK
6
CONTINUOUS
10
334.817
20
-65.312
11
334.816
21
-65.3141
0
LINE
8
BLACK
6
CONTINUOUS
10
334.816
20
-65.3141
11
334.688
21
-65.5548
0
LINE
8
BLACK
6
CONTINUOUS
10
334.688
20
-65.5548
11
334.687
21
-65.5551
0
LINE
8
BLACK
6
CONTINUOUS
10
334.687
20
-65.5551
11
334.686
21
-65.557
0
LINE
8
BLACK
6
CONTINUOUS
10
334.686
20
-65.557
11
334.685
21
-65.5589
0
LINE
8
BLACK
6
CONTINUOUS
10
334.685
20
-65.5589
11
334.513
21
-65.7702
0
LINE
8
BLACK
6
CONTINUOUS
10
334.513
20
-65.7702
11
334.512
21
-65.7704
0
LINE
8
BLACK
6
CONTINUOUS
10
334.512
20
-65.7704
11
334.511
21
-65.7721
0
LINE
8
BLACK
6
CONTINUOUS
10
334.511
20
-65.7721
11
334.509
21
-65.7736
0
LINE
8
BLACK
6
CONTINUOUS
10
334.509
20
-65.7736
11
334.299
21
-65.9474
0
LINE
8
BLACK
6
CONTINUOUS
10
334.299
20
-65.9474
11
334.299
21
-65.9476
0
LINE
8
BLACK
6
CONTINUOUS
10
334.299
20
-65.9476
11
334.297
21
-65.9489
0
LINE
8
BLACK
6
CONTINUOUS
10
334.297
20
-65.9489
11
334.295
21
-65.9502
0
LINE
8
BLACK
6
CONTINUOUS
10
334.295
20
-65.9502
11
334.055
21
-66.0798
0
LINE
8
BLACK
6
CONTINUOUS
10
334.055
20
-66.0798
11
334.055
21
-66.08
0
LINE
8
BLACK
6
CONTINUOUS
10
334.055
20
-66.08
11
334.053
21
-66.0809
0
LINE
8
BLACK
6
CONTINUOUS
10
334.053
20
-66.0809
11
334.051
21
-66.0817
0
LINE
8
BLACK
6
CONTINUOUS
10
334.051
20
-66.0817
11
333.79
21
-66.1623
0
LINE
8
BLACK
6
CONTINUOUS
10
333.79
20
-66.1623
11
333.79
21
-66.1624
0
LINE
8
BLACK
6
CONTINUOUS
10
333.79
20
-66.1624
11
333.788
21
-66.1629
0
LINE
8
BLACK
6
CONTINUOUS
10
333.788
20
-66.1629
11
333.786
21
-66.1633
0
LINE
8
BLACK
6
CONTINUOUS
10
333.786
20
-66.1633
11
333.514
21
-66.1918
0
LINE
8
BLACK
6
CONTINUOUS
10
333.514
20
-66.1918
11
333.514
21
-66.1919
0
LINE
8
BLACK
6
CONTINUOUS
10
333.514
20
-66.1919
11
333.513
21
-66.1919
0
LINE
8
BLACK
6
CONTINUOUS
10
333.513
20
-66.1919
11
333.512
21
-66.192
0
LINE
8
BLACK
6
CONTINUOUS
10
333.512
20
-66.192
11
333.503
21
-66.192
0
LINE
8
BLACK
6
CONTINUOUS
10
333.503
20
-66.192
11
333.503
21
-66.192
0
LINE
8
BLACK
6
CONTINUOUS
10
333.503
20
-66.192
11
322.579
21
-66.192
0
LINE
8
BLACK
6
CONTINUOUS
10
322.579
20
-66.192
11
322.578
21
-66.1919
  0
ENDSEC
  0
EOF
