<?xml version="1.0" standalone="no"?>
 <!DOCTYPE svg PUBLIC "-//W3C//DTD SVG 1.1//EN" 
 "http://www.w3.org/Graphics/SVG/1.1/DTD/svg11.dtd"> 
<svg xmlns="http://www.w3.org/2000/svg" version="1.1" 
    width="59.4004cm" height="41.9989cm" viewBox="0 0 233860 165350 ">
<title>SVG Picture created as Apollo-Edge_Cuts.svg date 2020/02/24 15:29:06 </title>
  <desc>Picture generated by PCBNEW </desc>
<g style="fill:#000000; fill-opacity:1;stroke:#000000; stroke-opacity:1;
stroke-linecap:round; stroke-linejoin:round; "
 transform="translate(0 0) scale(1 1)">
</g>
<g style="fill:#000000; fill-opacity:0.0; 
stroke:#000000; stroke-width:-0.000393701; stroke-opacity:1; 
stroke-linecap:round; stroke-linejoin:round;">
</g>
<g style="fill:#000000; fill-opacity:0.0; 
stroke:#000000; stroke-width:19.685; stroke-opacity:1; 
stroke-linecap:round; stroke-linejoin:round;">
<path d="M68688.1 69242.6 A1220.66 1220.66 0.0 1 0 70699.2 70626.6 " />
<path d="M72350 24675
L72302 24675
" />
<circle cx="74005.9" cy="53097.6" r="590.551" /> 
<path d="M74005 54377
L72900 54377
" />
<path d="M74005.9 54377.2 A1279.53 1279.53 0.0 0 0 74005.9 51818.1 " />
<path d="M74005 51818
L72900 51818
" />
<circle cx="71022.6" cy="23744.1" r="590.551" /> 
<path d="M72302 23744
L72302 24675
" />
<path d="M69743 23744
L69743 24675
" />
<path d="M72302.2 23744.1 A1279.53 1279.53 0.0 0 0 69743.1 23744.1 " />
<circle cx="29047.6" cy="24719.1" r="590.551" /> 
<path d="M30327 24719
L30327 25600
" />
<path d="M27768 24719
L27768 25600
" />
<path d="M30327.2 24719.1 A1279.53 1279.53 0.0 0 0 27768.1 24719.1 " />
<path d="M22444.1 54822.8 A1279.53 1279.53 0.0 0 0 22444.1 57381.9 " />
<path d="M22444 57381
L23375 57381
" />
<circle cx="22444.1" cy="56102.4" r="590.551" /> 
<path d="M22444 54822
L23375 54822
" />
<path d="M71250 69800
L77110 73670
" />
<path d="M71250 69800
L70699 70626
" />
<path d="M69168 68517
L68688 69242
" />
<circle cx="69625" cy="69984.4" r="590.551" /> 
<path d="M72900 54377
L72900 55250
" />
<path d="M58643 23700
L58450 23700
" />
<path d="M27768 25600
L23925 25600
" />
<path d="M23375 57381
L23375 63450
" />
<path d="M44816 62125
L43450 62125
" />
<path d="M44816 63051
L44816 62125
" />
<path d="M46981 63051
L46981 62125
" />
<circle cx="45899" cy="63051.2" r="590.551" /> 
<path d="M44816.3 63051.2 A1082.68 1082.68 0.0 0 0 46981.7 63051.2 " />
<path d="M72900 55250 A375 375 0.0 0 0 73097.2 55580.2 " />
<path d="M84290 63240 A362.353 362.353 0.0 0 0 84171 62768.5 " />
<path d="M73097 55580
L84170 62768
" />
<path d="M77110 73670 A362.353 362.353 0.0 0 0 77581.5 73551 " />
<path d="M84290 63240
L77581 73550
" />
<path d="M64025 65155
L69168 68517
" />
<path d="M57050 62550
L64025 65155
" />
<path d="M49950 62125
L57050 62550
" />
<path d="M42900 63450
L42900 62675
" />
<path d="M65400 23925
L65400 24125
" />
<path d="M57900 23025
L57900 23150
" />
<path d="M48850 23025
L48850 23175
" />
<path d="M41350 24275
L41350 25050
" />
<path d="M72900 25225
L72900 51818
" />
<path d="M49950 62125
L46981 62125
" />
<path d="M42350 64000
L23925 64000
" />
<path d="M69743 24675
L65950 24675
" />
<path d="M65175 23700
L58643 23700
" />
<path d="M57675 22800
L49075 22800
" />
<path d="M48300 23725
L41900 23725
" />
<path d="M40800 25600
L30327 25600
" />
<path d="M65400 23925 A225 225 0.0 0 0 65175 23700 " />
<path d="M57900 23025 A225 225 0.0 0 0 57675 22800 " />
<path d="M49075 22800 A225 225 0.0 0 0 48850 23025 " />
<path d="M43450 62125 A550 550 0.0 0 0 42900 62675 " />
<path d="M42350 64000 A550 550 0.0 0 0 42900 63450 " />
<path d="M23375 63450 A550 550 0.0 0 0 23925 64000 " />
<path d="M72900 25225 A550 550 0.0 0 0 72350 24675 " />
<path d="M65400 24125 A550 550 0.0 0 0 65950 24675 " />
<path d="M57900 23150 A550 550 0.0 0 0 58450 23700 " />
<path d="M48300 23725 A550 550 0.0 0 0 48850 23175 " />
<path d="M41900 23725 A550 550 0.0 0 0 41350 24275 " />
<path d="M40800 25600 A550 550 0.0 0 0 41350 25050 " />
<path d="M23925 25600 A550 550 0.0 0 0 23375 26150 " />
<path d="M23375 54822
L23375 26150
" />
<g >
</g>
<g >
</g>
<g >
</g>
<g >
</g>
<g >
</g>
<g >
</g>
<g >
</g>
<g >
</g>
<g >
</g>
<g >
</g>
<g >
</g>
<g >
</g>
<g >
</g>
<g >
</g>
<g >
</g>
<g >
</g>
<g >
</g>
<g >
</g>
<g >
</g>
<g >
</g>
<g >
</g>
<g >
</g>
<g >
</g>
<g >
</g>
<g >
</g>
<g >
</g>
<g >
</g>
<g >
</g>
<g >
</g>
<g >
</g>
<g >
</g>
<g >
</g>
</g> 
</svg>
