  0
SECTION
  2
HEADER
  9
$ANGBASE
  50
0.0
  9
$ANGDIR
  70
1
  9
$MEASUREMENT
  70
1
  0
ENDSEC
  0
SECTION
  2
TABLES
  0
TABLE
  2
LTYPE
  70
4
  0
LTYPE
  5
40F
  2
CONTINUOUS
  70
0
  3
Solid line
  72
65
  73
0
  40
0.0
  0
LTYPE
  5
410
  2
DASHDOT
 70
0
  3
Dash Dot ____ _ ____ _
 72
65
 73
4
 40
2.0
 49
1.25
 49
-0.25
 49
0.25
 49
-0.25
  0
LTYPE
  5
411
  2
DASHED
 70
0
  3
Dashed __ __ __ __ __
 72
65
 73
2
 40
0.75
 49
0.5
 49
-0.25
  0
LTYPE
  5
43B
  2
DOTTED
 70
0
  3
Dotted .  .  .  .
 72
65
 73
2
 40
0.2
 49
0.0
 49
-0.2
  0
ENDTAB
  0
TABLE
  2
STYLE
  70
4
  0
STYLE
  2
KICAD
  70
0
  40
0
  41
1
  42
1
  50
0
  71
0
  3
isocp.shx
  0
STYLE
  2
KICADB
  70
0
  40
0
  41
1
  42
1
  50
0
  71
0
  3
isocp.shx
  0
STYLE
  2
KICADI
  70
0
  40
0
  41
1
  42
1
  50
15
  71
0
  3
isocp.shx
  0
STYLE
  2
KICADBI
  70
0
  40
0
  41
1
  42
1
  50
15
  71
0
  3
isocp.shx
  0
ENDTAB
  0
TABLE
  2
LAYER
  70
1
  0
LAYER
  2
BLACK
  70
0
  62
7
  6
CONTINUOUS
  0
ENDTAB
  0
ENDSEC
  0
SECTION
  2
ENTITIES
0
LINE
8
BLACK
6
CONTINUOUS
10
196.812
20
-188.568
11
196.81
21
-188.569
0
LINE
8
BLACK
6
CONTINUOUS
10
196.81
20
-188.569
11
196.808
21
-188.569
0
LINE
8
BLACK
6
CONTINUOUS
10
196.808
20
-188.569
11
196.629
21
-188.588
0
LINE
8
BLACK
6
CONTINUOUS
10
196.629
20
-188.588
11
196.629
21
-188.588
0
LINE
8
BLACK
6
CONTINUOUS
10
196.629
20
-188.588
11
196.626
21
-188.588
0
LINE
8
BLACK
6
CONTINUOUS
10
196.626
20
-188.588
11
196.624
21
-188.588
0
LINE
8
BLACK
6
CONTINUOUS
10
196.624
20
-188.588
11
196.445
21
-188.571
0
LINE
8
BLACK
6
CONTINUOUS
10
196.445
20
-188.571
11
196.445
21
-188.571
0
LINE
8
BLACK
6
CONTINUOUS
10
196.445
20
-188.571
11
196.443
21
-188.571
0
LINE
8
BLACK
6
CONTINUOUS
10
196.443
20
-188.571
11
196.44
21
-188.57
0
LINE
8
BLACK
6
CONTINUOUS
10
196.44
20
-188.57
11
196.268
21
-188.519
0
LINE
8
BLACK
6
CONTINUOUS
10
196.268
20
-188.519
11
196.268
21
-188.519
0
LINE
8
BLACK
6
CONTINUOUS
10
196.268
20
-188.519
11
196.266
21
-188.519
0
LINE
8
BLACK
6
CONTINUOUS
10
196.266
20
-188.519
11
196.265
21
-188.518
0
LINE
8
BLACK
6
CONTINUOUS
10
196.265
20
-188.518
11
196.181
21
-188.479
0
LINE
8
BLACK
6
CONTINUOUS
10
196.181
20
-188.479
11
196.18
21
-188.479
0
LINE
8
BLACK
6
CONTINUOUS
10
196.18
20
-188.479
11
196.177
21
-188.477
0
LINE
8
BLACK
6
CONTINUOUS
10
196.177
20
-188.477
11
182.95
21
-179.866
0
LINE
8
BLACK
6
CONTINUOUS
10
182.95
20
-179.866
11
181.687
21
-181.595
0
LINE
8
BLACK
6
CONTINUOUS
10
181.687
20
-181.595
11
181.686
21
-181.595
0
LINE
8
BLACK
6
CONTINUOUS
10
181.686
20
-181.595
11
181.253
21
-182.15
0
LINE
8
BLACK
6
CONTINUOUS
10
181.253
20
-182.15
11
181.253
21
-182.15
0
LINE
8
BLACK
6
CONTINUOUS
10
181.253
20
-182.15
11
181.251
21
-182.152
0
LINE
8
BLACK
6
CONTINUOUS
10
181.251
20
-182.152
11
181.25
21
-182.154
0
LINE
8
BLACK
6
CONTINUOUS
10
181.25
20
-182.154
11
180.716
21
-182.614
0
LINE
8
BLACK
6
CONTINUOUS
10
180.716
20
-182.614
11
180.716
21
-182.614
0
LINE
8
BLACK
6
CONTINUOUS
10
180.716
20
-182.614
11
180.714
21
-182.615
0
LINE
8
BLACK
6
CONTINUOUS
10
180.714
20
-182.615
11
180.712
21
-182.617
0
LINE
8
BLACK
6
CONTINUOUS
10
180.712
20
-182.617
11
180.099
21
-182.965
0
LINE
8
BLACK
6
CONTINUOUS
10
180.099
20
-182.965
11
180.099
21
-182.965
0
LINE
8
BLACK
6
CONTINUOUS
10
180.099
20
-182.965
11
180.097
21
-182.966
0
LINE
8
BLACK
6
CONTINUOUS
10
180.097
20
-182.966
11
180.095
21
-182.967
0
LINE
8
BLACK
6
CONTINUOUS
10
180.095
20
-182.967
11
179.426
21
-183.189
0
LINE
8
BLACK
6
CONTINUOUS
10
179.426
20
-183.189
11
179.426
21
-183.189
0
LINE
8
BLACK
6
CONTINUOUS
10
179.426
20
-183.189
11
179.423
21
-183.19
0
LINE
8
BLACK
6
CONTINUOUS
10
179.423
20
-183.19
11
179.421
21
-183.19
0
LINE
8
BLACK
6
CONTINUOUS
10
179.421
20
-183.19
11
178.722
21
-183.278
0
LINE
8
BLACK
6
CONTINUOUS
10
178.722
20
-183.278
11
178.722
21
-183.278
0
LINE
8
BLACK
6
CONTINUOUS
10
178.722
20
-183.278
11
178.719
21
-183.278
0
LINE
8
BLACK
6
CONTINUOUS
10
178.719
20
-183.278
11
178.717
21
-183.278
0
LINE
8
BLACK
6
CONTINUOUS
10
178.717
20
-183.278
11
178.014
21
-183.229
0
LINE
8
BLACK
6
CONTINUOUS
10
178.014
20
-183.229
11
178.014
21
-183.229
0
LINE
8
BLACK
6
CONTINUOUS
10
178.014
20
-183.229
11
178.011
21
-183.229
0
LINE
8
BLACK
6
CONTINUOUS
10
178.011
20
-183.229
11
178.009
21
-183.228
0
LINE
8
BLACK
6
CONTINUOUS
10
178.009
20
-183.228
11
177.329
21
-183.043
0
LINE
8
BLACK
6
CONTINUOUS
10
177.329
20
-183.043
11
177.329
21
-183.043
0
LINE
8
BLACK
6
CONTINUOUS
10
177.329
20
-183.043
11
177.329
21
-183.043
0
LINE
8
BLACK
6
CONTINUOUS
10
177.329
20
-183.043
11
177.329
21
-183.043
0
LINE
8
BLACK
6
CONTINUOUS
10
177.329
20
-183.043
11
177.327
21
-183.042
0
LINE
8
BLACK
6
CONTINUOUS
10
177.327
20
-183.042
11
177.325
21
-183.042
0
LINE
8
BLACK
6
CONTINUOUS
10
177.325
20
-183.042
11
176.693
21
-182.728
0
LINE
8
BLACK
6
CONTINUOUS
10
176.693
20
-182.728
11
176.693
21
-182.728
0
LINE
8
BLACK
6
CONTINUOUS
10
176.693
20
-182.728
11
176.693
21
-182.728
0
LINE
8
BLACK
6
CONTINUOUS
10
176.693
20
-182.728
11
176.693
21
-182.728
0
LINE
8
BLACK
6
CONTINUOUS
10
176.693
20
-182.728
11
176.691
21
-182.727
0
LINE
8
BLACK
6
CONTINUOUS
10
176.691
20
-182.727
11
176.689
21
-182.725
0
LINE
8
BLACK
6
CONTINUOUS
10
176.689
20
-182.725
11
176.131
21
-182.295
0
LINE
8
BLACK
6
CONTINUOUS
10
176.131
20
-182.295
11
176.131
21
-182.295
0
LINE
8
BLACK
6
CONTINUOUS
10
176.131
20
-182.295
11
176.131
21
-182.295
0
LINE
8
BLACK
6
CONTINUOUS
10
176.131
20
-182.295
11
176.131
21
-182.295
0
LINE
8
BLACK
6
CONTINUOUS
10
176.131
20
-182.295
11
176.129
21
-182.294
0
LINE
8
BLACK
6
CONTINUOUS
10
176.129
20
-182.294
11
176.127
21
-182.292
0
LINE
8
BLACK
6
CONTINUOUS
10
176.127
20
-182.292
11
175.663
21
-181.762
0
LINE
8
BLACK
6
CONTINUOUS
10
175.663
20
-181.762
11
175.663
21
-181.761
0
LINE
8
BLACK
6
CONTINUOUS
10
175.663
20
-181.761
11
175.662
21
-181.759
0
LINE
8
BLACK
6
CONTINUOUS
10
175.662
20
-181.759
11
175.661
21
-181.758
0
LINE
8
BLACK
6
CONTINUOUS
10
175.661
20
-181.758
11
175.308
21
-181.147
0
LINE
8
BLACK
6
CONTINUOUS
10
175.308
20
-181.147
11
175.308
21
-181.147
0
LINE
8
BLACK
6
CONTINUOUS
10
175.308
20
-181.147
11
175.307
21
-181.145
0
LINE
8
BLACK
6
CONTINUOUS
10
175.307
20
-181.145
11
175.306
21
-181.143
0
LINE
8
BLACK
6
CONTINUOUS
10
175.306
20
-181.143
11
175.079
21
-180.476
0
LINE
8
BLACK
6
CONTINUOUS
10
175.079
20
-180.476
11
175.079
21
-180.475
0
LINE
8
BLACK
6
CONTINUOUS
10
175.079
20
-180.475
11
175.079
21
-180.473
0
LINE
8
BLACK
6
CONTINUOUS
10
175.079
20
-180.473
11
175.078
21
-180.471
0
LINE
8
BLACK
6
CONTINUOUS
10
175.078
20
-180.471
11
174.985
21
-179.772
0
LINE
8
BLACK
6
CONTINUOUS
10
174.985
20
-179.772
11
174.985
21
-179.772
0
LINE
8
BLACK
6
CONTINUOUS
10
174.985
20
-179.772
11
174.985
21
-179.77
0
LINE
8
BLACK
6
CONTINUOUS
10
174.985
20
-179.77
11
174.985
21
-179.767
0
LINE
8
BLACK
6
CONTINUOUS
10
174.985
20
-179.767
11
175.029
21
-179.064
0
LINE
8
BLACK
6
CONTINUOUS
10
175.029
20
-179.064
11
175.029
21
-179.064
0
LINE
8
BLACK
6
CONTINUOUS
10
175.029
20
-179.064
11
175.03
21
-179.061
0
LINE
8
BLACK
6
CONTINUOUS
10
175.03
20
-179.061
11
175.03
21
-179.059
0
LINE
8
BLACK
6
CONTINUOUS
10
175.03
20
-179.059
11
175.21
21
-178.378
0
LINE
8
BLACK
6
CONTINUOUS
10
175.21
20
-178.378
11
175.21
21
-178.378
0
LINE
8
BLACK
6
CONTINUOUS
10
175.21
20
-178.378
11
175.211
21
-178.376
0
LINE
8
BLACK
6
CONTINUOUS
10
175.211
20
-178.376
11
175.212
21
-178.374
0
LINE
8
BLACK
6
CONTINUOUS
10
175.212
20
-178.374
11
175.49
21
-177.791
0
LINE
8
BLACK
6
CONTINUOUS
10
175.49
20
-177.791
11
175.491
21
-177.791
0
LINE
8
BLACK
6
CONTINUOUS
10
175.491
20
-177.791
11
175.492
21
-177.789
0
LINE
8
BLACK
6
CONTINUOUS
10
175.492
20
-177.789
11
175.492
21
-177.789
0
LINE
8
BLACK
6
CONTINUOUS
10
175.492
20
-177.789
11
175.492
21
-177.789
0
LINE
8
BLACK
6
CONTINUOUS
10
175.492
20
-177.789
11
175.492
21
-177.788
0
LINE
8
BLACK
6
CONTINUOUS
10
175.492
20
-177.788
11
176.712
21
-175.839
0
LINE
8
BLACK
6
CONTINUOUS
10
176.712
20
-175.839
11
172.148
21
-172.856
0
LINE
8
BLACK
6
CONTINUOUS
10
172.148
20
-172.856
11
162.613
21
-167.345
0
LINE
8
BLACK
6
CONTINUOUS
10
162.613
20
-167.345
11
144.902
21
-160.426
0
LINE
8
BLACK
6
CONTINUOUS
10
144.902
20
-160.426
11
126.873
21
-159.727
0
LINE
8
BLACK
6
CONTINUOUS
10
126.873
20
-159.727
11
121.513
21
-159.727
0
LINE
8
BLACK
6
CONTINUOUS
10
121.513
20
-159.727
11
121.513
21
-161.433
0
LINE
8
BLACK
6
CONTINUOUS
10
121.513
20
-161.433
11
121.513
21
-161.434
0
LINE
8
BLACK
6
CONTINUOUS
10
121.513
20
-161.434
11
121.513
21
-161.434
0
LINE
8
BLACK
6
CONTINUOUS
10
121.513
20
-161.434
11
121.432
21
-162.288
0
LINE
8
BLACK
6
CONTINUOUS
10
121.432
20
-162.288
11
121.431
21
-162.291
0
LINE
8
BLACK
6
CONTINUOUS
10
121.431
20
-162.291
11
121.431
21
-162.292
0
LINE
8
BLACK
6
CONTINUOUS
10
121.431
20
-162.292
11
121.431
21
-162.293
0
LINE
8
BLACK
6
CONTINUOUS
10
121.431
20
-162.293
11
121.189
21
-163.116
0
LINE
8
BLACK
6
CONTINUOUS
10
121.189
20
-163.116
11
121.188
21
-163.118
0
LINE
8
BLACK
6
CONTINUOUS
10
121.188
20
-163.118
11
121.188
21
-163.119
0
LINE
8
BLACK
6
CONTINUOUS
10
121.188
20
-163.119
11
121.188
21
-163.12
0
LINE
8
BLACK
6
CONTINUOUS
10
121.188
20
-163.12
11
120.795
21
-163.883
0
LINE
8
BLACK
6
CONTINUOUS
10
120.795
20
-163.883
11
120.794
21
-163.885
0
LINE
8
BLACK
6
CONTINUOUS
10
120.794
20
-163.885
11
120.793
21
-163.886
0
LINE
8
BLACK
6
CONTINUOUS
10
120.793
20
-163.886
11
120.792
21
-163.887
0
LINE
8
BLACK
6
CONTINUOUS
10
120.792
20
-163.887
11
120.262
21
-164.561
0
LINE
8
BLACK
6
CONTINUOUS
10
120.262
20
-164.561
11
120.261
21
-164.563
0
LINE
8
BLACK
6
CONTINUOUS
10
120.261
20
-164.563
11
120.26
21
-164.564
0
LINE
8
BLACK
6
CONTINUOUS
10
120.26
20
-164.564
11
120.259
21
-164.565
0
LINE
8
BLACK
6
CONTINUOUS
10
120.259
20
-164.565
11
119.611
21
-165.127
0
LINE
8
BLACK
6
CONTINUOUS
10
119.611
20
-165.127
11
119.609
21
-165.128
0
LINE
8
BLACK
6
CONTINUOUS
10
119.609
20
-165.128
11
119.608
21
-165.129
0
LINE
8
BLACK
6
CONTINUOUS
10
119.608
20
-165.129
11
119.607
21
-165.13
0
LINE
8
BLACK
6
CONTINUOUS
10
119.607
20
-165.13
11
118.865
21
-165.559
0
LINE
8
BLACK
6
CONTINUOUS
10
118.865
20
-165.559
11
118.863
21
-165.56
0
LINE
8
BLACK
6
CONTINUOUS
10
118.863
20
-165.56
11
118.862
21
-165.561
0
LINE
8
BLACK
6
CONTINUOUS
10
118.862
20
-165.561
11
118.861
21
-165.561
0
LINE
8
BLACK
6
CONTINUOUS
10
118.861
20
-165.561
11
118.051
21
-165.842
0
LINE
8
BLACK
6
CONTINUOUS
10
118.051
20
-165.842
11
118.048
21
-165.843
0
LINE
8
BLACK
6
CONTINUOUS
10
118.048
20
-165.843
11
118.047
21
-165.843
0
LINE
8
BLACK
6
CONTINUOUS
10
118.047
20
-165.843
11
118.046
21
-165.843
0
LINE
8
BLACK
6
CONTINUOUS
10
118.046
20
-165.843
11
117.197
21
-165.967
0
LINE
8
BLACK
6
CONTINUOUS
10
117.197
20
-165.967
11
117.195
21
-165.967
0
LINE
8
BLACK
6
CONTINUOUS
10
117.195
20
-165.967
11
117.194
21
-165.967
0
LINE
8
BLACK
6
CONTINUOUS
10
117.194
20
-165.967
11
117.192
21
-165.967
0
LINE
8
BLACK
6
CONTINUOUS
10
117.192
20
-165.967
11
116.336
21
-165.927
0
LINE
8
BLACK
6
CONTINUOUS
10
116.336
20
-165.927
11
116.333
21
-165.927
0
LINE
8
BLACK
6
CONTINUOUS
10
116.333
20
-165.927
11
116.332
21
-165.927
0
LINE
8
BLACK
6
CONTINUOUS
10
116.332
20
-165.927
11
116.331
21
-165.926
0
LINE
8
BLACK
6
CONTINUOUS
10
116.331
20
-165.926
11
115.497
21
-165.725
0
LINE
8
BLACK
6
CONTINUOUS
10
115.497
20
-165.725
11
115.495
21
-165.725
0
LINE
8
BLACK
6
CONTINUOUS
10
115.495
20
-165.725
11
115.494
21
-165.724
0
LINE
8
BLACK
6
CONTINUOUS
10
115.494
20
-165.724
11
115.493
21
-165.724
0
LINE
8
BLACK
6
CONTINUOUS
10
115.493
20
-165.724
11
114.712
21
-165.369
0
LINE
8
BLACK
6
CONTINUOUS
10
114.712
20
-165.369
11
114.712
21
-165.369
0
LINE
8
BLACK
6
CONTINUOUS
10
114.712
20
-165.369
11
114.712
21
-165.369
0
LINE
8
BLACK
6
CONTINUOUS
10
114.712
20
-165.369
11
114.71
21
-165.368
0
LINE
8
BLACK
6
CONTINUOUS
10
114.71
20
-165.368
11
114.709
21
-165.367
0
LINE
8
BLACK
6
CONTINUOUS
10
114.709
20
-165.367
11
114.708
21
-165.367
0
LINE
8
BLACK
6
CONTINUOUS
10
114.708
20
-165.367
11
114.008
21
-164.87
0
LINE
8
BLACK
6
CONTINUOUS
10
114.008
20
-164.87
11
114.006
21
-164.869
0
LINE
8
BLACK
6
CONTINUOUS
10
114.006
20
-164.869
11
114.006
21
-164.868
0
LINE
8
BLACK
6
CONTINUOUS
10
114.006
20
-164.868
11
114.005
21
-164.867
0
LINE
8
BLACK
6
CONTINUOUS
10
114.005
20
-164.867
11
113.412
21
-164.248
0
LINE
8
BLACK
6
CONTINUOUS
10
113.412
20
-164.248
11
113.41
21
-164.246
0
LINE
8
BLACK
6
CONTINUOUS
10
113.41
20
-164.246
11
113.409
21
-164.245
0
LINE
8
BLACK
6
CONTINUOUS
10
113.409
20
-164.245
11
113.409
21
-164.244
0
LINE
8
BLACK
6
CONTINUOUS
10
113.409
20
-164.244
11
112.943
21
-163.523
0
LINE
8
BLACK
6
CONTINUOUS
10
112.943
20
-163.523
11
112.942
21
-163.521
0
LINE
8
BLACK
6
CONTINUOUS
10
112.942
20
-163.521
11
112.942
21
-163.52
0
LINE
8
BLACK
6
CONTINUOUS
10
112.942
20
-163.52
11
112.941
21
-163.519
0
LINE
8
BLACK
6
CONTINUOUS
10
112.941
20
-163.519
11
112.621
21
-162.724
0
LINE
8
BLACK
6
CONTINUOUS
10
112.621
20
-162.724
11
112.62
21
-162.721
0
LINE
8
BLACK
6
CONTINUOUS
10
112.62
20
-162.721
11
112.62
21
-162.72
0
LINE
8
BLACK
6
CONTINUOUS
10
112.62
20
-162.72
11
112.619
21
-162.719
0
LINE
8
BLACK
6
CONTINUOUS
10
112.619
20
-162.719
11
112.455
21
-161.877
0
LINE
8
BLACK
6
CONTINUOUS
10
112.455
20
-161.877
11
112.454
21
-161.875
0
LINE
8
BLACK
6
CONTINUOUS
10
112.454
20
-161.875
11
112.454
21
-161.874
0
LINE
8
BLACK
6
CONTINUOUS
10
112.454
20
-161.874
11
112.454
21
-161.874
0
LINE
8
BLACK
6
CONTINUOUS
10
112.454
20
-161.874
11
112.433
21
-161.434
0
LINE
8
BLACK
6
CONTINUOUS
10
112.433
20
-161.434
11
112.433
21
-161.433
0
LINE
8
BLACK
6
CONTINUOUS
10
112.433
20
-161.433
11
112.433
21
-159.727
0
LINE
8
BLACK
6
CONTINUOUS
10
112.433
20
-159.727
11
110.363
21
-159.727
0
LINE
8
BLACK
6
CONTINUOUS
10
110.363
20
-159.727
11
110.355
21
-159.728
0
LINE
8
BLACK
6
CONTINUOUS
10
110.355
20
-159.728
11
110.087
21
-159.756
0
LINE
8
BLACK
6
CONTINUOUS
10
110.087
20
-159.756
11
109.831
21
-159.835
0
LINE
8
BLACK
6
CONTINUOUS
10
109.831
20
-159.835
11
109.596
21
-159.962
0
LINE
8
BLACK
6
CONTINUOUS
10
109.596
20
-159.962
11
109.39
21
-160.133
0
LINE
8
BLACK
6
CONTINUOUS
10
109.39
20
-160.133
11
109.22
21
-160.34
0
LINE
8
BLACK
6
CONTINUOUS
10
109.22
20
-160.34
11
109.095
21
-160.577
0
LINE
8
BLACK
6
CONTINUOUS
10
109.095
20
-160.577
11
109.017
21
-160.833
0
LINE
8
BLACK
6
CONTINUOUS
10
109.017
20
-160.833
11
108.991
21
-161.101
0
LINE
8
BLACK
6
CONTINUOUS
10
108.991
20
-161.101
11
108.991
21
-163.069
0
LINE
8
BLACK
6
CONTINUOUS
10
108.991
20
-163.069
11
108.991
21
-163.07
0
LINE
8
BLACK
6
CONTINUOUS
10
108.991
20
-163.07
11
108.991
21
-163.07
0
LINE
8
BLACK
6
CONTINUOUS
10
108.991
20
-163.07
11
108.964
21
-163.342
0
LINE
8
BLACK
6
CONTINUOUS
10
108.964
20
-163.342
11
108.964
21
-163.342
0
LINE
8
BLACK
6
CONTINUOUS
10
108.964
20
-163.342
11
108.964
21
-163.344
0
LINE
8
BLACK
6
CONTINUOUS
10
108.964
20
-163.344
11
108.963
21
-163.347
0
LINE
8
BLACK
6
CONTINUOUS
10
108.963
20
-163.347
11
108.885
21
-163.608
0
LINE
8
BLACK
6
CONTINUOUS
10
108.885
20
-163.608
11
108.884
21
-163.608
0
LINE
8
BLACK
6
CONTINUOUS
10
108.884
20
-163.608
11
108.884
21
-163.61
0
LINE
8
BLACK
6
CONTINUOUS
10
108.884
20
-163.61
11
108.883
21
-163.612
0
LINE
8
BLACK
6
CONTINUOUS
10
108.883
20
-163.612
11
108.755
21
-163.853
0
LINE
8
BLACK
6
CONTINUOUS
10
108.755
20
-163.853
11
108.754
21
-163.853
0
LINE
8
BLACK
6
CONTINUOUS
10
108.754
20
-163.853
11
108.753
21
-163.855
0
LINE
8
BLACK
6
CONTINUOUS
10
108.753
20
-163.855
11
108.752
21
-163.857
0
LINE
8
BLACK
6
CONTINUOUS
10
108.752
20
-163.857
11
108.58
21
-164.068
0
LINE
8
BLACK
6
CONTINUOUS
10
108.58
20
-164.068
11
108.579
21
-164.068
0
LINE
8
BLACK
6
CONTINUOUS
10
108.579
20
-164.068
11
108.578
21
-164.07
0
LINE
8
BLACK
6
CONTINUOUS
10
108.578
20
-164.07
11
108.576
21
-164.072
0
LINE
8
BLACK
6
CONTINUOUS
10
108.576
20
-164.072
11
108.366
21
-164.245
0
LINE
8
BLACK
6
CONTINUOUS
10
108.366
20
-164.245
11
108.366
21
-164.246
0
LINE
8
BLACK
6
CONTINUOUS
10
108.366
20
-164.246
11
108.364
21
-164.247
0
LINE
8
BLACK
6
CONTINUOUS
10
108.364
20
-164.247
11
108.362
21
-164.248
0
LINE
8
BLACK
6
CONTINUOUS
10
108.362
20
-164.248
11
108.122
21
-164.378
0
LINE
8
BLACK
6
CONTINUOUS
10
108.122
20
-164.378
11
108.122
21
-164.378
0
LINE
8
BLACK
6
CONTINUOUS
10
108.122
20
-164.378
11
108.12
21
-164.379
0
LINE
8
BLACK
6
CONTINUOUS
10
108.12
20
-164.379
11
108.118
21
-164.38
0
LINE
8
BLACK
6
CONTINUOUS
10
108.118
20
-164.38
11
107.857
21
-164.46
0
LINE
8
BLACK
6
CONTINUOUS
10
107.857
20
-164.46
11
107.857
21
-164.46
0
LINE
8
BLACK
6
CONTINUOUS
10
107.857
20
-164.46
11
107.855
21
-164.461
0
LINE
8
BLACK
6
CONTINUOUS
10
107.855
20
-164.461
11
107.853
21
-164.461
0
LINE
8
BLACK
6
CONTINUOUS
10
107.853
20
-164.461
11
107.581
21
-164.49
0
LINE
8
BLACK
6
CONTINUOUS
10
107.581
20
-164.49
11
107.581
21
-164.49
0
LINE
8
BLACK
6
CONTINUOUS
10
107.581
20
-164.49
11
107.58
21
-164.49
0
LINE
8
BLACK
6
CONTINUOUS
10
107.58
20
-164.49
11
107.579
21
-164.49
0
LINE
8
BLACK
6
CONTINUOUS
10
107.579
20
-164.49
11
107.57
21
-164.49
0
LINE
8
BLACK
6
CONTINUOUS
10
107.57
20
-164.49
11
107.57
21
-164.49
0
LINE
8
BLACK
6
CONTINUOUS
10
107.57
20
-164.49
11
57.7203
21
-164.49
0
LINE
8
BLACK
6
CONTINUOUS
10
57.7203
20
-164.49
11
57.7191
21
-164.49
0
LINE
8
BLACK
6
CONTINUOUS
10
57.7191
20
-164.49
11
57.7191
21
-164.49
0
LINE
8
BLACK
6
CONTINUOUS
10
57.7191
20
-164.49
11
57.4477
21
-164.463
0
LINE
8
BLACK
6
CONTINUOUS
10
57.4477
20
-164.463
11
57.4474
21
-164.463
0
LINE
8
BLACK
6
CONTINUOUS
10
57.4474
20
-164.463
11
57.4451
21
-164.463
0
LINE
8
BLACK
6
CONTINUOUS
10
57.4451
20
-164.463
11
57.4429
21
-164.462
0
LINE
8
BLACK
6
CONTINUOUS
10
57.4429
20
-164.462
11
57.1819
21
-164.384
0
LINE
8
BLACK
6
CONTINUOUS
10
57.1819
20
-164.384
11
57.1816
21
-164.383
0
LINE
8
BLACK
6
CONTINUOUS
10
57.1816
20
-164.383
11
57.1795
21
-164.383
0
LINE
8
BLACK
6
CONTINUOUS
10
57.1795
20
-164.383
11
57.1774
21
-164.382
0
LINE
8
BLACK
6
CONTINUOUS
10
57.1774
20
-164.382
11
56.9367
21
-164.254
0
LINE
8
BLACK
6
CONTINUOUS
10
56.9367
20
-164.254
11
56.9364
21
-164.253
0
LINE
8
BLACK
6
CONTINUOUS
10
56.9364
20
-164.253
11
56.9345
21
-164.252
0
LINE
8
BLACK
6
CONTINUOUS
10
56.9345
20
-164.252
11
56.9326
21
-164.251
0
LINE
8
BLACK
6
CONTINUOUS
10
56.9326
20
-164.251
11
56.7213
21
-164.079
0
LINE
8
BLACK
6
CONTINUOUS
10
56.7213
20
-164.079
11
56.7211
21
-164.078
0
LINE
8
BLACK
6
CONTINUOUS
10
56.7211
20
-164.078
11
56.7194
21
-164.077
0
LINE
8
BLACK
6
CONTINUOUS
10
56.7194
20
-164.077
11
56.7179
21
-164.075
0
LINE
8
BLACK
6
CONTINUOUS
10
56.7179
20
-164.075
11
56.5441
21
-163.865
0
LINE
8
BLACK
6
CONTINUOUS
10
56.5441
20
-163.865
11
56.5439
21
-163.865
0
LINE
8
BLACK
6
CONTINUOUS
10
56.5439
20
-163.865
11
56.5426
21
-163.863
0
LINE
8
BLACK
6
CONTINUOUS
10
56.5426
20
-163.863
11
56.5413
21
-163.861
0
LINE
8
BLACK
6
CONTINUOUS
10
56.5413
20
-163.861
11
56.4117
21
-163.621
0
LINE
8
BLACK
6
CONTINUOUS
10
56.4117
20
-163.621
11
56.4115
21
-163.621
0
LINE
8
BLACK
6
CONTINUOUS
10
56.4115
20
-163.621
11
56.4106
21
-163.619
0
LINE
8
BLACK
6
CONTINUOUS
10
56.4106
20
-163.619
11
56.4098
21
-163.617
0
LINE
8
BLACK
6
CONTINUOUS
10
56.4098
20
-163.617
11
56.3292
21
-163.356
0
LINE
8
BLACK
6
CONTINUOUS
10
56.3292
20
-163.356
11
56.329
21
-163.356
0
LINE
8
BLACK
6
CONTINUOUS
10
56.329
20
-163.356
11
56.3286
21
-163.354
0
LINE
8
BLACK
6
CONTINUOUS
10
56.3286
20
-163.354
11
56.3282
21
-163.352
0
LINE
8
BLACK
6
CONTINUOUS
10
56.3282
20
-163.352
11
56.2997
21
-163.08
0
LINE
8
BLACK
6
CONTINUOUS
10
56.2997
20
-163.08
11
56.2996
21
-163.08
0
LINE
8
BLACK
6
CONTINUOUS
10
56.2996
20
-163.08
11
56.2996
21
-163.079
0
LINE
8
BLACK
6
CONTINUOUS
10
56.2996
20
-163.079
11
56.2995
21
-163.078
0
LINE
8
BLACK
6
CONTINUOUS
10
56.2995
20
-163.078
11
56.2995
21
-163.069
0
LINE
8
BLACK
6
CONTINUOUS
10
56.2995
20
-163.069
11
56.2995
21
-163.069
0
LINE
8
BLACK
6
CONTINUOUS
10
56.2995
20
-163.069
11
56.2995
21
-163.068
0
LINE
8
BLACK
6
CONTINUOUS
10
56.2995
20
-163.068
11
56.2995
21
-163.068
0
LINE
8
BLACK
6
CONTINUOUS
10
56.2995
20
-163.068
11
56.2995
21
-163.068
0
LINE
8
BLACK
6
CONTINUOUS
10
56.2995
20
-163.068
11
56.2995
21
-131.724
0
LINE
8
BLACK
6
CONTINUOUS
10
56.2995
20
-131.724
11
53.6534
21
-131.725
0
LINE
8
BLACK
6
CONTINUOUS
10
53.6534
20
-131.725
11
53.6523
21
-131.725
0
LINE
8
BLACK
6
CONTINUOUS
10
53.6523
20
-131.725
11
53.6523
21
-131.725
0
LINE
8
BLACK
6
CONTINUOUS
10
53.6523
20
-131.725
11
52.9426
21
-131.658
0
LINE
8
BLACK
6
CONTINUOUS
10
52.9426
20
-131.658
11
52.9422
21
-131.658
0
LINE
8
BLACK
6
CONTINUOUS
10
52.9422
20
-131.658
11
52.94
21
-131.657
0
LINE
8
BLACK
6
CONTINUOUS
10
52.94
20
-131.657
11
52.9378
21
-131.657
0
LINE
8
BLACK
6
CONTINUOUS
10
52.9378
20
-131.657
11
52.2547
21
-131.453
0
LINE
8
BLACK
6
CONTINUOUS
10
52.2547
20
-131.453
11
52.2543
21
-131.453
0
LINE
8
BLACK
6
CONTINUOUS
10
52.2543
20
-131.453
11
52.2522
21
-131.452
0
LINE
8
BLACK
6
CONTINUOUS
10
52.2522
20
-131.452
11
52.2502
21
-131.451
0
LINE
8
BLACK
6
CONTINUOUS
10
52.2502
20
-131.451
11
51.6196
21
-131.119
0
LINE
8
BLACK
6
CONTINUOUS
10
51.6196
20
-131.119
11
51.6193
21
-131.118
0
LINE
8
BLACK
6
CONTINUOUS
10
51.6193
20
-131.118
11
51.6174
21
-131.117
0
LINE
8
BLACK
6
CONTINUOUS
10
51.6174
20
-131.117
11
51.6156
21
-131.116
0
LINE
8
BLACK
6
CONTINUOUS
10
51.6156
20
-131.116
11
51.0616
21
-130.667
0
LINE
8
BLACK
6
CONTINUOUS
10
51.0616
20
-130.667
11
51.0614
21
-130.667
0
LINE
8
BLACK
6
CONTINUOUS
10
51.0614
20
-130.667
11
51.0598
21
-130.665
0
LINE
8
BLACK
6
CONTINUOUS
10
51.0598
20
-130.665
11
51.0582
21
-130.664
0
LINE
8
BLACK
6
CONTINUOUS
10
51.0582
20
-130.664
11
50.6019
21
-130.116
0
LINE
8
BLACK
6
CONTINUOUS
10
50.6019
20
-130.116
11
50.6017
21
-130.116
0
LINE
8
BLACK
6
CONTINUOUS
10
50.6017
20
-130.116
11
50.6004
21
-130.114
0
LINE
8
BLACK
6
CONTINUOUS
10
50.6004
20
-130.114
11
50.5992
21
-130.112
0
LINE
8
BLACK
6
CONTINUOUS
10
50.5992
20
-130.112
11
50.2581
21
-129.486
0
LINE
8
BLACK
6
CONTINUOUS
10
50.2581
20
-129.486
11
50.2579
21
-129.486
0
LINE
8
BLACK
6
CONTINUOUS
10
50.2579
20
-129.486
11
50.257
21
-129.484
0
LINE
8
BLACK
6
CONTINUOUS
10
50.257
20
-129.484
11
50.2562
21
-129.481
0
LINE
8
BLACK
6
CONTINUOUS
10
50.2562
20
-129.481
11
50.0431
21
-128.801
0
LINE
8
BLACK
6
CONTINUOUS
10
50.0431
20
-128.801
11
50.043
21
-128.801
0
LINE
8
BLACK
6
CONTINUOUS
10
50.043
20
-128.801
11
50.0425
21
-128.799
0
LINE
8
BLACK
6
CONTINUOUS
10
50.0425
20
-128.799
11
50.0421
21
-128.796
0
LINE
8
BLACK
6
CONTINUOUS
10
50.0421
20
-128.796
11
49.9652
21
-128.088
0
LINE
8
BLACK
6
CONTINUOUS
10
49.9652
20
-128.088
11
49.9652
21
-128.087
0
LINE
8
BLACK
6
CONTINUOUS
10
49.9652
20
-128.087
11
49.9652
21
-128.085
0
LINE
8
BLACK
6
CONTINUOUS
10
49.9652
20
-128.085
11
49.9652
21
-128.083
0
LINE
8
BLACK
6
CONTINUOUS
10
49.9652
20
-128.083
11
50.0274
21
-127.373
0
LINE
8
BLACK
6
CONTINUOUS
10
50.0274
20
-127.373
11
50.0275
21
-127.372
0
LINE
8
BLACK
6
CONTINUOUS
10
50.0275
20
-127.372
11
50.0279
21
-127.37
0
LINE
8
BLACK
6
CONTINUOUS
10
50.0279
20
-127.37
11
50.0283
21
-127.368
0
LINE
8
BLACK
6
CONTINUOUS
10
50.0283
20
-127.368
11
50.2273
21
-126.683
0
LINE
8
BLACK
6
CONTINUOUS
10
50.2273
20
-126.683
11
50.2274
21
-126.683
0
LINE
8
BLACK
6
CONTINUOUS
10
50.2274
20
-126.683
11
50.2283
21
-126.681
0
LINE
8
BLACK
6
CONTINUOUS
10
50.2283
20
-126.681
11
50.2291
21
-126.679
0
LINE
8
BLACK
6
CONTINUOUS
10
50.2291
20
-126.679
11
50.5573
21
-126.046
0
LINE
8
BLACK
6
CONTINUOUS
10
50.5573
20
-126.046
11
50.5573
21
-126.046
0
LINE
8
BLACK
6
CONTINUOUS
10
50.5573
20
-126.046
11
50.5573
21
-126.046
0
LINE
8
BLACK
6
CONTINUOUS
10
50.5573
20
-126.046
11
50.5575
21
-126.046
0
LINE
8
BLACK
6
CONTINUOUS
10
50.5575
20
-126.046
11
50.5587
21
-126.044
0
LINE
8
BLACK
6
CONTINUOUS
10
50.5587
20
-126.044
11
50.56
21
-126.042
0
LINE
8
BLACK
6
CONTINUOUS
10
50.56
20
-126.042
11
51.0048
21
-125.485
0
LINE
8
BLACK
6
CONTINUOUS
10
51.0048
20
-125.485
11
51.0048
21
-125.485
0
LINE
8
BLACK
6
CONTINUOUS
10
51.0048
20
-125.485
11
51.0048
21
-125.485
0
LINE
8
BLACK
6
CONTINUOUS
10
51.0048
20
-125.485
11
51.005
21
-125.485
0
LINE
8
BLACK
6
CONTINUOUS
10
51.005
20
-125.485
11
51.0066
21
-125.483
0
LINE
8
BLACK
6
CONTINUOUS
10
51.0066
20
-125.483
11
51.0082
21
-125.481
0
LINE
8
BLACK
6
CONTINUOUS
10
51.0082
20
-125.481
11
51.5528
21
-125.021
0
LINE
8
BLACK
6
CONTINUOUS
10
51.5528
20
-125.021
11
51.553
21
-125.021
0
LINE
8
BLACK
6
CONTINUOUS
10
51.553
20
-125.021
11
51.5549
21
-125.02
0
LINE
8
BLACK
6
CONTINUOUS
10
51.5549
20
-125.02
11
51.5568
21
-125.019
0
LINE
8
BLACK
6
CONTINUOUS
10
51.5568
20
-125.019
11
52.1803
21
-124.673
0
LINE
8
BLACK
6
CONTINUOUS
10
52.1803
20
-124.673
11
52.1806
21
-124.673
0
LINE
8
BLACK
6
CONTINUOUS
10
52.1806
20
-124.673
11
52.1827
21
-124.672
0
LINE
8
BLACK
6
CONTINUOUS
10
52.1827
20
-124.672
11
52.1848
21
-124.671
0
LINE
8
BLACK
6
CONTINUOUS
10
52.1848
20
-124.671
11
52.8636
21
-124.453
0
LINE
8
BLACK
6
CONTINUOUS
10
52.8636
20
-124.453
11
52.8639
21
-124.453
0
LINE
8
BLACK
6
CONTINUOUS
10
52.8639
20
-124.453
11
52.8661
21
-124.453
0
LINE
8
BLACK
6
CONTINUOUS
10
52.8661
20
-124.453
11
52.8682
21
-124.452
0
LINE
8
BLACK
6
CONTINUOUS
10
52.8682
20
-124.452
11
53.5253
21
-124.372
0
LINE
8
BLACK
6
CONTINUOUS
10
53.5253
20
-124.372
11
53.5256
21
-124.372
0
LINE
8
BLACK
6
CONTINUOUS
10
53.5256
20
-124.372
11
53.5293
21
-124.371
0
LINE
8
BLACK
6
CONTINUOUS
10
53.5293
20
-124.371
11
56.2995
21
-124.371
0
LINE
8
BLACK
6
CONTINUOUS
10
56.2995
20
-124.371
11
56.2995
21
-64.5148
0
LINE
8
BLACK
6
CONTINUOUS
10
56.2995
20
-64.5148
11
56.2996
21
-64.5136
0
LINE
8
BLACK
6
CONTINUOUS
10
56.2996
20
-64.5136
11
56.2996
21
-64.5136
0
LINE
8
BLACK
6
CONTINUOUS
10
56.2996
20
-64.5136
11
56.3262
21
-64.2422
0
LINE
8
BLACK
6
CONTINUOUS
10
56.3262
20
-64.2422
11
56.3263
21
-64.2419
0
LINE
8
BLACK
6
CONTINUOUS
10
56.3263
20
-64.2419
11
56.3267
21
-64.2396
0
LINE
8
BLACK
6
CONTINUOUS
10
56.3267
20
-64.2396
11
56.3272
21
-64.2374
0
LINE
8
BLACK
6
CONTINUOUS
10
56.3272
20
-64.2374
11
56.406
21
-63.9764
0
LINE
8
BLACK
6
CONTINUOUS
10
56.406
20
-63.9764
11
56.4061
21
-63.9761
0
LINE
8
BLACK
6
CONTINUOUS
10
56.4061
20
-63.9761
11
56.407
21
-63.974
0
LINE
8
BLACK
6
CONTINUOUS
10
56.407
20
-63.974
11
56.4078
21
-63.9719
0
LINE
8
BLACK
6
CONTINUOUS
10
56.4078
20
-63.9719
11
56.5358
21
-63.7312
0
LINE
8
BLACK
6
CONTINUOUS
10
56.5358
20
-63.7312
11
56.536
21
-63.7309
0
LINE
8
BLACK
6
CONTINUOUS
10
56.536
20
-63.7309
11
56.5373
21
-63.729
0
LINE
8
BLACK
6
CONTINUOUS
10
56.5373
20
-63.729
11
56.5385
21
-63.7271
0
LINE
8
BLACK
6
CONTINUOUS
10
56.5385
20
-63.7271
11
56.7109
21
-63.5158
0
LINE
8
BLACK
6
CONTINUOUS
10
56.7109
20
-63.5158
11
56.7109
21
-63.5158
0
LINE
8
BLACK
6
CONTINUOUS
10
56.7109
20
-63.5158
11
56.7109
21
-63.5158
0
LINE
8
BLACK
6
CONTINUOUS
10
56.7109
20
-63.5158
11
56.7111
21
-63.5156
0
LINE
8
BLACK
6
CONTINUOUS
10
56.7111
20
-63.5156
11
56.7127
21
-63.514
0
LINE
8
BLACK
6
CONTINUOUS
10
56.7127
20
-63.514
11
56.7143
21
-63.5124
0
LINE
8
BLACK
6
CONTINUOUS
10
56.7143
20
-63.5124
11
56.9244
21
-63.3386
0
LINE
8
BLACK
6
CONTINUOUS
10
56.9244
20
-63.3386
11
56.9246
21
-63.3384
0
LINE
8
BLACK
6
CONTINUOUS
10
56.9246
20
-63.3384
11
56.9266
21
-63.3371
0
LINE
8
BLACK
6
CONTINUOUS
10
56.9266
20
-63.3371
11
56.9284
21
-63.3358
0
LINE
8
BLACK
6
CONTINUOUS
10
56.9284
20
-63.3358
11
57.1682
21
-63.2062
0
LINE
8
BLACK
6
CONTINUOUS
10
57.1682
20
-63.2062
11
57.1683
21
-63.2062
0
LINE
8
BLACK
6
CONTINUOUS
10
57.1683
20
-63.2062
11
57.1683
21
-63.2062
0
LINE
8
BLACK
6
CONTINUOUS
10
57.1683
20
-63.2062
11
57.1686
21
-63.206
0
LINE
8
BLACK
6
CONTINUOUS
10
57.1686
20
-63.206
11
57.1707
21
-63.2051
0
LINE
8
BLACK
6
CONTINUOUS
10
57.1707
20
-63.2051
11
57.1727
21
-63.2043
0
LINE
8
BLACK
6
CONTINUOUS
10
57.1727
20
-63.2043
11
57.4332
21
-63.1237
0
LINE
8
BLACK
6
CONTINUOUS
10
57.4332
20
-63.1237
11
57.4335
21
-63.1235
0
LINE
8
BLACK
6
CONTINUOUS
10
57.4335
20
-63.1235
11
57.4358
21
-63.1231
0
LINE
8
BLACK
6
CONTINUOUS
10
57.4358
20
-63.1231
11
57.438
21
-63.1227
0
LINE
8
BLACK
6
CONTINUOUS
10
57.438
20
-63.1227
11
57.7091
21
-63.0942
0
LINE
8
BLACK
6
CONTINUOUS
10
57.7091
20
-63.0942
11
57.7095
21
-63.0941
0
LINE
8
BLACK
6
CONTINUOUS
10
57.7095
20
-63.0941
11
57.7106
21
-63.0941
0
LINE
8
BLACK
6
CONTINUOUS
10
57.7106
20
-63.0941
11
57.7117
21
-63.094
0
LINE
8
BLACK
6
CONTINUOUS
10
57.7117
20
-63.094
11
57.7202
21
-63.094
0
LINE
8
BLACK
6
CONTINUOUS
10
57.7202
20
-63.094
11
57.7203
21
-63.094
0
LINE
8
BLACK
6
CONTINUOUS
10
57.7203
20
-63.094
11
69.825
21
-63.094
0
LINE
8
BLACK
6
CONTINUOUS
10
69.825
20
-63.094
11
69.824
21
-60.4479
0
LINE
8
BLACK
6
CONTINUOUS
10
69.824
20
-60.4479
11
69.8241
21
-60.4468
0
LINE
8
BLACK
6
CONTINUOUS
10
69.8241
20
-60.4468
11
69.8241
21
-60.4468
0
LINE
8
BLACK
6
CONTINUOUS
10
69.8241
20
-60.4468
11
69.8913
21
-59.7371
0
LINE
8
BLACK
6
CONTINUOUS
10
69.8913
20
-59.7371
11
69.8914
21
-59.7367
0
LINE
8
BLACK
6
CONTINUOUS
10
69.8914
20
-59.7367
11
69.8918
21
-59.7345
0
LINE
8
BLACK
6
CONTINUOUS
10
69.8918
20
-59.7345
11
69.8923
21
-59.7323
0
LINE
8
BLACK
6
CONTINUOUS
10
69.8923
20
-59.7323
11
70.096
21
-59.0492
0
LINE
8
BLACK
6
CONTINUOUS
10
70.096
20
-59.0492
11
70.0961
21
-59.0488
0
LINE
8
BLACK
6
CONTINUOUS
10
70.0961
20
-59.0488
11
70.097
21
-59.0467
0
LINE
8
BLACK
6
CONTINUOUS
10
70.097
20
-59.0467
11
70.0979
21
-59.0447
0
LINE
8
BLACK
6
CONTINUOUS
10
70.0979
20
-59.0447
11
70.4304
21
-58.4141
0
LINE
8
BLACK
6
CONTINUOUS
10
70.4304
20
-58.4141
11
70.4306
21
-58.4138
0
LINE
8
BLACK
6
CONTINUOUS
10
70.4306
20
-58.4138
11
70.4319
21
-58.4119
0
LINE
8
BLACK
6
CONTINUOUS
10
70.4319
20
-58.4119
11
70.4331
21
-58.4101
0
LINE
8
BLACK
6
CONTINUOUS
10
70.4331
20
-58.4101
11
70.8818
21
-57.8561
0
LINE
8
BLACK
6
CONTINUOUS
10
70.8818
20
-57.8561
11
70.8821
21
-57.8559
0
LINE
8
BLACK
6
CONTINUOUS
10
70.8821
20
-57.8559
11
70.8837
21
-57.8543
0
LINE
8
BLACK
6
CONTINUOUS
10
70.8837
20
-57.8543
11
70.8853
21
-57.8527
0
LINE
8
BLACK
6
CONTINUOUS
10
70.8853
20
-57.8527
11
71.433
21
-57.3964
0
LINE
8
BLACK
6
CONTINUOUS
10
71.433
20
-57.3964
11
71.433
21
-57.3964
0
LINE
8
BLACK
6
CONTINUOUS
10
71.433
20
-57.3964
11
71.433
21
-57.3964
0
LINE
8
BLACK
6
CONTINUOUS
10
71.433
20
-57.3964
11
71.4333
21
-57.3962
0
LINE
8
BLACK
6
CONTINUOUS
10
71.4333
20
-57.3962
11
71.4352
21
-57.395
0
LINE
8
BLACK
6
CONTINUOUS
10
71.4352
20
-57.395
11
71.4371
21
-57.3937
0
LINE
8
BLACK
6
CONTINUOUS
10
71.4371
20
-57.3937
11
72.063
21
-57.0526
0
LINE
8
BLACK
6
CONTINUOUS
10
72.063
20
-57.0526
11
72.063
21
-57.0526
0
LINE
8
BLACK
6
CONTINUOUS
10
72.063
20
-57.0526
11
72.063
21
-57.0526
0
LINE
8
BLACK
6
CONTINUOUS
10
72.063
20
-57.0526
11
72.0633
21
-57.0524
0
LINE
8
BLACK
6
CONTINUOUS
10
72.0633
20
-57.0524
11
72.0654
21
-57.0515
0
LINE
8
BLACK
6
CONTINUOUS
10
72.0654
20
-57.0515
11
72.0675
21
-57.0507
0
LINE
8
BLACK
6
CONTINUOUS
10
72.0675
20
-57.0507
11
72.7478
21
-56.8376
0
LINE
8
BLACK
6
CONTINUOUS
10
72.7478
20
-56.8376
11
72.7481
21
-56.8375
0
LINE
8
BLACK
6
CONTINUOUS
10
72.7481
20
-56.8375
11
72.7504
21
-56.837
0
LINE
8
BLACK
6
CONTINUOUS
10
72.7504
20
-56.837
11
72.7526
21
-56.8366
0
LINE
8
BLACK
6
CONTINUOUS
10
72.7526
20
-56.8366
11
73.4613
21
-56.7597
0
LINE
8
BLACK
6
CONTINUOUS
10
73.4613
20
-56.7597
11
73.4613
21
-56.7597
0
LINE
8
BLACK
6
CONTINUOUS
10
73.4613
20
-56.7597
11
73.4616
21
-56.7597
0
LINE
8
BLACK
6
CONTINUOUS
10
73.4616
20
-56.7597
11
73.4639
21
-56.7597
0
LINE
8
BLACK
6
CONTINUOUS
10
73.4639
20
-56.7597
11
73.4661
21
-56.7597
0
LINE
8
BLACK
6
CONTINUOUS
10
73.4661
20
-56.7597
11
74.1763
21
-56.8219
0
LINE
8
BLACK
6
CONTINUOUS
10
74.1763
20
-56.8219
11
74.1766
21
-56.822
0
LINE
8
BLACK
6
CONTINUOUS
10
74.1766
20
-56.822
11
74.1789
21
-56.8224
0
LINE
8
BLACK
6
CONTINUOUS
10
74.1789
20
-56.8224
11
74.1811
21
-56.8228
0
LINE
8
BLACK
6
CONTINUOUS
10
74.1811
20
-56.8228
11
74.8656
21
-57.0218
0
LINE
8
BLACK
6
CONTINUOUS
10
74.8656
20
-57.0218
11
74.8659
21
-57.0219
0
LINE
8
BLACK
6
CONTINUOUS
10
74.8659
20
-57.0219
11
74.8681
21
-57.0228
0
LINE
8
BLACK
6
CONTINUOUS
10
74.8681
20
-57.0228
11
74.8701
21
-57.0236
0
LINE
8
BLACK
6
CONTINUOUS
10
74.8701
20
-57.0236
11
75.503
21
-57.3518
0
LINE
8
BLACK
6
CONTINUOUS
10
75.503
20
-57.3518
11
75.503
21
-57.3518
0
LINE
8
BLACK
6
CONTINUOUS
10
75.503
20
-57.3518
11
75.503
21
-57.3518
0
LINE
8
BLACK
6
CONTINUOUS
10
75.503
20
-57.3518
11
75.5033
21
-57.352
0
LINE
8
BLACK
6
CONTINUOUS
10
75.5033
20
-57.352
11
75.5052
21
-57.3532
0
LINE
8
BLACK
6
CONTINUOUS
10
75.5052
20
-57.3532
11
75.5071
21
-57.3545
0
LINE
8
BLACK
6
CONTINUOUS
10
75.5071
20
-57.3545
11
76.0641
21
-57.7993
0
LINE
8
BLACK
6
CONTINUOUS
10
76.0641
20
-57.7993
11
76.0641
21
-57.7993
0
LINE
8
BLACK
6
CONTINUOUS
10
76.0641
20
-57.7993
11
76.0641
21
-57.7993
0
LINE
8
BLACK
6
CONTINUOUS
10
76.0641
20
-57.7993
11
76.0644
21
-57.7995
0
LINE
8
BLACK
6
CONTINUOUS
10
76.0644
20
-57.7995
11
76.066
21
-57.8011
0
LINE
8
BLACK
6
CONTINUOUS
10
76.066
20
-57.8011
11
76.0676
21
-57.8027
0
LINE
8
BLACK
6
CONTINUOUS
10
76.0676
20
-57.8027
11
76.5276
21
-58.3473
0
LINE
8
BLACK
6
CONTINUOUS
10
76.5276
20
-58.3473
11
76.5279
21
-58.3475
0
LINE
8
BLACK
6
CONTINUOUS
10
76.5279
20
-58.3475
11
76.5291
21
-58.3494
0
LINE
8
BLACK
6
CONTINUOUS
10
76.5291
20
-58.3494
11
76.5304
21
-58.3513
0
LINE
8
BLACK
6
CONTINUOUS
10
76.5304
20
-58.3513
11
76.8759
21
-58.9748
0
LINE
8
BLACK
6
CONTINUOUS
10
76.8759
20
-58.9748
11
76.8761
21
-58.9751
0
LINE
8
BLACK
6
CONTINUOUS
10
76.8761
20
-58.9751
11
76.8769
21
-58.9772
0
LINE
8
BLACK
6
CONTINUOUS
10
76.8769
20
-58.9772
11
76.8779
21
-58.9793
0
LINE
8
BLACK
6
CONTINUOUS
10
76.8779
20
-58.9793
11
77.0957
21
-59.6581
0
LINE
8
BLACK
6
CONTINUOUS
10
77.0957
20
-59.6581
11
77.0958
21
-59.6584
0
LINE
8
BLACK
6
CONTINUOUS
10
77.0958
20
-59.6584
11
77.0962
21
-59.6606
0
LINE
8
BLACK
6
CONTINUOUS
10
77.0962
20
-59.6606
11
77.0967
21
-59.6627
0
LINE
8
BLACK
6
CONTINUOUS
10
77.0967
20
-59.6627
11
77.1771
21
-60.3198
0
LINE
8
BLACK
6
CONTINUOUS
10
77.1771
20
-60.3198
11
77.1771
21
-60.3201
0
LINE
8
BLACK
6
CONTINUOUS
10
77.1771
20
-60.3201
11
77.1775
21
-60.3238
0
LINE
8
BLACK
6
CONTINUOUS
10
77.1775
20
-60.3238
11
77.1775
21
-63.094
0
LINE
8
BLACK
6
CONTINUOUS
10
77.1775
20
-63.094
11
103.632
21
-63.094
0
LINE
8
BLACK
6
CONTINUOUS
10
103.632
20
-63.094
11
103.64
21
-63.094
0
LINE
8
BLACK
6
CONTINUOUS
10
103.64
20
-63.094
11
103.908
21
-63.0659
0
LINE
8
BLACK
6
CONTINUOUS
10
103.908
20
-63.0659
11
104.164
21
-62.9867
0
LINE
8
BLACK
6
CONTINUOUS
10
104.164
20
-62.9867
11
104.399
21
-62.8593
0
LINE
8
BLACK
6
CONTINUOUS
10
104.399
20
-62.8593
11
104.605
21
-62.6887
0
LINE
8
BLACK
6
CONTINUOUS
10
104.605
20
-62.6887
11
104.775
21
-62.4812
0
LINE
8
BLACK
6
CONTINUOUS
10
104.775
20
-62.4812
11
104.9
21
-62.2448
0
LINE
8
BLACK
6
CONTINUOUS
10
104.9
20
-62.2448
11
104.978
21
-61.9885
0
LINE
8
BLACK
6
CONTINUOUS
10
104.978
20
-61.9885
11
105.004
21
-61.7208
0
LINE
8
BLACK
6
CONTINUOUS
10
105.004
20
-61.7208
11
105.004
21
-59.7523
0
LINE
8
BLACK
6
CONTINUOUS
10
105.004
20
-59.7523
11
105.004
21
-59.7511
0
LINE
8
BLACK
6
CONTINUOUS
10
105.004
20
-59.7511
11
105.004
21
-59.7511
0
LINE
8
BLACK
6
CONTINUOUS
10
105.004
20
-59.7511
11
105.031
21
-59.4797
0
LINE
8
BLACK
6
CONTINUOUS
10
105.031
20
-59.4797
11
105.031
21
-59.4794
0
LINE
8
BLACK
6
CONTINUOUS
10
105.031
20
-59.4794
11
105.031
21
-59.4771
0
LINE
8
BLACK
6
CONTINUOUS
10
105.031
20
-59.4771
11
105.032
21
-59.4749
0
LINE
8
BLACK
6
CONTINUOUS
10
105.032
20
-59.4749
11
105.11
21
-59.2139
0
LINE
8
BLACK
6
CONTINUOUS
10
105.11
20
-59.2139
11
105.111
21
-59.2136
0
LINE
8
BLACK
6
CONTINUOUS
10
105.111
20
-59.2136
11
105.111
21
-59.2115
0
LINE
8
BLACK
6
CONTINUOUS
10
105.111
20
-59.2115
11
105.112
21
-59.2094
0
LINE
8
BLACK
6
CONTINUOUS
10
105.112
20
-59.2094
11
105.24
21
-58.9687
0
LINE
8
BLACK
6
CONTINUOUS
10
105.24
20
-58.9687
11
105.241
21
-58.9684
0
LINE
8
BLACK
6
CONTINUOUS
10
105.241
20
-58.9684
11
105.242
21
-58.9665
0
LINE
8
BLACK
6
CONTINUOUS
10
105.242
20
-58.9665
11
105.243
21
-58.9646
0
LINE
8
BLACK
6
CONTINUOUS
10
105.243
20
-58.9646
11
105.415
21
-58.7533
0
LINE
8
BLACK
6
CONTINUOUS
10
105.415
20
-58.7533
11
105.415
21
-58.7533
0
LINE
8
BLACK
6
CONTINUOUS
10
105.415
20
-58.7533
11
105.415
21
-58.7533
0
LINE
8
BLACK
6
CONTINUOUS
10
105.415
20
-58.7533
11
105.416
21
-58.7531
0
LINE
8
BLACK
6
CONTINUOUS
10
105.416
20
-58.7531
11
105.417
21
-58.7515
0
LINE
8
BLACK
6
CONTINUOUS
10
105.417
20
-58.7515
11
105.419
21
-58.7499
0
LINE
8
BLACK
6
CONTINUOUS
10
105.419
20
-58.7499
11
105.629
21
-58.5761
0
LINE
8
BLACK
6
CONTINUOUS
10
105.629
20
-58.5761
11
105.629
21
-58.5759
0
LINE
8
BLACK
6
CONTINUOUS
10
105.629
20
-58.5759
11
105.631
21
-58.5746
0
LINE
8
BLACK
6
CONTINUOUS
10
105.631
20
-58.5746
11
105.633
21
-58.5733
0
LINE
8
BLACK
6
CONTINUOUS
10
105.633
20
-58.5733
11
105.873
21
-58.4437
0
LINE
8
BLACK
6
CONTINUOUS
10
105.873
20
-58.4437
11
105.873
21
-58.4437
0
LINE
8
BLACK
6
CONTINUOUS
10
105.873
20
-58.4437
11
105.873
21
-58.4437
0
LINE
8
BLACK
6
CONTINUOUS
10
105.873
20
-58.4437
11
105.873
21
-58.4435
0
LINE
8
BLACK
6
CONTINUOUS
10
105.873
20
-58.4435
11
105.875
21
-58.4426
0
LINE
8
BLACK
6
CONTINUOUS
10
105.875
20
-58.4426
11
105.877
21
-58.4418
0
LINE
8
BLACK
6
CONTINUOUS
10
105.877
20
-58.4418
11
106.138
21
-58.3612
0
LINE
8
BLACK
6
CONTINUOUS
10
106.138
20
-58.3612
11
106.138
21
-58.361
0
LINE
8
BLACK
6
CONTINUOUS
10
106.138
20
-58.361
11
106.14
21
-58.3606
0
LINE
8
BLACK
6
CONTINUOUS
10
106.14
20
-58.3606
11
106.142
21
-58.3602
0
LINE
8
BLACK
6
CONTINUOUS
10
106.142
20
-58.3602
11
106.414
21
-58.3317
0
LINE
8
BLACK
6
CONTINUOUS
10
106.414
20
-58.3317
11
106.414
21
-58.3316
0
LINE
8
BLACK
6
CONTINUOUS
10
106.414
20
-58.3316
11
106.415
21
-58.3316
0
LINE
8
BLACK
6
CONTINUOUS
10
106.415
20
-58.3316
11
106.416
21
-58.3315
0
LINE
8
BLACK
6
CONTINUOUS
10
106.416
20
-58.3315
11
106.425
21
-58.3315
0
LINE
8
BLACK
6
CONTINUOUS
10
106.425
20
-58.3315
11
106.425
21
-58.3315
0
LINE
8
BLACK
6
CONTINUOUS
10
106.425
20
-58.3315
11
122.682
21
-58.3315
0
LINE
8
BLACK
6
CONTINUOUS
10
122.682
20
-58.3315
11
122.69
21
-58.3315
0
LINE
8
BLACK
6
CONTINUOUS
10
122.69
20
-58.3315
11
122.958
21
-58.3034
0
LINE
8
BLACK
6
CONTINUOUS
10
122.958
20
-58.3034
11
123.214
21
-58.2242
0
LINE
8
BLACK
6
CONTINUOUS
10
123.214
20
-58.2242
11
123.449
21
-58.0968
0
LINE
8
BLACK
6
CONTINUOUS
10
123.449
20
-58.0968
11
123.655
21
-57.9262
0
LINE
8
BLACK
6
CONTINUOUS
10
123.655
20
-57.9262
11
123.825
21
-57.7187
0
LINE
8
BLACK
6
CONTINUOUS
10
123.825
20
-57.7187
11
123.95
21
-57.4823
0
LINE
8
BLACK
6
CONTINUOUS
10
123.95
20
-57.4823
11
124.028
21
-57.226
0
LINE
8
BLACK
6
CONTINUOUS
10
124.028
20
-57.226
11
124.054
21
-56.9583
0
LINE
8
BLACK
6
CONTINUOUS
10
124.054
20
-56.9583
11
124.054
21
-56.5773
0
LINE
8
BLACK
6
CONTINUOUS
10
124.054
20
-56.5773
11
124.054
21
-56.5761
0
LINE
8
BLACK
6
CONTINUOUS
10
124.054
20
-56.5761
11
124.054
21
-56.5761
0
LINE
8
BLACK
6
CONTINUOUS
10
124.054
20
-56.5761
11
124.065
21
-56.4651
0
LINE
8
BLACK
6
CONTINUOUS
10
124.065
20
-56.4651
11
124.065
21
-56.4647
0
LINE
8
BLACK
6
CONTINUOUS
10
124.065
20
-56.4647
11
124.066
21
-56.4625
0
LINE
8
BLACK
6
CONTINUOUS
10
124.066
20
-56.4625
11
124.066
21
-56.4603
0
LINE
8
BLACK
6
CONTINUOUS
10
124.066
20
-56.4603
11
124.098
21
-56.3535
0
LINE
8
BLACK
6
CONTINUOUS
10
124.098
20
-56.3535
11
124.098
21
-56.3532
0
LINE
8
BLACK
6
CONTINUOUS
10
124.098
20
-56.3532
11
124.099
21
-56.3511
0
LINE
8
BLACK
6
CONTINUOUS
10
124.099
20
-56.3511
11
124.1
21
-56.349
0
LINE
8
BLACK
6
CONTINUOUS
10
124.1
20
-56.349
11
124.152
21
-56.2505
0
LINE
8
BLACK
6
CONTINUOUS
10
124.152
20
-56.2505
11
124.153
21
-56.2502
0
LINE
8
BLACK
6
CONTINUOUS
10
124.153
20
-56.2502
11
124.154
21
-56.2483
0
LINE
8
BLACK
6
CONTINUOUS
10
124.154
20
-56.2483
11
124.155
21
-56.2464
0
LINE
8
BLACK
6
CONTINUOUS
10
124.155
20
-56.2464
11
124.226
21
-56.16
0
LINE
8
BLACK
6
CONTINUOUS
10
124.226
20
-56.16
11
124.226
21
-56.16
0
LINE
8
BLACK
6
CONTINUOUS
10
124.226
20
-56.16
11
124.226
21
-56.16
0
LINE
8
BLACK
6
CONTINUOUS
10
124.226
20
-56.16
11
124.226
21
-56.1597
0
LINE
8
BLACK
6
CONTINUOUS
10
124.226
20
-56.1597
11
124.227
21
-56.1582
0
LINE
8
BLACK
6
CONTINUOUS
10
124.227
20
-56.1582
11
124.229
21
-56.1565
0
LINE
8
BLACK
6
CONTINUOUS
10
124.229
20
-56.1565
11
124.315
21
-56.0854
0
LINE
8
BLACK
6
CONTINUOUS
10
124.315
20
-56.0854
11
124.315
21
-56.0854
0
LINE
8
BLACK
6
CONTINUOUS
10
124.315
20
-56.0854
11
124.315
21
-56.0854
0
LINE
8
BLACK
6
CONTINUOUS
10
124.315
20
-56.0854
11
124.315
21
-56.0852
0
LINE
8
BLACK
6
CONTINUOUS
10
124.315
20
-56.0852
11
124.317
21
-56.084
0
LINE
8
BLACK
6
CONTINUOUS
10
124.317
20
-56.084
11
124.319
21
-56.0827
0
LINE
8
BLACK
6
CONTINUOUS
10
124.319
20
-56.0827
11
124.417
21
-56.0297
0
LINE
8
BLACK
6
CONTINUOUS
10
124.417
20
-56.0297
11
124.417
21
-56.0297
0
LINE
8
BLACK
6
CONTINUOUS
10
124.417
20
-56.0297
11
124.417
21
-56.0297
0
LINE
8
BLACK
6
CONTINUOUS
10
124.417
20
-56.0297
11
124.417
21
-56.0295
0
LINE
8
BLACK
6
CONTINUOUS
10
124.417
20
-56.0295
11
124.42
21
-56.0286
0
LINE
8
BLACK
6
CONTINUOUS
10
124.42
20
-56.0286
11
124.422
21
-56.0278
0
LINE
8
BLACK
6
CONTINUOUS
10
124.422
20
-56.0278
11
124.528
21
-55.9948
0
LINE
8
BLACK
6
CONTINUOUS
10
124.528
20
-55.9948
11
124.529
21
-55.9947
0
LINE
8
BLACK
6
CONTINUOUS
10
124.529
20
-55.9947
11
124.531
21
-55.9943
0
LINE
8
BLACK
6
CONTINUOUS
10
124.531
20
-55.9943
11
124.533
21
-55.9938
0
LINE
8
BLACK
6
CONTINUOUS
10
124.533
20
-55.9938
11
124.644
21
-55.9822
0
LINE
8
BLACK
6
CONTINUOUS
10
124.644
20
-55.9822
11
124.644
21
-55.9821
0
LINE
8
BLACK
6
CONTINUOUS
10
124.644
20
-55.9821
11
124.645
21
-55.9821
0
LINE
8
BLACK
6
CONTINUOUS
10
124.645
20
-55.9821
11
124.646
21
-55.982
0
LINE
8
BLACK
6
CONTINUOUS
10
124.646
20
-55.982
11
124.649
21
-55.982
0
LINE
8
BLACK
6
CONTINUOUS
10
124.649
20
-55.982
11
124.649
21
-55.982
0
LINE
8
BLACK
6
CONTINUOUS
10
124.649
20
-55.982
11
146.496
21
-55.982
0
LINE
8
BLACK
6
CONTINUOUS
10
146.496
20
-55.982
11
146.497
21
-55.9821
0
LINE
8
BLACK
6
CONTINUOUS
10
146.497
20
-55.9821
11
146.497
21
-55.9821
0
LINE
8
BLACK
6
CONTINUOUS
10
146.497
20
-55.9821
11
146.608
21
-55.993
0
LINE
8
BLACK
6
CONTINUOUS
10
146.608
20
-55.993
11
146.608
21
-55.993
0
LINE
8
BLACK
6
CONTINUOUS
10
146.608
20
-55.993
11
146.611
21
-55.9935
0
LINE
8
BLACK
6
CONTINUOUS
10
146.611
20
-55.9935
11
146.613
21
-55.994
0
LINE
8
BLACK
6
CONTINUOUS
10
146.613
20
-55.994
11
146.72
21
-56.0262
0
LINE
8
BLACK
6
CONTINUOUS
10
146.72
20
-56.0262
11
146.72
21
-56.0263
0
LINE
8
BLACK
6
CONTINUOUS
10
146.72
20
-56.0263
11
146.722
21
-56.0272
0
LINE
8
BLACK
6
CONTINUOUS
10
146.722
20
-56.0272
11
146.724
21
-56.028
0
LINE
8
BLACK
6
CONTINUOUS
10
146.724
20
-56.028
11
146.822
21
-56.0804
0
LINE
8
BLACK
6
CONTINUOUS
10
146.822
20
-56.0804
11
146.823
21
-56.0806
0
LINE
8
BLACK
6
CONTINUOUS
10
146.823
20
-56.0806
11
146.825
21
-56.0819
0
LINE
8
BLACK
6
CONTINUOUS
10
146.825
20
-56.0819
11
146.827
21
-56.0831
0
LINE
8
BLACK
6
CONTINUOUS
10
146.827
20
-56.0831
11
146.913
21
-56.1536
0
LINE
8
BLACK
6
CONTINUOUS
10
146.913
20
-56.1536
11
146.913
21
-56.1536
0
LINE
8
BLACK
6
CONTINUOUS
10
146.913
20
-56.1536
11
146.913
21
-56.1536
0
LINE
8
BLACK
6
CONTINUOUS
10
146.913
20
-56.1536
11
146.913
21
-56.1538
0
LINE
8
BLACK
6
CONTINUOUS
10
146.913
20
-56.1538
11
146.915
21
-56.1554
0
LINE
8
BLACK
6
CONTINUOUS
10
146.915
20
-56.1554
11
146.916
21
-56.157
0
LINE
8
BLACK
6
CONTINUOUS
10
146.916
20
-56.157
11
146.988
21
-56.243
0
LINE
8
BLACK
6
CONTINUOUS
10
146.988
20
-56.243
11
146.988
21
-56.243
0
LINE
8
BLACK
6
CONTINUOUS
10
146.988
20
-56.243
11
146.988
21
-56.243
0
LINE
8
BLACK
6
CONTINUOUS
10
146.988
20
-56.243
11
146.988
21
-56.2433
0
LINE
8
BLACK
6
CONTINUOUS
10
146.988
20
-56.2433
11
146.989
21
-56.2452
0
LINE
8
BLACK
6
CONTINUOUS
10
146.989
20
-56.2452
11
146.99
21
-56.247
0
LINE
8
BLACK
6
CONTINUOUS
10
146.99
20
-56.247
11
147.043
21
-56.3451
0
LINE
8
BLACK
6
CONTINUOUS
10
147.043
20
-56.3451
11
147.043
21
-56.3451
0
LINE
8
BLACK
6
CONTINUOUS
10
147.043
20
-56.3451
11
147.043
21
-56.3451
0
LINE
8
BLACK
6
CONTINUOUS
10
147.043
20
-56.3451
11
147.044
21
-56.3455
0
LINE
8
BLACK
6
CONTINUOUS
10
147.044
20
-56.3455
11
147.044
21
-56.3476
0
LINE
8
BLACK
6
CONTINUOUS
10
147.044
20
-56.3476
11
147.045
21
-56.3496
0
LINE
8
BLACK
6
CONTINUOUS
10
147.045
20
-56.3496
11
147.078
21
-56.4562
0
LINE
8
BLACK
6
CONTINUOUS
10
147.078
20
-56.4562
11
147.078
21
-56.4565
0
LINE
8
BLACK
6
CONTINUOUS
10
147.078
20
-56.4565
11
147.079
21
-56.4588
0
LINE
8
BLACK
6
CONTINUOUS
10
147.079
20
-56.4588
11
147.079
21
-56.461
0
LINE
8
BLACK
6
CONTINUOUS
10
147.079
20
-56.461
11
147.091
21
-56.5719
0
LINE
8
BLACK
6
CONTINUOUS
10
147.091
20
-56.5719
11
147.091
21
-56.5722
0
LINE
8
BLACK
6
CONTINUOUS
10
147.091
20
-56.5722
11
147.091
21
-56.5733
0
LINE
8
BLACK
6
CONTINUOUS
10
147.091
20
-56.5733
11
147.091
21
-56.5744
0
LINE
8
BLACK
6
CONTINUOUS
10
147.091
20
-56.5744
11
147.091
21
-56.5772
0
LINE
8
BLACK
6
CONTINUOUS
10
147.091
20
-56.5772
11
147.091
21
-56.5773
0
LINE
8
BLACK
6
CONTINUOUS
10
147.091
20
-56.5773
11
147.091
21
-56.8959
0
LINE
8
BLACK
6
CONTINUOUS
10
147.091
20
-56.8959
11
147.091
21
-56.9044
0
LINE
8
BLACK
6
CONTINUOUS
10
147.091
20
-56.9044
11
147.119
21
-57.1719
0
LINE
8
BLACK
6
CONTINUOUS
10
147.119
20
-57.1719
11
147.198
21
-57.4276
0
LINE
8
BLACK
6
CONTINUOUS
10
147.198
20
-57.4276
11
147.326
21
-57.6631
0
LINE
8
BLACK
6
CONTINUOUS
10
147.326
20
-57.6631
11
147.496
21
-57.8694
0
LINE
8
BLACK
6
CONTINUOUS
10
147.496
20
-57.8694
11
147.704
21
-58.0387
0
LINE
8
BLACK
6
CONTINUOUS
10
147.704
20
-58.0387
11
147.94
21
-58.1644
0
LINE
8
BLACK
6
CONTINUOUS
10
147.94
20
-58.1644
11
148.197
21
-58.2418
0
LINE
8
BLACK
6
CONTINUOUS
10
148.197
20
-58.2418
11
148.464
21
-58.268
0
LINE
8
BLACK
6
CONTINUOUS
10
148.464
20
-58.268
11
165.546
21
-58.268
0
LINE
8
BLACK
6
CONTINUOUS
10
165.546
20
-58.268
11
165.547
21
-58.2681
0
LINE
8
BLACK
6
CONTINUOUS
10
165.547
20
-58.2681
11
165.547
21
-58.2681
0
LINE
8
BLACK
6
CONTINUOUS
10
165.547
20
-58.2681
11
165.658
21
-58.279
0
LINE
8
BLACK
6
CONTINUOUS
10
165.658
20
-58.279
11
165.658
21
-58.279
0
LINE
8
BLACK
6
CONTINUOUS
10
165.658
20
-58.279
11
165.661
21
-58.2795
0
LINE
8
BLACK
6
CONTINUOUS
10
165.661
20
-58.2795
11
165.663
21
-58.28
0
LINE
8
BLACK
6
CONTINUOUS
10
165.663
20
-58.28
11
165.77
21
-58.3122
0
LINE
8
BLACK
6
CONTINUOUS
10
165.77
20
-58.3122
11
165.77
21
-58.3123
0
LINE
8
BLACK
6
CONTINUOUS
10
165.77
20
-58.3123
11
165.772
21
-58.3132
0
LINE
8
BLACK
6
CONTINUOUS
10
165.772
20
-58.3132
11
165.774
21
-58.314
0
LINE
8
BLACK
6
CONTINUOUS
10
165.774
20
-58.314
11
165.873
21
-58.3664
0
LINE
8
BLACK
6
CONTINUOUS
10
165.873
20
-58.3664
11
165.873
21
-58.3666
0
LINE
8
BLACK
6
CONTINUOUS
10
165.873
20
-58.3666
11
165.875
21
-58.3679
0
LINE
8
BLACK
6
CONTINUOUS
10
165.875
20
-58.3679
11
165.877
21
-58.3691
0
LINE
8
BLACK
6
CONTINUOUS
10
165.877
20
-58.3691
11
165.963
21
-58.4396
0
LINE
8
BLACK
6
CONTINUOUS
10
165.963
20
-58.4396
11
165.963
21
-58.4396
0
LINE
8
BLACK
6
CONTINUOUS
10
165.963
20
-58.4396
11
165.963
21
-58.4396
0
LINE
8
BLACK
6
CONTINUOUS
10
165.963
20
-58.4396
11
165.963
21
-58.4398
0
LINE
8
BLACK
6
CONTINUOUS
10
165.963
20
-58.4398
11
165.965
21
-58.4414
0
LINE
8
BLACK
6
CONTINUOUS
10
165.965
20
-58.4414
11
165.966
21
-58.443
0
LINE
8
BLACK
6
CONTINUOUS
10
165.966
20
-58.443
11
166.038
21
-58.529
0
LINE
8
BLACK
6
CONTINUOUS
10
166.038
20
-58.529
11
166.038
21
-58.529
0
LINE
8
BLACK
6
CONTINUOUS
10
166.038
20
-58.529
11
166.038
21
-58.529
0
LINE
8
BLACK
6
CONTINUOUS
10
166.038
20
-58.529
11
166.038
21
-58.5293
0
LINE
8
BLACK
6
CONTINUOUS
10
166.038
20
-58.5293
11
166.039
21
-58.5312
0
LINE
8
BLACK
6
CONTINUOUS
10
166.039
20
-58.5312
11
166.04
21
-58.533
0
LINE
8
BLACK
6
CONTINUOUS
10
166.04
20
-58.533
11
166.093
21
-58.6311
0
LINE
8
BLACK
6
CONTINUOUS
10
166.093
20
-58.6311
11
166.093
21
-58.6311
0
LINE
8
BLACK
6
CONTINUOUS
10
166.093
20
-58.6311
11
166.093
21
-58.6311
0
LINE
8
BLACK
6
CONTINUOUS
10
166.093
20
-58.6311
11
166.094
21
-58.6315
0
LINE
8
BLACK
6
CONTINUOUS
10
166.094
20
-58.6315
11
166.094
21
-58.6336
0
LINE
8
BLACK
6
CONTINUOUS
10
166.094
20
-58.6336
11
166.095
21
-58.6356
0
LINE
8
BLACK
6
CONTINUOUS
10
166.095
20
-58.6356
11
166.128
21
-58.7422
0
LINE
8
BLACK
6
CONTINUOUS
10
166.128
20
-58.7422
11
166.128
21
-58.7425
0
LINE
8
BLACK
6
CONTINUOUS
10
166.128
20
-58.7425
11
166.129
21
-58.7448
0
LINE
8
BLACK
6
CONTINUOUS
10
166.129
20
-58.7448
11
166.129
21
-58.747
0
LINE
8
BLACK
6
CONTINUOUS
10
166.129
20
-58.747
11
166.141
21
-58.8579
0
LINE
8
BLACK
6
CONTINUOUS
10
166.141
20
-58.8579
11
166.141
21
-58.8582
0
LINE
8
BLACK
6
CONTINUOUS
10
166.141
20
-58.8582
11
166.141
21
-58.8593
0
LINE
8
BLACK
6
CONTINUOUS
10
166.141
20
-58.8593
11
166.141
21
-58.8604
0
LINE
8
BLACK
6
CONTINUOUS
10
166.141
20
-58.8604
11
166.141
21
-58.8632
0
LINE
8
BLACK
6
CONTINUOUS
10
166.141
20
-58.8632
11
166.141
21
-58.8633
0
LINE
8
BLACK
6
CONTINUOUS
10
166.141
20
-58.8633
11
166.141
21
-59.3724
0
LINE
8
BLACK
6
CONTINUOUS
10
166.141
20
-59.3724
11
166.141
21
-59.3809
0
LINE
8
BLACK
6
CONTINUOUS
10
166.141
20
-59.3809
11
166.169
21
-59.6484
0
LINE
8
BLACK
6
CONTINUOUS
10
166.169
20
-59.6484
11
166.248
21
-59.9041
0
LINE
8
BLACK
6
CONTINUOUS
10
166.248
20
-59.9041
11
166.376
21
-60.1396
0
LINE
8
BLACK
6
CONTINUOUS
10
166.376
20
-60.1396
11
166.546
21
-60.3459
0
LINE
8
BLACK
6
CONTINUOUS
10
166.546
20
-60.3459
11
166.754
21
-60.5152
0
LINE
8
BLACK
6
CONTINUOUS
10
166.754
20
-60.5152
11
166.99
21
-60.6409
0
LINE
8
BLACK
6
CONTINUOUS
10
166.99
20
-60.6409
11
167.247
21
-60.7183
0
LINE
8
BLACK
6
CONTINUOUS
10
167.247
20
-60.7183
11
167.514
21
-60.7445
0
LINE
8
BLACK
6
CONTINUOUS
10
167.514
20
-60.7445
11
178.918
21
-60.7445
0
LINE
8
BLACK
6
CONTINUOUS
10
178.918
20
-60.7445
11
178.917
21
-58.0984
0
LINE
8
BLACK
6
CONTINUOUS
10
178.917
20
-58.0984
11
178.917
21
-58.0973
0
LINE
8
BLACK
6
CONTINUOUS
10
178.917
20
-58.0973
11
178.917
21
-58.0973
0
LINE
8
BLACK
6
CONTINUOUS
10
178.917
20
-58.0973
11
178.984
21
-57.3876
0
LINE
8
BLACK
6
CONTINUOUS
10
178.984
20
-57.3876
11
178.984
21
-57.3872
0
LINE
8
BLACK
6
CONTINUOUS
10
178.984
20
-57.3872
11
178.985
21
-57.385
0
LINE
8
BLACK
6
CONTINUOUS
10
178.985
20
-57.385
11
178.985
21
-57.3828
0
LINE
8
BLACK
6
CONTINUOUS
10
178.985
20
-57.3828
11
179.189
21
-56.6997
0
LINE
8
BLACK
6
CONTINUOUS
10
179.189
20
-56.6997
11
179.189
21
-56.6993
0
LINE
8
BLACK
6
CONTINUOUS
10
179.189
20
-56.6993
11
179.19
21
-56.6972
0
LINE
8
BLACK
6
CONTINUOUS
10
179.19
20
-56.6972
11
179.191
21
-56.6952
0
LINE
8
BLACK
6
CONTINUOUS
10
179.191
20
-56.6952
11
179.523
21
-56.0646
0
LINE
8
BLACK
6
CONTINUOUS
10
179.523
20
-56.0646
11
179.524
21
-56.0643
0
LINE
8
BLACK
6
CONTINUOUS
10
179.524
20
-56.0643
11
179.525
21
-56.0624
0
LINE
8
BLACK
6
CONTINUOUS
10
179.525
20
-56.0624
11
179.526
21
-56.0606
0
LINE
8
BLACK
6
CONTINUOUS
10
179.526
20
-56.0606
11
179.975
21
-55.5066
0
LINE
8
BLACK
6
CONTINUOUS
10
179.975
20
-55.5066
11
179.975
21
-55.5064
0
LINE
8
BLACK
6
CONTINUOUS
10
179.975
20
-55.5064
11
179.977
21
-55.5048
0
LINE
8
BLACK
6
CONTINUOUS
10
179.977
20
-55.5048
11
179.978
21
-55.5032
0
LINE
8
BLACK
6
CONTINUOUS
10
179.978
20
-55.5032
11
180.526
21
-55.0469
0
LINE
8
BLACK
6
CONTINUOUS
10
180.526
20
-55.0469
11
180.526
21
-55.0469
0
LINE
8
BLACK
6
CONTINUOUS
10
180.526
20
-55.0469
11
180.526
21
-55.0469
0
LINE
8
BLACK
6
CONTINUOUS
10
180.526
20
-55.0469
11
180.526
21
-55.0467
0
LINE
8
BLACK
6
CONTINUOUS
10
180.526
20
-55.0467
11
180.528
21
-55.0455
0
LINE
8
BLACK
6
CONTINUOUS
10
180.528
20
-55.0455
11
180.53
21
-55.0442
0
LINE
8
BLACK
6
CONTINUOUS
10
180.53
20
-55.0442
11
181.156
21
-54.7031
0
LINE
8
BLACK
6
CONTINUOUS
10
181.156
20
-54.7031
11
181.156
21
-54.7031
0
LINE
8
BLACK
6
CONTINUOUS
10
181.156
20
-54.7031
11
181.156
21
-54.7031
0
LINE
8
BLACK
6
CONTINUOUS
10
181.156
20
-54.7031
11
181.156
21
-54.7029
0
LINE
8
BLACK
6
CONTINUOUS
10
181.156
20
-54.7029
11
181.158
21
-54.702
0
LINE
8
BLACK
6
CONTINUOUS
10
181.158
20
-54.702
11
181.161
21
-54.7012
0
LINE
8
BLACK
6
CONTINUOUS
10
181.161
20
-54.7012
11
181.841
21
-54.4881
0
LINE
8
BLACK
6
CONTINUOUS
10
181.841
20
-54.4881
11
181.841
21
-54.488
0
LINE
8
BLACK
6
CONTINUOUS
10
181.841
20
-54.488
11
181.843
21
-54.4875
0
LINE
8
BLACK
6
CONTINUOUS
10
181.843
20
-54.4875
11
181.846
21
-54.4871
0
LINE
8
BLACK
6
CONTINUOUS
10
181.846
20
-54.4871
11
182.554
21
-54.4102
0
LINE
8
BLACK
6
CONTINUOUS
10
182.554
20
-54.4102
11
182.554
21
-54.4102
0
LINE
8
BLACK
6
CONTINUOUS
10
182.554
20
-54.4102
11
182.555
21
-54.4102
0
LINE
8
BLACK
6
CONTINUOUS
10
182.555
20
-54.4102
11
182.557
21
-54.4102
0
LINE
8
BLACK
6
CONTINUOUS
10
182.557
20
-54.4102
11
182.559
21
-54.4102
0
LINE
8
BLACK
6
CONTINUOUS
10
182.559
20
-54.4102
11
183.269
21
-54.4724
0
LINE
8
BLACK
6
CONTINUOUS
10
183.269
20
-54.4724
11
183.27
21
-54.4725
0
LINE
8
BLACK
6
CONTINUOUS
10
183.27
20
-54.4725
11
183.272
21
-54.4729
0
LINE
8
BLACK
6
CONTINUOUS
10
183.272
20
-54.4729
11
183.274
21
-54.4733
0
LINE
8
BLACK
6
CONTINUOUS
10
183.274
20
-54.4733
11
183.959
21
-54.6723
0
LINE
8
BLACK
6
CONTINUOUS
10
183.959
20
-54.6723
11
183.959
21
-54.6724
0
LINE
8
BLACK
6
CONTINUOUS
10
183.959
20
-54.6724
11
183.961
21
-54.6733
0
LINE
8
BLACK
6
CONTINUOUS
10
183.961
20
-54.6733
11
183.963
21
-54.6741
0
LINE
8
BLACK
6
CONTINUOUS
10
183.963
20
-54.6741
11
184.596
21
-55.0023
0
LINE
8
BLACK
6
CONTINUOUS
10
184.596
20
-55.0023
11
184.596
21
-55.0023
0
LINE
8
BLACK
6
CONTINUOUS
10
184.596
20
-55.0023
11
184.596
21
-55.0023
0
LINE
8
BLACK
6
CONTINUOUS
10
184.596
20
-55.0023
11
184.596
21
-55.0025
0
LINE
8
BLACK
6
CONTINUOUS
10
184.596
20
-55.0025
11
184.598
21
-55.0037
0
LINE
8
BLACK
6
CONTINUOUS
10
184.598
20
-55.0037
11
184.6
21
-55.005
0
LINE
8
BLACK
6
CONTINUOUS
10
184.6
20
-55.005
11
185.157
21
-55.4498
0
LINE
8
BLACK
6
CONTINUOUS
10
185.157
20
-55.4498
11
185.157
21
-55.4498
0
LINE
8
BLACK
6
CONTINUOUS
10
185.157
20
-55.4498
11
185.157
21
-55.4498
0
LINE
8
BLACK
6
CONTINUOUS
10
185.157
20
-55.4498
11
185.157
21
-55.45
0
LINE
8
BLACK
6
CONTINUOUS
10
185.157
20
-55.45
11
185.159
21
-55.4516
0
LINE
8
BLACK
6
CONTINUOUS
10
185.159
20
-55.4516
11
185.161
21
-55.4532
0
LINE
8
BLACK
6
CONTINUOUS
10
185.161
20
-55.4532
11
185.621
21
-55.9978
0
LINE
8
BLACK
6
CONTINUOUS
10
185.621
20
-55.9978
11
185.621
21
-55.998
0
LINE
8
BLACK
6
CONTINUOUS
10
185.621
20
-55.998
11
185.622
21
-55.9999
0
LINE
8
BLACK
6
CONTINUOUS
10
185.622
20
-55.9999
11
185.623
21
-56.0018
0
LINE
8
BLACK
6
CONTINUOUS
10
185.623
20
-56.0018
11
185.969
21
-56.6253
0
LINE
8
BLACK
6
CONTINUOUS
10
185.969
20
-56.6253
11
185.969
21
-56.6256
0
LINE
8
BLACK
6
CONTINUOUS
10
185.969
20
-56.6256
11
185.97
21
-56.6277
0
LINE
8
BLACK
6
CONTINUOUS
10
185.97
20
-56.6277
11
185.971
21
-56.6298
0
LINE
8
BLACK
6
CONTINUOUS
10
185.971
20
-56.6298
11
186.189
21
-57.3086
0
LINE
8
BLACK
6
CONTINUOUS
10
186.189
20
-57.3086
11
186.189
21
-57.3089
0
LINE
8
BLACK
6
CONTINUOUS
10
186.189
20
-57.3089
11
186.189
21
-57.3111
0
LINE
8
BLACK
6
CONTINUOUS
10
186.189
20
-57.3111
11
186.19
21
-57.3132
0
LINE
8
BLACK
6
CONTINUOUS
10
186.19
20
-57.3132
11
186.27
21
-57.9703
0
LINE
8
BLACK
6
CONTINUOUS
10
186.27
20
-57.9703
11
186.27
21
-57.9706
0
LINE
8
BLACK
6
CONTINUOUS
10
186.27
20
-57.9706
11
186.27
21
-57.9743
0
LINE
8
BLACK
6
CONTINUOUS
10
186.27
20
-57.9743
11
186.27
21
-60.7635
0
LINE
8
BLACK
6
CONTINUOUS
10
186.27
20
-60.7635
11
186.271
21
-60.7646
0
LINE
8
BLACK
6
CONTINUOUS
10
186.271
20
-60.7646
11
186.271
21
-60.7683
0
LINE
8
BLACK
6
CONTINUOUS
10
186.271
20
-60.7683
11
186.27
21
-125.768
0
LINE
8
BLACK
6
CONTINUOUS
10
186.27
20
-125.768
11
188.917
21
-125.768
0
LINE
8
BLACK
6
CONTINUOUS
10
188.917
20
-125.768
11
188.918
21
-125.768
0
LINE
8
BLACK
6
CONTINUOUS
10
188.918
20
-125.768
11
188.918
21
-125.768
0
LINE
8
BLACK
6
CONTINUOUS
10
188.918
20
-125.768
11
189.627
21
-125.835
0
LINE
8
BLACK
6
CONTINUOUS
10
189.627
20
-125.835
11
189.628
21
-125.835
0
LINE
8
BLACK
6
CONTINUOUS
10
189.628
20
-125.835
11
189.63
21
-125.835
0
LINE
8
BLACK
6
CONTINUOUS
10
189.63
20
-125.835
11
189.632
21
-125.836
0
LINE
8
BLACK
6
CONTINUOUS
10
189.632
20
-125.836
11
190.315
21
-126.04
0
LINE
8
BLACK
6
CONTINUOUS
10
190.315
20
-126.04
11
190.316
21
-126.04
0
LINE
8
BLACK
6
CONTINUOUS
10
190.316
20
-126.04
11
190.318
21
-126.041
0
LINE
8
BLACK
6
CONTINUOUS
10
190.318
20
-126.041
11
190.32
21
-126.041
0
LINE
8
BLACK
6
CONTINUOUS
10
190.32
20
-126.041
11
190.95
21
-126.374
0
LINE
8
BLACK
6
CONTINUOUS
10
190.95
20
-126.374
11
190.951
21
-126.374
0
LINE
8
BLACK
6
CONTINUOUS
10
190.951
20
-126.374
11
190.953
21
-126.375
0
LINE
8
BLACK
6
CONTINUOUS
10
190.953
20
-126.375
11
190.954
21
-126.377
0
LINE
8
BLACK
6
CONTINUOUS
10
190.954
20
-126.377
11
191.508
21
-126.825
0
LINE
8
BLACK
6
CONTINUOUS
10
191.508
20
-126.825
11
191.509
21
-126.826
0
LINE
8
BLACK
6
CONTINUOUS
10
191.509
20
-126.826
11
191.51
21
-126.827
0
LINE
8
BLACK
6
CONTINUOUS
10
191.51
20
-126.827
11
191.512
21
-126.829
0
LINE
8
BLACK
6
CONTINUOUS
10
191.512
20
-126.829
11
191.968
21
-127.377
0
LINE
8
BLACK
6
CONTINUOUS
10
191.968
20
-127.377
11
191.968
21
-127.377
0
LINE
8
BLACK
6
CONTINUOUS
10
191.968
20
-127.377
11
191.968
21
-127.377
0
LINE
8
BLACK
6
CONTINUOUS
10
191.968
20
-127.377
11
191.968
21
-127.377
0
LINE
8
BLACK
6
CONTINUOUS
10
191.968
20
-127.377
11
191.97
21
-127.379
0
LINE
8
BLACK
6
CONTINUOUS
10
191.97
20
-127.379
11
191.971
21
-127.381
0
LINE
8
BLACK
6
CONTINUOUS
10
191.971
20
-127.381
11
192.312
21
-128.007
0
LINE
8
BLACK
6
CONTINUOUS
10
192.312
20
-128.007
11
192.312
21
-128.007
0
LINE
8
BLACK
6
CONTINUOUS
10
192.312
20
-128.007
11
192.312
21
-128.007
0
LINE
8
BLACK
6
CONTINUOUS
10
192.312
20
-128.007
11
192.312
21
-128.007
0
LINE
8
BLACK
6
CONTINUOUS
10
192.312
20
-128.007
11
192.313
21
-128.009
0
LINE
8
BLACK
6
CONTINUOUS
10
192.313
20
-128.009
11
192.314
21
-128.011
0
LINE
8
BLACK
6
CONTINUOUS
10
192.314
20
-128.011
11
192.527
21
-128.691
0
LINE
8
BLACK
6
CONTINUOUS
10
192.527
20
-128.691
11
192.527
21
-128.692
0
LINE
8
BLACK
6
CONTINUOUS
10
192.527
20
-128.692
11
192.527
21
-128.694
0
LINE
8
BLACK
6
CONTINUOUS
10
192.527
20
-128.694
11
192.528
21
-128.696
0
LINE
8
BLACK
6
CONTINUOUS
10
192.528
20
-128.696
11
192.605
21
-129.405
0
LINE
8
BLACK
6
CONTINUOUS
10
192.605
20
-129.405
11
192.605
21
-129.405
0
LINE
8
BLACK
6
CONTINUOUS
10
192.605
20
-129.405
11
192.605
21
-129.407
0
LINE
8
BLACK
6
CONTINUOUS
10
192.605
20
-129.407
11
192.605
21
-129.41
0
LINE
8
BLACK
6
CONTINUOUS
10
192.605
20
-129.41
11
192.543
21
-130.12
0
LINE
8
BLACK
6
CONTINUOUS
10
192.543
20
-130.12
11
192.543
21
-130.12
0
LINE
8
BLACK
6
CONTINUOUS
10
192.543
20
-130.12
11
192.543
21
-130.12
0
LINE
8
BLACK
6
CONTINUOUS
10
192.543
20
-130.12
11
192.543
21
-130.12
0
LINE
8
BLACK
6
CONTINUOUS
10
192.543
20
-130.12
11
192.542
21
-130.122
0
LINE
8
BLACK
6
CONTINUOUS
10
192.542
20
-130.122
11
192.542
21
-130.125
0
LINE
8
BLACK
6
CONTINUOUS
10
192.542
20
-130.125
11
192.343
21
-130.809
0
LINE
8
BLACK
6
CONTINUOUS
10
192.343
20
-130.809
11
192.343
21
-130.809
0
LINE
8
BLACK
6
CONTINUOUS
10
192.343
20
-130.809
11
192.342
21
-130.812
0
LINE
8
BLACK
6
CONTINUOUS
10
192.342
20
-130.812
11
192.341
21
-130.814
0
LINE
8
BLACK
6
CONTINUOUS
10
192.341
20
-130.814
11
192.013
21
-131.446
0
LINE
8
BLACK
6
CONTINUOUS
10
192.013
20
-131.446
11
192.013
21
-131.446
0
LINE
8
BLACK
6
CONTINUOUS
10
192.013
20
-131.446
11
192.013
21
-131.446
0
LINE
8
BLACK
6
CONTINUOUS
10
192.013
20
-131.446
11
192.013
21
-131.447
0
LINE
8
BLACK
6
CONTINUOUS
10
192.013
20
-131.447
11
192.011
21
-131.449
0
LINE
8
BLACK
6
CONTINUOUS
10
192.011
20
-131.449
11
192.01
21
-131.451
0
LINE
8
BLACK
6
CONTINUOUS
10
192.01
20
-131.451
11
191.565
21
-132.008
0
LINE
8
BLACK
6
CONTINUOUS
10
191.565
20
-132.008
11
191.565
21
-132.008
0
LINE
8
BLACK
6
CONTINUOUS
10
191.565
20
-132.008
11
191.565
21
-132.008
0
LINE
8
BLACK
6
CONTINUOUS
10
191.565
20
-132.008
11
191.565
21
-132.008
0
LINE
8
BLACK
6
CONTINUOUS
10
191.565
20
-132.008
11
191.563
21
-132.009
0
LINE
8
BLACK
6
CONTINUOUS
10
191.563
20
-132.009
11
191.562
21
-132.011
0
LINE
8
BLACK
6
CONTINUOUS
10
191.562
20
-132.011
11
191.017
21
-132.471
0
LINE
8
BLACK
6
CONTINUOUS
10
191.017
20
-132.471
11
191.017
21
-132.471
0
LINE
8
BLACK
6
CONTINUOUS
10
191.017
20
-132.471
11
191.015
21
-132.473
0
LINE
8
BLACK
6
CONTINUOUS
10
191.015
20
-132.473
11
191.013
21
-132.474
0
LINE
8
BLACK
6
CONTINUOUS
10
191.013
20
-132.474
11
190.39
21
-132.819
0
LINE
8
BLACK
6
CONTINUOUS
10
190.39
20
-132.819
11
190.389
21
-132.82
0
LINE
8
BLACK
6
CONTINUOUS
10
190.389
20
-132.82
11
190.387
21
-132.82
0
LINE
8
BLACK
6
CONTINUOUS
10
190.387
20
-132.82
11
190.385
21
-132.821
0
LINE
8
BLACK
6
CONTINUOUS
10
190.385
20
-132.821
11
189.706
21
-133.039
0
LINE
8
BLACK
6
CONTINUOUS
10
189.706
20
-133.039
11
189.706
21
-133.039
0
LINE
8
BLACK
6
CONTINUOUS
10
189.706
20
-133.039
11
189.704
21
-133.04
0
LINE
8
BLACK
6
CONTINUOUS
10
189.704
20
-133.04
11
189.702
21
-133.04
0
LINE
8
BLACK
6
CONTINUOUS
10
189.702
20
-133.04
11
189.045
21
-133.121
0
LINE
8
BLACK
6
CONTINUOUS
10
189.045
20
-133.121
11
189.044
21
-133.121
0
LINE
8
BLACK
6
CONTINUOUS
10
189.044
20
-133.121
11
189.041
21
-133.121
0
LINE
8
BLACK
6
CONTINUOUS
10
189.041
20
-133.121
11
186.27
21
-133.121
0
LINE
8
BLACK
6
CONTINUOUS
10
186.27
20
-133.121
11
186.27
21
-140.004
0
LINE
8
BLACK
6
CONTINUOUS
10
186.27
20
-140.004
11
186.275
21
-140.096
0
LINE
8
BLACK
6
CONTINUOUS
10
186.275
20
-140.096
11
186.311
21
-140.274
0
LINE
8
BLACK
6
CONTINUOUS
10
186.311
20
-140.274
11
186.38
21
-140.441
0
LINE
8
BLACK
6
CONTINUOUS
10
186.38
20
-140.441
11
186.48
21
-140.592
0
LINE
8
BLACK
6
CONTINUOUS
10
186.48
20
-140.592
11
186.608
21
-140.72
0
LINE
8
BLACK
6
CONTINUOUS
10
186.608
20
-140.72
11
186.76
21
-140.822
0
LINE
8
BLACK
6
CONTINUOUS
10
186.76
20
-140.822
11
215.153
21
-159.238
0
LINE
8
BLACK
6
CONTINUOUS
10
215.153
20
-159.238
11
215.156
21
-159.24
0
LINE
8
BLACK
6
CONTINUOUS
10
215.156
20
-159.24
11
215.156
21
-159.24
0
LINE
8
BLACK
6
CONTINUOUS
10
215.156
20
-159.24
11
215.293
21
-159.352
0
LINE
8
BLACK
6
CONTINUOUS
10
215.293
20
-159.352
11
215.293
21
-159.353
0
LINE
8
BLACK
6
CONTINUOUS
10
215.293
20
-159.353
11
215.295
21
-159.354
0
LINE
8
BLACK
6
CONTINUOUS
10
215.295
20
-159.354
11
215.296
21
-159.356
0
LINE
8
BLACK
6
CONTINUOUS
10
215.296
20
-159.356
11
215.411
21
-159.494
0
LINE
8
BLACK
6
CONTINUOUS
10
215.411
20
-159.494
11
215.411
21
-159.495
0
LINE
8
BLACK
6
CONTINUOUS
10
215.411
20
-159.495
11
215.412
21
-159.497
0
LINE
8
BLACK
6
CONTINUOUS
10
215.412
20
-159.497
11
215.413
21
-159.498
0
LINE
8
BLACK
6
CONTINUOUS
10
215.413
20
-159.498
11
215.498
21
-159.657
0
LINE
8
BLACK
6
CONTINUOUS
10
215.498
20
-159.657
11
215.499
21
-159.657
0
LINE
8
BLACK
6
CONTINUOUS
10
215.499
20
-159.657
11
215.5
21
-159.659
0
LINE
8
BLACK
6
CONTINUOUS
10
215.5
20
-159.659
11
215.5
21
-159.661
0
LINE
8
BLACK
6
CONTINUOUS
10
215.5
20
-159.661
11
215.553
21
-159.833
0
LINE
8
BLACK
6
CONTINUOUS
10
215.553
20
-159.833
11
215.553
21
-159.833
0
LINE
8
BLACK
6
CONTINUOUS
10
215.553
20
-159.833
11
215.554
21
-159.835
0
LINE
8
BLACK
6
CONTINUOUS
10
215.554
20
-159.835
11
215.554
21
-159.838
0
LINE
8
BLACK
6
CONTINUOUS
10
215.554
20
-159.838
11
215.573
21
-160.016
0
LINE
8
BLACK
6
CONTINUOUS
10
215.573
20
-160.016
11
215.573
21
-160.017
0
LINE
8
BLACK
6
CONTINUOUS
10
215.573
20
-160.017
11
215.573
21
-160.019
0
LINE
8
BLACK
6
CONTINUOUS
10
215.573
20
-160.019
11
215.573
21
-160.021
0
LINE
8
BLACK
6
CONTINUOUS
10
215.573
20
-160.021
11
215.556
21
-160.2
0
LINE
8
BLACK
6
CONTINUOUS
10
215.556
20
-160.2
11
215.556
21
-160.2
0
LINE
8
BLACK
6
CONTINUOUS
10
215.556
20
-160.2
11
215.556
21
-160.203
0
LINE
8
BLACK
6
CONTINUOUS
10
215.556
20
-160.203
11
215.555
21
-160.205
0
LINE
8
BLACK
6
CONTINUOUS
10
215.555
20
-160.205
11
215.504
21
-160.377
0
LINE
8
BLACK
6
CONTINUOUS
10
215.504
20
-160.377
11
215.504
21
-160.377
0
LINE
8
BLACK
6
CONTINUOUS
10
215.504
20
-160.377
11
215.503
21
-160.379
0
LINE
8
BLACK
6
CONTINUOUS
10
215.503
20
-160.379
11
215.503
21
-160.38
0
LINE
8
BLACK
6
CONTINUOUS
10
215.503
20
-160.38
11
215.464
21
-160.464
0
LINE
8
BLACK
6
CONTINUOUS
10
215.464
20
-160.464
11
215.464
21
-160.465
0
LINE
8
BLACK
6
CONTINUOUS
10
215.464
20
-160.465
11
215.462
21
-160.468
0
LINE
8
BLACK
6
CONTINUOUS
10
215.462
20
-160.468
11
197.407
21
-188.168
0
LINE
8
BLACK
6
CONTINUOUS
10
197.407
20
-188.168
11
197.407
21
-188.169
0
LINE
8
BLACK
6
CONTINUOUS
10
197.407
20
-188.169
11
197.407
21
-188.169
0
LINE
8
BLACK
6
CONTINUOUS
10
197.407
20
-188.169
11
197.406
21
-188.169
0
LINE
8
BLACK
6
CONTINUOUS
10
197.406
20
-188.169
11
197.405
21
-188.171
0
LINE
8
BLACK
6
CONTINUOUS
10
197.405
20
-188.171
11
197.405
21
-188.171
0
LINE
8
BLACK
6
CONTINUOUS
10
197.405
20
-188.171
11
197.293
21
-188.308
0
LINE
8
BLACK
6
CONTINUOUS
10
197.293
20
-188.308
11
197.293
21
-188.308
0
LINE
8
BLACK
6
CONTINUOUS
10
197.293
20
-188.308
11
197.291
21
-188.31
0
LINE
8
BLACK
6
CONTINUOUS
10
197.291
20
-188.31
11
197.289
21
-188.311
0
LINE
8
BLACK
6
CONTINUOUS
10
197.289
20
-188.311
11
197.151
21
-188.426
0
LINE
8
BLACK
6
CONTINUOUS
10
197.151
20
-188.426
11
197.151
21
-188.426
0
LINE
8
BLACK
6
CONTINUOUS
10
197.151
20
-188.426
11
197.149
21
-188.427
0
LINE
8
BLACK
6
CONTINUOUS
10
197.149
20
-188.427
11
197.147
21
-188.428
0
LINE
8
BLACK
6
CONTINUOUS
10
197.147
20
-188.428
11
196.989
21
-188.514
0
LINE
8
BLACK
6
CONTINUOUS
10
196.989
20
-188.514
11
196.988
21
-188.514
0
LINE
8
BLACK
6
CONTINUOUS
10
196.988
20
-188.514
11
196.986
21
-188.515
0
LINE
8
BLACK
6
CONTINUOUS
10
196.986
20
-188.515
11
196.984
21
-188.515
0
LINE
8
BLACK
6
CONTINUOUS
10
196.984
20
-188.515
11
196.812
21
-188.568
0
LINE
8
BLACK
6
CONTINUOUS
10
196.812
20
-188.568
11
196.812
21
-188.568
0
LINE
8
BLACK
6
CONTINUOUS
10
196.812
20
-188.568
11
196.812
21
-188.568
0
LINE
8
BLACK
6
CONTINUOUS
10
106.418
20
-58.3815
11
106.15
21
-58.4096
0
LINE
8
BLACK
6
CONTINUOUS
10
106.15
20
-58.4096
11
105.894
21
-58.4888
0
LINE
8
BLACK
6
CONTINUOUS
10
105.894
20
-58.4888
11
105.659
21
-58.6162
0
LINE
8
BLACK
6
CONTINUOUS
10
105.659
20
-58.6162
11
105.453
21
-58.7868
0
LINE
8
BLACK
6
CONTINUOUS
10
105.453
20
-58.7868
11
105.283
21
-58.9943
0
LINE
8
BLACK
6
CONTINUOUS
10
105.283
20
-58.9943
11
105.158
21
-59.2307
0
LINE
8
BLACK
6
CONTINUOUS
10
105.158
20
-59.2307
11
105.08
21
-59.487
0
LINE
8
BLACK
6
CONTINUOUS
10
105.08
20
-59.487
11
105.054
21
-59.7547
0
LINE
8
BLACK
6
CONTINUOUS
10
105.054
20
-59.7547
11
105.054
21
-61.7232
0
LINE
8
BLACK
6
CONTINUOUS
10
105.054
20
-61.7232
11
105.054
21
-61.7244
0
LINE
8
BLACK
6
CONTINUOUS
10
105.054
20
-61.7244
11
105.054
21
-61.7244
0
LINE
8
BLACK
6
CONTINUOUS
10
105.054
20
-61.7244
11
105.027
21
-61.9958
0
LINE
8
BLACK
6
CONTINUOUS
10
105.027
20
-61.9958
11
105.027
21
-61.9961
0
LINE
8
BLACK
6
CONTINUOUS
10
105.027
20
-61.9961
11
105.027
21
-61.9984
0
LINE
8
BLACK
6
CONTINUOUS
10
105.027
20
-61.9984
11
105.026
21
-62.0006
0
LINE
8
BLACK
6
CONTINUOUS
10
105.026
20
-62.0006
11
104.948
21
-62.2616
0
LINE
8
BLACK
6
CONTINUOUS
10
104.948
20
-62.2616
11
104.947
21
-62.2619
0
LINE
8
BLACK
6
CONTINUOUS
10
104.947
20
-62.2619
11
104.947
21
-62.264
0
LINE
8
BLACK
6
CONTINUOUS
10
104.947
20
-62.264
11
104.946
21
-62.2661
0
LINE
8
BLACK
6
CONTINUOUS
10
104.946
20
-62.2661
11
104.818
21
-62.5068
0
LINE
8
BLACK
6
CONTINUOUS
10
104.818
20
-62.5068
11
104.817
21
-62.5071
0
LINE
8
BLACK
6
CONTINUOUS
10
104.817
20
-62.5071
11
104.816
21
-62.509
0
LINE
8
BLACK
6
CONTINUOUS
10
104.816
20
-62.509
11
104.815
21
-62.5109
0
LINE
8
BLACK
6
CONTINUOUS
10
104.815
20
-62.5109
11
104.643
21
-62.7222
0
LINE
8
BLACK
6
CONTINUOUS
10
104.643
20
-62.7222
11
104.642
21
-62.7224
0
LINE
8
BLACK
6
CONTINUOUS
10
104.642
20
-62.7224
11
104.641
21
-62.7241
0
LINE
8
BLACK
6
CONTINUOUS
10
104.641
20
-62.7241
11
104.639
21
-62.7256
0
LINE
8
BLACK
6
CONTINUOUS
10
104.639
20
-62.7256
11
104.429
21
-62.8994
0
LINE
8
BLACK
6
CONTINUOUS
10
104.429
20
-62.8994
11
104.429
21
-62.8996
0
LINE
8
BLACK
6
CONTINUOUS
10
104.429
20
-62.8996
11
104.427
21
-62.9009
0
LINE
8
BLACK
6
CONTINUOUS
10
104.427
20
-62.9009
11
104.425
21
-62.9022
0
LINE
8
BLACK
6
CONTINUOUS
10
104.425
20
-62.9022
11
104.185
21
-63.0318
0
LINE
8
BLACK
6
CONTINUOUS
10
104.185
20
-63.0318
11
104.185
21
-63.032
0
LINE
8
BLACK
6
CONTINUOUS
10
104.185
20
-63.032
11
104.183
21
-63.0329
0
LINE
8
BLACK
6
CONTINUOUS
10
104.183
20
-63.0329
11
104.181
21
-63.0337
0
LINE
8
BLACK
6
CONTINUOUS
10
104.181
20
-63.0337
11
103.92
21
-63.1143
0
LINE
8
BLACK
6
CONTINUOUS
10
103.92
20
-63.1143
11
103.92
21
-63.1144
0
LINE
8
BLACK
6
CONTINUOUS
10
103.92
20
-63.1144
11
103.918
21
-63.1149
0
LINE
8
BLACK
6
CONTINUOUS
10
103.918
20
-63.1149
11
103.916
21
-63.1153
0
LINE
8
BLACK
6
CONTINUOUS
10
103.916
20
-63.1153
11
103.644
21
-63.1438
0
LINE
8
BLACK
6
CONTINUOUS
10
103.644
20
-63.1438
11
103.644
21
-63.1439
0
LINE
8
BLACK
6
CONTINUOUS
10
103.644
20
-63.1439
11
103.643
21
-63.1439
0
LINE
8
BLACK
6
CONTINUOUS
10
103.643
20
-63.1439
11
103.642
21
-63.144
0
LINE
8
BLACK
6
CONTINUOUS
10
103.642
20
-63.144
11
103.633
21
-63.144
0
LINE
8
BLACK
6
CONTINUOUS
10
103.633
20
-63.144
11
103.633
21
-63.144
0
LINE
8
BLACK
6
CONTINUOUS
10
103.633
20
-63.144
11
77.1537
21
-63.144
0
LINE
8
BLACK
6
CONTINUOUS
10
77.1537
20
-63.144
11
77.1525
21
-63.1441
0
LINE
8
BLACK
6
CONTINUOUS
10
77.1525
20
-63.1441
11
77.1513
21
-63.144
0
LINE
8
BLACK
6
CONTINUOUS
10
77.1513
20
-63.144
11
77.1513
21
-63.144
0
LINE
8
BLACK
6
CONTINUOUS
10
77.1513
20
-63.144
11
77.1476
21
-63.1436
0
LINE
8
BLACK
6
CONTINUOUS
10
77.1476
20
-63.1436
11
77.1429
21
-63.1422
0
LINE
8
BLACK
6
CONTINUOUS
10
77.1429
20
-63.1422
11
77.1385
21
-63.1399
0
LINE
8
BLACK
6
CONTINUOUS
10
77.1385
20
-63.1399
11
77.1347
21
-63.1368
0
LINE
8
BLACK
6
CONTINUOUS
10
77.1347
20
-63.1368
11
77.1316
21
-63.133
0
LINE
8
BLACK
6
CONTINUOUS
10
77.1316
20
-63.133
11
77.1293
21
-63.1286
0
LINE
8
BLACK
6
CONTINUOUS
10
77.1293
20
-63.1286
11
77.1279
21
-63.1239
0
LINE
8
BLACK
6
CONTINUOUS
10
77.1279
20
-63.1239
11
77.1274
21
-63.119
0
LINE
8
BLACK
6
CONTINUOUS
10
77.1274
20
-63.119
11
77.1275
21
-63.1178
0
LINE
8
BLACK
6
CONTINUOUS
10
77.1275
20
-63.1178
11
77.1275
21
-60.3265
0
LINE
8
BLACK
6
CONTINUOUS
10
77.1275
20
-60.3265
11
77.0473
21
-59.6711
0
LINE
8
BLACK
6
CONTINUOUS
10
77.0473
20
-59.6711
11
76.831
21
-58.9969
0
LINE
8
BLACK
6
CONTINUOUS
10
76.831
20
-58.9969
11
76.4879
21
-58.3776
0
LINE
8
BLACK
6
CONTINUOUS
10
76.4879
20
-58.3776
11
76.031
21
-57.8368
0
LINE
8
BLACK
6
CONTINUOUS
10
76.031
20
-57.8368
11
75.4778
21
-57.3951
0
LINE
8
BLACK
6
CONTINUOUS
10
75.4778
20
-57.3951
11
74.8493
21
-57.0691
0
LINE
8
BLACK
6
CONTINUOUS
10
74.8493
20
-57.0691
11
74.1695
21
-56.8715
0
LINE
8
BLACK
6
CONTINUOUS
10
74.1695
20
-56.8715
11
73.4642
21
-56.8097
0
LINE
8
BLACK
6
CONTINUOUS
10
73.4642
20
-56.8097
11
72.7604
21
-56.886
0
LINE
8
BLACK
6
CONTINUOUS
10
72.7604
20
-56.886
11
72.0848
21
-57.0976
0
LINE
8
BLACK
6
CONTINUOUS
10
72.0848
20
-57.0976
11
71.4631
21
-57.4364
0
LINE
8
BLACK
6
CONTINUOUS
10
71.4631
20
-57.4364
11
70.9192
21
-57.8895
0
LINE
8
BLACK
6
CONTINUOUS
10
70.9192
20
-57.8895
11
70.4735
21
-58.4396
0
LINE
8
BLACK
6
CONTINUOUS
10
70.4735
20
-58.4396
11
70.1432
21
-59.0658
0
LINE
8
BLACK
6
CONTINUOUS
10
70.1432
20
-59.0658
11
69.9409
21
-59.7442
0
LINE
8
BLACK
6
CONTINUOUS
10
69.9409
20
-59.7442
11
69.874
21
-60.4503
0
LINE
8
BLACK
6
CONTINUOUS
10
69.874
20
-60.4503
11
69.875
21
-63.1178
0
LINE
8
BLACK
6
CONTINUOUS
10
69.875
20
-63.1178
11
69.8751
21
-63.119
0
LINE
8
BLACK
6
CONTINUOUS
10
69.8751
20
-63.119
11
69.8746
21
-63.1239
0
LINE
8
BLACK
6
CONTINUOUS
10
69.8746
20
-63.1239
11
69.8734
21
-63.128
0
LINE
8
BLACK
6
CONTINUOUS
10
69.8734
20
-63.128
11
69.8732
21
-63.1285
0
LINE
8
BLACK
6
CONTINUOUS
10
69.8732
20
-63.1285
11
69.8732
21
-63.1286
0
LINE
8
BLACK
6
CONTINUOUS
10
69.8732
20
-63.1286
11
69.8716
21
-63.1317
0
LINE
8
BLACK
6
CONTINUOUS
10
69.8716
20
-63.1317
11
69.8709
21
-63.1329
0
LINE
8
BLACK
6
CONTINUOUS
10
69.8709
20
-63.1329
11
69.8709
21
-63.133
0
LINE
8
BLACK
6
CONTINUOUS
10
69.8709
20
-63.133
11
69.8709
21
-63.133
0
LINE
8
BLACK
6
CONTINUOUS
10
69.8709
20
-63.133
11
69.8682
21
-63.1362
0
LINE
8
BLACK
6
CONTINUOUS
10
69.8682
20
-63.1362
11
69.8679
21
-63.1366
0
LINE
8
BLACK
6
CONTINUOUS
10
69.8679
20
-63.1366
11
69.8678
21
-63.1368
0
LINE
8
BLACK
6
CONTINUOUS
10
69.8678
20
-63.1368
11
69.864
21
-63.1399
0
LINE
8
BLACK
6
CONTINUOUS
10
69.864
20
-63.1399
11
69.8601
21
-63.142
0
LINE
8
BLACK
6
CONTINUOUS
10
69.8601
20
-63.142
11
69.8596
21
-63.1422
0
LINE
8
BLACK
6
CONTINUOUS
10
69.8596
20
-63.1422
11
69.8596
21
-63.1422
0
LINE
8
BLACK
6
CONTINUOUS
10
69.8596
20
-63.1422
11
69.8596
21
-63.1422
0
LINE
8
BLACK
6
CONTINUOUS
10
69.8596
20
-63.1422
11
69.8549
21
-63.1436
0
LINE
8
BLACK
6
CONTINUOUS
10
69.8549
20
-63.1436
11
69.8512
21
-63.144
0
LINE
8
BLACK
6
CONTINUOUS
10
69.8512
20
-63.144
11
69.8512
21
-63.144
0
LINE
8
BLACK
6
CONTINUOUS
10
69.8512
20
-63.144
11
69.85
21
-63.1441
0
LINE
8
BLACK
6
CONTINUOUS
10
69.85
20
-63.1441
11
69.8488
21
-63.144
0
LINE
8
BLACK
6
CONTINUOUS
10
69.8488
20
-63.144
11
57.7216
21
-63.144
0
LINE
8
BLACK
6
CONTINUOUS
10
57.7216
20
-63.144
11
57.7131
21
-63.144
0
LINE
8
BLACK
6
CONTINUOUS
10
57.7131
20
-63.144
11
57.4456
21
-63.1721
0
LINE
8
BLACK
6
CONTINUOUS
10
57.4456
20
-63.1721
11
57.1899
21
-63.2513
0
LINE
8
BLACK
6
CONTINUOUS
10
57.1899
20
-63.2513
11
56.9544
21
-63.3787
0
LINE
8
BLACK
6
CONTINUOUS
10
56.9544
20
-63.3787
11
56.7481
21
-63.5493
0
LINE
8
BLACK
6
CONTINUOUS
10
56.7481
20
-63.5493
11
56.5788
21
-63.7568
0
LINE
8
BLACK
6
CONTINUOUS
10
56.5788
20
-63.7568
11
56.4531
21
-63.9932
0
LINE
8
BLACK
6
CONTINUOUS
10
56.4531
20
-63.9932
11
56.3757
21
-64.2495
0
LINE
8
BLACK
6
CONTINUOUS
10
56.3757
20
-64.2495
11
56.3495
21
-64.5172
0
LINE
8
BLACK
6
CONTINUOUS
10
56.3495
20
-64.5172
11
56.3495
21
-124.395
0
LINE
8
BLACK
6
CONTINUOUS
10
56.3495
20
-124.395
11
56.3496
21
-124.396
0
LINE
8
BLACK
6
CONTINUOUS
10
56.3496
20
-124.396
11
56.3491
21
-124.401
0
LINE
8
BLACK
6
CONTINUOUS
10
56.3491
20
-124.401
11
56.3477
21
-124.406
0
LINE
8
BLACK
6
CONTINUOUS
10
56.3477
20
-124.406
11
56.3454
21
-124.41
0
LINE
8
BLACK
6
CONTINUOUS
10
56.3454
20
-124.41
11
56.3423
21
-124.414
0
LINE
8
BLACK
6
CONTINUOUS
10
56.3423
20
-124.414
11
56.3385
21
-124.417
0
LINE
8
BLACK
6
CONTINUOUS
10
56.3385
20
-124.417
11
56.3341
21
-124.42
0
LINE
8
BLACK
6
CONTINUOUS
10
56.3341
20
-124.42
11
56.3294
21
-124.421
0
LINE
8
BLACK
6
CONTINUOUS
10
56.3294
20
-124.421
11
56.3257
21
-124.421
0
LINE
8
BLACK
6
CONTINUOUS
10
56.3257
20
-124.421
11
56.3257
21
-124.421
0
LINE
8
BLACK
6
CONTINUOUS
10
56.3257
20
-124.421
11
56.3245
21
-124.422
0
LINE
8
BLACK
6
CONTINUOUS
10
56.3245
20
-124.422
11
56.3233
21
-124.421
0
LINE
8
BLACK
6
CONTINUOUS
10
56.3233
20
-124.421
11
53.532
21
-124.421
0
LINE
8
BLACK
6
CONTINUOUS
10
53.532
20
-124.421
11
52.8766
21
-124.502
0
LINE
8
BLACK
6
CONTINUOUS
10
52.8766
20
-124.502
11
52.2024
21
-124.718
0
LINE
8
BLACK
6
CONTINUOUS
10
52.2024
20
-124.718
11
51.5831
21
-125.061
0
LINE
8
BLACK
6
CONTINUOUS
10
51.5831
20
-125.061
11
51.0423
21
-125.518
0
LINE
8
BLACK
6
CONTINUOUS
10
51.0423
20
-125.518
11
50.6006
21
-126.071
0
LINE
8
BLACK
6
CONTINUOUS
10
50.6006
20
-126.071
11
50.2746
21
-126.7
0
LINE
8
BLACK
6
CONTINUOUS
10
50.2746
20
-126.7
11
50.077
21
-127.38
0
LINE
8
BLACK
6
CONTINUOUS
10
50.077
20
-127.38
11
50.0152
21
-128.085
0
LINE
8
BLACK
6
CONTINUOUS
10
50.0152
20
-128.085
11
50.0915
21
-128.789
0
LINE
8
BLACK
6
CONTINUOUS
10
50.0915
20
-128.789
11
50.3031
21
-129.464
0
LINE
8
BLACK
6
CONTINUOUS
10
50.3031
20
-129.464
11
50.6419
21
-130.086
0
LINE
8
BLACK
6
CONTINUOUS
10
50.6419
20
-130.086
11
51.095
21
-130.63
0
LINE
8
BLACK
6
CONTINUOUS
10
51.095
20
-130.63
11
51.6451
21
-131.075
0
LINE
8
BLACK
6
CONTINUOUS
10
51.6451
20
-131.075
11
52.2713
21
-131.406
0
LINE
8
BLACK
6
CONTINUOUS
10
52.2713
20
-131.406
11
52.9497
21
-131.608
0
LINE
8
BLACK
6
CONTINUOUS
10
52.9497
20
-131.608
11
53.6558
21
-131.675
0
LINE
8
BLACK
6
CONTINUOUS
10
53.6558
20
-131.675
11
56.3233
21
-131.674
0
LINE
8
BLACK
6
CONTINUOUS
10
56.3233
20
-131.674
11
56.3245
21
-131.674
0
LINE
8
BLACK
6
CONTINUOUS
10
56.3245
20
-131.674
11
56.329
21
-131.674
0
LINE
8
BLACK
6
CONTINUOUS
10
56.329
20
-131.674
11
56.3294
21
-131.674
0
LINE
8
BLACK
6
CONTINUOUS
10
56.3294
20
-131.674
11
56.3294
21
-131.674
0
LINE
8
BLACK
6
CONTINUOUS
10
56.3294
20
-131.674
11
56.3294
21
-131.674
0
LINE
8
BLACK
6
CONTINUOUS
10
56.3294
20
-131.674
11
56.3327
21
-131.675
0
LINE
8
BLACK
6
CONTINUOUS
10
56.3327
20
-131.675
11
56.3341
21
-131.676
0
LINE
8
BLACK
6
CONTINUOUS
10
56.3341
20
-131.676
11
56.3341
21
-131.676
0
LINE
8
BLACK
6
CONTINUOUS
10
56.3341
20
-131.676
11
56.3341
21
-131.676
0
LINE
8
BLACK
6
CONTINUOUS
10
56.3341
20
-131.676
11
56.336
21
-131.677
0
LINE
8
BLACK
6
CONTINUOUS
10
56.336
20
-131.677
11
56.3384
21
-131.678
0
LINE
8
BLACK
6
CONTINUOUS
10
56.3384
20
-131.678
11
56.3385
21
-131.678
0
LINE
8
BLACK
6
CONTINUOUS
10
56.3385
20
-131.678
11
56.3385
21
-131.678
0
LINE
8
BLACK
6
CONTINUOUS
10
56.3385
20
-131.678
11
56.3423
21
-131.681
0
LINE
8
BLACK
6
CONTINUOUS
10
56.3423
20
-131.681
11
56.3454
21
-131.685
0
LINE
8
BLACK
6
CONTINUOUS
10
56.3454
20
-131.685
11
56.3477
21
-131.689
0
LINE
8
BLACK
6
CONTINUOUS
10
56.3477
20
-131.689
11
56.3491
21
-131.694
0
LINE
8
BLACK
6
CONTINUOUS
10
56.3491
20
-131.694
11
56.3495
21
-131.698
0
LINE
8
BLACK
6
CONTINUOUS
10
56.3495
20
-131.698
11
56.3495
21
-131.698
0
LINE
8
BLACK
6
CONTINUOUS
10
56.3495
20
-131.698
11
56.3496
21
-131.699
0
LINE
8
BLACK
6
CONTINUOUS
10
56.3496
20
-131.699
11
56.3495
21
-131.7
0
LINE
8
BLACK
6
CONTINUOUS
10
56.3495
20
-131.7
11
56.3495
21
-163.068
0
LINE
8
BLACK
6
CONTINUOUS
10
56.3495
20
-163.068
11
56.3495
21
-163.076
0
LINE
8
BLACK
6
CONTINUOUS
10
56.3495
20
-163.076
11
56.3776
21
-163.344
0
LINE
8
BLACK
6
CONTINUOUS
10
56.3776
20
-163.344
11
56.4568
21
-163.6
0
LINE
8
BLACK
6
CONTINUOUS
10
56.4568
20
-163.6
11
56.5842
21
-163.835
0
LINE
8
BLACK
6
CONTINUOUS
10
56.5842
20
-163.835
11
56.7548
21
-164.041
0
LINE
8
BLACK
6
CONTINUOUS
10
56.7548
20
-164.041
11
56.9623
21
-164.211
0
LINE
8
BLACK
6
CONTINUOUS
10
56.9623
20
-164.211
11
57.1987
21
-164.336
0
LINE
8
BLACK
6
CONTINUOUS
10
57.1987
20
-164.336
11
57.455
21
-164.414
0
LINE
8
BLACK
6
CONTINUOUS
10
57.455
20
-164.414
11
57.7227
21
-164.44
0
LINE
8
BLACK
6
CONTINUOUS
10
57.7227
20
-164.44
11
107.569
21
-164.44
0
LINE
8
BLACK
6
CONTINUOUS
10
107.569
20
-164.44
11
107.577
21
-164.44
0
LINE
8
BLACK
6
CONTINUOUS
10
107.577
20
-164.44
11
107.845
21
-164.412
0
LINE
8
BLACK
6
CONTINUOUS
10
107.845
20
-164.412
11
108.101
21
-164.333
0
LINE
8
BLACK
6
CONTINUOUS
10
108.101
20
-164.333
11
108.336
21
-164.205
0
LINE
8
BLACK
6
CONTINUOUS
10
108.336
20
-164.205
11
108.542
21
-164.035
0
LINE
8
BLACK
6
CONTINUOUS
10
108.542
20
-164.035
11
108.712
21
-163.827
0
LINE
8
BLACK
6
CONTINUOUS
10
108.712
20
-163.827
11
108.837
21
-163.591
0
LINE
8
BLACK
6
CONTINUOUS
10
108.837
20
-163.591
11
108.915
21
-163.334
0
LINE
8
BLACK
6
CONTINUOUS
10
108.915
20
-163.334
11
108.941
21
-163.067
0
LINE
8
BLACK
6
CONTINUOUS
10
108.941
20
-163.067
11
108.941
21
-161.098
0
LINE
8
BLACK
6
CONTINUOUS
10
108.941
20
-161.098
11
108.941
21
-161.097
0
LINE
8
BLACK
6
CONTINUOUS
10
108.941
20
-161.097
11
108.941
21
-161.097
0
LINE
8
BLACK
6
CONTINUOUS
10
108.941
20
-161.097
11
108.968
21
-160.826
0
LINE
8
BLACK
6
CONTINUOUS
10
108.968
20
-160.826
11
108.968
21
-160.825
0
LINE
8
BLACK
6
CONTINUOUS
10
108.968
20
-160.825
11
108.968
21
-160.823
0
LINE
8
BLACK
6
CONTINUOUS
10
108.968
20
-160.823
11
108.969
21
-160.821
0
LINE
8
BLACK
6
CONTINUOUS
10
108.969
20
-160.821
11
109.047
21
-160.56
0
LINE
8
BLACK
6
CONTINUOUS
10
109.047
20
-160.56
11
109.048
21
-160.56
0
LINE
8
BLACK
6
CONTINUOUS
10
109.048
20
-160.56
11
109.048
21
-160.557
0
LINE
8
BLACK
6
CONTINUOUS
10
109.048
20
-160.557
11
109.049
21
-160.555
0
LINE
8
BLACK
6
CONTINUOUS
10
109.049
20
-160.555
11
109.177
21
-160.315
0
LINE
8
BLACK
6
CONTINUOUS
10
109.177
20
-160.315
11
109.178
21
-160.314
0
LINE
8
BLACK
6
CONTINUOUS
10
109.178
20
-160.314
11
109.179
21
-160.313
0
LINE
8
BLACK
6
CONTINUOUS
10
109.179
20
-160.313
11
109.18
21
-160.311
0
LINE
8
BLACK
6
CONTINUOUS
10
109.18
20
-160.311
11
109.352
21
-160.099
0
LINE
8
BLACK
6
CONTINUOUS
10
109.352
20
-160.099
11
109.352
21
-160.099
0
LINE
8
BLACK
6
CONTINUOUS
10
109.352
20
-160.099
11
109.352
21
-160.099
0
LINE
8
BLACK
6
CONTINUOUS
10
109.352
20
-160.099
11
109.353
21
-160.099
0
LINE
8
BLACK
6
CONTINUOUS
10
109.353
20
-160.099
11
109.354
21
-160.097
0
LINE
8
BLACK
6
CONTINUOUS
10
109.354
20
-160.097
11
109.356
21
-160.096
0
LINE
8
BLACK
6
CONTINUOUS
10
109.356
20
-160.096
11
109.566
21
-159.922
0
LINE
8
BLACK
6
CONTINUOUS
10
109.566
20
-159.922
11
109.566
21
-159.922
0
LINE
8
BLACK
6
CONTINUOUS
10
109.566
20
-159.922
11
109.568
21
-159.921
0
LINE
8
BLACK
6
CONTINUOUS
10
109.568
20
-159.921
11
109.57
21
-159.919
0
LINE
8
BLACK
6
CONTINUOUS
10
109.57
20
-159.919
11
109.81
21
-159.79
0
LINE
8
BLACK
6
CONTINUOUS
10
109.81
20
-159.79
11
109.81
21
-159.79
0
LINE
8
BLACK
6
CONTINUOUS
10
109.81
20
-159.79
11
109.81
21
-159.79
0
LINE
8
BLACK
6
CONTINUOUS
10
109.81
20
-159.79
11
109.81
21
-159.79
0
LINE
8
BLACK
6
CONTINUOUS
10
109.81
20
-159.79
11
109.812
21
-159.789
0
LINE
8
BLACK
6
CONTINUOUS
10
109.812
20
-159.789
11
109.814
21
-159.788
0
LINE
8
BLACK
6
CONTINUOUS
10
109.814
20
-159.788
11
110.075
21
-159.707
0
LINE
8
BLACK
6
CONTINUOUS
10
110.075
20
-159.707
11
110.075
21
-159.707
0
LINE
8
BLACK
6
CONTINUOUS
10
110.075
20
-159.707
11
110.077
21
-159.707
0
LINE
8
BLACK
6
CONTINUOUS
10
110.077
20
-159.707
11
110.079
21
-159.706
0
LINE
8
BLACK
6
CONTINUOUS
10
110.079
20
-159.706
11
110.351
21
-159.678
0
LINE
8
BLACK
6
CONTINUOUS
10
110.351
20
-159.678
11
110.351
21
-159.678
0
LINE
8
BLACK
6
CONTINUOUS
10
110.351
20
-159.678
11
110.352
21
-159.678
0
LINE
8
BLACK
6
CONTINUOUS
10
110.352
20
-159.678
11
110.353
21
-159.678
0
LINE
8
BLACK
6
CONTINUOUS
10
110.353
20
-159.678
11
110.362
21
-159.678
0
LINE
8
BLACK
6
CONTINUOUS
10
110.362
20
-159.678
11
110.362
21
-159.677
0
LINE
8
BLACK
6
CONTINUOUS
10
110.362
20
-159.677
11
112.457
21
-159.677
0
LINE
8
BLACK
6
CONTINUOUS
10
112.457
20
-159.677
11
112.458
21
-159.677
0
LINE
8
BLACK
6
CONTINUOUS
10
112.458
20
-159.677
11
112.459
21
-159.677
0
LINE
8
BLACK
6
CONTINUOUS
10
112.459
20
-159.677
11
112.463
21
-159.678
0
LINE
8
BLACK
6
CONTINUOUS
10
112.463
20
-159.678
11
112.467
21
-159.679
0
LINE
8
BLACK
6
CONTINUOUS
10
112.467
20
-159.679
11
112.472
21
-159.682
0
LINE
8
BLACK
6
CONTINUOUS
10
112.472
20
-159.682
11
112.476
21
-159.685
0
LINE
8
BLACK
6
CONTINUOUS
10
112.476
20
-159.685
11
112.479
21
-159.689
0
LINE
8
BLACK
6
CONTINUOUS
10
112.479
20
-159.689
11
112.481
21
-159.693
0
LINE
8
BLACK
6
CONTINUOUS
10
112.481
20
-159.693
11
112.482
21
-159.698
0
LINE
8
BLACK
6
CONTINUOUS
10
112.482
20
-159.698
11
112.483
21
-159.702
0
LINE
8
BLACK
6
CONTINUOUS
10
112.483
20
-159.702
11
112.483
21
-159.704
0
LINE
8
BLACK
6
CONTINUOUS
10
112.483
20
-159.704
11
112.483
21
-161.431
0
LINE
8
BLACK
6
CONTINUOUS
10
112.483
20
-161.431
11
112.504
21
-161.87
0
LINE
8
BLACK
6
CONTINUOUS
10
112.504
20
-161.87
11
112.668
21
-162.707
0
LINE
8
BLACK
6
CONTINUOUS
10
112.668
20
-162.707
11
112.987
21
-163.498
0
LINE
8
BLACK
6
CONTINUOUS
10
112.987
20
-163.498
11
113.449
21
-164.215
0
LINE
8
BLACK
6
CONTINUOUS
10
113.449
20
-164.215
11
114.039
21
-164.831
0
LINE
8
BLACK
6
CONTINUOUS
10
114.039
20
-164.831
11
114.735
21
-165.324
0
LINE
8
BLACK
6
CONTINUOUS
10
114.735
20
-165.324
11
115.511
21
-165.677
0
LINE
8
BLACK
6
CONTINUOUS
10
115.511
20
-165.677
11
116.34
21
-165.877
0
LINE
8
BLACK
6
CONTINUOUS
10
116.34
20
-165.877
11
117.192
21
-165.917
0
LINE
8
BLACK
6
CONTINUOUS
10
117.192
20
-165.917
11
118.036
21
-165.794
0
LINE
8
BLACK
6
CONTINUOUS
10
118.036
20
-165.794
11
118.842
21
-165.515
0
LINE
8
BLACK
6
CONTINUOUS
10
118.842
20
-165.515
11
119.58
21
-165.087
0
LINE
8
BLACK
6
CONTINUOUS
10
119.58
20
-165.087
11
120.225
21
-164.528
0
LINE
8
BLACK
6
CONTINUOUS
10
120.225
20
-164.528
11
120.751
21
-163.858
0
LINE
8
BLACK
6
CONTINUOUS
10
120.751
20
-163.858
11
121.142
21
-163.099
0
LINE
8
BLACK
6
CONTINUOUS
10
121.142
20
-163.099
11
121.382
21
-162.281
0
LINE
8
BLACK
6
CONTINUOUS
10
121.382
20
-162.281
11
121.463
21
-161.431
0
LINE
8
BLACK
6
CONTINUOUS
10
121.463
20
-161.431
11
121.463
21
-159.704
0
LINE
8
BLACK
6
CONTINUOUS
10
121.463
20
-159.704
11
121.463
21
-159.702
0
LINE
8
BLACK
6
CONTINUOUS
10
121.463
20
-159.702
11
121.464
21
-159.698
0
LINE
8
BLACK
6
CONTINUOUS
10
121.464
20
-159.698
11
121.465
21
-159.693
0
LINE
8
BLACK
6
CONTINUOUS
10
121.465
20
-159.693
11
121.467
21
-159.689
0
LINE
8
BLACK
6
CONTINUOUS
10
121.467
20
-159.689
11
121.47
21
-159.685
0
LINE
8
BLACK
6
CONTINUOUS
10
121.47
20
-159.685
11
121.474
21
-159.682
0
LINE
8
BLACK
6
CONTINUOUS
10
121.474
20
-159.682
11
121.479
21
-159.679
0
LINE
8
BLACK
6
CONTINUOUS
10
121.479
20
-159.679
11
121.483
21
-159.678
0
LINE
8
BLACK
6
CONTINUOUS
10
121.483
20
-159.678
11
121.487
21
-159.677
0
LINE
8
BLACK
6
CONTINUOUS
10
121.487
20
-159.677
11
121.487
21
-159.677
0
LINE
8
BLACK
6
CONTINUOUS
10
121.487
20
-159.677
11
121.488
21
-159.677
0
LINE
8
BLACK
6
CONTINUOUS
10
121.488
20
-159.677
11
121.489
21
-159.677
0
LINE
8
BLACK
6
CONTINUOUS
10
121.489
20
-159.677
11
126.872
21
-159.677
0
LINE
8
BLACK
6
CONTINUOUS
10
126.872
20
-159.677
11
126.873
21
-159.677
0
LINE
8
BLACK
6
CONTINUOUS
10
126.873
20
-159.677
11
126.873
21
-159.677
0
LINE
8
BLACK
6
CONTINUOUS
10
126.873
20
-159.677
11
126.874
21
-159.677
0
LINE
8
BLACK
6
CONTINUOUS
10
126.874
20
-159.677
11
126.875
21
-159.678
0
LINE
8
BLACK
6
CONTINUOUS
10
126.875
20
-159.678
11
144.906
21
-160.376
0
LINE
8
BLACK
6
CONTINUOUS
10
144.906
20
-160.376
11
144.906
21
-160.376
0
LINE
8
BLACK
6
CONTINUOUS
10
144.906
20
-160.376
11
144.908
21
-160.376
0
LINE
8
BLACK
6
CONTINUOUS
10
144.908
20
-160.376
11
144.909
21
-160.376
0
LINE
8
BLACK
6
CONTINUOUS
10
144.909
20
-160.376
11
144.91
21
-160.376
0
LINE
8
BLACK
6
CONTINUOUS
10
144.91
20
-160.376
11
144.911
21
-160.376
0
LINE
8
BLACK
6
CONTINUOUS
10
144.911
20
-160.376
11
144.912
21
-160.376
0
LINE
8
BLACK
6
CONTINUOUS
10
144.912
20
-160.376
11
144.913
21
-160.377
0
LINE
8
BLACK
6
CONTINUOUS
10
144.913
20
-160.377
11
144.914
21
-160.377
0
LINE
8
BLACK
6
CONTINUOUS
10
144.914
20
-160.377
11
144.915
21
-160.377
0
LINE
8
BLACK
6
CONTINUOUS
10
144.915
20
-160.377
11
144.916
21
-160.378
0
LINE
8
BLACK
6
CONTINUOUS
10
144.916
20
-160.378
11
144.918
21
-160.378
0
LINE
8
BLACK
6
CONTINUOUS
10
144.918
20
-160.378
11
144.918
21
-160.378
0
LINE
8
BLACK
6
CONTINUOUS
10
144.918
20
-160.378
11
162.631
21
-167.299
0
LINE
8
BLACK
6
CONTINUOUS
10
162.631
20
-167.299
11
162.632
21
-167.299
0
LINE
8
BLACK
6
CONTINUOUS
10
162.632
20
-167.299
11
162.633
21
-167.299
0
LINE
8
BLACK
6
CONTINUOUS
10
162.633
20
-167.299
11
162.634
21
-167.3
0
LINE
8
BLACK
6
CONTINUOUS
10
162.634
20
-167.3
11
162.634
21
-167.3
0
LINE
8
BLACK
6
CONTINUOUS
10
162.634
20
-167.3
11
162.635
21
-167.3
0
LINE
8
BLACK
6
CONTINUOUS
10
162.635
20
-167.3
11
162.635
21
-167.301
0
LINE
8
BLACK
6
CONTINUOUS
10
162.635
20
-167.301
11
162.637
21
-167.301
0
LINE
8
BLACK
6
CONTINUOUS
10
162.637
20
-167.301
11
162.638
21
-167.302
0
LINE
8
BLACK
6
CONTINUOUS
10
162.638
20
-167.302
11
172.173
21
-172.812
0
LINE
8
BLACK
6
CONTINUOUS
10
172.173
20
-172.812
11
172.174
21
-172.813
0
LINE
8
BLACK
6
CONTINUOUS
10
172.174
20
-172.813
11
172.174
21
-172.813
0
LINE
8
BLACK
6
CONTINUOUS
10
172.174
20
-172.813
11
172.175
21
-172.813
0
LINE
8
BLACK
6
CONTINUOUS
10
172.175
20
-172.813
11
172.175
21
-172.814
0
LINE
8
BLACK
6
CONTINUOUS
10
172.175
20
-172.814
11
176.758
21
-175.81
0
LINE
8
BLACK
6
CONTINUOUS
10
176.758
20
-175.81
11
176.759
21
-175.81
0
LINE
8
BLACK
6
CONTINUOUS
10
176.759
20
-175.81
11
176.76
21
-175.811
0
LINE
8
BLACK
6
CONTINUOUS
10
176.76
20
-175.811
11
176.761
21
-175.811
0
LINE
8
BLACK
6
CONTINUOUS
10
176.761
20
-175.811
11
176.761
21
-175.812
0
LINE
8
BLACK
6
CONTINUOUS
10
176.761
20
-175.812
11
176.763
21
-175.813
0
LINE
8
BLACK
6
CONTINUOUS
10
176.763
20
-175.813
11
176.763
21
-175.813
0
LINE
8
BLACK
6
CONTINUOUS
10
176.763
20
-175.813
11
176.763
21
-175.814
0
LINE
8
BLACK
6
CONTINUOUS
10
176.763
20
-175.814
11
176.765
21
-175.815
0
LINE
8
BLACK
6
CONTINUOUS
10
176.765
20
-175.815
11
176.766
21
-175.817
0
LINE
8
BLACK
6
CONTINUOUS
10
176.766
20
-175.817
11
176.766
21
-175.817
0
LINE
8
BLACK
6
CONTINUOUS
10
176.766
20
-175.817
11
176.767
21
-175.817
0
LINE
8
BLACK
6
CONTINUOUS
10
176.767
20
-175.817
11
176.768
21
-175.819
0
LINE
8
BLACK
6
CONTINUOUS
10
176.768
20
-175.819
11
176.769
21
-175.821
0
LINE
8
BLACK
6
CONTINUOUS
10
176.769
20
-175.821
11
176.769
21
-175.821
0
LINE
8
BLACK
6
CONTINUOUS
10
176.769
20
-175.821
11
176.769
21
-175.822
0
LINE
8
BLACK
6
CONTINUOUS
10
176.769
20
-175.822
11
176.77
21
-175.824
0
LINE
8
BLACK
6
CONTINUOUS
10
176.77
20
-175.824
11
176.77
21
-175.826
0
LINE
8
BLACK
6
CONTINUOUS
10
176.77
20
-175.826
11
176.77
21
-175.826
0
LINE
8
BLACK
6
CONTINUOUS
10
176.77
20
-175.826
11
176.77
21
-175.826
0
LINE
8
BLACK
6
CONTINUOUS
10
176.77
20
-175.826
11
176.771
21
-175.829
0
LINE
8
BLACK
6
CONTINUOUS
10
176.771
20
-175.829
11
176.771
21
-175.831
0
LINE
8
BLACK
6
CONTINUOUS
10
176.771
20
-175.831
11
176.771
21
-175.831
0
LINE
8
BLACK
6
CONTINUOUS
10
176.771
20
-175.831
11
176.771
21
-175.831
0
LINE
8
BLACK
6
CONTINUOUS
10
176.771
20
-175.831
11
176.771
21
-175.833
0
LINE
8
BLACK
6
CONTINUOUS
10
176.771
20
-175.833
11
176.771
21
-175.836
0
LINE
8
BLACK
6
CONTINUOUS
10
176.771
20
-175.836
11
176.771
21
-175.836
0
LINE
8
BLACK
6
CONTINUOUS
10
176.771
20
-175.836
11
176.771
21
-175.836
0
LINE
8
BLACK
6
CONTINUOUS
10
176.771
20
-175.836
11
176.77
21
-175.838
0
LINE
8
BLACK
6
CONTINUOUS
10
176.77
20
-175.838
11
176.769
21
-175.84
0
LINE
8
BLACK
6
CONTINUOUS
10
176.769
20
-175.84
11
176.769
21
-175.841
0
LINE
8
BLACK
6
CONTINUOUS
10
176.769
20
-175.841
11
176.769
21
-175.841
0
LINE
8
BLACK
6
CONTINUOUS
10
176.769
20
-175.841
11
176.768
21
-175.843
0
LINE
8
BLACK
6
CONTINUOUS
10
176.768
20
-175.843
11
176.768
21
-175.844
0
LINE
8
BLACK
6
CONTINUOUS
10
176.768
20
-175.844
11
176.768
21
-175.844
0
LINE
8
BLACK
6
CONTINUOUS
10
176.768
20
-175.844
11
176.767
21
-175.845
0
LINE
8
BLACK
6
CONTINUOUS
10
176.767
20
-175.845
11
176.766
21
-175.846
0
LINE
8
BLACK
6
CONTINUOUS
10
176.766
20
-175.846
11
175.536
21
-177.812
0
LINE
8
BLACK
6
CONTINUOUS
10
175.536
20
-177.812
11
175.258
21
-178.393
0
LINE
8
BLACK
6
CONTINUOUS
10
175.258
20
-178.393
11
175.079
21
-179.07
0
LINE
8
BLACK
6
CONTINUOUS
10
175.079
20
-179.07
11
175.035
21
-179.768
0
LINE
8
BLACK
6
CONTINUOUS
10
175.035
20
-179.768
11
175.127
21
-180.462
0
LINE
8
BLACK
6
CONTINUOUS
10
175.127
20
-180.462
11
175.353
21
-181.124
0
LINE
8
BLACK
6
CONTINUOUS
10
175.353
20
-181.124
11
175.703
21
-181.731
0
LINE
8
BLACK
6
CONTINUOUS
10
175.703
20
-181.731
11
176.163
21
-182.257
0
LINE
8
BLACK
6
CONTINUOUS
10
176.163
20
-182.257
11
176.718
21
-182.684
0
LINE
8
BLACK
6
CONTINUOUS
10
176.718
20
-182.684
11
177.345
21
-182.996
0
LINE
8
BLACK
6
CONTINUOUS
10
177.345
20
-182.996
11
178.02
21
-183.179
0
LINE
8
BLACK
6
CONTINUOUS
10
178.02
20
-183.179
11
178.718
21
-183.228
0
LINE
8
BLACK
6
CONTINUOUS
10
178.718
20
-183.228
11
179.412
21
-183.141
0
LINE
8
BLACK
6
CONTINUOUS
10
179.412
20
-183.141
11
180.077
21
-182.92
0
LINE
8
BLACK
6
CONTINUOUS
10
180.077
20
-182.92
11
180.685
21
-182.574
0
LINE
8
BLACK
6
CONTINUOUS
10
180.685
20
-182.574
11
181.215
21
-182.117
0
LINE
8
BLACK
6
CONTINUOUS
10
181.215
20
-182.117
11
181.647
21
-181.564
0
LINE
8
BLACK
6
CONTINUOUS
10
181.647
20
-181.564
11
182.922
21
-179.819
0
LINE
8
BLACK
6
CONTINUOUS
10
182.922
20
-179.819
11
182.922
21
-179.818
0
LINE
8
BLACK
6
CONTINUOUS
10
182.922
20
-179.818
11
182.924
21
-179.817
0
LINE
8
BLACK
6
CONTINUOUS
10
182.924
20
-179.817
11
182.924
21
-179.816
0
LINE
8
BLACK
6
CONTINUOUS
10
182.924
20
-179.816
11
182.924
21
-179.816
0
LINE
8
BLACK
6
CONTINUOUS
10
182.924
20
-179.816
11
182.926
21
-179.814
0
LINE
8
BLACK
6
CONTINUOUS
10
182.926
20
-179.814
11
182.926
21
-179.814
0
LINE
8
BLACK
6
CONTINUOUS
10
182.926
20
-179.814
11
182.926
21
-179.814
0
LINE
8
BLACK
6
CONTINUOUS
10
182.926
20
-179.814
11
182.928
21
-179.812
0
LINE
8
BLACK
6
CONTINUOUS
10
182.928
20
-179.812
11
182.929
21
-179.811
0
LINE
8
BLACK
6
CONTINUOUS
10
182.929
20
-179.811
11
182.93
21
-179.811
0
LINE
8
BLACK
6
CONTINUOUS
10
182.93
20
-179.811
11
182.93
21
-179.811
0
LINE
8
BLACK
6
CONTINUOUS
10
182.93
20
-179.811
11
182.932
21
-179.81
0
LINE
8
BLACK
6
CONTINUOUS
10
182.932
20
-179.81
11
182.934
21
-179.809
0
LINE
8
BLACK
6
CONTINUOUS
10
182.934
20
-179.809
11
182.934
21
-179.809
0
LINE
8
BLACK
6
CONTINUOUS
10
182.934
20
-179.809
11
182.935
21
-179.808
0
LINE
8
BLACK
6
CONTINUOUS
10
182.935
20
-179.808
11
182.937
21
-179.808
0
LINE
8
BLACK
6
CONTINUOUS
10
182.937
20
-179.808
11
182.938
21
-179.807
0
LINE
8
BLACK
6
CONTINUOUS
10
182.938
20
-179.807
11
182.939
21
-179.807
0
LINE
8
BLACK
6
CONTINUOUS
10
182.939
20
-179.807
11
182.94
21
-179.807
0
LINE
8
BLACK
6
CONTINUOUS
10
182.94
20
-179.807
11
182.941
21
-179.807
0
LINE
8
BLACK
6
CONTINUOUS
10
182.941
20
-179.807
11
182.943
21
-179.807
0
LINE
8
BLACK
6
CONTINUOUS
10
182.943
20
-179.807
11
182.944
21
-179.807
0
LINE
8
BLACK
6
CONTINUOUS
10
182.944
20
-179.807
11
182.945
21
-179.807
0
LINE
8
BLACK
6
CONTINUOUS
10
182.945
20
-179.807
11
182.946
21
-179.807
0
LINE
8
BLACK
6
CONTINUOUS
10
182.946
20
-179.807
11
182.948
21
-179.807
0
LINE
8
BLACK
6
CONTINUOUS
10
182.948
20
-179.807
11
182.949
21
-179.807
0
LINE
8
BLACK
6
CONTINUOUS
10
182.949
20
-179.807
11
182.949
21
-179.808
0
LINE
8
BLACK
6
CONTINUOUS
10
182.949
20
-179.808
11
182.951
21
-179.808
0
LINE
8
BLACK
6
CONTINUOUS
10
182.951
20
-179.808
11
182.953
21
-179.809
0
LINE
8
BLACK
6
CONTINUOUS
10
182.953
20
-179.809
11
182.953
21
-179.809
0
LINE
8
BLACK
6
CONTINUOUS
10
182.953
20
-179.809
11
182.954
21
-179.809
0
LINE
8
BLACK
6
CONTINUOUS
10
182.954
20
-179.809
11
182.956
21
-179.81
0
LINE
8
BLACK
6
CONTINUOUS
10
182.956
20
-179.81
11
182.956
21
-179.81
0
LINE
8
BLACK
6
CONTINUOUS
10
182.956
20
-179.81
11
182.957
21
-179.811
0
LINE
8
BLACK
6
CONTINUOUS
10
182.957
20
-179.811
11
182.958
21
-179.812
0
LINE
8
BLACK
6
CONTINUOUS
10
182.958
20
-179.812
11
182.959
21
-179.812
0
LINE
8
BLACK
6
CONTINUOUS
10
182.959
20
-179.812
11
196.202
21
-188.433
0
LINE
8
BLACK
6
CONTINUOUS
10
196.202
20
-188.433
11
196.284
21
-188.472
0
LINE
8
BLACK
6
CONTINUOUS
10
196.284
20
-188.472
11
196.452
21
-188.522
0
LINE
8
BLACK
6
CONTINUOUS
10
196.452
20
-188.522
11
196.626
21
-188.538
0
LINE
8
BLACK
6
CONTINUOUS
10
196.626
20
-188.538
11
196.8
21
-188.52
0
LINE
8
BLACK
6
CONTINUOUS
10
196.8
20
-188.52
11
196.967
21
-188.468
0
LINE
8
BLACK
6
CONTINUOUS
10
196.967
20
-188.468
11
197.121
21
-188.385
0
LINE
8
BLACK
6
CONTINUOUS
10
197.121
20
-188.385
11
197.256
21
-188.274
0
LINE
8
BLACK
6
CONTINUOUS
10
197.256
20
-188.274
11
197.367
21
-188.138
0
LINE
8
BLACK
6
CONTINUOUS
10
197.367
20
-188.138
11
215.418
21
-160.443
0
LINE
8
BLACK
6
CONTINUOUS
10
215.418
20
-160.443
11
215.457
21
-160.361
0
LINE
8
BLACK
6
CONTINUOUS
10
215.457
20
-160.361
11
215.507
21
-160.193
0
LINE
8
BLACK
6
CONTINUOUS
10
215.507
20
-160.193
11
215.523
21
-160.019
0
LINE
8
BLACK
6
CONTINUOUS
10
215.523
20
-160.019
11
215.505
21
-159.845
0
LINE
8
BLACK
6
CONTINUOUS
10
215.505
20
-159.845
11
215.453
21
-159.678
0
LINE
8
BLACK
6
CONTINUOUS
10
215.453
20
-159.678
11
215.37
21
-159.524
0
LINE
8
BLACK
6
CONTINUOUS
10
215.37
20
-159.524
11
215.259
21
-159.39
0
LINE
8
BLACK
6
CONTINUOUS
10
215.259
20
-159.39
11
215.123
21
-159.278
0
LINE
8
BLACK
6
CONTINUOUS
10
215.123
20
-159.278
11
186.732
21
-140.863
0
LINE
8
BLACK
6
CONTINUOUS
10
186.732
20
-140.863
11
186.732
21
-140.863
0
LINE
8
BLACK
6
CONTINUOUS
10
186.732
20
-140.863
11
186.578
21
-140.76
0
LINE
8
BLACK
6
CONTINUOUS
10
186.578
20
-140.76
11
186.578
21
-140.76
0
LINE
8
BLACK
6
CONTINUOUS
10
186.578
20
-140.76
11
186.576
21
-140.758
0
LINE
8
BLACK
6
CONTINUOUS
10
186.576
20
-140.758
11
186.574
21
-140.757
0
LINE
8
BLACK
6
CONTINUOUS
10
186.574
20
-140.757
11
186.443
21
-140.625
0
LINE
8
BLACK
6
CONTINUOUS
10
186.443
20
-140.625
11
186.443
21
-140.625
0
LINE
8
BLACK
6
CONTINUOUS
10
186.443
20
-140.625
11
186.442
21
-140.623
0
LINE
8
BLACK
6
CONTINUOUS
10
186.442
20
-140.623
11
186.44
21
-140.622
0
LINE
8
BLACK
6
CONTINUOUS
10
186.44
20
-140.622
11
186.337
21
-140.467
0
LINE
8
BLACK
6
CONTINUOUS
10
186.337
20
-140.467
11
186.337
21
-140.467
0
LINE
8
BLACK
6
CONTINUOUS
10
186.337
20
-140.467
11
186.336
21
-140.465
0
LINE
8
BLACK
6
CONTINUOUS
10
186.336
20
-140.465
11
186.335
21
-140.463
0
LINE
8
BLACK
6
CONTINUOUS
10
186.335
20
-140.463
11
186.264
21
-140.291
0
LINE
8
BLACK
6
CONTINUOUS
10
186.264
20
-140.291
11
186.263
21
-140.29
0
LINE
8
BLACK
6
CONTINUOUS
10
186.263
20
-140.29
11
186.263
21
-140.288
0
LINE
8
BLACK
6
CONTINUOUS
10
186.263
20
-140.288
11
186.262
21
-140.286
0
LINE
8
BLACK
6
CONTINUOUS
10
186.262
20
-140.286
11
186.226
21
-140.104
0
LINE
8
BLACK
6
CONTINUOUS
10
186.226
20
-140.104
11
186.226
21
-140.103
0
LINE
8
BLACK
6
CONTINUOUS
10
186.226
20
-140.103
11
186.225
21
-140.102
0
LINE
8
BLACK
6
CONTINUOUS
10
186.225
20
-140.102
11
186.225
21
-140.1
0
LINE
8
BLACK
6
CONTINUOUS
10
186.225
20
-140.1
11
186.221
21
-140.006
0
LINE
8
BLACK
6
CONTINUOUS
10
186.221
20
-140.006
11
186.221
21
-140.006
0
LINE
8
BLACK
6
CONTINUOUS
10
186.221
20
-140.006
11
186.22
21
-133.097
0
LINE
8
BLACK
6
CONTINUOUS
10
186.22
20
-133.097
11
186.22
21
-133.096
0
LINE
8
BLACK
6
CONTINUOUS
10
186.22
20
-133.096
11
186.221
21
-133.091
0
LINE
8
BLACK
6
CONTINUOUS
10
186.221
20
-133.091
11
186.222
21
-133.086
0
LINE
8
BLACK
6
CONTINUOUS
10
186.222
20
-133.086
11
186.225
21
-133.082
0
LINE
8
BLACK
6
CONTINUOUS
10
186.225
20
-133.082
11
186.228
21
-133.078
0
LINE
8
BLACK
6
CONTINUOUS
10
186.228
20
-133.078
11
186.232
21
-133.075
0
LINE
8
BLACK
6
CONTINUOUS
10
186.232
20
-133.075
11
186.236
21
-133.073
0
LINE
8
BLACK
6
CONTINUOUS
10
186.236
20
-133.073
11
186.241
21
-133.071
0
LINE
8
BLACK
6
CONTINUOUS
10
186.241
20
-133.071
11
186.244
21
-133.071
0
LINE
8
BLACK
6
CONTINUOUS
10
186.244
20
-133.071
11
186.245
21
-133.071
0
LINE
8
BLACK
6
CONTINUOUS
10
186.245
20
-133.071
11
186.247
21
-133.071
0
LINE
8
BLACK
6
CONTINUOUS
10
186.247
20
-133.071
11
189.038
21
-133.071
0
LINE
8
BLACK
6
CONTINUOUS
10
189.038
20
-133.071
11
189.693
21
-132.991
0
LINE
8
BLACK
6
CONTINUOUS
10
189.693
20
-132.991
11
190.368
21
-132.774
0
LINE
8
BLACK
6
CONTINUOUS
10
190.368
20
-132.774
11
190.987
21
-132.431
0
LINE
8
BLACK
6
CONTINUOUS
10
190.987
20
-132.431
11
191.528
21
-131.975
0
LINE
8
BLACK
6
CONTINUOUS
10
191.528
20
-131.975
11
191.969
21
-131.421
0
LINE
8
BLACK
6
CONTINUOUS
10
191.969
20
-131.421
11
192.295
21
-130.793
0
LINE
8
BLACK
6
CONTINUOUS
10
192.295
20
-130.793
11
192.493
21
-130.113
0
LINE
8
BLACK
6
CONTINUOUS
10
192.493
20
-130.113
11
192.555
21
-129.408
0
LINE
8
BLACK
6
CONTINUOUS
10
192.555
20
-129.408
11
192.478
21
-128.704
0
LINE
8
BLACK
6
CONTINUOUS
10
192.478
20
-128.704
11
192.267
21
-128.028
0
LINE
8
BLACK
6
CONTINUOUS
10
192.267
20
-128.028
11
191.928
21
-127.407
0
LINE
8
BLACK
6
CONTINUOUS
10
191.928
20
-127.407
11
191.475
21
-126.863
0
LINE
8
BLACK
6
CONTINUOUS
10
191.475
20
-126.863
11
190.925
21
-126.417
0
LINE
8
BLACK
6
CONTINUOUS
10
190.925
20
-126.417
11
190.299
21
-126.087
0
LINE
8
BLACK
6
CONTINUOUS
10
190.299
20
-126.087
11
189.62
21
-125.884
0
LINE
8
BLACK
6
CONTINUOUS
10
189.62
20
-125.884
11
188.914
21
-125.818
0
LINE
8
BLACK
6
CONTINUOUS
10
188.914
20
-125.818
11
186.247
21
-125.818
0
LINE
8
BLACK
6
CONTINUOUS
10
186.247
20
-125.818
11
186.245
21
-125.819
0
LINE
8
BLACK
6
CONTINUOUS
10
186.245
20
-125.819
11
186.244
21
-125.819
0
LINE
8
BLACK
6
CONTINUOUS
10
186.244
20
-125.819
11
186.244
21
-125.819
0
LINE
8
BLACK
6
CONTINUOUS
10
186.244
20
-125.819
11
186.241
21
-125.818
0
LINE
8
BLACK
6
CONTINUOUS
10
186.241
20
-125.818
11
186.241
21
-125.818
0
LINE
8
BLACK
6
CONTINUOUS
10
186.241
20
-125.818
11
186.241
21
-125.818
0
LINE
8
BLACK
6
CONTINUOUS
10
186.241
20
-125.818
11
186.238
21
-125.817
0
LINE
8
BLACK
6
CONTINUOUS
10
186.238
20
-125.817
11
186.236
21
-125.817
0
LINE
8
BLACK
6
CONTINUOUS
10
186.236
20
-125.817
11
186.236
21
-125.817
0
LINE
8
BLACK
6
CONTINUOUS
10
186.236
20
-125.817
11
186.236
21
-125.817
0
LINE
8
BLACK
6
CONTINUOUS
10
186.236
20
-125.817
11
186.235
21
-125.816
0
LINE
8
BLACK
6
CONTINUOUS
10
186.235
20
-125.816
11
186.232
21
-125.814
0
LINE
8
BLACK
6
CONTINUOUS
10
186.232
20
-125.814
11
186.232
21
-125.814
0
LINE
8
BLACK
6
CONTINUOUS
10
186.232
20
-125.814
11
186.232
21
-125.814
0
LINE
8
BLACK
6
CONTINUOUS
10
186.232
20
-125.814
11
186.23
21
-125.813
0
LINE
8
BLACK
6
CONTINUOUS
10
186.23
20
-125.813
11
186.228
21
-125.811
0
LINE
8
BLACK
6
CONTINUOUS
10
186.228
20
-125.811
11
186.228
21
-125.811
0
LINE
8
BLACK
6
CONTINUOUS
10
186.228
20
-125.811
11
186.228
21
-125.811
0
LINE
8
BLACK
6
CONTINUOUS
10
186.228
20
-125.811
11
186.225
21
-125.808
0
LINE
8
BLACK
6
CONTINUOUS
10
186.225
20
-125.808
11
186.225
21
-125.807
0
LINE
8
BLACK
6
CONTINUOUS
10
186.225
20
-125.807
11
186.225
21
-125.807
0
LINE
8
BLACK
6
CONTINUOUS
10
186.225
20
-125.807
11
186.225
21
-125.807
0
LINE
8
BLACK
6
CONTINUOUS
10
186.225
20
-125.807
11
186.223
21
-125.805
0
LINE
8
BLACK
6
CONTINUOUS
10
186.223
20
-125.805
11
186.222
21
-125.803
0
LINE
8
BLACK
6
CONTINUOUS
10
186.222
20
-125.803
11
186.222
21
-125.803
0
LINE
8
BLACK
6
CONTINUOUS
10
186.222
20
-125.803
11
186.222
21
-125.803
0
LINE
8
BLACK
6
CONTINUOUS
10
186.222
20
-125.803
11
186.221
21
-125.8
0
LINE
8
BLACK
6
CONTINUOUS
10
186.221
20
-125.8
11
186.221
21
-125.798
0
LINE
8
BLACK
6
CONTINUOUS
10
186.221
20
-125.798
11
186.221
21
-125.798
0
LINE
8
BLACK
6
CONTINUOUS
10
186.221
20
-125.798
11
186.221
21
-125.798
0
LINE
8
BLACK
6
CONTINUOUS
10
186.221
20
-125.798
11
186.22
21
-125.795
0
LINE
8
BLACK
6
CONTINUOUS
10
186.22
20
-125.795
11
186.22
21
-125.795
0
LINE
8
BLACK
6
CONTINUOUS
10
186.22
20
-125.795
11
186.22
21
-125.794
0
LINE
8
BLACK
6
CONTINUOUS
10
186.22
20
-125.794
11
186.22
21
-125.792
0
LINE
8
BLACK
6
CONTINUOUS
10
186.22
20
-125.792
11
186.221
21
-60.7755
0
LINE
8
BLACK
6
CONTINUOUS
10
186.221
20
-60.7755
11
186.221
21
-60.7744
0
LINE
8
BLACK
6
CONTINUOUS
10
186.221
20
-60.7744
11
186.221
21
-60.7707
0
LINE
8
BLACK
6
CONTINUOUS
10
186.221
20
-60.7707
11
186.22
21
-57.977
0
LINE
8
BLACK
6
CONTINUOUS
10
186.22
20
-57.977
11
186.14
21
-57.3216
0
LINE
8
BLACK
6
CONTINUOUS
10
186.14
20
-57.3216
11
185.924
21
-56.6474
0
LINE
8
BLACK
6
CONTINUOUS
10
185.924
20
-56.6474
11
185.581
21
-56.0281
0
LINE
8
BLACK
6
CONTINUOUS
10
185.581
20
-56.0281
11
185.124
21
-55.4873
0
LINE
8
BLACK
6
CONTINUOUS
10
185.124
20
-55.4873
11
184.571
21
-55.0456
0
LINE
8
BLACK
6
CONTINUOUS
10
184.571
20
-55.0456
11
183.942
21
-54.7196
0
LINE
8
BLACK
6
CONTINUOUS
10
183.942
20
-54.7196
11
183.262
21
-54.522
0
LINE
8
BLACK
6
CONTINUOUS
10
183.262
20
-54.522
11
182.557
21
-54.4602
0
LINE
8
BLACK
6
CONTINUOUS
10
182.557
20
-54.4602
11
181.853
21
-54.5365
0
LINE
8
BLACK
6
CONTINUOUS
10
181.853
20
-54.5365
11
181.178
21
-54.7481
0
LINE
8
BLACK
6
CONTINUOUS
10
181.178
20
-54.7481
11
180.556
21
-55.0869
0
LINE
8
BLACK
6
CONTINUOUS
10
180.556
20
-55.0869
11
180.012
21
-55.54
0
LINE
8
BLACK
6
CONTINUOUS
10
180.012
20
-55.54
11
179.567
21
-56.0901
0
LINE
8
BLACK
6
CONTINUOUS
10
179.567
20
-56.0901
11
179.236
21
-56.7163
0
LINE
8
BLACK
6
CONTINUOUS
10
179.236
20
-56.7163
11
179.034
21
-57.3947
0
LINE
8
BLACK
6
CONTINUOUS
10
179.034
20
-57.3947
11
178.967
21
-58.1008
0
LINE
8
BLACK
6
CONTINUOUS
10
178.967
20
-58.1008
11
178.968
21
-60.7683
0
LINE
8
BLACK
6
CONTINUOUS
10
178.968
20
-60.7683
11
178.968
21
-60.7695
0
LINE
8
BLACK
6
CONTINUOUS
10
178.968
20
-60.7695
11
178.968
21
-60.7744
0
LINE
8
BLACK
6
CONTINUOUS
10
178.968
20
-60.7744
11
178.966
21
-60.7791
0
LINE
8
BLACK
6
CONTINUOUS
10
178.966
20
-60.7791
11
178.965
21
-60.7822
0
LINE
8
BLACK
6
CONTINUOUS
10
178.965
20
-60.7822
11
178.964
21
-60.7834
0
LINE
8
BLACK
6
CONTINUOUS
10
178.964
20
-60.7834
11
178.964
21
-60.7835
0
LINE
8
BLACK
6
CONTINUOUS
10
178.964
20
-60.7835
11
178.964
21
-60.7835
0
LINE
8
BLACK
6
CONTINUOUS
10
178.964
20
-60.7835
11
178.961
21
-60.7873
0
LINE
8
BLACK
6
CONTINUOUS
10
178.961
20
-60.7873
11
178.957
21
-60.7904
0
LINE
8
BLACK
6
CONTINUOUS
10
178.957
20
-60.7904
11
178.953
21
-60.7925
0
LINE
8
BLACK
6
CONTINUOUS
10
178.953
20
-60.7925
11
178.953
21
-60.7927
0
LINE
8
BLACK
6
CONTINUOUS
10
178.953
20
-60.7927
11
178.953
21
-60.7927
0
LINE
8
BLACK
6
CONTINUOUS
10
178.953
20
-60.7927
11
178.953
21
-60.7927
0
LINE
8
BLACK
6
CONTINUOUS
10
178.953
20
-60.7927
11
178.948
21
-60.7941
0
LINE
8
BLACK
6
CONTINUOUS
10
178.948
20
-60.7941
11
178.944
21
-60.7945
0
LINE
8
BLACK
6
CONTINUOUS
10
178.944
20
-60.7945
11
178.944
21
-60.7945
0
LINE
8
BLACK
6
CONTINUOUS
10
178.944
20
-60.7945
11
178.943
21
-60.7946
0
LINE
8
BLACK
6
CONTINUOUS
10
178.943
20
-60.7946
11
178.942
21
-60.7945
0
LINE
8
BLACK
6
CONTINUOUS
10
178.942
20
-60.7945
11
167.512
21
-60.7945
0
LINE
8
BLACK
6
CONTINUOUS
10
167.512
20
-60.7945
11
167.511
21
-60.7944
0
LINE
8
BLACK
6
CONTINUOUS
10
167.511
20
-60.7944
11
167.511
21
-60.7944
0
LINE
8
BLACK
6
CONTINUOUS
10
167.511
20
-60.7944
11
167.239
21
-60.7678
0
LINE
8
BLACK
6
CONTINUOUS
10
167.239
20
-60.7678
11
167.239
21
-60.7677
0
LINE
8
BLACK
6
CONTINUOUS
10
167.239
20
-60.7677
11
167.237
21
-60.7673
0
LINE
8
BLACK
6
CONTINUOUS
10
167.237
20
-60.7673
11
167.234
21
-60.7668
0
LINE
8
BLACK
6
CONTINUOUS
10
167.234
20
-60.7668
11
166.973
21
-60.688
0
LINE
8
BLACK
6
CONTINUOUS
10
166.973
20
-60.688
11
166.973
21
-60.6879
0
LINE
8
BLACK
6
CONTINUOUS
10
166.973
20
-60.6879
11
166.971
21
-60.687
0
LINE
8
BLACK
6
CONTINUOUS
10
166.971
20
-60.687
11
166.969
21
-60.6862
0
LINE
8
BLACK
6
CONTINUOUS
10
166.969
20
-60.6862
11
166.728
21
-60.5582
0
LINE
8
BLACK
6
CONTINUOUS
10
166.728
20
-60.5582
11
166.728
21
-60.558
0
LINE
8
BLACK
6
CONTINUOUS
10
166.728
20
-60.558
11
166.726
21
-60.5567
0
LINE
8
BLACK
6
CONTINUOUS
10
166.726
20
-60.5567
11
166.724
21
-60.5555
0
LINE
8
BLACK
6
CONTINUOUS
10
166.724
20
-60.5555
11
166.513
21
-60.3831
0
LINE
8
BLACK
6
CONTINUOUS
10
166.513
20
-60.3831
11
166.513
21
-60.3829
0
LINE
8
BLACK
6
CONTINUOUS
10
166.513
20
-60.3829
11
166.511
21
-60.3813
0
LINE
8
BLACK
6
CONTINUOUS
10
166.511
20
-60.3813
11
166.509
21
-60.3797
0
LINE
8
BLACK
6
CONTINUOUS
10
166.509
20
-60.3797
11
166.336
21
-60.1696
0
LINE
8
BLACK
6
CONTINUOUS
10
166.336
20
-60.1696
11
166.335
21
-60.1694
0
LINE
8
BLACK
6
CONTINUOUS
10
166.335
20
-60.1694
11
166.334
21
-60.1675
0
LINE
8
BLACK
6
CONTINUOUS
10
166.334
20
-60.1675
11
166.333
21
-60.1656
0
LINE
8
BLACK
6
CONTINUOUS
10
166.333
20
-60.1656
11
166.203
21
-59.9258
0
LINE
8
BLACK
6
CONTINUOUS
10
166.203
20
-59.9258
11
166.203
21
-59.9254
0
LINE
8
BLACK
6
CONTINUOUS
10
166.203
20
-59.9254
11
166.202
21
-59.9233
0
LINE
8
BLACK
6
CONTINUOUS
10
166.202
20
-59.9233
11
166.201
21
-59.9213
0
LINE
8
BLACK
6
CONTINUOUS
10
166.201
20
-59.9213
11
166.121
21
-59.6608
0
LINE
8
BLACK
6
CONTINUOUS
10
166.121
20
-59.6608
11
166.121
21
-59.6605
0
LINE
8
BLACK
6
CONTINUOUS
10
166.121
20
-59.6605
11
166.12
21
-59.6582
0
LINE
8
BLACK
6
CONTINUOUS
10
166.12
20
-59.6582
11
166.12
21
-59.656
0
LINE
8
BLACK
6
CONTINUOUS
10
166.12
20
-59.656
11
166.091
21
-59.3849
0
LINE
8
BLACK
6
CONTINUOUS
10
166.091
20
-59.3849
11
166.091
21
-59.3845
0
LINE
8
BLACK
6
CONTINUOUS
10
166.091
20
-59.3845
11
166.091
21
-59.3834
0
LINE
8
BLACK
6
CONTINUOUS
10
166.091
20
-59.3834
11
166.091
21
-59.3823
0
LINE
8
BLACK
6
CONTINUOUS
10
166.091
20
-59.3823
11
166.091
21
-59.3737
0
LINE
8
BLACK
6
CONTINUOUS
10
166.091
20
-59.3737
11
166.091
21
-59.3737
0
LINE
8
BLACK
6
CONTINUOUS
10
166.091
20
-59.3737
11
166.091
21
-59.3729
0
LINE
8
BLACK
6
CONTINUOUS
10
166.091
20
-59.3729
11
166.091
21
-59.3726
0
LINE
8
BLACK
6
CONTINUOUS
10
166.091
20
-59.3726
11
166.091
21
-59.3722
0
LINE
8
BLACK
6
CONTINUOUS
10
166.091
20
-59.3722
11
166.091
21
-58.8646
0
LINE
8
BLACK
6
CONTINUOUS
10
166.091
20
-58.8646
11
166.091
21
-58.8619
0
LINE
8
BLACK
6
CONTINUOUS
10
166.091
20
-58.8619
11
166.08
21
-58.7546
0
LINE
8
BLACK
6
CONTINUOUS
10
166.08
20
-58.7546
11
166.048
21
-58.6528
0
LINE
8
BLACK
6
CONTINUOUS
10
166.048
20
-58.6528
11
165.997
21
-58.559
0
LINE
8
BLACK
6
CONTINUOUS
10
165.997
20
-58.559
11
165.929
21
-58.4768
0
LINE
8
BLACK
6
CONTINUOUS
10
165.929
20
-58.4768
11
165.847
21
-58.4094
0
LINE
8
BLACK
6
CONTINUOUS
10
165.847
20
-58.4094
11
165.753
21
-58.3593
0
LINE
8
BLACK
6
CONTINUOUS
10
165.753
20
-58.3593
11
165.651
21
-58.3285
0
LINE
8
BLACK
6
CONTINUOUS
10
165.651
20
-58.3285
11
165.543
21
-58.318
0
LINE
8
BLACK
6
CONTINUOUS
10
165.543
20
-58.318
11
148.462
21
-58.318
0
LINE
8
BLACK
6
CONTINUOUS
10
148.462
20
-58.318
11
148.461
21
-58.3179
0
LINE
8
BLACK
6
CONTINUOUS
10
148.461
20
-58.3179
11
148.461
21
-58.3179
0
LINE
8
BLACK
6
CONTINUOUS
10
148.461
20
-58.3179
11
148.189
21
-58.2913
0
LINE
8
BLACK
6
CONTINUOUS
10
148.189
20
-58.2913
11
148.189
21
-58.2912
0
LINE
8
BLACK
6
CONTINUOUS
10
148.189
20
-58.2912
11
148.187
21
-58.2908
0
LINE
8
BLACK
6
CONTINUOUS
10
148.187
20
-58.2908
11
148.184
21
-58.2903
0
LINE
8
BLACK
6
CONTINUOUS
10
148.184
20
-58.2903
11
147.923
21
-58.2115
0
LINE
8
BLACK
6
CONTINUOUS
10
147.923
20
-58.2115
11
147.923
21
-58.2114
0
LINE
8
BLACK
6
CONTINUOUS
10
147.923
20
-58.2114
11
147.921
21
-58.2105
0
LINE
8
BLACK
6
CONTINUOUS
10
147.921
20
-58.2105
11
147.919
21
-58.2097
0
LINE
8
BLACK
6
CONTINUOUS
10
147.919
20
-58.2097
11
147.678
21
-58.0817
0
LINE
8
BLACK
6
CONTINUOUS
10
147.678
20
-58.0817
11
147.678
21
-58.0815
0
LINE
8
BLACK
6
CONTINUOUS
10
147.678
20
-58.0815
11
147.676
21
-58.0802
0
LINE
8
BLACK
6
CONTINUOUS
10
147.676
20
-58.0802
11
147.674
21
-58.079
0
LINE
8
BLACK
6
CONTINUOUS
10
147.674
20
-58.079
11
147.463
21
-57.9066
0
LINE
8
BLACK
6
CONTINUOUS
10
147.463
20
-57.9066
11
147.463
21
-57.9064
0
LINE
8
BLACK
6
CONTINUOUS
10
147.463
20
-57.9064
11
147.461
21
-57.9048
0
LINE
8
BLACK
6
CONTINUOUS
10
147.461
20
-57.9048
11
147.459
21
-57.9032
0
LINE
8
BLACK
6
CONTINUOUS
10
147.459
20
-57.9032
11
147.286
21
-57.6931
0
LINE
8
BLACK
6
CONTINUOUS
10
147.286
20
-57.6931
11
147.285
21
-57.6929
0
LINE
8
BLACK
6
CONTINUOUS
10
147.285
20
-57.6929
11
147.284
21
-57.691
0
LINE
8
BLACK
6
CONTINUOUS
10
147.284
20
-57.691
11
147.283
21
-57.6891
0
LINE
8
BLACK
6
CONTINUOUS
10
147.283
20
-57.6891
11
147.153
21
-57.4492
0
LINE
8
BLACK
6
CONTINUOUS
10
147.153
20
-57.4492
11
147.153
21
-57.4489
0
LINE
8
BLACK
6
CONTINUOUS
10
147.153
20
-57.4489
11
147.152
21
-57.4468
0
LINE
8
BLACK
6
CONTINUOUS
10
147.152
20
-57.4468
11
147.151
21
-57.4448
0
LINE
8
BLACK
6
CONTINUOUS
10
147.151
20
-57.4448
11
147.071
21
-57.1843
0
LINE
8
BLACK
6
CONTINUOUS
10
147.071
20
-57.1843
11
147.071
21
-57.184
0
LINE
8
BLACK
6
CONTINUOUS
10
147.071
20
-57.184
11
147.07
21
-57.1817
0
LINE
8
BLACK
6
CONTINUOUS
10
147.07
20
-57.1817
11
147.07
21
-57.1795
0
LINE
8
BLACK
6
CONTINUOUS
10
147.07
20
-57.1795
11
147.041
21
-56.9084
0
LINE
8
BLACK
6
CONTINUOUS
10
147.041
20
-56.9084
11
147.041
21
-56.908
0
LINE
8
BLACK
6
CONTINUOUS
10
147.041
20
-56.908
11
147.041
21
-56.9069
0
LINE
8
BLACK
6
CONTINUOUS
10
147.041
20
-56.9069
11
147.041
21
-56.9058
0
LINE
8
BLACK
6
CONTINUOUS
10
147.041
20
-56.9058
11
147.041
21
-56.8972
0
LINE
8
BLACK
6
CONTINUOUS
10
147.041
20
-56.8972
11
147.041
21
-56.8972
0
LINE
8
BLACK
6
CONTINUOUS
10
147.041
20
-56.8972
11
147.041
21
-56.8964
0
LINE
8
BLACK
6
CONTINUOUS
10
147.041
20
-56.8964
11
147.041
21
-56.8961
0
LINE
8
BLACK
6
CONTINUOUS
10
147.041
20
-56.8961
11
147.041
21
-56.8957
0
LINE
8
BLACK
6
CONTINUOUS
10
147.041
20
-56.8957
11
147.041
21
-56.5786
0
LINE
8
BLACK
6
CONTINUOUS
10
147.041
20
-56.5786
11
147.041
21
-56.5759
0
LINE
8
BLACK
6
CONTINUOUS
10
147.041
20
-56.5759
11
147.03
21
-56.4686
0
LINE
8
BLACK
6
CONTINUOUS
10
147.03
20
-56.4686
11
146.998
21
-56.3668
0
LINE
8
BLACK
6
CONTINUOUS
10
146.998
20
-56.3668
11
146.947
21
-56.273
0
LINE
8
BLACK
6
CONTINUOUS
10
146.947
20
-56.273
11
146.879
21
-56.1908
0
LINE
8
BLACK
6
CONTINUOUS
10
146.879
20
-56.1908
11
146.797
21
-56.1234
0
LINE
8
BLACK
6
CONTINUOUS
10
146.797
20
-56.1234
11
146.703
21
-56.0733
0
LINE
8
BLACK
6
CONTINUOUS
10
146.703
20
-56.0733
11
146.601
21
-56.0425
0
LINE
8
BLACK
6
CONTINUOUS
10
146.601
20
-56.0425
11
146.493
21
-56.032
0
LINE
8
BLACK
6
CONTINUOUS
10
146.493
20
-56.032
11
124.651
21
-56.032
0
LINE
8
BLACK
6
CONTINUOUS
10
124.651
20
-56.032
11
124.648
21
-56.032
0
LINE
8
BLACK
6
CONTINUOUS
10
124.648
20
-56.032
11
124.541
21
-56.0433
0
LINE
8
BLACK
6
CONTINUOUS
10
124.541
20
-56.0433
11
124.439
21
-56.0748
0
LINE
8
BLACK
6
CONTINUOUS
10
124.439
20
-56.0748
11
124.345
21
-56.1255
0
LINE
8
BLACK
6
CONTINUOUS
10
124.345
20
-56.1255
11
124.263
21
-56.1935
0
LINE
8
BLACK
6
CONTINUOUS
10
124.263
20
-56.1935
11
124.195
21
-56.2761
0
LINE
8
BLACK
6
CONTINUOUS
10
124.195
20
-56.2761
11
124.145
21
-56.3703
0
LINE
8
BLACK
6
CONTINUOUS
10
124.145
20
-56.3703
11
124.115
21
-56.4724
0
LINE
8
BLACK
6
CONTINUOUS
10
124.115
20
-56.4724
11
124.104
21
-56.5797
0
LINE
8
BLACK
6
CONTINUOUS
10
124.104
20
-56.5797
11
124.104
21
-56.9607
0
LINE
8
BLACK
6
CONTINUOUS
10
124.104
20
-56.9607
11
124.104
21
-56.9619
0
LINE
8
BLACK
6
CONTINUOUS
10
124.104
20
-56.9619
11
124.104
21
-56.9619
0
LINE
8
BLACK
6
CONTINUOUS
10
124.104
20
-56.9619
11
124.077
21
-57.2333
0
LINE
8
BLACK
6
CONTINUOUS
10
124.077
20
-57.2333
11
124.077
21
-57.2336
0
LINE
8
BLACK
6
CONTINUOUS
10
124.077
20
-57.2336
11
124.077
21
-57.2359
0
LINE
8
BLACK
6
CONTINUOUS
10
124.077
20
-57.2359
11
124.076
21
-57.2381
0
LINE
8
BLACK
6
CONTINUOUS
10
124.076
20
-57.2381
11
123.998
21
-57.4991
0
LINE
8
BLACK
6
CONTINUOUS
10
123.998
20
-57.4991
11
123.997
21
-57.4994
0
LINE
8
BLACK
6
CONTINUOUS
10
123.997
20
-57.4994
11
123.997
21
-57.5015
0
LINE
8
BLACK
6
CONTINUOUS
10
123.997
20
-57.5015
11
123.996
21
-57.5036
0
LINE
8
BLACK
6
CONTINUOUS
10
123.996
20
-57.5036
11
123.868
21
-57.7443
0
LINE
8
BLACK
6
CONTINUOUS
10
123.868
20
-57.7443
11
123.867
21
-57.7446
0
LINE
8
BLACK
6
CONTINUOUS
10
123.867
20
-57.7446
11
123.866
21
-57.7465
0
LINE
8
BLACK
6
CONTINUOUS
10
123.866
20
-57.7465
11
123.865
21
-57.7484
0
LINE
8
BLACK
6
CONTINUOUS
10
123.865
20
-57.7484
11
123.693
21
-57.9597
0
LINE
8
BLACK
6
CONTINUOUS
10
123.693
20
-57.9597
11
123.692
21
-57.9599
0
LINE
8
BLACK
6
CONTINUOUS
10
123.692
20
-57.9599
11
123.691
21
-57.9615
0
LINE
8
BLACK
6
CONTINUOUS
10
123.691
20
-57.9615
11
123.689
21
-57.9631
0
LINE
8
BLACK
6
CONTINUOUS
10
123.689
20
-57.9631
11
123.479
21
-58.1369
0
LINE
8
BLACK
6
CONTINUOUS
10
123.479
20
-58.1369
11
123.479
21
-58.1371
0
LINE
8
BLACK
6
CONTINUOUS
10
123.479
20
-58.1371
11
123.477
21
-58.1384
0
LINE
8
BLACK
6
CONTINUOUS
10
123.477
20
-58.1384
11
123.475
21
-58.1397
0
LINE
8
BLACK
6
CONTINUOUS
10
123.475
20
-58.1397
11
123.235
21
-58.2693
0
LINE
8
BLACK
6
CONTINUOUS
10
123.235
20
-58.2693
11
123.235
21
-58.2695
0
LINE
8
BLACK
6
CONTINUOUS
10
123.235
20
-58.2695
11
123.233
21
-58.2704
0
LINE
8
BLACK
6
CONTINUOUS
10
123.233
20
-58.2704
11
123.231
21
-58.2712
0
LINE
8
BLACK
6
CONTINUOUS
10
123.231
20
-58.2712
11
122.97
21
-58.3518
0
LINE
8
BLACK
6
CONTINUOUS
10
122.97
20
-58.3518
11
122.97
21
-58.3519
0
LINE
8
BLACK
6
CONTINUOUS
10
122.97
20
-58.3519
11
122.968
21
-58.3524
0
LINE
8
BLACK
6
CONTINUOUS
10
122.968
20
-58.3524
11
122.966
21
-58.3528
0
LINE
8
BLACK
6
CONTINUOUS
10
122.966
20
-58.3528
11
122.694
21
-58.3813
0
LINE
8
BLACK
6
CONTINUOUS
10
122.694
20
-58.3813
11
122.694
21
-58.3814
0
LINE
8
BLACK
6
CONTINUOUS
10
122.694
20
-58.3814
11
122.693
21
-58.3814
0
LINE
8
BLACK
6
CONTINUOUS
10
122.693
20
-58.3814
11
122.692
21
-58.3815
0
LINE
8
BLACK
6
CONTINUOUS
10
122.692
20
-58.3815
11
122.683
21
-58.3815
0
LINE
8
BLACK
6
CONTINUOUS
10
122.683
20
-58.3815
11
122.683
21
-58.3815
0
LINE
8
BLACK
6
CONTINUOUS
10
122.683
20
-58.3815
11
106.426
21
-58.3815
0
LINE
8
BLACK
6
CONTINUOUS
10
106.426
20
-58.3815
11
106.418
21
-58.3815
  0
ENDSEC
  0
EOF
