  0
SECTION
  2
HEADER
  9
$ANGBASE
  50
0.0
  9
$ANGDIR
  70
1
  9
$MEASUREMENT
  70
1
  0
ENDSEC
  0
SECTION
  2
TABLES
  0
TABLE
  2
LTYPE
  70
4
  0
LTYPE
  5
40F
  2
CONTINUOUS
  70
0
  3
Solid line
  72
65
  73
0
  40
0.0
  0
LTYPE
  5
410
  2
DASHDOT
 70
0
  3
Dash Dot ____ _ ____ _
 72
65
 73
4
 40
2.0
 49
1.25
 49
-0.25
 49
0.25
 49
-0.25
  0
LTYPE
  5
411
  2
DASHED
 70
0
  3
Dashed __ __ __ __ __
 72
65
 73
2
 40
0.75
 49
0.5
 49
-0.25
  0
LTYPE
  5
43B
  2
DOTTED
 70
0
  3
Dotted .  .  .  .
 72
65
 73
2
 40
0.2
 49
0.0
 49
-0.2
  0
ENDTAB
  0
TABLE
  2
STYLE
  70
4
  0
STYLE
  2
KICAD
  70
0
  40
0
  41
1
  42
1
  50
0
  71
0
  3
isocp.shx
  0
STYLE
  2
KICADB
  70
0
  40
0
  41
1
  42
1
  50
0
  71
0
  3
isocp.shx
  0
STYLE
  2
KICADI
  70
0
  40
0
  41
1
  42
1
  50
15
  71
0
  3
isocp.shx
  0
STYLE
  2
KICADBI
  70
0
  40
0
  41
1
  42
1
  50
15
  71
0
  3
isocp.shx
  0
ENDTAB
  0
TABLE
  2
LAYER
  70
1
  0
LAYER
  2
BLACK
  70
0
  62
7
  6
CONTINUOUS
  0
ENDTAB
  0
ENDSEC
  0
SECTION
  2
ENTITIES
0
LINE
8
BLACK
6
CONTINUOUS
10
181.009
20
-57.0927
11
181.011
21
-57.0932
0
LINE
8
BLACK
6
CONTINUOUS
10
181.011
20
-57.0932
11
181.014
21
-57.0936
0
LINE
8
BLACK
6
CONTINUOUS
10
181.014
20
-57.0936
11
181.622
21
-57.2727
0
LINE
8
BLACK
6
CONTINUOUS
10
181.622
20
-57.2727
11
181.622
21
-57.2728
0
LINE
8
BLACK
6
CONTINUOUS
10
181.622
20
-57.2728
11
181.624
21
-57.2737
0
LINE
8
BLACK
6
CONTINUOUS
10
181.624
20
-57.2737
11
181.627
21
-57.2745
0
LINE
8
BLACK
6
CONTINUOUS
10
181.627
20
-57.2745
11
182.189
21
-57.5684
0
LINE
8
BLACK
6
CONTINUOUS
10
182.189
20
-57.5684
11
182.189
21
-57.5685
0
LINE
8
BLACK
6
CONTINUOUS
10
182.189
20
-57.5685
11
182.191
21
-57.5698
0
LINE
8
BLACK
6
CONTINUOUS
10
182.191
20
-57.5698
11
182.193
21
-57.571
0
LINE
8
BLACK
6
CONTINUOUS
10
182.193
20
-57.571
11
182.687
21
-57.9685
0
LINE
8
BLACK
6
CONTINUOUS
10
182.687
20
-57.9685
11
182.687
21
-57.9687
0
LINE
8
BLACK
6
CONTINUOUS
10
182.687
20
-57.9687
11
182.689
21
-57.9703
0
LINE
8
BLACK
6
CONTINUOUS
10
182.689
20
-57.9703
11
182.691
21
-57.9719
0
LINE
8
BLACK
6
CONTINUOUS
10
182.691
20
-57.9719
11
183.098
21
-58.4578
0
LINE
8
BLACK
6
CONTINUOUS
10
183.098
20
-58.4578
11
183.098
21
-58.4581
0
LINE
8
BLACK
6
CONTINUOUS
10
183.098
20
-58.4581
11
183.1
21
-58.46
0
LINE
8
BLACK
6
CONTINUOUS
10
183.1
20
-58.46
11
183.101
21
-58.4618
0
LINE
8
BLACK
6
CONTINUOUS
10
183.101
20
-58.4618
11
183.407
21
-59.0176
0
LINE
8
BLACK
6
CONTINUOUS
10
183.407
20
-59.0176
11
183.407
21
-59.018
0
LINE
8
BLACK
6
CONTINUOUS
10
183.407
20
-59.018
11
183.408
21
-59.02
0
LINE
8
BLACK
6
CONTINUOUS
10
183.408
20
-59.02
11
183.409
21
-59.0221
0
LINE
8
BLACK
6
CONTINUOUS
10
183.409
20
-59.0221
11
183.6
21
-59.6267
0
LINE
8
BLACK
6
CONTINUOUS
10
183.6
20
-59.6267
11
183.6
21
-59.6271
0
LINE
8
BLACK
6
CONTINUOUS
10
183.6
20
-59.6271
11
183.601
21
-59.6293
0
LINE
8
BLACK
6
CONTINUOUS
10
183.601
20
-59.6293
11
183.601
21
-59.6315
0
LINE
8
BLACK
6
CONTINUOUS
10
183.601
20
-59.6315
11
183.672
21
-60.2618
0
LINE
8
BLACK
6
CONTINUOUS
10
183.672
20
-60.2618
11
183.672
21
-60.2622
0
LINE
8
BLACK
6
CONTINUOUS
10
183.672
20
-60.2622
11
183.672
21
-60.2633
0
LINE
8
BLACK
6
CONTINUOUS
10
183.672
20
-60.2633
11
183.672
21
-60.2644
0
LINE
8
BLACK
6
CONTINUOUS
10
183.672
20
-60.2644
11
183.672
21
-60.3087
0
LINE
8
BLACK
6
CONTINUOUS
10
183.672
20
-60.3087
11
183.672
21
-60.3088
0
LINE
8
BLACK
6
CONTINUOUS
10
183.672
20
-60.3088
11
183.672
21
-62.6495
0
LINE
8
BLACK
6
CONTINUOUS
10
183.672
20
-62.6495
11
183.77
21
-62.6495
0
LINE
8
BLACK
6
CONTINUOUS
10
183.77
20
-62.6495
11
183.771
21
-62.6496
0
LINE
8
BLACK
6
CONTINUOUS
10
183.771
20
-62.6496
11
183.771
21
-62.6496
0
LINE
8
BLACK
6
CONTINUOUS
10
183.771
20
-62.6496
11
184.043
21
-62.6762
0
LINE
8
BLACK
6
CONTINUOUS
10
184.043
20
-62.6762
11
184.043
21
-62.6763
0
LINE
8
BLACK
6
CONTINUOUS
10
184.043
20
-62.6763
11
184.045
21
-62.6767
0
LINE
8
BLACK
6
CONTINUOUS
10
184.045
20
-62.6767
11
184.048
21
-62.6772
0
LINE
8
BLACK
6
CONTINUOUS
10
184.048
20
-62.6772
11
184.309
21
-62.756
0
LINE
8
BLACK
6
CONTINUOUS
10
184.309
20
-62.756
11
184.309
21
-62.7561
0
LINE
8
BLACK
6
CONTINUOUS
10
184.309
20
-62.7561
11
184.311
21
-62.757
0
LINE
8
BLACK
6
CONTINUOUS
10
184.311
20
-62.757
11
184.313
21
-62.7578
0
LINE
8
BLACK
6
CONTINUOUS
10
184.313
20
-62.7578
11
184.554
21
-62.8858
0
LINE
8
BLACK
6
CONTINUOUS
10
184.554
20
-62.8858
11
184.554
21
-62.886
0
LINE
8
BLACK
6
CONTINUOUS
10
184.554
20
-62.886
11
184.556
21
-62.8873
0
LINE
8
BLACK
6
CONTINUOUS
10
184.556
20
-62.8873
11
184.558
21
-62.8885
0
LINE
8
BLACK
6
CONTINUOUS
10
184.558
20
-62.8885
11
184.769
21
-63.0609
0
LINE
8
BLACK
6
CONTINUOUS
10
184.769
20
-63.0609
11
184.769
21
-63.0609
0
LINE
8
BLACK
6
CONTINUOUS
10
184.769
20
-63.0609
11
184.769
21
-63.0609
0
LINE
8
BLACK
6
CONTINUOUS
10
184.769
20
-63.0609
11
184.769
21
-63.0611
0
LINE
8
BLACK
6
CONTINUOUS
10
184.769
20
-63.0611
11
184.771
21
-63.0627
0
LINE
8
BLACK
6
CONTINUOUS
10
184.771
20
-63.0627
11
184.773
21
-63.0643
0
LINE
8
BLACK
6
CONTINUOUS
10
184.773
20
-63.0643
11
184.946
21
-63.2744
0
LINE
8
BLACK
6
CONTINUOUS
10
184.946
20
-63.2744
11
184.947
21
-63.2746
0
LINE
8
BLACK
6
CONTINUOUS
10
184.947
20
-63.2746
11
184.948
21
-63.2766
0
LINE
8
BLACK
6
CONTINUOUS
10
184.948
20
-63.2766
11
184.949
21
-63.2784
0
LINE
8
BLACK
6
CONTINUOUS
10
184.949
20
-63.2784
11
185.079
21
-63.5182
0
LINE
8
BLACK
6
CONTINUOUS
10
185.079
20
-63.5182
11
185.079
21
-63.5182
0
LINE
8
BLACK
6
CONTINUOUS
10
185.079
20
-63.5182
11
185.079
21
-63.5183
0
LINE
8
BLACK
6
CONTINUOUS
10
185.079
20
-63.5183
11
185.079
21
-63.5186
0
LINE
8
BLACK
6
CONTINUOUS
10
185.079
20
-63.5186
11
185.08
21
-63.5207
0
LINE
8
BLACK
6
CONTINUOUS
10
185.08
20
-63.5207
11
185.081
21
-63.5227
0
LINE
8
BLACK
6
CONTINUOUS
10
185.081
20
-63.5227
11
185.161
21
-63.7832
0
LINE
8
BLACK
6
CONTINUOUS
10
185.161
20
-63.7832
11
185.161
21
-63.7835
0
LINE
8
BLACK
6
CONTINUOUS
10
185.161
20
-63.7835
11
185.162
21
-63.7858
0
LINE
8
BLACK
6
CONTINUOUS
10
185.162
20
-63.7858
11
185.162
21
-63.788
0
LINE
8
BLACK
6
CONTINUOUS
10
185.162
20
-63.788
11
185.191
21
-64.0591
0
LINE
8
BLACK
6
CONTINUOUS
10
185.191
20
-64.0591
11
185.191
21
-64.0595
0
LINE
8
BLACK
6
CONTINUOUS
10
185.191
20
-64.0595
11
185.191
21
-64.0606
0
LINE
8
BLACK
6
CONTINUOUS
10
185.191
20
-64.0606
11
185.191
21
-64.0617
0
LINE
8
BLACK
6
CONTINUOUS
10
185.191
20
-64.0617
11
185.191
21
-64.0702
0
LINE
8
BLACK
6
CONTINUOUS
10
185.191
20
-64.0702
11
185.191
21
-64.0703
0
LINE
8
BLACK
6
CONTINUOUS
10
185.191
20
-64.0703
11
185.191
21
-131.593
0
LINE
8
BLACK
6
CONTINUOUS
10
185.191
20
-131.593
11
187.976
21
-131.593
0
LINE
8
BLACK
6
CONTINUOUS
10
187.976
20
-131.593
11
187.977
21
-131.593
0
LINE
8
BLACK
6
CONTINUOUS
10
187.977
20
-131.593
11
187.977
21
-131.593
0
LINE
8
BLACK
6
CONTINUOUS
10
187.977
20
-131.593
11
188.609
21
-131.655
0
LINE
8
BLACK
6
CONTINUOUS
10
188.609
20
-131.655
11
188.609
21
-131.655
0
LINE
8
BLACK
6
CONTINUOUS
10
188.609
20
-131.655
11
188.611
21
-131.656
0
LINE
8
BLACK
6
CONTINUOUS
10
188.611
20
-131.656
11
188.613
21
-131.656
0
LINE
8
BLACK
6
CONTINUOUS
10
188.613
20
-131.656
11
189.221
21
-131.839
0
LINE
8
BLACK
6
CONTINUOUS
10
189.221
20
-131.839
11
189.221
21
-131.839
0
LINE
8
BLACK
6
CONTINUOUS
10
189.221
20
-131.839
11
189.223
21
-131.84
0
LINE
8
BLACK
6
CONTINUOUS
10
189.223
20
-131.84
11
189.225
21
-131.841
0
LINE
8
BLACK
6
CONTINUOUS
10
189.225
20
-131.841
11
189.785
21
-132.139
0
LINE
8
BLACK
6
CONTINUOUS
10
189.785
20
-132.139
11
189.786
21
-132.139
0
LINE
8
BLACK
6
CONTINUOUS
10
189.786
20
-132.139
11
189.787
21
-132.14
0
LINE
8
BLACK
6
CONTINUOUS
10
189.787
20
-132.14
11
189.789
21
-132.142
0
LINE
8
BLACK
6
CONTINUOUS
10
189.789
20
-132.142
11
190.281
21
-132.543
0
LINE
8
BLACK
6
CONTINUOUS
10
190.281
20
-132.543
11
190.281
21
-132.543
0
LINE
8
BLACK
6
CONTINUOUS
10
190.281
20
-132.543
11
190.283
21
-132.544
0
LINE
8
BLACK
6
CONTINUOUS
10
190.283
20
-132.544
11
190.284
21
-132.546
0
LINE
8
BLACK
6
CONTINUOUS
10
190.284
20
-132.546
11
190.689
21
-133.035
0
LINE
8
BLACK
6
CONTINUOUS
10
190.689
20
-133.035
11
190.689
21
-133.035
0
LINE
8
BLACK
6
CONTINUOUS
10
190.689
20
-133.035
11
190.69
21
-133.037
0
LINE
8
BLACK
6
CONTINUOUS
10
190.69
20
-133.037
11
190.691
21
-133.039
0
LINE
8
BLACK
6
CONTINUOUS
10
190.691
20
-133.039
11
190.993
21
-133.597
0
LINE
8
BLACK
6
CONTINUOUS
10
190.993
20
-133.597
11
190.993
21
-133.597
0
LINE
8
BLACK
6
CONTINUOUS
10
190.993
20
-133.597
11
190.993
21
-133.597
0
LINE
8
BLACK
6
CONTINUOUS
10
190.993
20
-133.597
11
190.993
21
-133.597
0
LINE
8
BLACK
6
CONTINUOUS
10
190.993
20
-133.597
11
190.994
21
-133.599
0
LINE
8
BLACK
6
CONTINUOUS
10
190.994
20
-133.599
11
190.995
21
-133.601
0
LINE
8
BLACK
6
CONTINUOUS
10
190.995
20
-133.601
11
191.183
21
-134.207
0
LINE
8
BLACK
6
CONTINUOUS
10
191.183
20
-134.207
11
191.183
21
-134.207
0
LINE
8
BLACK
6
CONTINUOUS
10
191.183
20
-134.207
11
191.183
21
-134.21
0
LINE
8
BLACK
6
CONTINUOUS
10
191.183
20
-134.21
11
191.183
21
-134.212
0
LINE
8
BLACK
6
CONTINUOUS
10
191.183
20
-134.212
11
191.25
21
-134.843
0
LINE
8
BLACK
6
CONTINUOUS
10
191.25
20
-134.843
11
191.25
21
-134.843
0
LINE
8
BLACK
6
CONTINUOUS
10
191.25
20
-134.843
11
191.25
21
-134.845
0
LINE
8
BLACK
6
CONTINUOUS
10
191.25
20
-134.845
11
191.25
21
-134.848
0
LINE
8
BLACK
6
CONTINUOUS
10
191.25
20
-134.848
11
191.192
21
-135.479
0
LINE
8
BLACK
6
CONTINUOUS
10
191.192
20
-135.479
11
191.192
21
-135.48
0
LINE
8
BLACK
6
CONTINUOUS
10
191.192
20
-135.48
11
191.192
21
-135.482
0
LINE
8
BLACK
6
CONTINUOUS
10
191.192
20
-135.482
11
191.191
21
-135.484
0
LINE
8
BLACK
6
CONTINUOUS
10
191.191
20
-135.484
11
191.012
21
-136.093
0
LINE
8
BLACK
6
CONTINUOUS
10
191.012
20
-136.093
11
191.012
21
-136.093
0
LINE
8
BLACK
6
CONTINUOUS
10
191.012
20
-136.093
11
191.011
21
-136.095
0
LINE
8
BLACK
6
CONTINUOUS
10
191.011
20
-136.095
11
191.011
21
-136.097
0
LINE
8
BLACK
6
CONTINUOUS
10
191.011
20
-136.097
11
190.717
21
-136.659
0
LINE
8
BLACK
6
CONTINUOUS
10
190.717
20
-136.659
11
190.717
21
-136.659
0
LINE
8
BLACK
6
CONTINUOUS
10
190.717
20
-136.659
11
190.717
21
-136.659
0
LINE
8
BLACK
6
CONTINUOUS
10
190.717
20
-136.659
11
190.716
21
-136.659
0
LINE
8
BLACK
6
CONTINUOUS
10
190.716
20
-136.659
11
190.715
21
-136.661
0
LINE
8
BLACK
6
CONTINUOUS
10
190.715
20
-136.661
11
190.714
21
-136.663
0
LINE
8
BLACK
6
CONTINUOUS
10
190.714
20
-136.663
11
190.317
21
-137.158
0
LINE
8
BLACK
6
CONTINUOUS
10
190.317
20
-137.158
11
190.316
21
-137.158
0
LINE
8
BLACK
6
CONTINUOUS
10
190.316
20
-137.158
11
190.315
21
-137.159
0
LINE
8
BLACK
6
CONTINUOUS
10
190.315
20
-137.159
11
190.313
21
-137.161
0
LINE
8
BLACK
6
CONTINUOUS
10
190.313
20
-137.161
11
189.827
21
-137.569
0
LINE
8
BLACK
6
CONTINUOUS
10
189.827
20
-137.569
11
189.827
21
-137.569
0
LINE
8
BLACK
6
CONTINUOUS
10
189.827
20
-137.569
11
189.825
21
-137.57
0
LINE
8
BLACK
6
CONTINUOUS
10
189.825
20
-137.57
11
189.823
21
-137.572
0
LINE
8
BLACK
6
CONTINUOUS
10
189.823
20
-137.572
11
189.267
21
-137.877
0
LINE
8
BLACK
6
CONTINUOUS
10
189.267
20
-137.877
11
189.267
21
-137.877
0
LINE
8
BLACK
6
CONTINUOUS
10
189.267
20
-137.877
11
189.265
21
-137.878
0
LINE
8
BLACK
6
CONTINUOUS
10
189.265
20
-137.878
11
189.263
21
-137.879
0
LINE
8
BLACK
6
CONTINUOUS
10
189.263
20
-137.879
11
188.658
21
-138.071
0
LINE
8
BLACK
6
CONTINUOUS
10
188.658
20
-138.071
11
188.658
21
-138.071
0
LINE
8
BLACK
6
CONTINUOUS
10
188.658
20
-138.071
11
188.656
21
-138.071
0
LINE
8
BLACK
6
CONTINUOUS
10
188.656
20
-138.071
11
188.653
21
-138.072
0
LINE
8
BLACK
6
CONTINUOUS
10
188.653
20
-138.072
11
188.023
21
-138.143
0
LINE
8
BLACK
6
CONTINUOUS
10
188.023
20
-138.143
11
188.023
21
-138.143
0
LINE
8
BLACK
6
CONTINUOUS
10
188.023
20
-138.143
11
188.022
21
-138.143
0
LINE
8
BLACK
6
CONTINUOUS
10
188.022
20
-138.143
11
188.021
21
-138.143
0
LINE
8
BLACK
6
CONTINUOUS
10
188.021
20
-138.143
11
187.976
21
-138.143
0
LINE
8
BLACK
6
CONTINUOUS
10
187.976
20
-138.143
11
187.976
21
-138.143
0
LINE
8
BLACK
6
CONTINUOUS
10
187.976
20
-138.143
11
185.191
21
-138.143
0
LINE
8
BLACK
6
CONTINUOUS
10
185.191
20
-138.143
11
185.191
21
-140.334
0
LINE
8
BLACK
6
CONTINUOUS
10
185.191
20
-140.334
11
185.196
21
-140.427
0
LINE
8
BLACK
6
CONTINUOUS
10
185.196
20
-140.427
11
185.231
21
-140.605
0
LINE
8
BLACK
6
CONTINUOUS
10
185.231
20
-140.605
11
185.3
21
-140.772
0
LINE
8
BLACK
6
CONTINUOUS
10
185.3
20
-140.772
11
185.401
21
-140.922
0
LINE
8
BLACK
6
CONTINUOUS
10
185.401
20
-140.922
11
185.529
21
-141.051
0
LINE
8
BLACK
6
CONTINUOUS
10
185.529
20
-141.051
11
185.681
21
-141.153
0
LINE
8
BLACK
6
CONTINUOUS
10
185.681
20
-141.153
11
213.809
21
-159.412
0
LINE
8
BLACK
6
CONTINUOUS
10
213.809
20
-159.412
11
213.812
21
-159.414
0
LINE
8
BLACK
6
CONTINUOUS
10
213.812
20
-159.414
11
213.812
21
-159.414
0
LINE
8
BLACK
6
CONTINUOUS
10
213.812
20
-159.414
11
213.949
21
-159.526
0
LINE
8
BLACK
6
CONTINUOUS
10
213.949
20
-159.526
11
213.949
21
-159.527
0
LINE
8
BLACK
6
CONTINUOUS
10
213.949
20
-159.527
11
213.951
21
-159.528
0
LINE
8
BLACK
6
CONTINUOUS
10
213.951
20
-159.528
11
213.953
21
-159.53
0
LINE
8
BLACK
6
CONTINUOUS
10
213.953
20
-159.53
11
214.067
21
-159.668
0
LINE
8
BLACK
6
CONTINUOUS
10
214.067
20
-159.668
11
214.067
21
-159.669
0
LINE
8
BLACK
6
CONTINUOUS
10
214.067
20
-159.669
11
214.068
21
-159.671
0
LINE
8
BLACK
6
CONTINUOUS
10
214.068
20
-159.671
11
214.07
21
-159.672
0
LINE
8
BLACK
6
CONTINUOUS
10
214.07
20
-159.672
11
214.155
21
-159.831
0
LINE
8
BLACK
6
CONTINUOUS
10
214.155
20
-159.831
11
214.155
21
-159.831
0
LINE
8
BLACK
6
CONTINUOUS
10
214.155
20
-159.831
11
214.156
21
-159.833
0
LINE
8
BLACK
6
CONTINUOUS
10
214.156
20
-159.833
11
214.157
21
-159.835
0
LINE
8
BLACK
6
CONTINUOUS
10
214.157
20
-159.835
11
214.21
21
-160.007
0
LINE
8
BLACK
6
CONTINUOUS
10
214.21
20
-160.007
11
214.21
21
-160.007
0
LINE
8
BLACK
6
CONTINUOUS
10
214.21
20
-160.007
11
214.21
21
-160.009
0
LINE
8
BLACK
6
CONTINUOUS
10
214.21
20
-160.009
11
214.211
21
-160.012
0
LINE
8
BLACK
6
CONTINUOUS
10
214.211
20
-160.012
11
214.229
21
-160.19
0
LINE
8
BLACK
6
CONTINUOUS
10
214.229
20
-160.19
11
214.229
21
-160.191
0
LINE
8
BLACK
6
CONTINUOUS
10
214.229
20
-160.191
11
214.229
21
-160.193
0
LINE
8
BLACK
6
CONTINUOUS
10
214.229
20
-160.193
11
214.229
21
-160.195
0
LINE
8
BLACK
6
CONTINUOUS
10
214.229
20
-160.195
11
214.212
21
-160.374
0
LINE
8
BLACK
6
CONTINUOUS
10
214.212
20
-160.374
11
214.212
21
-160.374
0
LINE
8
BLACK
6
CONTINUOUS
10
214.212
20
-160.374
11
214.212
21
-160.377
0
LINE
8
BLACK
6
CONTINUOUS
10
214.212
20
-160.377
11
214.212
21
-160.379
0
LINE
8
BLACK
6
CONTINUOUS
10
214.212
20
-160.379
11
214.161
21
-160.551
0
LINE
8
BLACK
6
CONTINUOUS
10
214.161
20
-160.551
11
214.16
21
-160.551
0
LINE
8
BLACK
6
CONTINUOUS
10
214.16
20
-160.551
11
214.16
21
-160.553
0
LINE
8
BLACK
6
CONTINUOUS
10
214.16
20
-160.553
11
214.159
21
-160.554
0
LINE
8
BLACK
6
CONTINUOUS
10
214.159
20
-160.554
11
214.12
21
-160.638
0
LINE
8
BLACK
6
CONTINUOUS
10
214.12
20
-160.638
11
214.12
21
-160.639
0
LINE
8
BLACK
6
CONTINUOUS
10
214.12
20
-160.639
11
214.118
21
-160.642
0
LINE
8
BLACK
6
CONTINUOUS
10
214.118
20
-160.642
11
197.077
21
-186.834
0
LINE
8
BLACK
6
CONTINUOUS
10
197.077
20
-186.834
11
197.076
21
-186.835
0
LINE
8
BLACK
6
CONTINUOUS
10
197.076
20
-186.835
11
197.076
21
-186.835
0
LINE
8
BLACK
6
CONTINUOUS
10
197.076
20
-186.835
11
197.076
21
-186.835
0
LINE
8
BLACK
6
CONTINUOUS
10
197.076
20
-186.835
11
197.075
21
-186.837
0
LINE
8
BLACK
6
CONTINUOUS
10
197.075
20
-186.837
11
197.075
21
-186.837
0
LINE
8
BLACK
6
CONTINUOUS
10
197.075
20
-186.837
11
196.963
21
-186.974
0
LINE
8
BLACK
6
CONTINUOUS
10
196.963
20
-186.974
11
196.962
21
-186.975
0
LINE
8
BLACK
6
CONTINUOUS
10
196.962
20
-186.975
11
196.961
21
-186.976
0
LINE
8
BLACK
6
CONTINUOUS
10
196.961
20
-186.976
11
196.959
21
-186.978
0
LINE
8
BLACK
6
CONTINUOUS
10
196.959
20
-186.978
11
196.821
21
-187.092
0
LINE
8
BLACK
6
CONTINUOUS
10
196.821
20
-187.092
11
196.82
21
-187.092
0
LINE
8
BLACK
6
CONTINUOUS
10
196.82
20
-187.092
11
196.818
21
-187.094
0
LINE
8
BLACK
6
CONTINUOUS
10
196.818
20
-187.094
11
196.817
21
-187.095
0
LINE
8
BLACK
6
CONTINUOUS
10
196.817
20
-187.095
11
196.658
21
-187.18
0
LINE
8
BLACK
6
CONTINUOUS
10
196.658
20
-187.18
11
196.658
21
-187.18
0
LINE
8
BLACK
6
CONTINUOUS
10
196.658
20
-187.18
11
196.656
21
-187.181
0
LINE
8
BLACK
6
CONTINUOUS
10
196.656
20
-187.181
11
196.654
21
-187.182
0
LINE
8
BLACK
6
CONTINUOUS
10
196.654
20
-187.182
11
196.482
21
-187.235
0
LINE
8
BLACK
6
CONTINUOUS
10
196.482
20
-187.235
11
196.482
21
-187.235
0
LINE
8
BLACK
6
CONTINUOUS
10
196.482
20
-187.235
11
196.482
21
-187.235
0
LINE
8
BLACK
6
CONTINUOUS
10
196.482
20
-187.235
11
196.48
21
-187.235
0
LINE
8
BLACK
6
CONTINUOUS
10
196.48
20
-187.235
11
196.477
21
-187.236
0
LINE
8
BLACK
6
CONTINUOUS
10
196.477
20
-187.236
11
196.299
21
-187.254
0
LINE
8
BLACK
6
CONTINUOUS
10
196.299
20
-187.254
11
196.298
21
-187.254
0
LINE
8
BLACK
6
CONTINUOUS
10
196.298
20
-187.254
11
196.296
21
-187.254
0
LINE
8
BLACK
6
CONTINUOUS
10
196.296
20
-187.254
11
196.294
21
-187.254
0
LINE
8
BLACK
6
CONTINUOUS
10
196.294
20
-187.254
11
196.115
21
-187.238
0
LINE
8
BLACK
6
CONTINUOUS
10
196.115
20
-187.238
11
196.115
21
-187.238
0
LINE
8
BLACK
6
CONTINUOUS
10
196.115
20
-187.238
11
196.112
21
-187.237
0
LINE
8
BLACK
6
CONTINUOUS
10
196.112
20
-187.237
11
196.11
21
-187.237
0
LINE
8
BLACK
6
CONTINUOUS
10
196.11
20
-187.237
11
195.938
21
-187.186
0
LINE
8
BLACK
6
CONTINUOUS
10
195.938
20
-187.186
11
195.938
21
-187.186
0
LINE
8
BLACK
6
CONTINUOUS
10
195.938
20
-187.186
11
195.936
21
-187.185
0
LINE
8
BLACK
6
CONTINUOUS
10
195.936
20
-187.185
11
195.935
21
-187.184
0
LINE
8
BLACK
6
CONTINUOUS
10
195.935
20
-187.184
11
195.85
21
-187.145
0
LINE
8
BLACK
6
CONTINUOUS
10
195.85
20
-187.145
11
195.85
21
-187.145
0
LINE
8
BLACK
6
CONTINUOUS
10
195.85
20
-187.145
11
195.847
21
-187.143
0
LINE
8
BLACK
6
CONTINUOUS
10
195.847
20
-187.143
11
180.982
21
-177.327
0
LINE
8
BLACK
6
CONTINUOUS
10
180.982
20
-177.327
11
179.596
21
-179.406
0
LINE
8
BLACK
6
CONTINUOUS
10
179.596
20
-179.406
11
179.595
21
-179.407
0
LINE
8
BLACK
6
CONTINUOUS
10
179.595
20
-179.407
11
179.595
21
-179.407
0
LINE
8
BLACK
6
CONTINUOUS
10
179.595
20
-179.407
11
179.595
21
-179.408
0
LINE
8
BLACK
6
CONTINUOUS
10
179.595
20
-179.408
11
179.594
21
-179.409
0
LINE
8
BLACK
6
CONTINUOUS
10
179.594
20
-179.409
11
179.594
21
-179.409
0
LINE
8
BLACK
6
CONTINUOUS
10
179.594
20
-179.409
11
179.209
21
-179.873
0
LINE
8
BLACK
6
CONTINUOUS
10
179.209
20
-179.873
11
179.209
21
-179.873
0
LINE
8
BLACK
6
CONTINUOUS
10
179.209
20
-179.873
11
179.207
21
-179.875
0
LINE
8
BLACK
6
CONTINUOUS
10
179.207
20
-179.875
11
179.205
21
-179.877
0
LINE
8
BLACK
6
CONTINUOUS
10
179.205
20
-179.877
11
178.736
21
-180.258
0
LINE
8
BLACK
6
CONTINUOUS
10
178.736
20
-180.258
11
178.736
21
-180.259
0
LINE
8
BLACK
6
CONTINUOUS
10
178.736
20
-180.259
11
178.734
21
-180.26
0
LINE
8
BLACK
6
CONTINUOUS
10
178.734
20
-180.26
11
178.732
21
-180.261
0
LINE
8
BLACK
6
CONTINUOUS
10
178.732
20
-180.261
11
178.197
21
-180.544
0
LINE
8
BLACK
6
CONTINUOUS
10
178.197
20
-180.544
11
178.197
21
-180.544
0
LINE
8
BLACK
6
CONTINUOUS
10
178.197
20
-180.544
11
178.197
21
-180.544
0
LINE
8
BLACK
6
CONTINUOUS
10
178.197
20
-180.544
11
178.197
21
-180.545
0
LINE
8
BLACK
6
CONTINUOUS
10
178.197
20
-180.545
11
178.195
21
-180.545
0
LINE
8
BLACK
6
CONTINUOUS
10
178.195
20
-180.545
11
178.193
21
-180.546
0
LINE
8
BLACK
6
CONTINUOUS
10
178.193
20
-180.546
11
177.613
21
-180.72
0
LINE
8
BLACK
6
CONTINUOUS
10
177.613
20
-180.72
11
177.613
21
-180.721
0
LINE
8
BLACK
6
CONTINUOUS
10
177.613
20
-180.721
11
177.611
21
-180.721
0
LINE
8
BLACK
6
CONTINUOUS
10
177.611
20
-180.721
11
177.608
21
-180.721
0
LINE
8
BLACK
6
CONTINUOUS
10
177.608
20
-180.721
11
177.006
21
-180.78
0
LINE
8
BLACK
6
CONTINUOUS
10
177.006
20
-180.78
11
177.006
21
-180.78
0
LINE
8
BLACK
6
CONTINUOUS
10
177.006
20
-180.78
11
177.003
21
-180.78
0
LINE
8
BLACK
6
CONTINUOUS
10
177.003
20
-180.78
11
177.001
21
-180.78
0
LINE
8
BLACK
6
CONTINUOUS
10
177.001
20
-180.78
11
176.399
21
-180.72
0
LINE
8
BLACK
6
CONTINUOUS
10
176.399
20
-180.72
11
176.399
21
-180.72
0
LINE
8
BLACK
6
CONTINUOUS
10
176.399
20
-180.72
11
176.396
21
-180.719
0
LINE
8
BLACK
6
CONTINUOUS
10
176.396
20
-180.719
11
176.394
21
-180.719
0
LINE
8
BLACK
6
CONTINUOUS
10
176.394
20
-180.719
11
175.815
21
-180.543
0
LINE
8
BLACK
6
CONTINUOUS
10
175.815
20
-180.543
11
175.815
21
-180.543
0
LINE
8
BLACK
6
CONTINUOUS
10
175.815
20
-180.543
11
175.813
21
-180.542
0
LINE
8
BLACK
6
CONTINUOUS
10
175.813
20
-180.542
11
175.811
21
-180.541
0
LINE
8
BLACK
6
CONTINUOUS
10
175.811
20
-180.541
11
175.277
21
-180.256
0
LINE
8
BLACK
6
CONTINUOUS
10
175.277
20
-180.256
11
175.277
21
-180.256
0
LINE
8
BLACK
6
CONTINUOUS
10
175.277
20
-180.256
11
175.275
21
-180.255
0
LINE
8
BLACK
6
CONTINUOUS
10
175.275
20
-180.255
11
175.273
21
-180.254
0
LINE
8
BLACK
6
CONTINUOUS
10
175.273
20
-180.254
11
174.804
21
-179.871
0
LINE
8
BLACK
6
CONTINUOUS
10
174.804
20
-179.871
11
174.804
21
-179.871
0
LINE
8
BLACK
6
CONTINUOUS
10
174.804
20
-179.871
11
174.804
21
-179.871
0
LINE
8
BLACK
6
CONTINUOUS
10
174.804
20
-179.871
11
174.804
21
-179.87
0
LINE
8
BLACK
6
CONTINUOUS
10
174.804
20
-179.87
11
174.803
21
-179.869
0
LINE
8
BLACK
6
CONTINUOUS
10
174.803
20
-179.869
11
174.801
21
-179.867
0
LINE
8
BLACK
6
CONTINUOUS
10
174.801
20
-179.867
11
174.416
21
-179.4
0
LINE
8
BLACK
6
CONTINUOUS
10
174.416
20
-179.4
11
174.416
21
-179.4
0
LINE
8
BLACK
6
CONTINUOUS
10
174.416
20
-179.4
11
174.414
21
-179.398
0
LINE
8
BLACK
6
CONTINUOUS
10
174.414
20
-179.398
11
174.413
21
-179.396
0
LINE
8
BLACK
6
CONTINUOUS
10
174.413
20
-179.396
11
174.126
21
-178.864
0
LINE
8
BLACK
6
CONTINUOUS
10
174.126
20
-178.864
11
174.126
21
-178.863
0
LINE
8
BLACK
6
CONTINUOUS
10
174.126
20
-178.863
11
174.125
21
-178.861
0
LINE
8
BLACK
6
CONTINUOUS
10
174.125
20
-178.861
11
174.124
21
-178.859
0
LINE
8
BLACK
6
CONTINUOUS
10
174.124
20
-178.859
11
173.946
21
-178.281
0
LINE
8
BLACK
6
CONTINUOUS
10
173.946
20
-178.281
11
173.946
21
-178.281
0
LINE
8
BLACK
6
CONTINUOUS
10
173.946
20
-178.281
11
173.945
21
-178.278
0
LINE
8
BLACK
6
CONTINUOUS
10
173.945
20
-178.278
11
173.945
21
-178.276
0
LINE
8
BLACK
6
CONTINUOUS
10
173.945
20
-178.276
11
173.883
21
-177.674
0
LINE
8
BLACK
6
CONTINUOUS
10
173.883
20
-177.674
11
173.883
21
-177.674
0
LINE
8
BLACK
6
CONTINUOUS
10
173.883
20
-177.674
11
173.883
21
-177.672
0
LINE
8
BLACK
6
CONTINUOUS
10
173.883
20
-177.672
11
173.883
21
-177.669
0
LINE
8
BLACK
6
CONTINUOUS
10
173.883
20
-177.669
11
173.938
21
-177.067
0
LINE
8
BLACK
6
CONTINUOUS
10
173.938
20
-177.067
11
173.938
21
-177.067
0
LINE
8
BLACK
6
CONTINUOUS
10
173.938
20
-177.067
11
173.939
21
-177.064
0
LINE
8
BLACK
6
CONTINUOUS
10
173.939
20
-177.064
11
173.939
21
-177.062
0
LINE
8
BLACK
6
CONTINUOUS
10
173.939
20
-177.062
11
174.111
21
-176.482
0
LINE
8
BLACK
6
CONTINUOUS
10
174.111
20
-176.482
11
174.111
21
-176.482
0
LINE
8
BLACK
6
CONTINUOUS
10
174.111
20
-176.482
11
174.112
21
-176.479
0
LINE
8
BLACK
6
CONTINUOUS
10
174.112
20
-176.479
11
174.113
21
-176.477
0
LINE
8
BLACK
6
CONTINUOUS
10
174.113
20
-176.477
11
174.394
21
-175.941
0
LINE
8
BLACK
6
CONTINUOUS
10
174.394
20
-175.941
11
174.394
21
-175.941
0
LINE
8
BLACK
6
CONTINUOUS
10
174.394
20
-175.941
11
174.395
21
-175.94
0
LINE
8
BLACK
6
CONTINUOUS
10
174.395
20
-175.94
11
174.395
21
-175.939
0
LINE
8
BLACK
6
CONTINUOUS
10
174.395
20
-175.939
11
174.447
21
-175.862
0
LINE
8
BLACK
6
CONTINUOUS
10
174.447
20
-175.862
11
175.652
21
-174.042
0
LINE
8
BLACK
6
CONTINUOUS
10
175.652
20
-174.042
11
162.612
21
-165.516
0
LINE
8
BLACK
6
CONTINUOUS
10
162.612
20
-165.516
11
144.902
21
-158.902
0
LINE
8
BLACK
6
CONTINUOUS
10
144.902
20
-158.902
11
126.872
21
-157.822
0
LINE
8
BLACK
6
CONTINUOUS
10
126.872
20
-157.822
11
119.358
21
-157.822
0
LINE
8
BLACK
6
CONTINUOUS
10
119.358
20
-157.822
11
119.358
21
-160.151
0
LINE
8
BLACK
6
CONTINUOUS
10
119.358
20
-160.151
11
119.358
21
-160.152
0
LINE
8
BLACK
6
CONTINUOUS
10
119.358
20
-160.152
11
119.358
21
-160.152
0
LINE
8
BLACK
6
CONTINUOUS
10
119.358
20
-160.152
11
119.306
21
-160.687
0
LINE
8
BLACK
6
CONTINUOUS
10
119.306
20
-160.687
11
119.306
21
-160.687
0
LINE
8
BLACK
6
CONTINUOUS
10
119.306
20
-160.687
11
119.305
21
-160.689
0
LINE
8
BLACK
6
CONTINUOUS
10
119.305
20
-160.689
11
119.305
21
-160.691
0
LINE
8
BLACK
6
CONTINUOUS
10
119.305
20
-160.691
11
119.15
21
-161.205
0
LINE
8
BLACK
6
CONTINUOUS
10
119.15
20
-161.205
11
119.15
21
-161.206
0
LINE
8
BLACK
6
CONTINUOUS
10
119.15
20
-161.206
11
119.149
21
-161.208
0
LINE
8
BLACK
6
CONTINUOUS
10
119.149
20
-161.208
11
119.148
21
-161.21
0
LINE
8
BLACK
6
CONTINUOUS
10
119.148
20
-161.21
11
118.896
21
-161.684
0
LINE
8
BLACK
6
CONTINUOUS
10
118.896
20
-161.684
11
118.896
21
-161.684
0
LINE
8
BLACK
6
CONTINUOUS
10
118.896
20
-161.684
11
118.895
21
-161.686
0
LINE
8
BLACK
6
CONTINUOUS
10
118.895
20
-161.686
11
118.893
21
-161.688
0
LINE
8
BLACK
6
CONTINUOUS
10
118.893
20
-161.688
11
118.554
21
-162.104
0
LINE
8
BLACK
6
CONTINUOUS
10
118.554
20
-162.104
11
118.554
21
-162.104
0
LINE
8
BLACK
6
CONTINUOUS
10
118.554
20
-162.104
11
118.552
21
-162.105
0
LINE
8
BLACK
6
CONTINUOUS
10
118.552
20
-162.105
11
118.551
21
-162.107
0
LINE
8
BLACK
6
CONTINUOUS
10
118.551
20
-162.107
11
118.137
21
-162.449
0
LINE
8
BLACK
6
CONTINUOUS
10
118.137
20
-162.449
11
118.137
21
-162.449
0
LINE
8
BLACK
6
CONTINUOUS
10
118.137
20
-162.449
11
118.135
21
-162.451
0
LINE
8
BLACK
6
CONTINUOUS
10
118.135
20
-162.451
11
118.133
21
-162.452
0
LINE
8
BLACK
6
CONTINUOUS
10
118.133
20
-162.452
11
117.661
21
-162.707
0
LINE
8
BLACK
6
CONTINUOUS
10
117.661
20
-162.707
11
117.661
21
-162.707
0
LINE
8
BLACK
6
CONTINUOUS
10
117.661
20
-162.707
11
117.659
21
-162.708
0
LINE
8
BLACK
6
CONTINUOUS
10
117.659
20
-162.708
11
117.657
21
-162.709
0
LINE
8
BLACK
6
CONTINUOUS
10
117.657
20
-162.709
11
117.144
21
-162.868
0
LINE
8
BLACK
6
CONTINUOUS
10
117.144
20
-162.868
11
117.144
21
-162.868
0
LINE
8
BLACK
6
CONTINUOUS
10
117.144
20
-162.868
11
117.141
21
-162.868
0
LINE
8
BLACK
6
CONTINUOUS
10
117.141
20
-162.868
11
117.139
21
-162.869
0
LINE
8
BLACK
6
CONTINUOUS
10
117.139
20
-162.869
11
116.605
21
-162.925
0
LINE
8
BLACK
6
CONTINUOUS
10
116.605
20
-162.925
11
116.605
21
-162.925
0
LINE
8
BLACK
6
CONTINUOUS
10
116.605
20
-162.925
11
116.603
21
-162.925
0
LINE
8
BLACK
6
CONTINUOUS
10
116.603
20
-162.925
11
116.6
21
-162.925
0
LINE
8
BLACK
6
CONTINUOUS
10
116.6
20
-162.925
11
116.066
21
-162.876
0
LINE
8
BLACK
6
CONTINUOUS
10
116.066
20
-162.876
11
116.066
21
-162.876
0
LINE
8
BLACK
6
CONTINUOUS
10
116.066
20
-162.876
11
116.063
21
-162.876
0
LINE
8
BLACK
6
CONTINUOUS
10
116.063
20
-162.876
11
116.061
21
-162.875
0
LINE
8
BLACK
6
CONTINUOUS
10
116.061
20
-162.875
11
115.546
21
-162.724
0
LINE
8
BLACK
6
CONTINUOUS
10
115.546
20
-162.724
11
115.546
21
-162.724
0
LINE
8
BLACK
6
CONTINUOUS
10
115.546
20
-162.724
11
115.544
21
-162.723
0
LINE
8
BLACK
6
CONTINUOUS
10
115.544
20
-162.723
11
115.542
21
-162.722
0
LINE
8
BLACK
6
CONTINUOUS
10
115.542
20
-162.722
11
115.066
21
-162.473
0
LINE
8
BLACK
6
CONTINUOUS
10
115.066
20
-162.473
11
115.066
21
-162.473
0
LINE
8
BLACK
6
CONTINUOUS
10
115.066
20
-162.473
11
115.064
21
-162.472
0
LINE
8
BLACK
6
CONTINUOUS
10
115.064
20
-162.472
11
115.062
21
-162.471
0
LINE
8
BLACK
6
CONTINUOUS
10
115.062
20
-162.471
11
114.644
21
-162.134
0
LINE
8
BLACK
6
CONTINUOUS
10
114.644
20
-162.134
11
114.643
21
-162.134
0
LINE
8
BLACK
6
CONTINUOUS
10
114.643
20
-162.134
11
114.642
21
-162.132
0
LINE
8
BLACK
6
CONTINUOUS
10
114.642
20
-162.132
11
114.64
21
-162.131
0
LINE
8
BLACK
6
CONTINUOUS
10
114.64
20
-162.131
11
114.295
21
-161.72
0
LINE
8
BLACK
6
CONTINUOUS
10
114.295
20
-161.72
11
114.295
21
-161.719
0
LINE
8
BLACK
6
CONTINUOUS
10
114.295
20
-161.719
11
114.294
21
-161.718
0
LINE
8
BLACK
6
CONTINUOUS
10
114.294
20
-161.718
11
114.293
21
-161.716
0
LINE
8
BLACK
6
CONTINUOUS
10
114.293
20
-161.716
11
114.034
21
-161.245
0
LINE
8
BLACK
6
CONTINUOUS
10
114.034
20
-161.245
11
114.034
21
-161.245
0
LINE
8
BLACK
6
CONTINUOUS
10
114.034
20
-161.245
11
114.033
21
-161.243
0
LINE
8
BLACK
6
CONTINUOUS
10
114.033
20
-161.243
11
114.032
21
-161.241
0
LINE
8
BLACK
6
CONTINUOUS
10
114.032
20
-161.241
11
113.87
21
-160.729
0
LINE
8
BLACK
6
CONTINUOUS
10
113.87
20
-160.729
11
113.87
21
-160.729
0
LINE
8
BLACK
6
CONTINUOUS
10
113.87
20
-160.729
11
113.869
21
-160.727
0
LINE
8
BLACK
6
CONTINUOUS
10
113.869
20
-160.727
11
113.869
21
-160.725
0
LINE
8
BLACK
6
CONTINUOUS
10
113.869
20
-160.725
11
113.809
21
-160.191
0
LINE
8
BLACK
6
CONTINUOUS
10
113.809
20
-160.191
11
113.809
21
-160.191
0
LINE
8
BLACK
6
CONTINUOUS
10
113.809
20
-160.191
11
113.809
21
-160.19
0
LINE
8
BLACK
6
CONTINUOUS
10
113.809
20
-160.19
11
113.809
21
-160.189
0
LINE
8
BLACK
6
CONTINUOUS
10
113.809
20
-160.189
11
113.809
21
-160.151
0
LINE
8
BLACK
6
CONTINUOUS
10
113.809
20
-160.151
11
113.808
21
-160.151
0
LINE
8
BLACK
6
CONTINUOUS
10
113.808
20
-160.151
11
113.809
21
-157.822
0
LINE
8
BLACK
6
CONTINUOUS
10
113.809
20
-157.822
11
110.363
21
-157.822
0
LINE
8
BLACK
6
CONTINUOUS
10
110.363
20
-157.822
11
110.355
21
-157.823
0
LINE
8
BLACK
6
CONTINUOUS
10
110.355
20
-157.823
11
110.087
21
-157.851
0
LINE
8
BLACK
6
CONTINUOUS
10
110.087
20
-157.851
11
109.831
21
-157.93
0
LINE
8
BLACK
6
CONTINUOUS
10
109.831
20
-157.93
11
109.596
21
-158.057
0
LINE
8
BLACK
6
CONTINUOUS
10
109.596
20
-158.057
11
109.39
21
-158.228
0
LINE
8
BLACK
6
CONTINUOUS
10
109.39
20
-158.228
11
109.22
21
-158.435
0
LINE
8
BLACK
6
CONTINUOUS
10
109.22
20
-158.435
11
109.095
21
-158.672
0
LINE
8
BLACK
6
CONTINUOUS
10
109.095
20
-158.672
11
109.017
21
-158.928
0
LINE
8
BLACK
6
CONTINUOUS
10
109.017
20
-158.928
11
108.991
21
-159.196
0
LINE
8
BLACK
6
CONTINUOUS
10
108.991
20
-159.196
11
108.991
21
-161.164
0
LINE
8
BLACK
6
CONTINUOUS
10
108.991
20
-161.164
11
108.991
21
-161.165
0
LINE
8
BLACK
6
CONTINUOUS
10
108.991
20
-161.165
11
108.991
21
-161.165
0
LINE
8
BLACK
6
CONTINUOUS
10
108.991
20
-161.165
11
108.964
21
-161.437
0
LINE
8
BLACK
6
CONTINUOUS
10
108.964
20
-161.437
11
108.964
21
-161.437
0
LINE
8
BLACK
6
CONTINUOUS
10
108.964
20
-161.437
11
108.964
21
-161.439
0
LINE
8
BLACK
6
CONTINUOUS
10
108.964
20
-161.439
11
108.963
21
-161.442
0
LINE
8
BLACK
6
CONTINUOUS
10
108.963
20
-161.442
11
108.885
21
-161.703
0
LINE
8
BLACK
6
CONTINUOUS
10
108.885
20
-161.703
11
108.884
21
-161.703
0
LINE
8
BLACK
6
CONTINUOUS
10
108.884
20
-161.703
11
108.884
21
-161.705
0
LINE
8
BLACK
6
CONTINUOUS
10
108.884
20
-161.705
11
108.883
21
-161.707
0
LINE
8
BLACK
6
CONTINUOUS
10
108.883
20
-161.707
11
108.755
21
-161.948
0
LINE
8
BLACK
6
CONTINUOUS
10
108.755
20
-161.948
11
108.754
21
-161.948
0
LINE
8
BLACK
6
CONTINUOUS
10
108.754
20
-161.948
11
108.753
21
-161.95
0
LINE
8
BLACK
6
CONTINUOUS
10
108.753
20
-161.95
11
108.752
21
-161.952
0
LINE
8
BLACK
6
CONTINUOUS
10
108.752
20
-161.952
11
108.58
21
-162.163
0
LINE
8
BLACK
6
CONTINUOUS
10
108.58
20
-162.163
11
108.579
21
-162.163
0
LINE
8
BLACK
6
CONTINUOUS
10
108.579
20
-162.163
11
108.578
21
-162.165
0
LINE
8
BLACK
6
CONTINUOUS
10
108.578
20
-162.165
11
108.576
21
-162.167
0
LINE
8
BLACK
6
CONTINUOUS
10
108.576
20
-162.167
11
108.366
21
-162.34
0
LINE
8
BLACK
6
CONTINUOUS
10
108.366
20
-162.34
11
108.366
21
-162.341
0
LINE
8
BLACK
6
CONTINUOUS
10
108.366
20
-162.341
11
108.364
21
-162.342
0
LINE
8
BLACK
6
CONTINUOUS
10
108.364
20
-162.342
11
108.362
21
-162.343
0
LINE
8
BLACK
6
CONTINUOUS
10
108.362
20
-162.343
11
108.122
21
-162.473
0
LINE
8
BLACK
6
CONTINUOUS
10
108.122
20
-162.473
11
108.122
21
-162.473
0
LINE
8
BLACK
6
CONTINUOUS
10
108.122
20
-162.473
11
108.12
21
-162.474
0
LINE
8
BLACK
6
CONTINUOUS
10
108.12
20
-162.474
11
108.118
21
-162.475
0
LINE
8
BLACK
6
CONTINUOUS
10
108.118
20
-162.475
11
107.857
21
-162.555
0
LINE
8
BLACK
6
CONTINUOUS
10
107.857
20
-162.555
11
107.857
21
-162.555
0
LINE
8
BLACK
6
CONTINUOUS
10
107.857
20
-162.555
11
107.855
21
-162.556
0
LINE
8
BLACK
6
CONTINUOUS
10
107.855
20
-162.556
11
107.853
21
-162.556
0
LINE
8
BLACK
6
CONTINUOUS
10
107.853
20
-162.556
11
107.581
21
-162.585
0
LINE
8
BLACK
6
CONTINUOUS
10
107.581
20
-162.585
11
107.581
21
-162.585
0
LINE
8
BLACK
6
CONTINUOUS
10
107.581
20
-162.585
11
107.58
21
-162.585
0
LINE
8
BLACK
6
CONTINUOUS
10
107.58
20
-162.585
11
107.579
21
-162.585
0
LINE
8
BLACK
6
CONTINUOUS
10
107.579
20
-162.585
11
107.57
21
-162.585
0
LINE
8
BLACK
6
CONTINUOUS
10
107.57
20
-162.585
11
107.57
21
-162.585
0
LINE
8
BLACK
6
CONTINUOUS
10
107.57
20
-162.585
11
60.7683
21
-162.585
0
LINE
8
BLACK
6
CONTINUOUS
10
60.7683
20
-162.585
11
60.7671
21
-162.585
0
LINE
8
BLACK
6
CONTINUOUS
10
60.7671
20
-162.585
11
60.7671
21
-162.585
0
LINE
8
BLACK
6
CONTINUOUS
10
60.7671
20
-162.585
11
60.4957
21
-162.558
0
LINE
8
BLACK
6
CONTINUOUS
10
60.4957
20
-162.558
11
60.4954
21
-162.558
0
LINE
8
BLACK
6
CONTINUOUS
10
60.4954
20
-162.558
11
60.4931
21
-162.558
0
LINE
8
BLACK
6
CONTINUOUS
10
60.4931
20
-162.558
11
60.4909
21
-162.557
0
LINE
8
BLACK
6
CONTINUOUS
10
60.4909
20
-162.557
11
60.2299
21
-162.479
0
LINE
8
BLACK
6
CONTINUOUS
10
60.2299
20
-162.479
11
60.2296
21
-162.478
0
LINE
8
BLACK
6
CONTINUOUS
10
60.2296
20
-162.478
11
60.2275
21
-162.478
0
LINE
8
BLACK
6
CONTINUOUS
10
60.2275
20
-162.478
11
60.2254
21
-162.477
0
LINE
8
BLACK
6
CONTINUOUS
10
60.2254
20
-162.477
11
59.9847
21
-162.349
0
LINE
8
BLACK
6
CONTINUOUS
10
59.9847
20
-162.349
11
59.9844
21
-162.348
0
LINE
8
BLACK
6
CONTINUOUS
10
59.9844
20
-162.348
11
59.9825
21
-162.347
0
LINE
8
BLACK
6
CONTINUOUS
10
59.9825
20
-162.347
11
59.9806
21
-162.346
0
LINE
8
BLACK
6
CONTINUOUS
10
59.9806
20
-162.346
11
59.7693
21
-162.174
0
LINE
8
BLACK
6
CONTINUOUS
10
59.7693
20
-162.174
11
59.7691
21
-162.173
0
LINE
8
BLACK
6
CONTINUOUS
10
59.7691
20
-162.173
11
59.7674
21
-162.172
0
LINE
8
BLACK
6
CONTINUOUS
10
59.7674
20
-162.172
11
59.7659
21
-162.17
0
LINE
8
BLACK
6
CONTINUOUS
10
59.7659
20
-162.17
11
59.5921
21
-161.96
0
LINE
8
BLACK
6
CONTINUOUS
10
59.5921
20
-161.96
11
59.5919
21
-161.96
0
LINE
8
BLACK
6
CONTINUOUS
10
59.5919
20
-161.96
11
59.5906
21
-161.958
0
LINE
8
BLACK
6
CONTINUOUS
10
59.5906
20
-161.958
11
59.5893
21
-161.956
0
LINE
8
BLACK
6
CONTINUOUS
10
59.5893
20
-161.956
11
59.4597
21
-161.716
0
LINE
8
BLACK
6
CONTINUOUS
10
59.4597
20
-161.716
11
59.4595
21
-161.716
0
LINE
8
BLACK
6
CONTINUOUS
10
59.4595
20
-161.716
11
59.4586
21
-161.714
0
LINE
8
BLACK
6
CONTINUOUS
10
59.4586
20
-161.714
11
59.4578
21
-161.712
0
LINE
8
BLACK
6
CONTINUOUS
10
59.4578
20
-161.712
11
59.3772
21
-161.451
0
LINE
8
BLACK
6
CONTINUOUS
10
59.3772
20
-161.451
11
59.377
21
-161.451
0
LINE
8
BLACK
6
CONTINUOUS
10
59.377
20
-161.451
11
59.3766
21
-161.449
0
LINE
8
BLACK
6
CONTINUOUS
10
59.3766
20
-161.449
11
59.3762
21
-161.447
0
LINE
8
BLACK
6
CONTINUOUS
10
59.3762
20
-161.447
11
59.3477
21
-161.175
0
LINE
8
BLACK
6
CONTINUOUS
10
59.3477
20
-161.175
11
59.3476
21
-161.175
0
LINE
8
BLACK
6
CONTINUOUS
10
59.3476
20
-161.175
11
59.3476
21
-161.174
0
LINE
8
BLACK
6
CONTINUOUS
10
59.3476
20
-161.174
11
59.3475
21
-161.173
0
LINE
8
BLACK
6
CONTINUOUS
10
59.3475
20
-161.173
11
59.3475
21
-161.164
0
LINE
8
BLACK
6
CONTINUOUS
10
59.3475
20
-161.164
11
59.3475
21
-161.164
0
LINE
8
BLACK
6
CONTINUOUS
10
59.3475
20
-161.164
11
59.3475
21
-161.163
0
LINE
8
BLACK
6
CONTINUOUS
10
59.3475
20
-161.163
11
59.3475
21
-161.163
0
LINE
8
BLACK
6
CONTINUOUS
10
59.3475
20
-161.163
11
59.3475
21
-161.163
0
LINE
8
BLACK
6
CONTINUOUS
10
59.3475
20
-161.163
11
59.3475
21
-145.775
0
LINE
8
BLACK
6
CONTINUOUS
10
59.3475
20
-145.775
11
57.0068
21
-145.775
0
LINE
8
BLACK
6
CONTINUOUS
10
57.0068
20
-145.775
11
57.0056
21
-145.775
0
LINE
8
BLACK
6
CONTINUOUS
10
57.0056
20
-145.775
11
57.0056
21
-145.775
0
LINE
8
BLACK
6
CONTINUOUS
10
57.0056
20
-145.775
11
56.3743
21
-145.713
0
LINE
8
BLACK
6
CONTINUOUS
10
56.3743
20
-145.713
11
56.374
21
-145.713
0
LINE
8
BLACK
6
CONTINUOUS
10
56.374
20
-145.713
11
56.3717
21
-145.712
0
LINE
8
BLACK
6
CONTINUOUS
10
56.3717
20
-145.712
11
56.3695
21
-145.712
0
LINE
8
BLACK
6
CONTINUOUS
10
56.3695
20
-145.712
11
55.7623
21
-145.529
0
LINE
8
BLACK
6
CONTINUOUS
10
55.7623
20
-145.529
11
55.762
21
-145.529
0
LINE
8
BLACK
6
CONTINUOUS
10
55.762
20
-145.529
11
55.7599
21
-145.528
0
LINE
8
BLACK
6
CONTINUOUS
10
55.7599
20
-145.528
11
55.7578
21
-145.527
0
LINE
8
BLACK
6
CONTINUOUS
10
55.7578
20
-145.527
11
55.1977
21
-145.229
0
LINE
8
BLACK
6
CONTINUOUS
10
55.1977
20
-145.229
11
55.1974
21
-145.229
0
LINE
8
BLACK
6
CONTINUOUS
10
55.1974
20
-145.229
11
55.1955
21
-145.228
0
LINE
8
BLACK
6
CONTINUOUS
10
55.1955
20
-145.228
11
55.1937
21
-145.226
0
LINE
8
BLACK
6
CONTINUOUS
10
55.1937
20
-145.226
11
54.7021
21
-144.825
0
LINE
8
BLACK
6
CONTINUOUS
10
54.7021
20
-144.825
11
54.7019
21
-144.825
0
LINE
8
BLACK
6
CONTINUOUS
10
54.7019
20
-144.825
11
54.7003
21
-144.824
0
LINE
8
BLACK
6
CONTINUOUS
10
54.7003
20
-144.824
11
54.6987
21
-144.822
0
LINE
8
BLACK
6
CONTINUOUS
10
54.6987
20
-144.822
11
54.2944
21
-144.333
0
LINE
8
BLACK
6
CONTINUOUS
10
54.2944
20
-144.333
11
54.2941
21
-144.333
0
LINE
8
BLACK
6
CONTINUOUS
10
54.2941
20
-144.333
11
54.2929
21
-144.331
0
LINE
8
BLACK
6
CONTINUOUS
10
54.2929
20
-144.331
11
54.2916
21
-144.329
0
LINE
8
BLACK
6
CONTINUOUS
10
54.2916
20
-144.329
11
53.99
21
-143.771
0
LINE
8
BLACK
6
CONTINUOUS
10
53.99
20
-143.771
11
53.9898
21
-143.771
0
LINE
8
BLACK
6
CONTINUOUS
10
53.9898
20
-143.771
11
53.9889
21
-143.769
0
LINE
8
BLACK
6
CONTINUOUS
10
53.9889
20
-143.769
11
53.9881
21
-143.767
0
LINE
8
BLACK
6
CONTINUOUS
10
53.9881
20
-143.767
11
53.8005
21
-143.161
0
LINE
8
BLACK
6
CONTINUOUS
10
53.8005
20
-143.161
11
53.8004
21
-143.161
0
LINE
8
BLACK
6
CONTINUOUS
10
53.8004
20
-143.161
11
53.8
21
-143.158
0
LINE
8
BLACK
6
CONTINUOUS
10
53.8
20
-143.158
11
53.7995
21
-143.156
0
LINE
8
BLACK
6
CONTINUOUS
10
53.7995
20
-143.156
11
53.7332
21
-142.525
0
LINE
8
BLACK
6
CONTINUOUS
10
53.7332
20
-142.525
11
53.7332
21
-142.525
0
LINE
8
BLACK
6
CONTINUOUS
10
53.7332
20
-142.525
11
53.7332
21
-142.523
0
LINE
8
BLACK
6
CONTINUOUS
10
53.7332
20
-142.523
11
53.7332
21
-142.52
0
LINE
8
BLACK
6
CONTINUOUS
10
53.7332
20
-142.52
11
53.7907
21
-141.889
0
LINE
8
BLACK
6
CONTINUOUS
10
53.7907
20
-141.889
11
53.7907
21
-141.888
0
LINE
8
BLACK
6
CONTINUOUS
10
53.7907
20
-141.888
11
53.7912
21
-141.886
0
LINE
8
BLACK
6
CONTINUOUS
10
53.7912
20
-141.886
11
53.7916
21
-141.884
0
LINE
8
BLACK
6
CONTINUOUS
10
53.7916
20
-141.884
11
53.9707
21
-141.275
0
LINE
8
BLACK
6
CONTINUOUS
10
53.9707
20
-141.275
11
53.9708
21
-141.275
0
LINE
8
BLACK
6
CONTINUOUS
10
53.9708
20
-141.275
11
53.9717
21
-141.273
0
LINE
8
BLACK
6
CONTINUOUS
10
53.9717
20
-141.273
11
53.9725
21
-141.271
0
LINE
8
BLACK
6
CONTINUOUS
10
53.9725
20
-141.271
11
54.2664
21
-140.709
0
LINE
8
BLACK
6
CONTINUOUS
10
54.2664
20
-140.709
11
54.2665
21
-140.709
0
LINE
8
BLACK
6
CONTINUOUS
10
54.2665
20
-140.709
11
54.2678
21
-140.707
0
LINE
8
BLACK
6
CONTINUOUS
10
54.2678
20
-140.707
11
54.269
21
-140.705
0
LINE
8
BLACK
6
CONTINUOUS
10
54.269
20
-140.705
11
54.6665
21
-140.21
0
LINE
8
BLACK
6
CONTINUOUS
10
54.6665
20
-140.21
11
54.6667
21
-140.21
0
LINE
8
BLACK
6
CONTINUOUS
10
54.6667
20
-140.21
11
54.6683
21
-140.209
0
LINE
8
BLACK
6
CONTINUOUS
10
54.6683
20
-140.209
11
54.6699
21
-140.207
0
LINE
8
BLACK
6
CONTINUOUS
10
54.6699
20
-140.207
11
55.1558
21
-139.799
0
LINE
8
BLACK
6
CONTINUOUS
10
55.1558
20
-139.799
11
55.1561
21
-139.799
0
LINE
8
BLACK
6
CONTINUOUS
10
55.1561
20
-139.799
11
55.158
21
-139.798
0
LINE
8
BLACK
6
CONTINUOUS
10
55.158
20
-139.798
11
55.1598
21
-139.796
0
LINE
8
BLACK
6
CONTINUOUS
10
55.1598
20
-139.796
11
55.7156
21
-139.491
0
LINE
8
BLACK
6
CONTINUOUS
10
55.7156
20
-139.491
11
55.716
21
-139.491
0
LINE
8
BLACK
6
CONTINUOUS
10
55.716
20
-139.491
11
55.718
21
-139.49
0
LINE
8
BLACK
6
CONTINUOUS
10
55.718
20
-139.49
11
55.7201
21
-139.489
0
LINE
8
BLACK
6
CONTINUOUS
10
55.7201
20
-139.489
11
56.3247
21
-139.297
0
LINE
8
BLACK
6
CONTINUOUS
10
56.3247
20
-139.297
11
56.3251
21
-139.297
0
LINE
8
BLACK
6
CONTINUOUS
10
56.3251
20
-139.297
11
56.3273
21
-139.297
0
LINE
8
BLACK
6
CONTINUOUS
10
56.3273
20
-139.297
11
56.3295
21
-139.296
0
LINE
8
BLACK
6
CONTINUOUS
10
56.3295
20
-139.296
11
56.9598
21
-139.225
0
LINE
8
BLACK
6
CONTINUOUS
10
56.9598
20
-139.225
11
56.9602
21
-139.225
0
LINE
8
BLACK
6
CONTINUOUS
10
56.9602
20
-139.225
11
56.9613
21
-139.225
0
LINE
8
BLACK
6
CONTINUOUS
10
56.9613
20
-139.225
11
56.9624
21
-139.225
0
LINE
8
BLACK
6
CONTINUOUS
10
56.9624
20
-139.225
11
57.0067
21
-139.225
0
LINE
8
BLACK
6
CONTINUOUS
10
57.0067
20
-139.225
11
57.0068
21
-139.225
0
LINE
8
BLACK
6
CONTINUOUS
10
57.0068
20
-139.225
11
59.3475
21
-139.225
0
LINE
8
BLACK
6
CONTINUOUS
10
59.3475
20
-139.225
11
59.3475
21
-66.4198
0
LINE
8
BLACK
6
CONTINUOUS
10
59.3475
20
-66.4198
11
59.3476
21
-66.4186
0
LINE
8
BLACK
6
CONTINUOUS
10
59.3476
20
-66.4186
11
59.3476
21
-66.4186
0
LINE
8
BLACK
6
CONTINUOUS
10
59.3476
20
-66.4186
11
59.3742
21
-66.1472
0
LINE
8
BLACK
6
CONTINUOUS
10
59.3742
20
-66.1472
11
59.3743
21
-66.1469
0
LINE
8
BLACK
6
CONTINUOUS
10
59.3743
20
-66.1469
11
59.3747
21
-66.1446
0
LINE
8
BLACK
6
CONTINUOUS
10
59.3747
20
-66.1446
11
59.3752
21
-66.1424
0
LINE
8
BLACK
6
CONTINUOUS
10
59.3752
20
-66.1424
11
59.454
21
-65.8814
0
LINE
8
BLACK
6
CONTINUOUS
10
59.454
20
-65.8814
11
59.4541
21
-65.8811
0
LINE
8
BLACK
6
CONTINUOUS
10
59.4541
20
-65.8811
11
59.455
21
-65.879
0
LINE
8
BLACK
6
CONTINUOUS
10
59.455
20
-65.879
11
59.4558
21
-65.8769
0
LINE
8
BLACK
6
CONTINUOUS
10
59.4558
20
-65.8769
11
59.5838
21
-65.6362
0
LINE
8
BLACK
6
CONTINUOUS
10
59.5838
20
-65.6362
11
59.584
21
-65.6359
0
LINE
8
BLACK
6
CONTINUOUS
10
59.584
20
-65.6359
11
59.5853
21
-65.634
0
LINE
8
BLACK
6
CONTINUOUS
10
59.5853
20
-65.634
11
59.5865
21
-65.6321
0
LINE
8
BLACK
6
CONTINUOUS
10
59.5865
20
-65.6321
11
59.7589
21
-65.4208
0
LINE
8
BLACK
6
CONTINUOUS
10
59.7589
20
-65.4208
11
59.7589
21
-65.4208
0
LINE
8
BLACK
6
CONTINUOUS
10
59.7589
20
-65.4208
11
59.7589
21
-65.4208
0
LINE
8
BLACK
6
CONTINUOUS
10
59.7589
20
-65.4208
11
59.7591
21
-65.4206
0
LINE
8
BLACK
6
CONTINUOUS
10
59.7591
20
-65.4206
11
59.7607
21
-65.419
0
LINE
8
BLACK
6
CONTINUOUS
10
59.7607
20
-65.419
11
59.7623
21
-65.4174
0
LINE
8
BLACK
6
CONTINUOUS
10
59.7623
20
-65.4174
11
59.9724
21
-65.2436
0
LINE
8
BLACK
6
CONTINUOUS
10
59.9724
20
-65.2436
11
59.9726
21
-65.2434
0
LINE
8
BLACK
6
CONTINUOUS
10
59.9726
20
-65.2434
11
59.9746
21
-65.2421
0
LINE
8
BLACK
6
CONTINUOUS
10
59.9746
20
-65.2421
11
59.9764
21
-65.2408
0
LINE
8
BLACK
6
CONTINUOUS
10
59.9764
20
-65.2408
11
60.2162
21
-65.1112
0
LINE
8
BLACK
6
CONTINUOUS
10
60.2162
20
-65.1112
11
60.2162
21
-65.1112
0
LINE
8
BLACK
6
CONTINUOUS
10
60.2162
20
-65.1112
11
60.2163
21
-65.1112
0
LINE
8
BLACK
6
CONTINUOUS
10
60.2163
20
-65.1112
11
60.2166
21
-65.111
0
LINE
8
BLACK
6
CONTINUOUS
10
60.2166
20
-65.111
11
60.2187
21
-65.1101
0
LINE
8
BLACK
6
CONTINUOUS
10
60.2187
20
-65.1101
11
60.2207
21
-65.1093
0
LINE
8
BLACK
6
CONTINUOUS
10
60.2207
20
-65.1093
11
60.4812
21
-65.0287
0
LINE
8
BLACK
6
CONTINUOUS
10
60.4812
20
-65.0287
11
60.4815
21
-65.0285
0
LINE
8
BLACK
6
CONTINUOUS
10
60.4815
20
-65.0285
11
60.4838
21
-65.0281
0
LINE
8
BLACK
6
CONTINUOUS
10
60.4838
20
-65.0281
11
60.486
21
-65.0277
0
LINE
8
BLACK
6
CONTINUOUS
10
60.486
20
-65.0277
11
60.7571
21
-64.9992
0
LINE
8
BLACK
6
CONTINUOUS
10
60.7571
20
-64.9992
11
60.7575
21
-64.9991
0
LINE
8
BLACK
6
CONTINUOUS
10
60.7575
20
-64.9991
11
60.7586
21
-64.9991
0
LINE
8
BLACK
6
CONTINUOUS
10
60.7586
20
-64.9991
11
60.7597
21
-64.999
0
LINE
8
BLACK
6
CONTINUOUS
10
60.7597
20
-64.999
11
60.7682
21
-64.999
0
LINE
8
BLACK
6
CONTINUOUS
10
60.7682
20
-64.999
11
60.7683
21
-64.999
0
LINE
8
BLACK
6
CONTINUOUS
10
60.7683
20
-64.999
11
70.506
21
-64.999
0
LINE
8
BLACK
6
CONTINUOUS
10
70.506
20
-64.999
11
70.506
21
-62.7853
0
LINE
8
BLACK
6
CONTINUOUS
10
70.506
20
-62.7853
11
70.5061
21
-62.7841
0
LINE
8
BLACK
6
CONTINUOUS
10
70.5061
20
-62.7841
11
70.5061
21
-62.7841
0
LINE
8
BLACK
6
CONTINUOUS
10
70.5061
20
-62.7841
11
70.568
21
-62.1528
0
LINE
8
BLACK
6
CONTINUOUS
10
70.568
20
-62.1528
11
70.5681
21
-62.1525
0
LINE
8
BLACK
6
CONTINUOUS
10
70.5681
20
-62.1525
11
70.5685
21
-62.1502
0
LINE
8
BLACK
6
CONTINUOUS
10
70.5685
20
-62.1502
11
70.569
21
-62.148
0
LINE
8
BLACK
6
CONTINUOUS
10
70.569
20
-62.148
11
70.7523
21
-61.5408
0
LINE
8
BLACK
6
CONTINUOUS
10
70.7523
20
-61.5408
11
70.7524
21
-61.5405
0
LINE
8
BLACK
6
CONTINUOUS
10
70.7524
20
-61.5405
11
70.7533
21
-61.5384
0
LINE
8
BLACK
6
CONTINUOUS
10
70.7533
20
-61.5384
11
70.7542
21
-61.5363
0
LINE
8
BLACK
6
CONTINUOUS
10
70.7542
20
-61.5363
11
71.0519
21
-60.9762
0
LINE
8
BLACK
6
CONTINUOUS
10
71.0519
20
-60.9762
11
71.0521
21
-60.9759
0
LINE
8
BLACK
6
CONTINUOUS
10
71.0521
20
-60.9759
11
71.0534
21
-60.9741
0
LINE
8
BLACK
6
CONTINUOUS
10
71.0534
20
-60.9741
11
71.0546
21
-60.9722
0
LINE
8
BLACK
6
CONTINUOUS
10
71.0546
20
-60.9722
11
71.4555
21
-60.4806
0
LINE
8
BLACK
6
CONTINUOUS
10
71.4555
20
-60.4806
11
71.4557
21
-60.4804
0
LINE
8
BLACK
6
CONTINUOUS
10
71.4557
20
-60.4804
11
71.4574
21
-60.4788
0
LINE
8
BLACK
6
CONTINUOUS
10
71.4574
20
-60.4788
11
71.459
21
-60.4772
0
LINE
8
BLACK
6
CONTINUOUS
10
71.459
20
-60.4772
11
71.9477
21
-60.0729
0
LINE
8
BLACK
6
CONTINUOUS
10
71.9477
20
-60.0729
11
71.948
21
-60.0726
0
LINE
8
BLACK
6
CONTINUOUS
10
71.948
20
-60.0726
11
71.9499
21
-60.0714
0
LINE
8
BLACK
6
CONTINUOUS
10
71.9499
20
-60.0714
11
71.9517
21
-60.0701
0
LINE
8
BLACK
6
CONTINUOUS
10
71.9517
20
-60.0701
11
72.5097
21
-59.7685
0
LINE
8
BLACK
6
CONTINUOUS
10
72.5097
20
-59.7685
11
72.5097
21
-59.7685
0
LINE
8
BLACK
6
CONTINUOUS
10
72.5097
20
-59.7685
11
72.5097
21
-59.7685
0
LINE
8
BLACK
6
CONTINUOUS
10
72.5097
20
-59.7685
11
72.51
21
-59.7683
0
LINE
8
BLACK
6
CONTINUOUS
10
72.51
20
-59.7683
11
72.5121
21
-59.7674
0
LINE
8
BLACK
6
CONTINUOUS
10
72.5121
20
-59.7674
11
72.5142
21
-59.7666
0
LINE
8
BLACK
6
CONTINUOUS
10
72.5142
20
-59.7666
11
73.1201
21
-59.579
0
LINE
8
BLACK
6
CONTINUOUS
10
73.1201
20
-59.579
11
73.1201
21
-59.579
0
LINE
8
BLACK
6
CONTINUOUS
10
73.1201
20
-59.579
11
73.1204
21
-59.5789
0
LINE
8
BLACK
6
CONTINUOUS
10
73.1204
20
-59.5789
11
73.1227
21
-59.5785
0
LINE
8
BLACK
6
CONTINUOUS
10
73.1227
20
-59.5785
11
73.1249
21
-59.578
0
LINE
8
BLACK
6
CONTINUOUS
10
73.1249
20
-59.578
11
73.7557
21
-59.5117
0
LINE
8
BLACK
6
CONTINUOUS
10
73.7557
20
-59.5117
11
73.756
21
-59.5117
0
LINE
8
BLACK
6
CONTINUOUS
10
73.756
20
-59.5117
11
73.7583
21
-59.5117
0
LINE
8
BLACK
6
CONTINUOUS
10
73.7583
20
-59.5117
11
73.7606
21
-59.5117
0
LINE
8
BLACK
6
CONTINUOUS
10
73.7606
20
-59.5117
11
74.3923
21
-59.5692
0
LINE
8
BLACK
6
CONTINUOUS
10
74.3923
20
-59.5692
11
74.3923
21
-59.5692
0
LINE
8
BLACK
6
CONTINUOUS
10
74.3923
20
-59.5692
11
74.3926
21
-59.5692
0
LINE
8
BLACK
6
CONTINUOUS
10
74.3926
20
-59.5692
11
74.3948
21
-59.5697
0
LINE
8
BLACK
6
CONTINUOUS
10
74.3948
20
-59.5697
11
74.397
21
-59.5701
0
LINE
8
BLACK
6
CONTINUOUS
10
74.397
20
-59.5701
11
75.0055
21
-59.7492
0
LINE
8
BLACK
6
CONTINUOUS
10
75.0055
20
-59.7492
11
75.0059
21
-59.7493
0
LINE
8
BLACK
6
CONTINUOUS
10
75.0059
20
-59.7493
11
75.008
21
-59.7502
0
LINE
8
BLACK
6
CONTINUOUS
10
75.008
20
-59.7502
11
75.0101
21
-59.751
0
LINE
8
BLACK
6
CONTINUOUS
10
75.0101
20
-59.751
11
75.5722
21
-60.0449
0
LINE
8
BLACK
6
CONTINUOUS
10
75.5722
20
-60.0449
11
75.5725
21
-60.045
0
LINE
8
BLACK
6
CONTINUOUS
10
75.5725
20
-60.045
11
75.5744
21
-60.0463
0
LINE
8
BLACK
6
CONTINUOUS
10
75.5744
20
-60.0463
11
75.5762
21
-60.0475
0
LINE
8
BLACK
6
CONTINUOUS
10
75.5762
20
-60.0475
11
76.0706
21
-60.445
0
LINE
8
BLACK
6
CONTINUOUS
10
76.0706
20
-60.445
11
76.0708
21
-60.4452
0
LINE
8
BLACK
6
CONTINUOUS
10
76.0708
20
-60.4452
11
76.0724
21
-60.4468
0
LINE
8
BLACK
6
CONTINUOUS
10
76.0724
20
-60.4468
11
76.0741
21
-60.4484
0
LINE
8
BLACK
6
CONTINUOUS
10
76.0741
20
-60.4484
11
76.4818
21
-60.9343
0
LINE
8
BLACK
6
CONTINUOUS
10
76.4818
20
-60.9343
11
76.482
21
-60.9346
0
LINE
8
BLACK
6
CONTINUOUS
10
76.482
20
-60.9346
11
76.4833
21
-60.9365
0
LINE
8
BLACK
6
CONTINUOUS
10
76.4833
20
-60.9365
11
76.4845
21
-60.9383
0
LINE
8
BLACK
6
CONTINUOUS
10
76.4845
20
-60.9383
11
76.7901
21
-61.4941
0
LINE
8
BLACK
6
CONTINUOUS
10
76.7901
20
-61.4941
11
76.7903
21
-61.4945
0
LINE
8
BLACK
6
CONTINUOUS
10
76.7903
20
-61.4945
11
76.7911
21
-61.4965
0
LINE
8
BLACK
6
CONTINUOUS
10
76.7911
20
-61.4965
11
76.792
21
-61.4986
0
LINE
8
BLACK
6
CONTINUOUS
10
76.792
20
-61.4986
11
76.9838
21
-62.1032
0
LINE
8
BLACK
6
CONTINUOUS
10
76.9838
20
-62.1032
11
76.9839
21
-62.1036
0
LINE
8
BLACK
6
CONTINUOUS
10
76.9839
20
-62.1036
11
76.9844
21
-62.1058
0
LINE
8
BLACK
6
CONTINUOUS
10
76.9844
20
-62.1058
11
76.9848
21
-62.108
0
LINE
8
BLACK
6
CONTINUOUS
10
76.9848
20
-62.108
11
77.0555
21
-62.7383
0
LINE
8
BLACK
6
CONTINUOUS
10
77.0555
20
-62.7383
11
77.0556
21
-62.7387
0
LINE
8
BLACK
6
CONTINUOUS
10
77.0556
20
-62.7387
11
77.0556
21
-62.7398
0
LINE
8
BLACK
6
CONTINUOUS
10
77.0556
20
-62.7398
11
77.0557
21
-62.7409
0
LINE
8
BLACK
6
CONTINUOUS
10
77.0557
20
-62.7409
11
77.056
21
-62.7852
0
LINE
8
BLACK
6
CONTINUOUS
10
77.056
20
-62.7852
11
77.056
21
-62.7853
0
LINE
8
BLACK
6
CONTINUOUS
10
77.056
20
-62.7853
11
77.056
21
-64.999
0
LINE
8
BLACK
6
CONTINUOUS
10
77.056
20
-64.999
11
103.632
21
-64.999
0
LINE
8
BLACK
6
CONTINUOUS
10
103.632
20
-64.999
11
103.64
21
-64.999
0
LINE
8
BLACK
6
CONTINUOUS
10
103.64
20
-64.999
11
103.908
21
-64.9709
0
LINE
8
BLACK
6
CONTINUOUS
10
103.908
20
-64.9709
11
104.164
21
-64.8917
0
LINE
8
BLACK
6
CONTINUOUS
10
104.164
20
-64.8917
11
104.399
21
-64.7643
0
LINE
8
BLACK
6
CONTINUOUS
10
104.399
20
-64.7643
11
104.605
21
-64.5937
0
LINE
8
BLACK
6
CONTINUOUS
10
104.605
20
-64.5937
11
104.775
21
-64.3862
0
LINE
8
BLACK
6
CONTINUOUS
10
104.775
20
-64.3862
11
104.9
21
-64.1498
0
LINE
8
BLACK
6
CONTINUOUS
10
104.9
20
-64.1498
11
104.978
21
-63.8935
0
LINE
8
BLACK
6
CONTINUOUS
10
104.978
20
-63.8935
11
105.004
21
-63.6258
0
LINE
8
BLACK
6
CONTINUOUS
10
105.004
20
-63.6258
11
105.004
21
-61.6573
0
LINE
8
BLACK
6
CONTINUOUS
10
105.004
20
-61.6573
11
105.004
21
-61.6561
0
LINE
8
BLACK
6
CONTINUOUS
10
105.004
20
-61.6561
11
105.004
21
-61.6561
0
LINE
8
BLACK
6
CONTINUOUS
10
105.004
20
-61.6561
11
105.031
21
-61.3847
0
LINE
8
BLACK
6
CONTINUOUS
10
105.031
20
-61.3847
11
105.031
21
-61.3844
0
LINE
8
BLACK
6
CONTINUOUS
10
105.031
20
-61.3844
11
105.031
21
-61.3821
0
LINE
8
BLACK
6
CONTINUOUS
10
105.031
20
-61.3821
11
105.032
21
-61.3799
0
LINE
8
BLACK
6
CONTINUOUS
10
105.032
20
-61.3799
11
105.11
21
-61.1189
0
LINE
8
BLACK
6
CONTINUOUS
10
105.11
20
-61.1189
11
105.111
21
-61.1186
0
LINE
8
BLACK
6
CONTINUOUS
10
105.111
20
-61.1186
11
105.111
21
-61.1165
0
LINE
8
BLACK
6
CONTINUOUS
10
105.111
20
-61.1165
11
105.112
21
-61.1144
0
LINE
8
BLACK
6
CONTINUOUS
10
105.112
20
-61.1144
11
105.24
21
-60.8737
0
LINE
8
BLACK
6
CONTINUOUS
10
105.24
20
-60.8737
11
105.241
21
-60.8734
0
LINE
8
BLACK
6
CONTINUOUS
10
105.241
20
-60.8734
11
105.242
21
-60.8715
0
LINE
8
BLACK
6
CONTINUOUS
10
105.242
20
-60.8715
11
105.243
21
-60.8696
0
LINE
8
BLACK
6
CONTINUOUS
10
105.243
20
-60.8696
11
105.415
21
-60.6583
0
LINE
8
BLACK
6
CONTINUOUS
10
105.415
20
-60.6583
11
105.415
21
-60.6583
0
LINE
8
BLACK
6
CONTINUOUS
10
105.415
20
-60.6583
11
105.415
21
-60.6583
0
LINE
8
BLACK
6
CONTINUOUS
10
105.415
20
-60.6583
11
105.416
21
-60.6581
0
LINE
8
BLACK
6
CONTINUOUS
10
105.416
20
-60.6581
11
105.417
21
-60.6565
0
LINE
8
BLACK
6
CONTINUOUS
10
105.417
20
-60.6565
11
105.419
21
-60.6549
0
LINE
8
BLACK
6
CONTINUOUS
10
105.419
20
-60.6549
11
105.629
21
-60.4811
0
LINE
8
BLACK
6
CONTINUOUS
10
105.629
20
-60.4811
11
105.629
21
-60.4809
0
LINE
8
BLACK
6
CONTINUOUS
10
105.629
20
-60.4809
11
105.631
21
-60.4796
0
LINE
8
BLACK
6
CONTINUOUS
10
105.631
20
-60.4796
11
105.633
21
-60.4783
0
LINE
8
BLACK
6
CONTINUOUS
10
105.633
20
-60.4783
11
105.873
21
-60.3487
0
LINE
8
BLACK
6
CONTINUOUS
10
105.873
20
-60.3487
11
105.873
21
-60.3487
0
LINE
8
BLACK
6
CONTINUOUS
10
105.873
20
-60.3487
11
105.873
21
-60.3487
0
LINE
8
BLACK
6
CONTINUOUS
10
105.873
20
-60.3487
11
105.873
21
-60.3485
0
LINE
8
BLACK
6
CONTINUOUS
10
105.873
20
-60.3485
11
105.875
21
-60.3476
0
LINE
8
BLACK
6
CONTINUOUS
10
105.875
20
-60.3476
11
105.877
21
-60.3468
0
LINE
8
BLACK
6
CONTINUOUS
10
105.877
20
-60.3468
11
106.138
21
-60.2662
0
LINE
8
BLACK
6
CONTINUOUS
10
106.138
20
-60.2662
11
106.138
21
-60.266
0
LINE
8
BLACK
6
CONTINUOUS
10
106.138
20
-60.266
11
106.14
21
-60.2656
0
LINE
8
BLACK
6
CONTINUOUS
10
106.14
20
-60.2656
11
106.142
21
-60.2652
0
LINE
8
BLACK
6
CONTINUOUS
10
106.142
20
-60.2652
11
106.414
21
-60.2367
0
LINE
8
BLACK
6
CONTINUOUS
10
106.414
20
-60.2367
11
106.414
21
-60.2366
0
LINE
8
BLACK
6
CONTINUOUS
10
106.414
20
-60.2366
11
106.415
21
-60.2366
0
LINE
8
BLACK
6
CONTINUOUS
10
106.415
20
-60.2366
11
106.416
21
-60.2365
0
LINE
8
BLACK
6
CONTINUOUS
10
106.416
20
-60.2365
11
106.425
21
-60.2365
0
LINE
8
BLACK
6
CONTINUOUS
10
106.425
20
-60.2365
11
106.425
21
-60.2365
0
LINE
8
BLACK
6
CONTINUOUS
10
106.425
20
-60.2365
11
122.682
21
-60.2365
0
LINE
8
BLACK
6
CONTINUOUS
10
122.682
20
-60.2365
11
122.69
21
-60.2365
0
LINE
8
BLACK
6
CONTINUOUS
10
122.69
20
-60.2365
11
122.958
21
-60.2084
0
LINE
8
BLACK
6
CONTINUOUS
10
122.958
20
-60.2084
11
123.214
21
-60.1292
0
LINE
8
BLACK
6
CONTINUOUS
10
123.214
20
-60.1292
11
123.449
21
-60.0018
0
LINE
8
BLACK
6
CONTINUOUS
10
123.449
20
-60.0018
11
123.655
21
-59.8312
0
LINE
8
BLACK
6
CONTINUOUS
10
123.655
20
-59.8312
11
123.825
21
-59.6237
0
LINE
8
BLACK
6
CONTINUOUS
10
123.825
20
-59.6237
11
123.95
21
-59.3873
0
LINE
8
BLACK
6
CONTINUOUS
10
123.95
20
-59.3873
11
124.028
21
-59.131
0
LINE
8
BLACK
6
CONTINUOUS
10
124.028
20
-59.131
11
124.054
21
-58.8633
0
LINE
8
BLACK
6
CONTINUOUS
10
124.054
20
-58.8633
11
124.054
21
-58.4823
0
LINE
8
BLACK
6
CONTINUOUS
10
124.054
20
-58.4823
11
124.054
21
-58.4811
0
LINE
8
BLACK
6
CONTINUOUS
10
124.054
20
-58.4811
11
124.054
21
-58.4811
0
LINE
8
BLACK
6
CONTINUOUS
10
124.054
20
-58.4811
11
124.065
21
-58.3701
0
LINE
8
BLACK
6
CONTINUOUS
10
124.065
20
-58.3701
11
124.065
21
-58.3697
0
LINE
8
BLACK
6
CONTINUOUS
10
124.065
20
-58.3697
11
124.066
21
-58.3675
0
LINE
8
BLACK
6
CONTINUOUS
10
124.066
20
-58.3675
11
124.066
21
-58.3653
0
LINE
8
BLACK
6
CONTINUOUS
10
124.066
20
-58.3653
11
124.098
21
-58.2585
0
LINE
8
BLACK
6
CONTINUOUS
10
124.098
20
-58.2585
11
124.098
21
-58.2582
0
LINE
8
BLACK
6
CONTINUOUS
10
124.098
20
-58.2582
11
124.099
21
-58.256
0
LINE
8
BLACK
6
CONTINUOUS
10
124.099
20
-58.256
11
124.1
21
-58.254
0
LINE
8
BLACK
6
CONTINUOUS
10
124.1
20
-58.254
11
124.152
21
-58.1555
0
LINE
8
BLACK
6
CONTINUOUS
10
124.152
20
-58.1555
11
124.153
21
-58.1552
0
LINE
8
BLACK
6
CONTINUOUS
10
124.153
20
-58.1552
11
124.154
21
-58.1533
0
LINE
8
BLACK
6
CONTINUOUS
10
124.154
20
-58.1533
11
124.155
21
-58.1514
0
LINE
8
BLACK
6
CONTINUOUS
10
124.155
20
-58.1514
11
124.226
21
-58.065
0
LINE
8
BLACK
6
CONTINUOUS
10
124.226
20
-58.065
11
124.226
21
-58.065
0
LINE
8
BLACK
6
CONTINUOUS
10
124.226
20
-58.065
11
124.226
21
-58.065
0
LINE
8
BLACK
6
CONTINUOUS
10
124.226
20
-58.065
11
124.226
21
-58.0647
0
LINE
8
BLACK
6
CONTINUOUS
10
124.226
20
-58.0647
11
124.227
21
-58.0632
0
LINE
8
BLACK
6
CONTINUOUS
10
124.227
20
-58.0632
11
124.229
21
-58.0615
0
LINE
8
BLACK
6
CONTINUOUS
10
124.229
20
-58.0615
11
124.315
21
-57.9904
0
LINE
8
BLACK
6
CONTINUOUS
10
124.315
20
-57.9904
11
124.315
21
-57.9904
0
LINE
8
BLACK
6
CONTINUOUS
10
124.315
20
-57.9904
11
124.315
21
-57.9904
0
LINE
8
BLACK
6
CONTINUOUS
10
124.315
20
-57.9904
11
124.315
21
-57.9902
0
LINE
8
BLACK
6
CONTINUOUS
10
124.315
20
-57.9902
11
124.317
21
-57.989
0
LINE
8
BLACK
6
CONTINUOUS
10
124.317
20
-57.989
11
124.319
21
-57.9877
0
LINE
8
BLACK
6
CONTINUOUS
10
124.319
20
-57.9877
11
124.417
21
-57.9347
0
LINE
8
BLACK
6
CONTINUOUS
10
124.417
20
-57.9347
11
124.417
21
-57.9347
0
LINE
8
BLACK
6
CONTINUOUS
10
124.417
20
-57.9347
11
124.417
21
-57.9347
0
LINE
8
BLACK
6
CONTINUOUS
10
124.417
20
-57.9347
11
124.417
21
-57.9345
0
LINE
8
BLACK
6
CONTINUOUS
10
124.417
20
-57.9345
11
124.42
21
-57.9336
0
LINE
8
BLACK
6
CONTINUOUS
10
124.42
20
-57.9336
11
124.422
21
-57.9328
0
LINE
8
BLACK
6
CONTINUOUS
10
124.422
20
-57.9328
11
124.528
21
-57.8998
0
LINE
8
BLACK
6
CONTINUOUS
10
124.528
20
-57.8998
11
124.529
21
-57.8997
0
LINE
8
BLACK
6
CONTINUOUS
10
124.529
20
-57.8997
11
124.531
21
-57.8993
0
LINE
8
BLACK
6
CONTINUOUS
10
124.531
20
-57.8993
11
124.533
21
-57.8988
0
LINE
8
BLACK
6
CONTINUOUS
10
124.533
20
-57.8988
11
124.644
21
-57.8872
0
LINE
8
BLACK
6
CONTINUOUS
10
124.644
20
-57.8872
11
124.644
21
-57.8871
0
LINE
8
BLACK
6
CONTINUOUS
10
124.644
20
-57.8871
11
124.645
21
-57.8871
0
LINE
8
BLACK
6
CONTINUOUS
10
124.645
20
-57.8871
11
124.646
21
-57.887
0
LINE
8
BLACK
6
CONTINUOUS
10
124.646
20
-57.887
11
124.649
21
-57.887
0
LINE
8
BLACK
6
CONTINUOUS
10
124.649
20
-57.887
11
124.649
21
-57.887
0
LINE
8
BLACK
6
CONTINUOUS
10
124.649
20
-57.887
11
146.496
21
-57.887
0
LINE
8
BLACK
6
CONTINUOUS
10
146.496
20
-57.887
11
146.497
21
-57.8871
0
LINE
8
BLACK
6
CONTINUOUS
10
146.497
20
-57.8871
11
146.497
21
-57.8871
0
LINE
8
BLACK
6
CONTINUOUS
10
146.497
20
-57.8871
11
146.608
21
-57.898
0
LINE
8
BLACK
6
CONTINUOUS
10
146.608
20
-57.898
11
146.608
21
-57.898
0
LINE
8
BLACK
6
CONTINUOUS
10
146.608
20
-57.898
11
146.611
21
-57.8985
0
LINE
8
BLACK
6
CONTINUOUS
10
146.611
20
-57.8985
11
146.613
21
-57.899
0
LINE
8
BLACK
6
CONTINUOUS
10
146.613
20
-57.899
11
146.72
21
-57.9312
0
LINE
8
BLACK
6
CONTINUOUS
10
146.72
20
-57.9312
11
146.72
21
-57.9313
0
LINE
8
BLACK
6
CONTINUOUS
10
146.72
20
-57.9313
11
146.722
21
-57.9322
0
LINE
8
BLACK
6
CONTINUOUS
10
146.722
20
-57.9322
11
146.724
21
-57.933
0
LINE
8
BLACK
6
CONTINUOUS
10
146.724
20
-57.933
11
146.822
21
-57.9854
0
LINE
8
BLACK
6
CONTINUOUS
10
146.822
20
-57.9854
11
146.823
21
-57.9856
0
LINE
8
BLACK
6
CONTINUOUS
10
146.823
20
-57.9856
11
146.825
21
-57.9869
0
LINE
8
BLACK
6
CONTINUOUS
10
146.825
20
-57.9869
11
146.827
21
-57.9881
0
LINE
8
BLACK
6
CONTINUOUS
10
146.827
20
-57.9881
11
146.913
21
-58.0586
0
LINE
8
BLACK
6
CONTINUOUS
10
146.913
20
-58.0586
11
146.913
21
-58.0586
0
LINE
8
BLACK
6
CONTINUOUS
10
146.913
20
-58.0586
11
146.913
21
-58.0586
0
LINE
8
BLACK
6
CONTINUOUS
10
146.913
20
-58.0586
11
146.913
21
-58.0588
0
LINE
8
BLACK
6
CONTINUOUS
10
146.913
20
-58.0588
11
146.915
21
-58.0604
0
LINE
8
BLACK
6
CONTINUOUS
10
146.915
20
-58.0604
11
146.916
21
-58.062
0
LINE
8
BLACK
6
CONTINUOUS
10
146.916
20
-58.062
11
146.988
21
-58.148
0
LINE
8
BLACK
6
CONTINUOUS
10
146.988
20
-58.148
11
146.988
21
-58.148
0
LINE
8
BLACK
6
CONTINUOUS
10
146.988
20
-58.148
11
146.988
21
-58.148
0
LINE
8
BLACK
6
CONTINUOUS
10
146.988
20
-58.148
11
146.988
21
-58.1483
0
LINE
8
BLACK
6
CONTINUOUS
10
146.988
20
-58.1483
11
146.989
21
-58.1502
0
LINE
8
BLACK
6
CONTINUOUS
10
146.989
20
-58.1502
11
146.99
21
-58.152
0
LINE
8
BLACK
6
CONTINUOUS
10
146.99
20
-58.152
11
147.043
21
-58.2501
0
LINE
8
BLACK
6
CONTINUOUS
10
147.043
20
-58.2501
11
147.043
21
-58.2501
0
LINE
8
BLACK
6
CONTINUOUS
10
147.043
20
-58.2501
11
147.043
21
-58.2501
0
LINE
8
BLACK
6
CONTINUOUS
10
147.043
20
-58.2501
11
147.044
21
-58.2505
0
LINE
8
BLACK
6
CONTINUOUS
10
147.044
20
-58.2505
11
147.044
21
-58.2526
0
LINE
8
BLACK
6
CONTINUOUS
10
147.044
20
-58.2526
11
147.045
21
-58.2546
0
LINE
8
BLACK
6
CONTINUOUS
10
147.045
20
-58.2546
11
147.078
21
-58.3612
0
LINE
8
BLACK
6
CONTINUOUS
10
147.078
20
-58.3612
11
147.078
21
-58.3615
0
LINE
8
BLACK
6
CONTINUOUS
10
147.078
20
-58.3615
11
147.079
21
-58.3638
0
LINE
8
BLACK
6
CONTINUOUS
10
147.079
20
-58.3638
11
147.079
21
-58.366
0
LINE
8
BLACK
6
CONTINUOUS
10
147.079
20
-58.366
11
147.091
21
-58.4769
0
LINE
8
BLACK
6
CONTINUOUS
10
147.091
20
-58.4769
11
147.091
21
-58.4772
0
LINE
8
BLACK
6
CONTINUOUS
10
147.091
20
-58.4772
11
147.091
21
-58.4783
0
LINE
8
BLACK
6
CONTINUOUS
10
147.091
20
-58.4783
11
147.091
21
-58.4794
0
LINE
8
BLACK
6
CONTINUOUS
10
147.091
20
-58.4794
11
147.091
21
-58.4822
0
LINE
8
BLACK
6
CONTINUOUS
10
147.091
20
-58.4822
11
147.091
21
-58.4823
0
LINE
8
BLACK
6
CONTINUOUS
10
147.091
20
-58.4823
11
147.091
21
-58.8009
0
LINE
8
BLACK
6
CONTINUOUS
10
147.091
20
-58.8009
11
147.091
21
-58.8094
0
LINE
8
BLACK
6
CONTINUOUS
10
147.091
20
-58.8094
11
147.119
21
-59.0769
0
LINE
8
BLACK
6
CONTINUOUS
10
147.119
20
-59.0769
11
147.198
21
-59.3326
0
LINE
8
BLACK
6
CONTINUOUS
10
147.198
20
-59.3326
11
147.326
21
-59.5681
0
LINE
8
BLACK
6
CONTINUOUS
10
147.326
20
-59.5681
11
147.496
21
-59.7744
0
LINE
8
BLACK
6
CONTINUOUS
10
147.496
20
-59.7744
11
147.704
21
-59.9437
0
LINE
8
BLACK
6
CONTINUOUS
10
147.704
20
-59.9437
11
147.94
21
-60.0694
0
LINE
8
BLACK
6
CONTINUOUS
10
147.94
20
-60.0694
11
148.197
21
-60.1468
0
LINE
8
BLACK
6
CONTINUOUS
10
148.197
20
-60.1468
11
148.464
21
-60.173
0
LINE
8
BLACK
6
CONTINUOUS
10
148.464
20
-60.173
11
165.546
21
-60.173
0
LINE
8
BLACK
6
CONTINUOUS
10
165.546
20
-60.173
11
165.547
21
-60.1731
0
LINE
8
BLACK
6
CONTINUOUS
10
165.547
20
-60.1731
11
165.547
21
-60.1731
0
LINE
8
BLACK
6
CONTINUOUS
10
165.547
20
-60.1731
11
165.658
21
-60.184
0
LINE
8
BLACK
6
CONTINUOUS
10
165.658
20
-60.184
11
165.658
21
-60.184
0
LINE
8
BLACK
6
CONTINUOUS
10
165.658
20
-60.184
11
165.661
21
-60.1845
0
LINE
8
BLACK
6
CONTINUOUS
10
165.661
20
-60.1845
11
165.663
21
-60.185
0
LINE
8
BLACK
6
CONTINUOUS
10
165.663
20
-60.185
11
165.77
21
-60.2172
0
LINE
8
BLACK
6
CONTINUOUS
10
165.77
20
-60.2172
11
165.77
21
-60.2173
0
LINE
8
BLACK
6
CONTINUOUS
10
165.77
20
-60.2173
11
165.772
21
-60.2182
0
LINE
8
BLACK
6
CONTINUOUS
10
165.772
20
-60.2182
11
165.774
21
-60.219
0
LINE
8
BLACK
6
CONTINUOUS
10
165.774
20
-60.219
11
165.873
21
-60.2714
0
LINE
8
BLACK
6
CONTINUOUS
10
165.873
20
-60.2714
11
165.873
21
-60.2716
0
LINE
8
BLACK
6
CONTINUOUS
10
165.873
20
-60.2716
11
165.875
21
-60.2729
0
LINE
8
BLACK
6
CONTINUOUS
10
165.875
20
-60.2729
11
165.877
21
-60.2741
0
LINE
8
BLACK
6
CONTINUOUS
10
165.877
20
-60.2741
11
165.963
21
-60.3446
0
LINE
8
BLACK
6
CONTINUOUS
10
165.963
20
-60.3446
11
165.963
21
-60.3446
0
LINE
8
BLACK
6
CONTINUOUS
10
165.963
20
-60.3446
11
165.963
21
-60.3446
0
LINE
8
BLACK
6
CONTINUOUS
10
165.963
20
-60.3446
11
165.963
21
-60.3448
0
LINE
8
BLACK
6
CONTINUOUS
10
165.963
20
-60.3448
11
165.965
21
-60.3464
0
LINE
8
BLACK
6
CONTINUOUS
10
165.965
20
-60.3464
11
165.966
21
-60.348
0
LINE
8
BLACK
6
CONTINUOUS
10
165.966
20
-60.348
11
166.038
21
-60.434
0
LINE
8
BLACK
6
CONTINUOUS
10
166.038
20
-60.434
11
166.038
21
-60.434
0
LINE
8
BLACK
6
CONTINUOUS
10
166.038
20
-60.434
11
166.038
21
-60.434
0
LINE
8
BLACK
6
CONTINUOUS
10
166.038
20
-60.434
11
166.038
21
-60.4343
0
LINE
8
BLACK
6
CONTINUOUS
10
166.038
20
-60.4343
11
166.039
21
-60.4362
0
LINE
8
BLACK
6
CONTINUOUS
10
166.039
20
-60.4362
11
166.04
21
-60.438
0
LINE
8
BLACK
6
CONTINUOUS
10
166.04
20
-60.438
11
166.093
21
-60.5361
0
LINE
8
BLACK
6
CONTINUOUS
10
166.093
20
-60.5361
11
166.093
21
-60.5361
0
LINE
8
BLACK
6
CONTINUOUS
10
166.093
20
-60.5361
11
166.093
21
-60.5361
0
LINE
8
BLACK
6
CONTINUOUS
10
166.093
20
-60.5361
11
166.094
21
-60.5365
0
LINE
8
BLACK
6
CONTINUOUS
10
166.094
20
-60.5365
11
166.094
21
-60.5386
0
LINE
8
BLACK
6
CONTINUOUS
10
166.094
20
-60.5386
11
166.095
21
-60.5406
0
LINE
8
BLACK
6
CONTINUOUS
10
166.095
20
-60.5406
11
166.128
21
-60.6472
0
LINE
8
BLACK
6
CONTINUOUS
10
166.128
20
-60.6472
11
166.128
21
-60.6475
0
LINE
8
BLACK
6
CONTINUOUS
10
166.128
20
-60.6475
11
166.129
21
-60.6498
0
LINE
8
BLACK
6
CONTINUOUS
10
166.129
20
-60.6498
11
166.129
21
-60.652
0
LINE
8
BLACK
6
CONTINUOUS
10
166.129
20
-60.652
11
166.141
21
-60.7629
0
LINE
8
BLACK
6
CONTINUOUS
10
166.141
20
-60.7629
11
166.141
21
-60.7632
0
LINE
8
BLACK
6
CONTINUOUS
10
166.141
20
-60.7632
11
166.141
21
-60.7643
0
LINE
8
BLACK
6
CONTINUOUS
10
166.141
20
-60.7643
11
166.141
21
-60.7654
0
LINE
8
BLACK
6
CONTINUOUS
10
166.141
20
-60.7654
11
166.141
21
-60.7682
0
LINE
8
BLACK
6
CONTINUOUS
10
166.141
20
-60.7682
11
166.141
21
-60.7683
0
LINE
8
BLACK
6
CONTINUOUS
10
166.141
20
-60.7683
11
166.141
21
-61.2774
0
LINE
8
BLACK
6
CONTINUOUS
10
166.141
20
-61.2774
11
166.141
21
-61.2859
0
LINE
8
BLACK
6
CONTINUOUS
10
166.141
20
-61.2859
11
166.169
21
-61.5534
0
LINE
8
BLACK
6
CONTINUOUS
10
166.169
20
-61.5534
11
166.248
21
-61.8091
0
LINE
8
BLACK
6
CONTINUOUS
10
166.248
20
-61.8091
11
166.376
21
-62.0446
0
LINE
8
BLACK
6
CONTINUOUS
10
166.376
20
-62.0446
11
166.546
21
-62.2509
0
LINE
8
BLACK
6
CONTINUOUS
10
166.546
20
-62.2509
11
166.754
21
-62.4202
0
LINE
8
BLACK
6
CONTINUOUS
10
166.754
20
-62.4202
11
166.99
21
-62.5459
0
LINE
8
BLACK
6
CONTINUOUS
10
166.99
20
-62.5459
11
167.247
21
-62.6233
0
LINE
8
BLACK
6
CONTINUOUS
10
167.247
20
-62.6233
11
167.514
21
-62.6495
0
LINE
8
BLACK
6
CONTINUOUS
10
167.514
20
-62.6495
11
177.123
21
-62.6495
0
LINE
8
BLACK
6
CONTINUOUS
10
177.123
20
-62.6495
11
177.123
21
-60.3088
0
LINE
8
BLACK
6
CONTINUOUS
10
177.123
20
-60.3088
11
177.123
21
-60.3076
0
LINE
8
BLACK
6
CONTINUOUS
10
177.123
20
-60.3076
11
177.123
21
-60.3076
0
LINE
8
BLACK
6
CONTINUOUS
10
177.123
20
-60.3076
11
177.185
21
-59.6763
0
LINE
8
BLACK
6
CONTINUOUS
10
177.185
20
-59.6763
11
177.185
21
-59.676
0
LINE
8
BLACK
6
CONTINUOUS
10
177.185
20
-59.676
11
177.185
21
-59.6737
0
LINE
8
BLACK
6
CONTINUOUS
10
177.185
20
-59.6737
11
177.185
21
-59.6715
0
LINE
8
BLACK
6
CONTINUOUS
10
177.185
20
-59.6715
11
177.369
21
-59.0643
0
LINE
8
BLACK
6
CONTINUOUS
10
177.369
20
-59.0643
11
177.369
21
-59.064
0
LINE
8
BLACK
6
CONTINUOUS
10
177.369
20
-59.064
11
177.37
21
-59.0619
0
LINE
8
BLACK
6
CONTINUOUS
10
177.37
20
-59.0619
11
177.371
21
-59.0598
0
LINE
8
BLACK
6
CONTINUOUS
10
177.371
20
-59.0598
11
177.668
21
-58.4997
0
LINE
8
BLACK
6
CONTINUOUS
10
177.668
20
-58.4997
11
177.669
21
-58.4994
0
LINE
8
BLACK
6
CONTINUOUS
10
177.669
20
-58.4994
11
177.67
21
-58.4976
0
LINE
8
BLACK
6
CONTINUOUS
10
177.67
20
-58.4976
11
177.671
21
-58.4957
0
LINE
8
BLACK
6
CONTINUOUS
10
177.671
20
-58.4957
11
178.072
21
-58.0041
0
LINE
8
BLACK
6
CONTINUOUS
10
178.072
20
-58.0041
11
178.072
21
-58.0039
0
LINE
8
BLACK
6
CONTINUOUS
10
178.072
20
-58.0039
11
178.074
21
-58.0023
0
LINE
8
BLACK
6
CONTINUOUS
10
178.074
20
-58.0023
11
178.075
21
-58.0007
0
LINE
8
BLACK
6
CONTINUOUS
10
178.075
20
-58.0007
11
178.564
21
-57.5964
0
LINE
8
BLACK
6
CONTINUOUS
10
178.564
20
-57.5964
11
178.564
21
-57.5961
0
LINE
8
BLACK
6
CONTINUOUS
10
178.564
20
-57.5961
11
178.566
21
-57.5949
0
LINE
8
BLACK
6
CONTINUOUS
10
178.566
20
-57.5949
11
178.568
21
-57.5936
0
LINE
8
BLACK
6
CONTINUOUS
10
178.568
20
-57.5936
11
179.126
21
-57.292
0
LINE
8
BLACK
6
CONTINUOUS
10
179.126
20
-57.292
11
179.126
21
-57.292
0
LINE
8
BLACK
6
CONTINUOUS
10
179.126
20
-57.292
11
179.126
21
-57.292
0
LINE
8
BLACK
6
CONTINUOUS
10
179.126
20
-57.292
11
179.126
21
-57.2918
0
LINE
8
BLACK
6
CONTINUOUS
10
179.126
20
-57.2918
11
179.129
21
-57.2909
0
LINE
8
BLACK
6
CONTINUOUS
10
179.129
20
-57.2909
11
179.131
21
-57.2901
0
LINE
8
BLACK
6
CONTINUOUS
10
179.131
20
-57.2901
11
179.737
21
-57.1025
0
LINE
8
BLACK
6
CONTINUOUS
10
179.737
20
-57.1025
11
179.737
21
-57.1025
0
LINE
8
BLACK
6
CONTINUOUS
10
179.737
20
-57.1025
11
179.737
21
-57.1024
0
LINE
8
BLACK
6
CONTINUOUS
10
179.737
20
-57.1024
11
179.739
21
-57.102
0
LINE
8
BLACK
6
CONTINUOUS
10
179.739
20
-57.102
11
179.741
21
-57.1015
0
LINE
8
BLACK
6
CONTINUOUS
10
179.741
20
-57.1015
11
180.372
21
-57.0352
0
LINE
8
BLACK
6
CONTINUOUS
10
180.372
20
-57.0352
11
180.373
21
-57.0352
0
LINE
8
BLACK
6
CONTINUOUS
10
180.373
20
-57.0352
11
180.375
21
-57.0352
0
LINE
8
BLACK
6
CONTINUOUS
10
180.375
20
-57.0352
11
180.377
21
-57.0352
0
LINE
8
BLACK
6
CONTINUOUS
10
180.377
20
-57.0352
11
181.009
21
-57.0927
0
LINE
8
BLACK
6
CONTINUOUS
10
181.009
20
-57.0927
11
181.009
21
-57.0927
0
LINE
8
BLACK
6
CONTINUOUS
10
181.009
20
-57.0927
11
181.009
21
-57.0927
0
LINE
8
BLACK
6
CONTINUOUS
10
148.461
20
-60.2229
11
148.461
21
-60.2229
0
LINE
8
BLACK
6
CONTINUOUS
10
148.461
20
-60.2229
11
148.189
21
-60.1963
0
LINE
8
BLACK
6
CONTINUOUS
10
148.189
20
-60.1963
11
148.189
21
-60.1962
0
LINE
8
BLACK
6
CONTINUOUS
10
148.189
20
-60.1962
11
148.187
21
-60.1958
0
LINE
8
BLACK
6
CONTINUOUS
10
148.187
20
-60.1958
11
148.184
21
-60.1953
0
LINE
8
BLACK
6
CONTINUOUS
10
148.184
20
-60.1953
11
147.923
21
-60.1165
0
LINE
8
BLACK
6
CONTINUOUS
10
147.923
20
-60.1165
11
147.923
21
-60.1164
0
LINE
8
BLACK
6
CONTINUOUS
10
147.923
20
-60.1164
11
147.921
21
-60.1155
0
LINE
8
BLACK
6
CONTINUOUS
10
147.921
20
-60.1155
11
147.919
21
-60.1147
0
LINE
8
BLACK
6
CONTINUOUS
10
147.919
20
-60.1147
11
147.678
21
-59.9867
0
LINE
8
BLACK
6
CONTINUOUS
10
147.678
20
-59.9867
11
147.678
21
-59.9865
0
LINE
8
BLACK
6
CONTINUOUS
10
147.678
20
-59.9865
11
147.676
21
-59.9852
0
LINE
8
BLACK
6
CONTINUOUS
10
147.676
20
-59.9852
11
147.674
21
-59.984
0
LINE
8
BLACK
6
CONTINUOUS
10
147.674
20
-59.984
11
147.463
21
-59.8116
0
LINE
8
BLACK
6
CONTINUOUS
10
147.463
20
-59.8116
11
147.463
21
-59.8114
0
LINE
8
BLACK
6
CONTINUOUS
10
147.463
20
-59.8114
11
147.461
21
-59.8098
0
LINE
8
BLACK
6
CONTINUOUS
10
147.461
20
-59.8098
11
147.459
21
-59.8082
0
LINE
8
BLACK
6
CONTINUOUS
10
147.459
20
-59.8082
11
147.286
21
-59.5981
0
LINE
8
BLACK
6
CONTINUOUS
10
147.286
20
-59.5981
11
147.285
21
-59.5979
0
LINE
8
BLACK
6
CONTINUOUS
10
147.285
20
-59.5979
11
147.284
21
-59.596
0
LINE
8
BLACK
6
CONTINUOUS
10
147.284
20
-59.596
11
147.283
21
-59.5941
0
LINE
8
BLACK
6
CONTINUOUS
10
147.283
20
-59.5941
11
147.153
21
-59.3543
0
LINE
8
BLACK
6
CONTINUOUS
10
147.153
20
-59.3543
11
147.153
21
-59.3539
0
LINE
8
BLACK
6
CONTINUOUS
10
147.153
20
-59.3539
11
147.152
21
-59.3518
0
LINE
8
BLACK
6
CONTINUOUS
10
147.152
20
-59.3518
11
147.151
21
-59.3498
0
LINE
8
BLACK
6
CONTINUOUS
10
147.151
20
-59.3498
11
147.071
21
-59.0893
0
LINE
8
BLACK
6
CONTINUOUS
10
147.071
20
-59.0893
11
147.071
21
-59.089
0
LINE
8
BLACK
6
CONTINUOUS
10
147.071
20
-59.089
11
147.07
21
-59.0867
0
LINE
8
BLACK
6
CONTINUOUS
10
147.07
20
-59.0867
11
147.07
21
-59.0845
0
LINE
8
BLACK
6
CONTINUOUS
10
147.07
20
-59.0845
11
147.041
21
-58.8134
0
LINE
8
BLACK
6
CONTINUOUS
10
147.041
20
-58.8134
11
147.041
21
-58.813
0
LINE
8
BLACK
6
CONTINUOUS
10
147.041
20
-58.813
11
147.041
21
-58.8119
0
LINE
8
BLACK
6
CONTINUOUS
10
147.041
20
-58.8119
11
147.041
21
-58.8108
0
LINE
8
BLACK
6
CONTINUOUS
10
147.041
20
-58.8108
11
147.041
21
-58.8022
0
LINE
8
BLACK
6
CONTINUOUS
10
147.041
20
-58.8022
11
147.041
21
-58.8022
0
LINE
8
BLACK
6
CONTINUOUS
10
147.041
20
-58.8022
11
147.041
21
-58.8014
0
LINE
8
BLACK
6
CONTINUOUS
10
147.041
20
-58.8014
11
147.041
21
-58.8011
0
LINE
8
BLACK
6
CONTINUOUS
10
147.041
20
-58.8011
11
147.041
21
-58.8007
0
LINE
8
BLACK
6
CONTINUOUS
10
147.041
20
-58.8007
11
147.041
21
-58.4836
0
LINE
8
BLACK
6
CONTINUOUS
10
147.041
20
-58.4836
11
147.041
21
-58.4809
0
LINE
8
BLACK
6
CONTINUOUS
10
147.041
20
-58.4809
11
147.03
21
-58.3736
0
LINE
8
BLACK
6
CONTINUOUS
10
147.03
20
-58.3736
11
146.998
21
-58.2718
0
LINE
8
BLACK
6
CONTINUOUS
10
146.998
20
-58.2718
11
146.947
21
-58.178
0
LINE
8
BLACK
6
CONTINUOUS
10
146.947
20
-58.178
11
146.879
21
-58.0958
0
LINE
8
BLACK
6
CONTINUOUS
10
146.879
20
-58.0958
11
146.797
21
-58.0284
0
LINE
8
BLACK
6
CONTINUOUS
10
146.797
20
-58.0284
11
146.703
21
-57.9783
0
LINE
8
BLACK
6
CONTINUOUS
10
146.703
20
-57.9783
11
146.601
21
-57.9475
0
LINE
8
BLACK
6
CONTINUOUS
10
146.601
20
-57.9475
11
146.493
21
-57.937
0
LINE
8
BLACK
6
CONTINUOUS
10
146.493
20
-57.937
11
124.651
21
-57.937
0
LINE
8
BLACK
6
CONTINUOUS
10
124.651
20
-57.937
11
124.648
21
-57.937
0
LINE
8
BLACK
6
CONTINUOUS
10
124.648
20
-57.937
11
124.541
21
-57.9483
0
LINE
8
BLACK
6
CONTINUOUS
10
124.541
20
-57.9483
11
124.439
21
-57.9798
0
LINE
8
BLACK
6
CONTINUOUS
10
124.439
20
-57.9798
11
124.345
21
-58.0305
0
LINE
8
BLACK
6
CONTINUOUS
10
124.345
20
-58.0305
11
124.263
21
-58.0985
0
LINE
8
BLACK
6
CONTINUOUS
10
124.263
20
-58.0985
11
124.195
21
-58.1811
0
LINE
8
BLACK
6
CONTINUOUS
10
124.195
20
-58.1811
11
124.145
21
-58.2753
0
LINE
8
BLACK
6
CONTINUOUS
10
124.145
20
-58.2753
11
124.115
21
-58.3774
0
LINE
8
BLACK
6
CONTINUOUS
10
124.115
20
-58.3774
11
124.104
21
-58.4847
0
LINE
8
BLACK
6
CONTINUOUS
10
124.104
20
-58.4847
11
124.104
21
-58.8657
0
LINE
8
BLACK
6
CONTINUOUS
10
124.104
20
-58.8657
11
124.104
21
-58.8669
0
LINE
8
BLACK
6
CONTINUOUS
10
124.104
20
-58.8669
11
124.104
21
-58.8669
0
LINE
8
BLACK
6
CONTINUOUS
10
124.104
20
-58.8669
11
124.077
21
-59.1383
0
LINE
8
BLACK
6
CONTINUOUS
10
124.077
20
-59.1383
11
124.077
21
-59.1386
0
LINE
8
BLACK
6
CONTINUOUS
10
124.077
20
-59.1386
11
124.077
21
-59.1409
0
LINE
8
BLACK
6
CONTINUOUS
10
124.077
20
-59.1409
11
124.076
21
-59.1431
0
LINE
8
BLACK
6
CONTINUOUS
10
124.076
20
-59.1431
11
123.998
21
-59.4041
0
LINE
8
BLACK
6
CONTINUOUS
10
123.998
20
-59.4041
11
123.997
21
-59.4044
0
LINE
8
BLACK
6
CONTINUOUS
10
123.997
20
-59.4044
11
123.997
21
-59.4065
0
LINE
8
BLACK
6
CONTINUOUS
10
123.997
20
-59.4065
11
123.996
21
-59.4086
0
LINE
8
BLACK
6
CONTINUOUS
10
123.996
20
-59.4086
11
123.868
21
-59.6493
0
LINE
8
BLACK
6
CONTINUOUS
10
123.868
20
-59.6493
11
123.867
21
-59.6496
0
LINE
8
BLACK
6
CONTINUOUS
10
123.867
20
-59.6496
11
123.866
21
-59.6515
0
LINE
8
BLACK
6
CONTINUOUS
10
123.866
20
-59.6515
11
123.865
21
-59.6534
0
LINE
8
BLACK
6
CONTINUOUS
10
123.865
20
-59.6534
11
123.693
21
-59.8647
0
LINE
8
BLACK
6
CONTINUOUS
10
123.693
20
-59.8647
11
123.692
21
-59.8649
0
LINE
8
BLACK
6
CONTINUOUS
10
123.692
20
-59.8649
11
123.691
21
-59.8666
0
LINE
8
BLACK
6
CONTINUOUS
10
123.691
20
-59.8666
11
123.689
21
-59.8681
0
LINE
8
BLACK
6
CONTINUOUS
10
123.689
20
-59.8681
11
123.479
21
-60.0419
0
LINE
8
BLACK
6
CONTINUOUS
10
123.479
20
-60.0419
11
123.479
21
-60.0421
0
LINE
8
BLACK
6
CONTINUOUS
10
123.479
20
-60.0421
11
123.477
21
-60.0434
0
LINE
8
BLACK
6
CONTINUOUS
10
123.477
20
-60.0434
11
123.475
21
-60.0447
0
LINE
8
BLACK
6
CONTINUOUS
10
123.475
20
-60.0447
11
123.235
21
-60.1743
0
LINE
8
BLACK
6
CONTINUOUS
10
123.235
20
-60.1743
11
123.235
21
-60.1745
0
LINE
8
BLACK
6
CONTINUOUS
10
123.235
20
-60.1745
11
123.233
21
-60.1754
0
LINE
8
BLACK
6
CONTINUOUS
10
123.233
20
-60.1754
11
123.231
21
-60.1762
0
LINE
8
BLACK
6
CONTINUOUS
10
123.231
20
-60.1762
11
122.97
21
-60.2568
0
LINE
8
BLACK
6
CONTINUOUS
10
122.97
20
-60.2568
11
122.97
21
-60.2569
0
LINE
8
BLACK
6
CONTINUOUS
10
122.97
20
-60.2569
11
122.968
21
-60.2574
0
LINE
8
BLACK
6
CONTINUOUS
10
122.968
20
-60.2574
11
122.966
21
-60.2578
0
LINE
8
BLACK
6
CONTINUOUS
10
122.966
20
-60.2578
11
122.694
21
-60.2863
0
LINE
8
BLACK
6
CONTINUOUS
10
122.694
20
-60.2863
11
122.694
21
-60.2864
0
LINE
8
BLACK
6
CONTINUOUS
10
122.694
20
-60.2864
11
122.693
21
-60.2864
0
LINE
8
BLACK
6
CONTINUOUS
10
122.693
20
-60.2864
11
122.692
21
-60.2865
0
LINE
8
BLACK
6
CONTINUOUS
10
122.692
20
-60.2865
11
122.683
21
-60.2865
0
LINE
8
BLACK
6
CONTINUOUS
10
122.683
20
-60.2865
11
122.683
21
-60.2865
0
LINE
8
BLACK
6
CONTINUOUS
10
122.683
20
-60.2865
11
106.426
21
-60.2865
0
LINE
8
BLACK
6
CONTINUOUS
10
106.426
20
-60.2865
11
106.418
21
-60.2865
0
LINE
8
BLACK
6
CONTINUOUS
10
106.418
20
-60.2865
11
106.15
21
-60.3146
0
LINE
8
BLACK
6
CONTINUOUS
10
106.15
20
-60.3146
11
105.894
21
-60.3938
0
LINE
8
BLACK
6
CONTINUOUS
10
105.894
20
-60.3938
11
105.659
21
-60.5212
0
LINE
8
BLACK
6
CONTINUOUS
10
105.659
20
-60.5212
11
105.453
21
-60.6918
0
LINE
8
BLACK
6
CONTINUOUS
10
105.453
20
-60.6918
11
105.283
21
-60.8993
0
LINE
8
BLACK
6
CONTINUOUS
10
105.283
20
-60.8993
11
105.158
21
-61.1357
0
LINE
8
BLACK
6
CONTINUOUS
10
105.158
20
-61.1357
11
105.08
21
-61.392
0
LINE
8
BLACK
6
CONTINUOUS
10
105.08
20
-61.392
11
105.054
21
-61.6597
0
LINE
8
BLACK
6
CONTINUOUS
10
105.054
20
-61.6597
11
105.054
21
-63.6282
0
LINE
8
BLACK
6
CONTINUOUS
10
105.054
20
-63.6282
11
105.054
21
-63.6294
0
LINE
8
BLACK
6
CONTINUOUS
10
105.054
20
-63.6294
11
105.054
21
-63.6294
0
LINE
8
BLACK
6
CONTINUOUS
10
105.054
20
-63.6294
11
105.027
21
-63.9008
0
LINE
8
BLACK
6
CONTINUOUS
10
105.027
20
-63.9008
11
105.027
21
-63.9011
0
LINE
8
BLACK
6
CONTINUOUS
10
105.027
20
-63.9011
11
105.027
21
-63.9034
0
LINE
8
BLACK
6
CONTINUOUS
10
105.027
20
-63.9034
11
105.026
21
-63.9056
0
LINE
8
BLACK
6
CONTINUOUS
10
105.026
20
-63.9056
11
104.948
21
-64.1666
0
LINE
8
BLACK
6
CONTINUOUS
10
104.948
20
-64.1666
11
104.947
21
-64.1669
0
LINE
8
BLACK
6
CONTINUOUS
10
104.947
20
-64.1669
11
104.947
21
-64.169
0
LINE
8
BLACK
6
CONTINUOUS
10
104.947
20
-64.169
11
104.946
21
-64.1711
0
LINE
8
BLACK
6
CONTINUOUS
10
104.946
20
-64.1711
11
104.818
21
-64.4118
0
LINE
8
BLACK
6
CONTINUOUS
10
104.818
20
-64.4118
11
104.817
21
-64.4121
0
LINE
8
BLACK
6
CONTINUOUS
10
104.817
20
-64.4121
11
104.816
21
-64.414
0
LINE
8
BLACK
6
CONTINUOUS
10
104.816
20
-64.414
11
104.815
21
-64.4159
0
LINE
8
BLACK
6
CONTINUOUS
10
104.815
20
-64.4159
11
104.643
21
-64.6272
0
LINE
8
BLACK
6
CONTINUOUS
10
104.643
20
-64.6272
11
104.642
21
-64.6274
0
LINE
8
BLACK
6
CONTINUOUS
10
104.642
20
-64.6274
11
104.641
21
-64.6291
0
LINE
8
BLACK
6
CONTINUOUS
10
104.641
20
-64.6291
11
104.639
21
-64.6306
0
LINE
8
BLACK
6
CONTINUOUS
10
104.639
20
-64.6306
11
104.429
21
-64.8044
0
LINE
8
BLACK
6
CONTINUOUS
10
104.429
20
-64.8044
11
104.429
21
-64.8046
0
LINE
8
BLACK
6
CONTINUOUS
10
104.429
20
-64.8046
11
104.427
21
-64.8059
0
LINE
8
BLACK
6
CONTINUOUS
10
104.427
20
-64.8059
11
104.425
21
-64.8072
0
LINE
8
BLACK
6
CONTINUOUS
10
104.425
20
-64.8072
11
104.185
21
-64.9368
0
LINE
8
BLACK
6
CONTINUOUS
10
104.185
20
-64.9368
11
104.185
21
-64.937
0
LINE
8
BLACK
6
CONTINUOUS
10
104.185
20
-64.937
11
104.183
21
-64.9379
0
LINE
8
BLACK
6
CONTINUOUS
10
104.183
20
-64.9379
11
104.181
21
-64.9387
0
LINE
8
BLACK
6
CONTINUOUS
10
104.181
20
-64.9387
11
103.92
21
-65.0193
0
LINE
8
BLACK
6
CONTINUOUS
10
103.92
20
-65.0193
11
103.92
21
-65.0194
0
LINE
8
BLACK
6
CONTINUOUS
10
103.92
20
-65.0194
11
103.918
21
-65.0199
0
LINE
8
BLACK
6
CONTINUOUS
10
103.918
20
-65.0199
11
103.916
21
-65.0203
0
LINE
8
BLACK
6
CONTINUOUS
10
103.916
20
-65.0203
11
103.644
21
-65.0488
0
LINE
8
BLACK
6
CONTINUOUS
10
103.644
20
-65.0488
11
103.644
21
-65.0489
0
LINE
8
BLACK
6
CONTINUOUS
10
103.644
20
-65.0489
11
103.643
21
-65.0489
0
LINE
8
BLACK
6
CONTINUOUS
10
103.643
20
-65.0489
11
103.642
21
-65.049
0
LINE
8
BLACK
6
CONTINUOUS
10
103.642
20
-65.049
11
103.633
21
-65.049
0
LINE
8
BLACK
6
CONTINUOUS
10
103.633
20
-65.049
11
103.633
21
-65.049
0
LINE
8
BLACK
6
CONTINUOUS
10
103.633
20
-65.049
11
77.0322
21
-65.049
0
LINE
8
BLACK
6
CONTINUOUS
10
77.0322
20
-65.049
11
77.031
21
-65.0491
0
LINE
8
BLACK
6
CONTINUOUS
10
77.031
20
-65.0491
11
77.0298
21
-65.049
0
LINE
8
BLACK
6
CONTINUOUS
10
77.0298
20
-65.049
11
77.0298
21
-65.049
0
LINE
8
BLACK
6
CONTINUOUS
10
77.0298
20
-65.049
11
77.0261
21
-65.0486
0
LINE
8
BLACK
6
CONTINUOUS
10
77.0261
20
-65.0486
11
77.0214
21
-65.0472
0
LINE
8
BLACK
6
CONTINUOUS
10
77.0214
20
-65.0472
11
77.017
21
-65.0449
0
LINE
8
BLACK
6
CONTINUOUS
10
77.017
20
-65.0449
11
77.0132
21
-65.0418
0
LINE
8
BLACK
6
CONTINUOUS
10
77.0132
20
-65.0418
11
77.0101
21
-65.038
0
LINE
8
BLACK
6
CONTINUOUS
10
77.0101
20
-65.038
11
77.0078
21
-65.0336
0
LINE
8
BLACK
6
CONTINUOUS
10
77.0078
20
-65.0336
11
77.0064
21
-65.0289
0
LINE
8
BLACK
6
CONTINUOUS
10
77.0064
20
-65.0289
11
77.0059
21
-65.024
0
LINE
8
BLACK
6
CONTINUOUS
10
77.0059
20
-65.024
11
77.006
21
-65.0228
0
LINE
8
BLACK
6
CONTINUOUS
10
77.006
20
-65.0228
11
77.006
21
-62.7865
0
LINE
8
BLACK
6
CONTINUOUS
10
77.006
20
-62.7865
11
77.0057
21
-62.7426
0
LINE
8
BLACK
6
CONTINUOUS
10
77.0057
20
-62.7426
11
76.9354
21
-62.116
0
LINE
8
BLACK
6
CONTINUOUS
10
76.9354
20
-62.116
11
76.7451
21
-61.5161
0
LINE
8
BLACK
6
CONTINUOUS
10
76.7451
20
-61.5161
11
76.4419
21
-60.9645
0
LINE
8
BLACK
6
CONTINUOUS
10
76.4419
20
-60.9645
11
76.0373
21
-60.4824
0
LINE
8
BLACK
6
CONTINUOUS
10
76.0373
20
-60.4824
11
75.5468
21
-60.088
0
LINE
8
BLACK
6
CONTINUOUS
10
75.5468
20
-60.088
11
74.9891
21
-59.7964
0
LINE
8
BLACK
6
CONTINUOUS
10
74.9891
20
-59.7964
11
74.3853
21
-59.6187
0
LINE
8
BLACK
6
CONTINUOUS
10
74.3853
20
-59.6187
11
73.7585
21
-59.5617
0
LINE
8
BLACK
6
CONTINUOUS
10
73.7585
20
-59.5617
11
73.1325
21
-59.6275
0
LINE
8
BLACK
6
CONTINUOUS
10
73.1325
20
-59.6275
11
72.5313
21
-59.8136
0
LINE
8
BLACK
6
CONTINUOUS
10
72.5313
20
-59.8136
11
71.9777
21
-60.113
0
LINE
8
BLACK
6
CONTINUOUS
10
71.9777
20
-60.113
11
71.4927
21
-60.5141
0
LINE
8
BLACK
6
CONTINUOUS
10
71.4927
20
-60.5141
11
71.0949
21
-61.0019
0
LINE
8
BLACK
6
CONTINUOUS
10
71.0949
20
-61.0019
11
70.7994
21
-61.5576
0
LINE
8
BLACK
6
CONTINUOUS
10
70.7994
20
-61.5576
11
70.6175
21
-62.1601
0
LINE
8
BLACK
6
CONTINUOUS
10
70.6175
20
-62.1601
11
70.556
21
-62.7877
0
LINE
8
BLACK
6
CONTINUOUS
10
70.556
20
-62.7877
11
70.556
21
-65.0228
0
LINE
8
BLACK
6
CONTINUOUS
10
70.556
20
-65.0228
11
70.5561
21
-65.024
0
LINE
8
BLACK
6
CONTINUOUS
10
70.5561
20
-65.024
11
70.556
21
-65.0252
0
LINE
8
BLACK
6
CONTINUOUS
10
70.556
20
-65.0252
11
70.5556
21
-65.0289
0
LINE
8
BLACK
6
CONTINUOUS
10
70.5556
20
-65.0289
11
70.5542
21
-65.0336
0
LINE
8
BLACK
6
CONTINUOUS
10
70.5542
20
-65.0336
11
70.5519
21
-65.038
0
LINE
8
BLACK
6
CONTINUOUS
10
70.5519
20
-65.038
11
70.5488
21
-65.0418
0
LINE
8
BLACK
6
CONTINUOUS
10
70.5488
20
-65.0418
11
70.545
21
-65.0449
0
LINE
8
BLACK
6
CONTINUOUS
10
70.545
20
-65.0449
11
70.5406
21
-65.0472
0
LINE
8
BLACK
6
CONTINUOUS
10
70.5406
20
-65.0472
11
70.5359
21
-65.0486
0
LINE
8
BLACK
6
CONTINUOUS
10
70.5359
20
-65.0486
11
70.531
21
-65.0491
0
LINE
8
BLACK
6
CONTINUOUS
10
70.531
20
-65.0491
11
70.5298
21
-65.049
0
LINE
8
BLACK
6
CONTINUOUS
10
70.5298
20
-65.049
11
60.7696
21
-65.049
0
LINE
8
BLACK
6
CONTINUOUS
10
60.7696
20
-65.049
11
60.7611
21
-65.049
0
LINE
8
BLACK
6
CONTINUOUS
10
60.7611
20
-65.049
11
60.4936
21
-65.0771
0
LINE
8
BLACK
6
CONTINUOUS
10
60.4936
20
-65.0771
11
60.2379
21
-65.1563
0
LINE
8
BLACK
6
CONTINUOUS
10
60.2379
20
-65.1563
11
60.0024
21
-65.2837
0
LINE
8
BLACK
6
CONTINUOUS
10
60.0024
20
-65.2837
11
59.7961
21
-65.4543
0
LINE
8
BLACK
6
CONTINUOUS
10
59.7961
20
-65.4543
11
59.6268
21
-65.6618
0
LINE
8
BLACK
6
CONTINUOUS
10
59.6268
20
-65.6618
11
59.5011
21
-65.8982
0
LINE
8
BLACK
6
CONTINUOUS
10
59.5011
20
-65.8982
11
59.4237
21
-66.1545
0
LINE
8
BLACK
6
CONTINUOUS
10
59.4237
20
-66.1545
11
59.3975
21
-66.4222
0
LINE
8
BLACK
6
CONTINUOUS
10
59.3975
20
-66.4222
11
59.3975
21
-139.249
0
LINE
8
BLACK
6
CONTINUOUS
10
59.3975
20
-139.249
11
59.3976
21
-139.25
0
LINE
8
BLACK
6
CONTINUOUS
10
59.3976
20
-139.25
11
59.3971
21
-139.255
0
LINE
8
BLACK
6
CONTINUOUS
10
59.3971
20
-139.255
11
59.3957
21
-139.26
0
LINE
8
BLACK
6
CONTINUOUS
10
59.3957
20
-139.26
11
59.3934
21
-139.264
0
LINE
8
BLACK
6
CONTINUOUS
10
59.3934
20
-139.264
11
59.3903
21
-139.268
0
LINE
8
BLACK
6
CONTINUOUS
10
59.3903
20
-139.268
11
59.3865
21
-139.271
0
LINE
8
BLACK
6
CONTINUOUS
10
59.3865
20
-139.271
11
59.3821
21
-139.273
0
LINE
8
BLACK
6
CONTINUOUS
10
59.3821
20
-139.273
11
59.3774
21
-139.275
0
LINE
8
BLACK
6
CONTINUOUS
10
59.3774
20
-139.275
11
59.3737
21
-139.275
0
LINE
8
BLACK
6
CONTINUOUS
10
59.3737
20
-139.275
11
59.3737
21
-139.275
0
LINE
8
BLACK
6
CONTINUOUS
10
59.3737
20
-139.275
11
59.3725
21
-139.275
0
LINE
8
BLACK
6
CONTINUOUS
10
59.3725
20
-139.275
11
59.3713
21
-139.275
0
LINE
8
BLACK
6
CONTINUOUS
10
59.3713
20
-139.275
11
57.008
21
-139.275
0
LINE
8
BLACK
6
CONTINUOUS
10
57.008
20
-139.275
11
56.9641
21
-139.275
0
LINE
8
BLACK
6
CONTINUOUS
10
56.9641
20
-139.275
11
56.3375
21
-139.346
0
LINE
8
BLACK
6
CONTINUOUS
10
56.3375
20
-139.346
11
55.7376
21
-139.536
0
LINE
8
BLACK
6
CONTINUOUS
10
55.7376
20
-139.536
11
55.186
21
-139.839
0
LINE
8
BLACK
6
CONTINUOUS
10
55.186
20
-139.839
11
54.7039
21
-140.244
0
LINE
8
BLACK
6
CONTINUOUS
10
54.7039
20
-140.244
11
54.3095
21
-140.734
0
LINE
8
BLACK
6
CONTINUOUS
10
54.3095
20
-140.734
11
54.0179
21
-141.292
0
LINE
8
BLACK
6
CONTINUOUS
10
54.0179
20
-141.292
11
53.8402
21
-141.896
0
LINE
8
BLACK
6
CONTINUOUS
10
53.8402
20
-141.896
11
53.7832
21
-142.523
0
LINE
8
BLACK
6
CONTINUOUS
10
53.7832
20
-142.523
11
53.849
21
-143.148
0
LINE
8
BLACK
6
CONTINUOUS
10
53.849
20
-143.148
11
54.0351
21
-143.75
0
LINE
8
BLACK
6
CONTINUOUS
10
54.0351
20
-143.75
11
54.3345
21
-144.303
0
LINE
8
BLACK
6
CONTINUOUS
10
54.3345
20
-144.303
11
54.7356
21
-144.788
0
LINE
8
BLACK
6
CONTINUOUS
10
54.7356
20
-144.788
11
55.2234
21
-145.186
0
LINE
8
BLACK
6
CONTINUOUS
10
55.2234
20
-145.186
11
55.7791
21
-145.482
0
LINE
8
BLACK
6
CONTINUOUS
10
55.7791
20
-145.482
11
56.3816
21
-145.663
0
LINE
8
BLACK
6
CONTINUOUS
10
56.3816
20
-145.663
11
57.0092
21
-145.725
0
LINE
8
BLACK
6
CONTINUOUS
10
57.0092
20
-145.725
11
59.3713
21
-145.725
0
LINE
8
BLACK
6
CONTINUOUS
10
59.3713
20
-145.725
11
59.3725
21
-145.725
0
LINE
8
BLACK
6
CONTINUOUS
10
59.3725
20
-145.725
11
59.3737
21
-145.725
0
LINE
8
BLACK
6
CONTINUOUS
10
59.3737
20
-145.725
11
59.3737
21
-145.725
0
LINE
8
BLACK
6
CONTINUOUS
10
59.3737
20
-145.725
11
59.3774
21
-145.725
0
LINE
8
BLACK
6
CONTINUOUS
10
59.3774
20
-145.725
11
59.3821
21
-145.727
0
LINE
8
BLACK
6
CONTINUOUS
10
59.3821
20
-145.727
11
59.3865
21
-145.729
0
LINE
8
BLACK
6
CONTINUOUS
10
59.3865
20
-145.729
11
59.3903
21
-145.732
0
LINE
8
BLACK
6
CONTINUOUS
10
59.3903
20
-145.732
11
59.3934
21
-145.736
0
LINE
8
BLACK
6
CONTINUOUS
10
59.3934
20
-145.736
11
59.3957
21
-145.74
0
LINE
8
BLACK
6
CONTINUOUS
10
59.3957
20
-145.74
11
59.3971
21
-145.745
0
LINE
8
BLACK
6
CONTINUOUS
10
59.3971
20
-145.745
11
59.3976
21
-145.75
0
LINE
8
BLACK
6
CONTINUOUS
10
59.3976
20
-145.75
11
59.3975
21
-145.751
0
LINE
8
BLACK
6
CONTINUOUS
10
59.3975
20
-145.751
11
59.3975
21
-161.163
0
LINE
8
BLACK
6
CONTINUOUS
10
59.3975
20
-161.163
11
59.3975
21
-161.171
0
LINE
8
BLACK
6
CONTINUOUS
10
59.3975
20
-161.171
11
59.4256
21
-161.439
0
LINE
8
BLACK
6
CONTINUOUS
10
59.4256
20
-161.439
11
59.5048
21
-161.695
0
LINE
8
BLACK
6
CONTINUOUS
10
59.5048
20
-161.695
11
59.6322
21
-161.93
0
LINE
8
BLACK
6
CONTINUOUS
10
59.6322
20
-161.93
11
59.8028
21
-162.136
0
LINE
8
BLACK
6
CONTINUOUS
10
59.8028
20
-162.136
11
60.0103
21
-162.306
0
LINE
8
BLACK
6
CONTINUOUS
10
60.0103
20
-162.306
11
60.2467
21
-162.431
0
LINE
8
BLACK
6
CONTINUOUS
10
60.2467
20
-162.431
11
60.503
21
-162.509
0
LINE
8
BLACK
6
CONTINUOUS
10
60.503
20
-162.509
11
60.7707
21
-162.535
0
LINE
8
BLACK
6
CONTINUOUS
10
60.7707
20
-162.535
11
107.569
21
-162.535
0
LINE
8
BLACK
6
CONTINUOUS
10
107.569
20
-162.535
11
107.577
21
-162.535
0
LINE
8
BLACK
6
CONTINUOUS
10
107.577
20
-162.535
11
107.845
21
-162.507
0
LINE
8
BLACK
6
CONTINUOUS
10
107.845
20
-162.507
11
108.101
21
-162.428
0
LINE
8
BLACK
6
CONTINUOUS
10
108.101
20
-162.428
11
108.336
21
-162.3
0
LINE
8
BLACK
6
CONTINUOUS
10
108.336
20
-162.3
11
108.542
21
-162.13
0
LINE
8
BLACK
6
CONTINUOUS
10
108.542
20
-162.13
11
108.712
21
-161.922
0
LINE
8
BLACK
6
CONTINUOUS
10
108.712
20
-161.922
11
108.837
21
-161.686
0
LINE
8
BLACK
6
CONTINUOUS
10
108.837
20
-161.686
11
108.915
21
-161.429
0
LINE
8
BLACK
6
CONTINUOUS
10
108.915
20
-161.429
11
108.941
21
-161.162
0
LINE
8
BLACK
6
CONTINUOUS
10
108.941
20
-161.162
11
108.941
21
-159.193
0
LINE
8
BLACK
6
CONTINUOUS
10
108.941
20
-159.193
11
108.941
21
-159.192
0
LINE
8
BLACK
6
CONTINUOUS
10
108.941
20
-159.192
11
108.941
21
-159.192
0
LINE
8
BLACK
6
CONTINUOUS
10
108.941
20
-159.192
11
108.968
21
-158.921
0
LINE
8
BLACK
6
CONTINUOUS
10
108.968
20
-158.921
11
108.968
21
-158.92
0
LINE
8
BLACK
6
CONTINUOUS
10
108.968
20
-158.92
11
108.968
21
-158.918
0
LINE
8
BLACK
6
CONTINUOUS
10
108.968
20
-158.918
11
108.969
21
-158.916
0
LINE
8
BLACK
6
CONTINUOUS
10
108.969
20
-158.916
11
109.047
21
-158.655
0
LINE
8
BLACK
6
CONTINUOUS
10
109.047
20
-158.655
11
109.048
21
-158.655
0
LINE
8
BLACK
6
CONTINUOUS
10
109.048
20
-158.655
11
109.048
21
-158.652
0
LINE
8
BLACK
6
CONTINUOUS
10
109.048
20
-158.652
11
109.049
21
-158.65
0
LINE
8
BLACK
6
CONTINUOUS
10
109.049
20
-158.65
11
109.177
21
-158.41
0
LINE
8
BLACK
6
CONTINUOUS
10
109.177
20
-158.41
11
109.178
21
-158.409
0
LINE
8
BLACK
6
CONTINUOUS
10
109.178
20
-158.409
11
109.179
21
-158.408
0
LINE
8
BLACK
6
CONTINUOUS
10
109.179
20
-158.408
11
109.18
21
-158.406
0
LINE
8
BLACK
6
CONTINUOUS
10
109.18
20
-158.406
11
109.352
21
-158.194
0
LINE
8
BLACK
6
CONTINUOUS
10
109.352
20
-158.194
11
109.352
21
-158.194
0
LINE
8
BLACK
6
CONTINUOUS
10
109.352
20
-158.194
11
109.352
21
-158.194
0
LINE
8
BLACK
6
CONTINUOUS
10
109.352
20
-158.194
11
109.353
21
-158.194
0
LINE
8
BLACK
6
CONTINUOUS
10
109.353
20
-158.194
11
109.354
21
-158.192
0
LINE
8
BLACK
6
CONTINUOUS
10
109.354
20
-158.192
11
109.356
21
-158.191
0
LINE
8
BLACK
6
CONTINUOUS
10
109.356
20
-158.191
11
109.566
21
-158.017
0
LINE
8
BLACK
6
CONTINUOUS
10
109.566
20
-158.017
11
109.566
21
-158.017
0
LINE
8
BLACK
6
CONTINUOUS
10
109.566
20
-158.017
11
109.568
21
-158.016
0
LINE
8
BLACK
6
CONTINUOUS
10
109.568
20
-158.016
11
109.57
21
-158.014
0
LINE
8
BLACK
6
CONTINUOUS
10
109.57
20
-158.014
11
109.81
21
-157.885
0
LINE
8
BLACK
6
CONTINUOUS
10
109.81
20
-157.885
11
109.81
21
-157.885
0
LINE
8
BLACK
6
CONTINUOUS
10
109.81
20
-157.885
11
109.81
21
-157.885
0
LINE
8
BLACK
6
CONTINUOUS
10
109.81
20
-157.885
11
109.81
21
-157.885
0
LINE
8
BLACK
6
CONTINUOUS
10
109.81
20
-157.885
11
109.812
21
-157.884
0
LINE
8
BLACK
6
CONTINUOUS
10
109.812
20
-157.884
11
109.814
21
-157.883
0
LINE
8
BLACK
6
CONTINUOUS
10
109.814
20
-157.883
11
110.075
21
-157.802
0
LINE
8
BLACK
6
CONTINUOUS
10
110.075
20
-157.802
11
110.075
21
-157.802
0
LINE
8
BLACK
6
CONTINUOUS
10
110.075
20
-157.802
11
110.077
21
-157.802
0
LINE
8
BLACK
6
CONTINUOUS
10
110.077
20
-157.802
11
110.079
21
-157.801
0
LINE
8
BLACK
6
CONTINUOUS
10
110.079
20
-157.801
11
110.351
21
-157.773
0
LINE
8
BLACK
6
CONTINUOUS
10
110.351
20
-157.773
11
110.351
21
-157.773
0
LINE
8
BLACK
6
CONTINUOUS
10
110.351
20
-157.773
11
110.352
21
-157.773
0
LINE
8
BLACK
6
CONTINUOUS
10
110.352
20
-157.773
11
110.353
21
-157.773
0
LINE
8
BLACK
6
CONTINUOUS
10
110.353
20
-157.773
11
110.362
21
-157.773
0
LINE
8
BLACK
6
CONTINUOUS
10
110.362
20
-157.773
11
110.362
21
-157.772
0
LINE
8
BLACK
6
CONTINUOUS
10
110.362
20
-157.772
11
113.832
21
-157.772
0
LINE
8
BLACK
6
CONTINUOUS
10
113.832
20
-157.772
11
113.834
21
-157.772
0
LINE
8
BLACK
6
CONTINUOUS
10
113.834
20
-157.772
11
113.835
21
-157.772
0
LINE
8
BLACK
6
CONTINUOUS
10
113.835
20
-157.772
11
113.838
21
-157.773
0
LINE
8
BLACK
6
CONTINUOUS
10
113.838
20
-157.773
11
113.843
21
-157.774
0
LINE
8
BLACK
6
CONTINUOUS
10
113.843
20
-157.774
11
113.847
21
-157.777
0
LINE
8
BLACK
6
CONTINUOUS
10
113.847
20
-157.777
11
113.851
21
-157.78
0
LINE
8
BLACK
6
CONTINUOUS
10
113.851
20
-157.78
11
113.854
21
-157.784
0
LINE
8
BLACK
6
CONTINUOUS
10
113.854
20
-157.784
11
113.857
21
-157.788
0
LINE
8
BLACK
6
CONTINUOUS
10
113.857
20
-157.788
11
113.858
21
-157.793
0
LINE
8
BLACK
6
CONTINUOUS
10
113.858
20
-157.793
11
113.859
21
-157.797
0
LINE
8
BLACK
6
CONTINUOUS
10
113.859
20
-157.797
11
113.858
21
-157.799
0
LINE
8
BLACK
6
CONTINUOUS
10
113.858
20
-157.799
11
113.858
21
-160.15
0
LINE
8
BLACK
6
CONTINUOUS
10
113.858
20
-160.15
11
113.859
21
-160.187
0
LINE
8
BLACK
6
CONTINUOUS
10
113.859
20
-160.187
11
113.918
21
-160.717
0
LINE
8
BLACK
6
CONTINUOUS
10
113.918
20
-160.717
11
114.079
21
-161.223
0
LINE
8
BLACK
6
CONTINUOUS
10
114.079
20
-161.223
11
114.335
21
-161.689
0
LINE
8
BLACK
6
CONTINUOUS
10
114.335
20
-161.689
11
114.677
21
-162.097
0
LINE
8
BLACK
6
CONTINUOUS
10
114.677
20
-162.097
11
115.091
21
-162.43
0
LINE
8
BLACK
6
CONTINUOUS
10
115.091
20
-162.43
11
115.563
21
-162.676
0
LINE
8
BLACK
6
CONTINUOUS
10
115.563
20
-162.676
11
116.073
21
-162.827
0
LINE
8
BLACK
6
CONTINUOUS
10
116.073
20
-162.827
11
116.603
21
-162.875
0
LINE
8
BLACK
6
CONTINUOUS
10
116.603
20
-162.875
11
117.131
21
-162.819
0
LINE
8
BLACK
6
CONTINUOUS
10
117.131
20
-162.819
11
117.639
21
-162.662
0
LINE
8
BLACK
6
CONTINUOUS
10
117.639
20
-162.662
11
118.107
21
-162.409
0
LINE
8
BLACK
6
CONTINUOUS
10
118.107
20
-162.409
11
118.517
21
-162.07
0
LINE
8
BLACK
6
CONTINUOUS
10
118.517
20
-162.07
11
118.853
21
-161.658
0
LINE
8
BLACK
6
CONTINUOUS
10
118.853
20
-161.658
11
119.103
21
-161.188
0
LINE
8
BLACK
6
CONTINUOUS
10
119.103
20
-161.188
11
119.256
21
-160.679
0
LINE
8
BLACK
6
CONTINUOUS
10
119.256
20
-160.679
11
119.308
21
-160.149
0
LINE
8
BLACK
6
CONTINUOUS
10
119.308
20
-160.149
11
119.309
21
-157.799
0
LINE
8
BLACK
6
CONTINUOUS
10
119.309
20
-157.799
11
119.308
21
-157.797
0
LINE
8
BLACK
6
CONTINUOUS
10
119.308
20
-157.797
11
119.309
21
-157.793
0
LINE
8
BLACK
6
CONTINUOUS
10
119.309
20
-157.793
11
119.31
21
-157.788
0
LINE
8
BLACK
6
CONTINUOUS
10
119.31
20
-157.788
11
119.313
21
-157.784
0
LINE
8
BLACK
6
CONTINUOUS
10
119.313
20
-157.784
11
119.316
21
-157.78
0
LINE
8
BLACK
6
CONTINUOUS
10
119.316
20
-157.78
11
119.32
21
-157.777
0
LINE
8
BLACK
6
CONTINUOUS
10
119.32
20
-157.777
11
119.324
21
-157.774
0
LINE
8
BLACK
6
CONTINUOUS
10
119.324
20
-157.774
11
119.329
21
-157.773
0
LINE
8
BLACK
6
CONTINUOUS
10
119.329
20
-157.773
11
119.332
21
-157.772
0
LINE
8
BLACK
6
CONTINUOUS
10
119.332
20
-157.772
11
119.332
21
-157.772
0
LINE
8
BLACK
6
CONTINUOUS
10
119.332
20
-157.772
11
119.334
21
-157.772
0
LINE
8
BLACK
6
CONTINUOUS
10
119.334
20
-157.772
11
119.335
21
-157.772
0
LINE
8
BLACK
6
CONTINUOUS
10
119.335
20
-157.772
11
126.873
21
-157.772
0
LINE
8
BLACK
6
CONTINUOUS
10
126.873
20
-157.772
11
126.873
21
-157.772
0
LINE
8
BLACK
6
CONTINUOUS
10
126.873
20
-157.772
11
126.874
21
-157.772
0
LINE
8
BLACK
6
CONTINUOUS
10
126.874
20
-157.772
11
126.874
21
-157.772
0
LINE
8
BLACK
6
CONTINUOUS
10
126.874
20
-157.772
11
126.875
21
-157.773
0
LINE
8
BLACK
6
CONTINUOUS
10
126.875
20
-157.773
11
144.906
21
-158.852
0
LINE
8
BLACK
6
CONTINUOUS
10
144.906
20
-158.852
11
144.906
21
-158.852
0
LINE
8
BLACK
6
CONTINUOUS
10
144.906
20
-158.852
11
144.908
21
-158.852
0
LINE
8
BLACK
6
CONTINUOUS
10
144.908
20
-158.852
11
144.91
21
-158.852
0
LINE
8
BLACK
6
CONTINUOUS
10
144.91
20
-158.852
11
144.91
21
-158.852
0
LINE
8
BLACK
6
CONTINUOUS
10
144.91
20
-158.852
11
144.911
21
-158.852
0
LINE
8
BLACK
6
CONTINUOUS
10
144.911
20
-158.852
11
144.912
21
-158.853
0
LINE
8
BLACK
6
CONTINUOUS
10
144.912
20
-158.853
11
144.913
21
-158.853
0
LINE
8
BLACK
6
CONTINUOUS
10
144.913
20
-158.853
11
144.915
21
-158.853
0
LINE
8
BLACK
6
CONTINUOUS
10
144.915
20
-158.853
11
144.915
21
-158.853
0
LINE
8
BLACK
6
CONTINUOUS
10
144.915
20
-158.853
11
144.916
21
-158.854
0
LINE
8
BLACK
6
CONTINUOUS
10
144.916
20
-158.854
11
144.918
21
-158.854
0
LINE
8
BLACK
6
CONTINUOUS
10
144.918
20
-158.854
11
144.918
21
-158.854
0
LINE
8
BLACK
6
CONTINUOUS
10
144.918
20
-158.854
11
162.631
21
-165.47
0
LINE
8
BLACK
6
CONTINUOUS
10
162.631
20
-165.47
11
162.633
21
-165.47
0
LINE
8
BLACK
6
CONTINUOUS
10
162.633
20
-165.47
11
162.635
21
-165.471
0
LINE
8
BLACK
6
CONTINUOUS
10
162.635
20
-165.471
11
162.637
21
-165.472
0
LINE
8
BLACK
6
CONTINUOUS
10
162.637
20
-165.472
11
162.638
21
-165.473
0
LINE
8
BLACK
6
CONTINUOUS
10
162.638
20
-165.473
11
175.7
21
-174.013
0
LINE
8
BLACK
6
CONTINUOUS
10
175.7
20
-174.013
11
175.701
21
-174.014
0
LINE
8
BLACK
6
CONTINUOUS
10
175.701
20
-174.014
11
175.703
21
-174.015
0
LINE
8
BLACK
6
CONTINUOUS
10
175.703
20
-174.015
11
175.705
21
-174.017
0
LINE
8
BLACK
6
CONTINUOUS
10
175.705
20
-174.017
11
175.705
21
-174.017
0
LINE
8
BLACK
6
CONTINUOUS
10
175.705
20
-174.017
11
175.705
21
-174.017
0
LINE
8
BLACK
6
CONTINUOUS
10
175.705
20
-174.017
11
175.706
21
-174.019
0
LINE
8
BLACK
6
CONTINUOUS
10
175.706
20
-174.019
11
175.708
21
-174.021
0
LINE
8
BLACK
6
CONTINUOUS
10
175.708
20
-174.021
11
175.708
21
-174.021
0
LINE
8
BLACK
6
CONTINUOUS
10
175.708
20
-174.021
11
175.708
21
-174.021
0
LINE
8
BLACK
6
CONTINUOUS
10
175.708
20
-174.021
11
175.709
21
-174.023
0
LINE
8
BLACK
6
CONTINUOUS
10
175.709
20
-174.023
11
175.71
21
-174.025
0
LINE
8
BLACK
6
CONTINUOUS
10
175.71
20
-174.025
11
175.71
21
-174.025
0
LINE
8
BLACK
6
CONTINUOUS
10
175.71
20
-174.025
11
175.71
21
-174.025
0
LINE
8
BLACK
6
CONTINUOUS
10
175.71
20
-174.025
11
175.711
21
-174.027
0
LINE
8
BLACK
6
CONTINUOUS
10
175.711
20
-174.027
11
175.712
21
-174.03
0
LINE
8
BLACK
6
CONTINUOUS
10
175.712
20
-174.03
11
175.712
21
-174.03
0
LINE
8
BLACK
6
CONTINUOUS
10
175.712
20
-174.03
11
175.712
21
-174.03
0
LINE
8
BLACK
6
CONTINUOUS
10
175.712
20
-174.03
11
175.712
21
-174.032
0
LINE
8
BLACK
6
CONTINUOUS
10
175.712
20
-174.032
11
175.712
21
-174.035
0
LINE
8
BLACK
6
CONTINUOUS
10
175.712
20
-174.035
11
175.712
21
-174.035
0
LINE
8
BLACK
6
CONTINUOUS
10
175.712
20
-174.035
11
175.712
21
-174.035
0
LINE
8
BLACK
6
CONTINUOUS
10
175.712
20
-174.035
11
175.712
21
-174.037
0
LINE
8
BLACK
6
CONTINUOUS
10
175.712
20
-174.037
11
175.712
21
-174.039
0
LINE
8
BLACK
6
CONTINUOUS
10
175.712
20
-174.039
11
175.712
21
-174.039
0
LINE
8
BLACK
6
CONTINUOUS
10
175.712
20
-174.039
11
175.712
21
-174.04
0
LINE
8
BLACK
6
CONTINUOUS
10
175.712
20
-174.04
11
175.711
21
-174.042
0
LINE
8
BLACK
6
CONTINUOUS
10
175.711
20
-174.042
11
175.71
21
-174.044
0
LINE
8
BLACK
6
CONTINUOUS
10
175.71
20
-174.044
11
175.71
21
-174.044
0
LINE
8
BLACK
6
CONTINUOUS
10
175.71
20
-174.044
11
175.71
21
-174.044
0
LINE
8
BLACK
6
CONTINUOUS
10
175.71
20
-174.044
11
175.709
21
-174.047
0
LINE
8
BLACK
6
CONTINUOUS
10
175.709
20
-174.047
11
175.708
21
-174.049
0
LINE
8
BLACK
6
CONTINUOUS
10
175.708
20
-174.049
11
175.707
21
-174.05
0
LINE
8
BLACK
6
CONTINUOUS
10
175.707
20
-174.05
11
174.488
21
-175.891
0
LINE
8
BLACK
6
CONTINUOUS
10
174.488
20
-175.891
11
174.488
21
-175.891
0
LINE
8
BLACK
6
CONTINUOUS
10
174.488
20
-175.891
11
174.437
21
-175.966
0
LINE
8
BLACK
6
CONTINUOUS
10
174.437
20
-175.966
11
174.158
21
-176.498
0
LINE
8
BLACK
6
CONTINUOUS
10
174.158
20
-176.498
11
173.988
21
-177.074
0
LINE
8
BLACK
6
CONTINUOUS
10
173.988
20
-177.074
11
173.933
21
-177.672
0
LINE
8
BLACK
6
CONTINUOUS
10
173.933
20
-177.672
11
173.995
21
-178.269
0
LINE
8
BLACK
6
CONTINUOUS
10
173.995
20
-178.269
11
174.171
21
-178.842
0
LINE
8
BLACK
6
CONTINUOUS
10
174.171
20
-178.842
11
174.456
21
-179.371
0
LINE
8
BLACK
6
CONTINUOUS
10
174.456
20
-179.371
11
174.838
21
-179.834
0
LINE
8
BLACK
6
CONTINUOUS
10
174.838
20
-179.834
11
175.303
21
-180.213
0
LINE
8
BLACK
6
CONTINUOUS
10
175.303
20
-180.213
11
175.832
21
-180.496
0
LINE
8
BLACK
6
CONTINUOUS
10
175.832
20
-180.496
11
176.406
21
-180.67
0
LINE
8
BLACK
6
CONTINUOUS
10
176.406
20
-180.67
11
177.004
21
-180.73
0
LINE
8
BLACK
6
CONTINUOUS
10
177.004
20
-180.73
11
177.601
21
-180.672
0
LINE
8
BLACK
6
CONTINUOUS
10
177.601
20
-180.672
11
178.176
21
-180.499
0
LINE
8
BLACK
6
CONTINUOUS
10
178.176
20
-180.499
11
178.706
21
-180.218
0
LINE
8
BLACK
6
CONTINUOUS
10
178.706
20
-180.218
11
179.172
21
-179.839
0
LINE
8
BLACK
6
CONTINUOUS
10
179.172
20
-179.839
11
179.556
21
-179.377
0
LINE
8
BLACK
6
CONTINUOUS
10
179.556
20
-179.377
11
180.953
21
-177.279
0
LINE
8
BLACK
6
CONTINUOUS
10
180.953
20
-177.279
11
180.954
21
-177.278
0
LINE
8
BLACK
6
CONTINUOUS
10
180.954
20
-177.278
11
180.955
21
-177.277
0
LINE
8
BLACK
6
CONTINUOUS
10
180.955
20
-177.277
11
180.955
21
-177.277
0
LINE
8
BLACK
6
CONTINUOUS
10
180.955
20
-177.277
11
180.956
21
-177.276
0
LINE
8
BLACK
6
CONTINUOUS
10
180.956
20
-177.276
11
180.957
21
-177.274
0
LINE
8
BLACK
6
CONTINUOUS
10
180.957
20
-177.274
11
180.957
21
-177.274
0
LINE
8
BLACK
6
CONTINUOUS
10
180.957
20
-177.274
11
180.957
21
-177.274
0
LINE
8
BLACK
6
CONTINUOUS
10
180.957
20
-177.274
11
180.959
21
-177.273
0
LINE
8
BLACK
6
CONTINUOUS
10
180.959
20
-177.273
11
180.961
21
-177.271
0
LINE
8
BLACK
6
CONTINUOUS
10
180.961
20
-177.271
11
180.961
21
-177.271
0
LINE
8
BLACK
6
CONTINUOUS
10
180.961
20
-177.271
11
180.961
21
-177.271
0
LINE
8
BLACK
6
CONTINUOUS
10
180.961
20
-177.271
11
180.963
21
-177.27
0
LINE
8
BLACK
6
CONTINUOUS
10
180.963
20
-177.27
11
180.965
21
-177.269
0
LINE
8
BLACK
6
CONTINUOUS
10
180.965
20
-177.269
11
180.965
21
-177.269
0
LINE
8
BLACK
6
CONTINUOUS
10
180.965
20
-177.269
11
180.965
21
-177.269
0
LINE
8
BLACK
6
CONTINUOUS
10
180.965
20
-177.269
11
180.968
21
-177.268
0
LINE
8
BLACK
6
CONTINUOUS
10
180.968
20
-177.268
11
180.97
21
-177.267
0
LINE
8
BLACK
6
CONTINUOUS
10
180.97
20
-177.267
11
180.97
21
-177.267
0
LINE
8
BLACK
6
CONTINUOUS
10
180.97
20
-177.267
11
180.97
21
-177.267
0
LINE
8
BLACK
6
CONTINUOUS
10
180.97
20
-177.267
11
180.972
21
-177.267
0
LINE
8
BLACK
6
CONTINUOUS
10
180.972
20
-177.267
11
180.975
21
-177.267
0
LINE
8
BLACK
6
CONTINUOUS
10
180.975
20
-177.267
11
180.975
21
-177.267
0
LINE
8
BLACK
6
CONTINUOUS
10
180.975
20
-177.267
11
180.975
21
-177.267
0
LINE
8
BLACK
6
CONTINUOUS
10
180.975
20
-177.267
11
180.977
21
-177.267
0
LINE
8
BLACK
6
CONTINUOUS
10
180.977
20
-177.267
11
180.98
21
-177.267
0
LINE
8
BLACK
6
CONTINUOUS
10
180.98
20
-177.267
11
180.98
21
-177.267
0
LINE
8
BLACK
6
CONTINUOUS
10
180.98
20
-177.267
11
180.98
21
-177.267
0
LINE
8
BLACK
6
CONTINUOUS
10
180.98
20
-177.267
11
180.982
21
-177.268
0
LINE
8
BLACK
6
CONTINUOUS
10
180.982
20
-177.268
11
180.984
21
-177.269
0
LINE
8
BLACK
6
CONTINUOUS
10
180.984
20
-177.269
11
180.985
21
-177.269
0
LINE
8
BLACK
6
CONTINUOUS
10
180.985
20
-177.269
11
180.985
21
-177.269
0
LINE
8
BLACK
6
CONTINUOUS
10
180.985
20
-177.269
11
180.987
21
-177.27
0
LINE
8
BLACK
6
CONTINUOUS
10
180.987
20
-177.27
11
180.988
21
-177.27
0
LINE
8
BLACK
6
CONTINUOUS
10
180.988
20
-177.27
11
180.988
21
-177.27
0
LINE
8
BLACK
6
CONTINUOUS
10
180.988
20
-177.27
11
180.989
21
-177.271
0
LINE
8
BLACK
6
CONTINUOUS
10
180.989
20
-177.271
11
180.99
21
-177.272
0
LINE
8
BLACK
6
CONTINUOUS
10
180.99
20
-177.272
11
195.872
21
-187.1
0
LINE
8
BLACK
6
CONTINUOUS
10
195.872
20
-187.1
11
195.954
21
-187.138
0
LINE
8
BLACK
6
CONTINUOUS
10
195.954
20
-187.138
11
196.122
21
-187.188
0
LINE
8
BLACK
6
CONTINUOUS
10
196.122
20
-187.188
11
196.296
21
-187.204
0
LINE
8
BLACK
6
CONTINUOUS
10
196.296
20
-187.204
11
196.47
21
-187.186
0
LINE
8
BLACK
6
CONTINUOUS
10
196.47
20
-187.186
11
196.637
21
-187.135
0
LINE
8
BLACK
6
CONTINUOUS
10
196.637
20
-187.135
11
196.791
21
-187.052
0
LINE
8
BLACK
6
CONTINUOUS
10
196.791
20
-187.052
11
196.925
21
-186.941
0
LINE
8
BLACK
6
CONTINUOUS
10
196.925
20
-186.941
11
197.037
21
-186.805
0
LINE
8
BLACK
6
CONTINUOUS
10
197.037
20
-186.805
11
214.075
21
-160.617
0
LINE
8
BLACK
6
CONTINUOUS
10
214.075
20
-160.617
11
214.113
21
-160.535
0
LINE
8
BLACK
6
CONTINUOUS
10
214.113
20
-160.535
11
214.163
21
-160.367
0
LINE
8
BLACK
6
CONTINUOUS
10
214.163
20
-160.367
11
214.179
21
-160.193
0
LINE
8
BLACK
6
CONTINUOUS
10
214.179
20
-160.193
11
214.161
21
-160.019
0
LINE
8
BLACK
6
CONTINUOUS
10
214.161
20
-160.019
11
214.11
21
-159.852
0
LINE
8
BLACK
6
CONTINUOUS
10
214.11
20
-159.852
11
214.027
21
-159.698
0
LINE
8
BLACK
6
CONTINUOUS
10
214.027
20
-159.698
11
213.916
21
-159.564
0
LINE
8
BLACK
6
CONTINUOUS
10
213.916
20
-159.564
11
213.78
21
-159.452
0
LINE
8
BLACK
6
CONTINUOUS
10
213.78
20
-159.452
11
185.652
21
-141.194
0
LINE
8
BLACK
6
CONTINUOUS
10
185.652
20
-141.194
11
185.652
21
-141.194
0
LINE
8
BLACK
6
CONTINUOUS
10
185.652
20
-141.194
11
185.499
21
-141.091
0
LINE
8
BLACK
6
CONTINUOUS
10
185.499
20
-141.091
11
185.498
21
-141.091
0
LINE
8
BLACK
6
CONTINUOUS
10
185.498
20
-141.091
11
185.497
21
-141.089
0
LINE
8
BLACK
6
CONTINUOUS
10
185.497
20
-141.089
11
185.495
21
-141.088
0
LINE
8
BLACK
6
CONTINUOUS
10
185.495
20
-141.088
11
185.364
21
-140.956
0
LINE
8
BLACK
6
CONTINUOUS
10
185.364
20
-140.956
11
185.363
21
-140.956
0
LINE
8
BLACK
6
CONTINUOUS
10
185.363
20
-140.956
11
185.362
21
-140.954
0
LINE
8
BLACK
6
CONTINUOUS
10
185.362
20
-140.954
11
185.361
21
-140.952
0
LINE
8
BLACK
6
CONTINUOUS
10
185.361
20
-140.952
11
185.257
21
-140.797
0
LINE
8
BLACK
6
CONTINUOUS
10
185.257
20
-140.797
11
185.257
21
-140.797
0
LINE
8
BLACK
6
CONTINUOUS
10
185.257
20
-140.797
11
185.256
21
-140.795
0
LINE
8
BLACK
6
CONTINUOUS
10
185.256
20
-140.795
11
185.255
21
-140.793
0
LINE
8
BLACK
6
CONTINUOUS
10
185.255
20
-140.793
11
185.184
21
-140.621
0
LINE
8
BLACK
6
CONTINUOUS
10
185.184
20
-140.621
11
185.184
21
-140.621
0
LINE
8
BLACK
6
CONTINUOUS
10
185.184
20
-140.621
11
185.183
21
-140.619
0
LINE
8
BLACK
6
CONTINUOUS
10
185.183
20
-140.619
11
185.183
21
-140.617
0
LINE
8
BLACK
6
CONTINUOUS
10
185.183
20
-140.617
11
185.146
21
-140.434
0
LINE
8
BLACK
6
CONTINUOUS
10
185.146
20
-140.434
11
185.146
21
-140.434
0
LINE
8
BLACK
6
CONTINUOUS
10
185.146
20
-140.434
11
185.146
21
-140.432
0
LINE
8
BLACK
6
CONTINUOUS
10
185.146
20
-140.432
11
185.146
21
-140.431
0
LINE
8
BLACK
6
CONTINUOUS
10
185.146
20
-140.431
11
185.141
21
-140.337
0
LINE
8
BLACK
6
CONTINUOUS
10
185.141
20
-140.337
11
185.141
21
-140.336
0
LINE
8
BLACK
6
CONTINUOUS
10
185.141
20
-140.336
11
185.141
21
-138.119
0
LINE
8
BLACK
6
CONTINUOUS
10
185.141
20
-138.119
11
185.141
21
-138.118
0
LINE
8
BLACK
6
CONTINUOUS
10
185.141
20
-138.118
11
185.141
21
-138.113
0
LINE
8
BLACK
6
CONTINUOUS
10
185.141
20
-138.113
11
185.143
21
-138.108
0
LINE
8
BLACK
6
CONTINUOUS
10
185.143
20
-138.108
11
185.145
21
-138.104
0
LINE
8
BLACK
6
CONTINUOUS
10
185.145
20
-138.104
11
185.148
21
-138.1
0
LINE
8
BLACK
6
CONTINUOUS
10
185.148
20
-138.1
11
185.152
21
-138.097
0
LINE
8
BLACK
6
CONTINUOUS
10
185.152
20
-138.097
11
185.156
21
-138.095
0
LINE
8
BLACK
6
CONTINUOUS
10
185.156
20
-138.095
11
185.161
21
-138.093
0
LINE
8
BLACK
6
CONTINUOUS
10
185.161
20
-138.093
11
185.165
21
-138.093
0
LINE
8
BLACK
6
CONTINUOUS
10
185.165
20
-138.093
11
185.166
21
-138.093
0
LINE
8
BLACK
6
CONTINUOUS
10
185.166
20
-138.093
11
185.167
21
-138.093
0
LINE
8
BLACK
6
CONTINUOUS
10
185.167
20
-138.093
11
187.975
21
-138.093
0
LINE
8
BLACK
6
CONTINUOUS
10
187.975
20
-138.093
11
188.019
21
-138.093
0
LINE
8
BLACK
6
CONTINUOUS
10
188.019
20
-138.093
11
188.645
21
-138.022
0
LINE
8
BLACK
6
CONTINUOUS
10
188.645
20
-138.022
11
189.245
21
-137.832
0
LINE
8
BLACK
6
CONTINUOUS
10
189.245
20
-137.832
11
189.797
21
-137.529
0
LINE
8
BLACK
6
CONTINUOUS
10
189.797
20
-137.529
11
190.279
21
-137.124
0
LINE
8
BLACK
6
CONTINUOUS
10
190.279
20
-137.124
11
190.673
21
-136.634
0
LINE
8
BLACK
6
CONTINUOUS
10
190.673
20
-136.634
11
190.965
21
-136.076
0
LINE
8
BLACK
6
CONTINUOUS
10
190.965
20
-136.076
11
191.143
21
-135.472
0
LINE
8
BLACK
6
CONTINUOUS
10
191.143
20
-135.472
11
191.2
21
-134.845
0
LINE
8
BLACK
6
CONTINUOUS
10
191.2
20
-134.845
11
191.134
21
-134.22
0
LINE
8
BLACK
6
CONTINUOUS
10
191.134
20
-134.22
11
190.948
21
-133.618
0
LINE
8
BLACK
6
CONTINUOUS
10
190.948
20
-133.618
11
190.649
21
-133.065
0
LINE
8
BLACK
6
CONTINUOUS
10
190.649
20
-133.065
11
190.247
21
-132.58
0
LINE
8
BLACK
6
CONTINUOUS
10
190.247
20
-132.58
11
189.76
21
-132.182
0
LINE
8
BLACK
6
CONTINUOUS
10
189.76
20
-132.182
11
189.204
21
-131.886
0
LINE
8
BLACK
6
CONTINUOUS
10
189.204
20
-131.886
11
188.601
21
-131.705
0
LINE
8
BLACK
6
CONTINUOUS
10
188.601
20
-131.705
11
187.974
21
-131.643
0
LINE
8
BLACK
6
CONTINUOUS
10
187.974
20
-131.643
11
185.167
21
-131.643
0
LINE
8
BLACK
6
CONTINUOUS
10
185.167
20
-131.643
11
185.166
21
-131.643
0
LINE
8
BLACK
6
CONTINUOUS
10
185.166
20
-131.643
11
185.165
21
-131.643
0
LINE
8
BLACK
6
CONTINUOUS
10
185.165
20
-131.643
11
185.165
21
-131.643
0
LINE
8
BLACK
6
CONTINUOUS
10
185.165
20
-131.643
11
185.161
21
-131.643
0
LINE
8
BLACK
6
CONTINUOUS
10
185.161
20
-131.643
11
185.156
21
-131.641
0
LINE
8
BLACK
6
CONTINUOUS
10
185.156
20
-131.641
11
185.152
21
-131.639
0
LINE
8
BLACK
6
CONTINUOUS
10
185.152
20
-131.639
11
185.148
21
-131.636
0
LINE
8
BLACK
6
CONTINUOUS
10
185.148
20
-131.636
11
185.145
21
-131.632
0
LINE
8
BLACK
6
CONTINUOUS
10
185.145
20
-131.632
11
185.143
21
-131.628
0
LINE
8
BLACK
6
CONTINUOUS
10
185.143
20
-131.628
11
185.141
21
-131.623
0
LINE
8
BLACK
6
CONTINUOUS
10
185.141
20
-131.623
11
185.141
21
-131.618
0
LINE
8
BLACK
6
CONTINUOUS
10
185.141
20
-131.618
11
185.141
21
-131.617
0
LINE
8
BLACK
6
CONTINUOUS
10
185.141
20
-131.617
11
185.141
21
-64.0716
0
LINE
8
BLACK
6
CONTINUOUS
10
185.141
20
-64.0716
11
185.141
21
-64.0631
0
LINE
8
BLACK
6
CONTINUOUS
10
185.141
20
-64.0631
11
185.113
21
-63.7956
0
LINE
8
BLACK
6
CONTINUOUS
10
185.113
20
-63.7956
11
185.034
21
-63.5399
0
LINE
8
BLACK
6
CONTINUOUS
10
185.034
20
-63.5399
11
184.906
21
-63.3044
0
LINE
8
BLACK
6
CONTINUOUS
10
184.906
20
-63.3044
11
184.736
21
-63.0981
0
LINE
8
BLACK
6
CONTINUOUS
10
184.736
20
-63.0981
11
184.528
21
-62.9288
0
LINE
8
BLACK
6
CONTINUOUS
10
184.528
20
-62.9288
11
184.292
21
-62.8031
0
LINE
8
BLACK
6
CONTINUOUS
10
184.292
20
-62.8031
11
184.035
21
-62.7257
0
LINE
8
BLACK
6
CONTINUOUS
10
184.035
20
-62.7257
11
183.768
21
-62.6995
0
LINE
8
BLACK
6
CONTINUOUS
10
183.768
20
-62.6995
11
183.649
21
-62.6995
0
LINE
8
BLACK
6
CONTINUOUS
10
183.649
20
-62.6995
11
183.647
21
-62.6996
0
LINE
8
BLACK
6
CONTINUOUS
10
183.647
20
-62.6996
11
183.646
21
-62.6995
0
LINE
8
BLACK
6
CONTINUOUS
10
183.646
20
-62.6995
11
183.646
21
-62.6995
0
LINE
8
BLACK
6
CONTINUOUS
10
183.646
20
-62.6995
11
183.643
21
-62.6991
0
LINE
8
BLACK
6
CONTINUOUS
10
183.643
20
-62.6991
11
183.638
21
-62.6977
0
LINE
8
BLACK
6
CONTINUOUS
10
183.638
20
-62.6977
11
183.634
21
-62.6954
0
LINE
8
BLACK
6
CONTINUOUS
10
183.634
20
-62.6954
11
183.63
21
-62.6923
0
LINE
8
BLACK
6
CONTINUOUS
10
183.63
20
-62.6923
11
183.627
21
-62.6885
0
LINE
8
BLACK
6
CONTINUOUS
10
183.627
20
-62.6885
11
183.624
21
-62.6841
0
LINE
8
BLACK
6
CONTINUOUS
10
183.624
20
-62.6841
11
183.623
21
-62.6794
0
LINE
8
BLACK
6
CONTINUOUS
10
183.623
20
-62.6794
11
183.622
21
-62.6745
0
LINE
8
BLACK
6
CONTINUOUS
10
183.622
20
-62.6745
11
183.623
21
-62.6733
0
LINE
8
BLACK
6
CONTINUOUS
10
183.623
20
-62.6733
11
183.623
21
-60.31
0
LINE
8
BLACK
6
CONTINUOUS
10
183.623
20
-60.31
11
183.622
21
-60.2661
0
LINE
8
BLACK
6
CONTINUOUS
10
183.622
20
-60.2661
11
183.552
21
-59.6395
0
LINE
8
BLACK
6
CONTINUOUS
10
183.552
20
-59.6395
11
183.362
21
-59.0396
0
LINE
8
BLACK
6
CONTINUOUS
10
183.362
20
-59.0396
11
183.058
21
-58.488
0
LINE
8
BLACK
6
CONTINUOUS
10
183.058
20
-58.488
11
182.654
21
-58.0059
0
LINE
8
BLACK
6
CONTINUOUS
10
182.654
20
-58.0059
11
182.163
21
-57.6115
0
LINE
8
BLACK
6
CONTINUOUS
10
182.163
20
-57.6115
11
181.606
21
-57.3199
0
LINE
8
BLACK
6
CONTINUOUS
10
181.606
20
-57.3199
11
181.002
21
-57.1422
0
LINE
8
BLACK
6
CONTINUOUS
10
181.002
20
-57.1422
11
180.375
21
-57.0852
0
LINE
8
BLACK
6
CONTINUOUS
10
180.375
20
-57.0852
11
179.749
21
-57.151
0
LINE
8
BLACK
6
CONTINUOUS
10
179.749
20
-57.151
11
179.148
21
-57.3371
0
LINE
8
BLACK
6
CONTINUOUS
10
179.148
20
-57.3371
11
178.594
21
-57.6365
0
LINE
8
BLACK
6
CONTINUOUS
10
178.594
20
-57.6365
11
178.109
21
-58.0376
0
LINE
8
BLACK
6
CONTINUOUS
10
178.109
20
-58.0376
11
177.711
21
-58.5254
0
LINE
8
BLACK
6
CONTINUOUS
10
177.711
20
-58.5254
11
177.416
21
-59.0811
0
LINE
8
BLACK
6
CONTINUOUS
10
177.416
20
-59.0811
11
177.234
21
-59.6836
0
LINE
8
BLACK
6
CONTINUOUS
10
177.234
20
-59.6836
11
177.172
21
-60.3112
0
LINE
8
BLACK
6
CONTINUOUS
10
177.172
20
-60.3112
11
177.172
21
-62.6733
0
LINE
8
BLACK
6
CONTINUOUS
10
177.172
20
-62.6733
11
177.173
21
-62.6745
0
LINE
8
BLACK
6
CONTINUOUS
10
177.173
20
-62.6745
11
177.172
21
-62.6794
0
LINE
8
BLACK
6
CONTINUOUS
10
177.172
20
-62.6794
11
177.171
21
-62.6841
0
LINE
8
BLACK
6
CONTINUOUS
10
177.171
20
-62.6841
11
177.168
21
-62.6885
0
LINE
8
BLACK
6
CONTINUOUS
10
177.168
20
-62.6885
11
177.165
21
-62.6923
0
LINE
8
BLACK
6
CONTINUOUS
10
177.165
20
-62.6923
11
177.161
21
-62.6954
0
LINE
8
BLACK
6
CONTINUOUS
10
177.161
20
-62.6954
11
177.157
21
-62.6977
0
LINE
8
BLACK
6
CONTINUOUS
10
177.157
20
-62.6977
11
177.152
21
-62.6991
0
LINE
8
BLACK
6
CONTINUOUS
10
177.152
20
-62.6991
11
177.15
21
-62.6993
0
LINE
8
BLACK
6
CONTINUOUS
10
177.15
20
-62.6993
11
177.147
21
-62.6996
0
LINE
8
BLACK
6
CONTINUOUS
10
177.147
20
-62.6996
11
177.146
21
-62.6995
0
LINE
8
BLACK
6
CONTINUOUS
10
177.146
20
-62.6995
11
167.512
21
-62.6995
0
LINE
8
BLACK
6
CONTINUOUS
10
167.512
20
-62.6995
11
167.511
21
-62.6994
0
LINE
8
BLACK
6
CONTINUOUS
10
167.511
20
-62.6994
11
167.511
21
-62.6994
0
LINE
8
BLACK
6
CONTINUOUS
10
167.511
20
-62.6994
11
167.239
21
-62.6728
0
LINE
8
BLACK
6
CONTINUOUS
10
167.239
20
-62.6728
11
167.239
21
-62.6727
0
LINE
8
BLACK
6
CONTINUOUS
10
167.239
20
-62.6727
11
167.237
21
-62.6723
0
LINE
8
BLACK
6
CONTINUOUS
10
167.237
20
-62.6723
11
167.234
21
-62.6718
0
LINE
8
BLACK
6
CONTINUOUS
10
167.234
20
-62.6718
11
166.973
21
-62.593
0
LINE
8
BLACK
6
CONTINUOUS
10
166.973
20
-62.593
11
166.973
21
-62.5929
0
LINE
8
BLACK
6
CONTINUOUS
10
166.973
20
-62.5929
11
166.971
21
-62.592
0
LINE
8
BLACK
6
CONTINUOUS
10
166.971
20
-62.592
11
166.969
21
-62.5912
0
LINE
8
BLACK
6
CONTINUOUS
10
166.969
20
-62.5912
11
166.728
21
-62.4632
0
LINE
8
BLACK
6
CONTINUOUS
10
166.728
20
-62.4632
11
166.728
21
-62.463
0
LINE
8
BLACK
6
CONTINUOUS
10
166.728
20
-62.463
11
166.726
21
-62.4617
0
LINE
8
BLACK
6
CONTINUOUS
10
166.726
20
-62.4617
11
166.724
21
-62.4605
0
LINE
8
BLACK
6
CONTINUOUS
10
166.724
20
-62.4605
11
166.513
21
-62.2881
0
LINE
8
BLACK
6
CONTINUOUS
10
166.513
20
-62.2881
11
166.513
21
-62.2879
0
LINE
8
BLACK
6
CONTINUOUS
10
166.513
20
-62.2879
11
166.511
21
-62.2863
0
LINE
8
BLACK
6
CONTINUOUS
10
166.511
20
-62.2863
11
166.509
21
-62.2847
0
LINE
8
BLACK
6
CONTINUOUS
10
166.509
20
-62.2847
11
166.336
21
-62.0746
0
LINE
8
BLACK
6
CONTINUOUS
10
166.336
20
-62.0746
11
166.335
21
-62.0744
0
LINE
8
BLACK
6
CONTINUOUS
10
166.335
20
-62.0744
11
166.334
21
-62.0725
0
LINE
8
BLACK
6
CONTINUOUS
10
166.334
20
-62.0725
11
166.333
21
-62.0706
0
LINE
8
BLACK
6
CONTINUOUS
10
166.333
20
-62.0706
11
166.203
21
-61.8307
0
LINE
8
BLACK
6
CONTINUOUS
10
166.203
20
-61.8307
11
166.203
21
-61.8304
0
LINE
8
BLACK
6
CONTINUOUS
10
166.203
20
-61.8304
11
166.202
21
-61.8283
0
LINE
8
BLACK
6
CONTINUOUS
10
166.202
20
-61.8283
11
166.201
21
-61.8263
0
LINE
8
BLACK
6
CONTINUOUS
10
166.201
20
-61.8263
11
166.121
21
-61.5658
0
LINE
8
BLACK
6
CONTINUOUS
10
166.121
20
-61.5658
11
166.121
21
-61.5655
0
LINE
8
BLACK
6
CONTINUOUS
10
166.121
20
-61.5655
11
166.12
21
-61.5632
0
LINE
8
BLACK
6
CONTINUOUS
10
166.12
20
-61.5632
11
166.12
21
-61.561
0
LINE
8
BLACK
6
CONTINUOUS
10
166.12
20
-61.561
11
166.091
21
-61.2899
0
LINE
8
BLACK
6
CONTINUOUS
10
166.091
20
-61.2899
11
166.091
21
-61.2895
0
LINE
8
BLACK
6
CONTINUOUS
10
166.091
20
-61.2895
11
166.091
21
-61.2884
0
LINE
8
BLACK
6
CONTINUOUS
10
166.091
20
-61.2884
11
166.091
21
-61.2873
0
LINE
8
BLACK
6
CONTINUOUS
10
166.091
20
-61.2873
11
166.091
21
-61.2787
0
LINE
8
BLACK
6
CONTINUOUS
10
166.091
20
-61.2787
11
166.091
21
-61.2787
0
LINE
8
BLACK
6
CONTINUOUS
10
166.091
20
-61.2787
11
166.091
21
-61.2779
0
LINE
8
BLACK
6
CONTINUOUS
10
166.091
20
-61.2779
11
166.091
21
-61.2776
0
LINE
8
BLACK
6
CONTINUOUS
10
166.091
20
-61.2776
11
166.091
21
-61.2772
0
LINE
8
BLACK
6
CONTINUOUS
10
166.091
20
-61.2772
11
166.091
21
-60.7696
0
LINE
8
BLACK
6
CONTINUOUS
10
166.091
20
-60.7696
11
166.091
21
-60.7669
0
LINE
8
BLACK
6
CONTINUOUS
10
166.091
20
-60.7669
11
166.08
21
-60.6596
0
LINE
8
BLACK
6
CONTINUOUS
10
166.08
20
-60.6596
11
166.048
21
-60.5578
0
LINE
8
BLACK
6
CONTINUOUS
10
166.048
20
-60.5578
11
165.997
21
-60.464
0
LINE
8
BLACK
6
CONTINUOUS
10
165.997
20
-60.464
11
165.929
21
-60.3818
0
LINE
8
BLACK
6
CONTINUOUS
10
165.929
20
-60.3818
11
165.847
21
-60.3144
0
LINE
8
BLACK
6
CONTINUOUS
10
165.847
20
-60.3144
11
165.753
21
-60.2643
0
LINE
8
BLACK
6
CONTINUOUS
10
165.753
20
-60.2643
11
165.651
21
-60.2335
0
LINE
8
BLACK
6
CONTINUOUS
10
165.651
20
-60.2335
11
165.543
21
-60.223
0
LINE
8
BLACK
6
CONTINUOUS
10
165.543
20
-60.223
11
148.462
21
-60.223
0
LINE
8
BLACK
6
CONTINUOUS
10
148.462
20
-60.223
11
148.461
21
-60.2229
0
LINE
8
BLACK
6
CONTINUOUS
10
175.369
20
-177.312
11
175.485
21
-177.032
0
LINE
8
BLACK
6
CONTINUOUS
10
175.485
20
-177.032
11
175.653
21
-176.78
0
LINE
8
BLACK
6
CONTINUOUS
10
175.653
20
-176.78
11
175.867
21
-176.566
0
LINE
8
BLACK
6
CONTINUOUS
10
175.867
20
-176.566
11
176.119
21
-176.398
0
LINE
8
BLACK
6
CONTINUOUS
10
176.119
20
-176.398
11
176.399
21
-176.282
0
LINE
8
BLACK
6
CONTINUOUS
10
176.399
20
-176.282
11
176.696
21
-176.223
0
LINE
8
BLACK
6
CONTINUOUS
10
176.696
20
-176.223
11
176.999
21
-176.223
0
LINE
8
BLACK
6
CONTINUOUS
10
176.999
20
-176.223
11
177.296
21
-176.282
0
LINE
8
BLACK
6
CONTINUOUS
10
177.296
20
-176.282
11
177.576
21
-176.398
0
LINE
8
BLACK
6
CONTINUOUS
10
177.576
20
-176.398
11
177.828
21
-176.566
0
LINE
8
BLACK
6
CONTINUOUS
10
177.828
20
-176.566
11
178.042
21
-176.78
0
LINE
8
BLACK
6
CONTINUOUS
10
178.042
20
-176.78
11
178.21
21
-177.032
0
LINE
8
BLACK
6
CONTINUOUS
10
178.21
20
-177.032
11
178.326
21
-177.312
0
LINE
8
BLACK
6
CONTINUOUS
10
178.326
20
-177.312
11
178.385
21
-177.609
0
LINE
8
BLACK
6
CONTINUOUS
10
178.385
20
-177.609
11
178.385
21
-177.912
0
LINE
8
BLACK
6
CONTINUOUS
10
178.385
20
-177.912
11
178.326
21
-178.209
0
LINE
8
BLACK
6
CONTINUOUS
10
178.326
20
-178.209
11
178.21
21
-178.489
0
LINE
8
BLACK
6
CONTINUOUS
10
178.21
20
-178.489
11
178.042
21
-178.741
0
LINE
8
BLACK
6
CONTINUOUS
10
178.042
20
-178.741
11
177.828
21
-178.955
0
LINE
8
BLACK
6
CONTINUOUS
10
177.828
20
-178.955
11
177.576
21
-179.123
0
LINE
8
BLACK
6
CONTINUOUS
10
177.576
20
-179.123
11
177.296
21
-179.239
0
LINE
8
BLACK
6
CONTINUOUS
10
177.296
20
-179.239
11
176.999
21
-179.298
0
LINE
8
BLACK
6
CONTINUOUS
10
176.999
20
-179.298
11
176.696
21
-179.298
0
LINE
8
BLACK
6
CONTINUOUS
10
176.696
20
-179.298
11
176.399
21
-179.239
0
LINE
8
BLACK
6
CONTINUOUS
10
176.399
20
-179.239
11
176.119
21
-179.123
0
LINE
8
BLACK
6
CONTINUOUS
10
176.119
20
-179.123
11
175.867
21
-178.955
0
LINE
8
BLACK
6
CONTINUOUS
10
175.867
20
-178.955
11
175.653
21
-178.741
0
LINE
8
BLACK
6
CONTINUOUS
10
175.653
20
-178.741
11
175.485
21
-178.489
0
LINE
8
BLACK
6
CONTINUOUS
10
175.485
20
-178.489
11
175.369
21
-178.209
0
LINE
8
BLACK
6
CONTINUOUS
10
175.369
20
-178.209
11
175.31
21
-177.912
0
LINE
8
BLACK
6
CONTINUOUS
10
175.31
20
-177.912
11
175.31
21
-177.609
0
LINE
8
BLACK
6
CONTINUOUS
10
175.31
20
-177.609
11
175.369
21
-177.312
0
LINE
8
BLACK
6
CONTINUOUS
10
175.436
20
-178.189
11
175.547
21
-178.456
0
LINE
8
BLACK
6
CONTINUOUS
10
175.547
20
-178.456
11
175.707
21
-178.696
0
LINE
8
BLACK
6
CONTINUOUS
10
175.707
20
-178.696
11
175.912
21
-178.901
0
LINE
8
BLACK
6
CONTINUOUS
10
175.912
20
-178.901
11
176.152
21
-179.061
0
LINE
8
BLACK
6
CONTINUOUS
10
176.152
20
-179.061
11
176.419
21
-179.172
0
LINE
8
BLACK
6
CONTINUOUS
10
176.419
20
-179.172
11
176.703
21
-179.228
0
LINE
8
BLACK
6
CONTINUOUS
10
176.703
20
-179.228
11
176.992
21
-179.228
0
LINE
8
BLACK
6
CONTINUOUS
10
176.992
20
-179.228
11
177.276
21
-179.172
0
LINE
8
BLACK
6
CONTINUOUS
10
177.276
20
-179.172
11
177.543
21
-179.061
0
LINE
8
BLACK
6
CONTINUOUS
10
177.543
20
-179.061
11
177.783
21
-178.901
0
LINE
8
BLACK
6
CONTINUOUS
10
177.783
20
-178.901
11
177.988
21
-178.696
0
LINE
8
BLACK
6
CONTINUOUS
10
177.988
20
-178.696
11
178.148
21
-178.456
0
LINE
8
BLACK
6
CONTINUOUS
10
178.148
20
-178.456
11
178.259
21
-178.189
0
LINE
8
BLACK
6
CONTINUOUS
10
178.259
20
-178.189
11
178.315
21
-177.905
0
LINE
8
BLACK
6
CONTINUOUS
10
178.315
20
-177.905
11
178.315
21
-177.616
0
LINE
8
BLACK
6
CONTINUOUS
10
178.315
20
-177.616
11
178.259
21
-177.332
0
LINE
8
BLACK
6
CONTINUOUS
10
178.259
20
-177.332
11
178.148
21
-177.065
0
LINE
8
BLACK
6
CONTINUOUS
10
178.148
20
-177.065
11
177.988
21
-176.825
0
LINE
8
BLACK
6
CONTINUOUS
10
177.988
20
-176.825
11
177.783
21
-176.62
0
LINE
8
BLACK
6
CONTINUOUS
10
177.783
20
-176.62
11
177.543
21
-176.46
0
LINE
8
BLACK
6
CONTINUOUS
10
177.543
20
-176.46
11
177.276
21
-176.349
0
LINE
8
BLACK
6
CONTINUOUS
10
177.276
20
-176.349
11
176.992
21
-176.293
0
LINE
8
BLACK
6
CONTINUOUS
10
176.992
20
-176.293
11
176.703
21
-176.293
0
LINE
8
BLACK
6
CONTINUOUS
10
176.703
20
-176.293
11
176.419
21
-176.349
0
LINE
8
BLACK
6
CONTINUOUS
10
176.419
20
-176.349
11
176.152
21
-176.46
0
LINE
8
BLACK
6
CONTINUOUS
10
176.152
20
-176.46
11
175.912
21
-176.62
0
LINE
8
BLACK
6
CONTINUOUS
10
175.912
20
-176.62
11
175.707
21
-176.825
0
LINE
8
BLACK
6
CONTINUOUS
10
175.707
20
-176.825
11
175.547
21
-177.065
0
LINE
8
BLACK
6
CONTINUOUS
10
175.547
20
-177.065
11
175.436
21
-177.332
0
LINE
8
BLACK
6
CONTINUOUS
10
175.436
20
-177.332
11
175.38
21
-177.616
0
LINE
8
BLACK
6
CONTINUOUS
10
175.38
20
-177.616
11
175.38
21
-177.905
0
LINE
8
BLACK
6
CONTINUOUS
10
175.38
20
-177.905
11
175.436
21
-178.189
0
LINE
8
BLACK
6
CONTINUOUS
10
115.105
20
-159.702
11
115.221
21
-159.422
0
LINE
8
BLACK
6
CONTINUOUS
10
115.221
20
-159.422
11
115.389
21
-159.17
0
LINE
8
BLACK
6
CONTINUOUS
10
115.389
20
-159.17
11
115.603
21
-158.956
0
LINE
8
BLACK
6
CONTINUOUS
10
115.603
20
-158.956
11
115.855
21
-158.787
0
LINE
8
BLACK
6
CONTINUOUS
10
115.855
20
-158.787
11
116.135
21
-158.672
0
LINE
8
BLACK
6
CONTINUOUS
10
116.135
20
-158.672
11
116.432
21
-158.612
0
LINE
8
BLACK
6
CONTINUOUS
10
116.432
20
-158.612
11
116.735
21
-158.612
0
LINE
8
BLACK
6
CONTINUOUS
10
116.735
20
-158.612
11
117.032
21
-158.672
0
LINE
8
BLACK
6
CONTINUOUS
10
117.032
20
-158.672
11
117.312
21
-158.787
0
LINE
8
BLACK
6
CONTINUOUS
10
117.312
20
-158.787
11
117.564
21
-158.956
0
LINE
8
BLACK
6
CONTINUOUS
10
117.564
20
-158.956
11
117.778
21
-159.17
0
LINE
8
BLACK
6
CONTINUOUS
10
117.778
20
-159.17
11
117.946
21
-159.422
0
LINE
8
BLACK
6
CONTINUOUS
10
117.946
20
-159.422
11
118.062
21
-159.702
0
LINE
8
BLACK
6
CONTINUOUS
10
118.062
20
-159.702
11
118.121
21
-159.999
0
LINE
8
BLACK
6
CONTINUOUS
10
118.121
20
-159.999
11
118.121
21
-160.301
0
LINE
8
BLACK
6
CONTINUOUS
10
118.121
20
-160.301
11
118.062
21
-160.598
0
LINE
8
BLACK
6
CONTINUOUS
10
118.062
20
-160.598
11
117.946
21
-160.878
0
LINE
8
BLACK
6
CONTINUOUS
10
117.946
20
-160.878
11
117.778
21
-161.13
0
LINE
8
BLACK
6
CONTINUOUS
10
117.778
20
-161.13
11
117.564
21
-161.344
0
LINE
8
BLACK
6
CONTINUOUS
10
117.564
20
-161.344
11
117.312
21
-161.513
0
LINE
8
BLACK
6
CONTINUOUS
10
117.312
20
-161.513
11
117.032
21
-161.628
0
LINE
8
BLACK
6
CONTINUOUS
10
117.032
20
-161.628
11
116.735
21
-161.688
0
LINE
8
BLACK
6
CONTINUOUS
10
116.735
20
-161.688
11
116.432
21
-161.688
0
LINE
8
BLACK
6
CONTINUOUS
10
116.432
20
-161.688
11
116.135
21
-161.628
0
LINE
8
BLACK
6
CONTINUOUS
10
116.135
20
-161.628
11
115.855
21
-161.513
0
LINE
8
BLACK
6
CONTINUOUS
10
115.855
20
-161.513
11
115.603
21
-161.344
0
LINE
8
BLACK
6
CONTINUOUS
10
115.603
20
-161.344
11
115.389
21
-161.13
0
LINE
8
BLACK
6
CONTINUOUS
10
115.389
20
-161.13
11
115.221
21
-160.878
0
LINE
8
BLACK
6
CONTINUOUS
10
115.221
20
-160.878
11
115.105
21
-160.598
0
LINE
8
BLACK
6
CONTINUOUS
10
115.105
20
-160.598
11
115.046
21
-160.301
0
LINE
8
BLACK
6
CONTINUOUS
10
115.046
20
-160.301
11
115.046
21
-159.999
0
LINE
8
BLACK
6
CONTINUOUS
10
115.046
20
-159.999
11
115.105
21
-159.702
0
LINE
8
BLACK
6
CONTINUOUS
10
115.172
20
-160.578
11
115.283
21
-160.845
0
LINE
8
BLACK
6
CONTINUOUS
10
115.283
20
-160.845
11
115.443
21
-161.086
0
LINE
8
BLACK
6
CONTINUOUS
10
115.443
20
-161.086
11
115.648
21
-161.29
0
LINE
8
BLACK
6
CONTINUOUS
10
115.648
20
-161.29
11
115.888
21
-161.451
0
LINE
8
BLACK
6
CONTINUOUS
10
115.888
20
-161.451
11
116.155
21
-161.561
0
LINE
8
BLACK
6
CONTINUOUS
10
116.155
20
-161.561
11
116.439
21
-161.618
0
LINE
8
BLACK
6
CONTINUOUS
10
116.439
20
-161.618
11
116.728
21
-161.618
0
LINE
8
BLACK
6
CONTINUOUS
10
116.728
20
-161.618
11
117.012
21
-161.561
0
LINE
8
BLACK
6
CONTINUOUS
10
117.012
20
-161.561
11
117.279
21
-161.451
0
LINE
8
BLACK
6
CONTINUOUS
10
117.279
20
-161.451
11
117.519
21
-161.29
0
LINE
8
BLACK
6
CONTINUOUS
10
117.519
20
-161.29
11
117.724
21
-161.086
0
LINE
8
BLACK
6
CONTINUOUS
10
117.724
20
-161.086
11
117.884
21
-160.845
0
LINE
8
BLACK
6
CONTINUOUS
10
117.884
20
-160.845
11
117.995
21
-160.578
0
LINE
8
BLACK
6
CONTINUOUS
10
117.995
20
-160.578
11
118.051
21
-160.295
0
LINE
8
BLACK
6
CONTINUOUS
10
118.051
20
-160.295
11
118.051
21
-160.005
0
LINE
8
BLACK
6
CONTINUOUS
10
118.051
20
-160.005
11
117.995
21
-159.722
0
LINE
8
BLACK
6
CONTINUOUS
10
117.995
20
-159.722
11
117.884
21
-159.455
0
LINE
8
BLACK
6
CONTINUOUS
10
117.884
20
-159.455
11
117.724
21
-159.214
0
LINE
8
BLACK
6
CONTINUOUS
10
117.724
20
-159.214
11
117.519
21
-159.01
0
LINE
8
BLACK
6
CONTINUOUS
10
117.519
20
-159.01
11
117.279
21
-158.849
0
LINE
8
BLACK
6
CONTINUOUS
10
117.279
20
-158.849
11
117.012
21
-158.739
0
LINE
8
BLACK
6
CONTINUOUS
10
117.012
20
-158.739
11
116.728
21
-158.682
0
LINE
8
BLACK
6
CONTINUOUS
10
116.728
20
-158.682
11
116.439
21
-158.682
0
LINE
8
BLACK
6
CONTINUOUS
10
116.439
20
-158.682
11
116.155
21
-158.739
0
LINE
8
BLACK
6
CONTINUOUS
10
116.155
20
-158.739
11
115.888
21
-158.849
0
LINE
8
BLACK
6
CONTINUOUS
10
115.888
20
-158.849
11
115.648
21
-159.01
0
LINE
8
BLACK
6
CONTINUOUS
10
115.648
20
-159.01
11
115.443
21
-159.214
0
LINE
8
BLACK
6
CONTINUOUS
10
115.443
20
-159.214
11
115.283
21
-159.455
0
LINE
8
BLACK
6
CONTINUOUS
10
115.283
20
-159.455
11
115.172
21
-159.722
0
LINE
8
BLACK
6
CONTINUOUS
10
115.172
20
-159.722
11
115.116
21
-160.005
0
LINE
8
BLACK
6
CONTINUOUS
10
115.116
20
-160.005
11
115.116
21
-160.295
0
LINE
8
BLACK
6
CONTINUOUS
10
115.116
20
-160.295
11
115.172
21
-160.578
0
LINE
8
BLACK
6
CONTINUOUS
10
55.5295
20
-142.052
11
55.6454
21
-141.772
0
LINE
8
BLACK
6
CONTINUOUS
10
55.6454
20
-141.772
11
55.8137
21
-141.52
0
LINE
8
BLACK
6
CONTINUOUS
10
55.8137
20
-141.52
11
56.0279
21
-141.306
0
LINE
8
BLACK
6
CONTINUOUS
10
56.0279
20
-141.306
11
56.2797
21
-141.137
0
LINE
8
BLACK
6
CONTINUOUS
10
56.2797
20
-141.137
11
56.5595
21
-141.022
0
LINE
8
BLACK
6
CONTINUOUS
10
56.5595
20
-141.022
11
56.8566
21
-140.962
0
LINE
8
BLACK
6
CONTINUOUS
10
56.8566
20
-140.962
11
57.1594
21
-140.962
0
LINE
8
BLACK
6
CONTINUOUS
10
57.1594
20
-140.962
11
57.4565
21
-141.022
0
LINE
8
BLACK
6
CONTINUOUS
10
57.4565
20
-141.022
11
57.7363
21
-141.137
0
LINE
8
BLACK
6
CONTINUOUS
10
57.7363
20
-141.137
11
57.9881
21
-141.306
0
LINE
8
BLACK
6
CONTINUOUS
10
57.9881
20
-141.306
11
58.2023
21
-141.52
0
LINE
8
BLACK
6
CONTINUOUS
10
58.2023
20
-141.52
11
58.3706
21
-141.772
0
LINE
8
BLACK
6
CONTINUOUS
10
58.3706
20
-141.772
11
58.4865
21
-142.052
0
LINE
8
BLACK
6
CONTINUOUS
10
58.4865
20
-142.052
11
58.5456
21
-142.349
0
LINE
8
BLACK
6
CONTINUOUS
10
58.5456
20
-142.349
11
58.5456
21
-142.651
0
LINE
8
BLACK
6
CONTINUOUS
10
58.5456
20
-142.651
11
58.4865
21
-142.948
0
LINE
8
BLACK
6
CONTINUOUS
10
58.4865
20
-142.948
11
58.3706
21
-143.228
0
LINE
8
BLACK
6
CONTINUOUS
10
58.3706
20
-143.228
11
58.2023
21
-143.48
0
LINE
8
BLACK
6
CONTINUOUS
10
58.2023
20
-143.48
11
57.9881
21
-143.694
0
LINE
8
BLACK
6
CONTINUOUS
10
57.9881
20
-143.694
11
57.7363
21
-143.863
0
LINE
8
BLACK
6
CONTINUOUS
10
57.7363
20
-143.863
11
57.4565
21
-143.978
0
LINE
8
BLACK
6
CONTINUOUS
10
57.4565
20
-143.978
11
57.1594
21
-144.038
0
LINE
8
BLACK
6
CONTINUOUS
10
57.1594
20
-144.038
11
56.8566
21
-144.038
0
LINE
8
BLACK
6
CONTINUOUS
10
56.8566
20
-144.038
11
56.5595
21
-143.978
0
LINE
8
BLACK
6
CONTINUOUS
10
56.5595
20
-143.978
11
56.2797
21
-143.863
0
LINE
8
BLACK
6
CONTINUOUS
10
56.2797
20
-143.863
11
56.0279
21
-143.694
0
LINE
8
BLACK
6
CONTINUOUS
10
56.0279
20
-143.694
11
55.8137
21
-143.48
0
LINE
8
BLACK
6
CONTINUOUS
10
55.8137
20
-143.48
11
55.6454
21
-143.228
0
LINE
8
BLACK
6
CONTINUOUS
10
55.6454
20
-143.228
11
55.5295
21
-142.948
0
LINE
8
BLACK
6
CONTINUOUS
10
55.5295
20
-142.948
11
55.4704
21
-142.651
0
LINE
8
BLACK
6
CONTINUOUS
10
55.4704
20
-142.651
11
55.4704
21
-142.349
0
LINE
8
BLACK
6
CONTINUOUS
10
55.4704
20
-142.349
11
55.5295
21
-142.052
0
LINE
8
BLACK
6
CONTINUOUS
10
55.5965
20
-142.928
11
55.7072
21
-143.195
0
LINE
8
BLACK
6
CONTINUOUS
10
55.7072
20
-143.195
11
55.8678
21
-143.436
0
LINE
8
BLACK
6
CONTINUOUS
10
55.8678
20
-143.436
11
56.0723
21
-143.64
0
LINE
8
BLACK
6
CONTINUOUS
10
56.0723
20
-143.64
11
56.3127
21
-143.801
0
LINE
8
BLACK
6
CONTINUOUS
10
56.3127
20
-143.801
11
56.5798
21
-143.911
0
LINE
8
BLACK
6
CONTINUOUS
10
56.5798
20
-143.911
11
56.8634
21
-143.968
0
LINE
8
BLACK
6
CONTINUOUS
10
56.8634
20
-143.968
11
57.1526
21
-143.968
0
LINE
8
BLACK
6
CONTINUOUS
10
57.1526
20
-143.968
11
57.4362
21
-143.911
0
LINE
8
BLACK
6
CONTINUOUS
10
57.4362
20
-143.911
11
57.7033
21
-143.801
0
LINE
8
BLACK
6
CONTINUOUS
10
57.7033
20
-143.801
11
57.9437
21
-143.64
0
LINE
8
BLACK
6
CONTINUOUS
10
57.9437
20
-143.64
11
58.1482
21
-143.436
0
LINE
8
BLACK
6
CONTINUOUS
10
58.1482
20
-143.436
11
58.3088
21
-143.195
0
LINE
8
BLACK
6
CONTINUOUS
10
58.3088
20
-143.195
11
58.4195
21
-142.928
0
LINE
8
BLACK
6
CONTINUOUS
10
58.4195
20
-142.928
11
58.4759
21
-142.645
0
LINE
8
BLACK
6
CONTINUOUS
10
58.4759
20
-142.645
11
58.4759
21
-142.355
0
LINE
8
BLACK
6
CONTINUOUS
10
58.4759
20
-142.355
11
58.4195
21
-142.072
0
LINE
8
BLACK
6
CONTINUOUS
10
58.4195
20
-142.072
11
58.3088
21
-141.805
0
LINE
8
BLACK
6
CONTINUOUS
10
58.3088
20
-141.805
11
58.1482
21
-141.564
0
LINE
8
BLACK
6
CONTINUOUS
10
58.1482
20
-141.564
11
57.9437
21
-141.36
0
LINE
8
BLACK
6
CONTINUOUS
10
57.9437
20
-141.36
11
57.7033
21
-141.199
0
LINE
8
BLACK
6
CONTINUOUS
10
57.7033
20
-141.199
11
57.4362
21
-141.089
0
LINE
8
BLACK
6
CONTINUOUS
10
57.4362
20
-141.089
11
57.1526
21
-141.032
0
LINE
8
BLACK
6
CONTINUOUS
10
57.1526
20
-141.032
11
56.8634
21
-141.032
0
LINE
8
BLACK
6
CONTINUOUS
10
56.8634
20
-141.032
11
56.5798
21
-141.089
0
LINE
8
BLACK
6
CONTINUOUS
10
56.5798
20
-141.089
11
56.3127
21
-141.199
0
LINE
8
BLACK
6
CONTINUOUS
10
56.3127
20
-141.199
11
56.0723
21
-141.36
0
LINE
8
BLACK
6
CONTINUOUS
10
56.0723
20
-141.36
11
55.8678
21
-141.564
0
LINE
8
BLACK
6
CONTINUOUS
10
55.8678
20
-141.564
11
55.7072
21
-141.805
0
LINE
8
BLACK
6
CONTINUOUS
10
55.7072
20
-141.805
11
55.5965
21
-142.072
0
LINE
8
BLACK
6
CONTINUOUS
10
55.5965
20
-142.072
11
55.5401
21
-142.355
0
LINE
8
BLACK
6
CONTINUOUS
10
55.5401
20
-142.355
11
55.5401
21
-142.645
0
LINE
8
BLACK
6
CONTINUOUS
10
55.5401
20
-142.645
11
55.5965
21
-142.928
0
LINE
8
BLACK
6
CONTINUOUS
10
186.497
20
-134.42
11
186.612
21
-134.14
0
LINE
8
BLACK
6
CONTINUOUS
10
186.612
20
-134.14
11
186.781
21
-133.888
0
LINE
8
BLACK
6
CONTINUOUS
10
186.781
20
-133.888
11
186.995
21
-133.674
0
LINE
8
BLACK
6
CONTINUOUS
10
186.995
20
-133.674
11
187.247
21
-133.505
0
LINE
8
BLACK
6
CONTINUOUS
10
187.247
20
-133.505
11
187.527
21
-133.39
0
LINE
8
BLACK
6
CONTINUOUS
10
187.527
20
-133.39
11
187.824
21
-133.33
0
LINE
8
BLACK
6
CONTINUOUS
10
187.824
20
-133.33
11
188.126
21
-133.33
0
LINE
8
BLACK
6
CONTINUOUS
10
188.126
20
-133.33
11
188.423
21
-133.39
0
LINE
8
BLACK
6
CONTINUOUS
10
188.423
20
-133.39
11
188.703
21
-133.505
0
LINE
8
BLACK
6
CONTINUOUS
10
188.703
20
-133.505
11
188.955
21
-133.674
0
LINE
8
BLACK
6
CONTINUOUS
10
188.955
20
-133.674
11
189.169
21
-133.888
0
LINE
8
BLACK
6
CONTINUOUS
10
189.169
20
-133.888
11
189.338
21
-134.14
0
LINE
8
BLACK
6
CONTINUOUS
10
189.338
20
-134.14
11
189.453
21
-134.42
0
LINE
8
BLACK
6
CONTINUOUS
10
189.453
20
-134.42
11
189.513
21
-134.717
0
LINE
8
BLACK
6
CONTINUOUS
10
189.513
20
-134.717
11
189.513
21
-135.019
0
LINE
8
BLACK
6
CONTINUOUS
10
189.513
20
-135.019
11
189.453
21
-135.316
0
LINE
8
BLACK
6
CONTINUOUS
10
189.453
20
-135.316
11
189.338
21
-135.596
0
LINE
8
BLACK
6
CONTINUOUS
10
189.338
20
-135.596
11
189.169
21
-135.848
0
LINE
8
BLACK
6
CONTINUOUS
10
189.169
20
-135.848
11
188.955
21
-136.062
0
LINE
8
BLACK
6
CONTINUOUS
10
188.955
20
-136.062
11
188.703
21
-136.231
0
LINE
8
BLACK
6
CONTINUOUS
10
188.703
20
-136.231
11
188.423
21
-136.346
0
LINE
8
BLACK
6
CONTINUOUS
10
188.423
20
-136.346
11
188.126
21
-136.406
0
LINE
8
BLACK
6
CONTINUOUS
10
188.126
20
-136.406
11
187.824
21
-136.406
0
LINE
8
BLACK
6
CONTINUOUS
10
187.824
20
-136.406
11
187.527
21
-136.346
0
LINE
8
BLACK
6
CONTINUOUS
10
187.527
20
-136.346
11
187.247
21
-136.231
0
LINE
8
BLACK
6
CONTINUOUS
10
187.247
20
-136.231
11
186.995
21
-136.062
0
LINE
8
BLACK
6
CONTINUOUS
10
186.995
20
-136.062
11
186.781
21
-135.848
0
LINE
8
BLACK
6
CONTINUOUS
10
186.781
20
-135.848
11
186.612
21
-135.596
0
LINE
8
BLACK
6
CONTINUOUS
10
186.612
20
-135.596
11
186.497
21
-135.316
0
LINE
8
BLACK
6
CONTINUOUS
10
186.497
20
-135.316
11
186.437
21
-135.019
0
LINE
8
BLACK
6
CONTINUOUS
10
186.437
20
-135.019
11
186.437
21
-134.717
0
LINE
8
BLACK
6
CONTINUOUS
10
186.437
20
-134.717
11
186.497
21
-134.42
0
LINE
8
BLACK
6
CONTINUOUS
10
186.564
20
-135.296
11
186.674
21
-135.563
0
LINE
8
BLACK
6
CONTINUOUS
10
186.674
20
-135.563
11
186.835
21
-135.804
0
LINE
8
BLACK
6
CONTINUOUS
10
186.835
20
-135.804
11
187.039
21
-136.008
0
LINE
8
BLACK
6
CONTINUOUS
10
187.039
20
-136.008
11
187.28
21
-136.169
0
LINE
8
BLACK
6
CONTINUOUS
10
187.28
20
-136.169
11
187.547
21
-136.279
0
LINE
8
BLACK
6
CONTINUOUS
10
187.547
20
-136.279
11
187.83
21
-136.336
0
LINE
8
BLACK
6
CONTINUOUS
10
187.83
20
-136.336
11
188.12
21
-136.336
0
LINE
8
BLACK
6
CONTINUOUS
10
188.12
20
-136.336
11
188.403
21
-136.279
0
LINE
8
BLACK
6
CONTINUOUS
10
188.403
20
-136.279
11
188.67
21
-136.169
0
LINE
8
BLACK
6
CONTINUOUS
10
188.67
20
-136.169
11
188.911
21
-136.008
0
LINE
8
BLACK
6
CONTINUOUS
10
188.911
20
-136.008
11
189.115
21
-135.804
0
LINE
8
BLACK
6
CONTINUOUS
10
189.115
20
-135.804
11
189.276
21
-135.563
0
LINE
8
BLACK
6
CONTINUOUS
10
189.276
20
-135.563
11
189.386
21
-135.296
0
LINE
8
BLACK
6
CONTINUOUS
10
189.386
20
-135.296
11
189.443
21
-135.013
0
LINE
8
BLACK
6
CONTINUOUS
10
189.443
20
-135.013
11
189.443
21
-134.723
0
LINE
8
BLACK
6
CONTINUOUS
10
189.443
20
-134.723
11
189.386
21
-134.44
0
LINE
8
BLACK
6
CONTINUOUS
10
189.386
20
-134.44
11
189.276
21
-134.173
0
LINE
8
BLACK
6
CONTINUOUS
10
189.276
20
-134.173
11
189.115
21
-133.932
0
LINE
8
BLACK
6
CONTINUOUS
10
189.115
20
-133.932
11
188.911
21
-133.728
0
LINE
8
BLACK
6
CONTINUOUS
10
188.911
20
-133.728
11
188.67
21
-133.567
0
LINE
8
BLACK
6
CONTINUOUS
10
188.67
20
-133.567
11
188.403
21
-133.457
0
LINE
8
BLACK
6
CONTINUOUS
10
188.403
20
-133.457
11
188.12
21
-133.4
0
LINE
8
BLACK
6
CONTINUOUS
10
188.12
20
-133.4
11
187.83
21
-133.4
0
LINE
8
BLACK
6
CONTINUOUS
10
187.83
20
-133.4
11
187.547
21
-133.457
0
LINE
8
BLACK
6
CONTINUOUS
10
187.547
20
-133.457
11
187.28
21
-133.567
0
LINE
8
BLACK
6
CONTINUOUS
10
187.28
20
-133.567
11
187.039
21
-133.728
0
LINE
8
BLACK
6
CONTINUOUS
10
187.039
20
-133.728
11
186.835
21
-133.932
0
LINE
8
BLACK
6
CONTINUOUS
10
186.835
20
-133.932
11
186.674
21
-134.173
0
LINE
8
BLACK
6
CONTINUOUS
10
186.674
20
-134.173
11
186.564
21
-134.44
0
LINE
8
BLACK
6
CONTINUOUS
10
186.564
20
-134.44
11
186.507
21
-134.723
0
LINE
8
BLACK
6
CONTINUOUS
10
186.507
20
-134.723
11
186.507
21
-135.013
0
LINE
8
BLACK
6
CONTINUOUS
10
186.507
20
-135.013
11
186.564
21
-135.296
0
LINE
8
BLACK
6
CONTINUOUS
10
72.3025
20
-62.338
11
72.4184
21
-62.0582
0
LINE
8
BLACK
6
CONTINUOUS
10
72.4184
20
-62.0582
11
72.5867
21
-61.8064
0
LINE
8
BLACK
6
CONTINUOUS
10
72.5867
20
-61.8064
11
72.8009
21
-61.5922
0
LINE
8
BLACK
6
CONTINUOUS
10
72.8009
20
-61.5922
11
73.0527
21
-61.4239
0
LINE
8
BLACK
6
CONTINUOUS
10
73.0527
20
-61.4239
11
73.3325
21
-61.308
0
LINE
8
BLACK
6
CONTINUOUS
10
73.3325
20
-61.308
11
73.6296
21
-61.2489
0
LINE
8
BLACK
6
CONTINUOUS
10
73.6296
20
-61.2489
11
73.9324
21
-61.2489
0
LINE
8
BLACK
6
CONTINUOUS
10
73.9324
20
-61.2489
11
74.2295
21
-61.308
0
LINE
8
BLACK
6
CONTINUOUS
10
74.2295
20
-61.308
11
74.5093
21
-61.4239
0
LINE
8
BLACK
6
CONTINUOUS
10
74.5093
20
-61.4239
11
74.7611
21
-61.5922
0
LINE
8
BLACK
6
CONTINUOUS
10
74.7611
20
-61.5922
11
74.9753
21
-61.8064
0
LINE
8
BLACK
6
CONTINUOUS
10
74.9753
20
-61.8064
11
75.1436
21
-62.0582
0
LINE
8
BLACK
6
CONTINUOUS
10
75.1436
20
-62.0582
11
75.2595
21
-62.338
0
LINE
8
BLACK
6
CONTINUOUS
10
75.2595
20
-62.338
11
75.3186
21
-62.6351
0
LINE
8
BLACK
6
CONTINUOUS
10
75.3186
20
-62.6351
11
75.3186
21
-62.9379
0
LINE
8
BLACK
6
CONTINUOUS
10
75.3186
20
-62.9379
11
75.2595
21
-63.235
0
LINE
8
BLACK
6
CONTINUOUS
10
75.2595
20
-63.235
11
75.1436
21
-63.5148
0
LINE
8
BLACK
6
CONTINUOUS
10
75.1436
20
-63.5148
11
74.9753
21
-63.7666
0
LINE
8
BLACK
6
CONTINUOUS
10
74.9753
20
-63.7666
11
74.7611
21
-63.9808
0
LINE
8
BLACK
6
CONTINUOUS
10
74.7611
20
-63.9808
11
74.5093
21
-64.1491
0
LINE
8
BLACK
6
CONTINUOUS
10
74.5093
20
-64.1491
11
74.2295
21
-64.265
0
LINE
8
BLACK
6
CONTINUOUS
10
74.2295
20
-64.265
11
73.9324
21
-64.3241
0
LINE
8
BLACK
6
CONTINUOUS
10
73.9324
20
-64.3241
11
73.6296
21
-64.3241
0
LINE
8
BLACK
6
CONTINUOUS
10
73.6296
20
-64.3241
11
73.3325
21
-64.265
0
LINE
8
BLACK
6
CONTINUOUS
10
73.3325
20
-64.265
11
73.0527
21
-64.1491
0
LINE
8
BLACK
6
CONTINUOUS
10
73.0527
20
-64.1491
11
72.8009
21
-63.9808
0
LINE
8
BLACK
6
CONTINUOUS
10
72.8009
20
-63.9808
11
72.5867
21
-63.7666
0
LINE
8
BLACK
6
CONTINUOUS
10
72.5867
20
-63.7666
11
72.4184
21
-63.5148
0
LINE
8
BLACK
6
CONTINUOUS
10
72.4184
20
-63.5148
11
72.3025
21
-63.235
0
LINE
8
BLACK
6
CONTINUOUS
10
72.3025
20
-63.235
11
72.2434
21
-62.9379
0
LINE
8
BLACK
6
CONTINUOUS
10
72.2434
20
-62.9379
11
72.2434
21
-62.6351
0
LINE
8
BLACK
6
CONTINUOUS
10
72.2434
20
-62.6351
11
72.3025
21
-62.338
0
LINE
8
BLACK
6
CONTINUOUS
10
72.3695
20
-63.2147
11
72.4802
21
-63.4818
0
LINE
8
BLACK
6
CONTINUOUS
10
72.4802
20
-63.4818
11
72.6408
21
-63.7222
0
LINE
8
BLACK
6
CONTINUOUS
10
72.6408
20
-63.7222
11
72.8453
21
-63.9267
0
LINE
8
BLACK
6
CONTINUOUS
10
72.8453
20
-63.9267
11
73.0857
21
-64.0873
0
LINE
8
BLACK
6
CONTINUOUS
10
73.0857
20
-64.0873
11
73.3528
21
-64.198
0
LINE
8
BLACK
6
CONTINUOUS
10
73.3528
20
-64.198
11
73.6364
21
-64.2544
0
LINE
8
BLACK
6
CONTINUOUS
10
73.6364
20
-64.2544
11
73.9256
21
-64.2544
0
LINE
8
BLACK
6
CONTINUOUS
10
73.9256
20
-64.2544
11
74.2092
21
-64.198
0
LINE
8
BLACK
6
CONTINUOUS
10
74.2092
20
-64.198
11
74.4763
21
-64.0873
0
LINE
8
BLACK
6
CONTINUOUS
10
74.4763
20
-64.0873
11
74.7167
21
-63.9267
0
LINE
8
BLACK
6
CONTINUOUS
10
74.7167
20
-63.9267
11
74.9212
21
-63.7222
0
LINE
8
BLACK
6
CONTINUOUS
10
74.9212
20
-63.7222
11
75.0818
21
-63.4818
0
LINE
8
BLACK
6
CONTINUOUS
10
75.0818
20
-63.4818
11
75.1925
21
-63.2147
0
LINE
8
BLACK
6
CONTINUOUS
10
75.1925
20
-63.2147
11
75.2489
21
-62.9311
0
LINE
8
BLACK
6
CONTINUOUS
10
75.2489
20
-62.9311
11
75.2489
21
-62.6419
0
LINE
8
BLACK
6
CONTINUOUS
10
75.2489
20
-62.6419
11
75.1925
21
-62.3583
0
LINE
8
BLACK
6
CONTINUOUS
10
75.1925
20
-62.3583
11
75.0818
21
-62.0912
0
LINE
8
BLACK
6
CONTINUOUS
10
75.0818
20
-62.0912
11
74.9212
21
-61.8508
0
LINE
8
BLACK
6
CONTINUOUS
10
74.9212
20
-61.8508
11
74.7167
21
-61.6463
0
LINE
8
BLACK
6
CONTINUOUS
10
74.7167
20
-61.6463
11
74.4763
21
-61.4857
0
LINE
8
BLACK
6
CONTINUOUS
10
74.4763
20
-61.4857
11
74.2092
21
-61.375
0
LINE
8
BLACK
6
CONTINUOUS
10
74.2092
20
-61.375
11
73.9256
21
-61.3186
0
LINE
8
BLACK
6
CONTINUOUS
10
73.9256
20
-61.3186
11
73.6364
21
-61.3186
0
LINE
8
BLACK
6
CONTINUOUS
10
73.6364
20
-61.3186
11
73.3528
21
-61.375
0
LINE
8
BLACK
6
CONTINUOUS
10
73.3528
20
-61.375
11
73.0857
21
-61.4857
0
LINE
8
BLACK
6
CONTINUOUS
10
73.0857
20
-61.4857
11
72.8453
21
-61.6463
0
LINE
8
BLACK
6
CONTINUOUS
10
72.8453
20
-61.6463
11
72.6408
21
-61.8508
0
LINE
8
BLACK
6
CONTINUOUS
10
72.6408
20
-61.8508
11
72.4802
21
-62.0912
0
LINE
8
BLACK
6
CONTINUOUS
10
72.4802
20
-62.0912
11
72.3695
21
-62.3583
0
LINE
8
BLACK
6
CONTINUOUS
10
72.3695
20
-62.3583
11
72.3131
21
-62.6419
0
LINE
8
BLACK
6
CONTINUOUS
10
72.3131
20
-62.6419
11
72.3131
21
-62.9311
0
LINE
8
BLACK
6
CONTINUOUS
10
72.3131
20
-62.9311
11
72.3695
21
-63.2147
0
LINE
8
BLACK
6
CONTINUOUS
10
178.919
20
-59.8615
11
179.035
21
-59.5817
0
LINE
8
BLACK
6
CONTINUOUS
10
179.035
20
-59.5817
11
179.203
21
-59.3299
0
LINE
8
BLACK
6
CONTINUOUS
10
179.203
20
-59.3299
11
179.417
21
-59.1157
0
LINE
8
BLACK
6
CONTINUOUS
10
179.417
20
-59.1157
11
179.669
21
-58.9474
0
LINE
8
BLACK
6
CONTINUOUS
10
179.669
20
-58.9474
11
179.949
21
-58.8315
0
LINE
8
BLACK
6
CONTINUOUS
10
179.949
20
-58.8315
11
180.246
21
-58.7724
0
LINE
8
BLACK
6
CONTINUOUS
10
180.246
20
-58.7724
11
180.549
21
-58.7724
0
LINE
8
BLACK
6
CONTINUOUS
10
180.549
20
-58.7724
11
180.846
21
-58.8315
0
LINE
8
BLACK
6
CONTINUOUS
10
180.846
20
-58.8315
11
181.126
21
-58.9474
0
LINE
8
BLACK
6
CONTINUOUS
10
181.126
20
-58.9474
11
181.378
21
-59.1157
0
LINE
8
BLACK
6
CONTINUOUS
10
181.378
20
-59.1157
11
181.592
21
-59.3299
0
LINE
8
BLACK
6
CONTINUOUS
10
181.592
20
-59.3299
11
181.76
21
-59.5817
0
LINE
8
BLACK
6
CONTINUOUS
10
181.76
20
-59.5817
11
181.876
21
-59.8615
0
LINE
8
BLACK
6
CONTINUOUS
10
181.876
20
-59.8615
11
181.935
21
-60.1586
0
LINE
8
BLACK
6
CONTINUOUS
10
181.935
20
-60.1586
11
181.935
21
-60.4614
0
LINE
8
BLACK
6
CONTINUOUS
10
181.935
20
-60.4614
11
181.876
21
-60.7585
0
LINE
8
BLACK
6
CONTINUOUS
10
181.876
20
-60.7585
11
181.76
21
-61.0383
0
LINE
8
BLACK
6
CONTINUOUS
10
181.76
20
-61.0383
11
181.592
21
-61.2901
0
LINE
8
BLACK
6
CONTINUOUS
10
181.592
20
-61.2901
11
181.378
21
-61.5043
0
LINE
8
BLACK
6
CONTINUOUS
10
181.378
20
-61.5043
11
181.126
21
-61.6726
0
LINE
8
BLACK
6
CONTINUOUS
10
181.126
20
-61.6726
11
180.846
21
-61.7885
0
LINE
8
BLACK
6
CONTINUOUS
10
180.846
20
-61.7885
11
180.549
21
-61.8476
0
LINE
8
BLACK
6
CONTINUOUS
10
180.549
20
-61.8476
11
180.246
21
-61.8476
0
LINE
8
BLACK
6
CONTINUOUS
10
180.246
20
-61.8476
11
179.949
21
-61.7885
0
LINE
8
BLACK
6
CONTINUOUS
10
179.949
20
-61.7885
11
179.669
21
-61.6726
0
LINE
8
BLACK
6
CONTINUOUS
10
179.669
20
-61.6726
11
179.417
21
-61.5043
0
LINE
8
BLACK
6
CONTINUOUS
10
179.417
20
-61.5043
11
179.203
21
-61.2901
0
LINE
8
BLACK
6
CONTINUOUS
10
179.203
20
-61.2901
11
179.035
21
-61.0383
0
LINE
8
BLACK
6
CONTINUOUS
10
179.035
20
-61.0383
11
178.919
21
-60.7585
0
LINE
8
BLACK
6
CONTINUOUS
10
178.919
20
-60.7585
11
178.86
21
-60.4614
0
LINE
8
BLACK
6
CONTINUOUS
10
178.86
20
-60.4614
11
178.86
21
-60.1586
0
LINE
8
BLACK
6
CONTINUOUS
10
178.86
20
-60.1586
11
178.919
21
-59.8615
0
LINE
8
BLACK
6
CONTINUOUS
10
178.986
20
-60.7382
11
179.097
21
-61.0053
0
LINE
8
BLACK
6
CONTINUOUS
10
179.097
20
-61.0053
11
179.257
21
-61.2457
0
LINE
8
BLACK
6
CONTINUOUS
10
179.257
20
-61.2457
11
179.462
21
-61.4502
0
LINE
8
BLACK
6
CONTINUOUS
10
179.462
20
-61.4502
11
179.702
21
-61.6108
0
LINE
8
BLACK
6
CONTINUOUS
10
179.702
20
-61.6108
11
179.969
21
-61.7215
0
LINE
8
BLACK
6
CONTINUOUS
10
179.969
20
-61.7215
11
180.253
21
-61.7779
0
LINE
8
BLACK
6
CONTINUOUS
10
180.253
20
-61.7779
11
180.542
21
-61.7779
0
LINE
8
BLACK
6
CONTINUOUS
10
180.542
20
-61.7779
11
180.826
21
-61.7215
0
LINE
8
BLACK
6
CONTINUOUS
10
180.826
20
-61.7215
11
181.093
21
-61.6108
0
LINE
8
BLACK
6
CONTINUOUS
10
181.093
20
-61.6108
11
181.333
21
-61.4502
0
LINE
8
BLACK
6
CONTINUOUS
10
181.333
20
-61.4502
11
181.538
21
-61.2457
0
LINE
8
BLACK
6
CONTINUOUS
10
181.538
20
-61.2457
11
181.698
21
-61.0053
0
LINE
8
BLACK
6
CONTINUOUS
10
181.698
20
-61.0053
11
181.809
21
-60.7382
0
LINE
8
BLACK
6
CONTINUOUS
10
181.809
20
-60.7382
11
181.865
21
-60.4546
0
LINE
8
BLACK
6
CONTINUOUS
10
181.865
20
-60.4546
11
181.865
21
-60.1654
0
LINE
8
BLACK
6
CONTINUOUS
10
181.865
20
-60.1654
11
181.809
21
-59.8818
0
LINE
8
BLACK
6
CONTINUOUS
10
181.809
20
-59.8818
11
181.698
21
-59.6147
0
LINE
8
BLACK
6
CONTINUOUS
10
181.698
20
-59.6147
11
181.538
21
-59.3743
0
LINE
8
BLACK
6
CONTINUOUS
10
181.538
20
-59.3743
11
181.333
21
-59.1698
0
LINE
8
BLACK
6
CONTINUOUS
10
181.333
20
-59.1698
11
181.093
21
-59.0092
0
LINE
8
BLACK
6
CONTINUOUS
10
181.093
20
-59.0092
11
180.826
21
-58.8985
0
LINE
8
BLACK
6
CONTINUOUS
10
180.826
20
-58.8985
11
180.542
21
-58.8421
0
LINE
8
BLACK
6
CONTINUOUS
10
180.542
20
-58.8421
11
180.253
21
-58.8421
0
LINE
8
BLACK
6
CONTINUOUS
10
180.253
20
-58.8421
11
179.969
21
-58.8985
0
LINE
8
BLACK
6
CONTINUOUS
10
179.969
20
-58.8985
11
179.702
21
-59.0092
0
LINE
8
BLACK
6
CONTINUOUS
10
179.702
20
-59.0092
11
179.462
21
-59.1698
0
LINE
8
BLACK
6
CONTINUOUS
10
179.462
20
-59.1698
11
179.257
21
-59.3743
0
LINE
8
BLACK
6
CONTINUOUS
10
179.257
20
-59.3743
11
179.097
21
-59.6147
0
LINE
8
BLACK
6
CONTINUOUS
10
179.097
20
-59.6147
11
178.986
21
-59.8818
0
LINE
8
BLACK
6
CONTINUOUS
10
178.986
20
-59.8818
11
178.93
21
-60.1654
0
LINE
8
BLACK
6
CONTINUOUS
10
178.93
20
-60.1654
11
178.93
21
-60.4546
0
LINE
8
BLACK
6
CONTINUOUS
10
178.93
20
-60.4546
11
178.986
21
-60.7382
  0
ENDSEC
  0
EOF
