<?xml version="1.0" standalone="no"?>
 <!DOCTYPE svg PUBLIC "-//W3C//DTD SVG 1.1//EN" 
 "http://www.w3.org/Graphics/SVG/1.1/DTD/svg11.dtd"> 
<svg xmlns="http://www.w3.org/2000/svg" version="1.1" 
    width="59.4004cm" height="41.9989cm" viewBox="0 0 233860 165350 ">
<title>SVG Picture created as Apollo-Edge_Cuts.svg date 2020/02/28 01:09:15 </title>
  <desc>Picture generated by PCBNEW </desc>
<g style="fill:#000000; fill-opacity:1;stroke:#000000; stroke-opacity:1;
stroke-linecap:round; stroke-linejoin:round; "
 transform="translate(0 0) scale(1 1)">
</g>
<g style="fill:#000000; fill-opacity:0.0; 
stroke:#000000; stroke-width:-0.000393701; stroke-opacity:1; 
stroke-linecap:round; stroke-linejoin:round;">
</g>
<g style="fill:#000000; fill-opacity:0.0; 
stroke:#000000; stroke-width:19.685; stroke-opacity:1; 
stroke-linecap:round; stroke-linejoin:round;">
<path d="M69515 68745
L67980 67745
" />
<path d="M64025 65875
L67980 67745
" />
<path d="M69515 68745
L69030 69510
" />
<path d="M72505 70685
L72023 71428
" />
<path d="M69030 69510 A1777.67 1777.67 0.0 1 0 72023.1 71428.8 " />
<path d="M73325 23925
L73325 49320
" />
<path d="M47829 63555
L47829 62875
" />
<path d="M44274.7 63555.9 A1777.63 1777.63 0.0 0 0 47830 63555.9 " />
<path d="M44274 63555
L44274 62875
" />
<path d="M74155 49320
L73325 49320
" />
<path d="M74155.9 52875.3 A1777.63 1777.63 0.0 0 0 74155.9 49320 " />
<path d="M74155 52875
L73325 52875
" />
<path d="M69770 23244
L69770 23925
" />
<path d="M73325.3 23244.1 A1777.63 1777.63 0.0 0 0 69770 23244.1 " />
<path d="M73325 23244
L73325 23925
" />
<path d="M21494 52189
L22175 52189
" />
<path d="M21494.1 48634.7 A1777.63 1777.63 0.0 0 0 21494.1 52190 " />
<path d="M21494 48634
L22175 48634
" />
<path d="M27195 24169
L27195 24850
" />
<path d="M30750 24169
L30750 24850
" />
<path d="M30750.3 24169.1 A1777.63 1777.63 0.0 0 0 27195 24169.1 " />
<path d="M72505 70685
L77640 74020
" />
<path d="M73325 52875
L73325 55069
" />
<path d="M27195 24850
L22725 24850
" />
<path d="M22175 52189
L22175 64200
" />
<path d="M44274 62875
L43450 62875
" />
<path d="M73325 55069.8 A375 375 0.0 0 0 73522.2 55400 " />
<path d="M85029 63270 A362.353 362.353 0.0 0 0 84910 62798.5 " />
<path d="M73522 55400
L84910 62800
" />
<path d="M77640 74020 A362.353 362.353 0.0 0 0 78111.5 73901 " />
<path d="M85029 63270
L78111 73900
" />
<path d="M57050 63150
L64025 65875
" />
<path d="M49950 62875
L57050 63150
" />
<path d="M42900 64200
L42900 63425
" />
<path d="M65400 23175
L65400 23375
" />
<path d="M57900 22275
L57900 22400
" />
<path d="M48850 22275
L48850 22425
" />
<path d="M41350 23525
L41350 24300
" />
<path d="M49950 62875
L47829 62875
" />
<path d="M42350 64750
L22725 64750
" />
<path d="M69770 23925
L65950 23925
" />
<path d="M65175 22950
L58450 22950
" />
<path d="M57675 22050
L49075 22050
" />
<path d="M48300 22975
L41900 22975
" />
<path d="M40800 24850
L30750 24850
" />
<path d="M65400 23175 A225 225 0.0 0 0 65175 22950 " />
<path d="M57900 22275 A225 225 0.0 0 0 57675 22050 " />
<path d="M49075 22050 A225 225 0.0 0 0 48850 22275 " />
<path d="M43450 62875 A550 550 0.0 0 0 42900 63425 " />
<path d="M42350 64750 A550 550 0.0 0 0 42900 64200 " />
<path d="M22175 64200 A550 550 0.0 0 0 22725 64750 " />
<path d="M65400 23375 A550 550 0.0 0 0 65950 23925 " />
<path d="M57900 22400 A550 550 0.0 0 0 58450 22950 " />
<path d="M48300 22975 A550 550 0.0 0 0 48850 22425 " />
<path d="M41900 22975 A550 550 0.0 0 0 41350 23525 " />
<path d="M40800 24850 A550 550 0.0 0 0 41350 24300 " />
<path d="M22725 24850 A550 550 0.0 0 0 22175 25400 " />
<path d="M22175 48634
L22175 25400
" />
<g >
</g>
<g >
</g>
<g >
</g>
<g >
</g>
<g >
</g>
<g >
</g>
<g >
</g>
<g >
</g>
<g >
</g>
<g >
</g>
<g >
</g>
<g >
</g>
<g >
</g>
<g >
</g>
<g >
</g>
<g >
</g>
<g >
</g>
<g >
</g>
<g >
</g>
<g >
</g>
<g >
</g>
<g >
</g>
<g >
</g>
<g >
</g>
<g >
</g>
<g >
</g>
<g >
</g>
<g >
</g>
<g >
</g>
<g >
</g>
<g >
</g>
<g >
</g>
<g >
</g>
<g >
</g>
<g >
</g>
<g >
</g>
<g >
</g>
<g >
</g>
</g> 
</svg>
