  0
SECTION
  2
HEADER
  9
$ANGBASE
  50
0.0
  9
$ANGDIR
  70
1
  9
$MEASUREMENT
  70
1
  0
ENDSEC
  0
SECTION
  2
TABLES
  0
TABLE
  2
LTYPE
  70
4
  0
LTYPE
  5
40F
  2
CONTINUOUS
  70
0
  3
Solid line
  72
65
  73
0
  40
0.0
  0
LTYPE
  5
410
  2
DASHDOT
 70
0
  3
Dash Dot ____ _ ____ _
 72
65
 73
4
 40
2.0
 49
1.25
 49
-0.25
 49
0.25
 49
-0.25
  0
LTYPE
  5
411
  2
DASHED
 70
0
  3
Dashed __ __ __ __ __
 72
65
 73
2
 40
0.75
 49
0.5
 49
-0.25
  0
LTYPE
  5
43B
  2
DOTTED
 70
0
  3
Dotted .  .  .  .
 72
65
 73
2
 40
0.2
 49
0.0
 49
-0.2
  0
ENDTAB
  0
TABLE
  2
STYLE
  70
4
  0
STYLE
  2
KICAD
  70
0
  40
0
  41
1
  42
1
  50
0
  71
0
  3
isocp.shx
  0
STYLE
  2
KICADB
  70
0
  40
0
  41
1
  42
1
  50
0
  71
0
  3
isocp.shx
  0
STYLE
  2
KICADI
  70
0
  40
0
  41
1
  42
1
  50
15
  71
0
  3
isocp.shx
  0
STYLE
  2
KICADBI
  70
0
  40
0
  41
1
  42
1
  50
15
  71
0
  3
isocp.shx
  0
ENDTAB
  0
TABLE
  2
LAYER
  70
1
  0
LAYER
  2
BLACK
  70
0
  62
7
  6
CONTINUOUS
  0
ENDTAB
  0
ENDSEC
  0
SECTION
  2
ENTITIES
0
LINE
8
BLACK
6
CONTINUOUS
10
186.27
20
-125.248
11
188.357
21
-125.248
0
LINE
8
BLACK
6
CONTINUOUS
10
188.357
20
-125.248
11
188.358
21
-125.248
0
LINE
8
BLACK
6
CONTINUOUS
10
188.358
20
-125.248
11
188.358
21
-125.248
0
LINE
8
BLACK
6
CONTINUOUS
10
188.358
20
-125.248
11
189.212
21
-125.329
0
LINE
8
BLACK
6
CONTINUOUS
10
189.212
20
-125.329
11
189.212
21
-125.329
0
LINE
8
BLACK
6
CONTINUOUS
10
189.212
20
-125.329
11
189.212
21
-125.329
0
LINE
8
BLACK
6
CONTINUOUS
10
189.212
20
-125.329
11
189.215
21
-125.33
0
LINE
8
BLACK
6
CONTINUOUS
10
189.215
20
-125.33
11
189.216
21
-125.33
0
LINE
8
BLACK
6
CONTINUOUS
10
189.216
20
-125.33
11
189.217
21
-125.33
0
LINE
8
BLACK
6
CONTINUOUS
10
189.217
20
-125.33
11
190.04
21
-125.572
0
LINE
8
BLACK
6
CONTINUOUS
10
190.04
20
-125.572
11
190.042
21
-125.573
0
LINE
8
BLACK
6
CONTINUOUS
10
190.042
20
-125.573
11
190.043
21
-125.573
0
LINE
8
BLACK
6
CONTINUOUS
10
190.043
20
-125.573
11
190.044
21
-125.573
0
LINE
8
BLACK
6
CONTINUOUS
10
190.044
20
-125.573
11
190.807
21
-125.966
0
LINE
8
BLACK
6
CONTINUOUS
10
190.807
20
-125.966
11
190.809
21
-125.967
0
LINE
8
BLACK
6
CONTINUOUS
10
190.809
20
-125.967
11
190.81
21
-125.968
0
LINE
8
BLACK
6
CONTINUOUS
10
190.81
20
-125.968
11
190.811
21
-125.969
0
LINE
8
BLACK
6
CONTINUOUS
10
190.811
20
-125.969
11
191.485
21
-126.499
0
LINE
8
BLACK
6
CONTINUOUS
10
191.485
20
-126.499
11
191.487
21
-126.5
0
LINE
8
BLACK
6
CONTINUOUS
10
191.487
20
-126.5
11
191.488
21
-126.501
0
LINE
8
BLACK
6
CONTINUOUS
10
191.488
20
-126.501
11
191.489
21
-126.502
0
LINE
8
BLACK
6
CONTINUOUS
10
191.489
20
-126.502
11
192.051
21
-127.15
0
LINE
8
BLACK
6
CONTINUOUS
10
192.051
20
-127.15
11
192.052
21
-127.152
0
LINE
8
BLACK
6
CONTINUOUS
10
192.052
20
-127.152
11
192.053
21
-127.153
0
LINE
8
BLACK
6
CONTINUOUS
10
192.053
20
-127.153
11
192.054
21
-127.154
0
LINE
8
BLACK
6
CONTINUOUS
10
192.054
20
-127.154
11
192.483
21
-127.896
0
LINE
8
BLACK
6
CONTINUOUS
10
192.483
20
-127.896
11
192.484
21
-127.898
0
LINE
8
BLACK
6
CONTINUOUS
10
192.484
20
-127.898
11
192.485
21
-127.899
0
LINE
8
BLACK
6
CONTINUOUS
10
192.485
20
-127.899
11
192.485
21
-127.9
0
LINE
8
BLACK
6
CONTINUOUS
10
192.485
20
-127.9
11
192.766
21
-128.71
0
LINE
8
BLACK
6
CONTINUOUS
10
192.766
20
-128.71
11
192.767
21
-128.713
0
LINE
8
BLACK
6
CONTINUOUS
10
192.767
20
-128.713
11
192.767
21
-128.714
0
LINE
8
BLACK
6
CONTINUOUS
10
192.767
20
-128.714
11
192.767
21
-128.715
0
LINE
8
BLACK
6
CONTINUOUS
10
192.767
20
-128.715
11
192.891
21
-129.564
0
LINE
8
BLACK
6
CONTINUOUS
10
192.891
20
-129.564
11
192.891
21
-129.566
0
LINE
8
BLACK
6
CONTINUOUS
10
192.891
20
-129.566
11
192.891
21
-129.567
0
LINE
8
BLACK
6
CONTINUOUS
10
192.891
20
-129.567
11
192.891
21
-129.569
0
LINE
8
BLACK
6
CONTINUOUS
10
192.891
20
-129.569
11
192.851
21
-130.425
0
LINE
8
BLACK
6
CONTINUOUS
10
192.851
20
-130.425
11
192.851
21
-130.428
0
LINE
8
BLACK
6
CONTINUOUS
10
192.851
20
-130.428
11
192.851
21
-130.429
0
LINE
8
BLACK
6
CONTINUOUS
10
192.851
20
-130.429
11
192.85
21
-130.43
0
LINE
8
BLACK
6
CONTINUOUS
10
192.85
20
-130.43
11
192.649
21
-131.264
0
LINE
8
BLACK
6
CONTINUOUS
10
192.649
20
-131.264
11
192.649
21
-131.266
0
LINE
8
BLACK
6
CONTINUOUS
10
192.649
20
-131.266
11
192.648
21
-131.267
0
LINE
8
BLACK
6
CONTINUOUS
10
192.648
20
-131.267
11
192.648
21
-131.268
0
LINE
8
BLACK
6
CONTINUOUS
10
192.648
20
-131.268
11
192.293
21
-132.049
0
LINE
8
BLACK
6
CONTINUOUS
10
192.293
20
-132.049
11
192.293
21
-132.049
0
LINE
8
BLACK
6
CONTINUOUS
10
192.293
20
-132.049
11
192.293
21
-132.049
0
LINE
8
BLACK
6
CONTINUOUS
10
192.293
20
-132.049
11
192.292
21
-132.051
0
LINE
8
BLACK
6
CONTINUOUS
10
192.292
20
-132.051
11
192.291
21
-132.052
0
LINE
8
BLACK
6
CONTINUOUS
10
192.291
20
-132.052
11
192.291
21
-132.053
0
LINE
8
BLACK
6
CONTINUOUS
10
192.291
20
-132.053
11
191.794
21
-132.753
0
LINE
8
BLACK
6
CONTINUOUS
10
191.794
20
-132.753
11
191.793
21
-132.755
0
LINE
8
BLACK
6
CONTINUOUS
10
191.793
20
-132.755
11
191.792
21
-132.755
0
LINE
8
BLACK
6
CONTINUOUS
10
191.792
20
-132.755
11
191.791
21
-132.756
0
LINE
8
BLACK
6
CONTINUOUS
10
191.791
20
-132.756
11
191.172
21
-133.349
0
LINE
8
BLACK
6
CONTINUOUS
10
191.172
20
-133.349
11
191.17
21
-133.351
0
LINE
8
BLACK
6
CONTINUOUS
10
191.17
20
-133.351
11
191.169
21
-133.352
0
LINE
8
BLACK
6
CONTINUOUS
10
191.169
20
-133.352
11
191.168
21
-133.352
0
LINE
8
BLACK
6
CONTINUOUS
10
191.168
20
-133.352
11
190.447
21
-133.818
0
LINE
8
BLACK
6
CONTINUOUS
10
190.447
20
-133.818
11
190.445
21
-133.819
0
LINE
8
BLACK
6
CONTINUOUS
10
190.445
20
-133.819
11
190.444
21
-133.819
0
LINE
8
BLACK
6
CONTINUOUS
10
190.444
20
-133.819
11
190.443
21
-133.82
0
LINE
8
BLACK
6
CONTINUOUS
10
190.443
20
-133.82
11
189.648
21
-134.14
0
LINE
8
BLACK
6
CONTINUOUS
10
189.648
20
-134.14
11
189.645
21
-134.141
0
LINE
8
BLACK
6
CONTINUOUS
10
189.645
20
-134.141
11
189.644
21
-134.141
0
LINE
8
BLACK
6
CONTINUOUS
10
189.644
20
-134.141
11
189.643
21
-134.142
0
LINE
8
BLACK
6
CONTINUOUS
10
189.643
20
-134.142
11
188.801
21
-134.306
0
LINE
8
BLACK
6
CONTINUOUS
10
188.801
20
-134.306
11
188.799
21
-134.307
0
LINE
8
BLACK
6
CONTINUOUS
10
188.799
20
-134.307
11
188.798
21
-134.307
0
LINE
8
BLACK
6
CONTINUOUS
10
188.798
20
-134.307
11
188.798
21
-134.307
0
LINE
8
BLACK
6
CONTINUOUS
10
188.798
20
-134.307
11
188.358
21
-134.328
0
LINE
8
BLACK
6
CONTINUOUS
10
188.358
20
-134.328
11
188.357
21
-134.328
0
LINE
8
BLACK
6
CONTINUOUS
10
188.357
20
-134.328
11
186.27
21
-134.328
0
LINE
8
BLACK
6
CONTINUOUS
10
186.27
20
-134.328
11
186.27
21
-139.877
0
LINE
8
BLACK
6
CONTINUOUS
10
186.27
20
-139.877
11
186.275
21
-139.969
0
LINE
8
BLACK
6
CONTINUOUS
10
186.275
20
-139.969
11
186.311
21
-140.147
0
LINE
8
BLACK
6
CONTINUOUS
10
186.311
20
-140.147
11
186.38
21
-140.314
0
LINE
8
BLACK
6
CONTINUOUS
10
186.38
20
-140.314
11
186.48
21
-140.465
0
LINE
8
BLACK
6
CONTINUOUS
10
186.48
20
-140.465
11
186.608
21
-140.593
0
LINE
8
BLACK
6
CONTINUOUS
10
186.608
20
-140.593
11
186.76
21
-140.695
0
LINE
8
BLACK
6
CONTINUOUS
10
186.76
20
-140.695
11
215.673
21
-159.483
0
LINE
8
BLACK
6
CONTINUOUS
10
215.673
20
-159.483
11
215.674
21
-159.483
0
LINE
8
BLACK
6
CONTINUOUS
10
215.674
20
-159.483
11
215.679
21
-159.484
0
LINE
8
BLACK
6
CONTINUOUS
10
215.679
20
-159.484
11
215.683
21
-159.486
0
LINE
8
BLACK
6
CONTINUOUS
10
215.683
20
-159.486
11
215.687
21
-159.489
0
LINE
8
BLACK
6
CONTINUOUS
10
215.687
20
-159.489
11
215.826
21
-159.603
0
LINE
8
BLACK
6
CONTINUOUS
10
215.826
20
-159.603
11
215.827
21
-159.603
0
LINE
8
BLACK
6
CONTINUOUS
10
215.827
20
-159.603
11
215.828
21
-159.604
0
LINE
8
BLACK
6
CONTINUOUS
10
215.828
20
-159.604
11
215.83
21
-159.606
0
LINE
8
BLACK
6
CONTINUOUS
10
215.83
20
-159.606
11
215.944
21
-159.745
0
LINE
8
BLACK
6
CONTINUOUS
10
215.944
20
-159.745
11
215.944
21
-159.745
0
LINE
8
BLACK
6
CONTINUOUS
10
215.944
20
-159.745
11
215.945
21
-159.747
0
LINE
8
BLACK
6
CONTINUOUS
10
215.945
20
-159.747
11
215.947
21
-159.749
0
LINE
8
BLACK
6
CONTINUOUS
10
215.947
20
-159.749
11
216.032
21
-159.907
0
LINE
8
BLACK
6
CONTINUOUS
10
216.032
20
-159.907
11
216.032
21
-159.907
0
LINE
8
BLACK
6
CONTINUOUS
10
216.032
20
-159.907
11
216.033
21
-159.909
0
LINE
8
BLACK
6
CONTINUOUS
10
216.033
20
-159.909
11
216.034
21
-159.911
0
LINE
8
BLACK
6
CONTINUOUS
10
216.034
20
-159.911
11
216.087
21
-160.083
0
LINE
8
BLACK
6
CONTINUOUS
10
216.087
20
-160.083
11
216.087
21
-160.083
0
LINE
8
BLACK
6
CONTINUOUS
10
216.087
20
-160.083
11
216.087
21
-160.086
0
LINE
8
BLACK
6
CONTINUOUS
10
216.087
20
-160.086
11
216.088
21
-160.088
0
LINE
8
BLACK
6
CONTINUOUS
10
216.088
20
-160.088
11
216.106
21
-160.266
0
LINE
8
BLACK
6
CONTINUOUS
10
216.106
20
-160.266
11
216.106
21
-160.267
0
LINE
8
BLACK
6
CONTINUOUS
10
216.106
20
-160.267
11
216.106
21
-160.269
0
LINE
8
BLACK
6
CONTINUOUS
10
216.106
20
-160.269
11
216.106
21
-160.271
0
LINE
8
BLACK
6
CONTINUOUS
10
216.106
20
-160.271
11
216.09
21
-160.45
0
LINE
8
BLACK
6
CONTINUOUS
10
216.09
20
-160.45
11
216.09
21
-160.451
0
LINE
8
BLACK
6
CONTINUOUS
10
216.09
20
-160.451
11
216.089
21
-160.453
0
LINE
8
BLACK
6
CONTINUOUS
10
216.089
20
-160.453
11
216.089
21
-160.455
0
LINE
8
BLACK
6
CONTINUOUS
10
216.089
20
-160.455
11
216.038
21
-160.627
0
LINE
8
BLACK
6
CONTINUOUS
10
216.038
20
-160.627
11
216.038
21
-160.628
0
LINE
8
BLACK
6
CONTINUOUS
10
216.038
20
-160.628
11
216.037
21
-160.629
0
LINE
8
BLACK
6
CONTINUOUS
10
216.037
20
-160.629
11
216.036
21
-160.631
0
LINE
8
BLACK
6
CONTINUOUS
10
216.036
20
-160.631
11
215.997
21
-160.715
0
LINE
8
BLACK
6
CONTINUOUS
10
215.997
20
-160.715
11
215.997
21
-160.715
0
LINE
8
BLACK
6
CONTINUOUS
10
215.997
20
-160.715
11
215.995
21
-160.718
0
LINE
8
BLACK
6
CONTINUOUS
10
215.995
20
-160.718
11
198.423
21
-187.723
0
LINE
8
BLACK
6
CONTINUOUS
10
198.423
20
-187.723
11
198.423
21
-187.724
0
LINE
8
BLACK
6
CONTINUOUS
10
198.423
20
-187.724
11
198.423
21
-187.724
0
LINE
8
BLACK
6
CONTINUOUS
10
198.423
20
-187.724
11
198.423
21
-187.724
0
LINE
8
BLACK
6
CONTINUOUS
10
198.423
20
-187.724
11
198.421
21
-187.726
0
LINE
8
BLACK
6
CONTINUOUS
10
198.421
20
-187.726
11
198.421
21
-187.726
0
LINE
8
BLACK
6
CONTINUOUS
10
198.421
20
-187.726
11
198.309
21
-187.863
0
LINE
8
BLACK
6
CONTINUOUS
10
198.309
20
-187.863
11
198.309
21
-187.864
0
LINE
8
BLACK
6
CONTINUOUS
10
198.309
20
-187.864
11
198.307
21
-187.865
0
LINE
8
BLACK
6
CONTINUOUS
10
198.307
20
-187.865
11
198.305
21
-187.867
0
LINE
8
BLACK
6
CONTINUOUS
10
198.305
20
-187.867
11
198.167
21
-187.981
0
LINE
8
BLACK
6
CONTINUOUS
10
198.167
20
-187.981
11
198.167
21
-187.981
0
LINE
8
BLACK
6
CONTINUOUS
10
198.167
20
-187.981
11
198.165
21
-187.983
0
LINE
8
BLACK
6
CONTINUOUS
10
198.165
20
-187.983
11
198.163
21
-187.984
0
LINE
8
BLACK
6
CONTINUOUS
10
198.163
20
-187.984
11
198.005
21
-188.069
0
LINE
8
BLACK
6
CONTINUOUS
10
198.005
20
-188.069
11
198.004
21
-188.069
0
LINE
8
BLACK
6
CONTINUOUS
10
198.004
20
-188.069
11
198.002
21
-188.07
0
LINE
8
BLACK
6
CONTINUOUS
10
198.002
20
-188.07
11
198
21
-188.071
0
LINE
8
BLACK
6
CONTINUOUS
10
198
20
-188.071
11
197.828
21
-188.124
0
LINE
8
BLACK
6
CONTINUOUS
10
197.828
20
-188.124
11
197.828
21
-188.124
0
LINE
8
BLACK
6
CONTINUOUS
10
197.828
20
-188.124
11
197.828
21
-188.124
0
LINE
8
BLACK
6
CONTINUOUS
10
197.828
20
-188.124
11
197.826
21
-188.124
0
LINE
8
BLACK
6
CONTINUOUS
10
197.826
20
-188.124
11
197.824
21
-188.125
0
LINE
8
BLACK
6
CONTINUOUS
10
197.824
20
-188.125
11
197.645
21
-188.143
0
LINE
8
BLACK
6
CONTINUOUS
10
197.645
20
-188.143
11
197.645
21
-188.143
0
LINE
8
BLACK
6
CONTINUOUS
10
197.645
20
-188.143
11
197.642
21
-188.143
0
LINE
8
BLACK
6
CONTINUOUS
10
197.642
20
-188.143
11
197.64
21
-188.143
0
LINE
8
BLACK
6
CONTINUOUS
10
197.64
20
-188.143
11
197.461
21
-188.127
0
LINE
8
BLACK
6
CONTINUOUS
10
197.461
20
-188.127
11
197.461
21
-188.127
0
LINE
8
BLACK
6
CONTINUOUS
10
197.461
20
-188.127
11
197.459
21
-188.126
0
LINE
8
BLACK
6
CONTINUOUS
10
197.459
20
-188.126
11
197.456
21
-188.126
0
LINE
8
BLACK
6
CONTINUOUS
10
197.456
20
-188.126
11
197.284
21
-188.075
0
LINE
8
BLACK
6
CONTINUOUS
10
197.284
20
-188.075
11
197.284
21
-188.075
0
LINE
8
BLACK
6
CONTINUOUS
10
197.284
20
-188.075
11
197.282
21
-188.074
0
LINE
8
BLACK
6
CONTINUOUS
10
197.282
20
-188.074
11
197.281
21
-188.073
0
LINE
8
BLACK
6
CONTINUOUS
10
197.281
20
-188.073
11
197.197
21
-188.034
0
LINE
8
BLACK
6
CONTINUOUS
10
197.197
20
-188.034
11
197.196
21
-188.034
0
LINE
8
BLACK
6
CONTINUOUS
10
197.196
20
-188.034
11
197.193
21
-188.032
0
LINE
8
BLACK
6
CONTINUOUS
10
197.193
20
-188.032
11
184.17
21
-179.574
0
LINE
8
BLACK
6
CONTINUOUS
10
184.17
20
-179.574
11
182.959
21
-181.444
0
LINE
8
BLACK
6
CONTINUOUS
10
182.959
20
-181.444
11
182.958
21
-181.444
0
LINE
8
BLACK
6
CONTINUOUS
10
182.958
20
-181.444
11
182.958
21
-181.444
0
LINE
8
BLACK
6
CONTINUOUS
10
182.958
20
-181.444
11
182.432
21
-182.122
0
LINE
8
BLACK
6
CONTINUOUS
10
182.432
20
-182.122
11
182.43
21
-182.123
0
LINE
8
BLACK
6
CONTINUOUS
10
182.43
20
-182.123
11
182.429
21
-182.124
0
LINE
8
BLACK
6
CONTINUOUS
10
182.429
20
-182.124
11
182.429
21
-182.125
0
LINE
8
BLACK
6
CONTINUOUS
10
182.429
20
-182.125
11
181.784
21
-182.69
0
LINE
8
BLACK
6
CONTINUOUS
10
181.784
20
-182.69
11
181.782
21
-182.692
0
LINE
8
BLACK
6
CONTINUOUS
10
181.782
20
-182.692
11
181.781
21
-182.693
0
LINE
8
BLACK
6
CONTINUOUS
10
181.781
20
-182.693
11
181.78
21
-182.693
0
LINE
8
BLACK
6
CONTINUOUS
10
181.78
20
-182.693
11
181.04
21
-183.126
0
LINE
8
BLACK
6
CONTINUOUS
10
181.04
20
-183.126
11
181.037
21
-183.128
0
LINE
8
BLACK
6
CONTINUOUS
10
181.037
20
-183.128
11
181.036
21
-183.128
0
LINE
8
BLACK
6
CONTINUOUS
10
181.036
20
-183.128
11
181.035
21
-183.128
0
LINE
8
BLACK
6
CONTINUOUS
10
181.035
20
-183.128
11
180.226
21
-183.414
0
LINE
8
BLACK
6
CONTINUOUS
10
180.226
20
-183.414
11
180.224
21
-183.414
0
LINE
8
BLACK
6
CONTINUOUS
10
180.224
20
-183.414
11
180.223
21
-183.415
0
LINE
8
BLACK
6
CONTINUOUS
10
180.223
20
-183.415
11
180.222
21
-183.415
0
LINE
8
BLACK
6
CONTINUOUS
10
180.222
20
-183.415
11
179.374
21
-183.542
0
LINE
8
BLACK
6
CONTINUOUS
10
179.374
20
-183.542
11
179.371
21
-183.543
0
LINE
8
BLACK
6
CONTINUOUS
10
179.371
20
-183.543
11
179.37
21
-183.542
0
LINE
8
BLACK
6
CONTINUOUS
10
179.37
20
-183.542
11
179.369
21
-183.543
0
LINE
8
BLACK
6
CONTINUOUS
10
179.369
20
-183.543
11
178.512
21
-183.507
0
LINE
8
BLACK
6
CONTINUOUS
10
178.512
20
-183.507
11
178.512
21
-183.507
0
LINE
8
BLACK
6
CONTINUOUS
10
178.512
20
-183.507
11
178.509
21
-183.507
0
LINE
8
BLACK
6
CONTINUOUS
10
178.509
20
-183.507
11
178.508
21
-183.507
0
LINE
8
BLACK
6
CONTINUOUS
10
178.508
20
-183.507
11
178.507
21
-183.507
0
LINE
8
BLACK
6
CONTINUOUS
10
178.507
20
-183.507
11
177.672
21
-183.31
0
LINE
8
BLACK
6
CONTINUOUS
10
177.672
20
-183.31
11
177.67
21
-183.309
0
LINE
8
BLACK
6
CONTINUOUS
10
177.67
20
-183.309
11
177.669
21
-183.309
0
LINE
8
BLACK
6
CONTINUOUS
10
177.669
20
-183.309
11
177.668
21
-183.308
0
LINE
8
BLACK
6
CONTINUOUS
10
177.668
20
-183.308
11
176.885
21
-182.957
0
LINE
8
BLACK
6
CONTINUOUS
10
176.885
20
-182.957
11
176.883
21
-182.956
0
LINE
8
BLACK
6
CONTINUOUS
10
176.883
20
-182.956
11
176.882
21
-182.955
0
LINE
8
BLACK
6
CONTINUOUS
10
176.882
20
-182.955
11
176.881
21
-182.955
0
LINE
8
BLACK
6
CONTINUOUS
10
176.881
20
-182.955
11
176.179
21
-182.462
0
LINE
8
BLACK
6
CONTINUOUS
10
176.179
20
-182.462
11
176.177
21
-182.461
0
LINE
8
BLACK
6
CONTINUOUS
10
176.177
20
-182.461
11
176.176
21
-182.46
0
LINE
8
BLACK
6
CONTINUOUS
10
176.176
20
-182.46
11
176.176
21
-182.459
0
LINE
8
BLACK
6
CONTINUOUS
10
176.176
20
-182.459
11
175.579
21
-181.842
0
LINE
8
BLACK
6
CONTINUOUS
10
175.579
20
-181.842
11
175.579
21
-181.842
0
LINE
8
BLACK
6
CONTINUOUS
10
175.579
20
-181.842
11
175.579
21
-181.842
0
LINE
8
BLACK
6
CONTINUOUS
10
175.579
20
-181.842
11
175.578
21
-181.841
0
LINE
8
BLACK
6
CONTINUOUS
10
175.578
20
-181.841
11
175.577
21
-181.84
0
LINE
8
BLACK
6
CONTINUOUS
10
175.577
20
-181.84
11
175.576
21
-181.839
0
LINE
8
BLACK
6
CONTINUOUS
10
175.576
20
-181.839
11
175.108
21
-181.12
0
LINE
8
BLACK
6
CONTINUOUS
10
175.108
20
-181.12
11
175.106
21
-181.118
0
LINE
8
BLACK
6
CONTINUOUS
10
175.106
20
-181.118
11
175.106
21
-181.117
0
LINE
8
BLACK
6
CONTINUOUS
10
175.106
20
-181.117
11
175.105
21
-181.116
0
LINE
8
BLACK
6
CONTINUOUS
10
175.105
20
-181.116
11
174.781
21
-180.322
0
LINE
8
BLACK
6
CONTINUOUS
10
174.781
20
-180.322
11
174.78
21
-180.32
0
LINE
8
BLACK
6
CONTINUOUS
10
174.78
20
-180.32
11
174.78
21
-180.319
0
LINE
8
BLACK
6
CONTINUOUS
10
174.78
20
-180.319
11
174.779
21
-180.318
0
LINE
8
BLACK
6
CONTINUOUS
10
174.779
20
-180.318
11
174.611
21
-179.477
0
LINE
8
BLACK
6
CONTINUOUS
10
174.611
20
-179.477
11
174.61
21
-179.474
0
LINE
8
BLACK
6
CONTINUOUS
10
174.61
20
-179.474
11
174.61
21
-179.473
0
LINE
8
BLACK
6
CONTINUOUS
10
174.61
20
-179.473
11
174.61
21
-179.472
0
LINE
8
BLACK
6
CONTINUOUS
10
174.61
20
-179.472
11
174.604
21
-178.614
0
LINE
8
BLACK
6
CONTINUOUS
10
174.604
20
-178.614
11
174.604
21
-178.612
0
LINE
8
BLACK
6
CONTINUOUS
10
174.604
20
-178.612
11
174.604
21
-178.611
0
LINE
8
BLACK
6
CONTINUOUS
10
174.604
20
-178.611
11
174.604
21
-178.61
0
LINE
8
BLACK
6
CONTINUOUS
10
174.604
20
-178.61
11
174.76
21
-177.766
0
LINE
8
BLACK
6
CONTINUOUS
10
174.76
20
-177.766
11
174.761
21
-177.764
0
LINE
8
BLACK
6
CONTINUOUS
10
174.761
20
-177.764
11
174.761
21
-177.763
0
LINE
8
BLACK
6
CONTINUOUS
10
174.761
20
-177.763
11
174.761
21
-177.762
0
LINE
8
BLACK
6
CONTINUOUS
10
174.761
20
-177.762
11
175.074
21
-176.963
0
LINE
8
BLACK
6
CONTINUOUS
10
175.074
20
-176.963
11
175.075
21
-176.961
0
LINE
8
BLACK
6
CONTINUOUS
10
175.075
20
-176.961
11
175.075
21
-176.96
0
LINE
8
BLACK
6
CONTINUOUS
10
175.075
20
-176.96
11
175.075
21
-176.96
0
LINE
8
BLACK
6
CONTINUOUS
10
175.075
20
-176.96
11
175.314
21
-176.544
0
LINE
8
BLACK
6
CONTINUOUS
10
175.314
20
-176.544
11
175.314
21
-176.543
0
LINE
8
BLACK
6
CONTINUOUS
10
175.314
20
-176.543
11
176.534
21
-174.62
0
LINE
8
BLACK
6
CONTINUOUS
10
176.534
20
-174.62
11
172.657
21
-172.094
0
LINE
8
BLACK
6
CONTINUOUS
10
172.657
20
-172.094
11
162.614
21
-167.345
0
LINE
8
BLACK
6
CONTINUOUS
10
162.614
20
-167.345
11
144.902
21
-160.426
0
LINE
8
BLACK
6
CONTINUOUS
10
144.902
20
-160.426
11
126.873
21
-159.727
0
LINE
8
BLACK
6
CONTINUOUS
10
126.873
20
-159.727
11
121.513
21
-159.727
0
LINE
8
BLACK
6
CONTINUOUS
10
121.513
20
-159.727
11
121.513
21
-161.433
0
LINE
8
BLACK
6
CONTINUOUS
10
121.513
20
-161.433
11
121.513
21
-161.434
0
LINE
8
BLACK
6
CONTINUOUS
10
121.513
20
-161.434
11
121.513
21
-161.434
0
LINE
8
BLACK
6
CONTINUOUS
10
121.513
20
-161.434
11
121.432
21
-162.288
0
LINE
8
BLACK
6
CONTINUOUS
10
121.432
20
-162.288
11
121.431
21
-162.291
0
LINE
8
BLACK
6
CONTINUOUS
10
121.431
20
-162.291
11
121.431
21
-162.292
0
LINE
8
BLACK
6
CONTINUOUS
10
121.431
20
-162.292
11
121.431
21
-162.293
0
LINE
8
BLACK
6
CONTINUOUS
10
121.431
20
-162.293
11
121.189
21
-163.116
0
LINE
8
BLACK
6
CONTINUOUS
10
121.189
20
-163.116
11
121.188
21
-163.118
0
LINE
8
BLACK
6
CONTINUOUS
10
121.188
20
-163.118
11
121.188
21
-163.119
0
LINE
8
BLACK
6
CONTINUOUS
10
121.188
20
-163.119
11
121.188
21
-163.12
0
LINE
8
BLACK
6
CONTINUOUS
10
121.188
20
-163.12
11
120.795
21
-163.883
0
LINE
8
BLACK
6
CONTINUOUS
10
120.795
20
-163.883
11
120.794
21
-163.885
0
LINE
8
BLACK
6
CONTINUOUS
10
120.794
20
-163.885
11
120.793
21
-163.886
0
LINE
8
BLACK
6
CONTINUOUS
10
120.793
20
-163.886
11
120.792
21
-163.887
0
LINE
8
BLACK
6
CONTINUOUS
10
120.792
20
-163.887
11
120.262
21
-164.561
0
LINE
8
BLACK
6
CONTINUOUS
10
120.262
20
-164.561
11
120.261
21
-164.563
0
LINE
8
BLACK
6
CONTINUOUS
10
120.261
20
-164.563
11
120.26
21
-164.564
0
LINE
8
BLACK
6
CONTINUOUS
10
120.26
20
-164.564
11
120.259
21
-164.565
0
LINE
8
BLACK
6
CONTINUOUS
10
120.259
20
-164.565
11
119.611
21
-165.127
0
LINE
8
BLACK
6
CONTINUOUS
10
119.611
20
-165.127
11
119.609
21
-165.128
0
LINE
8
BLACK
6
CONTINUOUS
10
119.609
20
-165.128
11
119.608
21
-165.129
0
LINE
8
BLACK
6
CONTINUOUS
10
119.608
20
-165.129
11
119.607
21
-165.13
0
LINE
8
BLACK
6
CONTINUOUS
10
119.607
20
-165.13
11
118.865
21
-165.559
0
LINE
8
BLACK
6
CONTINUOUS
10
118.865
20
-165.559
11
118.863
21
-165.56
0
LINE
8
BLACK
6
CONTINUOUS
10
118.863
20
-165.56
11
118.862
21
-165.561
0
LINE
8
BLACK
6
CONTINUOUS
10
118.862
20
-165.561
11
118.861
21
-165.561
0
LINE
8
BLACK
6
CONTINUOUS
10
118.861
20
-165.561
11
118.051
21
-165.842
0
LINE
8
BLACK
6
CONTINUOUS
10
118.051
20
-165.842
11
118.048
21
-165.843
0
LINE
8
BLACK
6
CONTINUOUS
10
118.048
20
-165.843
11
118.047
21
-165.843
0
LINE
8
BLACK
6
CONTINUOUS
10
118.047
20
-165.843
11
118.046
21
-165.843
0
LINE
8
BLACK
6
CONTINUOUS
10
118.046
20
-165.843
11
117.197
21
-165.967
0
LINE
8
BLACK
6
CONTINUOUS
10
117.197
20
-165.967
11
117.195
21
-165.967
0
LINE
8
BLACK
6
CONTINUOUS
10
117.195
20
-165.967
11
117.194
21
-165.967
0
LINE
8
BLACK
6
CONTINUOUS
10
117.194
20
-165.967
11
117.192
21
-165.967
0
LINE
8
BLACK
6
CONTINUOUS
10
117.192
20
-165.967
11
116.336
21
-165.927
0
LINE
8
BLACK
6
CONTINUOUS
10
116.336
20
-165.927
11
116.333
21
-165.927
0
LINE
8
BLACK
6
CONTINUOUS
10
116.333
20
-165.927
11
116.332
21
-165.927
0
LINE
8
BLACK
6
CONTINUOUS
10
116.332
20
-165.927
11
116.331
21
-165.926
0
LINE
8
BLACK
6
CONTINUOUS
10
116.331
20
-165.926
11
115.497
21
-165.725
0
LINE
8
BLACK
6
CONTINUOUS
10
115.497
20
-165.725
11
115.495
21
-165.725
0
LINE
8
BLACK
6
CONTINUOUS
10
115.495
20
-165.725
11
115.494
21
-165.724
0
LINE
8
BLACK
6
CONTINUOUS
10
115.494
20
-165.724
11
115.493
21
-165.724
0
LINE
8
BLACK
6
CONTINUOUS
10
115.493
20
-165.724
11
114.712
21
-165.369
0
LINE
8
BLACK
6
CONTINUOUS
10
114.712
20
-165.369
11
114.712
21
-165.369
0
LINE
8
BLACK
6
CONTINUOUS
10
114.712
20
-165.369
11
114.712
21
-165.369
0
LINE
8
BLACK
6
CONTINUOUS
10
114.712
20
-165.369
11
114.71
21
-165.368
0
LINE
8
BLACK
6
CONTINUOUS
10
114.71
20
-165.368
11
114.709
21
-165.367
0
LINE
8
BLACK
6
CONTINUOUS
10
114.709
20
-165.367
11
114.708
21
-165.367
0
LINE
8
BLACK
6
CONTINUOUS
10
114.708
20
-165.367
11
114.008
21
-164.87
0
LINE
8
BLACK
6
CONTINUOUS
10
114.008
20
-164.87
11
114.006
21
-164.869
0
LINE
8
BLACK
6
CONTINUOUS
10
114.006
20
-164.869
11
114.006
21
-164.868
0
LINE
8
BLACK
6
CONTINUOUS
10
114.006
20
-164.868
11
114.005
21
-164.867
0
LINE
8
BLACK
6
CONTINUOUS
10
114.005
20
-164.867
11
113.412
21
-164.248
0
LINE
8
BLACK
6
CONTINUOUS
10
113.412
20
-164.248
11
113.41
21
-164.246
0
LINE
8
BLACK
6
CONTINUOUS
10
113.41
20
-164.246
11
113.409
21
-164.245
0
LINE
8
BLACK
6
CONTINUOUS
10
113.409
20
-164.245
11
113.409
21
-164.244
0
LINE
8
BLACK
6
CONTINUOUS
10
113.409
20
-164.244
11
112.943
21
-163.523
0
LINE
8
BLACK
6
CONTINUOUS
10
112.943
20
-163.523
11
112.942
21
-163.521
0
LINE
8
BLACK
6
CONTINUOUS
10
112.942
20
-163.521
11
112.942
21
-163.52
0
LINE
8
BLACK
6
CONTINUOUS
10
112.942
20
-163.52
11
112.941
21
-163.519
0
LINE
8
BLACK
6
CONTINUOUS
10
112.941
20
-163.519
11
112.621
21
-162.724
0
LINE
8
BLACK
6
CONTINUOUS
10
112.621
20
-162.724
11
112.62
21
-162.721
0
LINE
8
BLACK
6
CONTINUOUS
10
112.62
20
-162.721
11
112.62
21
-162.72
0
LINE
8
BLACK
6
CONTINUOUS
10
112.62
20
-162.72
11
112.619
21
-162.719
0
LINE
8
BLACK
6
CONTINUOUS
10
112.619
20
-162.719
11
112.455
21
-161.877
0
LINE
8
BLACK
6
CONTINUOUS
10
112.455
20
-161.877
11
112.454
21
-161.875
0
LINE
8
BLACK
6
CONTINUOUS
10
112.454
20
-161.875
11
112.454
21
-161.874
0
LINE
8
BLACK
6
CONTINUOUS
10
112.454
20
-161.874
11
112.454
21
-161.874
0
LINE
8
BLACK
6
CONTINUOUS
10
112.454
20
-161.874
11
112.433
21
-161.434
0
LINE
8
BLACK
6
CONTINUOUS
10
112.433
20
-161.434
11
112.433
21
-161.433
0
LINE
8
BLACK
6
CONTINUOUS
10
112.433
20
-161.433
11
112.433
21
-159.727
0
LINE
8
BLACK
6
CONTINUOUS
10
112.433
20
-159.727
11
110.363
21
-159.727
0
LINE
8
BLACK
6
CONTINUOUS
10
110.363
20
-159.727
11
110.355
21
-159.728
0
LINE
8
BLACK
6
CONTINUOUS
10
110.355
20
-159.728
11
110.087
21
-159.756
0
LINE
8
BLACK
6
CONTINUOUS
10
110.087
20
-159.756
11
109.831
21
-159.835
0
LINE
8
BLACK
6
CONTINUOUS
10
109.831
20
-159.835
11
109.596
21
-159.962
0
LINE
8
BLACK
6
CONTINUOUS
10
109.596
20
-159.962
11
109.39
21
-160.133
0
LINE
8
BLACK
6
CONTINUOUS
10
109.39
20
-160.133
11
109.22
21
-160.34
0
LINE
8
BLACK
6
CONTINUOUS
10
109.22
20
-160.34
11
109.095
21
-160.577
0
LINE
8
BLACK
6
CONTINUOUS
10
109.095
20
-160.577
11
109.017
21
-160.833
0
LINE
8
BLACK
6
CONTINUOUS
10
109.017
20
-160.833
11
108.991
21
-161.101
0
LINE
8
BLACK
6
CONTINUOUS
10
108.991
20
-161.101
11
108.991
21
-163.069
0
LINE
8
BLACK
6
CONTINUOUS
10
108.991
20
-163.069
11
108.991
21
-163.07
0
LINE
8
BLACK
6
CONTINUOUS
10
108.991
20
-163.07
11
108.991
21
-163.07
0
LINE
8
BLACK
6
CONTINUOUS
10
108.991
20
-163.07
11
108.964
21
-163.342
0
LINE
8
BLACK
6
CONTINUOUS
10
108.964
20
-163.342
11
108.964
21
-163.342
0
LINE
8
BLACK
6
CONTINUOUS
10
108.964
20
-163.342
11
108.964
21
-163.344
0
LINE
8
BLACK
6
CONTINUOUS
10
108.964
20
-163.344
11
108.963
21
-163.347
0
LINE
8
BLACK
6
CONTINUOUS
10
108.963
20
-163.347
11
108.885
21
-163.608
0
LINE
8
BLACK
6
CONTINUOUS
10
108.885
20
-163.608
11
108.884
21
-163.608
0
LINE
8
BLACK
6
CONTINUOUS
10
108.884
20
-163.608
11
108.884
21
-163.61
0
LINE
8
BLACK
6
CONTINUOUS
10
108.884
20
-163.61
11
108.883
21
-163.612
0
LINE
8
BLACK
6
CONTINUOUS
10
108.883
20
-163.612
11
108.755
21
-163.853
0
LINE
8
BLACK
6
CONTINUOUS
10
108.755
20
-163.853
11
108.754
21
-163.853
0
LINE
8
BLACK
6
CONTINUOUS
10
108.754
20
-163.853
11
108.753
21
-163.855
0
LINE
8
BLACK
6
CONTINUOUS
10
108.753
20
-163.855
11
108.752
21
-163.857
0
LINE
8
BLACK
6
CONTINUOUS
10
108.752
20
-163.857
11
108.58
21
-164.068
0
LINE
8
BLACK
6
CONTINUOUS
10
108.58
20
-164.068
11
108.579
21
-164.068
0
LINE
8
BLACK
6
CONTINUOUS
10
108.579
20
-164.068
11
108.578
21
-164.07
0
LINE
8
BLACK
6
CONTINUOUS
10
108.578
20
-164.07
11
108.576
21
-164.072
0
LINE
8
BLACK
6
CONTINUOUS
10
108.576
20
-164.072
11
108.366
21
-164.245
0
LINE
8
BLACK
6
CONTINUOUS
10
108.366
20
-164.245
11
108.366
21
-164.246
0
LINE
8
BLACK
6
CONTINUOUS
10
108.366
20
-164.246
11
108.364
21
-164.247
0
LINE
8
BLACK
6
CONTINUOUS
10
108.364
20
-164.247
11
108.362
21
-164.248
0
LINE
8
BLACK
6
CONTINUOUS
10
108.362
20
-164.248
11
108.122
21
-164.378
0
LINE
8
BLACK
6
CONTINUOUS
10
108.122
20
-164.378
11
108.122
21
-164.378
0
LINE
8
BLACK
6
CONTINUOUS
10
108.122
20
-164.378
11
108.12
21
-164.379
0
LINE
8
BLACK
6
CONTINUOUS
10
108.12
20
-164.379
11
108.118
21
-164.38
0
LINE
8
BLACK
6
CONTINUOUS
10
108.118
20
-164.38
11
107.857
21
-164.46
0
LINE
8
BLACK
6
CONTINUOUS
10
107.857
20
-164.46
11
107.857
21
-164.46
0
LINE
8
BLACK
6
CONTINUOUS
10
107.857
20
-164.46
11
107.855
21
-164.461
0
LINE
8
BLACK
6
CONTINUOUS
10
107.855
20
-164.461
11
107.853
21
-164.461
0
LINE
8
BLACK
6
CONTINUOUS
10
107.853
20
-164.461
11
107.581
21
-164.49
0
LINE
8
BLACK
6
CONTINUOUS
10
107.581
20
-164.49
11
107.581
21
-164.49
0
LINE
8
BLACK
6
CONTINUOUS
10
107.581
20
-164.49
11
107.58
21
-164.49
0
LINE
8
BLACK
6
CONTINUOUS
10
107.58
20
-164.49
11
107.579
21
-164.49
0
LINE
8
BLACK
6
CONTINUOUS
10
107.579
20
-164.49
11
107.57
21
-164.49
0
LINE
8
BLACK
6
CONTINUOUS
10
107.57
20
-164.49
11
107.57
21
-164.49
0
LINE
8
BLACK
6
CONTINUOUS
10
107.57
20
-164.49
11
57.7203
21
-164.49
0
LINE
8
BLACK
6
CONTINUOUS
10
57.7203
20
-164.49
11
57.7191
21
-164.49
0
LINE
8
BLACK
6
CONTINUOUS
10
57.7191
20
-164.49
11
57.7191
21
-164.49
0
LINE
8
BLACK
6
CONTINUOUS
10
57.7191
20
-164.49
11
57.4477
21
-164.463
0
LINE
8
BLACK
6
CONTINUOUS
10
57.4477
20
-164.463
11
57.4474
21
-164.463
0
LINE
8
BLACK
6
CONTINUOUS
10
57.4474
20
-164.463
11
57.4451
21
-164.463
0
LINE
8
BLACK
6
CONTINUOUS
10
57.4451
20
-164.463
11
57.4429
21
-164.462
0
LINE
8
BLACK
6
CONTINUOUS
10
57.4429
20
-164.462
11
57.1819
21
-164.384
0
LINE
8
BLACK
6
CONTINUOUS
10
57.1819
20
-164.384
11
57.1816
21
-164.383
0
LINE
8
BLACK
6
CONTINUOUS
10
57.1816
20
-164.383
11
57.1795
21
-164.383
0
LINE
8
BLACK
6
CONTINUOUS
10
57.1795
20
-164.383
11
57.1774
21
-164.382
0
LINE
8
BLACK
6
CONTINUOUS
10
57.1774
20
-164.382
11
56.9367
21
-164.254
0
LINE
8
BLACK
6
CONTINUOUS
10
56.9367
20
-164.254
11
56.9364
21
-164.253
0
LINE
8
BLACK
6
CONTINUOUS
10
56.9364
20
-164.253
11
56.9345
21
-164.252
0
LINE
8
BLACK
6
CONTINUOUS
10
56.9345
20
-164.252
11
56.9326
21
-164.251
0
LINE
8
BLACK
6
CONTINUOUS
10
56.9326
20
-164.251
11
56.7213
21
-164.079
0
LINE
8
BLACK
6
CONTINUOUS
10
56.7213
20
-164.079
11
56.7211
21
-164.078
0
LINE
8
BLACK
6
CONTINUOUS
10
56.7211
20
-164.078
11
56.7194
21
-164.077
0
LINE
8
BLACK
6
CONTINUOUS
10
56.7194
20
-164.077
11
56.7179
21
-164.075
0
LINE
8
BLACK
6
CONTINUOUS
10
56.7179
20
-164.075
11
56.5441
21
-163.865
0
LINE
8
BLACK
6
CONTINUOUS
10
56.5441
20
-163.865
11
56.5439
21
-163.865
0
LINE
8
BLACK
6
CONTINUOUS
10
56.5439
20
-163.865
11
56.5426
21
-163.863
0
LINE
8
BLACK
6
CONTINUOUS
10
56.5426
20
-163.863
11
56.5413
21
-163.861
0
LINE
8
BLACK
6
CONTINUOUS
10
56.5413
20
-163.861
11
56.4117
21
-163.621
0
LINE
8
BLACK
6
CONTINUOUS
10
56.4117
20
-163.621
11
56.4115
21
-163.621
0
LINE
8
BLACK
6
CONTINUOUS
10
56.4115
20
-163.621
11
56.4106
21
-163.619
0
LINE
8
BLACK
6
CONTINUOUS
10
56.4106
20
-163.619
11
56.4098
21
-163.617
0
LINE
8
BLACK
6
CONTINUOUS
10
56.4098
20
-163.617
11
56.3292
21
-163.356
0
LINE
8
BLACK
6
CONTINUOUS
10
56.3292
20
-163.356
11
56.329
21
-163.356
0
LINE
8
BLACK
6
CONTINUOUS
10
56.329
20
-163.356
11
56.3286
21
-163.354
0
LINE
8
BLACK
6
CONTINUOUS
10
56.3286
20
-163.354
11
56.3282
21
-163.352
0
LINE
8
BLACK
6
CONTINUOUS
10
56.3282
20
-163.352
11
56.2997
21
-163.08
0
LINE
8
BLACK
6
CONTINUOUS
10
56.2997
20
-163.08
11
56.2996
21
-163.08
0
LINE
8
BLACK
6
CONTINUOUS
10
56.2996
20
-163.08
11
56.2996
21
-163.079
0
LINE
8
BLACK
6
CONTINUOUS
10
56.2996
20
-163.079
11
56.2995
21
-163.078
0
LINE
8
BLACK
6
CONTINUOUS
10
56.2995
20
-163.078
11
56.2995
21
-163.069
0
LINE
8
BLACK
6
CONTINUOUS
10
56.2995
20
-163.069
11
56.2995
21
-163.069
0
LINE
8
BLACK
6
CONTINUOUS
10
56.2995
20
-163.069
11
56.2995
21
-163.068
0
LINE
8
BLACK
6
CONTINUOUS
10
56.2995
20
-163.068
11
56.2995
21
-163.068
0
LINE
8
BLACK
6
CONTINUOUS
10
56.2995
20
-163.068
11
56.2995
21
-163.068
0
LINE
8
BLACK
6
CONTINUOUS
10
56.2995
20
-163.068
11
56.2995
21
-132.588
0
LINE
8
BLACK
6
CONTINUOUS
10
56.2995
20
-132.588
11
54.5938
21
-132.588
0
LINE
8
BLACK
6
CONTINUOUS
10
54.5938
20
-132.588
11
54.5926
21
-132.587
0
LINE
8
BLACK
6
CONTINUOUS
10
54.5926
20
-132.587
11
54.5926
21
-132.587
0
LINE
8
BLACK
6
CONTINUOUS
10
54.5926
20
-132.587
11
53.7388
21
-132.506
0
LINE
8
BLACK
6
CONTINUOUS
10
53.7388
20
-132.506
11
53.7364
21
-132.506
0
LINE
8
BLACK
6
CONTINUOUS
10
53.7364
20
-132.506
11
53.7353
21
-132.505
0
LINE
8
BLACK
6
CONTINUOUS
10
53.7353
20
-132.505
11
53.7342
21
-132.505
0
LINE
8
BLACK
6
CONTINUOUS
10
53.7342
20
-132.505
11
52.9112
21
-132.264
0
LINE
8
BLACK
6
CONTINUOUS
10
52.9112
20
-132.264
11
52.9089
21
-132.263
0
LINE
8
BLACK
6
CONTINUOUS
10
52.9089
20
-132.263
11
52.9078
21
-132.262
0
LINE
8
BLACK
6
CONTINUOUS
10
52.9078
20
-132.262
11
52.9068
21
-132.262
0
LINE
8
BLACK
6
CONTINUOUS
10
52.9068
20
-132.262
11
52.1443
21
-131.869
0
LINE
8
BLACK
6
CONTINUOUS
10
52.1443
20
-131.869
11
52.1422
21
-131.868
0
LINE
8
BLACK
6
CONTINUOUS
10
52.1422
20
-131.868
11
52.1412
21
-131.867
0
LINE
8
BLACK
6
CONTINUOUS
10
52.1412
20
-131.867
11
52.1403
21
-131.867
0
LINE
8
BLACK
6
CONTINUOUS
10
52.1403
20
-131.867
11
51.4658
21
-131.337
0
LINE
8
BLACK
6
CONTINUOUS
10
51.4658
20
-131.337
11
51.464
21
-131.335
0
LINE
8
BLACK
6
CONTINUOUS
10
51.464
20
-131.335
11
51.4632
21
-131.334
0
LINE
8
BLACK
6
CONTINUOUS
10
51.4632
20
-131.334
11
51.4624
21
-131.334
0
LINE
8
BLACK
6
CONTINUOUS
10
51.4624
20
-131.334
11
50.9002
21
-130.686
0
LINE
8
BLACK
6
CONTINUOUS
10
50.9002
20
-130.686
11
50.8987
21
-130.684
0
LINE
8
BLACK
6
CONTINUOUS
10
50.8987
20
-130.684
11
50.8982
21
-130.683
0
LINE
8
BLACK
6
CONTINUOUS
10
50.8982
20
-130.683
11
50.8975
21
-130.682
0
LINE
8
BLACK
6
CONTINUOUS
10
50.8975
20
-130.682
11
50.468
21
-129.94
0
LINE
8
BLACK
6
CONTINUOUS
10
50.468
20
-129.94
11
50.4669
21
-129.937
0
LINE
8
BLACK
6
CONTINUOUS
10
50.4669
20
-129.937
11
50.4665
21
-129.936
0
LINE
8
BLACK
6
CONTINUOUS
10
50.4665
20
-129.936
11
50.466
21
-129.935
0
LINE
8
BLACK
6
CONTINUOUS
10
50.466
20
-129.935
11
50.1847
21
-129.125
0
LINE
8
BLACK
6
CONTINUOUS
10
50.1847
20
-129.125
11
50.184
21
-129.123
0
LINE
8
BLACK
6
CONTINUOUS
10
50.184
20
-129.123
11
50.1838
21
-129.121
0
LINE
8
BLACK
6
CONTINUOUS
10
50.1838
20
-129.121
11
50.1835
21
-129.12
0
LINE
8
BLACK
6
CONTINUOUS
10
50.1835
20
-129.12
11
50.0605
21
-128.272
0
LINE
8
BLACK
6
CONTINUOUS
10
50.0605
20
-128.272
11
50.0602
21
-128.269
0
LINE
8
BLACK
6
CONTINUOUS
10
50.0602
20
-128.269
11
50.0603
21
-128.268
0
LINE
8
BLACK
6
CONTINUOUS
10
50.0603
20
-128.268
11
50.0602
21
-128.267
0
LINE
8
BLACK
6
CONTINUOUS
10
50.0602
20
-128.267
11
50.0999
21
-127.41
0
LINE
8
BLACK
6
CONTINUOUS
10
50.0999
20
-127.41
11
50.1001
21
-127.408
0
LINE
8
BLACK
6
CONTINUOUS
10
50.1001
20
-127.408
11
50.1004
21
-127.406
0
LINE
8
BLACK
6
CONTINUOUS
10
50.1004
20
-127.406
11
50.1006
21
-127.405
0
LINE
8
BLACK
6
CONTINUOUS
10
50.1006
20
-127.405
11
50.3015
21
-126.572
0
LINE
8
BLACK
6
CONTINUOUS
10
50.3015
20
-126.572
11
50.3022
21
-126.569
0
LINE
8
BLACK
6
CONTINUOUS
10
50.3022
20
-126.569
11
50.3027
21
-126.568
0
LINE
8
BLACK
6
CONTINUOUS
10
50.3027
20
-126.568
11
50.3031
21
-126.567
0
LINE
8
BLACK
6
CONTINUOUS
10
50.3031
20
-126.567
11
50.658
21
-125.786
0
LINE
8
BLACK
6
CONTINUOUS
10
50.658
20
-125.786
11
50.6592
21
-125.784
0
LINE
8
BLACK
6
CONTINUOUS
10
50.6592
20
-125.784
11
50.6598
21
-125.783
0
LINE
8
BLACK
6
CONTINUOUS
10
50.6598
20
-125.783
11
50.6604
21
-125.782
0
LINE
8
BLACK
6
CONTINUOUS
10
50.6604
20
-125.782
11
51.1566
21
-125.083
0
LINE
8
BLACK
6
CONTINUOUS
10
51.1566
20
-125.083
11
51.1566
21
-125.083
0
LINE
8
BLACK
6
CONTINUOUS
10
51.1566
20
-125.083
11
51.1566
21
-125.083
0
LINE
8
BLACK
6
CONTINUOUS
10
51.1566
20
-125.083
11
51.1581
21
-125.081
0
LINE
8
BLACK
6
CONTINUOUS
10
51.1581
20
-125.081
11
51.159
21
-125.08
0
LINE
8
BLACK
6
CONTINUOUS
10
51.159
20
-125.08
11
51.1597
21
-125.079
0
LINE
8
BLACK
6
CONTINUOUS
10
51.1597
20
-125.079
11
51.7793
21
-124.486
0
LINE
8
BLACK
6
CONTINUOUS
10
51.7793
20
-124.486
11
51.7811
21
-124.484
0
LINE
8
BLACK
6
CONTINUOUS
10
51.7811
20
-124.484
11
51.7821
21
-124.484
0
LINE
8
BLACK
6
CONTINUOUS
10
51.7821
20
-124.484
11
51.783
21
-124.483
0
LINE
8
BLACK
6
CONTINUOUS
10
51.783
20
-124.483
11
52.5035
21
-124.018
0
LINE
8
BLACK
6
CONTINUOUS
10
52.5035
20
-124.018
11
52.5036
21
-124.018
0
LINE
8
BLACK
6
CONTINUOUS
10
52.5036
20
-124.018
11
52.5036
21
-124.018
0
LINE
8
BLACK
6
CONTINUOUS
10
52.5036
20
-124.018
11
52.5057
21
-124.017
0
LINE
8
BLACK
6
CONTINUOUS
10
52.5057
20
-124.017
11
52.5067
21
-124.016
0
LINE
8
BLACK
6
CONTINUOUS
10
52.5067
20
-124.016
11
52.5078
21
-124.016
0
LINE
8
BLACK
6
CONTINUOUS
10
52.5078
20
-124.016
11
53.3033
21
-123.695
0
LINE
8
BLACK
6
CONTINUOUS
10
53.3033
20
-123.695
11
53.3056
21
-123.694
0
LINE
8
BLACK
6
CONTINUOUS
10
53.3056
20
-123.694
11
53.3067
21
-123.694
0
LINE
8
BLACK
6
CONTINUOUS
10
53.3067
20
-123.694
11
53.3078
21
-123.694
0
LINE
8
BLACK
6
CONTINUOUS
10
53.3078
20
-123.694
11
54.1496
21
-123.529
0
LINE
8
BLACK
6
CONTINUOUS
10
54.1496
20
-123.529
11
54.152
21
-123.529
0
LINE
8
BLACK
6
CONTINUOUS
10
54.152
20
-123.529
11
54.1526
21
-123.529
0
LINE
8
BLACK
6
CONTINUOUS
10
54.1526
20
-123.529
11
54.1532
21
-123.529
0
LINE
8
BLACK
6
CONTINUOUS
10
54.1532
20
-123.529
11
54.5932
21
-123.507
0
LINE
8
BLACK
6
CONTINUOUS
10
54.5932
20
-123.507
11
54.5938
21
-123.507
0
LINE
8
BLACK
6
CONTINUOUS
10
54.5938
20
-123.507
11
56.2995
21
-123.507
0
LINE
8
BLACK
6
CONTINUOUS
10
56.2995
20
-123.507
11
56.2995
21
-64.5148
0
LINE
8
BLACK
6
CONTINUOUS
10
56.2995
20
-64.5148
11
56.2996
21
-64.5136
0
LINE
8
BLACK
6
CONTINUOUS
10
56.2996
20
-64.5136
11
56.2996
21
-64.5136
0
LINE
8
BLACK
6
CONTINUOUS
10
56.2996
20
-64.5136
11
56.3262
21
-64.2422
0
LINE
8
BLACK
6
CONTINUOUS
10
56.3262
20
-64.2422
11
56.3263
21
-64.2419
0
LINE
8
BLACK
6
CONTINUOUS
10
56.3263
20
-64.2419
11
56.3267
21
-64.2396
0
LINE
8
BLACK
6
CONTINUOUS
10
56.3267
20
-64.2396
11
56.3272
21
-64.2374
0
LINE
8
BLACK
6
CONTINUOUS
10
56.3272
20
-64.2374
11
56.406
21
-63.9764
0
LINE
8
BLACK
6
CONTINUOUS
10
56.406
20
-63.9764
11
56.4061
21
-63.9761
0
LINE
8
BLACK
6
CONTINUOUS
10
56.4061
20
-63.9761
11
56.407
21
-63.974
0
LINE
8
BLACK
6
CONTINUOUS
10
56.407
20
-63.974
11
56.4078
21
-63.9719
0
LINE
8
BLACK
6
CONTINUOUS
10
56.4078
20
-63.9719
11
56.5358
21
-63.7312
0
LINE
8
BLACK
6
CONTINUOUS
10
56.5358
20
-63.7312
11
56.536
21
-63.7309
0
LINE
8
BLACK
6
CONTINUOUS
10
56.536
20
-63.7309
11
56.5373
21
-63.729
0
LINE
8
BLACK
6
CONTINUOUS
10
56.5373
20
-63.729
11
56.5385
21
-63.7271
0
LINE
8
BLACK
6
CONTINUOUS
10
56.5385
20
-63.7271
11
56.7109
21
-63.5158
0
LINE
8
BLACK
6
CONTINUOUS
10
56.7109
20
-63.5158
11
56.7109
21
-63.5158
0
LINE
8
BLACK
6
CONTINUOUS
10
56.7109
20
-63.5158
11
56.7109
21
-63.5158
0
LINE
8
BLACK
6
CONTINUOUS
10
56.7109
20
-63.5158
11
56.7111
21
-63.5156
0
LINE
8
BLACK
6
CONTINUOUS
10
56.7111
20
-63.5156
11
56.7127
21
-63.514
0
LINE
8
BLACK
6
CONTINUOUS
10
56.7127
20
-63.514
11
56.7143
21
-63.5124
0
LINE
8
BLACK
6
CONTINUOUS
10
56.7143
20
-63.5124
11
56.9244
21
-63.3386
0
LINE
8
BLACK
6
CONTINUOUS
10
56.9244
20
-63.3386
11
56.9246
21
-63.3384
0
LINE
8
BLACK
6
CONTINUOUS
10
56.9246
20
-63.3384
11
56.9266
21
-63.3371
0
LINE
8
BLACK
6
CONTINUOUS
10
56.9266
20
-63.3371
11
56.9284
21
-63.3358
0
LINE
8
BLACK
6
CONTINUOUS
10
56.9284
20
-63.3358
11
57.1682
21
-63.2062
0
LINE
8
BLACK
6
CONTINUOUS
10
57.1682
20
-63.2062
11
57.1683
21
-63.2062
0
LINE
8
BLACK
6
CONTINUOUS
10
57.1683
20
-63.2062
11
57.1683
21
-63.2062
0
LINE
8
BLACK
6
CONTINUOUS
10
57.1683
20
-63.2062
11
57.1686
21
-63.206
0
LINE
8
BLACK
6
CONTINUOUS
10
57.1686
20
-63.206
11
57.1707
21
-63.2051
0
LINE
8
BLACK
6
CONTINUOUS
10
57.1707
20
-63.2051
11
57.1727
21
-63.2043
0
LINE
8
BLACK
6
CONTINUOUS
10
57.1727
20
-63.2043
11
57.4332
21
-63.1237
0
LINE
8
BLACK
6
CONTINUOUS
10
57.4332
20
-63.1237
11
57.4335
21
-63.1235
0
LINE
8
BLACK
6
CONTINUOUS
10
57.4335
20
-63.1235
11
57.4358
21
-63.1231
0
LINE
8
BLACK
6
CONTINUOUS
10
57.4358
20
-63.1231
11
57.438
21
-63.1227
0
LINE
8
BLACK
6
CONTINUOUS
10
57.438
20
-63.1227
11
57.7091
21
-63.0942
0
LINE
8
BLACK
6
CONTINUOUS
10
57.7091
20
-63.0942
11
57.7095
21
-63.0941
0
LINE
8
BLACK
6
CONTINUOUS
10
57.7095
20
-63.0941
11
57.7106
21
-63.0941
0
LINE
8
BLACK
6
CONTINUOUS
10
57.7106
20
-63.0941
11
57.7117
21
-63.094
0
LINE
8
BLACK
6
CONTINUOUS
10
57.7117
20
-63.094
11
57.7202
21
-63.094
0
LINE
8
BLACK
6
CONTINUOUS
10
57.7202
20
-63.094
11
57.7203
21
-63.094
0
LINE
8
BLACK
6
CONTINUOUS
10
57.7203
20
-63.094
11
69.0503
21
-63.094
0
LINE
8
BLACK
6
CONTINUOUS
10
69.0503
20
-63.094
11
69.0503
21
-61.3883
0
LINE
8
BLACK
6
CONTINUOUS
10
69.0503
20
-61.3883
11
69.0504
21
-61.3871
0
LINE
8
BLACK
6
CONTINUOUS
10
69.0504
20
-61.3871
11
69.0504
21
-61.3871
0
LINE
8
BLACK
6
CONTINUOUS
10
69.0504
20
-61.3871
11
69.1319
21
-60.5333
0
LINE
8
BLACK
6
CONTINUOUS
10
69.1319
20
-60.5333
11
69.1322
21
-60.5309
0
LINE
8
BLACK
6
CONTINUOUS
10
69.1322
20
-60.5309
11
69.1326
21
-60.5298
0
LINE
8
BLACK
6
CONTINUOUS
10
69.1326
20
-60.5298
11
69.1328
21
-60.5287
0
LINE
8
BLACK
6
CONTINUOUS
10
69.1328
20
-60.5287
11
69.3742
21
-59.7057
0
LINE
8
BLACK
6
CONTINUOUS
10
69.3742
20
-59.7057
11
69.375
21
-59.7034
0
LINE
8
BLACK
6
CONTINUOUS
10
69.375
20
-59.7034
11
69.3756
21
-59.7023
0
LINE
8
BLACK
6
CONTINUOUS
10
69.3756
20
-59.7023
11
69.376
21
-59.7013
0
LINE
8
BLACK
6
CONTINUOUS
10
69.376
20
-59.7013
11
69.7687
21
-58.9388
0
LINE
8
BLACK
6
CONTINUOUS
10
69.7687
20
-58.9388
11
69.7699
21
-58.9367
0
LINE
8
BLACK
6
CONTINUOUS
10
69.7699
20
-58.9367
11
69.7706
21
-58.9357
0
LINE
8
BLACK
6
CONTINUOUS
10
69.7706
20
-58.9357
11
69.7713
21
-58.9348
0
LINE
8
BLACK
6
CONTINUOUS
10
69.7713
20
-58.9348
11
70.3011
21
-58.2603
0
LINE
8
BLACK
6
CONTINUOUS
10
70.3011
20
-58.2603
11
70.3027
21
-58.2585
0
LINE
8
BLACK
6
CONTINUOUS
10
70.3027
20
-58.2585
11
70.3036
21
-58.2577
0
LINE
8
BLACK
6
CONTINUOUS
10
70.3036
20
-58.2577
11
70.3043
21
-58.2569
0
LINE
8
BLACK
6
CONTINUOUS
10
70.3043
20
-58.2569
11
70.9521
21
-57.6947
0
LINE
8
BLACK
6
CONTINUOUS
10
70.9521
20
-57.6947
11
70.9541
21
-57.6932
0
LINE
8
BLACK
6
CONTINUOUS
10
70.9541
20
-57.6932
11
70.9551
21
-57.6927
0
LINE
8
BLACK
6
CONTINUOUS
10
70.9551
20
-57.6927
11
70.956
21
-57.692
0
LINE
8
BLACK
6
CONTINUOUS
10
70.956
20
-57.692
11
71.6984
21
-57.2625
0
LINE
8
BLACK
6
CONTINUOUS
10
71.6984
20
-57.2625
11
71.7006
21
-57.2614
0
LINE
8
BLACK
6
CONTINUOUS
10
71.7006
20
-57.2614
11
71.7017
21
-57.261
0
LINE
8
BLACK
6
CONTINUOUS
10
71.7017
20
-57.261
11
71.7027
21
-57.2605
0
LINE
8
BLACK
6
CONTINUOUS
10
71.7027
20
-57.2605
11
72.5129
21
-56.9792
0
LINE
8
BLACK
6
CONTINUOUS
10
72.5129
20
-56.9792
11
72.5153
21
-56.9785
0
LINE
8
BLACK
6
CONTINUOUS
10
72.5153
20
-56.9785
11
72.5164
21
-56.9783
0
LINE
8
BLACK
6
CONTINUOUS
10
72.5164
20
-56.9783
11
72.5175
21
-56.978
0
LINE
8
BLACK
6
CONTINUOUS
10
72.5175
20
-56.978
11
73.3663
21
-56.855
0
LINE
8
BLACK
6
CONTINUOUS
10
73.3663
20
-56.855
11
73.3688
21
-56.8547
0
LINE
8
BLACK
6
CONTINUOUS
10
73.3688
20
-56.8547
11
73.3699
21
-56.8548
0
LINE
8
BLACK
6
CONTINUOUS
10
73.3699
20
-56.8548
11
73.3711
21
-56.8547
0
LINE
8
BLACK
6
CONTINUOUS
10
73.3711
20
-56.8547
11
74.2279
21
-56.8944
0
LINE
8
BLACK
6
CONTINUOUS
10
74.2279
20
-56.8944
11
74.2303
21
-56.8946
0
LINE
8
BLACK
6
CONTINUOUS
10
74.2303
20
-56.8946
11
74.2314
21
-56.8949
0
LINE
8
BLACK
6
CONTINUOUS
10
74.2314
20
-56.8949
11
74.2326
21
-56.8951
0
LINE
8
BLACK
6
CONTINUOUS
10
74.2326
20
-56.8951
11
75.0664
21
-57.096
0
LINE
8
BLACK
6
CONTINUOUS
10
75.0664
20
-57.096
11
75.0664
21
-57.096
0
LINE
8
BLACK
6
CONTINUOUS
10
75.0664
20
-57.096
11
75.0664
21
-57.096
0
LINE
8
BLACK
6
CONTINUOUS
10
75.0664
20
-57.096
11
75.0687
21
-57.0967
0
LINE
8
BLACK
6
CONTINUOUS
10
75.0687
20
-57.0967
11
75.0698
21
-57.0972
0
LINE
8
BLACK
6
CONTINUOUS
10
75.0698
20
-57.0972
11
75.0708
21
-57.0976
0
LINE
8
BLACK
6
CONTINUOUS
10
75.0708
20
-57.0976
11
75.8516
21
-57.4525
0
LINE
8
BLACK
6
CONTINUOUS
10
75.8516
20
-57.4525
11
75.8538
21
-57.4537
0
LINE
8
BLACK
6
CONTINUOUS
10
75.8538
20
-57.4537
11
75.8547
21
-57.4543
0
LINE
8
BLACK
6
CONTINUOUS
10
75.8547
20
-57.4543
11
75.8557
21
-57.4549
0
LINE
8
BLACK
6
CONTINUOUS
10
75.8557
20
-57.4549
11
76.5553
21
-57.9511
0
LINE
8
BLACK
6
CONTINUOUS
10
76.5553
20
-57.9511
11
76.5553
21
-57.9511
0
LINE
8
BLACK
6
CONTINUOUS
10
76.5553
20
-57.9511
11
76.5553
21
-57.9511
0
LINE
8
BLACK
6
CONTINUOUS
10
76.5553
20
-57.9511
11
76.5572
21
-57.9526
0
LINE
8
BLACK
6
CONTINUOUS
10
76.5572
20
-57.9526
11
76.558
21
-57.9535
0
LINE
8
BLACK
6
CONTINUOUS
10
76.558
20
-57.9535
11
76.5589
21
-57.9542
0
LINE
8
BLACK
6
CONTINUOUS
10
76.5589
20
-57.9542
11
77.152
21
-58.5738
0
LINE
8
BLACK
6
CONTINUOUS
10
77.152
20
-58.5738
11
77.1536
21
-58.5756
0
LINE
8
BLACK
6
CONTINUOUS
10
77.1536
20
-58.5756
11
77.1542
21
-58.5766
0
LINE
8
BLACK
6
CONTINUOUS
10
77.1542
20
-58.5766
11
77.1549
21
-58.5775
0
LINE
8
BLACK
6
CONTINUOUS
10
77.1549
20
-58.5775
11
77.6201
21
-59.298
0
LINE
8
BLACK
6
CONTINUOUS
10
77.6201
20
-59.298
11
77.6202
21
-59.2981
0
LINE
8
BLACK
6
CONTINUOUS
10
77.6202
20
-59.2981
11
77.6202
21
-59.2981
0
LINE
8
BLACK
6
CONTINUOUS
10
77.6202
20
-59.2981
11
77.6214
21
-59.3002
0
LINE
8
BLACK
6
CONTINUOUS
10
77.6214
20
-59.3002
11
77.6218
21
-59.3012
0
LINE
8
BLACK
6
CONTINUOUS
10
77.6218
20
-59.3012
11
77.6223
21
-59.3023
0
LINE
8
BLACK
6
CONTINUOUS
10
77.6223
20
-59.3023
11
77.9429
21
-60.0978
0
LINE
8
BLACK
6
CONTINUOUS
10
77.9429
20
-60.0978
11
77.9437
21
-60.1001
0
LINE
8
BLACK
6
CONTINUOUS
10
77.9437
20
-60.1001
11
77.944
21
-60.1012
0
LINE
8
BLACK
6
CONTINUOUS
10
77.944
20
-60.1012
11
77.9443
21
-60.1023
0
LINE
8
BLACK
6
CONTINUOUS
10
77.9443
20
-60.1023
11
78.1087
21
-60.9441
0
LINE
8
BLACK
6
CONTINUOUS
10
78.1087
20
-60.9441
11
78.109
21
-60.9465
0
LINE
8
BLACK
6
CONTINUOUS
10
78.109
20
-60.9465
11
78.109
21
-60.9471
0
LINE
8
BLACK
6
CONTINUOUS
10
78.109
20
-60.9471
11
78.1091
21
-60.9477
0
LINE
8
BLACK
6
CONTINUOUS
10
78.1091
20
-60.9477
11
78.1306
21
-61.3877
0
LINE
8
BLACK
6
CONTINUOUS
10
78.1306
20
-61.3877
11
78.1307
21
-61.3883
0
LINE
8
BLACK
6
CONTINUOUS
10
78.1307
20
-61.3883
11
78.1307
21
-63.094
0
LINE
8
BLACK
6
CONTINUOUS
10
78.1307
20
-63.094
11
103.632
21
-63.094
0
LINE
8
BLACK
6
CONTINUOUS
10
103.632
20
-63.094
11
103.64
21
-63.094
0
LINE
8
BLACK
6
CONTINUOUS
10
103.64
20
-63.094
11
103.908
21
-63.0659
0
LINE
8
BLACK
6
CONTINUOUS
10
103.908
20
-63.0659
11
104.164
21
-62.9867
0
LINE
8
BLACK
6
CONTINUOUS
10
104.164
20
-62.9867
11
104.399
21
-62.8593
0
LINE
8
BLACK
6
CONTINUOUS
10
104.399
20
-62.8593
11
104.605
21
-62.6887
0
LINE
8
BLACK
6
CONTINUOUS
10
104.605
20
-62.6887
11
104.775
21
-62.4812
0
LINE
8
BLACK
6
CONTINUOUS
10
104.775
20
-62.4812
11
104.9
21
-62.2448
0
LINE
8
BLACK
6
CONTINUOUS
10
104.9
20
-62.2448
11
104.978
21
-61.9885
0
LINE
8
BLACK
6
CONTINUOUS
10
104.978
20
-61.9885
11
105.004
21
-61.7208
0
LINE
8
BLACK
6
CONTINUOUS
10
105.004
20
-61.7208
11
105.004
21
-59.7523
0
LINE
8
BLACK
6
CONTINUOUS
10
105.004
20
-59.7523
11
105.004
21
-59.7511
0
LINE
8
BLACK
6
CONTINUOUS
10
105.004
20
-59.7511
11
105.004
21
-59.7511
0
LINE
8
BLACK
6
CONTINUOUS
10
105.004
20
-59.7511
11
105.031
21
-59.4797
0
LINE
8
BLACK
6
CONTINUOUS
10
105.031
20
-59.4797
11
105.031
21
-59.4794
0
LINE
8
BLACK
6
CONTINUOUS
10
105.031
20
-59.4794
11
105.031
21
-59.4771
0
LINE
8
BLACK
6
CONTINUOUS
10
105.031
20
-59.4771
11
105.032
21
-59.4749
0
LINE
8
BLACK
6
CONTINUOUS
10
105.032
20
-59.4749
11
105.11
21
-59.2139
0
LINE
8
BLACK
6
CONTINUOUS
10
105.11
20
-59.2139
11
105.111
21
-59.2136
0
LINE
8
BLACK
6
CONTINUOUS
10
105.111
20
-59.2136
11
105.111
21
-59.2115
0
LINE
8
BLACK
6
CONTINUOUS
10
105.111
20
-59.2115
11
105.112
21
-59.2094
0
LINE
8
BLACK
6
CONTINUOUS
10
105.112
20
-59.2094
11
105.24
21
-58.9687
0
LINE
8
BLACK
6
CONTINUOUS
10
105.24
20
-58.9687
11
105.241
21
-58.9684
0
LINE
8
BLACK
6
CONTINUOUS
10
105.241
20
-58.9684
11
105.242
21
-58.9665
0
LINE
8
BLACK
6
CONTINUOUS
10
105.242
20
-58.9665
11
105.243
21
-58.9646
0
LINE
8
BLACK
6
CONTINUOUS
10
105.243
20
-58.9646
11
105.415
21
-58.7533
0
LINE
8
BLACK
6
CONTINUOUS
10
105.415
20
-58.7533
11
105.415
21
-58.7533
0
LINE
8
BLACK
6
CONTINUOUS
10
105.415
20
-58.7533
11
105.415
21
-58.7533
0
LINE
8
BLACK
6
CONTINUOUS
10
105.415
20
-58.7533
11
105.416
21
-58.7531
0
LINE
8
BLACK
6
CONTINUOUS
10
105.416
20
-58.7531
11
105.417
21
-58.7515
0
LINE
8
BLACK
6
CONTINUOUS
10
105.417
20
-58.7515
11
105.419
21
-58.7499
0
LINE
8
BLACK
6
CONTINUOUS
10
105.419
20
-58.7499
11
105.629
21
-58.5761
0
LINE
8
BLACK
6
CONTINUOUS
10
105.629
20
-58.5761
11
105.629
21
-58.5759
0
LINE
8
BLACK
6
CONTINUOUS
10
105.629
20
-58.5759
11
105.631
21
-58.5746
0
LINE
8
BLACK
6
CONTINUOUS
10
105.631
20
-58.5746
11
105.633
21
-58.5733
0
LINE
8
BLACK
6
CONTINUOUS
10
105.633
20
-58.5733
11
105.873
21
-58.4437
0
LINE
8
BLACK
6
CONTINUOUS
10
105.873
20
-58.4437
11
105.873
21
-58.4437
0
LINE
8
BLACK
6
CONTINUOUS
10
105.873
20
-58.4437
11
105.873
21
-58.4437
0
LINE
8
BLACK
6
CONTINUOUS
10
105.873
20
-58.4437
11
105.873
21
-58.4435
0
LINE
8
BLACK
6
CONTINUOUS
10
105.873
20
-58.4435
11
105.875
21
-58.4426
0
LINE
8
BLACK
6
CONTINUOUS
10
105.875
20
-58.4426
11
105.877
21
-58.4418
0
LINE
8
BLACK
6
CONTINUOUS
10
105.877
20
-58.4418
11
106.138
21
-58.3612
0
LINE
8
BLACK
6
CONTINUOUS
10
106.138
20
-58.3612
11
106.138
21
-58.361
0
LINE
8
BLACK
6
CONTINUOUS
10
106.138
20
-58.361
11
106.14
21
-58.3606
0
LINE
8
BLACK
6
CONTINUOUS
10
106.14
20
-58.3606
11
106.142
21
-58.3602
0
LINE
8
BLACK
6
CONTINUOUS
10
106.142
20
-58.3602
11
106.414
21
-58.3317
0
LINE
8
BLACK
6
CONTINUOUS
10
106.414
20
-58.3317
11
106.414
21
-58.3316
0
LINE
8
BLACK
6
CONTINUOUS
10
106.414
20
-58.3316
11
106.415
21
-58.3316
0
LINE
8
BLACK
6
CONTINUOUS
10
106.415
20
-58.3316
11
106.416
21
-58.3315
0
LINE
8
BLACK
6
CONTINUOUS
10
106.416
20
-58.3315
11
106.425
21
-58.3315
0
LINE
8
BLACK
6
CONTINUOUS
10
106.425
20
-58.3315
11
106.425
21
-58.3315
0
LINE
8
BLACK
6
CONTINUOUS
10
106.425
20
-58.3315
11
122.682
21
-58.3315
0
LINE
8
BLACK
6
CONTINUOUS
10
122.682
20
-58.3315
11
122.69
21
-58.3315
0
LINE
8
BLACK
6
CONTINUOUS
10
122.69
20
-58.3315
11
122.958
21
-58.3034
0
LINE
8
BLACK
6
CONTINUOUS
10
122.958
20
-58.3034
11
123.214
21
-58.2242
0
LINE
8
BLACK
6
CONTINUOUS
10
123.214
20
-58.2242
11
123.449
21
-58.0968
0
LINE
8
BLACK
6
CONTINUOUS
10
123.449
20
-58.0968
11
123.655
21
-57.9262
0
LINE
8
BLACK
6
CONTINUOUS
10
123.655
20
-57.9262
11
123.825
21
-57.7187
0
LINE
8
BLACK
6
CONTINUOUS
10
123.825
20
-57.7187
11
123.95
21
-57.4823
0
LINE
8
BLACK
6
CONTINUOUS
10
123.95
20
-57.4823
11
124.028
21
-57.226
0
LINE
8
BLACK
6
CONTINUOUS
10
124.028
20
-57.226
11
124.054
21
-56.9583
0
LINE
8
BLACK
6
CONTINUOUS
10
124.054
20
-56.9583
11
124.054
21
-56.5773
0
LINE
8
BLACK
6
CONTINUOUS
10
124.054
20
-56.5773
11
124.054
21
-56.5761
0
LINE
8
BLACK
6
CONTINUOUS
10
124.054
20
-56.5761
11
124.054
21
-56.5761
0
LINE
8
BLACK
6
CONTINUOUS
10
124.054
20
-56.5761
11
124.065
21
-56.4651
0
LINE
8
BLACK
6
CONTINUOUS
10
124.065
20
-56.4651
11
124.065
21
-56.4647
0
LINE
8
BLACK
6
CONTINUOUS
10
124.065
20
-56.4647
11
124.066
21
-56.4625
0
LINE
8
BLACK
6
CONTINUOUS
10
124.066
20
-56.4625
11
124.066
21
-56.4603
0
LINE
8
BLACK
6
CONTINUOUS
10
124.066
20
-56.4603
11
124.098
21
-56.3535
0
LINE
8
BLACK
6
CONTINUOUS
10
124.098
20
-56.3535
11
124.098
21
-56.3532
0
LINE
8
BLACK
6
CONTINUOUS
10
124.098
20
-56.3532
11
124.099
21
-56.3511
0
LINE
8
BLACK
6
CONTINUOUS
10
124.099
20
-56.3511
11
124.1
21
-56.349
0
LINE
8
BLACK
6
CONTINUOUS
10
124.1
20
-56.349
11
124.152
21
-56.2505
0
LINE
8
BLACK
6
CONTINUOUS
10
124.152
20
-56.2505
11
124.153
21
-56.2502
0
LINE
8
BLACK
6
CONTINUOUS
10
124.153
20
-56.2502
11
124.154
21
-56.2483
0
LINE
8
BLACK
6
CONTINUOUS
10
124.154
20
-56.2483
11
124.155
21
-56.2464
0
LINE
8
BLACK
6
CONTINUOUS
10
124.155
20
-56.2464
11
124.226
21
-56.16
0
LINE
8
BLACK
6
CONTINUOUS
10
124.226
20
-56.16
11
124.226
21
-56.16
0
LINE
8
BLACK
6
CONTINUOUS
10
124.226
20
-56.16
11
124.226
21
-56.16
0
LINE
8
BLACK
6
CONTINUOUS
10
124.226
20
-56.16
11
124.226
21
-56.1597
0
LINE
8
BLACK
6
CONTINUOUS
10
124.226
20
-56.1597
11
124.227
21
-56.1582
0
LINE
8
BLACK
6
CONTINUOUS
10
124.227
20
-56.1582
11
124.229
21
-56.1565
0
LINE
8
BLACK
6
CONTINUOUS
10
124.229
20
-56.1565
11
124.315
21
-56.0854
0
LINE
8
BLACK
6
CONTINUOUS
10
124.315
20
-56.0854
11
124.315
21
-56.0854
0
LINE
8
BLACK
6
CONTINUOUS
10
124.315
20
-56.0854
11
124.315
21
-56.0854
0
LINE
8
BLACK
6
CONTINUOUS
10
124.315
20
-56.0854
11
124.315
21
-56.0852
0
LINE
8
BLACK
6
CONTINUOUS
10
124.315
20
-56.0852
11
124.317
21
-56.084
0
LINE
8
BLACK
6
CONTINUOUS
10
124.317
20
-56.084
11
124.319
21
-56.0827
0
LINE
8
BLACK
6
CONTINUOUS
10
124.319
20
-56.0827
11
124.417
21
-56.0297
0
LINE
8
BLACK
6
CONTINUOUS
10
124.417
20
-56.0297
11
124.417
21
-56.0297
0
LINE
8
BLACK
6
CONTINUOUS
10
124.417
20
-56.0297
11
124.417
21
-56.0297
0
LINE
8
BLACK
6
CONTINUOUS
10
124.417
20
-56.0297
11
124.417
21
-56.0295
0
LINE
8
BLACK
6
CONTINUOUS
10
124.417
20
-56.0295
11
124.42
21
-56.0286
0
LINE
8
BLACK
6
CONTINUOUS
10
124.42
20
-56.0286
11
124.422
21
-56.0278
0
LINE
8
BLACK
6
CONTINUOUS
10
124.422
20
-56.0278
11
124.528
21
-55.9948
0
LINE
8
BLACK
6
CONTINUOUS
10
124.528
20
-55.9948
11
124.529
21
-55.9947
0
LINE
8
BLACK
6
CONTINUOUS
10
124.529
20
-55.9947
11
124.531
21
-55.9943
0
LINE
8
BLACK
6
CONTINUOUS
10
124.531
20
-55.9943
11
124.533
21
-55.9938
0
LINE
8
BLACK
6
CONTINUOUS
10
124.533
20
-55.9938
11
124.644
21
-55.9822
0
LINE
8
BLACK
6
CONTINUOUS
10
124.644
20
-55.9822
11
124.644
21
-55.9821
0
LINE
8
BLACK
6
CONTINUOUS
10
124.644
20
-55.9821
11
124.645
21
-55.9821
0
LINE
8
BLACK
6
CONTINUOUS
10
124.645
20
-55.9821
11
124.646
21
-55.982
0
LINE
8
BLACK
6
CONTINUOUS
10
124.646
20
-55.982
11
124.649
21
-55.982
0
LINE
8
BLACK
6
CONTINUOUS
10
124.649
20
-55.982
11
124.649
21
-55.982
0
LINE
8
BLACK
6
CONTINUOUS
10
124.649
20
-55.982
11
146.496
21
-55.982
0
LINE
8
BLACK
6
CONTINUOUS
10
146.496
20
-55.982
11
146.497
21
-55.9821
0
LINE
8
BLACK
6
CONTINUOUS
10
146.497
20
-55.9821
11
146.497
21
-55.9821
0
LINE
8
BLACK
6
CONTINUOUS
10
146.497
20
-55.9821
11
146.608
21
-55.993
0
LINE
8
BLACK
6
CONTINUOUS
10
146.608
20
-55.993
11
146.608
21
-55.993
0
LINE
8
BLACK
6
CONTINUOUS
10
146.608
20
-55.993
11
146.611
21
-55.9935
0
LINE
8
BLACK
6
CONTINUOUS
10
146.611
20
-55.9935
11
146.613
21
-55.994
0
LINE
8
BLACK
6
CONTINUOUS
10
146.613
20
-55.994
11
146.72
21
-56.0262
0
LINE
8
BLACK
6
CONTINUOUS
10
146.72
20
-56.0262
11
146.72
21
-56.0263
0
LINE
8
BLACK
6
CONTINUOUS
10
146.72
20
-56.0263
11
146.722
21
-56.0272
0
LINE
8
BLACK
6
CONTINUOUS
10
146.722
20
-56.0272
11
146.724
21
-56.028
0
LINE
8
BLACK
6
CONTINUOUS
10
146.724
20
-56.028
11
146.822
21
-56.0804
0
LINE
8
BLACK
6
CONTINUOUS
10
146.822
20
-56.0804
11
146.823
21
-56.0806
0
LINE
8
BLACK
6
CONTINUOUS
10
146.823
20
-56.0806
11
146.825
21
-56.0819
0
LINE
8
BLACK
6
CONTINUOUS
10
146.825
20
-56.0819
11
146.827
21
-56.0831
0
LINE
8
BLACK
6
CONTINUOUS
10
146.827
20
-56.0831
11
146.913
21
-56.1536
0
LINE
8
BLACK
6
CONTINUOUS
10
146.913
20
-56.1536
11
146.913
21
-56.1536
0
LINE
8
BLACK
6
CONTINUOUS
10
146.913
20
-56.1536
11
146.913
21
-56.1536
0
LINE
8
BLACK
6
CONTINUOUS
10
146.913
20
-56.1536
11
146.913
21
-56.1538
0
LINE
8
BLACK
6
CONTINUOUS
10
146.913
20
-56.1538
11
146.915
21
-56.1554
0
LINE
8
BLACK
6
CONTINUOUS
10
146.915
20
-56.1554
11
146.916
21
-56.157
0
LINE
8
BLACK
6
CONTINUOUS
10
146.916
20
-56.157
11
146.988
21
-56.243
0
LINE
8
BLACK
6
CONTINUOUS
10
146.988
20
-56.243
11
146.988
21
-56.243
0
LINE
8
BLACK
6
CONTINUOUS
10
146.988
20
-56.243
11
146.988
21
-56.243
0
LINE
8
BLACK
6
CONTINUOUS
10
146.988
20
-56.243
11
146.988
21
-56.2433
0
LINE
8
BLACK
6
CONTINUOUS
10
146.988
20
-56.2433
11
146.989
21
-56.2452
0
LINE
8
BLACK
6
CONTINUOUS
10
146.989
20
-56.2452
11
146.99
21
-56.247
0
LINE
8
BLACK
6
CONTINUOUS
10
146.99
20
-56.247
11
147.043
21
-56.3451
0
LINE
8
BLACK
6
CONTINUOUS
10
147.043
20
-56.3451
11
147.043
21
-56.3451
0
LINE
8
BLACK
6
CONTINUOUS
10
147.043
20
-56.3451
11
147.043
21
-56.3451
0
LINE
8
BLACK
6
CONTINUOUS
10
147.043
20
-56.3451
11
147.044
21
-56.3455
0
LINE
8
BLACK
6
CONTINUOUS
10
147.044
20
-56.3455
11
147.044
21
-56.3476
0
LINE
8
BLACK
6
CONTINUOUS
10
147.044
20
-56.3476
11
147.045
21
-56.3496
0
LINE
8
BLACK
6
CONTINUOUS
10
147.045
20
-56.3496
11
147.078
21
-56.4562
0
LINE
8
BLACK
6
CONTINUOUS
10
147.078
20
-56.4562
11
147.078
21
-56.4565
0
LINE
8
BLACK
6
CONTINUOUS
10
147.078
20
-56.4565
11
147.079
21
-56.4588
0
LINE
8
BLACK
6
CONTINUOUS
10
147.079
20
-56.4588
11
147.079
21
-56.461
0
LINE
8
BLACK
6
CONTINUOUS
10
147.079
20
-56.461
11
147.091
21
-56.5719
0
LINE
8
BLACK
6
CONTINUOUS
10
147.091
20
-56.5719
11
147.091
21
-56.5722
0
LINE
8
BLACK
6
CONTINUOUS
10
147.091
20
-56.5722
11
147.091
21
-56.5733
0
LINE
8
BLACK
6
CONTINUOUS
10
147.091
20
-56.5733
11
147.091
21
-56.5744
0
LINE
8
BLACK
6
CONTINUOUS
10
147.091
20
-56.5744
11
147.091
21
-56.5772
0
LINE
8
BLACK
6
CONTINUOUS
10
147.091
20
-56.5772
11
147.091
21
-56.5773
0
LINE
8
BLACK
6
CONTINUOUS
10
147.091
20
-56.5773
11
147.091
21
-56.8959
0
LINE
8
BLACK
6
CONTINUOUS
10
147.091
20
-56.8959
11
147.091
21
-56.9044
0
LINE
8
BLACK
6
CONTINUOUS
10
147.091
20
-56.9044
11
147.119
21
-57.1719
0
LINE
8
BLACK
6
CONTINUOUS
10
147.119
20
-57.1719
11
147.198
21
-57.4276
0
LINE
8
BLACK
6
CONTINUOUS
10
147.198
20
-57.4276
11
147.326
21
-57.6631
0
LINE
8
BLACK
6
CONTINUOUS
10
147.326
20
-57.6631
11
147.496
21
-57.8694
0
LINE
8
BLACK
6
CONTINUOUS
10
147.496
20
-57.8694
11
147.704
21
-58.0387
0
LINE
8
BLACK
6
CONTINUOUS
10
147.704
20
-58.0387
11
147.94
21
-58.1644
0
LINE
8
BLACK
6
CONTINUOUS
10
147.94
20
-58.1644
11
148.197
21
-58.2418
0
LINE
8
BLACK
6
CONTINUOUS
10
148.197
20
-58.2418
11
148.464
21
-58.268
0
LINE
8
BLACK
6
CONTINUOUS
10
148.464
20
-58.268
11
165.546
21
-58.268
0
LINE
8
BLACK
6
CONTINUOUS
10
165.546
20
-58.268
11
165.547
21
-58.2681
0
LINE
8
BLACK
6
CONTINUOUS
10
165.547
20
-58.2681
11
165.547
21
-58.2681
0
LINE
8
BLACK
6
CONTINUOUS
10
165.547
20
-58.2681
11
165.658
21
-58.279
0
LINE
8
BLACK
6
CONTINUOUS
10
165.658
20
-58.279
11
165.658
21
-58.279
0
LINE
8
BLACK
6
CONTINUOUS
10
165.658
20
-58.279
11
165.661
21
-58.2795
0
LINE
8
BLACK
6
CONTINUOUS
10
165.661
20
-58.2795
11
165.663
21
-58.28
0
LINE
8
BLACK
6
CONTINUOUS
10
165.663
20
-58.28
11
165.77
21
-58.3122
0
LINE
8
BLACK
6
CONTINUOUS
10
165.77
20
-58.3122
11
165.77
21
-58.3123
0
LINE
8
BLACK
6
CONTINUOUS
10
165.77
20
-58.3123
11
165.772
21
-58.3132
0
LINE
8
BLACK
6
CONTINUOUS
10
165.772
20
-58.3132
11
165.774
21
-58.314
0
LINE
8
BLACK
6
CONTINUOUS
10
165.774
20
-58.314
11
165.873
21
-58.3664
0
LINE
8
BLACK
6
CONTINUOUS
10
165.873
20
-58.3664
11
165.873
21
-58.3666
0
LINE
8
BLACK
6
CONTINUOUS
10
165.873
20
-58.3666
11
165.875
21
-58.3679
0
LINE
8
BLACK
6
CONTINUOUS
10
165.875
20
-58.3679
11
165.877
21
-58.3691
0
LINE
8
BLACK
6
CONTINUOUS
10
165.877
20
-58.3691
11
165.963
21
-58.4396
0
LINE
8
BLACK
6
CONTINUOUS
10
165.963
20
-58.4396
11
165.963
21
-58.4396
0
LINE
8
BLACK
6
CONTINUOUS
10
165.963
20
-58.4396
11
165.963
21
-58.4396
0
LINE
8
BLACK
6
CONTINUOUS
10
165.963
20
-58.4396
11
165.963
21
-58.4398
0
LINE
8
BLACK
6
CONTINUOUS
10
165.963
20
-58.4398
11
165.965
21
-58.4414
0
LINE
8
BLACK
6
CONTINUOUS
10
165.965
20
-58.4414
11
165.966
21
-58.443
0
LINE
8
BLACK
6
CONTINUOUS
10
165.966
20
-58.443
11
166.038
21
-58.529
0
LINE
8
BLACK
6
CONTINUOUS
10
166.038
20
-58.529
11
166.038
21
-58.529
0
LINE
8
BLACK
6
CONTINUOUS
10
166.038
20
-58.529
11
166.038
21
-58.529
0
LINE
8
BLACK
6
CONTINUOUS
10
166.038
20
-58.529
11
166.038
21
-58.5293
0
LINE
8
BLACK
6
CONTINUOUS
10
166.038
20
-58.5293
11
166.039
21
-58.5312
0
LINE
8
BLACK
6
CONTINUOUS
10
166.039
20
-58.5312
11
166.04
21
-58.533
0
LINE
8
BLACK
6
CONTINUOUS
10
166.04
20
-58.533
11
166.093
21
-58.6311
0
LINE
8
BLACK
6
CONTINUOUS
10
166.093
20
-58.6311
11
166.093
21
-58.6311
0
LINE
8
BLACK
6
CONTINUOUS
10
166.093
20
-58.6311
11
166.093
21
-58.6311
0
LINE
8
BLACK
6
CONTINUOUS
10
166.093
20
-58.6311
11
166.094
21
-58.6315
0
LINE
8
BLACK
6
CONTINUOUS
10
166.094
20
-58.6315
11
166.094
21
-58.6336
0
LINE
8
BLACK
6
CONTINUOUS
10
166.094
20
-58.6336
11
166.095
21
-58.6356
0
LINE
8
BLACK
6
CONTINUOUS
10
166.095
20
-58.6356
11
166.128
21
-58.7422
0
LINE
8
BLACK
6
CONTINUOUS
10
166.128
20
-58.7422
11
166.128
21
-58.7425
0
LINE
8
BLACK
6
CONTINUOUS
10
166.128
20
-58.7425
11
166.129
21
-58.7448
0
LINE
8
BLACK
6
CONTINUOUS
10
166.129
20
-58.7448
11
166.129
21
-58.747
0
LINE
8
BLACK
6
CONTINUOUS
10
166.129
20
-58.747
11
166.141
21
-58.8579
0
LINE
8
BLACK
6
CONTINUOUS
10
166.141
20
-58.8579
11
166.141
21
-58.8582
0
LINE
8
BLACK
6
CONTINUOUS
10
166.141
20
-58.8582
11
166.141
21
-58.8593
0
LINE
8
BLACK
6
CONTINUOUS
10
166.141
20
-58.8593
11
166.141
21
-58.8604
0
LINE
8
BLACK
6
CONTINUOUS
10
166.141
20
-58.8604
11
166.141
21
-58.8632
0
LINE
8
BLACK
6
CONTINUOUS
10
166.141
20
-58.8632
11
166.141
21
-58.8633
0
LINE
8
BLACK
6
CONTINUOUS
10
166.141
20
-58.8633
11
166.141
21
-59.3724
0
LINE
8
BLACK
6
CONTINUOUS
10
166.141
20
-59.3724
11
166.141
21
-59.3809
0
LINE
8
BLACK
6
CONTINUOUS
10
166.141
20
-59.3809
11
166.169
21
-59.6484
0
LINE
8
BLACK
6
CONTINUOUS
10
166.169
20
-59.6484
11
166.248
21
-59.9041
0
LINE
8
BLACK
6
CONTINUOUS
10
166.248
20
-59.9041
11
166.376
21
-60.1396
0
LINE
8
BLACK
6
CONTINUOUS
10
166.376
20
-60.1396
11
166.546
21
-60.3459
0
LINE
8
BLACK
6
CONTINUOUS
10
166.546
20
-60.3459
11
166.754
21
-60.5152
0
LINE
8
BLACK
6
CONTINUOUS
10
166.754
20
-60.5152
11
166.99
21
-60.6409
0
LINE
8
BLACK
6
CONTINUOUS
10
166.99
20
-60.6409
11
167.247
21
-60.7183
0
LINE
8
BLACK
6
CONTINUOUS
10
167.247
20
-60.7183
11
167.514
21
-60.7445
0
LINE
8
BLACK
6
CONTINUOUS
10
167.514
20
-60.7445
11
177.191
21
-60.7445
0
LINE
8
BLACK
6
CONTINUOUS
10
177.191
20
-60.7445
11
177.191
21
-59.0388
0
LINE
8
BLACK
6
CONTINUOUS
10
177.191
20
-59.0388
11
177.191
21
-59.0376
0
LINE
8
BLACK
6
CONTINUOUS
10
177.191
20
-59.0376
11
177.191
21
-59.0376
0
LINE
8
BLACK
6
CONTINUOUS
10
177.191
20
-59.0376
11
177.272
21
-58.1838
0
LINE
8
BLACK
6
CONTINUOUS
10
177.272
20
-58.1838
11
177.273
21
-58.1814
0
LINE
8
BLACK
6
CONTINUOUS
10
177.273
20
-58.1814
11
177.273
21
-58.1803
0
LINE
8
BLACK
6
CONTINUOUS
10
177.273
20
-58.1803
11
177.273
21
-58.1792
0
LINE
8
BLACK
6
CONTINUOUS
10
177.273
20
-58.1792
11
177.515
21
-57.3562
0
LINE
8
BLACK
6
CONTINUOUS
10
177.515
20
-57.3562
11
177.516
21
-57.3539
0
LINE
8
BLACK
6
CONTINUOUS
10
177.516
20
-57.3539
11
177.516
21
-57.3528
0
LINE
8
BLACK
6
CONTINUOUS
10
177.516
20
-57.3528
11
177.516
21
-57.3518
0
LINE
8
BLACK
6
CONTINUOUS
10
177.516
20
-57.3518
11
177.909
21
-56.5893
0
LINE
8
BLACK
6
CONTINUOUS
10
177.909
20
-56.5893
11
177.91
21
-56.5872
0
LINE
8
BLACK
6
CONTINUOUS
10
177.91
20
-56.5872
11
177.911
21
-56.5862
0
LINE
8
BLACK
6
CONTINUOUS
10
177.911
20
-56.5862
11
177.912
21
-56.5853
0
LINE
8
BLACK
6
CONTINUOUS
10
177.912
20
-56.5853
11
178.442
21
-55.9108
0
LINE
8
BLACK
6
CONTINUOUS
10
178.442
20
-55.9108
11
178.443
21
-55.909
0
LINE
8
BLACK
6
CONTINUOUS
10
178.443
20
-55.909
11
178.444
21
-55.9082
0
LINE
8
BLACK
6
CONTINUOUS
10
178.444
20
-55.9082
11
178.445
21
-55.9074
0
LINE
8
BLACK
6
CONTINUOUS
10
178.445
20
-55.9074
11
179.093
21
-55.3452
0
LINE
8
BLACK
6
CONTINUOUS
10
179.093
20
-55.3452
11
179.095
21
-55.3437
0
LINE
8
BLACK
6
CONTINUOUS
10
179.095
20
-55.3437
11
179.096
21
-55.3432
0
LINE
8
BLACK
6
CONTINUOUS
10
179.096
20
-55.3432
11
179.097
21
-55.3425
0
LINE
8
BLACK
6
CONTINUOUS
10
179.097
20
-55.3425
11
179.839
21
-54.913
0
LINE
8
BLACK
6
CONTINUOUS
10
179.839
20
-54.913
11
179.841
21
-54.9119
0
LINE
8
BLACK
6
CONTINUOUS
10
179.841
20
-54.9119
11
179.842
21
-54.9115
0
LINE
8
BLACK
6
CONTINUOUS
10
179.842
20
-54.9115
11
179.843
21
-54.911
0
LINE
8
BLACK
6
CONTINUOUS
10
179.843
20
-54.911
11
180.653
21
-54.6297
0
LINE
8
BLACK
6
CONTINUOUS
10
180.653
20
-54.6297
11
180.656
21
-54.629
0
LINE
8
BLACK
6
CONTINUOUS
10
180.656
20
-54.629
11
180.657
21
-54.6288
0
LINE
8
BLACK
6
CONTINUOUS
10
180.657
20
-54.6288
11
180.658
21
-54.6285
0
LINE
8
BLACK
6
CONTINUOUS
10
180.658
20
-54.6285
11
181.507
21
-54.5055
0
LINE
8
BLACK
6
CONTINUOUS
10
181.507
20
-54.5055
11
181.509
21
-54.5052
0
LINE
8
BLACK
6
CONTINUOUS
10
181.509
20
-54.5052
11
181.51
21
-54.5053
0
LINE
8
BLACK
6
CONTINUOUS
10
181.51
20
-54.5053
11
181.512
21
-54.5052
0
LINE
8
BLACK
6
CONTINUOUS
10
181.512
20
-54.5052
11
182.368
21
-54.5449
0
LINE
8
BLACK
6
CONTINUOUS
10
182.368
20
-54.5449
11
182.371
21
-54.5451
0
LINE
8
BLACK
6
CONTINUOUS
10
182.371
20
-54.5451
11
182.372
21
-54.5454
0
LINE
8
BLACK
6
CONTINUOUS
10
182.372
20
-54.5454
11
182.373
21
-54.5456
0
LINE
8
BLACK
6
CONTINUOUS
10
182.373
20
-54.5456
11
183.207
21
-54.7465
0
LINE
8
BLACK
6
CONTINUOUS
10
183.207
20
-54.7465
11
183.207
21
-54.7465
0
LINE
8
BLACK
6
CONTINUOUS
10
183.207
20
-54.7465
11
183.207
21
-54.7465
0
LINE
8
BLACK
6
CONTINUOUS
10
183.207
20
-54.7465
11
183.209
21
-54.7472
0
LINE
8
BLACK
6
CONTINUOUS
10
183.209
20
-54.7472
11
183.21
21
-54.7477
0
LINE
8
BLACK
6
CONTINUOUS
10
183.21
20
-54.7477
11
183.211
21
-54.7481
0
LINE
8
BLACK
6
CONTINUOUS
10
183.211
20
-54.7481
11
183.992
21
-55.103
0
LINE
8
BLACK
6
CONTINUOUS
10
183.992
20
-55.103
11
183.994
21
-55.1042
0
LINE
8
BLACK
6
CONTINUOUS
10
183.994
20
-55.1042
11
183.995
21
-55.1048
0
LINE
8
BLACK
6
CONTINUOUS
10
183.995
20
-55.1048
11
183.996
21
-55.1054
0
LINE
8
BLACK
6
CONTINUOUS
10
183.996
20
-55.1054
11
184.696
21
-55.6016
0
LINE
8
BLACK
6
CONTINUOUS
10
184.696
20
-55.6016
11
184.696
21
-55.6016
0
LINE
8
BLACK
6
CONTINUOUS
10
184.696
20
-55.6016
11
184.696
21
-55.6016
0
LINE
8
BLACK
6
CONTINUOUS
10
184.696
20
-55.6016
11
184.698
21
-55.6031
0
LINE
8
BLACK
6
CONTINUOUS
10
184.698
20
-55.6031
11
184.698
21
-55.604
0
LINE
8
BLACK
6
CONTINUOUS
10
184.698
20
-55.604
11
184.699
21
-55.6047
0
LINE
8
BLACK
6
CONTINUOUS
10
184.699
20
-55.6047
11
185.292
21
-56.2243
0
LINE
8
BLACK
6
CONTINUOUS
10
185.292
20
-56.2243
11
185.294
21
-56.2261
0
LINE
8
BLACK
6
CONTINUOUS
10
185.294
20
-56.2261
11
185.295
21
-56.2271
0
LINE
8
BLACK
6
CONTINUOUS
10
185.295
20
-56.2271
11
185.295
21
-56.228
0
LINE
8
BLACK
6
CONTINUOUS
10
185.295
20
-56.228
11
185.761
21
-56.9485
0
LINE
8
BLACK
6
CONTINUOUS
10
185.761
20
-56.9485
11
185.761
21
-56.9486
0
LINE
8
BLACK
6
CONTINUOUS
10
185.761
20
-56.9486
11
185.761
21
-56.9486
0
LINE
8
BLACK
6
CONTINUOUS
10
185.761
20
-56.9486
11
185.762
21
-56.9507
0
LINE
8
BLACK
6
CONTINUOUS
10
185.762
20
-56.9507
11
185.762
21
-56.9517
0
LINE
8
BLACK
6
CONTINUOUS
10
185.762
20
-56.9517
11
185.763
21
-56.9528
0
LINE
8
BLACK
6
CONTINUOUS
10
185.763
20
-56.9528
11
186.083
21
-57.7483
0
LINE
8
BLACK
6
CONTINUOUS
10
186.083
20
-57.7483
11
186.084
21
-57.7506
0
LINE
8
BLACK
6
CONTINUOUS
10
186.084
20
-57.7506
11
186.084
21
-57.7517
0
LINE
8
BLACK
6
CONTINUOUS
10
186.084
20
-57.7517
11
186.085
21
-57.7528
0
LINE
8
BLACK
6
CONTINUOUS
10
186.085
20
-57.7528
11
186.249
21
-58.5946
0
LINE
8
BLACK
6
CONTINUOUS
10
186.249
20
-58.5946
11
186.25
21
-58.597
0
LINE
8
BLACK
6
CONTINUOUS
10
186.25
20
-58.597
11
186.25
21
-58.5976
0
LINE
8
BLACK
6
CONTINUOUS
10
186.25
20
-58.5976
11
186.25
21
-58.5982
0
LINE
8
BLACK
6
CONTINUOUS
10
186.25
20
-58.5982
11
186.271
21
-59.0382
0
LINE
8
BLACK
6
CONTINUOUS
10
186.271
20
-59.0382
11
186.271
21
-59.0388
0
LINE
8
BLACK
6
CONTINUOUS
10
186.271
20
-59.0388
11
186.271
21
-60.7683
0
LINE
8
BLACK
6
CONTINUOUS
10
186.271
20
-60.7683
11
186.27
21
-125.248
0
LINE
8
BLACK
6
CONTINUOUS
10
106.418
20
-58.3815
11
106.15
21
-58.4096
0
LINE
8
BLACK
6
CONTINUOUS
10
106.15
20
-58.4096
11
105.894
21
-58.4888
0
LINE
8
BLACK
6
CONTINUOUS
10
105.894
20
-58.4888
11
105.659
21
-58.6162
0
LINE
8
BLACK
6
CONTINUOUS
10
105.659
20
-58.6162
11
105.453
21
-58.7868
0
LINE
8
BLACK
6
CONTINUOUS
10
105.453
20
-58.7868
11
105.283
21
-58.9943
0
LINE
8
BLACK
6
CONTINUOUS
10
105.283
20
-58.9943
11
105.158
21
-59.2307
0
LINE
8
BLACK
6
CONTINUOUS
10
105.158
20
-59.2307
11
105.08
21
-59.487
0
LINE
8
BLACK
6
CONTINUOUS
10
105.08
20
-59.487
11
105.054
21
-59.7547
0
LINE
8
BLACK
6
CONTINUOUS
10
105.054
20
-59.7547
11
105.054
21
-61.7232
0
LINE
8
BLACK
6
CONTINUOUS
10
105.054
20
-61.7232
11
105.054
21
-61.7244
0
LINE
8
BLACK
6
CONTINUOUS
10
105.054
20
-61.7244
11
105.054
21
-61.7244
0
LINE
8
BLACK
6
CONTINUOUS
10
105.054
20
-61.7244
11
105.027
21
-61.9958
0
LINE
8
BLACK
6
CONTINUOUS
10
105.027
20
-61.9958
11
105.027
21
-61.9961
0
LINE
8
BLACK
6
CONTINUOUS
10
105.027
20
-61.9961
11
105.027
21
-61.9984
0
LINE
8
BLACK
6
CONTINUOUS
10
105.027
20
-61.9984
11
105.026
21
-62.0006
0
LINE
8
BLACK
6
CONTINUOUS
10
105.026
20
-62.0006
11
104.948
21
-62.2616
0
LINE
8
BLACK
6
CONTINUOUS
10
104.948
20
-62.2616
11
104.947
21
-62.2619
0
LINE
8
BLACK
6
CONTINUOUS
10
104.947
20
-62.2619
11
104.947
21
-62.264
0
LINE
8
BLACK
6
CONTINUOUS
10
104.947
20
-62.264
11
104.946
21
-62.2661
0
LINE
8
BLACK
6
CONTINUOUS
10
104.946
20
-62.2661
11
104.818
21
-62.5068
0
LINE
8
BLACK
6
CONTINUOUS
10
104.818
20
-62.5068
11
104.817
21
-62.5071
0
LINE
8
BLACK
6
CONTINUOUS
10
104.817
20
-62.5071
11
104.816
21
-62.509
0
LINE
8
BLACK
6
CONTINUOUS
10
104.816
20
-62.509
11
104.815
21
-62.5109
0
LINE
8
BLACK
6
CONTINUOUS
10
104.815
20
-62.5109
11
104.643
21
-62.7222
0
LINE
8
BLACK
6
CONTINUOUS
10
104.643
20
-62.7222
11
104.642
21
-62.7224
0
LINE
8
BLACK
6
CONTINUOUS
10
104.642
20
-62.7224
11
104.641
21
-62.7241
0
LINE
8
BLACK
6
CONTINUOUS
10
104.641
20
-62.7241
11
104.639
21
-62.7256
0
LINE
8
BLACK
6
CONTINUOUS
10
104.639
20
-62.7256
11
104.429
21
-62.8994
0
LINE
8
BLACK
6
CONTINUOUS
10
104.429
20
-62.8994
11
104.429
21
-62.8996
0
LINE
8
BLACK
6
CONTINUOUS
10
104.429
20
-62.8996
11
104.427
21
-62.9009
0
LINE
8
BLACK
6
CONTINUOUS
10
104.427
20
-62.9009
11
104.425
21
-62.9022
0
LINE
8
BLACK
6
CONTINUOUS
10
104.425
20
-62.9022
11
104.185
21
-63.0318
0
LINE
8
BLACK
6
CONTINUOUS
10
104.185
20
-63.0318
11
104.185
21
-63.032
0
LINE
8
BLACK
6
CONTINUOUS
10
104.185
20
-63.032
11
104.183
21
-63.0329
0
LINE
8
BLACK
6
CONTINUOUS
10
104.183
20
-63.0329
11
104.181
21
-63.0337
0
LINE
8
BLACK
6
CONTINUOUS
10
104.181
20
-63.0337
11
103.92
21
-63.1143
0
LINE
8
BLACK
6
CONTINUOUS
10
103.92
20
-63.1143
11
103.92
21
-63.1144
0
LINE
8
BLACK
6
CONTINUOUS
10
103.92
20
-63.1144
11
103.918
21
-63.1149
0
LINE
8
BLACK
6
CONTINUOUS
10
103.918
20
-63.1149
11
103.916
21
-63.1153
0
LINE
8
BLACK
6
CONTINUOUS
10
103.916
20
-63.1153
11
103.644
21
-63.1438
0
LINE
8
BLACK
6
CONTINUOUS
10
103.644
20
-63.1438
11
103.644
21
-63.1439
0
LINE
8
BLACK
6
CONTINUOUS
10
103.644
20
-63.1439
11
103.643
21
-63.1439
0
LINE
8
BLACK
6
CONTINUOUS
10
103.643
20
-63.1439
11
103.642
21
-63.144
0
LINE
8
BLACK
6
CONTINUOUS
10
103.642
20
-63.144
11
103.633
21
-63.144
0
LINE
8
BLACK
6
CONTINUOUS
10
103.633
20
-63.144
11
103.633
21
-63.144
0
LINE
8
BLACK
6
CONTINUOUS
10
103.633
20
-63.144
11
78.1069
21
-63.144
0
LINE
8
BLACK
6
CONTINUOUS
10
78.1069
20
-63.144
11
78.1057
21
-63.1441
0
LINE
8
BLACK
6
CONTINUOUS
10
78.1057
20
-63.1441
11
78.1045
21
-63.144
0
LINE
8
BLACK
6
CONTINUOUS
10
78.1045
20
-63.144
11
78.1045
21
-63.144
0
LINE
8
BLACK
6
CONTINUOUS
10
78.1045
20
-63.144
11
78.1008
21
-63.1436
0
LINE
8
BLACK
6
CONTINUOUS
10
78.1008
20
-63.1436
11
78.0961
21
-63.1422
0
LINE
8
BLACK
6
CONTINUOUS
10
78.0961
20
-63.1422
11
78.0917
21
-63.1399
0
LINE
8
BLACK
6
CONTINUOUS
10
78.0917
20
-63.1399
11
78.0879
21
-63.1368
0
LINE
8
BLACK
6
CONTINUOUS
10
78.0879
20
-63.1368
11
78.0848
21
-63.133
0
LINE
8
BLACK
6
CONTINUOUS
10
78.0848
20
-63.133
11
78.0825
21
-63.1286
0
LINE
8
BLACK
6
CONTINUOUS
10
78.0825
20
-63.1286
11
78.081
21
-63.1239
0
LINE
8
BLACK
6
CONTINUOUS
10
78.081
20
-63.1239
11
78.0806
21
-63.119
0
LINE
8
BLACK
6
CONTINUOUS
10
78.0806
20
-63.119
11
78.0807
21
-63.1178
0
LINE
8
BLACK
6
CONTINUOUS
10
78.0807
20
-63.1178
11
78.0807
21
-61.3901
0
LINE
8
BLACK
6
CONTINUOUS
10
78.0807
20
-61.3901
11
78.0593
21
-60.9519
0
LINE
8
BLACK
6
CONTINUOUS
10
78.0593
20
-60.9519
11
77.8957
21
-60.1142
0
LINE
8
BLACK
6
CONTINUOUS
10
77.8957
20
-60.1142
11
77.5769
21
-59.3232
0
LINE
8
BLACK
6
CONTINUOUS
10
77.5769
20
-59.3232
11
77.1142
21
-58.6067
0
LINE
8
BLACK
6
CONTINUOUS
10
77.1142
20
-58.6067
11
76.5244
21
-57.9905
0
LINE
8
BLACK
6
CONTINUOUS
10
76.5244
20
-57.9905
11
75.8287
21
-57.4971
0
LINE
8
BLACK
6
CONTINUOUS
10
75.8287
20
-57.4971
11
75.0523
21
-57.1441
0
LINE
8
BLACK
6
CONTINUOUS
10
75.0523
20
-57.1441
11
74.2232
21
-56.9442
0
LINE
8
BLACK
6
CONTINUOUS
10
74.2232
20
-56.9442
11
73.3712
21
-56.9048
0
LINE
8
BLACK
6
CONTINUOUS
10
73.3712
20
-56.9048
11
72.5271
21
-57.0272
0
LINE
8
BLACK
6
CONTINUOUS
10
72.5271
20
-57.0272
11
71.7214
21
-57.307
0
LINE
8
BLACK
6
CONTINUOUS
10
71.7214
20
-57.307
11
70.9831
21
-57.7341
0
LINE
8
BLACK
6
CONTINUOUS
10
70.9831
20
-57.7341
11
70.3389
21
-58.2931
0
LINE
8
BLACK
6
CONTINUOUS
10
70.3389
20
-58.2931
11
69.8121
21
-58.9638
0
LINE
8
BLACK
6
CONTINUOUS
10
69.8121
20
-58.9638
11
69.4215
21
-59.722
0
LINE
8
BLACK
6
CONTINUOUS
10
69.4215
20
-59.722
11
69.1814
21
-60.5404
0
LINE
8
BLACK
6
CONTINUOUS
10
69.1814
20
-60.5404
11
69.1003
21
-61.3907
0
LINE
8
BLACK
6
CONTINUOUS
10
69.1003
20
-61.3907
11
69.1003
21
-63.1178
0
LINE
8
BLACK
6
CONTINUOUS
10
69.1003
20
-63.1178
11
69.1004
21
-63.119
0
LINE
8
BLACK
6
CONTINUOUS
10
69.1004
20
-63.119
11
69.1003
21
-63.1202
0
LINE
8
BLACK
6
CONTINUOUS
10
69.1003
20
-63.1202
11
69.1
21
-63.1239
0
LINE
8
BLACK
6
CONTINUOUS
10
69.1
20
-63.1239
11
69.0985
21
-63.1286
0
LINE
8
BLACK
6
CONTINUOUS
10
69.0985
20
-63.1286
11
69.0962
21
-63.133
0
LINE
8
BLACK
6
CONTINUOUS
10
69.0962
20
-63.133
11
69.0931
21
-63.1368
0
LINE
8
BLACK
6
CONTINUOUS
10
69.0931
20
-63.1368
11
69.0893
21
-63.1399
0
LINE
8
BLACK
6
CONTINUOUS
10
69.0893
20
-63.1399
11
69.0849
21
-63.1422
0
LINE
8
BLACK
6
CONTINUOUS
10
69.0849
20
-63.1422
11
69.0802
21
-63.1436
0
LINE
8
BLACK
6
CONTINUOUS
10
69.0802
20
-63.1436
11
69.0753
21
-63.1441
0
LINE
8
BLACK
6
CONTINUOUS
10
69.0753
20
-63.1441
11
69.0741
21
-63.144
0
LINE
8
BLACK
6
CONTINUOUS
10
69.0741
20
-63.144
11
57.7216
21
-63.144
0
LINE
8
BLACK
6
CONTINUOUS
10
57.7216
20
-63.144
11
57.7131
21
-63.144
0
LINE
8
BLACK
6
CONTINUOUS
10
57.7131
20
-63.144
11
57.4456
21
-63.1721
0
LINE
8
BLACK
6
CONTINUOUS
10
57.4456
20
-63.1721
11
57.1899
21
-63.2513
0
LINE
8
BLACK
6
CONTINUOUS
10
57.1899
20
-63.2513
11
56.9544
21
-63.3787
0
LINE
8
BLACK
6
CONTINUOUS
10
56.9544
20
-63.3787
11
56.7481
21
-63.5493
0
LINE
8
BLACK
6
CONTINUOUS
10
56.7481
20
-63.5493
11
56.5788
21
-63.7568
0
LINE
8
BLACK
6
CONTINUOUS
10
56.5788
20
-63.7568
11
56.4531
21
-63.9932
0
LINE
8
BLACK
6
CONTINUOUS
10
56.4531
20
-63.9932
11
56.3757
21
-64.2495
0
LINE
8
BLACK
6
CONTINUOUS
10
56.3757
20
-64.2495
11
56.3495
21
-64.5172
0
LINE
8
BLACK
6
CONTINUOUS
10
56.3495
20
-64.5172
11
56.3495
21
-123.531
0
LINE
8
BLACK
6
CONTINUOUS
10
56.3495
20
-123.531
11
56.3496
21
-123.532
0
LINE
8
BLACK
6
CONTINUOUS
10
56.3496
20
-123.532
11
56.3491
21
-123.537
0
LINE
8
BLACK
6
CONTINUOUS
10
56.3491
20
-123.537
11
56.3477
21
-123.542
0
LINE
8
BLACK
6
CONTINUOUS
10
56.3477
20
-123.542
11
56.3454
21
-123.546
0
LINE
8
BLACK
6
CONTINUOUS
10
56.3454
20
-123.546
11
56.3423
21
-123.55
0
LINE
8
BLACK
6
CONTINUOUS
10
56.3423
20
-123.55
11
56.3385
21
-123.553
0
LINE
8
BLACK
6
CONTINUOUS
10
56.3385
20
-123.553
11
56.3341
21
-123.555
0
LINE
8
BLACK
6
CONTINUOUS
10
56.3341
20
-123.555
11
56.3294
21
-123.557
0
LINE
8
BLACK
6
CONTINUOUS
10
56.3294
20
-123.557
11
56.3257
21
-123.557
0
LINE
8
BLACK
6
CONTINUOUS
10
56.3257
20
-123.557
11
56.3257
21
-123.557
0
LINE
8
BLACK
6
CONTINUOUS
10
56.3257
20
-123.557
11
56.3245
21
-123.557
0
LINE
8
BLACK
6
CONTINUOUS
10
56.3245
20
-123.557
11
56.3233
21
-123.557
0
LINE
8
BLACK
6
CONTINUOUS
10
56.3233
20
-123.557
11
54.5956
21
-123.557
0
LINE
8
BLACK
6
CONTINUOUS
10
54.5956
20
-123.557
11
54.1574
21
-123.579
0
LINE
8
BLACK
6
CONTINUOUS
10
54.1574
20
-123.579
11
53.3197
21
-123.742
0
LINE
8
BLACK
6
CONTINUOUS
10
53.3197
20
-123.742
11
52.5287
21
-124.061
0
LINE
8
BLACK
6
CONTINUOUS
10
52.5287
20
-124.061
11
51.8122
21
-124.524
0
LINE
8
BLACK
6
CONTINUOUS
10
51.8122
20
-124.524
11
51.196
21
-125.113
0
LINE
8
BLACK
6
CONTINUOUS
10
51.196
20
-125.113
11
50.7026
21
-125.809
0
LINE
8
BLACK
6
CONTINUOUS
10
50.7026
20
-125.809
11
50.3496
21
-126.586
0
LINE
8
BLACK
6
CONTINUOUS
10
50.3496
20
-126.586
11
50.1497
21
-127.415
0
LINE
8
BLACK
6
CONTINUOUS
10
50.1497
20
-127.415
11
50.1103
21
-128.267
0
LINE
8
BLACK
6
CONTINUOUS
10
50.1103
20
-128.267
11
50.2327
21
-129.111
0
LINE
8
BLACK
6
CONTINUOUS
10
50.2327
20
-129.111
11
50.5125
21
-129.917
0
LINE
8
BLACK
6
CONTINUOUS
10
50.5125
20
-129.917
11
50.9396
21
-130.655
0
LINE
8
BLACK
6
CONTINUOUS
10
50.9396
20
-130.655
11
51.4986
21
-131.299
0
LINE
8
BLACK
6
CONTINUOUS
10
51.4986
20
-131.299
11
52.1693
21
-131.826
0
LINE
8
BLACK
6
CONTINUOUS
10
52.1693
20
-131.826
11
52.9275
21
-132.216
0
LINE
8
BLACK
6
CONTINUOUS
10
52.9275
20
-132.216
11
53.746
21
-132.456
0
LINE
8
BLACK
6
CONTINUOUS
10
53.746
20
-132.456
11
54.5962
21
-132.538
0
LINE
8
BLACK
6
CONTINUOUS
10
54.5962
20
-132.538
11
56.3233
21
-132.538
0
LINE
8
BLACK
6
CONTINUOUS
10
56.3233
20
-132.538
11
56.3245
21
-132.537
0
LINE
8
BLACK
6
CONTINUOUS
10
56.3245
20
-132.537
11
56.3257
21
-132.538
0
LINE
8
BLACK
6
CONTINUOUS
10
56.3257
20
-132.538
11
56.3257
21
-132.538
0
LINE
8
BLACK
6
CONTINUOUS
10
56.3257
20
-132.538
11
56.3294
21
-132.538
0
LINE
8
BLACK
6
CONTINUOUS
10
56.3294
20
-132.538
11
56.3341
21
-132.539
0
LINE
8
BLACK
6
CONTINUOUS
10
56.3341
20
-132.539
11
56.3385
21
-132.542
0
LINE
8
BLACK
6
CONTINUOUS
10
56.3385
20
-132.542
11
56.3423
21
-132.545
0
LINE
8
BLACK
6
CONTINUOUS
10
56.3423
20
-132.545
11
56.3454
21
-132.549
0
LINE
8
BLACK
6
CONTINUOUS
10
56.3454
20
-132.549
11
56.3477
21
-132.553
0
LINE
8
BLACK
6
CONTINUOUS
10
56.3477
20
-132.553
11
56.3491
21
-132.558
0
LINE
8
BLACK
6
CONTINUOUS
10
56.3491
20
-132.558
11
56.3496
21
-132.563
0
LINE
8
BLACK
6
CONTINUOUS
10
56.3496
20
-132.563
11
56.3495
21
-132.564
0
LINE
8
BLACK
6
CONTINUOUS
10
56.3495
20
-132.564
11
56.3495
21
-163.068
0
LINE
8
BLACK
6
CONTINUOUS
10
56.3495
20
-163.068
11
56.3495
21
-163.076
0
LINE
8
BLACK
6
CONTINUOUS
10
56.3495
20
-163.076
11
56.3776
21
-163.344
0
LINE
8
BLACK
6
CONTINUOUS
10
56.3776
20
-163.344
11
56.4568
21
-163.6
0
LINE
8
BLACK
6
CONTINUOUS
10
56.4568
20
-163.6
11
56.5842
21
-163.835
0
LINE
8
BLACK
6
CONTINUOUS
10
56.5842
20
-163.835
11
56.7548
21
-164.041
0
LINE
8
BLACK
6
CONTINUOUS
10
56.7548
20
-164.041
11
56.9623
21
-164.211
0
LINE
8
BLACK
6
CONTINUOUS
10
56.9623
20
-164.211
11
57.1987
21
-164.336
0
LINE
8
BLACK
6
CONTINUOUS
10
57.1987
20
-164.336
11
57.455
21
-164.414
0
LINE
8
BLACK
6
CONTINUOUS
10
57.455
20
-164.414
11
57.7227
21
-164.44
0
LINE
8
BLACK
6
CONTINUOUS
10
57.7227
20
-164.44
11
107.569
21
-164.44
0
LINE
8
BLACK
6
CONTINUOUS
10
107.569
20
-164.44
11
107.577
21
-164.44
0
LINE
8
BLACK
6
CONTINUOUS
10
107.577
20
-164.44
11
107.845
21
-164.412
0
LINE
8
BLACK
6
CONTINUOUS
10
107.845
20
-164.412
11
108.101
21
-164.333
0
LINE
8
BLACK
6
CONTINUOUS
10
108.101
20
-164.333
11
108.336
21
-164.205
0
LINE
8
BLACK
6
CONTINUOUS
10
108.336
20
-164.205
11
108.542
21
-164.035
0
LINE
8
BLACK
6
CONTINUOUS
10
108.542
20
-164.035
11
108.712
21
-163.827
0
LINE
8
BLACK
6
CONTINUOUS
10
108.712
20
-163.827
11
108.837
21
-163.591
0
LINE
8
BLACK
6
CONTINUOUS
10
108.837
20
-163.591
11
108.915
21
-163.334
0
LINE
8
BLACK
6
CONTINUOUS
10
108.915
20
-163.334
11
108.941
21
-163.067
0
LINE
8
BLACK
6
CONTINUOUS
10
108.941
20
-163.067
11
108.941
21
-161.098
0
LINE
8
BLACK
6
CONTINUOUS
10
108.941
20
-161.098
11
108.941
21
-161.097
0
LINE
8
BLACK
6
CONTINUOUS
10
108.941
20
-161.097
11
108.941
21
-161.097
0
LINE
8
BLACK
6
CONTINUOUS
10
108.941
20
-161.097
11
108.968
21
-160.826
0
LINE
8
BLACK
6
CONTINUOUS
10
108.968
20
-160.826
11
108.968
21
-160.825
0
LINE
8
BLACK
6
CONTINUOUS
10
108.968
20
-160.825
11
108.968
21
-160.823
0
LINE
8
BLACK
6
CONTINUOUS
10
108.968
20
-160.823
11
108.969
21
-160.821
0
LINE
8
BLACK
6
CONTINUOUS
10
108.969
20
-160.821
11
109.047
21
-160.56
0
LINE
8
BLACK
6
CONTINUOUS
10
109.047
20
-160.56
11
109.048
21
-160.56
0
LINE
8
BLACK
6
CONTINUOUS
10
109.048
20
-160.56
11
109.048
21
-160.557
0
LINE
8
BLACK
6
CONTINUOUS
10
109.048
20
-160.557
11
109.049
21
-160.555
0
LINE
8
BLACK
6
CONTINUOUS
10
109.049
20
-160.555
11
109.177
21
-160.315
0
LINE
8
BLACK
6
CONTINUOUS
10
109.177
20
-160.315
11
109.178
21
-160.314
0
LINE
8
BLACK
6
CONTINUOUS
10
109.178
20
-160.314
11
109.179
21
-160.313
0
LINE
8
BLACK
6
CONTINUOUS
10
109.179
20
-160.313
11
109.18
21
-160.311
0
LINE
8
BLACK
6
CONTINUOUS
10
109.18
20
-160.311
11
109.352
21
-160.099
0
LINE
8
BLACK
6
CONTINUOUS
10
109.352
20
-160.099
11
109.352
21
-160.099
0
LINE
8
BLACK
6
CONTINUOUS
10
109.352
20
-160.099
11
109.352
21
-160.099
0
LINE
8
BLACK
6
CONTINUOUS
10
109.352
20
-160.099
11
109.353
21
-160.099
0
LINE
8
BLACK
6
CONTINUOUS
10
109.353
20
-160.099
11
109.354
21
-160.097
0
LINE
8
BLACK
6
CONTINUOUS
10
109.354
20
-160.097
11
109.356
21
-160.096
0
LINE
8
BLACK
6
CONTINUOUS
10
109.356
20
-160.096
11
109.566
21
-159.922
0
LINE
8
BLACK
6
CONTINUOUS
10
109.566
20
-159.922
11
109.566
21
-159.922
0
LINE
8
BLACK
6
CONTINUOUS
10
109.566
20
-159.922
11
109.568
21
-159.921
0
LINE
8
BLACK
6
CONTINUOUS
10
109.568
20
-159.921
11
109.57
21
-159.919
0
LINE
8
BLACK
6
CONTINUOUS
10
109.57
20
-159.919
11
109.81
21
-159.79
0
LINE
8
BLACK
6
CONTINUOUS
10
109.81
20
-159.79
11
109.81
21
-159.79
0
LINE
8
BLACK
6
CONTINUOUS
10
109.81
20
-159.79
11
109.81
21
-159.79
0
LINE
8
BLACK
6
CONTINUOUS
10
109.81
20
-159.79
11
109.81
21
-159.79
0
LINE
8
BLACK
6
CONTINUOUS
10
109.81
20
-159.79
11
109.812
21
-159.789
0
LINE
8
BLACK
6
CONTINUOUS
10
109.812
20
-159.789
11
109.814
21
-159.788
0
LINE
8
BLACK
6
CONTINUOUS
10
109.814
20
-159.788
11
110.075
21
-159.707
0
LINE
8
BLACK
6
CONTINUOUS
10
110.075
20
-159.707
11
110.075
21
-159.707
0
LINE
8
BLACK
6
CONTINUOUS
10
110.075
20
-159.707
11
110.077
21
-159.707
0
LINE
8
BLACK
6
CONTINUOUS
10
110.077
20
-159.707
11
110.079
21
-159.706
0
LINE
8
BLACK
6
CONTINUOUS
10
110.079
20
-159.706
11
110.351
21
-159.678
0
LINE
8
BLACK
6
CONTINUOUS
10
110.351
20
-159.678
11
110.351
21
-159.678
0
LINE
8
BLACK
6
CONTINUOUS
10
110.351
20
-159.678
11
110.352
21
-159.678
0
LINE
8
BLACK
6
CONTINUOUS
10
110.352
20
-159.678
11
110.353
21
-159.678
0
LINE
8
BLACK
6
CONTINUOUS
10
110.353
20
-159.678
11
110.362
21
-159.678
0
LINE
8
BLACK
6
CONTINUOUS
10
110.362
20
-159.678
11
110.362
21
-159.677
0
LINE
8
BLACK
6
CONTINUOUS
10
110.362
20
-159.677
11
112.457
21
-159.677
0
LINE
8
BLACK
6
CONTINUOUS
10
112.457
20
-159.677
11
112.458
21
-159.677
0
LINE
8
BLACK
6
CONTINUOUS
10
112.458
20
-159.677
11
112.459
21
-159.677
0
LINE
8
BLACK
6
CONTINUOUS
10
112.459
20
-159.677
11
112.463
21
-159.678
0
LINE
8
BLACK
6
CONTINUOUS
10
112.463
20
-159.678
11
112.467
21
-159.679
0
LINE
8
BLACK
6
CONTINUOUS
10
112.467
20
-159.679
11
112.472
21
-159.682
0
LINE
8
BLACK
6
CONTINUOUS
10
112.472
20
-159.682
11
112.476
21
-159.685
0
LINE
8
BLACK
6
CONTINUOUS
10
112.476
20
-159.685
11
112.479
21
-159.689
0
LINE
8
BLACK
6
CONTINUOUS
10
112.479
20
-159.689
11
112.481
21
-159.693
0
LINE
8
BLACK
6
CONTINUOUS
10
112.481
20
-159.693
11
112.482
21
-159.698
0
LINE
8
BLACK
6
CONTINUOUS
10
112.482
20
-159.698
11
112.483
21
-159.702
0
LINE
8
BLACK
6
CONTINUOUS
10
112.483
20
-159.702
11
112.483
21
-159.704
0
LINE
8
BLACK
6
CONTINUOUS
10
112.483
20
-159.704
11
112.483
21
-161.431
0
LINE
8
BLACK
6
CONTINUOUS
10
112.483
20
-161.431
11
112.504
21
-161.87
0
LINE
8
BLACK
6
CONTINUOUS
10
112.504
20
-161.87
11
112.668
21
-162.707
0
LINE
8
BLACK
6
CONTINUOUS
10
112.668
20
-162.707
11
112.987
21
-163.498
0
LINE
8
BLACK
6
CONTINUOUS
10
112.987
20
-163.498
11
113.449
21
-164.215
0
LINE
8
BLACK
6
CONTINUOUS
10
113.449
20
-164.215
11
114.039
21
-164.831
0
LINE
8
BLACK
6
CONTINUOUS
10
114.039
20
-164.831
11
114.735
21
-165.324
0
LINE
8
BLACK
6
CONTINUOUS
10
114.735
20
-165.324
11
115.511
21
-165.677
0
LINE
8
BLACK
6
CONTINUOUS
10
115.511
20
-165.677
11
116.34
21
-165.877
0
LINE
8
BLACK
6
CONTINUOUS
10
116.34
20
-165.877
11
117.192
21
-165.917
0
LINE
8
BLACK
6
CONTINUOUS
10
117.192
20
-165.917
11
118.036
21
-165.794
0
LINE
8
BLACK
6
CONTINUOUS
10
118.036
20
-165.794
11
118.842
21
-165.515
0
LINE
8
BLACK
6
CONTINUOUS
10
118.842
20
-165.515
11
119.58
21
-165.087
0
LINE
8
BLACK
6
CONTINUOUS
10
119.58
20
-165.087
11
120.225
21
-164.528
0
LINE
8
BLACK
6
CONTINUOUS
10
120.225
20
-164.528
11
120.751
21
-163.858
0
LINE
8
BLACK
6
CONTINUOUS
10
120.751
20
-163.858
11
121.142
21
-163.099
0
LINE
8
BLACK
6
CONTINUOUS
10
121.142
20
-163.099
11
121.382
21
-162.281
0
LINE
8
BLACK
6
CONTINUOUS
10
121.382
20
-162.281
11
121.463
21
-161.431
0
LINE
8
BLACK
6
CONTINUOUS
10
121.463
20
-161.431
11
121.463
21
-159.704
0
LINE
8
BLACK
6
CONTINUOUS
10
121.463
20
-159.704
11
121.463
21
-159.702
0
LINE
8
BLACK
6
CONTINUOUS
10
121.463
20
-159.702
11
121.464
21
-159.698
0
LINE
8
BLACK
6
CONTINUOUS
10
121.464
20
-159.698
11
121.465
21
-159.693
0
LINE
8
BLACK
6
CONTINUOUS
10
121.465
20
-159.693
11
121.467
21
-159.689
0
LINE
8
BLACK
6
CONTINUOUS
10
121.467
20
-159.689
11
121.47
21
-159.685
0
LINE
8
BLACK
6
CONTINUOUS
10
121.47
20
-159.685
11
121.474
21
-159.682
0
LINE
8
BLACK
6
CONTINUOUS
10
121.474
20
-159.682
11
121.479
21
-159.679
0
LINE
8
BLACK
6
CONTINUOUS
10
121.479
20
-159.679
11
121.483
21
-159.678
0
LINE
8
BLACK
6
CONTINUOUS
10
121.483
20
-159.678
11
121.487
21
-159.677
0
LINE
8
BLACK
6
CONTINUOUS
10
121.487
20
-159.677
11
121.487
21
-159.677
0
LINE
8
BLACK
6
CONTINUOUS
10
121.487
20
-159.677
11
121.488
21
-159.677
0
LINE
8
BLACK
6
CONTINUOUS
10
121.488
20
-159.677
11
121.489
21
-159.677
0
LINE
8
BLACK
6
CONTINUOUS
10
121.489
20
-159.677
11
126.872
21
-159.677
0
LINE
8
BLACK
6
CONTINUOUS
10
126.872
20
-159.677
11
126.873
21
-159.677
0
LINE
8
BLACK
6
CONTINUOUS
10
126.873
20
-159.677
11
126.873
21
-159.677
0
LINE
8
BLACK
6
CONTINUOUS
10
126.873
20
-159.677
11
126.874
21
-159.677
0
LINE
8
BLACK
6
CONTINUOUS
10
126.874
20
-159.677
11
126.875
21
-159.678
0
LINE
8
BLACK
6
CONTINUOUS
10
126.875
20
-159.678
11
144.906
21
-160.376
0
LINE
8
BLACK
6
CONTINUOUS
10
144.906
20
-160.376
11
144.906
21
-160.376
0
LINE
8
BLACK
6
CONTINUOUS
10
144.906
20
-160.376
11
144.908
21
-160.376
0
LINE
8
BLACK
6
CONTINUOUS
10
144.908
20
-160.376
11
144.909
21
-160.376
0
LINE
8
BLACK
6
CONTINUOUS
10
144.909
20
-160.376
11
144.91
21
-160.376
0
LINE
8
BLACK
6
CONTINUOUS
10
144.91
20
-160.376
11
144.911
21
-160.376
0
LINE
8
BLACK
6
CONTINUOUS
10
144.911
20
-160.376
11
144.912
21
-160.376
0
LINE
8
BLACK
6
CONTINUOUS
10
144.912
20
-160.376
11
144.913
21
-160.377
0
LINE
8
BLACK
6
CONTINUOUS
10
144.913
20
-160.377
11
144.914
21
-160.377
0
LINE
8
BLACK
6
CONTINUOUS
10
144.914
20
-160.377
11
144.915
21
-160.377
0
LINE
8
BLACK
6
CONTINUOUS
10
144.915
20
-160.377
11
144.916
21
-160.378
0
LINE
8
BLACK
6
CONTINUOUS
10
144.916
20
-160.378
11
144.918
21
-160.378
0
LINE
8
BLACK
6
CONTINUOUS
10
144.918
20
-160.378
11
144.918
21
-160.378
0
LINE
8
BLACK
6
CONTINUOUS
10
144.918
20
-160.378
11
162.632
21
-167.299
0
LINE
8
BLACK
6
CONTINUOUS
10
162.632
20
-167.299
11
162.633
21
-167.299
0
LINE
8
BLACK
6
CONTINUOUS
10
162.633
20
-167.299
11
162.633
21
-167.3
0
LINE
8
BLACK
6
CONTINUOUS
10
162.633
20
-167.3
11
162.634
21
-167.3
0
LINE
8
BLACK
6
CONTINUOUS
10
162.634
20
-167.3
11
162.635
21
-167.3
0
LINE
8
BLACK
6
CONTINUOUS
10
162.635
20
-167.3
11
172.678
21
-172.049
0
LINE
8
BLACK
6
CONTINUOUS
10
172.678
20
-172.049
11
172.679
21
-172.049
0
LINE
8
BLACK
6
CONTINUOUS
10
172.679
20
-172.049
11
172.68
21
-172.05
0
LINE
8
BLACK
6
CONTINUOUS
10
172.68
20
-172.05
11
172.681
21
-172.05
0
LINE
8
BLACK
6
CONTINUOUS
10
172.681
20
-172.05
11
172.681
21
-172.05
0
LINE
8
BLACK
6
CONTINUOUS
10
172.681
20
-172.05
11
172.682
21
-172.051
0
LINE
8
BLACK
6
CONTINUOUS
10
172.682
20
-172.051
11
172.682
21
-172.051
0
LINE
8
BLACK
6
CONTINUOUS
10
172.682
20
-172.051
11
172.684
21
-172.052
0
LINE
8
BLACK
6
CONTINUOUS
10
172.684
20
-172.052
11
172.685
21
-172.052
0
LINE
8
BLACK
6
CONTINUOUS
10
172.685
20
-172.052
11
176.581
21
-174.591
0
LINE
8
BLACK
6
CONTINUOUS
10
176.581
20
-174.591
11
176.582
21
-174.591
0
LINE
8
BLACK
6
CONTINUOUS
10
176.582
20
-174.591
11
176.583
21
-174.592
0
LINE
8
BLACK
6
CONTINUOUS
10
176.583
20
-174.592
11
176.583
21
-174.592
0
LINE
8
BLACK
6
CONTINUOUS
10
176.583
20
-174.592
11
176.584
21
-174.593
0
LINE
8
BLACK
6
CONTINUOUS
10
176.584
20
-174.593
11
176.585
21
-174.594
0
LINE
8
BLACK
6
CONTINUOUS
10
176.585
20
-174.594
11
176.586
21
-174.594
0
LINE
8
BLACK
6
CONTINUOUS
10
176.586
20
-174.594
11
176.586
21
-174.594
0
LINE
8
BLACK
6
CONTINUOUS
10
176.586
20
-174.594
11
176.587
21
-174.596
0
LINE
8
BLACK
6
CONTINUOUS
10
176.587
20
-174.596
11
176.589
21
-174.598
0
LINE
8
BLACK
6
CONTINUOUS
10
176.589
20
-174.598
11
176.589
21
-174.598
0
LINE
8
BLACK
6
CONTINUOUS
10
176.589
20
-174.598
11
176.589
21
-174.598
0
LINE
8
BLACK
6
CONTINUOUS
10
176.589
20
-174.598
11
176.59
21
-174.6
0
LINE
8
BLACK
6
CONTINUOUS
10
176.59
20
-174.6
11
176.591
21
-174.602
0
LINE
8
BLACK
6
CONTINUOUS
10
176.591
20
-174.602
11
176.591
21
-174.602
0
LINE
8
BLACK
6
CONTINUOUS
10
176.591
20
-174.602
11
176.591
21
-174.602
0
LINE
8
BLACK
6
CONTINUOUS
10
176.591
20
-174.602
11
176.592
21
-174.605
0
LINE
8
BLACK
6
CONTINUOUS
10
176.592
20
-174.605
11
176.593
21
-174.607
0
LINE
8
BLACK
6
CONTINUOUS
10
176.593
20
-174.607
11
176.593
21
-174.607
0
LINE
8
BLACK
6
CONTINUOUS
10
176.593
20
-174.607
11
176.593
21
-174.607
0
LINE
8
BLACK
6
CONTINUOUS
10
176.593
20
-174.607
11
176.593
21
-174.609
0
LINE
8
BLACK
6
CONTINUOUS
10
176.593
20
-174.609
11
176.593
21
-174.612
0
LINE
8
BLACK
6
CONTINUOUS
10
176.593
20
-174.612
11
176.593
21
-174.612
0
LINE
8
BLACK
6
CONTINUOUS
10
176.593
20
-174.612
11
176.593
21
-174.612
0
LINE
8
BLACK
6
CONTINUOUS
10
176.593
20
-174.612
11
176.593
21
-174.614
0
LINE
8
BLACK
6
CONTINUOUS
10
176.593
20
-174.614
11
176.593
21
-174.617
0
LINE
8
BLACK
6
CONTINUOUS
10
176.593
20
-174.617
11
176.593
21
-174.617
0
LINE
8
BLACK
6
CONTINUOUS
10
176.593
20
-174.617
11
176.593
21
-174.617
0
LINE
8
BLACK
6
CONTINUOUS
10
176.593
20
-174.617
11
176.592
21
-174.619
0
LINE
8
BLACK
6
CONTINUOUS
10
176.592
20
-174.619
11
176.592
21
-174.621
0
LINE
8
BLACK
6
CONTINUOUS
10
176.592
20
-174.621
11
176.591
21
-174.621
0
LINE
8
BLACK
6
CONTINUOUS
10
176.591
20
-174.621
11
176.591
21
-174.622
0
LINE
8
BLACK
6
CONTINUOUS
10
176.591
20
-174.622
11
176.59
21
-174.624
0
LINE
8
BLACK
6
CONTINUOUS
10
176.59
20
-174.624
11
176.59
21
-174.625
0
LINE
8
BLACK
6
CONTINUOUS
10
176.59
20
-174.625
11
176.59
21
-174.625
0
LINE
8
BLACK
6
CONTINUOUS
10
176.59
20
-174.625
11
176.589
21
-174.626
0
LINE
8
BLACK
6
CONTINUOUS
10
176.589
20
-174.626
11
176.588
21
-174.627
0
LINE
8
BLACK
6
CONTINUOUS
10
176.588
20
-174.627
11
175.358
21
-176.568
0
LINE
8
BLACK
6
CONTINUOUS
10
175.358
20
-176.568
11
175.12
21
-176.983
0
LINE
8
BLACK
6
CONTINUOUS
10
175.12
20
-176.983
11
174.809
21
-177.778
0
LINE
8
BLACK
6
CONTINUOUS
10
174.809
20
-177.778
11
174.654
21
-178.616
0
LINE
8
BLACK
6
CONTINUOUS
10
174.654
20
-178.616
11
174.66
21
-179.469
0
LINE
8
BLACK
6
CONTINUOUS
10
174.66
20
-179.469
11
174.828
21
-180.306
0
LINE
8
BLACK
6
CONTINUOUS
10
174.828
20
-180.306
11
175.151
21
-181.095
0
LINE
8
BLACK
6
CONTINUOUS
10
175.151
20
-181.095
11
175.617
21
-181.809
0
LINE
8
BLACK
6
CONTINUOUS
10
175.617
20
-181.809
11
176.21
21
-182.422
0
LINE
8
BLACK
6
CONTINUOUS
10
176.21
20
-182.422
11
176.908
21
-182.912
0
LINE
8
BLACK
6
CONTINUOUS
10
176.908
20
-182.912
11
177.686
21
-183.262
0
LINE
8
BLACK
6
CONTINUOUS
10
177.686
20
-183.262
11
178.516
21
-183.457
0
LINE
8
BLACK
6
CONTINUOUS
10
178.516
20
-183.457
11
179.369
21
-183.492
0
LINE
8
BLACK
6
CONTINUOUS
10
179.369
20
-183.492
11
180.212
21
-183.366
0
LINE
8
BLACK
6
CONTINUOUS
10
180.212
20
-183.366
11
181.016
21
-183.082
0
LINE
8
BLACK
6
CONTINUOUS
10
181.016
20
-183.082
11
181.753
21
-182.651
0
LINE
8
BLACK
6
CONTINUOUS
10
181.753
20
-182.651
11
182.394
21
-182.089
0
LINE
8
BLACK
6
CONTINUOUS
10
182.394
20
-182.089
11
182.918
21
-181.415
0
LINE
8
BLACK
6
CONTINUOUS
10
182.918
20
-181.415
11
184.141
21
-179.527
0
LINE
8
BLACK
6
CONTINUOUS
10
184.141
20
-179.527
11
184.142
21
-179.526
0
LINE
8
BLACK
6
CONTINUOUS
10
184.142
20
-179.526
11
184.143
21
-179.525
0
LINE
8
BLACK
6
CONTINUOUS
10
184.143
20
-179.525
11
184.145
21
-179.522
0
LINE
8
BLACK
6
CONTINUOUS
10
184.145
20
-179.522
11
184.145
21
-179.522
0
LINE
8
BLACK
6
CONTINUOUS
10
184.145
20
-179.522
11
184.145
21
-179.522
0
LINE
8
BLACK
6
CONTINUOUS
10
184.145
20
-179.522
11
184.146
21
-179.521
0
LINE
8
BLACK
6
CONTINUOUS
10
184.146
20
-179.521
11
184.148
21
-179.519
0
LINE
8
BLACK
6
CONTINUOUS
10
184.148
20
-179.519
11
184.148
21
-179.519
0
LINE
8
BLACK
6
CONTINUOUS
10
184.148
20
-179.519
11
184.148
21
-179.519
0
LINE
8
BLACK
6
CONTINUOUS
10
184.148
20
-179.519
11
184.15
21
-179.518
0
LINE
8
BLACK
6
CONTINUOUS
10
184.15
20
-179.518
11
184.153
21
-179.517
0
LINE
8
BLACK
6
CONTINUOUS
10
184.153
20
-179.517
11
184.153
21
-179.517
0
LINE
8
BLACK
6
CONTINUOUS
10
184.153
20
-179.517
11
184.153
21
-179.517
0
LINE
8
BLACK
6
CONTINUOUS
10
184.153
20
-179.517
11
184.154
21
-179.516
0
LINE
8
BLACK
6
CONTINUOUS
10
184.154
20
-179.516
11
184.157
21
-179.515
0
LINE
8
BLACK
6
CONTINUOUS
10
184.157
20
-179.515
11
184.157
21
-179.515
0
LINE
8
BLACK
6
CONTINUOUS
10
184.157
20
-179.515
11
184.157
21
-179.515
0
LINE
8
BLACK
6
CONTINUOUS
10
184.157
20
-179.515
11
184.159
21
-179.515
0
LINE
8
BLACK
6
CONTINUOUS
10
184.159
20
-179.515
11
184.162
21
-179.515
0
LINE
8
BLACK
6
CONTINUOUS
10
184.162
20
-179.515
11
184.162
21
-179.515
0
LINE
8
BLACK
6
CONTINUOUS
10
184.162
20
-179.515
11
184.162
21
-179.515
0
LINE
8
BLACK
6
CONTINUOUS
10
184.162
20
-179.515
11
184.165
21
-179.515
0
LINE
8
BLACK
6
CONTINUOUS
10
184.165
20
-179.515
11
184.167
21
-179.515
0
LINE
8
BLACK
6
CONTINUOUS
10
184.167
20
-179.515
11
184.167
21
-179.515
0
LINE
8
BLACK
6
CONTINUOUS
10
184.167
20
-179.515
11
184.167
21
-179.515
0
LINE
8
BLACK
6
CONTINUOUS
10
184.167
20
-179.515
11
184.17
21
-179.516
0
LINE
8
BLACK
6
CONTINUOUS
10
184.17
20
-179.516
11
184.172
21
-179.517
0
LINE
8
BLACK
6
CONTINUOUS
10
184.172
20
-179.517
11
184.172
21
-179.517
0
LINE
8
BLACK
6
CONTINUOUS
10
184.172
20
-179.517
11
184.172
21
-179.517
0
LINE
8
BLACK
6
CONTINUOUS
10
184.172
20
-179.517
11
184.174
21
-179.518
0
LINE
8
BLACK
6
CONTINUOUS
10
184.174
20
-179.518
11
184.176
21
-179.519
0
LINE
8
BLACK
6
CONTINUOUS
10
184.176
20
-179.519
11
184.177
21
-179.52
0
LINE
8
BLACK
6
CONTINUOUS
10
184.177
20
-179.52
11
197.218
21
-187.989
0
LINE
8
BLACK
6
CONTINUOUS
10
197.218
20
-187.989
11
197.3
21
-188.027
0
LINE
8
BLACK
6
CONTINUOUS
10
197.3
20
-188.027
11
197.468
21
-188.077
0
LINE
8
BLACK
6
CONTINUOUS
10
197.468
20
-188.077
11
197.642
21
-188.093
0
LINE
8
BLACK
6
CONTINUOUS
10
197.642
20
-188.093
11
197.816
21
-188.075
0
LINE
8
BLACK
6
CONTINUOUS
10
197.816
20
-188.075
11
197.983
21
-188.024
0
LINE
8
BLACK
6
CONTINUOUS
10
197.983
20
-188.024
11
198.137
21
-187.941
0
LINE
8
BLACK
6
CONTINUOUS
10
198.137
20
-187.941
11
198.272
21
-187.83
0
LINE
8
BLACK
6
CONTINUOUS
10
198.272
20
-187.83
11
198.383
21
-187.694
0
LINE
8
BLACK
6
CONTINUOUS
10
198.383
20
-187.694
11
215.952
21
-160.694
0
LINE
8
BLACK
6
CONTINUOUS
10
215.952
20
-160.694
11
215.99
21
-160.611
0
LINE
8
BLACK
6
CONTINUOUS
10
215.99
20
-160.611
11
216.04
21
-160.443
0
LINE
8
BLACK
6
CONTINUOUS
10
216.04
20
-160.443
11
216.056
21
-160.269
0
LINE
8
BLACK
6
CONTINUOUS
10
216.056
20
-160.269
11
216.038
21
-160.095
0
LINE
8
BLACK
6
CONTINUOUS
10
216.038
20
-160.095
11
215.987
21
-159.928
0
LINE
8
BLACK
6
CONTINUOUS
10
215.987
20
-159.928
11
215.904
21
-159.775
0
LINE
8
BLACK
6
CONTINUOUS
10
215.904
20
-159.775
11
215.793
21
-159.64
0
LINE
8
BLACK
6
CONTINUOUS
10
215.793
20
-159.64
11
215.667
21
-159.537
0
LINE
8
BLACK
6
CONTINUOUS
10
215.667
20
-159.537
11
215.662
21
-159.535
0
LINE
8
BLACK
6
CONTINUOUS
10
215.662
20
-159.535
11
215.659
21
-159.534
0
LINE
8
BLACK
6
CONTINUOUS
10
215.659
20
-159.534
11
186.732
21
-140.736
0
LINE
8
BLACK
6
CONTINUOUS
10
186.732
20
-140.736
11
186.732
21
-140.736
0
LINE
8
BLACK
6
CONTINUOUS
10
186.732
20
-140.736
11
186.578
21
-140.633
0
LINE
8
BLACK
6
CONTINUOUS
10
186.578
20
-140.633
11
186.578
21
-140.633
0
LINE
8
BLACK
6
CONTINUOUS
10
186.578
20
-140.633
11
186.576
21
-140.631
0
LINE
8
BLACK
6
CONTINUOUS
10
186.576
20
-140.631
11
186.574
21
-140.63
0
LINE
8
BLACK
6
CONTINUOUS
10
186.574
20
-140.63
11
186.443
21
-140.498
0
LINE
8
BLACK
6
CONTINUOUS
10
186.443
20
-140.498
11
186.443
21
-140.498
0
LINE
8
BLACK
6
CONTINUOUS
10
186.443
20
-140.498
11
186.442
21
-140.496
0
LINE
8
BLACK
6
CONTINUOUS
10
186.442
20
-140.496
11
186.44
21
-140.495
0
LINE
8
BLACK
6
CONTINUOUS
10
186.44
20
-140.495
11
186.337
21
-140.34
0
LINE
8
BLACK
6
CONTINUOUS
10
186.337
20
-140.34
11
186.337
21
-140.34
0
LINE
8
BLACK
6
CONTINUOUS
10
186.337
20
-140.34
11
186.336
21
-140.338
0
LINE
8
BLACK
6
CONTINUOUS
10
186.336
20
-140.338
11
186.335
21
-140.336
0
LINE
8
BLACK
6
CONTINUOUS
10
186.335
20
-140.336
11
186.264
21
-140.164
0
LINE
8
BLACK
6
CONTINUOUS
10
186.264
20
-140.164
11
186.263
21
-140.163
0
LINE
8
BLACK
6
CONTINUOUS
10
186.263
20
-140.163
11
186.263
21
-140.161
0
LINE
8
BLACK
6
CONTINUOUS
10
186.263
20
-140.161
11
186.262
21
-140.159
0
LINE
8
BLACK
6
CONTINUOUS
10
186.262
20
-140.159
11
186.226
21
-139.977
0
LINE
8
BLACK
6
CONTINUOUS
10
186.226
20
-139.977
11
186.226
21
-139.976
0
LINE
8
BLACK
6
CONTINUOUS
10
186.226
20
-139.976
11
186.225
21
-139.975
0
LINE
8
BLACK
6
CONTINUOUS
10
186.225
20
-139.975
11
186.225
21
-139.973
0
LINE
8
BLACK
6
CONTINUOUS
10
186.225
20
-139.973
11
186.221
21
-139.879
0
LINE
8
BLACK
6
CONTINUOUS
10
186.221
20
-139.879
11
186.221
21
-139.879
0
LINE
8
BLACK
6
CONTINUOUS
10
186.221
20
-139.879
11
186.22
21
-134.304
0
LINE
8
BLACK
6
CONTINUOUS
10
186.22
20
-134.304
11
186.22
21
-134.302
0
LINE
8
BLACK
6
CONTINUOUS
10
186.22
20
-134.302
11
186.22
21
-134.301
0
LINE
8
BLACK
6
CONTINUOUS
10
186.22
20
-134.301
11
186.221
21
-134.298
0
LINE
8
BLACK
6
CONTINUOUS
10
186.221
20
-134.298
11
186.222
21
-134.293
0
LINE
8
BLACK
6
CONTINUOUS
10
186.222
20
-134.293
11
186.225
21
-134.289
0
LINE
8
BLACK
6
CONTINUOUS
10
186.225
20
-134.289
11
186.225
21
-134.289
0
LINE
8
BLACK
6
CONTINUOUS
10
186.225
20
-134.289
11
186.225
21
-134.289
0
LINE
8
BLACK
6
CONTINUOUS
10
186.225
20
-134.289
11
186.226
21
-134.286
0
LINE
8
BLACK
6
CONTINUOUS
10
186.226
20
-134.286
11
186.228
21
-134.285
0
LINE
8
BLACK
6
CONTINUOUS
10
186.228
20
-134.285
11
186.232
21
-134.282
0
LINE
8
BLACK
6
CONTINUOUS
10
186.232
20
-134.282
11
186.236
21
-134.279
0
LINE
8
BLACK
6
CONTINUOUS
10
186.236
20
-134.279
11
186.236
21
-134.279
0
LINE
8
BLACK
6
CONTINUOUS
10
186.236
20
-134.279
11
186.236
21
-134.279
0
LINE
8
BLACK
6
CONTINUOUS
10
186.236
20
-134.279
11
186.237
21
-134.279
0
LINE
8
BLACK
6
CONTINUOUS
10
186.237
20
-134.279
11
186.241
21
-134.278
0
LINE
8
BLACK
6
CONTINUOUS
10
186.241
20
-134.278
11
186.241
21
-134.278
0
LINE
8
BLACK
6
CONTINUOUS
10
186.241
20
-134.278
11
186.241
21
-134.278
0
LINE
8
BLACK
6
CONTINUOUS
10
186.241
20
-134.278
11
186.241
21
-134.278
0
LINE
8
BLACK
6
CONTINUOUS
10
186.241
20
-134.278
11
186.245
21
-134.277
0
LINE
8
BLACK
6
CONTINUOUS
10
186.245
20
-134.277
11
186.247
21
-134.278
0
LINE
8
BLACK
6
CONTINUOUS
10
186.247
20
-134.278
11
188.355
21
-134.278
0
LINE
8
BLACK
6
CONTINUOUS
10
188.355
20
-134.278
11
188.794
21
-134.257
0
LINE
8
BLACK
6
CONTINUOUS
10
188.794
20
-134.257
11
189.631
21
-134.093
0
LINE
8
BLACK
6
CONTINUOUS
10
189.631
20
-134.093
11
190.422
21
-133.774
0
LINE
8
BLACK
6
CONTINUOUS
10
190.422
20
-133.774
11
191.139
21
-133.312
0
LINE
8
BLACK
6
CONTINUOUS
10
191.139
20
-133.312
11
191.755
21
-132.722
0
LINE
8
BLACK
6
CONTINUOUS
10
191.755
20
-132.722
11
192.248
21
-132.026
0
LINE
8
BLACK
6
CONTINUOUS
10
192.248
20
-132.026
11
192.601
21
-131.25
0
LINE
8
BLACK
6
CONTINUOUS
10
192.601
20
-131.25
11
192.801
21
-130.421
0
LINE
8
BLACK
6
CONTINUOUS
10
192.801
20
-130.421
11
192.841
21
-129.569
0
LINE
8
BLACK
6
CONTINUOUS
10
192.841
20
-129.569
11
192.718
21
-128.725
0
LINE
8
BLACK
6
CONTINUOUS
10
192.718
20
-128.725
11
192.439
21
-127.919
0
LINE
8
BLACK
6
CONTINUOUS
10
192.439
20
-127.919
11
192.011
21
-127.181
0
LINE
8
BLACK
6
CONTINUOUS
10
192.011
20
-127.181
11
191.452
21
-126.536
0
LINE
8
BLACK
6
CONTINUOUS
10
191.452
20
-126.536
11
190.782
21
-126.01
0
LINE
8
BLACK
6
CONTINUOUS
10
190.782
20
-126.01
11
190.023
21
-125.619
0
LINE
8
BLACK
6
CONTINUOUS
10
190.023
20
-125.619
11
189.205
21
-125.379
0
LINE
8
BLACK
6
CONTINUOUS
10
189.205
20
-125.379
11
188.355
21
-125.298
0
LINE
8
BLACK
6
CONTINUOUS
10
188.355
20
-125.298
11
186.247
21
-125.298
0
LINE
8
BLACK
6
CONTINUOUS
10
186.247
20
-125.298
11
186.245
21
-125.298
0
LINE
8
BLACK
6
CONTINUOUS
10
186.245
20
-125.298
11
186.244
21
-125.298
0
LINE
8
BLACK
6
CONTINUOUS
10
186.244
20
-125.298
11
186.244
21
-125.298
0
LINE
8
BLACK
6
CONTINUOUS
10
186.244
20
-125.298
11
186.241
21
-125.297
0
LINE
8
BLACK
6
CONTINUOUS
10
186.241
20
-125.297
11
186.236
21
-125.296
0
LINE
8
BLACK
6
CONTINUOUS
10
186.236
20
-125.296
11
186.232
21
-125.294
0
LINE
8
BLACK
6
CONTINUOUS
10
186.232
20
-125.294
11
186.228
21
-125.291
0
LINE
8
BLACK
6
CONTINUOUS
10
186.228
20
-125.291
11
186.225
21
-125.287
0
LINE
8
BLACK
6
CONTINUOUS
10
186.225
20
-125.287
11
186.222
21
-125.282
0
LINE
8
BLACK
6
CONTINUOUS
10
186.222
20
-125.282
11
186.221
21
-125.278
0
LINE
8
BLACK
6
CONTINUOUS
10
186.221
20
-125.278
11
186.22
21
-125.273
0
LINE
8
BLACK
6
CONTINUOUS
10
186.22
20
-125.273
11
186.22
21
-125.272
0
LINE
8
BLACK
6
CONTINUOUS
10
186.22
20
-125.272
11
186.221
21
-60.7683
0
LINE
8
BLACK
6
CONTINUOUS
10
186.221
20
-60.7683
11
186.221
21
-59.0406
0
LINE
8
BLACK
6
CONTINUOUS
10
186.221
20
-59.0406
11
186.2
21
-58.6024
0
LINE
8
BLACK
6
CONTINUOUS
10
186.2
20
-58.6024
11
186.036
21
-57.7647
0
LINE
8
BLACK
6
CONTINUOUS
10
186.036
20
-57.7647
11
185.717
21
-56.9737
0
LINE
8
BLACK
6
CONTINUOUS
10
185.717
20
-56.9737
11
185.255
21
-56.2572
0
LINE
8
BLACK
6
CONTINUOUS
10
185.255
20
-56.2572
11
184.665
21
-55.641
0
LINE
8
BLACK
6
CONTINUOUS
10
184.665
20
-55.641
11
183.969
21
-55.1476
0
LINE
8
BLACK
6
CONTINUOUS
10
183.969
20
-55.1476
11
183.193
21
-54.7946
0
LINE
8
BLACK
6
CONTINUOUS
10
183.193
20
-54.7946
11
182.364
21
-54.5947
0
LINE
8
BLACK
6
CONTINUOUS
10
182.364
20
-54.5947
11
181.512
21
-54.5553
0
LINE
8
BLACK
6
CONTINUOUS
10
181.512
20
-54.5553
11
180.668
21
-54.6777
0
LINE
8
BLACK
6
CONTINUOUS
10
180.668
20
-54.6777
11
179.862
21
-54.9575
0
LINE
8
BLACK
6
CONTINUOUS
10
179.862
20
-54.9575
11
179.124
21
-55.3846
0
LINE
8
BLACK
6
CONTINUOUS
10
179.124
20
-55.3846
11
178.479
21
-55.9436
0
LINE
8
BLACK
6
CONTINUOUS
10
178.479
20
-55.9436
11
177.953
21
-56.6143
0
LINE
8
BLACK
6
CONTINUOUS
10
177.953
20
-56.6143
11
177.562
21
-57.3725
0
LINE
8
BLACK
6
CONTINUOUS
10
177.562
20
-57.3725
11
177.322
21
-58.1909
0
LINE
8
BLACK
6
CONTINUOUS
10
177.322
20
-58.1909
11
177.241
21
-59.0412
0
LINE
8
BLACK
6
CONTINUOUS
10
177.241
20
-59.0412
11
177.241
21
-60.7683
0
LINE
8
BLACK
6
CONTINUOUS
10
177.241
20
-60.7683
11
177.241
21
-60.7695
0
LINE
8
BLACK
6
CONTINUOUS
10
177.241
20
-60.7695
11
177.241
21
-60.7707
0
LINE
8
BLACK
6
CONTINUOUS
10
177.241
20
-60.7707
11
177.24
21
-60.7744
0
LINE
8
BLACK
6
CONTINUOUS
10
177.24
20
-60.7744
11
177.239
21
-60.7791
0
LINE
8
BLACK
6
CONTINUOUS
10
177.239
20
-60.7791
11
177.237
21
-60.7835
0
LINE
8
BLACK
6
CONTINUOUS
10
177.237
20
-60.7835
11
177.234
21
-60.7873
0
LINE
8
BLACK
6
CONTINUOUS
10
177.234
20
-60.7873
11
177.23
21
-60.7904
0
LINE
8
BLACK
6
CONTINUOUS
10
177.23
20
-60.7904
11
177.225
21
-60.7927
0
LINE
8
BLACK
6
CONTINUOUS
10
177.225
20
-60.7927
11
177.221
21
-60.7941
0
LINE
8
BLACK
6
CONTINUOUS
10
177.221
20
-60.7941
11
177.216
21
-60.7946
0
LINE
8
BLACK
6
CONTINUOUS
10
177.216
20
-60.7946
11
177.215
21
-60.7945
0
LINE
8
BLACK
6
CONTINUOUS
10
177.215
20
-60.7945
11
167.512
21
-60.7945
0
LINE
8
BLACK
6
CONTINUOUS
10
167.512
20
-60.7945
11
167.511
21
-60.7944
0
LINE
8
BLACK
6
CONTINUOUS
10
167.511
20
-60.7944
11
167.511
21
-60.7944
0
LINE
8
BLACK
6
CONTINUOUS
10
167.511
20
-60.7944
11
167.239
21
-60.7678
0
LINE
8
BLACK
6
CONTINUOUS
10
167.239
20
-60.7678
11
167.239
21
-60.7677
0
LINE
8
BLACK
6
CONTINUOUS
10
167.239
20
-60.7677
11
167.237
21
-60.7673
0
LINE
8
BLACK
6
CONTINUOUS
10
167.237
20
-60.7673
11
167.234
21
-60.7668
0
LINE
8
BLACK
6
CONTINUOUS
10
167.234
20
-60.7668
11
166.973
21
-60.688
0
LINE
8
BLACK
6
CONTINUOUS
10
166.973
20
-60.688
11
166.973
21
-60.6879
0
LINE
8
BLACK
6
CONTINUOUS
10
166.973
20
-60.6879
11
166.971
21
-60.687
0
LINE
8
BLACK
6
CONTINUOUS
10
166.971
20
-60.687
11
166.969
21
-60.6862
0
LINE
8
BLACK
6
CONTINUOUS
10
166.969
20
-60.6862
11
166.728
21
-60.5582
0
LINE
8
BLACK
6
CONTINUOUS
10
166.728
20
-60.5582
11
166.728
21
-60.558
0
LINE
8
BLACK
6
CONTINUOUS
10
166.728
20
-60.558
11
166.726
21
-60.5567
0
LINE
8
BLACK
6
CONTINUOUS
10
166.726
20
-60.5567
11
166.724
21
-60.5555
0
LINE
8
BLACK
6
CONTINUOUS
10
166.724
20
-60.5555
11
166.513
21
-60.3831
0
LINE
8
BLACK
6
CONTINUOUS
10
166.513
20
-60.3831
11
166.513
21
-60.3829
0
LINE
8
BLACK
6
CONTINUOUS
10
166.513
20
-60.3829
11
166.511
21
-60.3813
0
LINE
8
BLACK
6
CONTINUOUS
10
166.511
20
-60.3813
11
166.509
21
-60.3797
0
LINE
8
BLACK
6
CONTINUOUS
10
166.509
20
-60.3797
11
166.336
21
-60.1696
0
LINE
8
BLACK
6
CONTINUOUS
10
166.336
20
-60.1696
11
166.335
21
-60.1694
0
LINE
8
BLACK
6
CONTINUOUS
10
166.335
20
-60.1694
11
166.334
21
-60.1675
0
LINE
8
BLACK
6
CONTINUOUS
10
166.334
20
-60.1675
11
166.333
21
-60.1656
0
LINE
8
BLACK
6
CONTINUOUS
10
166.333
20
-60.1656
11
166.203
21
-59.9258
0
LINE
8
BLACK
6
CONTINUOUS
10
166.203
20
-59.9258
11
166.203
21
-59.9254
0
LINE
8
BLACK
6
CONTINUOUS
10
166.203
20
-59.9254
11
166.202
21
-59.9233
0
LINE
8
BLACK
6
CONTINUOUS
10
166.202
20
-59.9233
11
166.201
21
-59.9213
0
LINE
8
BLACK
6
CONTINUOUS
10
166.201
20
-59.9213
11
166.121
21
-59.6608
0
LINE
8
BLACK
6
CONTINUOUS
10
166.121
20
-59.6608
11
166.121
21
-59.6605
0
LINE
8
BLACK
6
CONTINUOUS
10
166.121
20
-59.6605
11
166.12
21
-59.6582
0
LINE
8
BLACK
6
CONTINUOUS
10
166.12
20
-59.6582
11
166.12
21
-59.656
0
LINE
8
BLACK
6
CONTINUOUS
10
166.12
20
-59.656
11
166.091
21
-59.3849
0
LINE
8
BLACK
6
CONTINUOUS
10
166.091
20
-59.3849
11
166.091
21
-59.3845
0
LINE
8
BLACK
6
CONTINUOUS
10
166.091
20
-59.3845
11
166.091
21
-59.3834
0
LINE
8
BLACK
6
CONTINUOUS
10
166.091
20
-59.3834
11
166.091
21
-59.3823
0
LINE
8
BLACK
6
CONTINUOUS
10
166.091
20
-59.3823
11
166.091
21
-59.3737
0
LINE
8
BLACK
6
CONTINUOUS
10
166.091
20
-59.3737
11
166.091
21
-59.3737
0
LINE
8
BLACK
6
CONTINUOUS
10
166.091
20
-59.3737
11
166.091
21
-59.3729
0
LINE
8
BLACK
6
CONTINUOUS
10
166.091
20
-59.3729
11
166.091
21
-59.3726
0
LINE
8
BLACK
6
CONTINUOUS
10
166.091
20
-59.3726
11
166.091
21
-59.3722
0
LINE
8
BLACK
6
CONTINUOUS
10
166.091
20
-59.3722
11
166.091
21
-58.8646
0
LINE
8
BLACK
6
CONTINUOUS
10
166.091
20
-58.8646
11
166.091
21
-58.8619
0
LINE
8
BLACK
6
CONTINUOUS
10
166.091
20
-58.8619
11
166.08
21
-58.7546
0
LINE
8
BLACK
6
CONTINUOUS
10
166.08
20
-58.7546
11
166.048
21
-58.6528
0
LINE
8
BLACK
6
CONTINUOUS
10
166.048
20
-58.6528
11
165.997
21
-58.559
0
LINE
8
BLACK
6
CONTINUOUS
10
165.997
20
-58.559
11
165.929
21
-58.4768
0
LINE
8
BLACK
6
CONTINUOUS
10
165.929
20
-58.4768
11
165.847
21
-58.4094
0
LINE
8
BLACK
6
CONTINUOUS
10
165.847
20
-58.4094
11
165.753
21
-58.3593
0
LINE
8
BLACK
6
CONTINUOUS
10
165.753
20
-58.3593
11
165.651
21
-58.3285
0
LINE
8
BLACK
6
CONTINUOUS
10
165.651
20
-58.3285
11
165.543
21
-58.318
0
LINE
8
BLACK
6
CONTINUOUS
10
165.543
20
-58.318
11
148.462
21
-58.318
0
LINE
8
BLACK
6
CONTINUOUS
10
148.462
20
-58.318
11
148.461
21
-58.3179
0
LINE
8
BLACK
6
CONTINUOUS
10
148.461
20
-58.3179
11
148.461
21
-58.3179
0
LINE
8
BLACK
6
CONTINUOUS
10
148.461
20
-58.3179
11
148.189
21
-58.2913
0
LINE
8
BLACK
6
CONTINUOUS
10
148.189
20
-58.2913
11
148.189
21
-58.2912
0
LINE
8
BLACK
6
CONTINUOUS
10
148.189
20
-58.2912
11
148.187
21
-58.2908
0
LINE
8
BLACK
6
CONTINUOUS
10
148.187
20
-58.2908
11
148.184
21
-58.2903
0
LINE
8
BLACK
6
CONTINUOUS
10
148.184
20
-58.2903
11
147.923
21
-58.2115
0
LINE
8
BLACK
6
CONTINUOUS
10
147.923
20
-58.2115
11
147.923
21
-58.2114
0
LINE
8
BLACK
6
CONTINUOUS
10
147.923
20
-58.2114
11
147.921
21
-58.2105
0
LINE
8
BLACK
6
CONTINUOUS
10
147.921
20
-58.2105
11
147.919
21
-58.2097
0
LINE
8
BLACK
6
CONTINUOUS
10
147.919
20
-58.2097
11
147.678
21
-58.0817
0
LINE
8
BLACK
6
CONTINUOUS
10
147.678
20
-58.0817
11
147.678
21
-58.0815
0
LINE
8
BLACK
6
CONTINUOUS
10
147.678
20
-58.0815
11
147.676
21
-58.0802
0
LINE
8
BLACK
6
CONTINUOUS
10
147.676
20
-58.0802
11
147.674
21
-58.079
0
LINE
8
BLACK
6
CONTINUOUS
10
147.674
20
-58.079
11
147.463
21
-57.9066
0
LINE
8
BLACK
6
CONTINUOUS
10
147.463
20
-57.9066
11
147.463
21
-57.9064
0
LINE
8
BLACK
6
CONTINUOUS
10
147.463
20
-57.9064
11
147.461
21
-57.9048
0
LINE
8
BLACK
6
CONTINUOUS
10
147.461
20
-57.9048
11
147.459
21
-57.9032
0
LINE
8
BLACK
6
CONTINUOUS
10
147.459
20
-57.9032
11
147.286
21
-57.6931
0
LINE
8
BLACK
6
CONTINUOUS
10
147.286
20
-57.6931
11
147.285
21
-57.6929
0
LINE
8
BLACK
6
CONTINUOUS
10
147.285
20
-57.6929
11
147.284
21
-57.691
0
LINE
8
BLACK
6
CONTINUOUS
10
147.284
20
-57.691
11
147.283
21
-57.6891
0
LINE
8
BLACK
6
CONTINUOUS
10
147.283
20
-57.6891
11
147.153
21
-57.4492
0
LINE
8
BLACK
6
CONTINUOUS
10
147.153
20
-57.4492
11
147.153
21
-57.4489
0
LINE
8
BLACK
6
CONTINUOUS
10
147.153
20
-57.4489
11
147.152
21
-57.4468
0
LINE
8
BLACK
6
CONTINUOUS
10
147.152
20
-57.4468
11
147.151
21
-57.4448
0
LINE
8
BLACK
6
CONTINUOUS
10
147.151
20
-57.4448
11
147.071
21
-57.1843
0
LINE
8
BLACK
6
CONTINUOUS
10
147.071
20
-57.1843
11
147.071
21
-57.184
0
LINE
8
BLACK
6
CONTINUOUS
10
147.071
20
-57.184
11
147.07
21
-57.1817
0
LINE
8
BLACK
6
CONTINUOUS
10
147.07
20
-57.1817
11
147.07
21
-57.1795
0
LINE
8
BLACK
6
CONTINUOUS
10
147.07
20
-57.1795
11
147.041
21
-56.9084
0
LINE
8
BLACK
6
CONTINUOUS
10
147.041
20
-56.9084
11
147.041
21
-56.908
0
LINE
8
BLACK
6
CONTINUOUS
10
147.041
20
-56.908
11
147.041
21
-56.9069
0
LINE
8
BLACK
6
CONTINUOUS
10
147.041
20
-56.9069
11
147.041
21
-56.9058
0
LINE
8
BLACK
6
CONTINUOUS
10
147.041
20
-56.9058
11
147.041
21
-56.8972
0
LINE
8
BLACK
6
CONTINUOUS
10
147.041
20
-56.8972
11
147.041
21
-56.8972
0
LINE
8
BLACK
6
CONTINUOUS
10
147.041
20
-56.8972
11
147.041
21
-56.8964
0
LINE
8
BLACK
6
CONTINUOUS
10
147.041
20
-56.8964
11
147.041
21
-56.8961
0
LINE
8
BLACK
6
CONTINUOUS
10
147.041
20
-56.8961
11
147.041
21
-56.8957
0
LINE
8
BLACK
6
CONTINUOUS
10
147.041
20
-56.8957
11
147.041
21
-56.5786
0
LINE
8
BLACK
6
CONTINUOUS
10
147.041
20
-56.5786
11
147.041
21
-56.5759
0
LINE
8
BLACK
6
CONTINUOUS
10
147.041
20
-56.5759
11
147.03
21
-56.4686
0
LINE
8
BLACK
6
CONTINUOUS
10
147.03
20
-56.4686
11
146.998
21
-56.3668
0
LINE
8
BLACK
6
CONTINUOUS
10
146.998
20
-56.3668
11
146.947
21
-56.273
0
LINE
8
BLACK
6
CONTINUOUS
10
146.947
20
-56.273
11
146.879
21
-56.1908
0
LINE
8
BLACK
6
CONTINUOUS
10
146.879
20
-56.1908
11
146.797
21
-56.1234
0
LINE
8
BLACK
6
CONTINUOUS
10
146.797
20
-56.1234
11
146.703
21
-56.0733
0
LINE
8
BLACK
6
CONTINUOUS
10
146.703
20
-56.0733
11
146.601
21
-56.0425
0
LINE
8
BLACK
6
CONTINUOUS
10
146.601
20
-56.0425
11
146.493
21
-56.032
0
LINE
8
BLACK
6
CONTINUOUS
10
146.493
20
-56.032
11
124.651
21
-56.032
0
LINE
8
BLACK
6
CONTINUOUS
10
124.651
20
-56.032
11
124.648
21
-56.032
0
LINE
8
BLACK
6
CONTINUOUS
10
124.648
20
-56.032
11
124.541
21
-56.0433
0
LINE
8
BLACK
6
CONTINUOUS
10
124.541
20
-56.0433
11
124.439
21
-56.0748
0
LINE
8
BLACK
6
CONTINUOUS
10
124.439
20
-56.0748
11
124.345
21
-56.1255
0
LINE
8
BLACK
6
CONTINUOUS
10
124.345
20
-56.1255
11
124.263
21
-56.1935
0
LINE
8
BLACK
6
CONTINUOUS
10
124.263
20
-56.1935
11
124.195
21
-56.2761
0
LINE
8
BLACK
6
CONTINUOUS
10
124.195
20
-56.2761
11
124.145
21
-56.3703
0
LINE
8
BLACK
6
CONTINUOUS
10
124.145
20
-56.3703
11
124.115
21
-56.4724
0
LINE
8
BLACK
6
CONTINUOUS
10
124.115
20
-56.4724
11
124.104
21
-56.5797
0
LINE
8
BLACK
6
CONTINUOUS
10
124.104
20
-56.5797
11
124.104
21
-56.9607
0
LINE
8
BLACK
6
CONTINUOUS
10
124.104
20
-56.9607
11
124.104
21
-56.9619
0
LINE
8
BLACK
6
CONTINUOUS
10
124.104
20
-56.9619
11
124.104
21
-56.9619
0
LINE
8
BLACK
6
CONTINUOUS
10
124.104
20
-56.9619
11
124.077
21
-57.2333
0
LINE
8
BLACK
6
CONTINUOUS
10
124.077
20
-57.2333
11
124.077
21
-57.2336
0
LINE
8
BLACK
6
CONTINUOUS
10
124.077
20
-57.2336
11
124.077
21
-57.2359
0
LINE
8
BLACK
6
CONTINUOUS
10
124.077
20
-57.2359
11
124.076
21
-57.2381
0
LINE
8
BLACK
6
CONTINUOUS
10
124.076
20
-57.2381
11
123.998
21
-57.4991
0
LINE
8
BLACK
6
CONTINUOUS
10
123.998
20
-57.4991
11
123.997
21
-57.4994
0
LINE
8
BLACK
6
CONTINUOUS
10
123.997
20
-57.4994
11
123.997
21
-57.5015
0
LINE
8
BLACK
6
CONTINUOUS
10
123.997
20
-57.5015
11
123.996
21
-57.5036
0
LINE
8
BLACK
6
CONTINUOUS
10
123.996
20
-57.5036
11
123.868
21
-57.7443
0
LINE
8
BLACK
6
CONTINUOUS
10
123.868
20
-57.7443
11
123.867
21
-57.7446
0
LINE
8
BLACK
6
CONTINUOUS
10
123.867
20
-57.7446
11
123.866
21
-57.7465
0
LINE
8
BLACK
6
CONTINUOUS
10
123.866
20
-57.7465
11
123.865
21
-57.7484
0
LINE
8
BLACK
6
CONTINUOUS
10
123.865
20
-57.7484
11
123.693
21
-57.9597
0
LINE
8
BLACK
6
CONTINUOUS
10
123.693
20
-57.9597
11
123.692
21
-57.9599
0
LINE
8
BLACK
6
CONTINUOUS
10
123.692
20
-57.9599
11
123.691
21
-57.9616
0
LINE
8
BLACK
6
CONTINUOUS
10
123.691
20
-57.9616
11
123.689
21
-57.9631
0
LINE
8
BLACK
6
CONTINUOUS
10
123.689
20
-57.9631
11
123.479
21
-58.1369
0
LINE
8
BLACK
6
CONTINUOUS
10
123.479
20
-58.1369
11
123.479
21
-58.1371
0
LINE
8
BLACK
6
CONTINUOUS
10
123.479
20
-58.1371
11
123.477
21
-58.1384
0
LINE
8
BLACK
6
CONTINUOUS
10
123.477
20
-58.1384
11
123.475
21
-58.1397
0
LINE
8
BLACK
6
CONTINUOUS
10
123.475
20
-58.1397
11
123.235
21
-58.2693
0
LINE
8
BLACK
6
CONTINUOUS
10
123.235
20
-58.2693
11
123.235
21
-58.2695
0
LINE
8
BLACK
6
CONTINUOUS
10
123.235
20
-58.2695
11
123.233
21
-58.2704
0
LINE
8
BLACK
6
CONTINUOUS
10
123.233
20
-58.2704
11
123.231
21
-58.2712
0
LINE
8
BLACK
6
CONTINUOUS
10
123.231
20
-58.2712
11
122.97
21
-58.3518
0
LINE
8
BLACK
6
CONTINUOUS
10
122.97
20
-58.3518
11
122.97
21
-58.3519
0
LINE
8
BLACK
6
CONTINUOUS
10
122.97
20
-58.3519
11
122.968
21
-58.3524
0
LINE
8
BLACK
6
CONTINUOUS
10
122.968
20
-58.3524
11
122.966
21
-58.3528
0
LINE
8
BLACK
6
CONTINUOUS
10
122.966
20
-58.3528
11
122.694
21
-58.3813
0
LINE
8
BLACK
6
CONTINUOUS
10
122.694
20
-58.3813
11
122.694
21
-58.3814
0
LINE
8
BLACK
6
CONTINUOUS
10
122.694
20
-58.3814
11
122.693
21
-58.3814
0
LINE
8
BLACK
6
CONTINUOUS
10
122.693
20
-58.3814
11
122.692
21
-58.3815
0
LINE
8
BLACK
6
CONTINUOUS
10
122.692
20
-58.3815
11
122.683
21
-58.3815
0
LINE
8
BLACK
6
CONTINUOUS
10
122.683
20
-58.3815
11
122.683
21
-58.3815
0
LINE
8
BLACK
6
CONTINUOUS
10
122.683
20
-58.3815
11
106.426
21
-58.3815
0
LINE
8
BLACK
6
CONTINUOUS
10
106.426
20
-58.3815
11
106.418
21
-58.3815
  0
ENDSEC
  0
EOF
