<?xml version="1.0" standalone="no"?>
 <!DOCTYPE svg PUBLIC "-//W3C//DTD SVG 1.1//EN" 
 "http://www.w3.org/Graphics/SVG/1.1/DTD/svg11.dtd"> 
<svg xmlns="http://www.w3.org/2000/svg" version="1.1" 
    width="59.4004cm" height="41.9989cm" viewBox="0 0 233860 165350 ">
<title>SVG Picture created as Apollo-Edge_Cuts.svg date 2020/02/28 02:02:22 </title>
  <desc>Picture generated by PCBNEW </desc>
<g style="fill:#000000; fill-opacity:1;stroke:#000000; stroke-opacity:1;
stroke-linecap:round; stroke-linejoin:round; "
 transform="translate(0 0) scale(1 1)">
</g>
<g style="fill:#000000; fill-opacity:0.0; 
stroke:#000000; stroke-width:-0.000393701; stroke-opacity:1; 
stroke-linecap:round; stroke-linejoin:round;">
</g>
<g style="fill:#000000; fill-opacity:0.0; 
stroke:#000000; stroke-width:19.685; stroke-opacity:1; 
stroke-linecap:round; stroke-linejoin:round;">
<path d="M40925 62450
L42025 62450
" />
<path d="M40973.9 59574.6 A1438.04 1438.04 0.0 0 0 40925 62450 " />
<path d="M40973 59574
L42025 59575
" />
<path d="M42025 32875
L42025 33975
" />
<path d="M44900.4 32923.9 A1438.04 1438.04 0.0 0 0 42025 32875 " />
<path d="M44900 32923
L44900 33975
" />
<path d="M84975 33800
L84975 34900
" />
<path d="M87850.4 33848.9 A1438.04 1438.04 0.0 0 0 84975 33800 " />
<path d="M87850 33848
L87850 34900
" />
<path d="M94275 59025
L93175 59025
" />
<path d="M45565 78975
L47370 77795
" />
<path d="M51325 75925
L47370 77795
" />
<path d="M45565 78975
L46250 80050
" />
<path d="M43125 80550
L43827 81537
" />
<path d="M43827.5 81537.9 A1421.66 1421.66 0.0 0 0 46250 80050 " />
<path d="M42024 33975
L42025 59575
" />
<path d="M67520 73605
L67520 72925
" />
<path d="M67520 73605.9 A1777.63 1777.63 0.0 0 0 71075.3 73605.9 " />
<path d="M71075 73605
L71075 72925
" />
<path d="M94226 61900
L93175 61900
" />
<path d="M94226.1 61900.4 A1438.04 1438.04 0.0 0 0 94275 59025 " />
<path d="M43125 80550
L37710 84070
" />
<path d="M42025 62450
L42025 65119
" />
<path d="M87850 34900
L92625 34900
" />
<path d="M93175 61900
L93175 74250
" />
<path d="M71075 72925
L71900 72925
" />
<path d="M41827.8 65450 A375 375 0.0 0 0 42025 65119.8 " />
<path d="M30440 72848.5 A362.353 362.353 0.0 0 0 30321 73320 " />
<path d="M41827 65450
L30440 72850
" />
<path d="M37238.5 83951 A362.353 362.353 0.0 0 0 37710 84070 " />
<path d="M30320 73320
L37238 83950
" />
<path d="M58300 73200
L51325 75925
" />
<path d="M65400 72925
L58300 73200
" />
<path d="M72450 74250
L72450 73475
" />
<path d="M49950 33225
L49950 33425
" />
<path d="M57450 32325
L57450 32450
" />
<path d="M66500 32325
L66500 32475
" />
<path d="M74000 33575
L74000 34350
" />
<path d="M65400 72925
L67520 72925
" />
<path d="M73000 74800
L92625 74800
" />
<path d="M44900 33975
L49400 33975
" />
<path d="M50175 33000
L56900 33000
" />
<path d="M57675 32100
L66275 32100
" />
<path d="M67050 33025
L73450 33025
" />
<path d="M74550 34900
L84975 34900
" />
<path d="M50175 33000 A225 225 0.0 0 0 49950 33225 " />
<path d="M57675 32100 A225 225 0.0 0 0 57450 32325 " />
<path d="M66500 32325 A225 225 0.0 0 0 66275 32100 " />
<path d="M72450 73475 A550 550 0.0 0 0 71900 72925 " />
<path d="M72450 74250 A550 550 0.0 0 0 73000 74800 " />
<path d="M92625 74800 A550 550 0.0 0 0 93175 74250 " />
<path d="M49400 33975 A550 550 0.0 0 0 49950 33425 " />
<path d="M56900 33000 A550 550 0.0 0 0 57450 32450 " />
<path d="M66500 32475 A550 550 0.0 0 0 67050 33025 " />
<path d="M74000 33575 A550 550 0.0 0 0 73450 33025 " />
<path d="M74000 34350 A550 550 0.0 0 0 74550 34900 " />
<path d="M93175 35450 A550 550 0.0 0 0 92625 34900 " />
<path d="M93175 59025
L93175 35450
" />
<g >
</g>
<g >
</g>
<g >
</g>
<g >
</g>
<g >
</g>
<g >
</g>
<g >
</g>
<g >
</g>
<g >
</g>
<g >
</g>
<g >
</g>
<g >
</g>
<g >
</g>
<g >
</g>
<g >
</g>
<g >
</g>
<g >
</g>
<g >
</g>
<g >
</g>
<g >
</g>
<g >
</g>
<g >
</g>
<g >
</g>
<g >
</g>
<g >
</g>
<g >
</g>
<g >
</g>
<g >
</g>
<g >
</g>
<g >
</g>
<g >
</g>
<g >
</g>
<g >
</g>
<g >
</g>
<g >
</g>
<g >
</g>
<g >
</g>
<g >
</g>
</g> 
</svg>
