  0
SECTION
  2
HEADER
  9
$ANGBASE
  50
0.0
  9
$ANGDIR
  70
1
  9
$MEASUREMENT
  70
1
  0
ENDSEC
  0
SECTION
  2
TABLES
  0
TABLE
  2
LTYPE
  70
4
  0
LTYPE
  5
40F
  2
CONTINUOUS
  70
0
  3
Solid line
  72
65
  73
0
  40
0.0
  0
LTYPE
  5
410
  2
DASHDOT
 70
0
  3
Dash Dot ____ _ ____ _
 72
65
 73
4
 40
2.0
 49
1.25
 49
-0.25
 49
0.25
 49
-0.25
  0
LTYPE
  5
411
  2
DASHED
 70
0
  3
Dashed __ __ __ __ __
 72
65
 73
2
 40
0.75
 49
0.5
 49
-0.25
  0
LTYPE
  5
43B
  2
DOTTED
 70
0
  3
Dotted .  .  .  .
 72
65
 73
2
 40
0.2
 49
0.0
 49
-0.2
  0
ENDTAB
  0
TABLE
  2
STYLE
  70
4
  0
STYLE
  2
KICAD
  70
0
  40
0
  41
1
  42
1
  50
0
  71
0
  3
isocp.shx
  0
STYLE
  2
KICADB
  70
0
  40
0
  41
1
  42
1
  50
0
  71
0
  3
isocp.shx
  0
STYLE
  2
KICADI
  70
0
  40
0
  41
1
  42
1
  50
15
  71
0
  3
isocp.shx
  0
STYLE
  2
KICADBI
  70
0
  40
0
  41
1
  42
1
  50
15
  71
0
  3
isocp.shx
  0
ENDTAB
  0
TABLE
  2
LAYER
  70
1
  0
LAYER
  2
BLACK
  70
0
  62
7
  6
CONTINUOUS
  0
ENDTAB
  0
ENDSEC
  0
SECTION
  2
ENTITIES
0
LINE
8
BLACK
6
CONTINUOUS
10
122.601
20
-83.1277
11
122.603
21
-83.1282
0
LINE
8
BLACK
6
CONTINUOUS
10
122.603
20
-83.1282
11
122.606
21
-83.1286
0
LINE
8
BLACK
6
CONTINUOUS
10
122.606
20
-83.1286
11
123.214
21
-83.3077
0
LINE
8
BLACK
6
CONTINUOUS
10
123.214
20
-83.3077
11
123.214
21
-83.3078
0
LINE
8
BLACK
6
CONTINUOUS
10
123.214
20
-83.3078
11
123.216
21
-83.3087
0
LINE
8
BLACK
6
CONTINUOUS
10
123.216
20
-83.3087
11
123.219
21
-83.3095
0
LINE
8
BLACK
6
CONTINUOUS
10
123.219
20
-83.3095
11
123.781
21
-83.6034
0
LINE
8
BLACK
6
CONTINUOUS
10
123.781
20
-83.6034
11
123.781
21
-83.6035
0
LINE
8
BLACK
6
CONTINUOUS
10
123.781
20
-83.6035
11
123.783
21
-83.6048
0
LINE
8
BLACK
6
CONTINUOUS
10
123.783
20
-83.6048
11
123.785
21
-83.606
0
LINE
8
BLACK
6
CONTINUOUS
10
123.785
20
-83.606
11
124.279
21
-84.0035
0
LINE
8
BLACK
6
CONTINUOUS
10
124.279
20
-84.0035
11
124.279
21
-84.0037
0
LINE
8
BLACK
6
CONTINUOUS
10
124.279
20
-84.0037
11
124.281
21
-84.0053
0
LINE
8
BLACK
6
CONTINUOUS
10
124.281
20
-84.0053
11
124.283
21
-84.0069
0
LINE
8
BLACK
6
CONTINUOUS
10
124.283
20
-84.0069
11
124.69
21
-84.4928
0
LINE
8
BLACK
6
CONTINUOUS
10
124.69
20
-84.4928
11
124.69
21
-84.4931
0
LINE
8
BLACK
6
CONTINUOUS
10
124.69
20
-84.4931
11
124.692
21
-84.495
0
LINE
8
BLACK
6
CONTINUOUS
10
124.692
20
-84.495
11
124.693
21
-84.4968
0
LINE
8
BLACK
6
CONTINUOUS
10
124.693
20
-84.4968
11
124.999
21
-85.0526
0
LINE
8
BLACK
6
CONTINUOUS
10
124.999
20
-85.0526
11
124.999
21
-85.053
0
LINE
8
BLACK
6
CONTINUOUS
10
124.999
20
-85.053
11
125
21
-85.055
0
LINE
8
BLACK
6
CONTINUOUS
10
125
20
-85.055
11
125.001
21
-85.0571
0
LINE
8
BLACK
6
CONTINUOUS
10
125.001
20
-85.0571
11
125.192
21
-85.6617
0
LINE
8
BLACK
6
CONTINUOUS
10
125.192
20
-85.6617
11
125.192
21
-85.6621
0
LINE
8
BLACK
6
CONTINUOUS
10
125.192
20
-85.6621
11
125.193
21
-85.6643
0
LINE
8
BLACK
6
CONTINUOUS
10
125.193
20
-85.6643
11
125.193
21
-85.6665
0
LINE
8
BLACK
6
CONTINUOUS
10
125.193
20
-85.6665
11
125.264
21
-86.2968
0
LINE
8
BLACK
6
CONTINUOUS
10
125.264
20
-86.2968
11
125.264
21
-86.2972
0
LINE
8
BLACK
6
CONTINUOUS
10
125.264
20
-86.2972
11
125.264
21
-86.2983
0
LINE
8
BLACK
6
CONTINUOUS
10
125.264
20
-86.2983
11
125.264
21
-86.2994
0
LINE
8
BLACK
6
CONTINUOUS
10
125.264
20
-86.2994
11
125.264
21
-86.3437
0
LINE
8
BLACK
6
CONTINUOUS
10
125.264
20
-86.3437
11
125.264
21
-86.3438
0
LINE
8
BLACK
6
CONTINUOUS
10
125.264
20
-86.3438
11
125.264
21
-88.6845
0
LINE
8
BLACK
6
CONTINUOUS
10
125.264
20
-88.6845
11
134.874
21
-88.6845
0
LINE
8
BLACK
6
CONTINUOUS
10
134.874
20
-88.6845
11
134.882
21
-88.6845
0
LINE
8
BLACK
6
CONTINUOUS
10
134.882
20
-88.6845
11
135.15
21
-88.6564
0
LINE
8
BLACK
6
CONTINUOUS
10
135.15
20
-88.6564
11
135.406
21
-88.5772
0
LINE
8
BLACK
6
CONTINUOUS
10
135.406
20
-88.5772
11
135.641
21
-88.4498
0
LINE
8
BLACK
6
CONTINUOUS
10
135.641
20
-88.4498
11
135.847
21
-88.2792
0
LINE
8
BLACK
6
CONTINUOUS
10
135.847
20
-88.2792
11
136.017
21
-88.0717
0
LINE
8
BLACK
6
CONTINUOUS
10
136.017
20
-88.0717
11
136.142
21
-87.8353
0
LINE
8
BLACK
6
CONTINUOUS
10
136.142
20
-87.8353
11
136.22
21
-87.579
0
LINE
8
BLACK
6
CONTINUOUS
10
136.22
20
-87.579
11
136.246
21
-87.3113
0
LINE
8
BLACK
6
CONTINUOUS
10
136.246
20
-87.3113
11
136.246
21
-86.8033
0
LINE
8
BLACK
6
CONTINUOUS
10
136.246
20
-86.8033
11
136.246
21
-86.8021
0
LINE
8
BLACK
6
CONTINUOUS
10
136.246
20
-86.8021
11
136.246
21
-86.8021
0
LINE
8
BLACK
6
CONTINUOUS
10
136.246
20
-86.8021
11
136.257
21
-86.6911
0
LINE
8
BLACK
6
CONTINUOUS
10
136.257
20
-86.6911
11
136.257
21
-86.6907
0
LINE
8
BLACK
6
CONTINUOUS
10
136.257
20
-86.6907
11
136.258
21
-86.6885
0
LINE
8
BLACK
6
CONTINUOUS
10
136.258
20
-86.6885
11
136.258
21
-86.6863
0
LINE
8
BLACK
6
CONTINUOUS
10
136.258
20
-86.6863
11
136.29
21
-86.5795
0
LINE
8
BLACK
6
CONTINUOUS
10
136.29
20
-86.5795
11
136.29
21
-86.5792
0
LINE
8
BLACK
6
CONTINUOUS
10
136.29
20
-86.5792
11
136.291
21
-86.577
0
LINE
8
BLACK
6
CONTINUOUS
10
136.291
20
-86.577
11
136.292
21
-86.575
0
LINE
8
BLACK
6
CONTINUOUS
10
136.292
20
-86.575
11
136.344
21
-86.4765
0
LINE
8
BLACK
6
CONTINUOUS
10
136.344
20
-86.4765
11
136.345
21
-86.4762
0
LINE
8
BLACK
6
CONTINUOUS
10
136.345
20
-86.4762
11
136.346
21
-86.4743
0
LINE
8
BLACK
6
CONTINUOUS
10
136.346
20
-86.4743
11
136.347
21
-86.4724
0
LINE
8
BLACK
6
CONTINUOUS
10
136.347
20
-86.4724
11
136.418
21
-86.386
0
LINE
8
BLACK
6
CONTINUOUS
10
136.418
20
-86.386
11
136.418
21
-86.386
0
LINE
8
BLACK
6
CONTINUOUS
10
136.418
20
-86.386
11
136.418
21
-86.386
0
LINE
8
BLACK
6
CONTINUOUS
10
136.418
20
-86.386
11
136.418
21
-86.3857
0
LINE
8
BLACK
6
CONTINUOUS
10
136.418
20
-86.3857
11
136.419
21
-86.3842
0
LINE
8
BLACK
6
CONTINUOUS
10
136.419
20
-86.3842
11
136.421
21
-86.3825
0
LINE
8
BLACK
6
CONTINUOUS
10
136.421
20
-86.3825
11
136.507
21
-86.3114
0
LINE
8
BLACK
6
CONTINUOUS
10
136.507
20
-86.3114
11
136.507
21
-86.3114
0
LINE
8
BLACK
6
CONTINUOUS
10
136.507
20
-86.3114
11
136.507
21
-86.3114
0
LINE
8
BLACK
6
CONTINUOUS
10
136.507
20
-86.3114
11
136.507
21
-86.3112
0
LINE
8
BLACK
6
CONTINUOUS
10
136.507
20
-86.3112
11
136.509
21
-86.31
0
LINE
8
BLACK
6
CONTINUOUS
10
136.509
20
-86.31
11
136.511
21
-86.3087
0
LINE
8
BLACK
6
CONTINUOUS
10
136.511
20
-86.3087
11
136.609
21
-86.2557
0
LINE
8
BLACK
6
CONTINUOUS
10
136.609
20
-86.2557
11
136.609
21
-86.2557
0
LINE
8
BLACK
6
CONTINUOUS
10
136.609
20
-86.2557
11
136.609
21
-86.2557
0
LINE
8
BLACK
6
CONTINUOUS
10
136.609
20
-86.2557
11
136.609
21
-86.2555
0
LINE
8
BLACK
6
CONTINUOUS
10
136.609
20
-86.2555
11
136.612
21
-86.2546
0
LINE
8
BLACK
6
CONTINUOUS
10
136.612
20
-86.2546
11
136.614
21
-86.2538
0
LINE
8
BLACK
6
CONTINUOUS
10
136.614
20
-86.2538
11
136.72
21
-86.2208
0
LINE
8
BLACK
6
CONTINUOUS
10
136.72
20
-86.2208
11
136.721
21
-86.2207
0
LINE
8
BLACK
6
CONTINUOUS
10
136.721
20
-86.2207
11
136.723
21
-86.2203
0
LINE
8
BLACK
6
CONTINUOUS
10
136.723
20
-86.2203
11
136.725
21
-86.2198
0
LINE
8
BLACK
6
CONTINUOUS
10
136.725
20
-86.2198
11
136.836
21
-86.2082
0
LINE
8
BLACK
6
CONTINUOUS
10
136.836
20
-86.2082
11
136.836
21
-86.2081
0
LINE
8
BLACK
6
CONTINUOUS
10
136.836
20
-86.2081
11
136.837
21
-86.2081
0
LINE
8
BLACK
6
CONTINUOUS
10
136.837
20
-86.2081
11
136.838
21
-86.208
0
LINE
8
BLACK
6
CONTINUOUS
10
136.838
20
-86.208
11
136.841
21
-86.208
0
LINE
8
BLACK
6
CONTINUOUS
10
136.841
20
-86.208
11
136.841
21
-86.208
0
LINE
8
BLACK
6
CONTINUOUS
10
136.841
20
-86.208
11
153.924
21
-86.208
0
LINE
8
BLACK
6
CONTINUOUS
10
153.924
20
-86.208
11
153.932
21
-86.208
0
LINE
8
BLACK
6
CONTINUOUS
10
153.932
20
-86.208
11
154.2
21
-86.1799
0
LINE
8
BLACK
6
CONTINUOUS
10
154.2
20
-86.1799
11
154.456
21
-86.1007
0
LINE
8
BLACK
6
CONTINUOUS
10
154.456
20
-86.1007
11
154.691
21
-85.9733
0
LINE
8
BLACK
6
CONTINUOUS
10
154.691
20
-85.9733
11
154.897
21
-85.8027
0
LINE
8
BLACK
6
CONTINUOUS
10
154.897
20
-85.8027
11
155.067
21
-85.5952
0
LINE
8
BLACK
6
CONTINUOUS
10
155.067
20
-85.5952
11
155.192
21
-85.3588
0
LINE
8
BLACK
6
CONTINUOUS
10
155.192
20
-85.3588
11
155.27
21
-85.1025
0
LINE
8
BLACK
6
CONTINUOUS
10
155.27
20
-85.1025
11
155.296
21
-84.8348
0
LINE
8
BLACK
6
CONTINUOUS
10
155.296
20
-84.8348
11
155.296
21
-84.5173
0
LINE
8
BLACK
6
CONTINUOUS
10
155.296
20
-84.5173
11
155.296
21
-84.5161
0
LINE
8
BLACK
6
CONTINUOUS
10
155.296
20
-84.5161
11
155.296
21
-84.5161
0
LINE
8
BLACK
6
CONTINUOUS
10
155.296
20
-84.5161
11
155.307
21
-84.4051
0
LINE
8
BLACK
6
CONTINUOUS
10
155.307
20
-84.4051
11
155.307
21
-84.4047
0
LINE
8
BLACK
6
CONTINUOUS
10
155.307
20
-84.4047
11
155.308
21
-84.4025
0
LINE
8
BLACK
6
CONTINUOUS
10
155.308
20
-84.4025
11
155.308
21
-84.4003
0
LINE
8
BLACK
6
CONTINUOUS
10
155.308
20
-84.4003
11
155.34
21
-84.2935
0
LINE
8
BLACK
6
CONTINUOUS
10
155.34
20
-84.2935
11
155.34
21
-84.2932
0
LINE
8
BLACK
6
CONTINUOUS
10
155.34
20
-84.2932
11
155.341
21
-84.291
0
LINE
8
BLACK
6
CONTINUOUS
10
155.341
20
-84.291
11
155.342
21
-84.289
0
LINE
8
BLACK
6
CONTINUOUS
10
155.342
20
-84.289
11
155.394
21
-84.1905
0
LINE
8
BLACK
6
CONTINUOUS
10
155.394
20
-84.1905
11
155.395
21
-84.1902
0
LINE
8
BLACK
6
CONTINUOUS
10
155.395
20
-84.1902
11
155.396
21
-84.1883
0
LINE
8
BLACK
6
CONTINUOUS
10
155.396
20
-84.1883
11
155.397
21
-84.1864
0
LINE
8
BLACK
6
CONTINUOUS
10
155.397
20
-84.1864
11
155.468
21
-84.1
0
LINE
8
BLACK
6
CONTINUOUS
10
155.468
20
-84.1
11
155.468
21
-84.1
0
LINE
8
BLACK
6
CONTINUOUS
10
155.468
20
-84.1
11
155.468
21
-84.1
0
LINE
8
BLACK
6
CONTINUOUS
10
155.468
20
-84.1
11
155.468
21
-84.0997
0
LINE
8
BLACK
6
CONTINUOUS
10
155.468
20
-84.0997
11
155.469
21
-84.0982
0
LINE
8
BLACK
6
CONTINUOUS
10
155.469
20
-84.0982
11
155.471
21
-84.0965
0
LINE
8
BLACK
6
CONTINUOUS
10
155.471
20
-84.0965
11
155.557
21
-84.0254
0
LINE
8
BLACK
6
CONTINUOUS
10
155.557
20
-84.0254
11
155.557
21
-84.0254
0
LINE
8
BLACK
6
CONTINUOUS
10
155.557
20
-84.0254
11
155.557
21
-84.0254
0
LINE
8
BLACK
6
CONTINUOUS
10
155.557
20
-84.0254
11
155.557
21
-84.0252
0
LINE
8
BLACK
6
CONTINUOUS
10
155.557
20
-84.0252
11
155.559
21
-84.024
0
LINE
8
BLACK
6
CONTINUOUS
10
155.559
20
-84.024
11
155.561
21
-84.0227
0
LINE
8
BLACK
6
CONTINUOUS
10
155.561
20
-84.0227
11
155.659
21
-83.9697
0
LINE
8
BLACK
6
CONTINUOUS
10
155.659
20
-83.9697
11
155.659
21
-83.9697
0
LINE
8
BLACK
6
CONTINUOUS
10
155.659
20
-83.9697
11
155.659
21
-83.9697
0
LINE
8
BLACK
6
CONTINUOUS
10
155.659
20
-83.9697
11
155.659
21
-83.9695
0
LINE
8
BLACK
6
CONTINUOUS
10
155.659
20
-83.9695
11
155.662
21
-83.9686
0
LINE
8
BLACK
6
CONTINUOUS
10
155.662
20
-83.9686
11
155.664
21
-83.9678
0
LINE
8
BLACK
6
CONTINUOUS
10
155.664
20
-83.9678
11
155.77
21
-83.9348
0
LINE
8
BLACK
6
CONTINUOUS
10
155.77
20
-83.9348
11
155.771
21
-83.9347
0
LINE
8
BLACK
6
CONTINUOUS
10
155.771
20
-83.9347
11
155.773
21
-83.9343
0
LINE
8
BLACK
6
CONTINUOUS
10
155.773
20
-83.9343
11
155.775
21
-83.9338
0
LINE
8
BLACK
6
CONTINUOUS
10
155.775
20
-83.9338
11
155.886
21
-83.9222
0
LINE
8
BLACK
6
CONTINUOUS
10
155.886
20
-83.9222
11
155.886
21
-83.9221
0
LINE
8
BLACK
6
CONTINUOUS
10
155.886
20
-83.9221
11
155.887
21
-83.9221
0
LINE
8
BLACK
6
CONTINUOUS
10
155.887
20
-83.9221
11
155.888
21
-83.922
0
LINE
8
BLACK
6
CONTINUOUS
10
155.888
20
-83.922
11
155.891
21
-83.922
0
LINE
8
BLACK
6
CONTINUOUS
10
155.891
20
-83.922
11
155.891
21
-83.922
0
LINE
8
BLACK
6
CONTINUOUS
10
155.891
20
-83.922
11
177.738
21
-83.922
0
LINE
8
BLACK
6
CONTINUOUS
10
177.738
20
-83.922
11
177.739
21
-83.9221
0
LINE
8
BLACK
6
CONTINUOUS
10
177.739
20
-83.9221
11
177.739
21
-83.9221
0
LINE
8
BLACK
6
CONTINUOUS
10
177.739
20
-83.9221
11
177.85
21
-83.933
0
LINE
8
BLACK
6
CONTINUOUS
10
177.85
20
-83.933
11
177.85
21
-83.933
0
LINE
8
BLACK
6
CONTINUOUS
10
177.85
20
-83.933
11
177.853
21
-83.9335
0
LINE
8
BLACK
6
CONTINUOUS
10
177.853
20
-83.9335
11
177.855
21
-83.934
0
LINE
8
BLACK
6
CONTINUOUS
10
177.855
20
-83.934
11
177.962
21
-83.9662
0
LINE
8
BLACK
6
CONTINUOUS
10
177.962
20
-83.9662
11
177.962
21
-83.9663
0
LINE
8
BLACK
6
CONTINUOUS
10
177.962
20
-83.9663
11
177.964
21
-83.9672
0
LINE
8
BLACK
6
CONTINUOUS
10
177.964
20
-83.9672
11
177.966
21
-83.968
0
LINE
8
BLACK
6
CONTINUOUS
10
177.966
20
-83.968
11
178.064
21
-84.0204
0
LINE
8
BLACK
6
CONTINUOUS
10
178.064
20
-84.0204
11
178.065
21
-84.0206
0
LINE
8
BLACK
6
CONTINUOUS
10
178.065
20
-84.0206
11
178.067
21
-84.0219
0
LINE
8
BLACK
6
CONTINUOUS
10
178.067
20
-84.0219
11
178.069
21
-84.0231
0
LINE
8
BLACK
6
CONTINUOUS
10
178.069
20
-84.0231
11
178.155
21
-84.0936
0
LINE
8
BLACK
6
CONTINUOUS
10
178.155
20
-84.0936
11
178.155
21
-84.0936
0
LINE
8
BLACK
6
CONTINUOUS
10
178.155
20
-84.0936
11
178.155
21
-84.0936
0
LINE
8
BLACK
6
CONTINUOUS
10
178.155
20
-84.0936
11
178.155
21
-84.0938
0
LINE
8
BLACK
6
CONTINUOUS
10
178.155
20
-84.0938
11
178.157
21
-84.0954
0
LINE
8
BLACK
6
CONTINUOUS
10
178.157
20
-84.0954
11
178.158
21
-84.097
0
LINE
8
BLACK
6
CONTINUOUS
10
178.158
20
-84.097
11
178.23
21
-84.183
0
LINE
8
BLACK
6
CONTINUOUS
10
178.23
20
-84.183
11
178.23
21
-84.183
0
LINE
8
BLACK
6
CONTINUOUS
10
178.23
20
-84.183
11
178.23
21
-84.183
0
LINE
8
BLACK
6
CONTINUOUS
10
178.23
20
-84.183
11
178.23
21
-84.1833
0
LINE
8
BLACK
6
CONTINUOUS
10
178.23
20
-84.1833
11
178.231
21
-84.1852
0
LINE
8
BLACK
6
CONTINUOUS
10
178.231
20
-84.1852
11
178.232
21
-84.187
0
LINE
8
BLACK
6
CONTINUOUS
10
178.232
20
-84.187
11
178.285
21
-84.2851
0
LINE
8
BLACK
6
CONTINUOUS
10
178.285
20
-84.2851
11
178.285
21
-84.2851
0
LINE
8
BLACK
6
CONTINUOUS
10
178.285
20
-84.2851
11
178.285
21
-84.2851
0
LINE
8
BLACK
6
CONTINUOUS
10
178.285
20
-84.2851
11
178.286
21
-84.2855
0
LINE
8
BLACK
6
CONTINUOUS
10
178.286
20
-84.2855
11
178.286
21
-84.2876
0
LINE
8
BLACK
6
CONTINUOUS
10
178.286
20
-84.2876
11
178.287
21
-84.2896
0
LINE
8
BLACK
6
CONTINUOUS
10
178.287
20
-84.2896
11
178.32
21
-84.3962
0
LINE
8
BLACK
6
CONTINUOUS
10
178.32
20
-84.3962
11
178.32
21
-84.3965
0
LINE
8
BLACK
6
CONTINUOUS
10
178.32
20
-84.3965
11
178.321
21
-84.3988
0
LINE
8
BLACK
6
CONTINUOUS
10
178.321
20
-84.3988
11
178.321
21
-84.401
0
LINE
8
BLACK
6
CONTINUOUS
10
178.321
20
-84.401
11
178.333
21
-84.5119
0
LINE
8
BLACK
6
CONTINUOUS
10
178.333
20
-84.5119
11
178.333
21
-84.5122
0
LINE
8
BLACK
6
CONTINUOUS
10
178.333
20
-84.5122
11
178.333
21
-84.5133
0
LINE
8
BLACK
6
CONTINUOUS
10
178.333
20
-84.5133
11
178.333
21
-84.5144
0
LINE
8
BLACK
6
CONTINUOUS
10
178.333
20
-84.5144
11
178.333
21
-84.5172
0
LINE
8
BLACK
6
CONTINUOUS
10
178.333
20
-84.5172
11
178.333
21
-84.5173
0
LINE
8
BLACK
6
CONTINUOUS
10
178.333
20
-84.5173
11
178.333
21
-84.8994
0
LINE
8
BLACK
6
CONTINUOUS
10
178.333
20
-84.8994
11
178.333
21
-84.9079
0
LINE
8
BLACK
6
CONTINUOUS
10
178.333
20
-84.9079
11
178.361
21
-85.1754
0
LINE
8
BLACK
6
CONTINUOUS
10
178.361
20
-85.1754
11
178.44
21
-85.4311
0
LINE
8
BLACK
6
CONTINUOUS
10
178.44
20
-85.4311
11
178.568
21
-85.6666
0
LINE
8
BLACK
6
CONTINUOUS
10
178.568
20
-85.6666
11
178.738
21
-85.8729
0
LINE
8
BLACK
6
CONTINUOUS
10
178.738
20
-85.8729
11
178.946
21
-86.0422
0
LINE
8
BLACK
6
CONTINUOUS
10
178.946
20
-86.0422
11
179.182
21
-86.1679
0
LINE
8
BLACK
6
CONTINUOUS
10
179.182
20
-86.1679
11
179.439
21
-86.2453
0
LINE
8
BLACK
6
CONTINUOUS
10
179.439
20
-86.2453
11
179.706
21
-86.2715
0
LINE
8
BLACK
6
CONTINUOUS
10
179.706
20
-86.2715
11
195.962
21
-86.2715
0
LINE
8
BLACK
6
CONTINUOUS
10
195.962
20
-86.2715
11
195.963
21
-86.2716
0
LINE
8
BLACK
6
CONTINUOUS
10
195.963
20
-86.2716
11
195.963
21
-86.2716
0
LINE
8
BLACK
6
CONTINUOUS
10
195.963
20
-86.2716
11
196.235
21
-86.2982
0
LINE
8
BLACK
6
CONTINUOUS
10
196.235
20
-86.2982
11
196.235
21
-86.2983
0
LINE
8
BLACK
6
CONTINUOUS
10
196.235
20
-86.2983
11
196.237
21
-86.2987
0
LINE
8
BLACK
6
CONTINUOUS
10
196.237
20
-86.2987
11
196.24
21
-86.2992
0
LINE
8
BLACK
6
CONTINUOUS
10
196.24
20
-86.2992
11
196.501
21
-86.378
0
LINE
8
BLACK
6
CONTINUOUS
10
196.501
20
-86.378
11
196.501
21
-86.3781
0
LINE
8
BLACK
6
CONTINUOUS
10
196.501
20
-86.3781
11
196.503
21
-86.379
0
LINE
8
BLACK
6
CONTINUOUS
10
196.503
20
-86.379
11
196.505
21
-86.3798
0
LINE
8
BLACK
6
CONTINUOUS
10
196.505
20
-86.3798
11
196.746
21
-86.5078
0
LINE
8
BLACK
6
CONTINUOUS
10
196.746
20
-86.5078
11
196.746
21
-86.508
0
LINE
8
BLACK
6
CONTINUOUS
10
196.746
20
-86.508
11
196.748
21
-86.5093
0
LINE
8
BLACK
6
CONTINUOUS
10
196.748
20
-86.5093
11
196.75
21
-86.5105
0
LINE
8
BLACK
6
CONTINUOUS
10
196.75
20
-86.5105
11
196.961
21
-86.6829
0
LINE
8
BLACK
6
CONTINUOUS
10
196.961
20
-86.6829
11
196.961
21
-86.6829
0
LINE
8
BLACK
6
CONTINUOUS
10
196.961
20
-86.6829
11
196.961
21
-86.6829
0
LINE
8
BLACK
6
CONTINUOUS
10
196.961
20
-86.6829
11
196.961
21
-86.6831
0
LINE
8
BLACK
6
CONTINUOUS
10
196.961
20
-86.6831
11
196.963
21
-86.6847
0
LINE
8
BLACK
6
CONTINUOUS
10
196.963
20
-86.6847
11
196.965
21
-86.6863
0
LINE
8
BLACK
6
CONTINUOUS
10
196.965
20
-86.6863
11
197.138
21
-86.8964
0
LINE
8
BLACK
6
CONTINUOUS
10
197.138
20
-86.8964
11
197.139
21
-86.8966
0
LINE
8
BLACK
6
CONTINUOUS
10
197.139
20
-86.8966
11
197.14
21
-86.8986
0
LINE
8
BLACK
6
CONTINUOUS
10
197.14
20
-86.8986
11
197.141
21
-86.9004
0
LINE
8
BLACK
6
CONTINUOUS
10
197.141
20
-86.9004
11
197.271
21
-87.1402
0
LINE
8
BLACK
6
CONTINUOUS
10
197.271
20
-87.1402
11
197.271
21
-87.1402
0
LINE
8
BLACK
6
CONTINUOUS
10
197.271
20
-87.1402
11
197.271
21
-87.1403
0
LINE
8
BLACK
6
CONTINUOUS
10
197.271
20
-87.1403
11
197.271
21
-87.1406
0
LINE
8
BLACK
6
CONTINUOUS
10
197.271
20
-87.1406
11
197.272
21
-87.1427
0
LINE
8
BLACK
6
CONTINUOUS
10
197.272
20
-87.1427
11
197.273
21
-87.1447
0
LINE
8
BLACK
6
CONTINUOUS
10
197.273
20
-87.1447
11
197.353
21
-87.4052
0
LINE
8
BLACK
6
CONTINUOUS
10
197.353
20
-87.4052
11
197.353
21
-87.4055
0
LINE
8
BLACK
6
CONTINUOUS
10
197.353
20
-87.4055
11
197.354
21
-87.4078
0
LINE
8
BLACK
6
CONTINUOUS
10
197.354
20
-87.4078
11
197.354
21
-87.41
0
LINE
8
BLACK
6
CONTINUOUS
10
197.354
20
-87.41
11
197.383
21
-87.6811
0
LINE
8
BLACK
6
CONTINUOUS
10
197.383
20
-87.6811
11
197.383
21
-87.6815
0
LINE
8
BLACK
6
CONTINUOUS
10
197.383
20
-87.6815
11
197.383
21
-87.6826
0
LINE
8
BLACK
6
CONTINUOUS
10
197.383
20
-87.6826
11
197.383
21
-87.6837
0
LINE
8
BLACK
6
CONTINUOUS
10
197.383
20
-87.6837
11
197.383
21
-87.6922
0
LINE
8
BLACK
6
CONTINUOUS
10
197.383
20
-87.6922
11
197.383
21
-87.6923
0
LINE
8
BLACK
6
CONTINUOUS
10
197.383
20
-87.6923
11
197.383
21
-89.6619
0
LINE
8
BLACK
6
CONTINUOUS
10
197.383
20
-89.6619
11
197.383
21
-89.6704
0
LINE
8
BLACK
6
CONTINUOUS
10
197.383
20
-89.6704
11
197.411
21
-89.9379
0
LINE
8
BLACK
6
CONTINUOUS
10
197.411
20
-89.9379
11
197.49
21
-90.1936
0
LINE
8
BLACK
6
CONTINUOUS
10
197.49
20
-90.1936
11
197.618
21
-90.4291
0
LINE
8
BLACK
6
CONTINUOUS
10
197.618
20
-90.4291
11
197.788
21
-90.6354
0
LINE
8
BLACK
6
CONTINUOUS
10
197.788
20
-90.6354
11
197.996
21
-90.8047
0
LINE
8
BLACK
6
CONTINUOUS
10
197.996
20
-90.8047
11
198.232
21
-90.9304
0
LINE
8
BLACK
6
CONTINUOUS
10
198.232
20
-90.9304
11
198.489
21
-91.0078
0
LINE
8
BLACK
6
CONTINUOUS
10
198.489
20
-91.0078
11
198.756
21
-91.034
0
LINE
8
BLACK
6
CONTINUOUS
10
198.756
20
-91.034
11
225.331
21
-91.034
0
LINE
8
BLACK
6
CONTINUOUS
10
225.331
20
-91.034
11
225.331
21
-88.8203
0
LINE
8
BLACK
6
CONTINUOUS
10
225.331
20
-88.8203
11
225.331
21
-88.8191
0
LINE
8
BLACK
6
CONTINUOUS
10
225.331
20
-88.8191
11
225.331
21
-88.8191
0
LINE
8
BLACK
6
CONTINUOUS
10
225.331
20
-88.8191
11
225.393
21
-88.1878
0
LINE
8
BLACK
6
CONTINUOUS
10
225.393
20
-88.1878
11
225.393
21
-88.1875
0
LINE
8
BLACK
6
CONTINUOUS
10
225.393
20
-88.1875
11
225.394
21
-88.1852
0
LINE
8
BLACK
6
CONTINUOUS
10
225.394
20
-88.1852
11
225.394
21
-88.183
0
LINE
8
BLACK
6
CONTINUOUS
10
225.394
20
-88.183
11
225.577
21
-87.5758
0
LINE
8
BLACK
6
CONTINUOUS
10
225.577
20
-87.5758
11
225.577
21
-87.5755
0
LINE
8
BLACK
6
CONTINUOUS
10
225.577
20
-87.5755
11
225.578
21
-87.5734
0
LINE
8
BLACK
6
CONTINUOUS
10
225.578
20
-87.5734
11
225.579
21
-87.5713
0
LINE
8
BLACK
6
CONTINUOUS
10
225.579
20
-87.5713
11
225.877
21
-87.0112
0
LINE
8
BLACK
6
CONTINUOUS
10
225.877
20
-87.0112
11
225.877
21
-87.0109
0
LINE
8
BLACK
6
CONTINUOUS
10
225.877
20
-87.0109
11
225.878
21
-87.0091
0
LINE
8
BLACK
6
CONTINUOUS
10
225.878
20
-87.0091
11
225.88
21
-87.0072
0
LINE
8
BLACK
6
CONTINUOUS
10
225.88
20
-87.0072
11
226.281
21
-86.5156
0
LINE
8
BLACK
6
CONTINUOUS
10
226.281
20
-86.5156
11
226.281
21
-86.5154
0
LINE
8
BLACK
6
CONTINUOUS
10
226.281
20
-86.5154
11
226.282
21
-86.5138
0
LINE
8
BLACK
6
CONTINUOUS
10
226.282
20
-86.5138
11
226.284
21
-86.5122
0
LINE
8
BLACK
6
CONTINUOUS
10
226.284
20
-86.5122
11
226.773
21
-86.1079
0
LINE
8
BLACK
6
CONTINUOUS
10
226.773
20
-86.1079
11
226.773
21
-86.1076
0
LINE
8
BLACK
6
CONTINUOUS
10
226.773
20
-86.1076
11
226.775
21
-86.1064
0
LINE
8
BLACK
6
CONTINUOUS
10
226.775
20
-86.1064
11
226.777
21
-86.1051
0
LINE
8
BLACK
6
CONTINUOUS
10
226.777
20
-86.1051
11
227.335
21
-85.8035
0
LINE
8
BLACK
6
CONTINUOUS
10
227.335
20
-85.8035
11
227.335
21
-85.8035
0
LINE
8
BLACK
6
CONTINUOUS
10
227.335
20
-85.8035
11
227.335
21
-85.8035
0
LINE
8
BLACK
6
CONTINUOUS
10
227.335
20
-85.8035
11
227.335
21
-85.8033
0
LINE
8
BLACK
6
CONTINUOUS
10
227.335
20
-85.8033
11
227.337
21
-85.8024
0
LINE
8
BLACK
6
CONTINUOUS
10
227.337
20
-85.8024
11
227.339
21
-85.8016
0
LINE
8
BLACK
6
CONTINUOUS
10
227.339
20
-85.8016
11
227.945
21
-85.614
0
LINE
8
BLACK
6
CONTINUOUS
10
227.945
20
-85.614
11
227.945
21
-85.614
0
LINE
8
BLACK
6
CONTINUOUS
10
227.945
20
-85.614
11
227.945
21
-85.6139
0
LINE
8
BLACK
6
CONTINUOUS
10
227.945
20
-85.6139
11
227.948
21
-85.6135
0
LINE
8
BLACK
6
CONTINUOUS
10
227.948
20
-85.6135
11
227.95
21
-85.613
0
LINE
8
BLACK
6
CONTINUOUS
10
227.95
20
-85.613
11
228.581
21
-85.5467
0
LINE
8
BLACK
6
CONTINUOUS
10
228.581
20
-85.5467
11
228.581
21
-85.5467
0
LINE
8
BLACK
6
CONTINUOUS
10
228.581
20
-85.5467
11
228.583
21
-85.5467
0
LINE
8
BLACK
6
CONTINUOUS
10
228.583
20
-85.5467
11
228.586
21
-85.5467
0
LINE
8
BLACK
6
CONTINUOUS
10
228.586
20
-85.5467
11
229.217
21
-85.6042
0
LINE
8
BLACK
6
CONTINUOUS
10
229.217
20
-85.6042
11
229.217
21
-85.6042
0
LINE
8
BLACK
6
CONTINUOUS
10
229.217
20
-85.6042
11
229.218
21
-85.6042
0
LINE
8
BLACK
6
CONTINUOUS
10
229.218
20
-85.6042
11
229.22
21
-85.6047
0
LINE
8
BLACK
6
CONTINUOUS
10
229.22
20
-85.6047
11
229.222
21
-85.6051
0
LINE
8
BLACK
6
CONTINUOUS
10
229.222
20
-85.6051
11
229.831
21
-85.7842
0
LINE
8
BLACK
6
CONTINUOUS
10
229.831
20
-85.7842
11
229.831
21
-85.7843
0
LINE
8
BLACK
6
CONTINUOUS
10
229.831
20
-85.7843
11
229.833
21
-85.7852
0
LINE
8
BLACK
6
CONTINUOUS
10
229.833
20
-85.7852
11
229.835
21
-85.786
0
LINE
8
BLACK
6
CONTINUOUS
10
229.835
20
-85.786
11
230.397
21
-86.0799
0
LINE
8
BLACK
6
CONTINUOUS
10
230.397
20
-86.0799
11
230.397
21
-86.08
0
LINE
8
BLACK
6
CONTINUOUS
10
230.397
20
-86.08
11
230.399
21
-86.0813
0
LINE
8
BLACK
6
CONTINUOUS
10
230.399
20
-86.0813
11
230.401
21
-86.0825
0
LINE
8
BLACK
6
CONTINUOUS
10
230.401
20
-86.0825
11
230.896
21
-86.48
0
LINE
8
BLACK
6
CONTINUOUS
10
230.896
20
-86.48
11
230.896
21
-86.4802
0
LINE
8
BLACK
6
CONTINUOUS
10
230.896
20
-86.4802
11
230.897
21
-86.4818
0
LINE
8
BLACK
6
CONTINUOUS
10
230.897
20
-86.4818
11
230.899
21
-86.4834
0
LINE
8
BLACK
6
CONTINUOUS
10
230.899
20
-86.4834
11
231.307
21
-86.9693
0
LINE
8
BLACK
6
CONTINUOUS
10
231.307
20
-86.9693
11
231.307
21
-86.9696
0
LINE
8
BLACK
6
CONTINUOUS
10
231.307
20
-86.9696
11
231.308
21
-86.9715
0
LINE
8
BLACK
6
CONTINUOUS
10
231.308
20
-86.9715
11
231.31
21
-86.9733
0
LINE
8
BLACK
6
CONTINUOUS
10
231.31
20
-86.9733
11
231.615
21
-87.5291
0
LINE
8
BLACK
6
CONTINUOUS
10
231.615
20
-87.5291
11
231.615
21
-87.5295
0
LINE
8
BLACK
6
CONTINUOUS
10
231.615
20
-87.5295
11
231.616
21
-87.5315
0
LINE
8
BLACK
6
CONTINUOUS
10
231.616
20
-87.5315
11
231.617
21
-87.5336
0
LINE
8
BLACK
6
CONTINUOUS
10
231.617
20
-87.5336
11
231.809
21
-88.1382
0
LINE
8
BLACK
6
CONTINUOUS
10
231.809
20
-88.1382
11
231.809
21
-88.1386
0
LINE
8
BLACK
6
CONTINUOUS
10
231.809
20
-88.1386
11
231.809
21
-88.1408
0
LINE
8
BLACK
6
CONTINUOUS
10
231.809
20
-88.1408
11
231.81
21
-88.143
0
LINE
8
BLACK
6
CONTINUOUS
10
231.81
20
-88.143
11
231.881
21
-88.7733
0
LINE
8
BLACK
6
CONTINUOUS
10
231.881
20
-88.7733
11
231.881
21
-88.7737
0
LINE
8
BLACK
6
CONTINUOUS
10
231.881
20
-88.7737
11
231.881
21
-88.7748
0
LINE
8
BLACK
6
CONTINUOUS
10
231.881
20
-88.7748
11
231.881
21
-88.7759
0
LINE
8
BLACK
6
CONTINUOUS
10
231.881
20
-88.7759
11
231.881
21
-88.8202
0
LINE
8
BLACK
6
CONTINUOUS
10
231.881
20
-88.8202
11
231.881
21
-88.8203
0
LINE
8
BLACK
6
CONTINUOUS
10
231.881
20
-88.8203
11
231.881
21
-91.034
0
LINE
8
BLACK
6
CONTINUOUS
10
231.881
20
-91.034
11
241.619
21
-91.034
0
LINE
8
BLACK
6
CONTINUOUS
10
241.619
20
-91.034
11
241.62
21
-91.0341
0
LINE
8
BLACK
6
CONTINUOUS
10
241.62
20
-91.0341
11
241.62
21
-91.0341
0
LINE
8
BLACK
6
CONTINUOUS
10
241.62
20
-91.0341
11
241.891
21
-91.0607
0
LINE
8
BLACK
6
CONTINUOUS
10
241.891
20
-91.0607
11
241.892
21
-91.0608
0
LINE
8
BLACK
6
CONTINUOUS
10
241.892
20
-91.0608
11
241.894
21
-91.0612
0
LINE
8
BLACK
6
CONTINUOUS
10
241.894
20
-91.0612
11
241.896
21
-91.0617
0
LINE
8
BLACK
6
CONTINUOUS
10
241.896
20
-91.0617
11
242.157
21
-91.1405
0
LINE
8
BLACK
6
CONTINUOUS
10
242.157
20
-91.1405
11
242.157
21
-91.1406
0
LINE
8
BLACK
6
CONTINUOUS
10
242.157
20
-91.1406
11
242.16
21
-91.1415
0
LINE
8
BLACK
6
CONTINUOUS
10
242.16
20
-91.1415
11
242.162
21
-91.1423
0
LINE
8
BLACK
6
CONTINUOUS
10
242.162
20
-91.1423
11
242.402
21
-91.2703
0
LINE
8
BLACK
6
CONTINUOUS
10
242.402
20
-91.2703
11
242.403
21
-91.2705
0
LINE
8
BLACK
6
CONTINUOUS
10
242.403
20
-91.2705
11
242.404
21
-91.2718
0
LINE
8
BLACK
6
CONTINUOUS
10
242.404
20
-91.2718
11
242.406
21
-91.273
0
LINE
8
BLACK
6
CONTINUOUS
10
242.406
20
-91.273
11
242.618
21
-91.4454
0
LINE
8
BLACK
6
CONTINUOUS
10
242.618
20
-91.4454
11
242.618
21
-91.4454
0
LINE
8
BLACK
6
CONTINUOUS
10
242.618
20
-91.4454
11
242.618
21
-91.4454
0
LINE
8
BLACK
6
CONTINUOUS
10
242.618
20
-91.4454
11
242.618
21
-91.4456
0
LINE
8
BLACK
6
CONTINUOUS
10
242.618
20
-91.4456
11
242.62
21
-91.4472
0
LINE
8
BLACK
6
CONTINUOUS
10
242.62
20
-91.4472
11
242.621
21
-91.4488
0
LINE
8
BLACK
6
CONTINUOUS
10
242.621
20
-91.4488
11
242.795
21
-91.6589
0
LINE
8
BLACK
6
CONTINUOUS
10
242.795
20
-91.6589
11
242.795
21
-91.6591
0
LINE
8
BLACK
6
CONTINUOUS
10
242.795
20
-91.6591
11
242.796
21
-91.6611
0
LINE
8
BLACK
6
CONTINUOUS
10
242.796
20
-91.6611
11
242.798
21
-91.6629
0
LINE
8
BLACK
6
CONTINUOUS
10
242.798
20
-91.6629
11
242.927
21
-91.9027
0
LINE
8
BLACK
6
CONTINUOUS
10
242.927
20
-91.9027
11
242.927
21
-91.9027
0
LINE
8
BLACK
6
CONTINUOUS
10
242.927
20
-91.9027
11
242.927
21
-91.9028
0
LINE
8
BLACK
6
CONTINUOUS
10
242.927
20
-91.9028
11
242.927
21
-91.9031
0
LINE
8
BLACK
6
CONTINUOUS
10
242.927
20
-91.9031
11
242.928
21
-91.9052
0
LINE
8
BLACK
6
CONTINUOUS
10
242.928
20
-91.9052
11
242.929
21
-91.9072
0
LINE
8
BLACK
6
CONTINUOUS
10
242.929
20
-91.9072
11
243.01
21
-92.1677
0
LINE
8
BLACK
6
CONTINUOUS
10
243.01
20
-92.1677
11
243.01
21
-92.168
0
LINE
8
BLACK
6
CONTINUOUS
10
243.01
20
-92.168
11
243.01
21
-92.1703
0
LINE
8
BLACK
6
CONTINUOUS
10
243.01
20
-92.1703
11
243.011
21
-92.1725
0
LINE
8
BLACK
6
CONTINUOUS
10
243.011
20
-92.1725
11
243.039
21
-92.4436
0
LINE
8
BLACK
6
CONTINUOUS
10
243.039
20
-92.4436
11
243.039
21
-92.444
0
LINE
8
BLACK
6
CONTINUOUS
10
243.039
20
-92.444
11
243.039
21
-92.4451
0
LINE
8
BLACK
6
CONTINUOUS
10
243.039
20
-92.4451
11
243.039
21
-92.4462
0
LINE
8
BLACK
6
CONTINUOUS
10
243.039
20
-92.4462
11
243.039
21
-92.4547
0
LINE
8
BLACK
6
CONTINUOUS
10
243.039
20
-92.4547
11
243.039
21
-92.4548
0
LINE
8
BLACK
6
CONTINUOUS
10
243.039
20
-92.4548
11
243.039
21
-165.26
0
LINE
8
BLACK
6
CONTINUOUS
10
243.039
20
-165.26
11
245.38
21
-165.26
0
LINE
8
BLACK
6
CONTINUOUS
10
245.38
20
-165.26
11
245.381
21
-165.26
0
LINE
8
BLACK
6
CONTINUOUS
10
245.381
20
-165.26
11
245.381
21
-165.26
0
LINE
8
BLACK
6
CONTINUOUS
10
245.381
20
-165.26
11
246.013
21
-165.322
0
LINE
8
BLACK
6
CONTINUOUS
10
246.013
20
-165.322
11
246.013
21
-165.322
0
LINE
8
BLACK
6
CONTINUOUS
10
246.013
20
-165.322
11
246.015
21
-165.323
0
LINE
8
BLACK
6
CONTINUOUS
10
246.015
20
-165.323
11
246.017
21
-165.323
0
LINE
8
BLACK
6
CONTINUOUS
10
246.017
20
-165.323
11
246.625
21
-165.506
0
LINE
8
BLACK
6
CONTINUOUS
10
246.625
20
-165.506
11
246.625
21
-165.506
0
LINE
8
BLACK
6
CONTINUOUS
10
246.625
20
-165.506
11
246.627
21
-165.507
0
LINE
8
BLACK
6
CONTINUOUS
10
246.627
20
-165.507
11
246.629
21
-165.508
0
LINE
8
BLACK
6
CONTINUOUS
10
246.629
20
-165.508
11
247.189
21
-165.806
0
LINE
8
BLACK
6
CONTINUOUS
10
247.189
20
-165.806
11
247.19
21
-165.806
0
LINE
8
BLACK
6
CONTINUOUS
10
247.19
20
-165.806
11
247.191
21
-165.807
0
LINE
8
BLACK
6
CONTINUOUS
10
247.191
20
-165.807
11
247.193
21
-165.809
0
LINE
8
BLACK
6
CONTINUOUS
10
247.193
20
-165.809
11
247.685
21
-166.21
0
LINE
8
BLACK
6
CONTINUOUS
10
247.685
20
-166.21
11
247.685
21
-166.21
0
LINE
8
BLACK
6
CONTINUOUS
10
247.685
20
-166.21
11
247.687
21
-166.211
0
LINE
8
BLACK
6
CONTINUOUS
10
247.687
20
-166.211
11
247.688
21
-166.213
0
LINE
8
BLACK
6
CONTINUOUS
10
247.688
20
-166.213
11
248.093
21
-166.702
0
LINE
8
BLACK
6
CONTINUOUS
10
248.093
20
-166.702
11
248.093
21
-166.702
0
LINE
8
BLACK
6
CONTINUOUS
10
248.093
20
-166.702
11
248.094
21
-166.704
0
LINE
8
BLACK
6
CONTINUOUS
10
248.094
20
-166.704
11
248.095
21
-166.706
0
LINE
8
BLACK
6
CONTINUOUS
10
248.095
20
-166.706
11
248.397
21
-167.264
0
LINE
8
BLACK
6
CONTINUOUS
10
248.397
20
-167.264
11
248.397
21
-167.264
0
LINE
8
BLACK
6
CONTINUOUS
10
248.397
20
-167.264
11
248.397
21
-167.264
0
LINE
8
BLACK
6
CONTINUOUS
10
248.397
20
-167.264
11
248.397
21
-167.264
0
LINE
8
BLACK
6
CONTINUOUS
10
248.397
20
-167.264
11
248.398
21
-167.266
0
LINE
8
BLACK
6
CONTINUOUS
10
248.398
20
-167.266
11
248.399
21
-167.268
0
LINE
8
BLACK
6
CONTINUOUS
10
248.399
20
-167.268
11
248.587
21
-167.874
0
LINE
8
BLACK
6
CONTINUOUS
10
248.587
20
-167.874
11
248.587
21
-167.874
0
LINE
8
BLACK
6
CONTINUOUS
10
248.587
20
-167.874
11
248.587
21
-167.877
0
LINE
8
BLACK
6
CONTINUOUS
10
248.587
20
-167.877
11
248.587
21
-167.879
0
LINE
8
BLACK
6
CONTINUOUS
10
248.587
20
-167.879
11
248.654
21
-168.51
0
LINE
8
BLACK
6
CONTINUOUS
10
248.654
20
-168.51
11
248.654
21
-168.51
0
LINE
8
BLACK
6
CONTINUOUS
10
248.654
20
-168.51
11
248.654
21
-168.512
0
LINE
8
BLACK
6
CONTINUOUS
10
248.654
20
-168.512
11
248.654
21
-168.515
0
LINE
8
BLACK
6
CONTINUOUS
10
248.654
20
-168.515
11
248.596
21
-169.146
0
LINE
8
BLACK
6
CONTINUOUS
10
248.596
20
-169.146
11
248.596
21
-169.147
0
LINE
8
BLACK
6
CONTINUOUS
10
248.596
20
-169.147
11
248.596
21
-169.149
0
LINE
8
BLACK
6
CONTINUOUS
10
248.596
20
-169.149
11
248.595
21
-169.151
0
LINE
8
BLACK
6
CONTINUOUS
10
248.595
20
-169.151
11
248.416
21
-169.76
0
LINE
8
BLACK
6
CONTINUOUS
10
248.416
20
-169.76
11
248.416
21
-169.76
0
LINE
8
BLACK
6
CONTINUOUS
10
248.416
20
-169.76
11
248.415
21
-169.762
0
LINE
8
BLACK
6
CONTINUOUS
10
248.415
20
-169.762
11
248.415
21
-169.764
0
LINE
8
BLACK
6
CONTINUOUS
10
248.415
20
-169.764
11
248.121
21
-170.326
0
LINE
8
BLACK
6
CONTINUOUS
10
248.121
20
-170.326
11
248.121
21
-170.326
0
LINE
8
BLACK
6
CONTINUOUS
10
248.121
20
-170.326
11
248.121
21
-170.326
0
LINE
8
BLACK
6
CONTINUOUS
10
248.121
20
-170.326
11
248.12
21
-170.326
0
LINE
8
BLACK
6
CONTINUOUS
10
248.12
20
-170.326
11
248.119
21
-170.328
0
LINE
8
BLACK
6
CONTINUOUS
10
248.119
20
-170.328
11
248.118
21
-170.33
0
LINE
8
BLACK
6
CONTINUOUS
10
248.118
20
-170.33
11
247.721
21
-170.825
0
LINE
8
BLACK
6
CONTINUOUS
10
247.721
20
-170.825
11
247.72
21
-170.825
0
LINE
8
BLACK
6
CONTINUOUS
10
247.72
20
-170.825
11
247.719
21
-170.826
0
LINE
8
BLACK
6
CONTINUOUS
10
247.719
20
-170.826
11
247.717
21
-170.828
0
LINE
8
BLACK
6
CONTINUOUS
10
247.717
20
-170.828
11
247.231
21
-171.236
0
LINE
8
BLACK
6
CONTINUOUS
10
247.231
20
-171.236
11
247.231
21
-171.236
0
LINE
8
BLACK
6
CONTINUOUS
10
247.231
20
-171.236
11
247.229
21
-171.237
0
LINE
8
BLACK
6
CONTINUOUS
10
247.229
20
-171.237
11
247.227
21
-171.239
0
LINE
8
BLACK
6
CONTINUOUS
10
247.227
20
-171.239
11
246.671
21
-171.544
0
LINE
8
BLACK
6
CONTINUOUS
10
246.671
20
-171.544
11
246.671
21
-171.544
0
LINE
8
BLACK
6
CONTINUOUS
10
246.671
20
-171.544
11
246.669
21
-171.545
0
LINE
8
BLACK
6
CONTINUOUS
10
246.669
20
-171.545
11
246.667
21
-171.546
0
LINE
8
BLACK
6
CONTINUOUS
10
246.667
20
-171.546
11
246.062
21
-171.738
0
LINE
8
BLACK
6
CONTINUOUS
10
246.062
20
-171.738
11
246.062
21
-171.738
0
LINE
8
BLACK
6
CONTINUOUS
10
246.062
20
-171.738
11
246.06
21
-171.738
0
LINE
8
BLACK
6
CONTINUOUS
10
246.06
20
-171.738
11
246.057
21
-171.739
0
LINE
8
BLACK
6
CONTINUOUS
10
246.057
20
-171.739
11
245.427
21
-171.81
0
LINE
8
BLACK
6
CONTINUOUS
10
245.427
20
-171.81
11
245.427
21
-171.81
0
LINE
8
BLACK
6
CONTINUOUS
10
245.427
20
-171.81
11
245.426
21
-171.81
0
LINE
8
BLACK
6
CONTINUOUS
10
245.426
20
-171.81
11
245.425
21
-171.81
0
LINE
8
BLACK
6
CONTINUOUS
10
245.425
20
-171.81
11
245.38
21
-171.81
0
LINE
8
BLACK
6
CONTINUOUS
10
245.38
20
-171.81
11
245.38
21
-171.81
0
LINE
8
BLACK
6
CONTINUOUS
10
245.38
20
-171.81
11
243.039
21
-171.81
0
LINE
8
BLACK
6
CONTINUOUS
10
243.039
20
-171.81
11
243.039
21
-187.199
0
LINE
8
BLACK
6
CONTINUOUS
10
243.039
20
-187.199
11
243.039
21
-187.2
0
LINE
8
BLACK
6
CONTINUOUS
10
243.039
20
-187.2
11
243.039
21
-187.2
0
LINE
8
BLACK
6
CONTINUOUS
10
243.039
20
-187.2
11
243.013
21
-187.472
0
LINE
8
BLACK
6
CONTINUOUS
10
243.013
20
-187.472
11
243.013
21
-187.472
0
LINE
8
BLACK
6
CONTINUOUS
10
243.013
20
-187.472
11
243.012
21
-187.474
0
LINE
8
BLACK
6
CONTINUOUS
10
243.012
20
-187.474
11
243.012
21
-187.477
0
LINE
8
BLACK
6
CONTINUOUS
10
243.012
20
-187.477
11
242.933
21
-187.738
0
LINE
8
BLACK
6
CONTINUOUS
10
242.933
20
-187.738
11
242.933
21
-187.738
0
LINE
8
BLACK
6
CONTINUOUS
10
242.933
20
-187.738
11
242.932
21
-187.74
0
LINE
8
BLACK
6
CONTINUOUS
10
242.932
20
-187.74
11
242.931
21
-187.742
0
LINE
8
BLACK
6
CONTINUOUS
10
242.931
20
-187.742
11
242.803
21
-187.983
0
LINE
8
BLACK
6
CONTINUOUS
10
242.803
20
-187.983
11
242.803
21
-187.983
0
LINE
8
BLACK
6
CONTINUOUS
10
242.803
20
-187.983
11
242.802
21
-187.985
0
LINE
8
BLACK
6
CONTINUOUS
10
242.802
20
-187.985
11
242.8
21
-187.987
0
LINE
8
BLACK
6
CONTINUOUS
10
242.8
20
-187.987
11
242.628
21
-188.198
0
LINE
8
BLACK
6
CONTINUOUS
10
242.628
20
-188.198
11
242.628
21
-188.198
0
LINE
8
BLACK
6
CONTINUOUS
10
242.628
20
-188.198
11
242.626
21
-188.2
0
LINE
8
BLACK
6
CONTINUOUS
10
242.626
20
-188.2
11
242.625
21
-188.202
0
LINE
8
BLACK
6
CONTINUOUS
10
242.625
20
-188.202
11
242.415
21
-188.375
0
LINE
8
BLACK
6
CONTINUOUS
10
242.415
20
-188.375
11
242.414
21
-188.376
0
LINE
8
BLACK
6
CONTINUOUS
10
242.414
20
-188.376
11
242.412
21
-188.377
0
LINE
8
BLACK
6
CONTINUOUS
10
242.412
20
-188.377
11
242.411
21
-188.378
0
LINE
8
BLACK
6
CONTINUOUS
10
242.411
20
-188.378
11
242.171
21
-188.508
0
LINE
8
BLACK
6
CONTINUOUS
10
242.171
20
-188.508
11
242.17
21
-188.508
0
LINE
8
BLACK
6
CONTINUOUS
10
242.17
20
-188.508
11
242.168
21
-188.509
0
LINE
8
BLACK
6
CONTINUOUS
10
242.168
20
-188.509
11
242.166
21
-188.51
0
LINE
8
BLACK
6
CONTINUOUS
10
242.166
20
-188.51
11
241.906
21
-188.59
0
LINE
8
BLACK
6
CONTINUOUS
10
241.906
20
-188.59
11
241.905
21
-188.59
0
LINE
8
BLACK
6
CONTINUOUS
10
241.905
20
-188.59
11
241.903
21
-188.591
0
LINE
8
BLACK
6
CONTINUOUS
10
241.903
20
-188.591
11
241.901
21
-188.591
0
LINE
8
BLACK
6
CONTINUOUS
10
241.901
20
-188.591
11
241.63
21
-188.62
0
LINE
8
BLACK
6
CONTINUOUS
10
241.63
20
-188.62
11
241.63
21
-188.62
0
LINE
8
BLACK
6
CONTINUOUS
10
241.63
20
-188.62
11
241.628
21
-188.62
0
LINE
8
BLACK
6
CONTINUOUS
10
241.628
20
-188.62
11
241.627
21
-188.62
0
LINE
8
BLACK
6
CONTINUOUS
10
241.627
20
-188.62
11
241.619
21
-188.62
0
LINE
8
BLACK
6
CONTINUOUS
10
241.619
20
-188.62
11
241.619
21
-188.62
0
LINE
8
BLACK
6
CONTINUOUS
10
241.619
20
-188.62
11
194.817
21
-188.62
0
LINE
8
BLACK
6
CONTINUOUS
10
194.817
20
-188.62
11
194.816
21
-188.62
0
LINE
8
BLACK
6
CONTINUOUS
10
194.816
20
-188.62
11
194.816
21
-188.62
0
LINE
8
BLACK
6
CONTINUOUS
10
194.816
20
-188.62
11
194.544
21
-188.593
0
LINE
8
BLACK
6
CONTINUOUS
10
194.544
20
-188.593
11
194.544
21
-188.593
0
LINE
8
BLACK
6
CONTINUOUS
10
194.544
20
-188.593
11
194.542
21
-188.593
0
LINE
8
BLACK
6
CONTINUOUS
10
194.542
20
-188.593
11
194.539
21
-188.592
0
LINE
8
BLACK
6
CONTINUOUS
10
194.539
20
-188.592
11
194.278
21
-188.514
0
LINE
8
BLACK
6
CONTINUOUS
10
194.278
20
-188.514
11
194.278
21
-188.513
0
LINE
8
BLACK
6
CONTINUOUS
10
194.278
20
-188.513
11
194.276
21
-188.513
0
LINE
8
BLACK
6
CONTINUOUS
10
194.276
20
-188.513
11
194.274
21
-188.512
0
LINE
8
BLACK
6
CONTINUOUS
10
194.274
20
-188.512
11
194.033
21
-188.384
0
LINE
8
BLACK
6
CONTINUOUS
10
194.033
20
-188.384
11
194.033
21
-188.383
0
LINE
8
BLACK
6
CONTINUOUS
10
194.033
20
-188.383
11
194.031
21
-188.382
0
LINE
8
BLACK
6
CONTINUOUS
10
194.031
20
-188.382
11
194.029
21
-188.381
0
LINE
8
BLACK
6
CONTINUOUS
10
194.029
20
-188.381
11
193.818
21
-188.209
0
LINE
8
BLACK
6
CONTINUOUS
10
193.818
20
-188.209
11
193.818
21
-188.208
0
LINE
8
BLACK
6
CONTINUOUS
10
193.818
20
-188.208
11
193.816
21
-188.207
0
LINE
8
BLACK
6
CONTINUOUS
10
193.816
20
-188.207
11
193.814
21
-188.205
0
LINE
8
BLACK
6
CONTINUOUS
10
193.814
20
-188.205
11
193.641
21
-187.995
0
LINE
8
BLACK
6
CONTINUOUS
10
193.641
20
-187.995
11
193.64
21
-187.995
0
LINE
8
BLACK
6
CONTINUOUS
10
193.64
20
-187.995
11
193.639
21
-187.993
0
LINE
8
BLACK
6
CONTINUOUS
10
193.639
20
-187.993
11
193.638
21
-187.991
0
LINE
8
BLACK
6
CONTINUOUS
10
193.638
20
-187.991
11
193.508
21
-187.751
0
LINE
8
BLACK
6
CONTINUOUS
10
193.508
20
-187.751
11
193.508
21
-187.751
0
LINE
8
BLACK
6
CONTINUOUS
10
193.508
20
-187.751
11
193.507
21
-187.749
0
LINE
8
BLACK
6
CONTINUOUS
10
193.507
20
-187.749
11
193.506
21
-187.747
0
LINE
8
BLACK
6
CONTINUOUS
10
193.506
20
-187.747
11
193.426
21
-187.486
0
LINE
8
BLACK
6
CONTINUOUS
10
193.426
20
-187.486
11
193.426
21
-187.486
0
LINE
8
BLACK
6
CONTINUOUS
10
193.426
20
-187.486
11
193.425
21
-187.484
0
LINE
8
BLACK
6
CONTINUOUS
10
193.425
20
-187.484
11
193.425
21
-187.482
0
LINE
8
BLACK
6
CONTINUOUS
10
193.425
20
-187.482
11
193.396
21
-187.21
0
LINE
8
BLACK
6
CONTINUOUS
10
193.396
20
-187.21
11
193.396
21
-187.21
0
LINE
8
BLACK
6
CONTINUOUS
10
193.396
20
-187.21
11
193.396
21
-187.209
0
LINE
8
BLACK
6
CONTINUOUS
10
193.396
20
-187.209
11
193.396
21
-187.208
0
LINE
8
BLACK
6
CONTINUOUS
10
193.396
20
-187.208
11
193.396
21
-187.199
0
LINE
8
BLACK
6
CONTINUOUS
10
193.396
20
-187.199
11
193.396
21
-187.199
0
LINE
8
BLACK
6
CONTINUOUS
10
193.396
20
-187.199
11
193.396
21
-185.23
0
LINE
8
BLACK
6
CONTINUOUS
10
193.396
20
-185.23
11
193.396
21
-185.23
0
LINE
8
BLACK
6
CONTINUOUS
10
193.396
20
-185.23
11
193.396
21
-185.221
0
LINE
8
BLACK
6
CONTINUOUS
10
193.396
20
-185.221
11
193.368
21
-184.954
0
LINE
8
BLACK
6
CONTINUOUS
10
193.368
20
-184.954
11
193.289
21
-184.698
0
LINE
8
BLACK
6
CONTINUOUS
10
193.289
20
-184.698
11
193.161
21
-184.462
0
LINE
8
BLACK
6
CONTINUOUS
10
193.161
20
-184.462
11
192.991
21
-184.256
0
LINE
8
BLACK
6
CONTINUOUS
10
192.991
20
-184.256
11
192.783
21
-184.087
0
LINE
8
BLACK
6
CONTINUOUS
10
192.783
20
-184.087
11
192.547
21
-183.961
0
LINE
8
BLACK
6
CONTINUOUS
10
192.547
20
-183.961
11
192.29
21
-183.884
0
LINE
8
BLACK
6
CONTINUOUS
10
192.29
20
-183.884
11
192.023
21
-183.857
0
LINE
8
BLACK
6
CONTINUOUS
10
192.023
20
-183.857
11
188.578
21
-183.857
0
LINE
8
BLACK
6
CONTINUOUS
10
188.578
20
-183.857
11
188.578
21
-186.186
0
LINE
8
BLACK
6
CONTINUOUS
10
188.578
20
-186.186
11
188.578
21
-186.187
0
LINE
8
BLACK
6
CONTINUOUS
10
188.578
20
-186.187
11
188.578
21
-186.187
0
LINE
8
BLACK
6
CONTINUOUS
10
188.578
20
-186.187
11
188.526
21
-186.722
0
LINE
8
BLACK
6
CONTINUOUS
10
188.526
20
-186.722
11
188.526
21
-186.722
0
LINE
8
BLACK
6
CONTINUOUS
10
188.526
20
-186.722
11
188.525
21
-186.724
0
LINE
8
BLACK
6
CONTINUOUS
10
188.525
20
-186.724
11
188.525
21
-186.726
0
LINE
8
BLACK
6
CONTINUOUS
10
188.525
20
-186.726
11
188.37
21
-187.24
0
LINE
8
BLACK
6
CONTINUOUS
10
188.37
20
-187.24
11
188.37
21
-187.241
0
LINE
8
BLACK
6
CONTINUOUS
10
188.37
20
-187.241
11
188.369
21
-187.243
0
LINE
8
BLACK
6
CONTINUOUS
10
188.369
20
-187.243
11
188.368
21
-187.245
0
LINE
8
BLACK
6
CONTINUOUS
10
188.368
20
-187.245
11
188.116
21
-187.719
0
LINE
8
BLACK
6
CONTINUOUS
10
188.116
20
-187.719
11
188.116
21
-187.719
0
LINE
8
BLACK
6
CONTINUOUS
10
188.116
20
-187.719
11
188.115
21
-187.721
0
LINE
8
BLACK
6
CONTINUOUS
10
188.115
20
-187.721
11
188.113
21
-187.723
0
LINE
8
BLACK
6
CONTINUOUS
10
188.113
20
-187.723
11
187.774
21
-188.139
0
LINE
8
BLACK
6
CONTINUOUS
10
187.774
20
-188.139
11
187.774
21
-188.139
0
LINE
8
BLACK
6
CONTINUOUS
10
187.774
20
-188.139
11
187.772
21
-188.14
0
LINE
8
BLACK
6
CONTINUOUS
10
187.772
20
-188.14
11
187.771
21
-188.142
0
LINE
8
BLACK
6
CONTINUOUS
10
187.771
20
-188.142
11
187.357
21
-188.484
0
LINE
8
BLACK
6
CONTINUOUS
10
187.357
20
-188.484
11
187.357
21
-188.484
0
LINE
8
BLACK
6
CONTINUOUS
10
187.357
20
-188.484
11
187.355
21
-188.486
0
LINE
8
BLACK
6
CONTINUOUS
10
187.355
20
-188.486
11
187.353
21
-188.487
0
LINE
8
BLACK
6
CONTINUOUS
10
187.353
20
-188.487
11
186.881
21
-188.742
0
LINE
8
BLACK
6
CONTINUOUS
10
186.881
20
-188.742
11
186.881
21
-188.742
0
LINE
8
BLACK
6
CONTINUOUS
10
186.881
20
-188.742
11
186.879
21
-188.743
0
LINE
8
BLACK
6
CONTINUOUS
10
186.879
20
-188.743
11
186.877
21
-188.744
0
LINE
8
BLACK
6
CONTINUOUS
10
186.877
20
-188.744
11
186.364
21
-188.903
0
LINE
8
BLACK
6
CONTINUOUS
10
186.364
20
-188.903
11
186.364
21
-188.903
0
LINE
8
BLACK
6
CONTINUOUS
10
186.364
20
-188.903
11
186.361
21
-188.903
0
LINE
8
BLACK
6
CONTINUOUS
10
186.361
20
-188.903
11
186.359
21
-188.904
0
LINE
8
BLACK
6
CONTINUOUS
10
186.359
20
-188.904
11
185.825
21
-188.96
0
LINE
8
BLACK
6
CONTINUOUS
10
185.825
20
-188.96
11
185.825
21
-188.96
0
LINE
8
BLACK
6
CONTINUOUS
10
185.825
20
-188.96
11
185.823
21
-188.96
0
LINE
8
BLACK
6
CONTINUOUS
10
185.823
20
-188.96
11
185.82
21
-188.96
0
LINE
8
BLACK
6
CONTINUOUS
10
185.82
20
-188.96
11
185.286
21
-188.911
0
LINE
8
BLACK
6
CONTINUOUS
10
185.286
20
-188.911
11
185.286
21
-188.911
0
LINE
8
BLACK
6
CONTINUOUS
10
185.286
20
-188.911
11
185.283
21
-188.911
0
LINE
8
BLACK
6
CONTINUOUS
10
185.283
20
-188.911
11
185.281
21
-188.91
0
LINE
8
BLACK
6
CONTINUOUS
10
185.281
20
-188.91
11
184.766
21
-188.759
0
LINE
8
BLACK
6
CONTINUOUS
10
184.766
20
-188.759
11
184.766
21
-188.759
0
LINE
8
BLACK
6
CONTINUOUS
10
184.766
20
-188.759
11
184.764
21
-188.758
0
LINE
8
BLACK
6
CONTINUOUS
10
184.764
20
-188.758
11
184.762
21
-188.757
0
LINE
8
BLACK
6
CONTINUOUS
10
184.762
20
-188.757
11
184.286
21
-188.508
0
LINE
8
BLACK
6
CONTINUOUS
10
184.286
20
-188.508
11
184.286
21
-188.508
0
LINE
8
BLACK
6
CONTINUOUS
10
184.286
20
-188.508
11
184.284
21
-188.507
0
LINE
8
BLACK
6
CONTINUOUS
10
184.284
20
-188.507
11
184.282
21
-188.506
0
LINE
8
BLACK
6
CONTINUOUS
10
184.282
20
-188.506
11
183.864
21
-188.169
0
LINE
8
BLACK
6
CONTINUOUS
10
183.864
20
-188.169
11
183.863
21
-188.169
0
LINE
8
BLACK
6
CONTINUOUS
10
183.863
20
-188.169
11
183.862
21
-188.167
0
LINE
8
BLACK
6
CONTINUOUS
10
183.862
20
-188.167
11
183.86
21
-188.166
0
LINE
8
BLACK
6
CONTINUOUS
10
183.86
20
-188.166
11
183.515
21
-187.755
0
LINE
8
BLACK
6
CONTINUOUS
10
183.515
20
-187.755
11
183.515
21
-187.754
0
LINE
8
BLACK
6
CONTINUOUS
10
183.515
20
-187.754
11
183.514
21
-187.753
0
LINE
8
BLACK
6
CONTINUOUS
10
183.514
20
-187.753
11
183.513
21
-187.751
0
LINE
8
BLACK
6
CONTINUOUS
10
183.513
20
-187.751
11
183.254
21
-187.28
0
LINE
8
BLACK
6
CONTINUOUS
10
183.254
20
-187.28
11
183.254
21
-187.28
0
LINE
8
BLACK
6
CONTINUOUS
10
183.254
20
-187.28
11
183.253
21
-187.278
0
LINE
8
BLACK
6
CONTINUOUS
10
183.253
20
-187.278
11
183.252
21
-187.276
0
LINE
8
BLACK
6
CONTINUOUS
10
183.252
20
-187.276
11
183.09
21
-186.764
0
LINE
8
BLACK
6
CONTINUOUS
10
183.09
20
-186.764
11
183.09
21
-186.764
0
LINE
8
BLACK
6
CONTINUOUS
10
183.09
20
-186.764
11
183.089
21
-186.762
0
LINE
8
BLACK
6
CONTINUOUS
10
183.089
20
-186.762
11
183.089
21
-186.76
0
LINE
8
BLACK
6
CONTINUOUS
10
183.089
20
-186.76
11
183.029
21
-186.226
0
LINE
8
BLACK
6
CONTINUOUS
10
183.029
20
-186.226
11
183.029
21
-186.226
0
LINE
8
BLACK
6
CONTINUOUS
10
183.029
20
-186.226
11
183.029
21
-186.225
0
LINE
8
BLACK
6
CONTINUOUS
10
183.029
20
-186.225
11
183.029
21
-186.224
0
LINE
8
BLACK
6
CONTINUOUS
10
183.029
20
-186.224
11
183.029
21
-186.186
0
LINE
8
BLACK
6
CONTINUOUS
10
183.029
20
-186.186
11
183.028
21
-186.186
0
LINE
8
BLACK
6
CONTINUOUS
10
183.028
20
-186.186
11
183.029
21
-183.857
0
LINE
8
BLACK
6
CONTINUOUS
10
183.029
20
-183.857
11
175.515
21
-183.857
0
LINE
8
BLACK
6
CONTINUOUS
10
175.515
20
-183.857
11
157.485
21
-184.937
0
LINE
8
BLACK
6
CONTINUOUS
10
157.485
20
-184.937
11
139.775
21
-191.551
0
LINE
8
BLACK
6
CONTINUOUS
10
139.775
20
-191.551
11
126.735
21
-200.077
0
LINE
8
BLACK
6
CONTINUOUS
10
126.735
20
-200.077
11
127.941
21
-201.898
0
LINE
8
BLACK
6
CONTINUOUS
10
127.941
20
-201.898
11
127.941
21
-201.899
0
LINE
8
BLACK
6
CONTINUOUS
10
127.941
20
-201.899
11
128.238
21
-202.426
0
LINE
8
BLACK
6
CONTINUOUS
10
128.238
20
-202.426
11
128.238
21
-202.426
0
LINE
8
BLACK
6
CONTINUOUS
10
128.238
20
-202.426
11
128.238
21
-202.426
0
LINE
8
BLACK
6
CONTINUOUS
10
128.238
20
-202.426
11
128.238
21
-202.427
0
LINE
8
BLACK
6
CONTINUOUS
10
128.238
20
-202.427
11
128.239
21
-202.429
0
LINE
8
BLACK
6
CONTINUOUS
10
128.239
20
-202.429
11
128.24
21
-202.431
0
LINE
8
BLACK
6
CONTINUOUS
10
128.24
20
-202.431
11
128.429
21
-203.006
0
LINE
8
BLACK
6
CONTINUOUS
10
128.429
20
-203.006
11
128.429
21
-203.006
0
LINE
8
BLACK
6
CONTINUOUS
10
128.429
20
-203.006
11
128.429
21
-203.008
0
LINE
8
BLACK
6
CONTINUOUS
10
128.429
20
-203.008
11
128.43
21
-203.01
0
LINE
8
BLACK
6
CONTINUOUS
10
128.43
20
-203.01
11
128.503
21
-203.611
0
LINE
8
BLACK
6
CONTINUOUS
10
128.503
20
-203.611
11
128.504
21
-203.611
0
LINE
8
BLACK
6
CONTINUOUS
10
128.504
20
-203.611
11
128.504
21
-203.614
0
LINE
8
BLACK
6
CONTINUOUS
10
128.504
20
-203.614
11
128.504
21
-203.616
0
LINE
8
BLACK
6
CONTINUOUS
10
128.504
20
-203.616
11
128.459
21
-204.219
0
LINE
8
BLACK
6
CONTINUOUS
10
128.459
20
-204.219
11
128.459
21
-204.22
0
LINE
8
BLACK
6
CONTINUOUS
10
128.459
20
-204.22
11
128.459
21
-204.222
0
LINE
8
BLACK
6
CONTINUOUS
10
128.459
20
-204.222
11
128.458
21
-204.224
0
LINE
8
BLACK
6
CONTINUOUS
10
128.458
20
-204.224
11
128.298
21
-204.807
0
LINE
8
BLACK
6
CONTINUOUS
10
128.298
20
-204.807
11
128.297
21
-204.808
0
LINE
8
BLACK
6
CONTINUOUS
10
128.297
20
-204.808
11
128.297
21
-204.81
0
LINE
8
BLACK
6
CONTINUOUS
10
128.297
20
-204.81
11
128.296
21
-204.812
0
LINE
8
BLACK
6
CONTINUOUS
10
128.296
20
-204.812
11
128.025
21
-205.353
0
LINE
8
BLACK
6
CONTINUOUS
10
128.025
20
-205.353
11
128.025
21
-205.353
0
LINE
8
BLACK
6
CONTINUOUS
10
128.025
20
-205.353
11
128.023
21
-205.355
0
LINE
8
BLACK
6
CONTINUOUS
10
128.023
20
-205.355
11
128.022
21
-205.357
0
LINE
8
BLACK
6
CONTINUOUS
10
128.022
20
-205.357
11
127.651
21
-205.835
0
LINE
8
BLACK
6
CONTINUOUS
10
127.651
20
-205.835
11
127.651
21
-205.835
0
LINE
8
BLACK
6
CONTINUOUS
10
127.651
20
-205.835
11
127.651
21
-205.835
0
LINE
8
BLACK
6
CONTINUOUS
10
127.651
20
-205.835
11
127.651
21
-205.835
0
LINE
8
BLACK
6
CONTINUOUS
10
127.651
20
-205.835
11
127.649
21
-205.837
0
LINE
8
BLACK
6
CONTINUOUS
10
127.649
20
-205.837
11
127.648
21
-205.839
0
LINE
8
BLACK
6
CONTINUOUS
10
127.648
20
-205.839
11
127.191
21
-206.236
0
LINE
8
BLACK
6
CONTINUOUS
10
127.191
20
-206.236
11
127.191
21
-206.236
0
LINE
8
BLACK
6
CONTINUOUS
10
127.191
20
-206.236
11
127.189
21
-206.237
0
LINE
8
BLACK
6
CONTINUOUS
10
127.189
20
-206.237
11
127.187
21
-206.238
0
LINE
8
BLACK
6
CONTINUOUS
10
127.187
20
-206.238
11
126.662
21
-206.539
0
LINE
8
BLACK
6
CONTINUOUS
10
126.662
20
-206.539
11
126.662
21
-206.539
0
LINE
8
BLACK
6
CONTINUOUS
10
126.662
20
-206.539
11
126.662
21
-206.539
0
LINE
8
BLACK
6
CONTINUOUS
10
126.662
20
-206.539
11
126.662
21
-206.539
0
LINE
8
BLACK
6
CONTINUOUS
10
126.662
20
-206.539
11
126.66
21
-206.54
0
LINE
8
BLACK
6
CONTINUOUS
10
126.66
20
-206.54
11
126.658
21
-206.541
0
LINE
8
BLACK
6
CONTINUOUS
10
126.658
20
-206.541
11
126.084
21
-206.734
0
LINE
8
BLACK
6
CONTINUOUS
10
126.084
20
-206.734
11
126.084
21
-206.734
0
LINE
8
BLACK
6
CONTINUOUS
10
126.084
20
-206.734
11
126.082
21
-206.735
0
LINE
8
BLACK
6
CONTINUOUS
10
126.082
20
-206.735
11
126.079
21
-206.735
0
LINE
8
BLACK
6
CONTINUOUS
10
126.079
20
-206.735
11
125.479
21
-206.813
0
LINE
8
BLACK
6
CONTINUOUS
10
125.479
20
-206.813
11
125.479
21
-206.813
0
LINE
8
BLACK
6
CONTINUOUS
10
125.479
20
-206.813
11
125.479
21
-206.813
0
LINE
8
BLACK
6
CONTINUOUS
10
125.479
20
-206.813
11
125.477
21
-206.813
0
LINE
8
BLACK
6
CONTINUOUS
10
125.477
20
-206.813
11
125.474
21
-206.813
0
LINE
8
BLACK
6
CONTINUOUS
10
125.474
20
-206.813
11
124.871
21
-206.773
0
LINE
8
BLACK
6
CONTINUOUS
10
124.871
20
-206.773
11
124.87
21
-206.773
0
LINE
8
BLACK
6
CONTINUOUS
10
124.87
20
-206.773
11
124.868
21
-206.773
0
LINE
8
BLACK
6
CONTINUOUS
10
124.868
20
-206.773
11
124.866
21
-206.772
0
LINE
8
BLACK
6
CONTINUOUS
10
124.866
20
-206.772
11
124.281
21
-206.615
0
LINE
8
BLACK
6
CONTINUOUS
10
124.281
20
-206.615
11
124.281
21
-206.615
0
LINE
8
BLACK
6
CONTINUOUS
10
124.281
20
-206.615
11
124.281
21
-206.615
0
LINE
8
BLACK
6
CONTINUOUS
10
124.281
20
-206.615
11
124.281
21
-206.615
0
LINE
8
BLACK
6
CONTINUOUS
10
124.281
20
-206.615
11
124.279
21
-206.615
0
LINE
8
BLACK
6
CONTINUOUS
10
124.279
20
-206.615
11
124.277
21
-206.614
0
LINE
8
BLACK
6
CONTINUOUS
10
124.277
20
-206.614
11
123.734
21
-206.347
0
LINE
8
BLACK
6
CONTINUOUS
10
123.734
20
-206.347
11
123.734
21
-206.346
0
LINE
8
BLACK
6
CONTINUOUS
10
123.734
20
-206.346
11
123.732
21
-206.345
0
LINE
8
BLACK
6
CONTINUOUS
10
123.732
20
-206.345
11
123.73
21
-206.344
0
LINE
8
BLACK
6
CONTINUOUS
10
123.73
20
-206.344
11
123.249
21
-205.976
0
LINE
8
BLACK
6
CONTINUOUS
10
123.249
20
-205.976
11
123.249
21
-205.976
0
LINE
8
BLACK
6
CONTINUOUS
10
123.249
20
-205.976
11
123.249
21
-205.976
0
LINE
8
BLACK
6
CONTINUOUS
10
123.249
20
-205.976
11
123.249
21
-205.976
0
LINE
8
BLACK
6
CONTINUOUS
10
123.249
20
-205.976
11
123.247
21
-205.975
0
LINE
8
BLACK
6
CONTINUOUS
10
123.247
20
-205.975
11
123.246
21
-205.973
0
LINE
8
BLACK
6
CONTINUOUS
10
123.246
20
-205.973
11
122.845
21
-205.519
0
LINE
8
BLACK
6
CONTINUOUS
10
122.845
20
-205.519
11
122.845
21
-205.519
0
LINE
8
BLACK
6
CONTINUOUS
10
122.845
20
-205.519
11
122.844
21
-205.518
0
LINE
8
BLACK
6
CONTINUOUS
10
122.844
20
-205.518
11
122.844
21
-205.517
0
LINE
8
BLACK
6
CONTINUOUS
10
122.844
20
-205.517
11
122.791
21
-205.442
0
LINE
8
BLACK
6
CONTINUOUS
10
122.791
20
-205.442
11
122.791
21
-205.441
0
LINE
8
BLACK
6
CONTINUOUS
10
122.791
20
-205.441
11
121.405
21
-203.362
0
LINE
8
BLACK
6
CONTINUOUS
10
121.405
20
-203.362
11
106.541
21
-213.178
0
LINE
8
BLACK
6
CONTINUOUS
10
106.541
20
-213.178
11
106.541
21
-213.178
0
LINE
8
BLACK
6
CONTINUOUS
10
106.541
20
-213.178
11
106.541
21
-213.178
0
LINE
8
BLACK
6
CONTINUOUS
10
106.541
20
-213.178
11
106.54
21
-213.178
0
LINE
8
BLACK
6
CONTINUOUS
10
106.54
20
-213.178
11
106.537
21
-213.18
0
LINE
8
BLACK
6
CONTINUOUS
10
106.537
20
-213.18
11
106.536
21
-213.18
0
LINE
8
BLACK
6
CONTINUOUS
10
106.536
20
-213.18
11
106.371
21
-213.248
0
LINE
8
BLACK
6
CONTINUOUS
10
106.371
20
-213.248
11
106.371
21
-213.248
0
LINE
8
BLACK
6
CONTINUOUS
10
106.371
20
-213.248
11
106.369
21
-213.249
0
LINE
8
BLACK
6
CONTINUOUS
10
106.369
20
-213.249
11
106.366
21
-213.25
0
LINE
8
BLACK
6
CONTINUOUS
10
106.366
20
-213.25
11
106.19
21
-213.285
0
LINE
8
BLACK
6
CONTINUOUS
10
106.19
20
-213.285
11
106.19
21
-213.285
0
LINE
8
BLACK
6
CONTINUOUS
10
106.19
20
-213.285
11
106.188
21
-213.285
0
LINE
8
BLACK
6
CONTINUOUS
10
106.188
20
-213.285
11
106.185
21
-213.285
0
LINE
8
BLACK
6
CONTINUOUS
10
106.185
20
-213.285
11
106.006
21
-213.285
0
LINE
8
BLACK
6
CONTINUOUS
10
106.006
20
-213.285
11
106.005
21
-213.285
0
LINE
8
BLACK
6
CONTINUOUS
10
106.005
20
-213.285
11
106.003
21
-213.285
0
LINE
8
BLACK
6
CONTINUOUS
10
106.003
20
-213.285
11
106.001
21
-213.284
0
LINE
8
BLACK
6
CONTINUOUS
10
106.001
20
-213.284
11
105.825
21
-213.25
0
LINE
8
BLACK
6
CONTINUOUS
10
105.825
20
-213.25
11
105.824
21
-213.249
0
LINE
8
BLACK
6
CONTINUOUS
10
105.824
20
-213.249
11
105.822
21
-213.249
0
LINE
8
BLACK
6
CONTINUOUS
10
105.822
20
-213.249
11
105.82
21
-213.248
0
LINE
8
BLACK
6
CONTINUOUS
10
105.82
20
-213.248
11
105.654
21
-213.18
0
LINE
8
BLACK
6
CONTINUOUS
10
105.654
20
-213.18
11
105.654
21
-213.179
0
LINE
8
BLACK
6
CONTINUOUS
10
105.654
20
-213.179
11
105.652
21
-213.178
0
LINE
8
BLACK
6
CONTINUOUS
10
105.652
20
-213.178
11
105.65
21
-213.177
0
LINE
8
BLACK
6
CONTINUOUS
10
105.65
20
-213.177
11
105.5
21
-213.078
0
LINE
8
BLACK
6
CONTINUOUS
10
105.5
20
-213.078
11
105.5
21
-213.078
0
LINE
8
BLACK
6
CONTINUOUS
10
105.5
20
-213.078
11
105.498
21
-213.076
0
LINE
8
BLACK
6
CONTINUOUS
10
105.498
20
-213.076
11
105.496
21
-213.075
0
LINE
8
BLACK
6
CONTINUOUS
10
105.496
20
-213.075
11
105.369
21
-212.948
0
LINE
8
BLACK
6
CONTINUOUS
10
105.369
20
-212.948
11
105.369
21
-212.948
0
LINE
8
BLACK
6
CONTINUOUS
10
105.369
20
-212.948
11
105.367
21
-212.947
0
LINE
8
BLACK
6
CONTINUOUS
10
105.367
20
-212.947
11
105.366
21
-212.945
0
LINE
8
BLACK
6
CONTINUOUS
10
105.366
20
-212.945
11
105.31
21
-212.87
0
LINE
8
BLACK
6
CONTINUOUS
10
105.31
20
-212.87
11
105.31
21
-212.869
0
LINE
8
BLACK
6
CONTINUOUS
10
105.31
20
-212.869
11
88.2688
21
-186.677
0
LINE
8
BLACK
6
CONTINUOUS
10
88.2688
20
-186.677
11
88.2671
21
-186.674
0
LINE
8
BLACK
6
CONTINUOUS
10
88.2671
20
-186.674
11
88.2668
21
-186.673
0
LINE
8
BLACK
6
CONTINUOUS
10
88.2668
20
-186.673
11
88.1989
21
-186.508
0
LINE
8
BLACK
6
CONTINUOUS
10
88.1989
20
-186.508
11
88.1988
21
-186.508
0
LINE
8
BLACK
6
CONTINUOUS
10
88.1988
20
-186.508
11
88.1981
21
-186.506
0
LINE
8
BLACK
6
CONTINUOUS
10
88.1981
20
-186.506
11
88.1975
21
-186.503
0
LINE
8
BLACK
6
CONTINUOUS
10
88.1975
20
-186.503
11
88.1627
21
-186.327
0
LINE
8
BLACK
6
CONTINUOUS
10
88.1627
20
-186.327
11
88.1626
21
-186.327
0
LINE
8
BLACK
6
CONTINUOUS
10
88.1626
20
-186.327
11
88.1624
21
-186.325
0
LINE
8
BLACK
6
CONTINUOUS
10
88.1624
20
-186.325
11
88.1622
21
-186.322
0
LINE
8
BLACK
6
CONTINUOUS
10
88.1622
20
-186.322
11
88.1622
21
-186.143
0
LINE
8
BLACK
6
CONTINUOUS
10
88.1622
20
-186.143
11
88.1623
21
-186.142
0
LINE
8
BLACK
6
CONTINUOUS
10
88.1623
20
-186.142
11
88.1625
21
-186.14
0
LINE
8
BLACK
6
CONTINUOUS
10
88.1625
20
-186.14
11
88.1627
21
-186.138
0
LINE
8
BLACK
6
CONTINUOUS
10
88.1627
20
-186.138
11
88.1977
21
-185.962
0
LINE
8
BLACK
6
CONTINUOUS
10
88.1977
20
-185.962
11
88.1977
21
-185.961
0
LINE
8
BLACK
6
CONTINUOUS
10
88.1977
20
-185.961
11
88.1984
21
-185.959
0
LINE
8
BLACK
6
CONTINUOUS
10
88.1984
20
-185.959
11
88.1991
21
-185.957
0
LINE
8
BLACK
6
CONTINUOUS
10
88.1991
20
-185.957
11
88.2676
21
-185.791
0
LINE
8
BLACK
6
CONTINUOUS
10
88.2676
20
-185.791
11
88.2677
21
-185.791
0
LINE
8
BLACK
6
CONTINUOUS
10
88.2677
20
-185.791
11
88.2688
21
-185.789
0
LINE
8
BLACK
6
CONTINUOUS
10
88.2688
20
-185.789
11
88.2699
21
-185.787
0
LINE
8
BLACK
6
CONTINUOUS
10
88.2699
20
-185.787
11
88.3693
21
-185.637
0
LINE
8
BLACK
6
CONTINUOUS
10
88.3693
20
-185.637
11
88.3695
21
-185.637
0
LINE
8
BLACK
6
CONTINUOUS
10
88.3695
20
-185.637
11
88.371
21
-185.635
0
LINE
8
BLACK
6
CONTINUOUS
10
88.371
20
-185.635
11
88.3724
21
-185.633
0
LINE
8
BLACK
6
CONTINUOUS
10
88.3724
20
-185.633
11
88.499
21
-185.506
0
LINE
8
BLACK
6
CONTINUOUS
10
88.499
20
-185.506
11
88.4993
21
-185.506
0
LINE
8
BLACK
6
CONTINUOUS
10
88.4993
20
-185.506
11
88.5006
21
-185.505
0
LINE
8
BLACK
6
CONTINUOUS
10
88.5006
20
-185.505
11
88.5019
21
-185.503
0
LINE
8
BLACK
6
CONTINUOUS
10
88.5019
20
-185.503
11
88.5774
21
-185.447
0
LINE
8
BLACK
6
CONTINUOUS
10
88.5774
20
-185.447
11
88.578
21
-185.447
0
LINE
8
BLACK
6
CONTINUOUS
10
88.578
20
-185.447
11
116.707
21
-167.187
0
LINE
8
BLACK
6
CONTINUOUS
10
116.707
20
-167.187
11
116.708
21
-167.187
0
LINE
8
BLACK
6
CONTINUOUS
10
116.708
20
-167.187
11
116.787
21
-167.139
0
LINE
8
BLACK
6
CONTINUOUS
10
116.787
20
-167.139
11
116.927
21
-167.023
0
LINE
8
BLACK
6
CONTINUOUS
10
116.927
20
-167.023
11
117.041
21
-166.883
0
LINE
8
BLACK
6
CONTINUOUS
10
117.041
20
-166.883
11
117.126
21
-166.723
0
LINE
8
BLACK
6
CONTINUOUS
10
117.126
20
-166.723
11
117.178
21
-166.55
0
LINE
8
BLACK
6
CONTINUOUS
10
117.178
20
-166.55
11
117.196
21
-166.369
0
LINE
8
BLACK
6
CONTINUOUS
10
117.196
20
-166.369
11
117.196
21
-164.178
0
LINE
8
BLACK
6
CONTINUOUS
10
117.196
20
-164.178
11
114.411
21
-164.178
0
LINE
8
BLACK
6
CONTINUOUS
10
114.411
20
-164.178
11
114.41
21
-164.178
0
LINE
8
BLACK
6
CONTINUOUS
10
114.41
20
-164.178
11
114.41
21
-164.178
0
LINE
8
BLACK
6
CONTINUOUS
10
114.41
20
-164.178
11
113.778
21
-164.116
0
LINE
8
BLACK
6
CONTINUOUS
10
113.778
20
-164.116
11
113.778
21
-164.116
0
LINE
8
BLACK
6
CONTINUOUS
10
113.778
20
-164.116
11
113.776
21
-164.115
0
LINE
8
BLACK
6
CONTINUOUS
10
113.776
20
-164.115
11
113.774
21
-164.115
0
LINE
8
BLACK
6
CONTINUOUS
10
113.774
20
-164.115
11
113.166
21
-163.932
0
LINE
8
BLACK
6
CONTINUOUS
10
113.166
20
-163.932
11
113.166
21
-163.932
0
LINE
8
BLACK
6
CONTINUOUS
10
113.166
20
-163.932
11
113.164
21
-163.931
0
LINE
8
BLACK
6
CONTINUOUS
10
113.164
20
-163.931
11
113.162
21
-163.93
0
LINE
8
BLACK
6
CONTINUOUS
10
113.162
20
-163.93
11
112.602
21
-163.632
0
LINE
8
BLACK
6
CONTINUOUS
10
112.602
20
-163.632
11
112.601
21
-163.632
0
LINE
8
BLACK
6
CONTINUOUS
10
112.601
20
-163.632
11
112.6
21
-163.631
0
LINE
8
BLACK
6
CONTINUOUS
10
112.6
20
-163.631
11
112.598
21
-163.629
0
LINE
8
BLACK
6
CONTINUOUS
10
112.598
20
-163.629
11
112.106
21
-163.228
0
LINE
8
BLACK
6
CONTINUOUS
10
112.106
20
-163.228
11
112.106
21
-163.228
0
LINE
8
BLACK
6
CONTINUOUS
10
112.106
20
-163.228
11
112.104
21
-163.227
0
LINE
8
BLACK
6
CONTINUOUS
10
112.104
20
-163.227
11
112.103
21
-163.225
0
LINE
8
BLACK
6
CONTINUOUS
10
112.103
20
-163.225
11
111.698
21
-162.736
0
LINE
8
BLACK
6
CONTINUOUS
10
111.698
20
-162.736
11
111.698
21
-162.736
0
LINE
8
BLACK
6
CONTINUOUS
10
111.698
20
-162.736
11
111.697
21
-162.734
0
LINE
8
BLACK
6
CONTINUOUS
10
111.697
20
-162.734
11
111.696
21
-162.732
0
LINE
8
BLACK
6
CONTINUOUS
10
111.696
20
-162.732
11
111.394
21
-162.174
0
LINE
8
BLACK
6
CONTINUOUS
10
111.394
20
-162.174
11
111.394
21
-162.174
0
LINE
8
BLACK
6
CONTINUOUS
10
111.394
20
-162.174
11
111.393
21
-162.172
0
LINE
8
BLACK
6
CONTINUOUS
10
111.393
20
-162.172
11
111.392
21
-162.17
0
LINE
8
BLACK
6
CONTINUOUS
10
111.392
20
-162.17
11
111.204
21
-161.564
0
LINE
8
BLACK
6
CONTINUOUS
10
111.204
20
-161.564
11
111.204
21
-161.564
0
LINE
8
BLACK
6
CONTINUOUS
10
111.204
20
-161.564
11
111.204
21
-161.561
0
LINE
8
BLACK
6
CONTINUOUS
10
111.204
20
-161.561
11
111.204
21
-161.559
0
LINE
8
BLACK
6
CONTINUOUS
10
111.204
20
-161.559
11
111.137
21
-160.928
0
LINE
8
BLACK
6
CONTINUOUS
10
111.137
20
-160.928
11
111.137
21
-160.928
0
LINE
8
BLACK
6
CONTINUOUS
10
111.137
20
-160.928
11
111.137
21
-160.926
0
LINE
8
BLACK
6
CONTINUOUS
10
111.137
20
-160.926
11
111.137
21
-160.923
0
LINE
8
BLACK
6
CONTINUOUS
10
111.137
20
-160.923
11
111.195
21
-160.292
0
LINE
8
BLACK
6
CONTINUOUS
10
111.195
20
-160.292
11
111.195
21
-160.291
0
LINE
8
BLACK
6
CONTINUOUS
10
111.195
20
-160.291
11
111.195
21
-160.289
0
LINE
8
BLACK
6
CONTINUOUS
10
111.195
20
-160.289
11
111.196
21
-160.287
0
LINE
8
BLACK
6
CONTINUOUS
10
111.196
20
-160.287
11
111.375
21
-159.678
0
LINE
8
BLACK
6
CONTINUOUS
10
111.375
20
-159.678
11
111.375
21
-159.678
0
LINE
8
BLACK
6
CONTINUOUS
10
111.375
20
-159.678
11
111.376
21
-159.676
0
LINE
8
BLACK
6
CONTINUOUS
10
111.376
20
-159.676
11
111.376
21
-159.674
0
LINE
8
BLACK
6
CONTINUOUS
10
111.376
20
-159.674
11
111.67
21
-159.112
0
LINE
8
BLACK
6
CONTINUOUS
10
111.67
20
-159.112
11
111.671
21
-159.112
0
LINE
8
BLACK
6
CONTINUOUS
10
111.671
20
-159.112
11
111.672
21
-159.11
0
LINE
8
BLACK
6
CONTINUOUS
10
111.672
20
-159.11
11
111.673
21
-159.108
0
LINE
8
BLACK
6
CONTINUOUS
10
111.673
20
-159.108
11
112.07
21
-158.613
0
LINE
8
BLACK
6
CONTINUOUS
10
112.07
20
-158.613
11
112.071
21
-158.613
0
LINE
8
BLACK
6
CONTINUOUS
10
112.071
20
-158.613
11
112.072
21
-158.612
0
LINE
8
BLACK
6
CONTINUOUS
10
112.072
20
-158.612
11
112.074
21
-158.61
0
LINE
8
BLACK
6
CONTINUOUS
10
112.074
20
-158.61
11
112.56
21
-158.202
0
LINE
8
BLACK
6
CONTINUOUS
10
112.56
20
-158.202
11
112.56
21
-158.202
0
LINE
8
BLACK
6
CONTINUOUS
10
112.56
20
-158.202
11
112.562
21
-158.201
0
LINE
8
BLACK
6
CONTINUOUS
10
112.562
20
-158.201
11
112.564
21
-158.199
0
LINE
8
BLACK
6
CONTINUOUS
10
112.564
20
-158.199
11
113.12
21
-157.894
0
LINE
8
BLACK
6
CONTINUOUS
10
113.12
20
-157.894
11
113.12
21
-157.894
0
LINE
8
BLACK
6
CONTINUOUS
10
113.12
20
-157.894
11
113.122
21
-157.893
0
LINE
8
BLACK
6
CONTINUOUS
10
113.122
20
-157.893
11
113.124
21
-157.892
0
LINE
8
BLACK
6
CONTINUOUS
10
113.124
20
-157.892
11
113.729
21
-157.7
0
LINE
8
BLACK
6
CONTINUOUS
10
113.729
20
-157.7
11
113.729
21
-157.7
0
LINE
8
BLACK
6
CONTINUOUS
10
113.729
20
-157.7
11
113.731
21
-157.7
0
LINE
8
BLACK
6
CONTINUOUS
10
113.731
20
-157.7
11
113.733
21
-157.699
0
LINE
8
BLACK
6
CONTINUOUS
10
113.733
20
-157.699
11
114.364
21
-157.628
0
LINE
8
BLACK
6
CONTINUOUS
10
114.364
20
-157.628
11
114.364
21
-157.628
0
LINE
8
BLACK
6
CONTINUOUS
10
114.364
20
-157.628
11
114.365
21
-157.628
0
LINE
8
BLACK
6
CONTINUOUS
10
114.365
20
-157.628
11
114.366
21
-157.628
0
LINE
8
BLACK
6
CONTINUOUS
10
114.366
20
-157.628
11
114.411
21
-157.628
0
LINE
8
BLACK
6
CONTINUOUS
10
114.411
20
-157.628
11
114.411
21
-157.628
0
LINE
8
BLACK
6
CONTINUOUS
10
114.411
20
-157.628
11
117.196
21
-157.628
0
LINE
8
BLACK
6
CONTINUOUS
10
117.196
20
-157.628
11
117.196
21
-90.1053
0
LINE
8
BLACK
6
CONTINUOUS
10
117.196
20
-90.1053
11
117.196
21
-90.1041
0
LINE
8
BLACK
6
CONTINUOUS
10
117.196
20
-90.1041
11
117.196
21
-90.1041
0
LINE
8
BLACK
6
CONTINUOUS
10
117.196
20
-90.1041
11
117.223
21
-89.8327
0
LINE
8
BLACK
6
CONTINUOUS
10
117.223
20
-89.8327
11
117.223
21
-89.8324
0
LINE
8
BLACK
6
CONTINUOUS
10
117.223
20
-89.8324
11
117.223
21
-89.8301
0
LINE
8
BLACK
6
CONTINUOUS
10
117.223
20
-89.8301
11
117.224
21
-89.8279
0
LINE
8
BLACK
6
CONTINUOUS
10
117.224
20
-89.8279
11
117.302
21
-89.5669
0
LINE
8
BLACK
6
CONTINUOUS
10
117.302
20
-89.5669
11
117.303
21
-89.5666
0
LINE
8
BLACK
6
CONTINUOUS
10
117.303
20
-89.5666
11
117.303
21
-89.5645
0
LINE
8
BLACK
6
CONTINUOUS
10
117.303
20
-89.5645
11
117.304
21
-89.5624
0
LINE
8
BLACK
6
CONTINUOUS
10
117.304
20
-89.5624
11
117.432
21
-89.3217
0
LINE
8
BLACK
6
CONTINUOUS
10
117.432
20
-89.3217
11
117.433
21
-89.3214
0
LINE
8
BLACK
6
CONTINUOUS
10
117.433
20
-89.3214
11
117.434
21
-89.3195
0
LINE
8
BLACK
6
CONTINUOUS
10
117.434
20
-89.3195
11
117.435
21
-89.3176
0
LINE
8
BLACK
6
CONTINUOUS
10
117.435
20
-89.3176
11
117.607
21
-89.1063
0
LINE
8
BLACK
6
CONTINUOUS
10
117.607
20
-89.1063
11
117.607
21
-89.1063
0
LINE
8
BLACK
6
CONTINUOUS
10
117.607
20
-89.1063
11
117.607
21
-89.1063
0
LINE
8
BLACK
6
CONTINUOUS
10
117.607
20
-89.1063
11
117.608
21
-89.1061
0
LINE
8
BLACK
6
CONTINUOUS
10
117.608
20
-89.1061
11
117.609
21
-89.1045
0
LINE
8
BLACK
6
CONTINUOUS
10
117.609
20
-89.1045
11
117.611
21
-89.1029
0
LINE
8
BLACK
6
CONTINUOUS
10
117.611
20
-89.1029
11
117.821
21
-88.9291
0
LINE
8
BLACK
6
CONTINUOUS
10
117.821
20
-88.9291
11
117.821
21
-88.9289
0
LINE
8
BLACK
6
CONTINUOUS
10
117.821
20
-88.9289
11
117.823
21
-88.9276
0
LINE
8
BLACK
6
CONTINUOUS
10
117.823
20
-88.9276
11
117.825
21
-88.9263
0
LINE
8
BLACK
6
CONTINUOUS
10
117.825
20
-88.9263
11
118.065
21
-88.7967
0
LINE
8
BLACK
6
CONTINUOUS
10
118.065
20
-88.7967
11
118.065
21
-88.7967
0
LINE
8
BLACK
6
CONTINUOUS
10
118.065
20
-88.7967
11
118.065
21
-88.7967
0
LINE
8
BLACK
6
CONTINUOUS
10
118.065
20
-88.7967
11
118.065
21
-88.7965
0
LINE
8
BLACK
6
CONTINUOUS
10
118.065
20
-88.7965
11
118.067
21
-88.7956
0
LINE
8
BLACK
6
CONTINUOUS
10
118.067
20
-88.7956
11
118.069
21
-88.7948
0
LINE
8
BLACK
6
CONTINUOUS
10
118.069
20
-88.7948
11
118.33
21
-88.7142
0
LINE
8
BLACK
6
CONTINUOUS
10
118.33
20
-88.7142
11
118.33
21
-88.7141
0
LINE
8
BLACK
6
CONTINUOUS
10
118.33
20
-88.7141
11
118.332
21
-88.7136
0
LINE
8
BLACK
6
CONTINUOUS
10
118.332
20
-88.7136
11
118.334
21
-88.7132
0
LINE
8
BLACK
6
CONTINUOUS
10
118.334
20
-88.7132
11
118.606
21
-88.6847
0
LINE
8
BLACK
6
CONTINUOUS
10
118.606
20
-88.6847
11
118.606
21
-88.6846
0
LINE
8
BLACK
6
CONTINUOUS
10
118.606
20
-88.6846
11
118.607
21
-88.6846
0
LINE
8
BLACK
6
CONTINUOUS
10
118.607
20
-88.6846
11
118.608
21
-88.6845
0
LINE
8
BLACK
6
CONTINUOUS
10
118.608
20
-88.6845
11
118.617
21
-88.6845
0
LINE
8
BLACK
6
CONTINUOUS
10
118.617
20
-88.6845
11
118.617
21
-88.6845
0
LINE
8
BLACK
6
CONTINUOUS
10
118.617
20
-88.6845
11
118.715
21
-88.6845
0
LINE
8
BLACK
6
CONTINUOUS
10
118.715
20
-88.6845
11
118.715
21
-86.3438
0
LINE
8
BLACK
6
CONTINUOUS
10
118.715
20
-86.3438
11
118.715
21
-86.3426
0
LINE
8
BLACK
6
CONTINUOUS
10
118.715
20
-86.3426
11
118.715
21
-86.3426
0
LINE
8
BLACK
6
CONTINUOUS
10
118.715
20
-86.3426
11
118.777
21
-85.7113
0
LINE
8
BLACK
6
CONTINUOUS
10
118.777
20
-85.7113
11
118.777
21
-85.711
0
LINE
8
BLACK
6
CONTINUOUS
10
118.777
20
-85.711
11
118.777
21
-85.7087
0
LINE
8
BLACK
6
CONTINUOUS
10
118.777
20
-85.7087
11
118.777
21
-85.7065
0
LINE
8
BLACK
6
CONTINUOUS
10
118.777
20
-85.7065
11
118.961
21
-85.0993
0
LINE
8
BLACK
6
CONTINUOUS
10
118.961
20
-85.0993
11
118.961
21
-85.099
0
LINE
8
BLACK
6
CONTINUOUS
10
118.961
20
-85.099
11
118.962
21
-85.0969
0
LINE
8
BLACK
6
CONTINUOUS
10
118.962
20
-85.0969
11
118.963
21
-85.0948
0
LINE
8
BLACK
6
CONTINUOUS
10
118.963
20
-85.0948
11
119.26
21
-84.5347
0
LINE
8
BLACK
6
CONTINUOUS
10
119.26
20
-84.5347
11
119.261
21
-84.5344
0
LINE
8
BLACK
6
CONTINUOUS
10
119.261
20
-84.5344
11
119.262
21
-84.5326
0
LINE
8
BLACK
6
CONTINUOUS
10
119.262
20
-84.5326
11
119.263
21
-84.5307
0
LINE
8
BLACK
6
CONTINUOUS
10
119.263
20
-84.5307
11
119.664
21
-84.0391
0
LINE
8
BLACK
6
CONTINUOUS
10
119.664
20
-84.0391
11
119.664
21
-84.0389
0
LINE
8
BLACK
6
CONTINUOUS
10
119.664
20
-84.0389
11
119.666
21
-84.0373
0
LINE
8
BLACK
6
CONTINUOUS
10
119.666
20
-84.0373
11
119.667
21
-84.0357
0
LINE
8
BLACK
6
CONTINUOUS
10
119.667
20
-84.0357
11
120.156
21
-83.6314
0
LINE
8
BLACK
6
CONTINUOUS
10
120.156
20
-83.6314
11
120.156
21
-83.6311
0
LINE
8
BLACK
6
CONTINUOUS
10
120.156
20
-83.6311
11
120.158
21
-83.6299
0
LINE
8
BLACK
6
CONTINUOUS
10
120.158
20
-83.6299
11
120.16
21
-83.6286
0
LINE
8
BLACK
6
CONTINUOUS
10
120.16
20
-83.6286
11
120.718
21
-83.327
0
LINE
8
BLACK
6
CONTINUOUS
10
120.718
20
-83.327
11
120.718
21
-83.327
0
LINE
8
BLACK
6
CONTINUOUS
10
120.718
20
-83.327
11
120.718
21
-83.327
0
LINE
8
BLACK
6
CONTINUOUS
10
120.718
20
-83.327
11
120.718
21
-83.3268
0
LINE
8
BLACK
6
CONTINUOUS
10
120.718
20
-83.3268
11
120.721
21
-83.3259
0
LINE
8
BLACK
6
CONTINUOUS
10
120.721
20
-83.3259
11
120.723
21
-83.3251
0
LINE
8
BLACK
6
CONTINUOUS
10
120.723
20
-83.3251
11
121.329
21
-83.1375
0
LINE
8
BLACK
6
CONTINUOUS
10
121.329
20
-83.1375
11
121.329
21
-83.1375
0
LINE
8
BLACK
6
CONTINUOUS
10
121.329
20
-83.1375
11
121.329
21
-83.1374
0
LINE
8
BLACK
6
CONTINUOUS
10
121.329
20
-83.1374
11
121.331
21
-83.137
0
LINE
8
BLACK
6
CONTINUOUS
10
121.331
20
-83.137
11
121.333
21
-83.1365
0
LINE
8
BLACK
6
CONTINUOUS
10
121.333
20
-83.1365
11
121.964
21
-83.0702
0
LINE
8
BLACK
6
CONTINUOUS
10
121.964
20
-83.0702
11
121.965
21
-83.0702
0
LINE
8
BLACK
6
CONTINUOUS
10
121.965
20
-83.0702
11
121.967
21
-83.0702
0
LINE
8
BLACK
6
CONTINUOUS
10
121.967
20
-83.0702
11
121.969
21
-83.0702
0
LINE
8
BLACK
6
CONTINUOUS
10
121.969
20
-83.0702
11
122.601
21
-83.1277
0
LINE
8
BLACK
6
CONTINUOUS
10
122.601
20
-83.1277
11
122.601
21
-83.1277
0
LINE
8
BLACK
6
CONTINUOUS
10
122.601
20
-83.1277
11
122.601
21
-83.1277
0
LINE
8
BLACK
6
CONTINUOUS
10
136.84
20
-86.258
11
136.733
21
-86.2693
0
LINE
8
BLACK
6
CONTINUOUS
10
136.733
20
-86.2693
11
136.631
21
-86.3008
0
LINE
8
BLACK
6
CONTINUOUS
10
136.631
20
-86.3008
11
136.537
21
-86.3515
0
LINE
8
BLACK
6
CONTINUOUS
10
136.537
20
-86.3515
11
136.455
21
-86.4195
0
LINE
8
BLACK
6
CONTINUOUS
10
136.455
20
-86.4195
11
136.387
21
-86.5021
0
LINE
8
BLACK
6
CONTINUOUS
10
136.387
20
-86.5021
11
136.337
21
-86.5963
0
LINE
8
BLACK
6
CONTINUOUS
10
136.337
20
-86.5963
11
136.307
21
-86.6984
0
LINE
8
BLACK
6
CONTINUOUS
10
136.307
20
-86.6984
11
136.296
21
-86.8057
0
LINE
8
BLACK
6
CONTINUOUS
10
136.296
20
-86.8057
11
136.296
21
-87.3137
0
LINE
8
BLACK
6
CONTINUOUS
10
136.296
20
-87.3137
11
136.296
21
-87.3149
0
LINE
8
BLACK
6
CONTINUOUS
10
136.296
20
-87.3149
11
136.296
21
-87.3149
0
LINE
8
BLACK
6
CONTINUOUS
10
136.296
20
-87.3149
11
136.269
21
-87.5863
0
LINE
8
BLACK
6
CONTINUOUS
10
136.269
20
-87.5863
11
136.269
21
-87.5866
0
LINE
8
BLACK
6
CONTINUOUS
10
136.269
20
-87.5866
11
136.269
21
-87.5889
0
LINE
8
BLACK
6
CONTINUOUS
10
136.269
20
-87.5889
11
136.268
21
-87.5911
0
LINE
8
BLACK
6
CONTINUOUS
10
136.268
20
-87.5911
11
136.19
21
-87.8521
0
LINE
8
BLACK
6
CONTINUOUS
10
136.19
20
-87.8521
11
136.189
21
-87.8524
0
LINE
8
BLACK
6
CONTINUOUS
10
136.189
20
-87.8524
11
136.189
21
-87.8545
0
LINE
8
BLACK
6
CONTINUOUS
10
136.189
20
-87.8545
11
136.188
21
-87.8566
0
LINE
8
BLACK
6
CONTINUOUS
10
136.188
20
-87.8566
11
136.06
21
-88.0973
0
LINE
8
BLACK
6
CONTINUOUS
10
136.06
20
-88.0973
11
136.059
21
-88.0976
0
LINE
8
BLACK
6
CONTINUOUS
10
136.059
20
-88.0976
11
136.058
21
-88.0995
0
LINE
8
BLACK
6
CONTINUOUS
10
136.058
20
-88.0995
11
136.057
21
-88.1014
0
LINE
8
BLACK
6
CONTINUOUS
10
136.057
20
-88.1014
11
135.885
21
-88.3127
0
LINE
8
BLACK
6
CONTINUOUS
10
135.885
20
-88.3127
11
135.884
21
-88.3129
0
LINE
8
BLACK
6
CONTINUOUS
10
135.884
20
-88.3129
11
135.883
21
-88.3146
0
LINE
8
BLACK
6
CONTINUOUS
10
135.883
20
-88.3146
11
135.881
21
-88.3161
0
LINE
8
BLACK
6
CONTINUOUS
10
135.881
20
-88.3161
11
135.671
21
-88.4899
0
LINE
8
BLACK
6
CONTINUOUS
10
135.671
20
-88.4899
11
135.671
21
-88.4901
0
LINE
8
BLACK
6
CONTINUOUS
10
135.671
20
-88.4901
11
135.669
21
-88.4914
0
LINE
8
BLACK
6
CONTINUOUS
10
135.669
20
-88.4914
11
135.667
21
-88.4927
0
LINE
8
BLACK
6
CONTINUOUS
10
135.667
20
-88.4927
11
135.427
21
-88.6223
0
LINE
8
BLACK
6
CONTINUOUS
10
135.427
20
-88.6223
11
135.427
21
-88.6225
0
LINE
8
BLACK
6
CONTINUOUS
10
135.427
20
-88.6225
11
135.425
21
-88.6234
0
LINE
8
BLACK
6
CONTINUOUS
10
135.425
20
-88.6234
11
135.423
21
-88.6242
0
LINE
8
BLACK
6
CONTINUOUS
10
135.423
20
-88.6242
11
135.162
21
-88.7048
0
LINE
8
BLACK
6
CONTINUOUS
10
135.162
20
-88.7048
11
135.162
21
-88.7049
0
LINE
8
BLACK
6
CONTINUOUS
10
135.162
20
-88.7049
11
135.16
21
-88.7054
0
LINE
8
BLACK
6
CONTINUOUS
10
135.16
20
-88.7054
11
135.158
21
-88.7058
0
LINE
8
BLACK
6
CONTINUOUS
10
135.158
20
-88.7058
11
134.886
21
-88.7343
0
LINE
8
BLACK
6
CONTINUOUS
10
134.886
20
-88.7343
11
134.886
21
-88.7344
0
LINE
8
BLACK
6
CONTINUOUS
10
134.886
20
-88.7344
11
134.885
21
-88.7344
0
LINE
8
BLACK
6
CONTINUOUS
10
134.885
20
-88.7344
11
134.884
21
-88.7345
0
LINE
8
BLACK
6
CONTINUOUS
10
134.884
20
-88.7345
11
134.875
21
-88.7345
0
LINE
8
BLACK
6
CONTINUOUS
10
134.875
20
-88.7345
11
134.875
21
-88.7345
0
LINE
8
BLACK
6
CONTINUOUS
10
134.875
20
-88.7345
11
125.241
21
-88.7345
0
LINE
8
BLACK
6
CONTINUOUS
10
125.241
20
-88.7345
11
125.239
21
-88.7346
0
LINE
8
BLACK
6
CONTINUOUS
10
125.239
20
-88.7346
11
125.238
21
-88.7345
0
LINE
8
BLACK
6
CONTINUOUS
10
125.238
20
-88.7345
11
125.238
21
-88.7345
0
LINE
8
BLACK
6
CONTINUOUS
10
125.238
20
-88.7345
11
125.235
21
-88.7341
0
LINE
8
BLACK
6
CONTINUOUS
10
125.235
20
-88.7341
11
125.23
21
-88.7327
0
LINE
8
BLACK
6
CONTINUOUS
10
125.23
20
-88.7327
11
125.226
21
-88.7304
0
LINE
8
BLACK
6
CONTINUOUS
10
125.226
20
-88.7304
11
125.222
21
-88.7273
0
LINE
8
BLACK
6
CONTINUOUS
10
125.222
20
-88.7273
11
125.219
21
-88.7235
0
LINE
8
BLACK
6
CONTINUOUS
10
125.219
20
-88.7235
11
125.216
21
-88.7191
0
LINE
8
BLACK
6
CONTINUOUS
10
125.216
20
-88.7191
11
125.215
21
-88.7144
0
LINE
8
BLACK
6
CONTINUOUS
10
125.215
20
-88.7144
11
125.214
21
-88.7095
0
LINE
8
BLACK
6
CONTINUOUS
10
125.214
20
-88.7095
11
125.215
21
-88.7083
0
LINE
8
BLACK
6
CONTINUOUS
10
125.215
20
-88.7083
11
125.215
21
-86.345
0
LINE
8
BLACK
6
CONTINUOUS
10
125.215
20
-86.345
11
125.214
21
-86.3011
0
LINE
8
BLACK
6
CONTINUOUS
10
125.214
20
-86.3011
11
125.144
21
-85.6745
0
LINE
8
BLACK
6
CONTINUOUS
10
125.144
20
-85.6745
11
124.954
21
-85.0746
0
LINE
8
BLACK
6
CONTINUOUS
10
124.954
20
-85.0746
11
124.65
21
-84.523
0
LINE
8
BLACK
6
CONTINUOUS
10
124.65
20
-84.523
11
124.246
21
-84.0409
0
LINE
8
BLACK
6
CONTINUOUS
10
124.246
20
-84.0409
11
123.755
21
-83.6465
0
LINE
8
BLACK
6
CONTINUOUS
10
123.755
20
-83.6465
11
123.198
21
-83.3549
0
LINE
8
BLACK
6
CONTINUOUS
10
123.198
20
-83.3549
11
122.594
21
-83.1772
0
LINE
8
BLACK
6
CONTINUOUS
10
122.594
20
-83.1772
11
121.967
21
-83.1202
0
LINE
8
BLACK
6
CONTINUOUS
10
121.967
20
-83.1202
11
121.341
21
-83.186
0
LINE
8
BLACK
6
CONTINUOUS
10
121.341
20
-83.186
11
120.74
21
-83.3721
0
LINE
8
BLACK
6
CONTINUOUS
10
120.74
20
-83.3721
11
120.186
21
-83.6715
0
LINE
8
BLACK
6
CONTINUOUS
10
120.186
20
-83.6715
11
119.701
21
-84.0726
0
LINE
8
BLACK
6
CONTINUOUS
10
119.701
20
-84.0726
11
119.303
21
-84.5604
0
LINE
8
BLACK
6
CONTINUOUS
10
119.303
20
-84.5604
11
119.008
21
-85.1161
0
LINE
8
BLACK
6
CONTINUOUS
10
119.008
20
-85.1161
11
118.826
21
-85.7186
0
LINE
8
BLACK
6
CONTINUOUS
10
118.826
20
-85.7186
11
118.764
21
-86.3462
0
LINE
8
BLACK
6
CONTINUOUS
10
118.764
20
-86.3462
11
118.764
21
-88.7083
0
LINE
8
BLACK
6
CONTINUOUS
10
118.764
20
-88.7083
11
118.765
21
-88.7095
0
LINE
8
BLACK
6
CONTINUOUS
10
118.765
20
-88.7095
11
118.764
21
-88.7107
0
LINE
8
BLACK
6
CONTINUOUS
10
118.764
20
-88.7107
11
118.764
21
-88.7144
0
LINE
8
BLACK
6
CONTINUOUS
10
118.764
20
-88.7144
11
118.763
21
-88.7191
0
LINE
8
BLACK
6
CONTINUOUS
10
118.763
20
-88.7191
11
118.76
21
-88.7235
0
LINE
8
BLACK
6
CONTINUOUS
10
118.76
20
-88.7235
11
118.757
21
-88.7273
0
LINE
8
BLACK
6
CONTINUOUS
10
118.757
20
-88.7273
11
118.753
21
-88.7304
0
LINE
8
BLACK
6
CONTINUOUS
10
118.753
20
-88.7304
11
118.749
21
-88.7327
0
LINE
8
BLACK
6
CONTINUOUS
10
118.749
20
-88.7327
11
118.744
21
-88.7341
0
LINE
8
BLACK
6
CONTINUOUS
10
118.744
20
-88.7341
11
118.739
21
-88.7346
0
LINE
8
BLACK
6
CONTINUOUS
10
118.739
20
-88.7346
11
118.738
21
-88.7345
0
LINE
8
BLACK
6
CONTINUOUS
10
118.738
20
-88.7345
11
118.618
21
-88.7345
0
LINE
8
BLACK
6
CONTINUOUS
10
118.618
20
-88.7345
11
118.61
21
-88.7345
0
LINE
8
BLACK
6
CONTINUOUS
10
118.61
20
-88.7345
11
118.342
21
-88.7626
0
LINE
8
BLACK
6
CONTINUOUS
10
118.342
20
-88.7626
11
118.086
21
-88.8418
0
LINE
8
BLACK
6
CONTINUOUS
10
118.086
20
-88.8418
11
117.851
21
-88.9692
0
LINE
8
BLACK
6
CONTINUOUS
10
117.851
20
-88.9692
11
117.645
21
-89.1398
0
LINE
8
BLACK
6
CONTINUOUS
10
117.645
20
-89.1398
11
117.475
21
-89.3473
0
LINE
8
BLACK
6
CONTINUOUS
10
117.475
20
-89.3473
11
117.35
21
-89.5837
0
LINE
8
BLACK
6
CONTINUOUS
10
117.35
20
-89.5837
11
117.272
21
-89.84
0
LINE
8
BLACK
6
CONTINUOUS
10
117.272
20
-89.84
11
117.246
21
-90.1077
0
LINE
8
BLACK
6
CONTINUOUS
10
117.246
20
-90.1077
11
117.246
21
-157.652
0
LINE
8
BLACK
6
CONTINUOUS
10
117.246
20
-157.652
11
117.246
21
-157.653
0
LINE
8
BLACK
6
CONTINUOUS
10
117.246
20
-157.653
11
117.246
21
-157.654
0
LINE
8
BLACK
6
CONTINUOUS
10
117.246
20
-157.654
11
117.246
21
-157.658
0
LINE
8
BLACK
6
CONTINUOUS
10
117.246
20
-157.658
11
117.244
21
-157.663
0
LINE
8
BLACK
6
CONTINUOUS
10
117.244
20
-157.663
11
117.242
21
-157.667
0
LINE
8
BLACK
6
CONTINUOUS
10
117.242
20
-157.667
11
117.239
21
-157.671
0
LINE
8
BLACK
6
CONTINUOUS
10
117.239
20
-157.671
11
117.235
21
-157.674
0
LINE
8
BLACK
6
CONTINUOUS
10
117.235
20
-157.674
11
117.231
21
-157.676
0
LINE
8
BLACK
6
CONTINUOUS
10
117.231
20
-157.676
11
117.226
21
-157.678
0
LINE
8
BLACK
6
CONTINUOUS
10
117.226
20
-157.678
11
117.221
21
-157.678
0
LINE
8
BLACK
6
CONTINUOUS
10
117.221
20
-157.678
11
117.22
21
-157.678
0
LINE
8
BLACK
6
CONTINUOUS
10
117.22
20
-157.678
11
114.412
21
-157.678
0
LINE
8
BLACK
6
CONTINUOUS
10
114.412
20
-157.678
11
114.368
21
-157.678
0
LINE
8
BLACK
6
CONTINUOUS
10
114.368
20
-157.678
11
113.742
21
-157.749
0
LINE
8
BLACK
6
CONTINUOUS
10
113.742
20
-157.749
11
113.142
21
-157.939
0
LINE
8
BLACK
6
CONTINUOUS
10
113.142
20
-157.939
11
112.59
21
-158.242
0
LINE
8
BLACK
6
CONTINUOUS
10
112.59
20
-158.242
11
112.108
21
-158.647
0
LINE
8
BLACK
6
CONTINUOUS
10
112.108
20
-158.647
11
111.714
21
-159.137
0
LINE
8
BLACK
6
CONTINUOUS
10
111.714
20
-159.137
11
111.422
21
-159.695
0
LINE
8
BLACK
6
CONTINUOUS
10
111.422
20
-159.695
11
111.244
21
-160.299
0
LINE
8
BLACK
6
CONTINUOUS
10
111.244
20
-160.299
11
111.187
21
-160.926
0
LINE
8
BLACK
6
CONTINUOUS
10
111.187
20
-160.926
11
111.253
21
-161.551
0
LINE
8
BLACK
6
CONTINUOUS
10
111.253
20
-161.551
11
111.439
21
-162.153
0
LINE
8
BLACK
6
CONTINUOUS
10
111.439
20
-162.153
11
111.738
21
-162.706
0
LINE
8
BLACK
6
CONTINUOUS
10
111.738
20
-162.706
11
112.14
21
-163.191
0
LINE
8
BLACK
6
CONTINUOUS
10
112.14
20
-163.191
11
112.627
21
-163.589
0
LINE
8
BLACK
6
CONTINUOUS
10
112.627
20
-163.589
11
113.183
21
-163.885
0
LINE
8
BLACK
6
CONTINUOUS
10
113.183
20
-163.885
11
113.786
21
-164.066
0
LINE
8
BLACK
6
CONTINUOUS
10
113.786
20
-164.066
11
114.413
21
-164.128
0
LINE
8
BLACK
6
CONTINUOUS
10
114.413
20
-164.128
11
117.22
21
-164.128
0
LINE
8
BLACK
6
CONTINUOUS
10
117.22
20
-164.128
11
117.221
21
-164.128
0
LINE
8
BLACK
6
CONTINUOUS
10
117.221
20
-164.128
11
117.222
21
-164.128
0
LINE
8
BLACK
6
CONTINUOUS
10
117.222
20
-164.128
11
117.222
21
-164.128
0
LINE
8
BLACK
6
CONTINUOUS
10
117.222
20
-164.128
11
117.226
21
-164.128
0
LINE
8
BLACK
6
CONTINUOUS
10
117.226
20
-164.128
11
117.231
21
-164.13
0
LINE
8
BLACK
6
CONTINUOUS
10
117.231
20
-164.13
11
117.235
21
-164.132
0
LINE
8
BLACK
6
CONTINUOUS
10
117.235
20
-164.132
11
117.239
21
-164.135
0
LINE
8
BLACK
6
CONTINUOUS
10
117.239
20
-164.135
11
117.242
21
-164.139
0
LINE
8
BLACK
6
CONTINUOUS
10
117.242
20
-164.139
11
117.244
21
-164.143
0
LINE
8
BLACK
6
CONTINUOUS
10
117.244
20
-164.143
11
117.246
21
-164.148
0
LINE
8
BLACK
6
CONTINUOUS
10
117.246
20
-164.148
11
117.246
21
-164.153
0
LINE
8
BLACK
6
CONTINUOUS
10
117.246
20
-164.153
11
117.246
21
-164.154
0
LINE
8
BLACK
6
CONTINUOUS
10
117.246
20
-164.154
11
117.246
21
-166.371
0
LINE
8
BLACK
6
CONTINUOUS
10
117.246
20
-166.371
11
117.246
21
-166.372
0
LINE
8
BLACK
6
CONTINUOUS
10
117.246
20
-166.372
11
117.246
21
-166.372
0
LINE
8
BLACK
6
CONTINUOUS
10
117.246
20
-166.372
11
117.228
21
-166.557
0
LINE
8
BLACK
6
CONTINUOUS
10
117.228
20
-166.557
11
117.228
21
-166.558
0
LINE
8
BLACK
6
CONTINUOUS
10
117.228
20
-166.558
11
117.227
21
-166.56
0
LINE
8
BLACK
6
CONTINUOUS
10
117.227
20
-166.56
11
117.227
21
-166.562
0
LINE
8
BLACK
6
CONTINUOUS
10
117.227
20
-166.562
11
117.173
21
-166.74
0
LINE
8
BLACK
6
CONTINUOUS
10
117.173
20
-166.74
11
117.173
21
-166.741
0
LINE
8
BLACK
6
CONTINUOUS
10
117.173
20
-166.741
11
117.172
21
-166.743
0
LINE
8
BLACK
6
CONTINUOUS
10
117.172
20
-166.743
11
117.171
21
-166.745
0
LINE
8
BLACK
6
CONTINUOUS
10
117.171
20
-166.745
11
117.084
21
-166.909
0
LINE
8
BLACK
6
CONTINUOUS
10
117.084
20
-166.909
11
117.084
21
-166.909
0
LINE
8
BLACK
6
CONTINUOUS
10
117.084
20
-166.909
11
117.082
21
-166.911
0
LINE
8
BLACK
6
CONTINUOUS
10
117.082
20
-166.911
11
117.081
21
-166.913
0
LINE
8
BLACK
6
CONTINUOUS
10
117.081
20
-166.913
11
116.964
21
-167.057
0
LINE
8
BLACK
6
CONTINUOUS
10
116.964
20
-167.057
11
116.964
21
-167.057
0
LINE
8
BLACK
6
CONTINUOUS
10
116.964
20
-167.057
11
116.962
21
-167.059
0
LINE
8
BLACK
6
CONTINUOUS
10
116.962
20
-167.059
11
116.96
21
-167.06
0
LINE
8
BLACK
6
CONTINUOUS
10
116.96
20
-167.06
11
116.817
21
-167.179
0
LINE
8
BLACK
6
CONTINUOUS
10
116.817
20
-167.179
11
116.817
21
-167.179
0
LINE
8
BLACK
6
CONTINUOUS
10
116.817
20
-167.179
11
116.815
21
-167.18
0
LINE
8
BLACK
6
CONTINUOUS
10
116.815
20
-167.18
11
116.814
21
-167.181
0
LINE
8
BLACK
6
CONTINUOUS
10
116.814
20
-167.181
11
116.733
21
-167.23
0
LINE
8
BLACK
6
CONTINUOUS
10
116.733
20
-167.23
11
88.607
21
-185.488
0
LINE
8
BLACK
6
CONTINUOUS
10
88.607
20
-185.488
11
88.5332
21
-185.542
0
LINE
8
BLACK
6
CONTINUOUS
10
88.5332
20
-185.542
11
88.4096
21
-185.667
0
LINE
8
BLACK
6
CONTINUOUS
10
88.4096
20
-185.667
11
88.3129
21
-185.812
0
LINE
8
BLACK
6
CONTINUOUS
10
88.3129
20
-185.812
11
88.2462
21
-185.974
0
LINE
8
BLACK
6
CONTINUOUS
10
88.2462
20
-185.974
11
88.2122
21
-186.145
0
LINE
8
BLACK
6
CONTINUOUS
10
88.2122
20
-186.145
11
88.2122
21
-186.32
0
LINE
8
BLACK
6
CONTINUOUS
10
88.2122
20
-186.32
11
88.2461
21
-186.491
0
LINE
8
BLACK
6
CONTINUOUS
10
88.2461
20
-186.491
11
88.3126
21
-186.653
0
LINE
8
BLACK
6
CONTINUOUS
10
88.3126
20
-186.653
11
105.351
21
-212.84
0
LINE
8
BLACK
6
CONTINUOUS
10
105.351
20
-212.84
11
105.405
21
-212.914
0
LINE
8
BLACK
6
CONTINUOUS
10
105.405
20
-212.914
11
105.53
21
-213.038
0
LINE
8
BLACK
6
CONTINUOUS
10
105.53
20
-213.038
11
105.675
21
-213.134
0
LINE
8
BLACK
6
CONTINUOUS
10
105.675
20
-213.134
11
105.837
21
-213.201
0
LINE
8
BLACK
6
CONTINUOUS
10
105.837
20
-213.201
11
106.008
21
-213.235
0
LINE
8
BLACK
6
CONTINUOUS
10
106.008
20
-213.235
11
106.183
21
-213.235
0
LINE
8
BLACK
6
CONTINUOUS
10
106.183
20
-213.235
11
106.354
21
-213.201
0
LINE
8
BLACK
6
CONTINUOUS
10
106.354
20
-213.201
11
106.516
21
-213.135
0
LINE
8
BLACK
6
CONTINUOUS
10
106.516
20
-213.135
11
121.397
21
-203.307
0
LINE
8
BLACK
6
CONTINUOUS
10
121.397
20
-203.307
11
121.398
21
-203.306
0
LINE
8
BLACK
6
CONTINUOUS
10
121.398
20
-203.306
11
121.399
21
-203.306
0
LINE
8
BLACK
6
CONTINUOUS
10
121.399
20
-203.306
11
121.399
21
-203.305
0
LINE
8
BLACK
6
CONTINUOUS
10
121.399
20
-203.305
11
121.4
21
-203.305
0
LINE
8
BLACK
6
CONTINUOUS
10
121.4
20
-203.305
11
121.402
21
-203.304
0
LINE
8
BLACK
6
CONTINUOUS
10
121.402
20
-203.304
11
121.402
21
-203.304
0
LINE
8
BLACK
6
CONTINUOUS
10
121.402
20
-203.304
11
121.403
21
-203.304
0
LINE
8
BLACK
6
CONTINUOUS
10
121.403
20
-203.304
11
121.405
21
-203.303
0
LINE
8
BLACK
6
CONTINUOUS
10
121.405
20
-203.303
11
121.407
21
-203.302
0
LINE
8
BLACK
6
CONTINUOUS
10
121.407
20
-203.302
11
121.407
21
-203.302
0
LINE
8
BLACK
6
CONTINUOUS
10
121.407
20
-203.302
11
121.407
21
-203.302
0
LINE
8
BLACK
6
CONTINUOUS
10
121.407
20
-203.302
11
121.41
21
-203.302
0
LINE
8
BLACK
6
CONTINUOUS
10
121.41
20
-203.302
11
121.412
21
-203.302
0
LINE
8
BLACK
6
CONTINUOUS
10
121.412
20
-203.302
11
121.412
21
-203.302
0
LINE
8
BLACK
6
CONTINUOUS
10
121.412
20
-203.302
11
121.412
21
-203.302
0
LINE
8
BLACK
6
CONTINUOUS
10
121.412
20
-203.302
11
121.415
21
-203.302
0
LINE
8
BLACK
6
CONTINUOUS
10
121.415
20
-203.302
11
121.417
21
-203.302
0
LINE
8
BLACK
6
CONTINUOUS
10
121.417
20
-203.302
11
121.417
21
-203.302
0
LINE
8
BLACK
6
CONTINUOUS
10
121.417
20
-203.302
11
121.417
21
-203.302
0
LINE
8
BLACK
6
CONTINUOUS
10
121.417
20
-203.302
11
121.419
21
-203.303
0
LINE
8
BLACK
6
CONTINUOUS
10
121.419
20
-203.303
11
121.422
21
-203.304
0
LINE
8
BLACK
6
CONTINUOUS
10
121.422
20
-203.304
11
121.422
21
-203.304
0
LINE
8
BLACK
6
CONTINUOUS
10
121.422
20
-203.304
11
121.422
21
-203.304
0
LINE
8
BLACK
6
CONTINUOUS
10
121.422
20
-203.304
11
121.424
21
-203.305
0
LINE
8
BLACK
6
CONTINUOUS
10
121.424
20
-203.305
11
121.426
21
-203.306
0
LINE
8
BLACK
6
CONTINUOUS
10
121.426
20
-203.306
11
121.426
21
-203.306
0
LINE
8
BLACK
6
CONTINUOUS
10
121.426
20
-203.306
11
121.426
21
-203.306
0
LINE
8
BLACK
6
CONTINUOUS
10
121.426
20
-203.306
11
121.428
21
-203.308
0
LINE
8
BLACK
6
CONTINUOUS
10
121.428
20
-203.308
11
121.43
21
-203.309
0
LINE
8
BLACK
6
CONTINUOUS
10
121.43
20
-203.309
11
121.43
21
-203.309
0
LINE
8
BLACK
6
CONTINUOUS
10
121.43
20
-203.309
11
121.43
21
-203.309
0
LINE
8
BLACK
6
CONTINUOUS
10
121.43
20
-203.309
11
121.431
21
-203.311
0
LINE
8
BLACK
6
CONTINUOUS
10
121.431
20
-203.311
11
121.432
21
-203.312
0
LINE
8
BLACK
6
CONTINUOUS
10
121.432
20
-203.312
11
121.432
21
-203.312
0
LINE
8
BLACK
6
CONTINUOUS
10
121.432
20
-203.312
11
121.433
21
-203.313
0
LINE
8
BLACK
6
CONTINUOUS
10
121.433
20
-203.313
11
121.434
21
-203.314
0
LINE
8
BLACK
6
CONTINUOUS
10
121.434
20
-203.314
11
122.832
21
-205.412
0
LINE
8
BLACK
6
CONTINUOUS
10
122.832
20
-205.412
11
122.884
21
-205.487
0
LINE
8
BLACK
6
CONTINUOUS
10
122.884
20
-205.487
11
123.281
21
-205.938
0
LINE
8
BLACK
6
CONTINUOUS
10
123.281
20
-205.938
11
123.758
21
-206.303
0
LINE
8
BLACK
6
CONTINUOUS
10
123.758
20
-206.303
11
124.297
21
-206.568
0
LINE
8
BLACK
6
CONTINUOUS
10
124.297
20
-206.568
11
124.876
21
-206.723
0
LINE
8
BLACK
6
CONTINUOUS
10
124.876
20
-206.723
11
125.475
21
-206.763
0
LINE
8
BLACK
6
CONTINUOUS
10
125.475
20
-206.763
11
126.07
21
-206.686
0
LINE
8
BLACK
6
CONTINUOUS
10
126.07
20
-206.686
11
126.639
21
-206.495
0
LINE
8
BLACK
6
CONTINUOUS
10
126.639
20
-206.495
11
127.16
21
-206.196
0
LINE
8
BLACK
6
CONTINUOUS
10
127.16
20
-206.196
11
127.613
21
-205.803
0
LINE
8
BLACK
6
CONTINUOUS
10
127.613
20
-205.803
11
127.981
21
-205.328
0
LINE
8
BLACK
6
CONTINUOUS
10
127.981
20
-205.328
11
128.25
21
-204.792
0
LINE
8
BLACK
6
CONTINUOUS
10
128.25
20
-204.792
11
128.41
21
-204.213
0
LINE
8
BLACK
6
CONTINUOUS
10
128.41
20
-204.213
11
128.454
21
-203.615
0
LINE
8
BLACK
6
CONTINUOUS
10
128.454
20
-203.615
11
128.38
21
-203.019
0
LINE
8
BLACK
6
CONTINUOUS
10
128.38
20
-203.019
11
128.193
21
-202.449
0
LINE
8
BLACK
6
CONTINUOUS
10
128.193
20
-202.449
11
127.898
21
-201.924
0
LINE
8
BLACK
6
CONTINUOUS
10
127.898
20
-201.924
11
126.68
21
-200.085
0
LINE
8
BLACK
6
CONTINUOUS
10
126.68
20
-200.085
11
126.679
21
-200.084
0
LINE
8
BLACK
6
CONTINUOUS
10
126.679
20
-200.084
11
126.678
21
-200.081
0
LINE
8
BLACK
6
CONTINUOUS
10
126.678
20
-200.081
11
126.677
21
-200.079
0
LINE
8
BLACK
6
CONTINUOUS
10
126.677
20
-200.079
11
126.677
21
-200.079
0
LINE
8
BLACK
6
CONTINUOUS
10
126.677
20
-200.079
11
126.677
21
-200.079
0
LINE
8
BLACK
6
CONTINUOUS
10
126.677
20
-200.079
11
126.676
21
-200.077
0
LINE
8
BLACK
6
CONTINUOUS
10
126.676
20
-200.077
11
126.675
21
-200.075
0
LINE
8
BLACK
6
CONTINUOUS
10
126.675
20
-200.075
11
126.675
21
-200.074
0
LINE
8
BLACK
6
CONTINUOUS
10
126.675
20
-200.074
11
126.675
21
-200.074
0
LINE
8
BLACK
6
CONTINUOUS
10
126.675
20
-200.074
11
126.675
21
-200.072
0
LINE
8
BLACK
6
CONTINUOUS
10
126.675
20
-200.072
11
126.675
21
-200.07
0
LINE
8
BLACK
6
CONTINUOUS
10
126.675
20
-200.07
11
126.675
21
-200.07
0
LINE
8
BLACK
6
CONTINUOUS
10
126.675
20
-200.07
11
126.675
21
-200.07
0
LINE
8
BLACK
6
CONTINUOUS
10
126.675
20
-200.07
11
126.675
21
-200.067
0
LINE
8
BLACK
6
CONTINUOUS
10
126.675
20
-200.067
11
126.675
21
-200.065
0
LINE
8
BLACK
6
CONTINUOUS
10
126.675
20
-200.065
11
126.675
21
-200.065
0
LINE
8
BLACK
6
CONTINUOUS
10
126.675
20
-200.065
11
126.675
21
-200.065
0
LINE
8
BLACK
6
CONTINUOUS
10
126.675
20
-200.065
11
126.676
21
-200.062
0
LINE
8
BLACK
6
CONTINUOUS
10
126.676
20
-200.062
11
126.677
21
-200.06
0
LINE
8
BLACK
6
CONTINUOUS
10
126.677
20
-200.06
11
126.677
21
-200.06
0
LINE
8
BLACK
6
CONTINUOUS
10
126.677
20
-200.06
11
126.677
21
-200.06
0
LINE
8
BLACK
6
CONTINUOUS
10
126.677
20
-200.06
11
126.678
21
-200.058
0
LINE
8
BLACK
6
CONTINUOUS
10
126.678
20
-200.058
11
126.679
21
-200.056
0
LINE
8
BLACK
6
CONTINUOUS
10
126.679
20
-200.056
11
126.679
21
-200.056
0
LINE
8
BLACK
6
CONTINUOUS
10
126.679
20
-200.056
11
126.679
21
-200.056
0
LINE
8
BLACK
6
CONTINUOUS
10
126.679
20
-200.056
11
126.681
21
-200.054
0
LINE
8
BLACK
6
CONTINUOUS
10
126.681
20
-200.054
11
126.682
21
-200.052
0
LINE
8
BLACK
6
CONTINUOUS
10
126.682
20
-200.052
11
126.682
21
-200.052
0
LINE
8
BLACK
6
CONTINUOUS
10
126.682
20
-200.052
11
126.682
21
-200.052
0
LINE
8
BLACK
6
CONTINUOUS
10
126.682
20
-200.052
11
126.684
21
-200.05
0
LINE
8
BLACK
6
CONTINUOUS
10
126.684
20
-200.05
11
126.686
21
-200.049
0
LINE
8
BLACK
6
CONTINUOUS
10
126.686
20
-200.049
11
126.687
21
-200.048
0
LINE
8
BLACK
6
CONTINUOUS
10
126.687
20
-200.048
11
139.749
21
-191.508
0
LINE
8
BLACK
6
CONTINUOUS
10
139.749
20
-191.508
11
139.75
21
-191.507
0
LINE
8
BLACK
6
CONTINUOUS
10
139.75
20
-191.507
11
139.752
21
-191.506
0
LINE
8
BLACK
6
CONTINUOUS
10
139.752
20
-191.506
11
139.754
21
-191.505
0
LINE
8
BLACK
6
CONTINUOUS
10
139.754
20
-191.505
11
139.756
21
-191.505
0
LINE
8
BLACK
6
CONTINUOUS
10
139.756
20
-191.505
11
157.469
21
-184.889
0
LINE
8
BLACK
6
CONTINUOUS
10
157.469
20
-184.889
11
157.469
21
-184.889
0
LINE
8
BLACK
6
CONTINUOUS
10
157.469
20
-184.889
11
157.471
21
-184.889
0
LINE
8
BLACK
6
CONTINUOUS
10
157.471
20
-184.889
11
157.472
21
-184.888
0
LINE
8
BLACK
6
CONTINUOUS
10
157.472
20
-184.888
11
157.472
21
-184.888
0
LINE
8
BLACK
6
CONTINUOUS
10
157.472
20
-184.888
11
157.474
21
-184.888
0
LINE
8
BLACK
6
CONTINUOUS
10
157.474
20
-184.888
11
157.475
21
-184.888
0
LINE
8
BLACK
6
CONTINUOUS
10
157.475
20
-184.888
11
157.476
21
-184.887
0
LINE
8
BLACK
6
CONTINUOUS
10
157.476
20
-184.887
11
157.477
21
-184.887
0
LINE
8
BLACK
6
CONTINUOUS
10
157.477
20
-184.887
11
157.477
21
-184.887
0
LINE
8
BLACK
6
CONTINUOUS
10
157.477
20
-184.887
11
157.479
21
-184.887
0
LINE
8
BLACK
6
CONTINUOUS
10
157.479
20
-184.887
11
157.481
21
-184.887
0
LINE
8
BLACK
6
CONTINUOUS
10
157.481
20
-184.887
11
157.481
21
-184.887
0
LINE
8
BLACK
6
CONTINUOUS
10
157.481
20
-184.887
11
175.512
21
-183.808
0
LINE
8
BLACK
6
CONTINUOUS
10
175.512
20
-183.808
11
175.513
21
-183.808
0
LINE
8
BLACK
6
CONTINUOUS
10
175.513
20
-183.808
11
175.513
21
-183.808
0
LINE
8
BLACK
6
CONTINUOUS
10
175.513
20
-183.808
11
175.514
21
-183.807
0
LINE
8
BLACK
6
CONTINUOUS
10
175.514
20
-183.807
11
175.514
21
-183.808
0
LINE
8
BLACK
6
CONTINUOUS
10
175.514
20
-183.808
11
183.052
21
-183.808
0
LINE
8
BLACK
6
CONTINUOUS
10
183.052
20
-183.808
11
183.053
21
-183.807
0
LINE
8
BLACK
6
CONTINUOUS
10
183.053
20
-183.807
11
183.055
21
-183.808
0
LINE
8
BLACK
6
CONTINUOUS
10
183.055
20
-183.808
11
183.058
21
-183.808
0
LINE
8
BLACK
6
CONTINUOUS
10
183.058
20
-183.808
11
183.063
21
-183.809
0
LINE
8
BLACK
6
CONTINUOUS
10
183.063
20
-183.809
11
183.067
21
-183.812
0
LINE
8
BLACK
6
CONTINUOUS
10
183.067
20
-183.812
11
183.071
21
-183.815
0
LINE
8
BLACK
6
CONTINUOUS
10
183.071
20
-183.815
11
183.074
21
-183.819
0
LINE
8
BLACK
6
CONTINUOUS
10
183.074
20
-183.819
11
183.077
21
-183.823
0
LINE
8
BLACK
6
CONTINUOUS
10
183.077
20
-183.823
11
183.078
21
-183.828
0
LINE
8
BLACK
6
CONTINUOUS
10
183.078
20
-183.828
11
183.079
21
-183.832
0
LINE
8
BLACK
6
CONTINUOUS
10
183.079
20
-183.832
11
183.078
21
-183.834
0
LINE
8
BLACK
6
CONTINUOUS
10
183.078
20
-183.834
11
183.078
21
-186.185
0
LINE
8
BLACK
6
CONTINUOUS
10
183.078
20
-186.185
11
183.079
21
-186.222
0
LINE
8
BLACK
6
CONTINUOUS
10
183.079
20
-186.222
11
183.138
21
-186.752
0
LINE
8
BLACK
6
CONTINUOUS
10
183.138
20
-186.752
11
183.299
21
-187.258
0
LINE
8
BLACK
6
CONTINUOUS
10
183.299
20
-187.258
11
183.555
21
-187.724
0
LINE
8
BLACK
6
CONTINUOUS
10
183.555
20
-187.724
11
183.897
21
-188.132
0
LINE
8
BLACK
6
CONTINUOUS
10
183.897
20
-188.132
11
184.311
21
-188.465
0
LINE
8
BLACK
6
CONTINUOUS
10
184.311
20
-188.465
11
184.783
21
-188.711
0
LINE
8
BLACK
6
CONTINUOUS
10
184.783
20
-188.711
11
185.293
21
-188.862
0
LINE
8
BLACK
6
CONTINUOUS
10
185.293
20
-188.862
11
185.823
21
-188.91
0
LINE
8
BLACK
6
CONTINUOUS
10
185.823
20
-188.91
11
186.351
21
-188.854
0
LINE
8
BLACK
6
CONTINUOUS
10
186.351
20
-188.854
11
186.859
21
-188.697
0
LINE
8
BLACK
6
CONTINUOUS
10
186.859
20
-188.697
11
187.327
21
-188.444
0
LINE
8
BLACK
6
CONTINUOUS
10
187.327
20
-188.444
11
187.737
21
-188.105
0
LINE
8
BLACK
6
CONTINUOUS
10
187.737
20
-188.105
11
188.073
21
-187.693
0
LINE
8
BLACK
6
CONTINUOUS
10
188.073
20
-187.693
11
188.323
21
-187.223
0
LINE
8
BLACK
6
CONTINUOUS
10
188.323
20
-187.223
11
188.476
21
-186.714
0
LINE
8
BLACK
6
CONTINUOUS
10
188.476
20
-186.714
11
188.528
21
-186.184
0
LINE
8
BLACK
6
CONTINUOUS
10
188.528
20
-186.184
11
188.529
21
-183.834
0
LINE
8
BLACK
6
CONTINUOUS
10
188.529
20
-183.834
11
188.528
21
-183.832
0
LINE
8
BLACK
6
CONTINUOUS
10
188.528
20
-183.832
11
188.529
21
-183.828
0
LINE
8
BLACK
6
CONTINUOUS
10
188.529
20
-183.828
11
188.53
21
-183.823
0
LINE
8
BLACK
6
CONTINUOUS
10
188.53
20
-183.823
11
188.533
21
-183.819
0
LINE
8
BLACK
6
CONTINUOUS
10
188.533
20
-183.819
11
188.536
21
-183.815
0
LINE
8
BLACK
6
CONTINUOUS
10
188.536
20
-183.815
11
188.54
21
-183.812
0
LINE
8
BLACK
6
CONTINUOUS
10
188.54
20
-183.812
11
188.544
21
-183.809
0
LINE
8
BLACK
6
CONTINUOUS
10
188.544
20
-183.809
11
188.549
21
-183.808
0
LINE
8
BLACK
6
CONTINUOUS
10
188.549
20
-183.808
11
188.552
21
-183.808
0
LINE
8
BLACK
6
CONTINUOUS
10
188.552
20
-183.808
11
188.552
21
-183.808
0
LINE
8
BLACK
6
CONTINUOUS
10
188.552
20
-183.808
11
188.553
21
-183.807
0
LINE
8
BLACK
6
CONTINUOUS
10
188.553
20
-183.807
11
188.555
21
-183.808
0
LINE
8
BLACK
6
CONTINUOUS
10
188.555
20
-183.808
11
192.025
21
-183.808
0
LINE
8
BLACK
6
CONTINUOUS
10
192.025
20
-183.808
11
192.026
21
-183.808
0
LINE
8
BLACK
6
CONTINUOUS
10
192.026
20
-183.808
11
192.026
21
-183.808
0
LINE
8
BLACK
6
CONTINUOUS
10
192.026
20
-183.808
11
192.298
21
-183.834
0
LINE
8
BLACK
6
CONTINUOUS
10
192.298
20
-183.834
11
192.298
21
-183.834
0
LINE
8
BLACK
6
CONTINUOUS
10
192.298
20
-183.834
11
192.3
21
-183.835
0
LINE
8
BLACK
6
CONTINUOUS
10
192.3
20
-183.835
11
192.303
21
-183.835
0
LINE
8
BLACK
6
CONTINUOUS
10
192.303
20
-183.835
11
192.564
21
-183.914
0
LINE
8
BLACK
6
CONTINUOUS
10
192.564
20
-183.914
11
192.564
21
-183.914
0
LINE
8
BLACK
6
CONTINUOUS
10
192.564
20
-183.914
11
192.566
21
-183.915
0
LINE
8
BLACK
6
CONTINUOUS
10
192.566
20
-183.915
11
192.568
21
-183.916
0
LINE
8
BLACK
6
CONTINUOUS
10
192.568
20
-183.916
11
192.809
21
-184.044
0
LINE
8
BLACK
6
CONTINUOUS
10
192.809
20
-184.044
11
192.809
21
-184.044
0
LINE
8
BLACK
6
CONTINUOUS
10
192.809
20
-184.044
11
192.811
21
-184.045
0
LINE
8
BLACK
6
CONTINUOUS
10
192.811
20
-184.045
11
192.813
21
-184.047
0
LINE
8
BLACK
6
CONTINUOUS
10
192.813
20
-184.047
11
193.024
21
-184.219
0
LINE
8
BLACK
6
CONTINUOUS
10
193.024
20
-184.219
11
193.024
21
-184.219
0
LINE
8
BLACK
6
CONTINUOUS
10
193.024
20
-184.219
11
193.024
21
-184.219
0
LINE
8
BLACK
6
CONTINUOUS
10
193.024
20
-184.219
11
193.024
21
-184.219
0
LINE
8
BLACK
6
CONTINUOUS
10
193.024
20
-184.219
11
193.026
21
-184.221
0
LINE
8
BLACK
6
CONTINUOUS
10
193.026
20
-184.221
11
193.028
21
-184.222
0
LINE
8
BLACK
6
CONTINUOUS
10
193.028
20
-184.222
11
193.201
21
-184.432
0
LINE
8
BLACK
6
CONTINUOUS
10
193.201
20
-184.432
11
193.202
21
-184.433
0
LINE
8
BLACK
6
CONTINUOUS
10
193.202
20
-184.433
11
193.203
21
-184.435
0
LINE
8
BLACK
6
CONTINUOUS
10
193.203
20
-184.435
11
193.204
21
-184.436
0
LINE
8
BLACK
6
CONTINUOUS
10
193.204
20
-184.436
11
193.334
21
-184.676
0
LINE
8
BLACK
6
CONTINUOUS
10
193.334
20
-184.676
11
193.334
21
-184.676
0
LINE
8
BLACK
6
CONTINUOUS
10
193.334
20
-184.676
11
193.334
21
-184.676
0
LINE
8
BLACK
6
CONTINUOUS
10
193.334
20
-184.676
11
193.334
21
-184.677
0
LINE
8
BLACK
6
CONTINUOUS
10
193.334
20
-184.677
11
193.335
21
-184.679
0
LINE
8
BLACK
6
CONTINUOUS
10
193.335
20
-184.679
11
193.336
21
-184.681
0
LINE
8
BLACK
6
CONTINUOUS
10
193.336
20
-184.681
11
193.416
21
-184.941
0
LINE
8
BLACK
6
CONTINUOUS
10
193.416
20
-184.941
11
193.416
21
-184.942
0
LINE
8
BLACK
6
CONTINUOUS
10
193.416
20
-184.942
11
193.417
21
-184.944
0
LINE
8
BLACK
6
CONTINUOUS
10
193.417
20
-184.944
11
193.417
21
-184.946
0
LINE
8
BLACK
6
CONTINUOUS
10
193.417
20
-184.946
11
193.446
21
-185.217
0
LINE
8
BLACK
6
CONTINUOUS
10
193.446
20
-185.217
11
193.446
21
-185.217
0
LINE
8
BLACK
6
CONTINUOUS
10
193.446
20
-185.217
11
193.446
21
-185.219
0
LINE
8
BLACK
6
CONTINUOUS
10
193.446
20
-185.219
11
193.446
21
-185.22
0
LINE
8
BLACK
6
CONTINUOUS
10
193.446
20
-185.22
11
193.446
21
-185.228
0
LINE
8
BLACK
6
CONTINUOUS
10
193.446
20
-185.228
11
193.446
21
-185.228
0
LINE
8
BLACK
6
CONTINUOUS
10
193.446
20
-185.228
11
193.446
21
-187.198
0
LINE
8
BLACK
6
CONTINUOUS
10
193.446
20
-187.198
11
193.446
21
-187.206
0
LINE
8
BLACK
6
CONTINUOUS
10
193.446
20
-187.206
11
193.474
21
-187.474
0
LINE
8
BLACK
6
CONTINUOUS
10
193.474
20
-187.474
11
193.553
21
-187.73
0
LINE
8
BLACK
6
CONTINUOUS
10
193.553
20
-187.73
11
193.681
21
-187.965
0
LINE
8
BLACK
6
CONTINUOUS
10
193.681
20
-187.965
11
193.851
21
-188.171
0
LINE
8
BLACK
6
CONTINUOUS
10
193.851
20
-188.171
11
194.059
21
-188.341
0
LINE
8
BLACK
6
CONTINUOUS
10
194.059
20
-188.341
11
194.295
21
-188.466
0
LINE
8
BLACK
6
CONTINUOUS
10
194.295
20
-188.466
11
194.552
21
-188.544
0
LINE
8
BLACK
6
CONTINUOUS
10
194.552
20
-188.544
11
194.819
21
-188.57
0
LINE
8
BLACK
6
CONTINUOUS
10
194.819
20
-188.57
11
241.617
21
-188.57
0
LINE
8
BLACK
6
CONTINUOUS
10
241.617
20
-188.57
11
241.626
21
-188.57
0
LINE
8
BLACK
6
CONTINUOUS
10
241.626
20
-188.57
11
241.893
21
-188.542
0
LINE
8
BLACK
6
CONTINUOUS
10
241.893
20
-188.542
11
242.149
21
-188.463
0
LINE
8
BLACK
6
CONTINUOUS
10
242.149
20
-188.463
11
242.385
21
-188.335
0
LINE
8
BLACK
6
CONTINUOUS
10
242.385
20
-188.335
11
242.591
21
-188.165
0
LINE
8
BLACK
6
CONTINUOUS
10
242.591
20
-188.165
11
242.76
21
-187.957
0
LINE
8
BLACK
6
CONTINUOUS
10
242.76
20
-187.957
11
242.886
21
-187.721
0
LINE
8
BLACK
6
CONTINUOUS
10
242.886
20
-187.721
11
242.963
21
-187.464
0
LINE
8
BLACK
6
CONTINUOUS
10
242.963
20
-187.464
11
242.99
21
-187.197
0
LINE
8
BLACK
6
CONTINUOUS
10
242.99
20
-187.197
11
242.989
21
-171.786
0
LINE
8
BLACK
6
CONTINUOUS
10
242.989
20
-171.786
11
242.989
21
-171.785
0
LINE
8
BLACK
6
CONTINUOUS
10
242.989
20
-171.785
11
242.99
21
-171.78
0
LINE
8
BLACK
6
CONTINUOUS
10
242.99
20
-171.78
11
242.991
21
-171.775
0
LINE
8
BLACK
6
CONTINUOUS
10
242.991
20
-171.775
11
242.994
21
-171.771
0
LINE
8
BLACK
6
CONTINUOUS
10
242.994
20
-171.771
11
242.997
21
-171.767
0
LINE
8
BLACK
6
CONTINUOUS
10
242.997
20
-171.767
11
243.001
21
-171.764
0
LINE
8
BLACK
6
CONTINUOUS
10
243.001
20
-171.764
11
243.005
21
-171.762
0
LINE
8
BLACK
6
CONTINUOUS
10
243.005
20
-171.762
11
243.01
21
-171.76
0
LINE
8
BLACK
6
CONTINUOUS
10
243.01
20
-171.76
11
243.013
21
-171.76
0
LINE
8
BLACK
6
CONTINUOUS
10
243.013
20
-171.76
11
243.014
21
-171.76
0
LINE
8
BLACK
6
CONTINUOUS
10
243.014
20
-171.76
11
243.016
21
-171.76
0
LINE
8
BLACK
6
CONTINUOUS
10
243.016
20
-171.76
11
245.379
21
-171.76
0
LINE
8
BLACK
6
CONTINUOUS
10
245.379
20
-171.76
11
245.423
21
-171.76
0
LINE
8
BLACK
6
CONTINUOUS
10
245.423
20
-171.76
11
246.049
21
-171.689
0
LINE
8
BLACK
6
CONTINUOUS
10
246.049
20
-171.689
11
246.649
21
-171.499
0
LINE
8
BLACK
6
CONTINUOUS
10
246.649
20
-171.499
11
247.201
21
-171.196
0
LINE
8
BLACK
6
CONTINUOUS
10
247.201
20
-171.196
11
247.683
21
-170.791
0
LINE
8
BLACK
6
CONTINUOUS
10
247.683
20
-170.791
11
248.077
21
-170.301
0
LINE
8
BLACK
6
CONTINUOUS
10
248.077
20
-170.301
11
248.369
21
-169.743
0
LINE
8
BLACK
6
CONTINUOUS
10
248.369
20
-169.743
11
248.547
21
-169.139
0
LINE
8
BLACK
6
CONTINUOUS
10
248.547
20
-169.139
11
248.604
21
-168.512
0
LINE
8
BLACK
6
CONTINUOUS
10
248.604
20
-168.512
11
248.538
21
-167.887
0
LINE
8
BLACK
6
CONTINUOUS
10
248.538
20
-167.887
11
248.352
21
-167.285
0
LINE
8
BLACK
6
CONTINUOUS
10
248.352
20
-167.285
11
248.053
21
-166.732
0
LINE
8
BLACK
6
CONTINUOUS
10
248.053
20
-166.732
11
247.651
21
-166.247
0
LINE
8
BLACK
6
CONTINUOUS
10
247.651
20
-166.247
11
247.164
21
-165.849
0
LINE
8
BLACK
6
CONTINUOUS
10
247.164
20
-165.849
11
246.608
21
-165.553
0
LINE
8
BLACK
6
CONTINUOUS
10
246.608
20
-165.553
11
246.005
21
-165.372
0
LINE
8
BLACK
6
CONTINUOUS
10
246.005
20
-165.372
11
245.378
21
-165.31
0
LINE
8
BLACK
6
CONTINUOUS
10
245.378
20
-165.31
11
243.016
21
-165.31
0
LINE
8
BLACK
6
CONTINUOUS
10
243.016
20
-165.31
11
243.014
21
-165.31
0
LINE
8
BLACK
6
CONTINUOUS
10
243.014
20
-165.31
11
243.012
21
-165.31
0
LINE
8
BLACK
6
CONTINUOUS
10
243.012
20
-165.31
11
243.01
21
-165.31
0
LINE
8
BLACK
6
CONTINUOUS
10
243.01
20
-165.31
11
243.005
21
-165.308
0
LINE
8
BLACK
6
CONTINUOUS
10
243.005
20
-165.308
11
243.001
21
-165.306
0
LINE
8
BLACK
6
CONTINUOUS
10
243.001
20
-165.306
11
242.997
21
-165.303
0
LINE
8
BLACK
6
CONTINUOUS
10
242.997
20
-165.303
11
242.994
21
-165.299
0
LINE
8
BLACK
6
CONTINUOUS
10
242.994
20
-165.299
11
242.991
21
-165.295
0
LINE
8
BLACK
6
CONTINUOUS
10
242.991
20
-165.295
11
242.99
21
-165.29
0
LINE
8
BLACK
6
CONTINUOUS
10
242.99
20
-165.29
11
242.989
21
-165.285
0
LINE
8
BLACK
6
CONTINUOUS
10
242.989
20
-165.285
11
242.989
21
-165.284
0
LINE
8
BLACK
6
CONTINUOUS
10
242.989
20
-165.284
11
242.99
21
-92.4561
0
LINE
8
BLACK
6
CONTINUOUS
10
242.99
20
-92.4561
11
242.989
21
-92.4561
0
LINE
8
BLACK
6
CONTINUOUS
10
242.989
20
-92.4561
11
242.989
21
-92.4476
0
LINE
8
BLACK
6
CONTINUOUS
10
242.989
20
-92.4476
11
242.961
21
-92.1801
0
LINE
8
BLACK
6
CONTINUOUS
10
242.961
20
-92.1801
11
242.882
21
-91.9244
0
LINE
8
BLACK
6
CONTINUOUS
10
242.882
20
-91.9244
11
242.755
21
-91.6889
0
LINE
8
BLACK
6
CONTINUOUS
10
242.755
20
-91.6889
11
242.584
21
-91.4826
0
LINE
8
BLACK
6
CONTINUOUS
10
242.584
20
-91.4826
11
242.377
21
-91.3133
0
LINE
8
BLACK
6
CONTINUOUS
10
242.377
20
-91.3133
11
242.14
21
-91.1876
0
LINE
8
BLACK
6
CONTINUOUS
10
242.14
20
-91.1876
11
241.884
21
-91.1102
0
LINE
8
BLACK
6
CONTINUOUS
10
241.884
20
-91.1102
11
241.616
21
-91.084
0
LINE
8
BLACK
6
CONTINUOUS
10
241.616
20
-91.084
11
231.857
21
-91.084
0
LINE
8
BLACK
6
CONTINUOUS
10
231.857
20
-91.084
11
231.856
21
-91.0841
0
LINE
8
BLACK
6
CONTINUOUS
10
231.856
20
-91.0841
11
231.855
21
-91.084
0
LINE
8
BLACK
6
CONTINUOUS
10
231.855
20
-91.084
11
231.855
21
-91.084
0
LINE
8
BLACK
6
CONTINUOUS
10
231.855
20
-91.084
11
231.851
21
-91.0836
0
LINE
8
BLACK
6
CONTINUOUS
10
231.851
20
-91.0836
11
231.846
21
-91.0822
0
LINE
8
BLACK
6
CONTINUOUS
10
231.846
20
-91.0822
11
231.842
21
-91.0799
0
LINE
8
BLACK
6
CONTINUOUS
10
231.842
20
-91.0799
11
231.838
21
-91.0768
0
LINE
8
BLACK
6
CONTINUOUS
10
231.838
20
-91.0768
11
231.835
21
-91.073
0
LINE
8
BLACK
6
CONTINUOUS
10
231.835
20
-91.073
11
231.833
21
-91.0686
0
LINE
8
BLACK
6
CONTINUOUS
10
231.833
20
-91.0686
11
231.831
21
-91.0639
0
LINE
8
BLACK
6
CONTINUOUS
10
231.831
20
-91.0639
11
231.831
21
-91.059
0
LINE
8
BLACK
6
CONTINUOUS
10
231.831
20
-91.059
11
231.831
21
-91.0578
0
LINE
8
BLACK
6
CONTINUOUS
10
231.831
20
-91.0578
11
231.831
21
-88.8215
0
LINE
8
BLACK
6
CONTINUOUS
10
231.831
20
-88.8215
11
231.831
21
-88.7776
0
LINE
8
BLACK
6
CONTINUOUS
10
231.831
20
-88.7776
11
231.76
21
-88.151
0
LINE
8
BLACK
6
CONTINUOUS
10
231.76
20
-88.151
11
231.57
21
-87.5511
0
LINE
8
BLACK
6
CONTINUOUS
10
231.57
20
-87.5511
11
231.267
21
-86.9995
0
LINE
8
BLACK
6
CONTINUOUS
10
231.267
20
-86.9995
11
230.862
21
-86.5174
0
LINE
8
BLACK
6
CONTINUOUS
10
230.862
20
-86.5174
11
230.372
21
-86.123
0
LINE
8
BLACK
6
CONTINUOUS
10
230.372
20
-86.123
11
229.814
21
-85.8314
0
LINE
8
BLACK
6
CONTINUOUS
10
229.814
20
-85.8314
11
229.21
21
-85.6537
0
LINE
8
BLACK
6
CONTINUOUS
10
229.21
20
-85.6537
11
228.583
21
-85.5967
0
LINE
8
BLACK
6
CONTINUOUS
10
228.583
20
-85.5967
11
227.958
21
-85.6625
0
LINE
8
BLACK
6
CONTINUOUS
10
227.958
20
-85.6625
11
227.356
21
-85.8486
0
LINE
8
BLACK
6
CONTINUOUS
10
227.356
20
-85.8486
11
226.803
21
-86.148
0
LINE
8
BLACK
6
CONTINUOUS
10
226.803
20
-86.148
11
226.318
21
-86.5491
0
LINE
8
BLACK
6
CONTINUOUS
10
226.318
20
-86.5491
11
225.92
21
-87.0369
0
LINE
8
BLACK
6
CONTINUOUS
10
225.92
20
-87.0369
11
225.624
21
-87.5926
0
LINE
8
BLACK
6
CONTINUOUS
10
225.624
20
-87.5926
11
225.443
21
-88.1951
0
LINE
8
BLACK
6
CONTINUOUS
10
225.443
20
-88.1951
11
225.381
21
-88.8227
0
LINE
8
BLACK
6
CONTINUOUS
10
225.381
20
-88.8227
11
225.381
21
-91.0578
0
LINE
8
BLACK
6
CONTINUOUS
10
225.381
20
-91.0578
11
225.381
21
-91.059
0
LINE
8
BLACK
6
CONTINUOUS
10
225.381
20
-91.059
11
225.381
21
-91.0639
0
LINE
8
BLACK
6
CONTINUOUS
10
225.381
20
-91.0639
11
225.379
21
-91.0686
0
LINE
8
BLACK
6
CONTINUOUS
10
225.379
20
-91.0686
11
225.377
21
-91.073
0
LINE
8
BLACK
6
CONTINUOUS
10
225.377
20
-91.073
11
225.374
21
-91.0768
0
LINE
8
BLACK
6
CONTINUOUS
10
225.374
20
-91.0768
11
225.37
21
-91.0799
0
LINE
8
BLACK
6
CONTINUOUS
10
225.37
20
-91.0799
11
225.366
21
-91.0822
0
LINE
8
BLACK
6
CONTINUOUS
10
225.366
20
-91.0822
11
225.361
21
-91.0836
0
LINE
8
BLACK
6
CONTINUOUS
10
225.361
20
-91.0836
11
225.359
21
-91.0838
0
LINE
8
BLACK
6
CONTINUOUS
10
225.359
20
-91.0838
11
225.356
21
-91.0841
0
LINE
8
BLACK
6
CONTINUOUS
10
225.356
20
-91.0841
11
225.355
21
-91.084
0
LINE
8
BLACK
6
CONTINUOUS
10
225.355
20
-91.084
11
198.754
21
-91.084
0
LINE
8
BLACK
6
CONTINUOUS
10
198.754
20
-91.084
11
198.753
21
-91.0839
0
LINE
8
BLACK
6
CONTINUOUS
10
198.753
20
-91.0839
11
198.753
21
-91.0839
0
LINE
8
BLACK
6
CONTINUOUS
10
198.753
20
-91.0839
11
198.481
21
-91.0573
0
LINE
8
BLACK
6
CONTINUOUS
10
198.481
20
-91.0573
11
198.481
21
-91.0572
0
LINE
8
BLACK
6
CONTINUOUS
10
198.481
20
-91.0572
11
198.479
21
-91.0568
0
LINE
8
BLACK
6
CONTINUOUS
10
198.479
20
-91.0568
11
198.476
21
-91.0563
0
LINE
8
BLACK
6
CONTINUOUS
10
198.476
20
-91.0563
11
198.215
21
-90.9775
0
LINE
8
BLACK
6
CONTINUOUS
10
198.215
20
-90.9775
11
198.215
21
-90.9774
0
LINE
8
BLACK
6
CONTINUOUS
10
198.215
20
-90.9774
11
198.213
21
-90.9765
0
LINE
8
BLACK
6
CONTINUOUS
10
198.213
20
-90.9765
11
198.211
21
-90.9757
0
LINE
8
BLACK
6
CONTINUOUS
10
198.211
20
-90.9757
11
197.97
21
-90.8477
0
LINE
8
BLACK
6
CONTINUOUS
10
197.97
20
-90.8477
11
197.97
21
-90.8475
0
LINE
8
BLACK
6
CONTINUOUS
10
197.97
20
-90.8475
11
197.968
21
-90.8462
0
LINE
8
BLACK
6
CONTINUOUS
10
197.968
20
-90.8462
11
197.966
21
-90.845
0
LINE
8
BLACK
6
CONTINUOUS
10
197.966
20
-90.845
11
197.755
21
-90.6726
0
LINE
8
BLACK
6
CONTINUOUS
10
197.755
20
-90.6726
11
197.755
21
-90.6724
0
LINE
8
BLACK
6
CONTINUOUS
10
197.755
20
-90.6724
11
197.753
21
-90.6708
0
LINE
8
BLACK
6
CONTINUOUS
10
197.753
20
-90.6708
11
197.751
21
-90.6692
0
LINE
8
BLACK
6
CONTINUOUS
10
197.751
20
-90.6692
11
197.578
21
-90.4591
0
LINE
8
BLACK
6
CONTINUOUS
10
197.578
20
-90.4591
11
197.577
21
-90.4589
0
LINE
8
BLACK
6
CONTINUOUS
10
197.577
20
-90.4589
11
197.576
21
-90.457
0
LINE
8
BLACK
6
CONTINUOUS
10
197.576
20
-90.457
11
197.575
21
-90.4551
0
LINE
8
BLACK
6
CONTINUOUS
10
197.575
20
-90.4551
11
197.445
21
-90.2152
0
LINE
8
BLACK
6
CONTINUOUS
10
197.445
20
-90.2152
11
197.445
21
-90.2149
0
LINE
8
BLACK
6
CONTINUOUS
10
197.445
20
-90.2149
11
197.444
21
-90.2128
0
LINE
8
BLACK
6
CONTINUOUS
10
197.444
20
-90.2128
11
197.443
21
-90.2108
0
LINE
8
BLACK
6
CONTINUOUS
10
197.443
20
-90.2108
11
197.363
21
-89.9503
0
LINE
8
BLACK
6
CONTINUOUS
10
197.363
20
-89.9503
11
197.363
21
-89.95
0
LINE
8
BLACK
6
CONTINUOUS
10
197.363
20
-89.95
11
197.362
21
-89.9477
0
LINE
8
BLACK
6
CONTINUOUS
10
197.362
20
-89.9477
11
197.362
21
-89.9455
0
LINE
8
BLACK
6
CONTINUOUS
10
197.362
20
-89.9455
11
197.333
21
-89.6744
0
LINE
8
BLACK
6
CONTINUOUS
10
197.333
20
-89.6744
11
197.333
21
-89.674
0
LINE
8
BLACK
6
CONTINUOUS
10
197.333
20
-89.674
11
197.333
21
-89.6729
0
LINE
8
BLACK
6
CONTINUOUS
10
197.333
20
-89.6729
11
197.333
21
-89.6718
0
LINE
8
BLACK
6
CONTINUOUS
10
197.333
20
-89.6718
11
197.333
21
-89.6632
0
LINE
8
BLACK
6
CONTINUOUS
10
197.333
20
-89.6632
11
197.333
21
-89.6632
0
LINE
8
BLACK
6
CONTINUOUS
10
197.333
20
-89.6632
11
197.333
21
-89.6624
0
LINE
8
BLACK
6
CONTINUOUS
10
197.333
20
-89.6624
11
197.333
21
-89.6621
0
LINE
8
BLACK
6
CONTINUOUS
10
197.333
20
-89.6621
11
197.333
21
-89.6617
0
LINE
8
BLACK
6
CONTINUOUS
10
197.333
20
-89.6617
11
197.333
21
-87.6936
0
LINE
8
BLACK
6
CONTINUOUS
10
197.333
20
-87.6936
11
197.333
21
-87.6851
0
LINE
8
BLACK
6
CONTINUOUS
10
197.333
20
-87.6851
11
197.305
21
-87.4176
0
LINE
8
BLACK
6
CONTINUOUS
10
197.305
20
-87.4176
11
197.226
21
-87.1619
0
LINE
8
BLACK
6
CONTINUOUS
10
197.226
20
-87.1619
11
197.098
21
-86.9264
0
LINE
8
BLACK
6
CONTINUOUS
10
197.098
20
-86.9264
11
196.928
21
-86.7201
0
LINE
8
BLACK
6
CONTINUOUS
10
196.928
20
-86.7201
11
196.72
21
-86.5508
0
LINE
8
BLACK
6
CONTINUOUS
10
196.72
20
-86.5508
11
196.484
21
-86.4251
0
LINE
8
BLACK
6
CONTINUOUS
10
196.484
20
-86.4251
11
196.227
21
-86.3477
0
LINE
8
BLACK
6
CONTINUOUS
10
196.227
20
-86.3477
11
195.96
21
-86.3215
0
LINE
8
BLACK
6
CONTINUOUS
10
195.96
20
-86.3215
11
179.704
21
-86.3215
0
LINE
8
BLACK
6
CONTINUOUS
10
179.704
20
-86.3215
11
179.703
21
-86.3214
0
LINE
8
BLACK
6
CONTINUOUS
10
179.703
20
-86.3214
11
179.703
21
-86.3214
0
LINE
8
BLACK
6
CONTINUOUS
10
179.703
20
-86.3214
11
179.431
21
-86.2948
0
LINE
8
BLACK
6
CONTINUOUS
10
179.431
20
-86.2948
11
179.431
21
-86.2947
0
LINE
8
BLACK
6
CONTINUOUS
10
179.431
20
-86.2947
11
179.429
21
-86.2943
0
LINE
8
BLACK
6
CONTINUOUS
10
179.429
20
-86.2943
11
179.426
21
-86.2938
0
LINE
8
BLACK
6
CONTINUOUS
10
179.426
20
-86.2938
11
179.165
21
-86.215
0
LINE
8
BLACK
6
CONTINUOUS
10
179.165
20
-86.215
11
179.165
21
-86.2149
0
LINE
8
BLACK
6
CONTINUOUS
10
179.165
20
-86.2149
11
179.163
21
-86.214
0
LINE
8
BLACK
6
CONTINUOUS
10
179.163
20
-86.214
11
179.161
21
-86.2132
0
LINE
8
BLACK
6
CONTINUOUS
10
179.161
20
-86.2132
11
178.92
21
-86.0852
0
LINE
8
BLACK
6
CONTINUOUS
10
178.92
20
-86.0852
11
178.92
21
-86.085
0
LINE
8
BLACK
6
CONTINUOUS
10
178.92
20
-86.085
11
178.918
21
-86.0837
0
LINE
8
BLACK
6
CONTINUOUS
10
178.918
20
-86.0837
11
178.916
21
-86.0825
0
LINE
8
BLACK
6
CONTINUOUS
10
178.916
20
-86.0825
11
178.705
21
-85.9101
0
LINE
8
BLACK
6
CONTINUOUS
10
178.705
20
-85.9101
11
178.705
21
-85.9099
0
LINE
8
BLACK
6
CONTINUOUS
10
178.705
20
-85.9099
11
178.703
21
-85.9083
0
LINE
8
BLACK
6
CONTINUOUS
10
178.703
20
-85.9083
11
178.701
21
-85.9067
0
LINE
8
BLACK
6
CONTINUOUS
10
178.701
20
-85.9067
11
178.528
21
-85.6966
0
LINE
8
BLACK
6
CONTINUOUS
10
178.528
20
-85.6966
11
178.527
21
-85.6964
0
LINE
8
BLACK
6
CONTINUOUS
10
178.527
20
-85.6964
11
178.526
21
-85.6945
0
LINE
8
BLACK
6
CONTINUOUS
10
178.526
20
-85.6945
11
178.525
21
-85.6926
0
LINE
8
BLACK
6
CONTINUOUS
10
178.525
20
-85.6926
11
178.395
21
-85.4527
0
LINE
8
BLACK
6
CONTINUOUS
10
178.395
20
-85.4527
11
178.395
21
-85.4524
0
LINE
8
BLACK
6
CONTINUOUS
10
178.395
20
-85.4524
11
178.394
21
-85.4503
0
LINE
8
BLACK
6
CONTINUOUS
10
178.394
20
-85.4503
11
178.393
21
-85.4483
0
LINE
8
BLACK
6
CONTINUOUS
10
178.393
20
-85.4483
11
178.313
21
-85.1878
0
LINE
8
BLACK
6
CONTINUOUS
10
178.313
20
-85.1878
11
178.313
21
-85.1875
0
LINE
8
BLACK
6
CONTINUOUS
10
178.313
20
-85.1875
11
178.312
21
-85.1852
0
LINE
8
BLACK
6
CONTINUOUS
10
178.312
20
-85.1852
11
178.312
21
-85.183
0
LINE
8
BLACK
6
CONTINUOUS
10
178.312
20
-85.183
11
178.283
21
-84.9119
0
LINE
8
BLACK
6
CONTINUOUS
10
178.283
20
-84.9119
11
178.283
21
-84.9115
0
LINE
8
BLACK
6
CONTINUOUS
10
178.283
20
-84.9115
11
178.283
21
-84.9104
0
LINE
8
BLACK
6
CONTINUOUS
10
178.283
20
-84.9104
11
178.283
21
-84.9093
0
LINE
8
BLACK
6
CONTINUOUS
10
178.283
20
-84.9093
11
178.283
21
-84.9007
0
LINE
8
BLACK
6
CONTINUOUS
10
178.283
20
-84.9007
11
178.283
21
-84.9007
0
LINE
8
BLACK
6
CONTINUOUS
10
178.283
20
-84.9007
11
178.283
21
-84.8999
0
LINE
8
BLACK
6
CONTINUOUS
10
178.283
20
-84.8999
11
178.283
21
-84.8996
0
LINE
8
BLACK
6
CONTINUOUS
10
178.283
20
-84.8996
11
178.283
21
-84.8992
0
LINE
8
BLACK
6
CONTINUOUS
10
178.283
20
-84.8992
11
178.283
21
-84.5186
0
LINE
8
BLACK
6
CONTINUOUS
10
178.283
20
-84.5186
11
178.283
21
-84.5159
0
LINE
8
BLACK
6
CONTINUOUS
10
178.283
20
-84.5159
11
178.272
21
-84.4086
0
LINE
8
BLACK
6
CONTINUOUS
10
178.272
20
-84.4086
11
178.24
21
-84.3068
0
LINE
8
BLACK
6
CONTINUOUS
10
178.24
20
-84.3068
11
178.189
21
-84.213
0
LINE
8
BLACK
6
CONTINUOUS
10
178.189
20
-84.213
11
178.121
21
-84.1308
0
LINE
8
BLACK
6
CONTINUOUS
10
178.121
20
-84.1308
11
178.039
21
-84.0634
0
LINE
8
BLACK
6
CONTINUOUS
10
178.039
20
-84.0634
11
177.945
21
-84.0133
0
LINE
8
BLACK
6
CONTINUOUS
10
177.945
20
-84.0133
11
177.843
21
-83.9825
0
LINE
8
BLACK
6
CONTINUOUS
10
177.843
20
-83.9825
11
177.735
21
-83.972
0
LINE
8
BLACK
6
CONTINUOUS
10
177.735
20
-83.972
11
155.893
21
-83.972
0
LINE
8
BLACK
6
CONTINUOUS
10
155.893
20
-83.972
11
155.89
21
-83.972
0
LINE
8
BLACK
6
CONTINUOUS
10
155.89
20
-83.972
11
155.783
21
-83.9833
0
LINE
8
BLACK
6
CONTINUOUS
10
155.783
20
-83.9833
11
155.681
21
-84.0148
0
LINE
8
BLACK
6
CONTINUOUS
10
155.681
20
-84.0148
11
155.587
21
-84.0655
0
LINE
8
BLACK
6
CONTINUOUS
10
155.587
20
-84.0655
11
155.505
21
-84.1335
0
LINE
8
BLACK
6
CONTINUOUS
10
155.505
20
-84.1335
11
155.437
21
-84.2161
0
LINE
8
BLACK
6
CONTINUOUS
10
155.437
20
-84.2161
11
155.387
21
-84.3103
0
LINE
8
BLACK
6
CONTINUOUS
10
155.387
20
-84.3103
11
155.357
21
-84.4124
0
LINE
8
BLACK
6
CONTINUOUS
10
155.357
20
-84.4124
11
155.346
21
-84.5197
0
LINE
8
BLACK
6
CONTINUOUS
10
155.346
20
-84.5197
11
155.346
21
-84.8372
0
LINE
8
BLACK
6
CONTINUOUS
10
155.346
20
-84.8372
11
155.346
21
-84.8384
0
LINE
8
BLACK
6
CONTINUOUS
10
155.346
20
-84.8384
11
155.346
21
-84.8384
0
LINE
8
BLACK
6
CONTINUOUS
10
155.346
20
-84.8384
11
155.319
21
-85.1098
0
LINE
8
BLACK
6
CONTINUOUS
10
155.319
20
-85.1098
11
155.319
21
-85.1101
0
LINE
8
BLACK
6
CONTINUOUS
10
155.319
20
-85.1101
11
155.319
21
-85.1124
0
LINE
8
BLACK
6
CONTINUOUS
10
155.319
20
-85.1124
11
155.318
21
-85.1146
0
LINE
8
BLACK
6
CONTINUOUS
10
155.318
20
-85.1146
11
155.24
21
-85.3756
0
LINE
8
BLACK
6
CONTINUOUS
10
155.24
20
-85.3756
11
155.239
21
-85.3759
0
LINE
8
BLACK
6
CONTINUOUS
10
155.239
20
-85.3759
11
155.239
21
-85.378
0
LINE
8
BLACK
6
CONTINUOUS
10
155.239
20
-85.378
11
155.238
21
-85.3801
0
LINE
8
BLACK
6
CONTINUOUS
10
155.238
20
-85.3801
11
155.11
21
-85.6208
0
LINE
8
BLACK
6
CONTINUOUS
10
155.11
20
-85.6208
11
155.109
21
-85.6211
0
LINE
8
BLACK
6
CONTINUOUS
10
155.109
20
-85.6211
11
155.108
21
-85.623
0
LINE
8
BLACK
6
CONTINUOUS
10
155.108
20
-85.623
11
155.107
21
-85.6249
0
LINE
8
BLACK
6
CONTINUOUS
10
155.107
20
-85.6249
11
154.935
21
-85.8362
0
LINE
8
BLACK
6
CONTINUOUS
10
154.935
20
-85.8362
11
154.934
21
-85.8364
0
LINE
8
BLACK
6
CONTINUOUS
10
154.934
20
-85.8364
11
154.933
21
-85.8381
0
LINE
8
BLACK
6
CONTINUOUS
10
154.933
20
-85.8381
11
154.931
21
-85.8396
0
LINE
8
BLACK
6
CONTINUOUS
10
154.931
20
-85.8396
11
154.721
21
-86.0134
0
LINE
8
BLACK
6
CONTINUOUS
10
154.721
20
-86.0134
11
154.721
21
-86.0136
0
LINE
8
BLACK
6
CONTINUOUS
10
154.721
20
-86.0136
11
154.719
21
-86.0149
0
LINE
8
BLACK
6
CONTINUOUS
10
154.719
20
-86.0149
11
154.717
21
-86.0162
0
LINE
8
BLACK
6
CONTINUOUS
10
154.717
20
-86.0162
11
154.477
21
-86.1458
0
LINE
8
BLACK
6
CONTINUOUS
10
154.477
20
-86.1458
11
154.477
21
-86.146
0
LINE
8
BLACK
6
CONTINUOUS
10
154.477
20
-86.146
11
154.475
21
-86.1469
0
LINE
8
BLACK
6
CONTINUOUS
10
154.475
20
-86.1469
11
154.473
21
-86.1477
0
LINE
8
BLACK
6
CONTINUOUS
10
154.473
20
-86.1477
11
154.212
21
-86.2283
0
LINE
8
BLACK
6
CONTINUOUS
10
154.212
20
-86.2283
11
154.212
21
-86.2284
0
LINE
8
BLACK
6
CONTINUOUS
10
154.212
20
-86.2284
11
154.21
21
-86.2289
0
LINE
8
BLACK
6
CONTINUOUS
10
154.21
20
-86.2289
11
154.208
21
-86.2293
0
LINE
8
BLACK
6
CONTINUOUS
10
154.208
20
-86.2293
11
153.936
21
-86.2578
0
LINE
8
BLACK
6
CONTINUOUS
10
153.936
20
-86.2578
11
153.936
21
-86.2579
0
LINE
8
BLACK
6
CONTINUOUS
10
153.936
20
-86.2579
11
153.935
21
-86.2579
0
LINE
8
BLACK
6
CONTINUOUS
10
153.935
20
-86.2579
11
153.934
21
-86.258
0
LINE
8
BLACK
6
CONTINUOUS
10
153.934
20
-86.258
11
153.925
21
-86.258
0
LINE
8
BLACK
6
CONTINUOUS
10
153.925
20
-86.258
11
153.925
21
-86.258
0
LINE
8
BLACK
6
CONTINUOUS
10
153.925
20
-86.258
11
136.843
21
-86.258
0
LINE
8
BLACK
6
CONTINUOUS
10
136.843
20
-86.258
11
136.84
21
-86.258
0
LINE
8
BLACK
6
CONTINUOUS
10
124.061
20
-203.347
11
124.177
21
-203.067
0
LINE
8
BLACK
6
CONTINUOUS
10
124.177
20
-203.067
11
124.345
21
-202.815
0
LINE
8
BLACK
6
CONTINUOUS
10
124.345
20
-202.815
11
124.559
21
-202.601
0
LINE
8
BLACK
6
CONTINUOUS
10
124.559
20
-202.601
11
124.811
21
-202.433
0
LINE
8
BLACK
6
CONTINUOUS
10
124.811
20
-202.433
11
125.091
21
-202.317
0
LINE
8
BLACK
6
CONTINUOUS
10
125.091
20
-202.317
11
125.388
21
-202.258
0
LINE
8
BLACK
6
CONTINUOUS
10
125.388
20
-202.258
11
125.691
21
-202.258
0
LINE
8
BLACK
6
CONTINUOUS
10
125.691
20
-202.258
11
125.988
21
-202.317
0
LINE
8
BLACK
6
CONTINUOUS
10
125.988
20
-202.317
11
126.268
21
-202.433
0
LINE
8
BLACK
6
CONTINUOUS
10
126.268
20
-202.433
11
126.52
21
-202.601
0
LINE
8
BLACK
6
CONTINUOUS
10
126.52
20
-202.601
11
126.734
21
-202.815
0
LINE
8
BLACK
6
CONTINUOUS
10
126.734
20
-202.815
11
126.902
21
-203.067
0
LINE
8
BLACK
6
CONTINUOUS
10
126.902
20
-203.067
11
127.018
21
-203.347
0
LINE
8
BLACK
6
CONTINUOUS
10
127.018
20
-203.347
11
127.077
21
-203.644
0
LINE
8
BLACK
6
CONTINUOUS
10
127.077
20
-203.644
11
127.077
21
-203.947
0
LINE
8
BLACK
6
CONTINUOUS
10
127.077
20
-203.947
11
127.018
21
-204.244
0
LINE
8
BLACK
6
CONTINUOUS
10
127.018
20
-204.244
11
126.902
21
-204.524
0
LINE
8
BLACK
6
CONTINUOUS
10
126.902
20
-204.524
11
126.734
21
-204.776
0
LINE
8
BLACK
6
CONTINUOUS
10
126.734
20
-204.776
11
126.52
21
-204.99
0
LINE
8
BLACK
6
CONTINUOUS
10
126.52
20
-204.99
11
126.268
21
-205.158
0
LINE
8
BLACK
6
CONTINUOUS
10
126.268
20
-205.158
11
125.988
21
-205.274
0
LINE
8
BLACK
6
CONTINUOUS
10
125.988
20
-205.274
11
125.691
21
-205.333
0
LINE
8
BLACK
6
CONTINUOUS
10
125.691
20
-205.333
11
125.388
21
-205.333
0
LINE
8
BLACK
6
CONTINUOUS
10
125.388
20
-205.333
11
125.091
21
-205.274
0
LINE
8
BLACK
6
CONTINUOUS
10
125.091
20
-205.274
11
124.811
21
-205.158
0
LINE
8
BLACK
6
CONTINUOUS
10
124.811
20
-205.158
11
124.559
21
-204.99
0
LINE
8
BLACK
6
CONTINUOUS
10
124.559
20
-204.99
11
124.345
21
-204.776
0
LINE
8
BLACK
6
CONTINUOUS
10
124.345
20
-204.776
11
124.177
21
-204.524
0
LINE
8
BLACK
6
CONTINUOUS
10
124.177
20
-204.524
11
124.061
21
-204.244
0
LINE
8
BLACK
6
CONTINUOUS
10
124.061
20
-204.244
11
124.002
21
-203.947
0
LINE
8
BLACK
6
CONTINUOUS
10
124.002
20
-203.947
11
124.002
21
-203.644
0
LINE
8
BLACK
6
CONTINUOUS
10
124.002
20
-203.644
11
124.061
21
-203.347
0
LINE
8
BLACK
6
CONTINUOUS
10
124.128
20
-204.224
11
124.239
21
-204.491
0
LINE
8
BLACK
6
CONTINUOUS
10
124.239
20
-204.491
11
124.399
21
-204.731
0
LINE
8
BLACK
6
CONTINUOUS
10
124.399
20
-204.731
11
124.604
21
-204.936
0
LINE
8
BLACK
6
CONTINUOUS
10
124.604
20
-204.936
11
124.844
21
-205.096
0
LINE
8
BLACK
6
CONTINUOUS
10
124.844
20
-205.096
11
125.111
21
-205.207
0
LINE
8
BLACK
6
CONTINUOUS
10
125.111
20
-205.207
11
125.395
21
-205.263
0
LINE
8
BLACK
6
CONTINUOUS
10
125.395
20
-205.263
11
125.684
21
-205.263
0
LINE
8
BLACK
6
CONTINUOUS
10
125.684
20
-205.263
11
125.968
21
-205.207
0
LINE
8
BLACK
6
CONTINUOUS
10
125.968
20
-205.207
11
126.235
21
-205.096
0
LINE
8
BLACK
6
CONTINUOUS
10
126.235
20
-205.096
11
126.475
21
-204.936
0
LINE
8
BLACK
6
CONTINUOUS
10
126.475
20
-204.936
11
126.68
21
-204.731
0
LINE
8
BLACK
6
CONTINUOUS
10
126.68
20
-204.731
11
126.84
21
-204.491
0
LINE
8
BLACK
6
CONTINUOUS
10
126.84
20
-204.491
11
126.951
21
-204.224
0
LINE
8
BLACK
6
CONTINUOUS
10
126.951
20
-204.224
11
127.007
21
-203.94
0
LINE
8
BLACK
6
CONTINUOUS
10
127.007
20
-203.94
11
127.007
21
-203.651
0
LINE
8
BLACK
6
CONTINUOUS
10
127.007
20
-203.651
11
126.951
21
-203.367
0
LINE
8
BLACK
6
CONTINUOUS
10
126.951
20
-203.367
11
126.84
21
-203.1
0
LINE
8
BLACK
6
CONTINUOUS
10
126.84
20
-203.1
11
126.68
21
-202.86
0
LINE
8
BLACK
6
CONTINUOUS
10
126.68
20
-202.86
11
126.475
21
-202.655
0
LINE
8
BLACK
6
CONTINUOUS
10
126.475
20
-202.655
11
126.235
21
-202.495
0
LINE
8
BLACK
6
CONTINUOUS
10
126.235
20
-202.495
11
125.968
21
-202.384
0
LINE
8
BLACK
6
CONTINUOUS
10
125.968
20
-202.384
11
125.684
21
-202.328
0
LINE
8
BLACK
6
CONTINUOUS
10
125.684
20
-202.328
11
125.395
21
-202.328
0
LINE
8
BLACK
6
CONTINUOUS
10
125.395
20
-202.328
11
125.111
21
-202.384
0
LINE
8
BLACK
6
CONTINUOUS
10
125.111
20
-202.384
11
124.844
21
-202.495
0
LINE
8
BLACK
6
CONTINUOUS
10
124.844
20
-202.495
11
124.604
21
-202.655
0
LINE
8
BLACK
6
CONTINUOUS
10
124.604
20
-202.655
11
124.399
21
-202.86
0
LINE
8
BLACK
6
CONTINUOUS
10
124.399
20
-202.86
11
124.239
21
-203.1
0
LINE
8
BLACK
6
CONTINUOUS
10
124.239
20
-203.1
11
124.128
21
-203.367
0
LINE
8
BLACK
6
CONTINUOUS
10
124.128
20
-203.367
11
124.072
21
-203.651
0
LINE
8
BLACK
6
CONTINUOUS
10
124.072
20
-203.651
11
124.072
21
-203.94
0
LINE
8
BLACK
6
CONTINUOUS
10
124.072
20
-203.94
11
124.128
21
-204.224
0
LINE
8
BLACK
6
CONTINUOUS
10
184.325
20
-185.737
11
184.441
21
-185.457
0
LINE
8
BLACK
6
CONTINUOUS
10
184.441
20
-185.457
11
184.609
21
-185.205
0
LINE
8
BLACK
6
CONTINUOUS
10
184.609
20
-185.205
11
184.823
21
-184.991
0
LINE
8
BLACK
6
CONTINUOUS
10
184.823
20
-184.991
11
185.075
21
-184.822
0
LINE
8
BLACK
6
CONTINUOUS
10
185.075
20
-184.822
11
185.355
21
-184.707
0
LINE
8
BLACK
6
CONTINUOUS
10
185.355
20
-184.707
11
185.652
21
-184.647
0
LINE
8
BLACK
6
CONTINUOUS
10
185.652
20
-184.647
11
185.955
21
-184.647
0
LINE
8
BLACK
6
CONTINUOUS
10
185.955
20
-184.647
11
186.252
21
-184.707
0
LINE
8
BLACK
6
CONTINUOUS
10
186.252
20
-184.707
11
186.532
21
-184.822
0
LINE
8
BLACK
6
CONTINUOUS
10
186.532
20
-184.822
11
186.784
21
-184.991
0
LINE
8
BLACK
6
CONTINUOUS
10
186.784
20
-184.991
11
186.998
21
-185.205
0
LINE
8
BLACK
6
CONTINUOUS
10
186.998
20
-185.205
11
187.166
21
-185.457
0
LINE
8
BLACK
6
CONTINUOUS
10
187.166
20
-185.457
11
187.282
21
-185.737
0
LINE
8
BLACK
6
CONTINUOUS
10
187.282
20
-185.737
11
187.341
21
-186.034
0
LINE
8
BLACK
6
CONTINUOUS
10
187.341
20
-186.034
11
187.341
21
-186.336
0
LINE
8
BLACK
6
CONTINUOUS
10
187.341
20
-186.336
11
187.282
21
-186.633
0
LINE
8
BLACK
6
CONTINUOUS
10
187.282
20
-186.633
11
187.166
21
-186.913
0
LINE
8
BLACK
6
CONTINUOUS
10
187.166
20
-186.913
11
186.998
21
-187.165
0
LINE
8
BLACK
6
CONTINUOUS
10
186.998
20
-187.165
11
186.784
21
-187.379
0
LINE
8
BLACK
6
CONTINUOUS
10
186.784
20
-187.379
11
186.532
21
-187.548
0
LINE
8
BLACK
6
CONTINUOUS
10
186.532
20
-187.548
11
186.252
21
-187.663
0
LINE
8
BLACK
6
CONTINUOUS
10
186.252
20
-187.663
11
185.955
21
-187.723
0
LINE
8
BLACK
6
CONTINUOUS
10
185.955
20
-187.723
11
185.652
21
-187.723
0
LINE
8
BLACK
6
CONTINUOUS
10
185.652
20
-187.723
11
185.355
21
-187.663
0
LINE
8
BLACK
6
CONTINUOUS
10
185.355
20
-187.663
11
185.075
21
-187.548
0
LINE
8
BLACK
6
CONTINUOUS
10
185.075
20
-187.548
11
184.823
21
-187.379
0
LINE
8
BLACK
6
CONTINUOUS
10
184.823
20
-187.379
11
184.609
21
-187.165
0
LINE
8
BLACK
6
CONTINUOUS
10
184.609
20
-187.165
11
184.441
21
-186.913
0
LINE
8
BLACK
6
CONTINUOUS
10
184.441
20
-186.913
11
184.325
21
-186.633
0
LINE
8
BLACK
6
CONTINUOUS
10
184.325
20
-186.633
11
184.266
21
-186.336
0
LINE
8
BLACK
6
CONTINUOUS
10
184.266
20
-186.336
11
184.266
21
-186.034
0
LINE
8
BLACK
6
CONTINUOUS
10
184.266
20
-186.034
11
184.325
21
-185.737
0
LINE
8
BLACK
6
CONTINUOUS
10
184.392
20
-186.613
11
184.503
21
-186.88
0
LINE
8
BLACK
6
CONTINUOUS
10
184.503
20
-186.88
11
184.663
21
-187.121
0
LINE
8
BLACK
6
CONTINUOUS
10
184.663
20
-187.121
11
184.868
21
-187.325
0
LINE
8
BLACK
6
CONTINUOUS
10
184.868
20
-187.325
11
185.108
21
-187.486
0
LINE
8
BLACK
6
CONTINUOUS
10
185.108
20
-187.486
11
185.375
21
-187.596
0
LINE
8
BLACK
6
CONTINUOUS
10
185.375
20
-187.596
11
185.659
21
-187.653
0
LINE
8
BLACK
6
CONTINUOUS
10
185.659
20
-187.653
11
185.948
21
-187.653
0
LINE
8
BLACK
6
CONTINUOUS
10
185.948
20
-187.653
11
186.232
21
-187.596
0
LINE
8
BLACK
6
CONTINUOUS
10
186.232
20
-187.596
11
186.499
21
-187.486
0
LINE
8
BLACK
6
CONTINUOUS
10
186.499
20
-187.486
11
186.739
21
-187.325
0
LINE
8
BLACK
6
CONTINUOUS
10
186.739
20
-187.325
11
186.944
21
-187.121
0
LINE
8
BLACK
6
CONTINUOUS
10
186.944
20
-187.121
11
187.104
21
-186.88
0
LINE
8
BLACK
6
CONTINUOUS
10
187.104
20
-186.88
11
187.215
21
-186.613
0
LINE
8
BLACK
6
CONTINUOUS
10
187.215
20
-186.613
11
187.271
21
-186.33
0
LINE
8
BLACK
6
CONTINUOUS
10
187.271
20
-186.33
11
187.271
21
-186.04
0
LINE
8
BLACK
6
CONTINUOUS
10
187.271
20
-186.04
11
187.215
21
-185.757
0
LINE
8
BLACK
6
CONTINUOUS
10
187.215
20
-185.757
11
187.104
21
-185.49
0
LINE
8
BLACK
6
CONTINUOUS
10
187.104
20
-185.49
11
186.944
21
-185.249
0
LINE
8
BLACK
6
CONTINUOUS
10
186.944
20
-185.249
11
186.739
21
-185.045
0
LINE
8
BLACK
6
CONTINUOUS
10
186.739
20
-185.045
11
186.499
21
-184.884
0
LINE
8
BLACK
6
CONTINUOUS
10
186.499
20
-184.884
11
186.232
21
-184.774
0
LINE
8
BLACK
6
CONTINUOUS
10
186.232
20
-184.774
11
185.948
21
-184.717
0
LINE
8
BLACK
6
CONTINUOUS
10
185.948
20
-184.717
11
185.659
21
-184.717
0
LINE
8
BLACK
6
CONTINUOUS
10
185.659
20
-184.717
11
185.375
21
-184.774
0
LINE
8
BLACK
6
CONTINUOUS
10
185.375
20
-184.774
11
185.108
21
-184.884
0
LINE
8
BLACK
6
CONTINUOUS
10
185.108
20
-184.884
11
184.868
21
-185.045
0
LINE
8
BLACK
6
CONTINUOUS
10
184.868
20
-185.045
11
184.663
21
-185.249
0
LINE
8
BLACK
6
CONTINUOUS
10
184.663
20
-185.249
11
184.503
21
-185.49
0
LINE
8
BLACK
6
CONTINUOUS
10
184.503
20
-185.49
11
184.392
21
-185.757
0
LINE
8
BLACK
6
CONTINUOUS
10
184.392
20
-185.757
11
184.336
21
-186.04
0
LINE
8
BLACK
6
CONTINUOUS
10
184.336
20
-186.04
11
184.336
21
-186.33
0
LINE
8
BLACK
6
CONTINUOUS
10
184.336
20
-186.33
11
184.392
21
-186.613
0
LINE
8
BLACK
6
CONTINUOUS
10
243.901
20
-168.087
11
244.016
21
-167.807
0
LINE
8
BLACK
6
CONTINUOUS
10
244.016
20
-167.807
11
244.185
21
-167.555
0
LINE
8
BLACK
6
CONTINUOUS
10
244.185
20
-167.555
11
244.399
21
-167.341
0
LINE
8
BLACK
6
CONTINUOUS
10
244.399
20
-167.341
11
244.651
21
-167.172
0
LINE
8
BLACK
6
CONTINUOUS
10
244.651
20
-167.172
11
244.931
21
-167.057
0
LINE
8
BLACK
6
CONTINUOUS
10
244.931
20
-167.057
11
245.228
21
-166.997
0
LINE
8
BLACK
6
CONTINUOUS
10
245.228
20
-166.997
11
245.53
21
-166.997
0
LINE
8
BLACK
6
CONTINUOUS
10
245.53
20
-166.997
11
245.827
21
-167.057
0
LINE
8
BLACK
6
CONTINUOUS
10
245.827
20
-167.057
11
246.107
21
-167.172
0
LINE
8
BLACK
6
CONTINUOUS
10
246.107
20
-167.172
11
246.359
21
-167.341
0
LINE
8
BLACK
6
CONTINUOUS
10
246.359
20
-167.341
11
246.573
21
-167.555
0
LINE
8
BLACK
6
CONTINUOUS
10
246.573
20
-167.555
11
246.742
21
-167.807
0
LINE
8
BLACK
6
CONTINUOUS
10
246.742
20
-167.807
11
246.857
21
-168.087
0
LINE
8
BLACK
6
CONTINUOUS
10
246.857
20
-168.087
11
246.917
21
-168.384
0
LINE
8
BLACK
6
CONTINUOUS
10
246.917
20
-168.384
11
246.917
21
-168.686
0
LINE
8
BLACK
6
CONTINUOUS
10
246.917
20
-168.686
11
246.857
21
-168.983
0
LINE
8
BLACK
6
CONTINUOUS
10
246.857
20
-168.983
11
246.742
21
-169.263
0
LINE
8
BLACK
6
CONTINUOUS
10
246.742
20
-169.263
11
246.573
21
-169.515
0
LINE
8
BLACK
6
CONTINUOUS
10
246.573
20
-169.515
11
246.359
21
-169.729
0
LINE
8
BLACK
6
CONTINUOUS
10
246.359
20
-169.729
11
246.107
21
-169.898
0
LINE
8
BLACK
6
CONTINUOUS
10
246.107
20
-169.898
11
245.827
21
-170.013
0
LINE
8
BLACK
6
CONTINUOUS
10
245.827
20
-170.013
11
245.53
21
-170.073
0
LINE
8
BLACK
6
CONTINUOUS
10
245.53
20
-170.073
11
245.228
21
-170.073
0
LINE
8
BLACK
6
CONTINUOUS
10
245.228
20
-170.073
11
244.931
21
-170.013
0
LINE
8
BLACK
6
CONTINUOUS
10
244.931
20
-170.013
11
244.651
21
-169.898
0
LINE
8
BLACK
6
CONTINUOUS
10
244.651
20
-169.898
11
244.399
21
-169.729
0
LINE
8
BLACK
6
CONTINUOUS
10
244.399
20
-169.729
11
244.185
21
-169.515
0
LINE
8
BLACK
6
CONTINUOUS
10
244.185
20
-169.515
11
244.016
21
-169.263
0
LINE
8
BLACK
6
CONTINUOUS
10
244.016
20
-169.263
11
243.901
21
-168.983
0
LINE
8
BLACK
6
CONTINUOUS
10
243.901
20
-168.983
11
243.841
21
-168.686
0
LINE
8
BLACK
6
CONTINUOUS
10
243.841
20
-168.686
11
243.841
21
-168.384
0
LINE
8
BLACK
6
CONTINUOUS
10
243.841
20
-168.384
11
243.901
21
-168.087
0
LINE
8
BLACK
6
CONTINUOUS
10
243.968
20
-168.963
11
244.078
21
-169.23
0
LINE
8
BLACK
6
CONTINUOUS
10
244.078
20
-169.23
11
244.239
21
-169.471
0
LINE
8
BLACK
6
CONTINUOUS
10
244.239
20
-169.471
11
244.443
21
-169.675
0
LINE
8
BLACK
6
CONTINUOUS
10
244.443
20
-169.675
11
244.684
21
-169.836
0
LINE
8
BLACK
6
CONTINUOUS
10
244.684
20
-169.836
11
244.951
21
-169.946
0
LINE
8
BLACK
6
CONTINUOUS
10
244.951
20
-169.946
11
245.234
21
-170.003
0
LINE
8
BLACK
6
CONTINUOUS
10
245.234
20
-170.003
11
245.524
21
-170.003
0
LINE
8
BLACK
6
CONTINUOUS
10
245.524
20
-170.003
11
245.807
21
-169.946
0
LINE
8
BLACK
6
CONTINUOUS
10
245.807
20
-169.946
11
246.074
21
-169.836
0
LINE
8
BLACK
6
CONTINUOUS
10
246.074
20
-169.836
11
246.315
21
-169.675
0
LINE
8
BLACK
6
CONTINUOUS
10
246.315
20
-169.675
11
246.519
21
-169.471
0
LINE
8
BLACK
6
CONTINUOUS
10
246.519
20
-169.471
11
246.68
21
-169.23
0
LINE
8
BLACK
6
CONTINUOUS
10
246.68
20
-169.23
11
246.79
21
-168.963
0
LINE
8
BLACK
6
CONTINUOUS
10
246.79
20
-168.963
11
246.847
21
-168.68
0
LINE
8
BLACK
6
CONTINUOUS
10
246.847
20
-168.68
11
246.847
21
-168.39
0
LINE
8
BLACK
6
CONTINUOUS
10
246.847
20
-168.39
11
246.79
21
-168.107
0
LINE
8
BLACK
6
CONTINUOUS
10
246.79
20
-168.107
11
246.68
21
-167.84
0
LINE
8
BLACK
6
CONTINUOUS
10
246.68
20
-167.84
11
246.519
21
-167.599
0
LINE
8
BLACK
6
CONTINUOUS
10
246.519
20
-167.599
11
246.315
21
-167.395
0
LINE
8
BLACK
6
CONTINUOUS
10
246.315
20
-167.395
11
246.074
21
-167.234
0
LINE
8
BLACK
6
CONTINUOUS
10
246.074
20
-167.234
11
245.807
21
-167.124
0
LINE
8
BLACK
6
CONTINUOUS
10
245.807
20
-167.124
11
245.524
21
-167.067
0
LINE
8
BLACK
6
CONTINUOUS
10
245.524
20
-167.067
11
245.234
21
-167.067
0
LINE
8
BLACK
6
CONTINUOUS
10
245.234
20
-167.067
11
244.951
21
-167.124
0
LINE
8
BLACK
6
CONTINUOUS
10
244.951
20
-167.124
11
244.684
21
-167.234
0
LINE
8
BLACK
6
CONTINUOUS
10
244.684
20
-167.234
11
244.443
21
-167.395
0
LINE
8
BLACK
6
CONTINUOUS
10
244.443
20
-167.395
11
244.239
21
-167.599
0
LINE
8
BLACK
6
CONTINUOUS
10
244.239
20
-167.599
11
244.078
21
-167.84
0
LINE
8
BLACK
6
CONTINUOUS
10
244.078
20
-167.84
11
243.968
21
-168.107
0
LINE
8
BLACK
6
CONTINUOUS
10
243.968
20
-168.107
11
243.911
21
-168.39
0
LINE
8
BLACK
6
CONTINUOUS
10
243.911
20
-168.39
11
243.911
21
-168.68
0
LINE
8
BLACK
6
CONTINUOUS
10
243.911
20
-168.68
11
243.968
21
-168.963
0
LINE
8
BLACK
6
CONTINUOUS
10
112.934
20
-160.455
11
113.049
21
-160.175
0
LINE
8
BLACK
6
CONTINUOUS
10
113.049
20
-160.175
11
113.218
21
-159.923
0
LINE
8
BLACK
6
CONTINUOUS
10
113.218
20
-159.923
11
113.432
21
-159.709
0
LINE
8
BLACK
6
CONTINUOUS
10
113.432
20
-159.709
11
113.684
21
-159.54
0
LINE
8
BLACK
6
CONTINUOUS
10
113.684
20
-159.54
11
113.964
21
-159.425
0
LINE
8
BLACK
6
CONTINUOUS
10
113.964
20
-159.425
11
114.261
21
-159.365
0
LINE
8
BLACK
6
CONTINUOUS
10
114.261
20
-159.365
11
114.563
21
-159.365
0
LINE
8
BLACK
6
CONTINUOUS
10
114.563
20
-159.365
11
114.86
21
-159.425
0
LINE
8
BLACK
6
CONTINUOUS
10
114.86
20
-159.425
11
115.14
21
-159.54
0
LINE
8
BLACK
6
CONTINUOUS
10
115.14
20
-159.54
11
115.392
21
-159.709
0
LINE
8
BLACK
6
CONTINUOUS
10
115.392
20
-159.709
11
115.606
21
-159.923
0
LINE
8
BLACK
6
CONTINUOUS
10
115.606
20
-159.923
11
115.775
21
-160.175
0
LINE
8
BLACK
6
CONTINUOUS
10
115.775
20
-160.175
11
115.89
21
-160.455
0
LINE
8
BLACK
6
CONTINUOUS
10
115.89
20
-160.455
11
115.95
21
-160.752
0
LINE
8
BLACK
6
CONTINUOUS
10
115.95
20
-160.752
11
115.95
21
-161.054
0
LINE
8
BLACK
6
CONTINUOUS
10
115.95
20
-161.054
11
115.89
21
-161.351
0
LINE
8
BLACK
6
CONTINUOUS
10
115.89
20
-161.351
11
115.775
21
-161.631
0
LINE
8
BLACK
6
CONTINUOUS
10
115.775
20
-161.631
11
115.606
21
-161.883
0
LINE
8
BLACK
6
CONTINUOUS
10
115.606
20
-161.883
11
115.392
21
-162.097
0
LINE
8
BLACK
6
CONTINUOUS
10
115.392
20
-162.097
11
115.14
21
-162.266
0
LINE
8
BLACK
6
CONTINUOUS
10
115.14
20
-162.266
11
114.86
21
-162.381
0
LINE
8
BLACK
6
CONTINUOUS
10
114.86
20
-162.381
11
114.563
21
-162.441
0
LINE
8
BLACK
6
CONTINUOUS
10
114.563
20
-162.441
11
114.261
21
-162.441
0
LINE
8
BLACK
6
CONTINUOUS
10
114.261
20
-162.441
11
113.964
21
-162.381
0
LINE
8
BLACK
6
CONTINUOUS
10
113.964
20
-162.381
11
113.684
21
-162.266
0
LINE
8
BLACK
6
CONTINUOUS
10
113.684
20
-162.266
11
113.432
21
-162.097
0
LINE
8
BLACK
6
CONTINUOUS
10
113.432
20
-162.097
11
113.218
21
-161.883
0
LINE
8
BLACK
6
CONTINUOUS
10
113.218
20
-161.883
11
113.049
21
-161.631
0
LINE
8
BLACK
6
CONTINUOUS
10
113.049
20
-161.631
11
112.934
21
-161.351
0
LINE
8
BLACK
6
CONTINUOUS
10
112.934
20
-161.351
11
112.874
21
-161.054
0
LINE
8
BLACK
6
CONTINUOUS
10
112.874
20
-161.054
11
112.874
21
-160.752
0
LINE
8
BLACK
6
CONTINUOUS
10
112.874
20
-160.752
11
112.934
21
-160.455
0
LINE
8
BLACK
6
CONTINUOUS
10
113.001
20
-161.331
11
113.111
21
-161.598
0
LINE
8
BLACK
6
CONTINUOUS
10
113.111
20
-161.598
11
113.272
21
-161.839
0
LINE
8
BLACK
6
CONTINUOUS
10
113.272
20
-161.839
11
113.476
21
-162.043
0
LINE
8
BLACK
6
CONTINUOUS
10
113.476
20
-162.043
11
113.717
21
-162.204
0
LINE
8
BLACK
6
CONTINUOUS
10
113.717
20
-162.204
11
113.984
21
-162.314
0
LINE
8
BLACK
6
CONTINUOUS
10
113.984
20
-162.314
11
114.267
21
-162.371
0
LINE
8
BLACK
6
CONTINUOUS
10
114.267
20
-162.371
11
114.557
21
-162.371
0
LINE
8
BLACK
6
CONTINUOUS
10
114.557
20
-162.371
11
114.84
21
-162.314
0
LINE
8
BLACK
6
CONTINUOUS
10
114.84
20
-162.314
11
115.107
21
-162.204
0
LINE
8
BLACK
6
CONTINUOUS
10
115.107
20
-162.204
11
115.348
21
-162.043
0
LINE
8
BLACK
6
CONTINUOUS
10
115.348
20
-162.043
11
115.552
21
-161.839
0
LINE
8
BLACK
6
CONTINUOUS
10
115.552
20
-161.839
11
115.713
21
-161.598
0
LINE
8
BLACK
6
CONTINUOUS
10
115.713
20
-161.598
11
115.823
21
-161.331
0
LINE
8
BLACK
6
CONTINUOUS
10
115.823
20
-161.331
11
115.88
21
-161.048
0
LINE
8
BLACK
6
CONTINUOUS
10
115.88
20
-161.048
11
115.88
21
-160.758
0
LINE
8
BLACK
6
CONTINUOUS
10
115.88
20
-160.758
11
115.823
21
-160.475
0
LINE
8
BLACK
6
CONTINUOUS
10
115.823
20
-160.475
11
115.713
21
-160.208
0
LINE
8
BLACK
6
CONTINUOUS
10
115.713
20
-160.208
11
115.552
21
-159.967
0
LINE
8
BLACK
6
CONTINUOUS
10
115.552
20
-159.967
11
115.348
21
-159.763
0
LINE
8
BLACK
6
CONTINUOUS
10
115.348
20
-159.763
11
115.107
21
-159.602
0
LINE
8
BLACK
6
CONTINUOUS
10
115.107
20
-159.602
11
114.84
21
-159.492
0
LINE
8
BLACK
6
CONTINUOUS
10
114.84
20
-159.492
11
114.557
21
-159.435
0
LINE
8
BLACK
6
CONTINUOUS
10
114.557
20
-159.435
11
114.267
21
-159.435
0
LINE
8
BLACK
6
CONTINUOUS
10
114.267
20
-159.435
11
113.984
21
-159.492
0
LINE
8
BLACK
6
CONTINUOUS
10
113.984
20
-159.492
11
113.717
21
-159.602
0
LINE
8
BLACK
6
CONTINUOUS
10
113.717
20
-159.602
11
113.476
21
-159.763
0
LINE
8
BLACK
6
CONTINUOUS
10
113.476
20
-159.763
11
113.272
21
-159.967
0
LINE
8
BLACK
6
CONTINUOUS
10
113.272
20
-159.967
11
113.111
21
-160.208
0
LINE
8
BLACK
6
CONTINUOUS
10
113.111
20
-160.208
11
113.001
21
-160.475
0
LINE
8
BLACK
6
CONTINUOUS
10
113.001
20
-160.475
11
112.944
21
-160.758
0
LINE
8
BLACK
6
CONTINUOUS
10
112.944
20
-160.758
11
112.944
21
-161.048
0
LINE
8
BLACK
6
CONTINUOUS
10
112.944
20
-161.048
11
113.001
21
-161.331
0
LINE
8
BLACK
6
CONTINUOUS
10
227.128
20
-88.373
11
227.243
21
-88.0932
0
LINE
8
BLACK
6
CONTINUOUS
10
227.243
20
-88.0932
11
227.412
21
-87.8414
0
LINE
8
BLACK
6
CONTINUOUS
10
227.412
20
-87.8414
11
227.626
21
-87.6272
0
LINE
8
BLACK
6
CONTINUOUS
10
227.626
20
-87.6272
11
227.878
21
-87.4589
0
LINE
8
BLACK
6
CONTINUOUS
10
227.878
20
-87.4589
11
228.158
21
-87.343
0
LINE
8
BLACK
6
CONTINUOUS
10
228.158
20
-87.343
11
228.455
21
-87.2839
0
LINE
8
BLACK
6
CONTINUOUS
10
228.455
20
-87.2839
11
228.757
21
-87.2839
0
LINE
8
BLACK
6
CONTINUOUS
10
228.757
20
-87.2839
11
229.054
21
-87.343
0
LINE
8
BLACK
6
CONTINUOUS
10
229.054
20
-87.343
11
229.334
21
-87.4589
0
LINE
8
BLACK
6
CONTINUOUS
10
229.334
20
-87.4589
11
229.586
21
-87.6272
0
LINE
8
BLACK
6
CONTINUOUS
10
229.586
20
-87.6272
11
229.8
21
-87.8414
0
LINE
8
BLACK
6
CONTINUOUS
10
229.8
20
-87.8414
11
229.969
21
-88.0932
0
LINE
8
BLACK
6
CONTINUOUS
10
229.969
20
-88.0932
11
230.084
21
-88.373
0
LINE
8
BLACK
6
CONTINUOUS
10
230.084
20
-88.373
11
230.144
21
-88.6701
0
LINE
8
BLACK
6
CONTINUOUS
10
230.144
20
-88.6701
11
230.144
21
-88.9729
0
LINE
8
BLACK
6
CONTINUOUS
10
230.144
20
-88.9729
11
230.084
21
-89.27
0
LINE
8
BLACK
6
CONTINUOUS
10
230.084
20
-89.27
11
229.969
21
-89.5498
0
LINE
8
BLACK
6
CONTINUOUS
10
229.969
20
-89.5498
11
229.8
21
-89.8016
0
LINE
8
BLACK
6
CONTINUOUS
10
229.8
20
-89.8016
11
229.586
21
-90.0158
0
LINE
8
BLACK
6
CONTINUOUS
10
229.586
20
-90.0158
11
229.334
21
-90.1841
0
LINE
8
BLACK
6
CONTINUOUS
10
229.334
20
-90.1841
11
229.054
21
-90.3
0
LINE
8
BLACK
6
CONTINUOUS
10
229.054
20
-90.3
11
228.757
21
-90.3591
0
LINE
8
BLACK
6
CONTINUOUS
10
228.757
20
-90.3591
11
228.455
21
-90.3591
0
LINE
8
BLACK
6
CONTINUOUS
10
228.455
20
-90.3591
11
228.158
21
-90.3
0
LINE
8
BLACK
6
CONTINUOUS
10
228.158
20
-90.3
11
227.878
21
-90.1841
0
LINE
8
BLACK
6
CONTINUOUS
10
227.878
20
-90.1841
11
227.626
21
-90.0158
0
LINE
8
BLACK
6
CONTINUOUS
10
227.626
20
-90.0158
11
227.412
21
-89.8016
0
LINE
8
BLACK
6
CONTINUOUS
10
227.412
20
-89.8016
11
227.243
21
-89.5498
0
LINE
8
BLACK
6
CONTINUOUS
10
227.243
20
-89.5498
11
227.128
21
-89.27
0
LINE
8
BLACK
6
CONTINUOUS
10
227.128
20
-89.27
11
227.068
21
-88.9729
0
LINE
8
BLACK
6
CONTINUOUS
10
227.068
20
-88.9729
11
227.068
21
-88.6701
0
LINE
8
BLACK
6
CONTINUOUS
10
227.068
20
-88.6701
11
227.128
21
-88.373
0
LINE
8
BLACK
6
CONTINUOUS
10
227.195
20
-89.2497
11
227.305
21
-89.5168
0
LINE
8
BLACK
6
CONTINUOUS
10
227.305
20
-89.5168
11
227.466
21
-89.7572
0
LINE
8
BLACK
6
CONTINUOUS
10
227.466
20
-89.7572
11
227.67
21
-89.9617
0
LINE
8
BLACK
6
CONTINUOUS
10
227.67
20
-89.9617
11
227.911
21
-90.1223
0
LINE
8
BLACK
6
CONTINUOUS
10
227.911
20
-90.1223
11
228.178
21
-90.233
0
LINE
8
BLACK
6
CONTINUOUS
10
228.178
20
-90.233
11
228.461
21
-90.2894
0
LINE
8
BLACK
6
CONTINUOUS
10
228.461
20
-90.2894
11
228.751
21
-90.2894
0
LINE
8
BLACK
6
CONTINUOUS
10
228.751
20
-90.2894
11
229.034
21
-90.233
0
LINE
8
BLACK
6
CONTINUOUS
10
229.034
20
-90.233
11
229.301
21
-90.1223
0
LINE
8
BLACK
6
CONTINUOUS
10
229.301
20
-90.1223
11
229.542
21
-89.9617
0
LINE
8
BLACK
6
CONTINUOUS
10
229.542
20
-89.9617
11
229.746
21
-89.7572
0
LINE
8
BLACK
6
CONTINUOUS
10
229.746
20
-89.7572
11
229.907
21
-89.5168
0
LINE
8
BLACK
6
CONTINUOUS
10
229.907
20
-89.5168
11
230.017
21
-89.2497
0
LINE
8
BLACK
6
CONTINUOUS
10
230.017
20
-89.2497
11
230.074
21
-88.9661
0
LINE
8
BLACK
6
CONTINUOUS
10
230.074
20
-88.9661
11
230.074
21
-88.6769
0
LINE
8
BLACK
6
CONTINUOUS
10
230.074
20
-88.6769
11
230.017
21
-88.3933
0
LINE
8
BLACK
6
CONTINUOUS
10
230.017
20
-88.3933
11
229.907
21
-88.1262
0
LINE
8
BLACK
6
CONTINUOUS
10
229.907
20
-88.1262
11
229.746
21
-87.8858
0
LINE
8
BLACK
6
CONTINUOUS
10
229.746
20
-87.8858
11
229.542
21
-87.6813
0
LINE
8
BLACK
6
CONTINUOUS
10
229.542
20
-87.6813
11
229.301
21
-87.5207
0
LINE
8
BLACK
6
CONTINUOUS
10
229.301
20
-87.5207
11
229.034
21
-87.41
0
LINE
8
BLACK
6
CONTINUOUS
10
229.034
20
-87.41
11
228.751
21
-87.3536
0
LINE
8
BLACK
6
CONTINUOUS
10
228.751
20
-87.3536
11
228.461
21
-87.3536
0
LINE
8
BLACK
6
CONTINUOUS
10
228.461
20
-87.3536
11
228.178
21
-87.41
0
LINE
8
BLACK
6
CONTINUOUS
10
228.178
20
-87.41
11
227.911
21
-87.5207
0
LINE
8
BLACK
6
CONTINUOUS
10
227.911
20
-87.5207
11
227.67
21
-87.6813
0
LINE
8
BLACK
6
CONTINUOUS
10
227.67
20
-87.6813
11
227.466
21
-87.8858
0
LINE
8
BLACK
6
CONTINUOUS
10
227.466
20
-87.8858
11
227.305
21
-88.1262
0
LINE
8
BLACK
6
CONTINUOUS
10
227.305
20
-88.1262
11
227.195
21
-88.3933
0
LINE
8
BLACK
6
CONTINUOUS
10
227.195
20
-88.3933
11
227.138
21
-88.6769
0
LINE
8
BLACK
6
CONTINUOUS
10
227.138
20
-88.6769
11
227.138
21
-88.9661
0
LINE
8
BLACK
6
CONTINUOUS
10
227.138
20
-88.9661
11
227.195
21
-89.2497
0
LINE
8
BLACK
6
CONTINUOUS
10
120.511
20
-85.8965
11
120.627
21
-85.6167
0
LINE
8
BLACK
6
CONTINUOUS
10
120.627
20
-85.6167
11
120.795
21
-85.3649
0
LINE
8
BLACK
6
CONTINUOUS
10
120.795
20
-85.3649
11
121.009
21
-85.1507
0
LINE
8
BLACK
6
CONTINUOUS
10
121.009
20
-85.1507
11
121.261
21
-84.9824
0
LINE
8
BLACK
6
CONTINUOUS
10
121.261
20
-84.9824
11
121.541
21
-84.8665
0
LINE
8
BLACK
6
CONTINUOUS
10
121.541
20
-84.8665
11
121.838
21
-84.8074
0
LINE
8
BLACK
6
CONTINUOUS
10
121.838
20
-84.8074
11
122.141
21
-84.8074
0
LINE
8
BLACK
6
CONTINUOUS
10
122.141
20
-84.8074
11
122.438
21
-84.8665
0
LINE
8
BLACK
6
CONTINUOUS
10
122.438
20
-84.8665
11
122.718
21
-84.9824
0
LINE
8
BLACK
6
CONTINUOUS
10
122.718
20
-84.9824
11
122.97
21
-85.1507
0
LINE
8
BLACK
6
CONTINUOUS
10
122.97
20
-85.1507
11
123.184
21
-85.3649
0
LINE
8
BLACK
6
CONTINUOUS
10
123.184
20
-85.3649
11
123.352
21
-85.6167
0
LINE
8
BLACK
6
CONTINUOUS
10
123.352
20
-85.6167
11
123.468
21
-85.8965
0
LINE
8
BLACK
6
CONTINUOUS
10
123.468
20
-85.8965
11
123.527
21
-86.1936
0
LINE
8
BLACK
6
CONTINUOUS
10
123.527
20
-86.1936
11
123.527
21
-86.4964
0
LINE
8
BLACK
6
CONTINUOUS
10
123.527
20
-86.4964
11
123.468
21
-86.7935
0
LINE
8
BLACK
6
CONTINUOUS
10
123.468
20
-86.7935
11
123.352
21
-87.0733
0
LINE
8
BLACK
6
CONTINUOUS
10
123.352
20
-87.0733
11
123.184
21
-87.3251
0
LINE
8
BLACK
6
CONTINUOUS
10
123.184
20
-87.3251
11
122.97
21
-87.5393
0
LINE
8
BLACK
6
CONTINUOUS
10
122.97
20
-87.5393
11
122.718
21
-87.7076
0
LINE
8
BLACK
6
CONTINUOUS
10
122.718
20
-87.7076
11
122.438
21
-87.8235
0
LINE
8
BLACK
6
CONTINUOUS
10
122.438
20
-87.8235
11
122.141
21
-87.8826
0
LINE
8
BLACK
6
CONTINUOUS
10
122.141
20
-87.8826
11
121.838
21
-87.8826
0
LINE
8
BLACK
6
CONTINUOUS
10
121.838
20
-87.8826
11
121.541
21
-87.8235
0
LINE
8
BLACK
6
CONTINUOUS
10
121.541
20
-87.8235
11
121.261
21
-87.7076
0
LINE
8
BLACK
6
CONTINUOUS
10
121.261
20
-87.7076
11
121.009
21
-87.5393
0
LINE
8
BLACK
6
CONTINUOUS
10
121.009
20
-87.5393
11
120.795
21
-87.3251
0
LINE
8
BLACK
6
CONTINUOUS
10
120.795
20
-87.3251
11
120.627
21
-87.0733
0
LINE
8
BLACK
6
CONTINUOUS
10
120.627
20
-87.0733
11
120.511
21
-86.7935
0
LINE
8
BLACK
6
CONTINUOUS
10
120.511
20
-86.7935
11
120.452
21
-86.4964
0
LINE
8
BLACK
6
CONTINUOUS
10
120.452
20
-86.4964
11
120.452
21
-86.1936
0
LINE
8
BLACK
6
CONTINUOUS
10
120.452
20
-86.1936
11
120.511
21
-85.8965
0
LINE
8
BLACK
6
CONTINUOUS
10
120.578
20
-86.7732
11
120.689
21
-87.0403
0
LINE
8
BLACK
6
CONTINUOUS
10
120.689
20
-87.0403
11
120.849
21
-87.2807
0
LINE
8
BLACK
6
CONTINUOUS
10
120.849
20
-87.2807
11
121.054
21
-87.4852
0
LINE
8
BLACK
6
CONTINUOUS
10
121.054
20
-87.4852
11
121.294
21
-87.6458
0
LINE
8
BLACK
6
CONTINUOUS
10
121.294
20
-87.6458
11
121.561
21
-87.7565
0
LINE
8
BLACK
6
CONTINUOUS
10
121.561
20
-87.7565
11
121.845
21
-87.8129
0
LINE
8
BLACK
6
CONTINUOUS
10
121.845
20
-87.8129
11
122.134
21
-87.8129
0
LINE
8
BLACK
6
CONTINUOUS
10
122.134
20
-87.8129
11
122.418
21
-87.7565
0
LINE
8
BLACK
6
CONTINUOUS
10
122.418
20
-87.7565
11
122.685
21
-87.6458
0
LINE
8
BLACK
6
CONTINUOUS
10
122.685
20
-87.6458
11
122.925
21
-87.4852
0
LINE
8
BLACK
6
CONTINUOUS
10
122.925
20
-87.4852
11
123.13
21
-87.2807
0
LINE
8
BLACK
6
CONTINUOUS
10
123.13
20
-87.2807
11
123.29
21
-87.0403
0
LINE
8
BLACK
6
CONTINUOUS
10
123.29
20
-87.0403
11
123.401
21
-86.7732
0
LINE
8
BLACK
6
CONTINUOUS
10
123.401
20
-86.7732
11
123.457
21
-86.4896
0
LINE
8
BLACK
6
CONTINUOUS
10
123.457
20
-86.4896
11
123.457
21
-86.2004
0
LINE
8
BLACK
6
CONTINUOUS
10
123.457
20
-86.2004
11
123.401
21
-85.9168
0
LINE
8
BLACK
6
CONTINUOUS
10
123.401
20
-85.9168
11
123.29
21
-85.6497
0
LINE
8
BLACK
6
CONTINUOUS
10
123.29
20
-85.6497
11
123.13
21
-85.4093
0
LINE
8
BLACK
6
CONTINUOUS
10
123.13
20
-85.4093
11
122.925
21
-85.2048
0
LINE
8
BLACK
6
CONTINUOUS
10
122.925
20
-85.2048
11
122.685
21
-85.0442
0
LINE
8
BLACK
6
CONTINUOUS
10
122.685
20
-85.0442
11
122.418
21
-84.9335
0
LINE
8
BLACK
6
CONTINUOUS
10
122.418
20
-84.9335
11
122.134
21
-84.8771
0
LINE
8
BLACK
6
CONTINUOUS
10
122.134
20
-84.8771
11
121.845
21
-84.8771
0
LINE
8
BLACK
6
CONTINUOUS
10
121.845
20
-84.8771
11
121.561
21
-84.9335
0
LINE
8
BLACK
6
CONTINUOUS
10
121.561
20
-84.9335
11
121.294
21
-85.0442
0
LINE
8
BLACK
6
CONTINUOUS
10
121.294
20
-85.0442
11
121.054
21
-85.2048
0
LINE
8
BLACK
6
CONTINUOUS
10
121.054
20
-85.2048
11
120.849
21
-85.4093
0
LINE
8
BLACK
6
CONTINUOUS
10
120.849
20
-85.4093
11
120.689
21
-85.6497
0
LINE
8
BLACK
6
CONTINUOUS
10
120.689
20
-85.6497
11
120.578
21
-85.9168
0
LINE
8
BLACK
6
CONTINUOUS
10
120.578
20
-85.9168
11
120.522
21
-86.2004
0
LINE
8
BLACK
6
CONTINUOUS
10
120.522
20
-86.2004
11
120.522
21
-86.4896
0
LINE
8
BLACK
6
CONTINUOUS
10
120.522
20
-86.4896
11
120.578
21
-86.7732
  0
ENDSEC
  0
EOF
