<?xml version="1.0" standalone="no"?>
 <!DOCTYPE svg PUBLIC "-//W3C//DTD SVG 1.1//EN" 
 "http://www.w3.org/Graphics/SVG/1.1/DTD/svg11.dtd"> 
<svg xmlns="http://www.w3.org/2000/svg" version="1.1" 
    width="59.4004cm" height="41.9989cm" viewBox="0 0 233860 165350 ">
<title>SVG Picture created as Apollo-Edge_Cuts.svg date 2020/02/28 01:11:46 </title>
  <desc>Picture generated by PCBNEW </desc>
<g style="fill:#000000; fill-opacity:1;stroke:#000000; stroke-opacity:1;
stroke-linecap:round; stroke-linejoin:round; "
 transform="translate(0 0) scale(1 1)">
</g>
<g style="fill:#000000; fill-opacity:0.0; 
stroke:#000000; stroke-width:-0.000393701; stroke-opacity:1; 
stroke-linecap:round; stroke-linejoin:round;">
</g>
<g style="fill:#000000; fill-opacity:0.0; 
stroke:#000000; stroke-width:19.685; stroke-opacity:1; 
stroke-linecap:round; stroke-linejoin:round;">
<path d="M44085 69745
L45620 68745
" />
<path d="M49575 66875
L45620 68745
" />
<path d="M44085 69745
L44570 70510
" />
<path d="M41095 71685
L41576 72428
" />
<path d="M41576.9 72428.8 A1777.67 1777.67 0.0 1 0 44570 70510 " />
<path d="M40274 24925
L40275 50320
" />
<path d="M65770 64555
L65770 63875
" />
<path d="M65770 64555.9 A1777.63 1777.63 0.0 0 0 69325.3 64555.9 " />
<path d="M69325 64555
L69325 63875
" />
<path d="M39444 50320
L40275 50320
" />
<path d="M39444.1 50320 A1777.63 1777.63 0.0 0 0 39444.1 53875.3 " />
<path d="M39444 53875
L40275 53875
" />
<path d="M43829 24244
L43829 24925
" />
<path d="M43830 24244.1 A1777.63 1777.63 0.0 0 0 40274.7 24244.1 " />
<path d="M40274 24244
L40274 24925
" />
<path d="M92105 53189
L91425 53189
" />
<path d="M92105.9 53190 A1777.63 1777.63 0.0 0 0 92105.9 49634.7 " />
<path d="M92105 49634
L91425 49634
" />
<path d="M86404 25169
L86404 25850
" />
<path d="M82849 25169
L82849 25850
" />
<path d="M86405 25169.1 A1777.63 1777.63 0.0 0 0 82849.7 25169.1 " />
<path d="M41095 71685
L35960 75020
" />
<path d="M40275 53875
L40275 56069
" />
<path d="M86404 25850
L90875 25850
" />
<path d="M91425 53189
L91425 65200
" />
<path d="M69325 63875
L70150 63875
" />
<path d="M40077.8 56400 A375 375 0.0 0 0 40275 56069.8 " />
<path d="M28690 63798.5 A362.353 362.353 0.0 0 0 28571 64270 " />
<path d="M40077 56400
L28690 63800
" />
<path d="M35488.5 74901 A362.353 362.353 0.0 0 0 35960 75020 " />
<path d="M28570 64270
L35488 74900
" />
<path d="M56550 64150
L49575 66875
" />
<path d="M63650 63875
L56550 64150
" />
<path d="M70700 65200
L70700 64425
" />
<path d="M48200 24175
L48200 24375
" />
<path d="M55700 23275
L55700 23400
" />
<path d="M64750 23275
L64750 23425
" />
<path d="M72250 24525
L72250 25300
" />
<path d="M63650 63875
L65770 63875
" />
<path d="M71250 65750
L90875 65750
" />
<path d="M43829 24925
L47650 24925
" />
<path d="M48425 23950
L55150 23950
" />
<path d="M55925 23050
L64525 23050
" />
<path d="M65300 23975
L71700 23975
" />
<path d="M72800 25850
L82849 25850
" />
<path d="M48425 23950 A225 225 0.0 0 0 48200 24175 " />
<path d="M55925 23050 A225 225 0.0 0 0 55700 23275 " />
<path d="M64750 23275 A225 225 0.0 0 0 64525 23050 " />
<path d="M70700 64425 A550 550 0.0 0 0 70150 63875 " />
<path d="M70700 65200 A550 550 0.0 0 0 71250 65750 " />
<path d="M90875 65750 A550 550 0.0 0 0 91425 65200 " />
<path d="M47650 24925 A550 550 0.0 0 0 48200 24375 " />
<path d="M55150 23950 A550 550 0.0 0 0 55700 23400 " />
<path d="M64750 23425 A550 550 0.0 0 0 65300 23975 " />
<path d="M72250 24525 A550 550 0.0 0 0 71700 23975 " />
<path d="M72250 25300 A550 550 0.0 0 0 72800 25850 " />
<path d="M91425 26400 A550 550 0.0 0 0 90875 25850 " />
<path d="M91425 49634
L91425 26400
" />
<g >
</g>
<g >
</g>
<g >
</g>
<g >
</g>
<g >
</g>
<g >
</g>
<g >
</g>
<g >
</g>
<g >
</g>
<g >
</g>
<g >
</g>
<g >
</g>
<g >
</g>
<g >
</g>
<g >
</g>
<g >
</g>
<g >
</g>
<g >
</g>
<g >
</g>
<g >
</g>
<g >
</g>
<g >
</g>
<g >
</g>
<g >
</g>
<g >
</g>
<g >
</g>
<g >
</g>
<g >
</g>
<g >
</g>
<g >
</g>
<g >
</g>
<g >
</g>
<g >
</g>
<g >
</g>
<g >
</g>
<g >
</g>
<g >
</g>
<g >
</g>
</g> 
</svg>
