  0
SECTION
  2
HEADER
  9
$ANGBASE
  50
0.0
  9
$ANGDIR
  70
1
  9
$MEASUREMENT
  70
1
  0
ENDSEC
  0
SECTION
  2
TABLES
  0
TABLE
  2
LTYPE
  70
4
  0
LTYPE
  5
40F
  2
CONTINUOUS
  70
0
  3
Solid line
  72
65
  73
0
  40
0.0
  0
LTYPE
  5
410
  2
DASHDOT
 70
0
  3
Dash Dot ____ _ ____ _
 72
65
 73
4
 40
2.0
 49
1.25
 49
-0.25
 49
0.25
 49
-0.25
  0
LTYPE
  5
411
  2
DASHED
 70
0
  3
Dashed __ __ __ __ __
 72
65
 73
2
 40
0.75
 49
0.5
 49
-0.25
  0
LTYPE
  5
43B
  2
DOTTED
 70
0
  3
Dotted .  .  .  .
 72
65
 73
2
 40
0.2
 49
0.0
 49
-0.2
  0
ENDTAB
  0
TABLE
  2
STYLE
  70
4
  0
STYLE
  2
KICAD
  70
0
  40
0
  41
1
  42
1
  50
0
  71
0
  3
isocp.shx
  0
STYLE
  2
KICADB
  70
0
  40
0
  41
1
  42
1
  50
0
  71
0
  3
isocp.shx
  0
STYLE
  2
KICADI
  70
0
  40
0
  41
1
  42
1
  50
15
  71
0
  3
isocp.shx
  0
STYLE
  2
KICADBI
  70
0
  40
0
  41
1
  42
1
  50
15
  71
0
  3
isocp.shx
  0
ENDTAB
  0
TABLE
  2
LAYER
  70
1
  0
LAYER
  2
BLACK
  70
0
  62
7
  6
CONTINUOUS
  0
ENDTAB
  0
ENDSEC
  0
SECTION
  2
ENTITIES
0
LINE
8
BLACK
6
CONTINUOUS
10
219.572
20
-82.2875
11
219.575
21
-82.2875
0
LINE
8
BLACK
6
CONTINUOUS
10
219.575
20
-82.2875
11
219.577
21
-82.2876
0
LINE
8
BLACK
6
CONTINUOUS
10
219.577
20
-82.2876
11
220.285
21
-82.3739
0
LINE
8
BLACK
6
CONTINUOUS
10
220.285
20
-82.3739
11
220.285
21
-82.374
0
LINE
8
BLACK
6
CONTINUOUS
10
220.285
20
-82.374
11
220.287
21
-82.3745
0
LINE
8
BLACK
6
CONTINUOUS
10
220.287
20
-82.3745
11
220.289
21
-82.375
0
LINE
8
BLACK
6
CONTINUOUS
10
220.289
20
-82.375
11
220.967
21
-82.5971
0
LINE
8
BLACK
6
CONTINUOUS
10
220.967
20
-82.5971
11
220.967
21
-82.5973
0
LINE
8
BLACK
6
CONTINUOUS
10
220.967
20
-82.5973
11
220.969
21
-82.5982
0
LINE
8
BLACK
6
CONTINUOUS
10
220.969
20
-82.5982
11
220.971
21
-82.5991
0
LINE
8
BLACK
6
CONTINUOUS
10
220.971
20
-82.5991
11
221.592
21
-82.9486
0
LINE
8
BLACK
6
CONTINUOUS
10
221.592
20
-82.9486
11
221.592
21
-82.9486
0
LINE
8
BLACK
6
CONTINUOUS
10
221.592
20
-82.9486
11
221.592
21
-82.9486
0
LINE
8
BLACK
6
CONTINUOUS
10
221.592
20
-82.9486
11
221.593
21
-82.9488
0
LINE
8
BLACK
6
CONTINUOUS
10
221.593
20
-82.9488
11
221.595
21
-82.9501
0
LINE
8
BLACK
6
CONTINUOUS
10
221.595
20
-82.9501
11
221.596
21
-82.9514
0
LINE
8
BLACK
6
CONTINUOUS
10
221.596
20
-82.9514
11
222.138
21
-83.4149
0
LINE
8
BLACK
6
CONTINUOUS
10
222.138
20
-83.4149
11
222.138
21
-83.4151
0
LINE
8
BLACK
6
CONTINUOUS
10
222.138
20
-83.4151
11
222.14
21
-83.4168
0
LINE
8
BLACK
6
CONTINUOUS
10
222.14
20
-83.4168
11
222.141
21
-83.4184
0
LINE
8
BLACK
6
CONTINUOUS
10
222.141
20
-83.4184
11
222.583
21
-83.9783
0
LINE
8
BLACK
6
CONTINUOUS
10
222.583
20
-83.9783
11
222.583
21
-83.9786
0
LINE
8
BLACK
6
CONTINUOUS
10
222.583
20
-83.9786
11
222.584
21
-83.9805
0
LINE
8
BLACK
6
CONTINUOUS
10
222.584
20
-83.9805
11
222.585
21
-83.9824
0
LINE
8
BLACK
6
CONTINUOUS
10
222.585
20
-83.9824
11
222.909
21
-84.6173
0
LINE
8
BLACK
6
CONTINUOUS
10
222.909
20
-84.6173
11
222.91
21
-84.6176
0
LINE
8
BLACK
6
CONTINUOUS
10
222.91
20
-84.6176
11
222.91
21
-84.6198
0
LINE
8
BLACK
6
CONTINUOUS
10
222.91
20
-84.6198
11
222.911
21
-84.6219
0
LINE
8
BLACK
6
CONTINUOUS
10
222.911
20
-84.6219
11
223.106
21
-85.3077
0
LINE
8
BLACK
6
CONTINUOUS
10
223.106
20
-85.3077
11
223.106
21
-85.308
0
LINE
8
BLACK
6
CONTINUOUS
10
223.106
20
-85.308
11
223.106
21
-85.3102
0
LINE
8
BLACK
6
CONTINUOUS
10
223.106
20
-85.3102
11
223.107
21
-85.3123
0
LINE
8
BLACK
6
CONTINUOUS
10
223.107
20
-85.3123
11
223.165
21
-85.9739
0
LINE
8
BLACK
6
CONTINUOUS
10
223.165
20
-85.9739
11
223.165
21
-85.974
0
LINE
8
BLACK
6
CONTINUOUS
10
223.165
20
-85.974
11
223.165
21
-85.9749
0
LINE
8
BLACK
6
CONTINUOUS
10
223.165
20
-85.9749
11
223.164
21
-88.621
0
LINE
8
BLACK
6
CONTINUOUS
10
223.164
20
-88.621
11
235.269
21
-88.621
0
LINE
8
BLACK
6
CONTINUOUS
10
235.269
20
-88.621
11
235.27
21
-88.6211
0
LINE
8
BLACK
6
CONTINUOUS
10
235.27
20
-88.6211
11
235.27
21
-88.6211
0
LINE
8
BLACK
6
CONTINUOUS
10
235.27
20
-88.6211
11
235.541
21
-88.6477
0
LINE
8
BLACK
6
CONTINUOUS
10
235.541
20
-88.6477
11
235.542
21
-88.6478
0
LINE
8
BLACK
6
CONTINUOUS
10
235.542
20
-88.6478
11
235.544
21
-88.6482
0
LINE
8
BLACK
6
CONTINUOUS
10
235.544
20
-88.6482
11
235.546
21
-88.6487
0
LINE
8
BLACK
6
CONTINUOUS
10
235.546
20
-88.6487
11
235.807
21
-88.7275
0
LINE
8
BLACK
6
CONTINUOUS
10
235.807
20
-88.7275
11
235.807
21
-88.7276
0
LINE
8
BLACK
6
CONTINUOUS
10
235.807
20
-88.7276
11
235.81
21
-88.7285
0
LINE
8
BLACK
6
CONTINUOUS
10
235.81
20
-88.7285
11
235.812
21
-88.7293
0
LINE
8
BLACK
6
CONTINUOUS
10
235.812
20
-88.7293
11
236.052
21
-88.8573
0
LINE
8
BLACK
6
CONTINUOUS
10
236.052
20
-88.8573
11
236.053
21
-88.8575
0
LINE
8
BLACK
6
CONTINUOUS
10
236.053
20
-88.8575
11
236.054
21
-88.8588
0
LINE
8
BLACK
6
CONTINUOUS
10
236.054
20
-88.8588
11
236.056
21
-88.86
0
LINE
8
BLACK
6
CONTINUOUS
10
236.056
20
-88.86
11
236.268
21
-89.0324
0
LINE
8
BLACK
6
CONTINUOUS
10
236.268
20
-89.0324
11
236.268
21
-89.0324
0
LINE
8
BLACK
6
CONTINUOUS
10
236.268
20
-89.0324
11
236.268
21
-89.0324
0
LINE
8
BLACK
6
CONTINUOUS
10
236.268
20
-89.0324
11
236.268
21
-89.0326
0
LINE
8
BLACK
6
CONTINUOUS
10
236.268
20
-89.0326
11
236.27
21
-89.0342
0
LINE
8
BLACK
6
CONTINUOUS
10
236.27
20
-89.0342
11
236.271
21
-89.0358
0
LINE
8
BLACK
6
CONTINUOUS
10
236.271
20
-89.0358
11
236.445
21
-89.2459
0
LINE
8
BLACK
6
CONTINUOUS
10
236.445
20
-89.2459
11
236.445
21
-89.2461
0
LINE
8
BLACK
6
CONTINUOUS
10
236.445
20
-89.2461
11
236.446
21
-89.2481
0
LINE
8
BLACK
6
CONTINUOUS
10
236.446
20
-89.2481
11
236.448
21
-89.2499
0
LINE
8
BLACK
6
CONTINUOUS
10
236.448
20
-89.2499
11
236.577
21
-89.4897
0
LINE
8
BLACK
6
CONTINUOUS
10
236.577
20
-89.4897
11
236.577
21
-89.4898
0
LINE
8
BLACK
6
CONTINUOUS
10
236.577
20
-89.4898
11
236.577
21
-89.4898
0
LINE
8
BLACK
6
CONTINUOUS
10
236.577
20
-89.4898
11
236.577
21
-89.4901
0
LINE
8
BLACK
6
CONTINUOUS
10
236.577
20
-89.4901
11
236.578
21
-89.4922
0
LINE
8
BLACK
6
CONTINUOUS
10
236.578
20
-89.4922
11
236.579
21
-89.4942
0
LINE
8
BLACK
6
CONTINUOUS
10
236.579
20
-89.4942
11
236.66
21
-89.7547
0
LINE
8
BLACK
6
CONTINUOUS
10
236.66
20
-89.7547
11
236.66
21
-89.755
0
LINE
8
BLACK
6
CONTINUOUS
10
236.66
20
-89.755
11
236.66
21
-89.7573
0
LINE
8
BLACK
6
CONTINUOUS
10
236.66
20
-89.7573
11
236.661
21
-89.7595
0
LINE
8
BLACK
6
CONTINUOUS
10
236.661
20
-89.7595
11
236.689
21
-90.0306
0
LINE
8
BLACK
6
CONTINUOUS
10
236.689
20
-90.0306
11
236.689
21
-90.031
0
LINE
8
BLACK
6
CONTINUOUS
10
236.689
20
-90.031
11
236.689
21
-90.0321
0
LINE
8
BLACK
6
CONTINUOUS
10
236.689
20
-90.0321
11
236.689
21
-90.0332
0
LINE
8
BLACK
6
CONTINUOUS
10
236.689
20
-90.0332
11
236.689
21
-90.0417
0
LINE
8
BLACK
6
CONTINUOUS
10
236.689
20
-90.0417
11
236.689
21
-90.0418
0
LINE
8
BLACK
6
CONTINUOUS
10
236.689
20
-90.0418
11
236.689
21
-149.898
0
LINE
8
BLACK
6
CONTINUOUS
10
236.689
20
-149.898
11
239.46
21
-149.898
0
LINE
8
BLACK
6
CONTINUOUS
10
239.46
20
-149.898
11
239.463
21
-149.899
0
LINE
8
BLACK
6
CONTINUOUS
10
239.463
20
-149.899
11
239.464
21
-149.899
0
LINE
8
BLACK
6
CONTINUOUS
10
239.464
20
-149.899
11
240.169
21
-149.99
0
LINE
8
BLACK
6
CONTINUOUS
10
240.169
20
-149.99
11
240.169
21
-149.99
0
LINE
8
BLACK
6
CONTINUOUS
10
240.169
20
-149.99
11
240.171
21
-149.991
0
LINE
8
BLACK
6
CONTINUOUS
10
240.171
20
-149.991
11
240.173
21
-149.991
0
LINE
8
BLACK
6
CONTINUOUS
10
240.173
20
-149.991
11
240.849
21
-150.218
0
LINE
8
BLACK
6
CONTINUOUS
10
240.849
20
-150.218
11
240.85
21
-150.218
0
LINE
8
BLACK
6
CONTINUOUS
10
240.85
20
-150.218
11
240.852
21
-150.219
0
LINE
8
BLACK
6
CONTINUOUS
10
240.852
20
-150.219
11
240.854
21
-150.22
0
LINE
8
BLACK
6
CONTINUOUS
10
240.854
20
-150.22
11
241.473
21
-150.574
0
LINE
8
BLACK
6
CONTINUOUS
10
241.473
20
-150.574
11
241.473
21
-150.574
0
LINE
8
BLACK
6
CONTINUOUS
10
241.473
20
-150.574
11
241.473
21
-150.574
0
LINE
8
BLACK
6
CONTINUOUS
10
241.473
20
-150.574
11
241.473
21
-150.574
0
LINE
8
BLACK
6
CONTINUOUS
10
241.473
20
-150.574
11
241.475
21
-150.575
0
LINE
8
BLACK
6
CONTINUOUS
10
241.475
20
-150.575
11
241.477
21
-150.577
0
LINE
8
BLACK
6
CONTINUOUS
10
241.477
20
-150.577
11
242.015
21
-151.044
0
LINE
8
BLACK
6
CONTINUOUS
10
242.015
20
-151.044
11
242.015
21
-151.044
0
LINE
8
BLACK
6
CONTINUOUS
10
242.015
20
-151.044
11
242.017
21
-151.046
0
LINE
8
BLACK
6
CONTINUOUS
10
242.017
20
-151.046
11
242.018
21
-151.047
0
LINE
8
BLACK
6
CONTINUOUS
10
242.018
20
-151.047
11
242.456
21
-151.61
0
LINE
8
BLACK
6
CONTINUOUS
10
242.456
20
-151.61
11
242.456
21
-151.611
0
LINE
8
BLACK
6
CONTINUOUS
10
242.456
20
-151.611
11
242.457
21
-151.613
0
LINE
8
BLACK
6
CONTINUOUS
10
242.457
20
-151.613
11
242.458
21
-151.614
0
LINE
8
BLACK
6
CONTINUOUS
10
242.458
20
-151.614
11
242.778
21
-152.252
0
LINE
8
BLACK
6
CONTINUOUS
10
242.778
20
-152.252
11
242.778
21
-152.252
0
LINE
8
BLACK
6
CONTINUOUS
10
242.778
20
-152.252
11
242.779
21
-152.254
0
LINE
8
BLACK
6
CONTINUOUS
10
242.779
20
-152.254
11
242.78
21
-152.256
0
LINE
8
BLACK
6
CONTINUOUS
10
242.78
20
-152.256
11
242.969
21
-152.943
0
LINE
8
BLACK
6
CONTINUOUS
10
242.969
20
-152.943
11
242.969
21
-152.943
0
LINE
8
BLACK
6
CONTINUOUS
10
242.969
20
-152.943
11
242.969
21
-152.943
0
LINE
8
BLACK
6
CONTINUOUS
10
242.969
20
-152.943
11
242.97
21
-152.944
0
LINE
8
BLACK
6
CONTINUOUS
10
242.97
20
-152.944
11
242.97
21
-152.946
0
LINE
8
BLACK
6
CONTINUOUS
10
242.97
20
-152.946
11
242.97
21
-152.948
0
LINE
8
BLACK
6
CONTINUOUS
10
242.97
20
-152.948
11
243.023
21
-153.659
0
LINE
8
BLACK
6
CONTINUOUS
10
243.023
20
-153.659
11
243.023
21
-153.659
0
LINE
8
BLACK
6
CONTINUOUS
10
243.023
20
-153.659
11
243.023
21
-153.662
0
LINE
8
BLACK
6
CONTINUOUS
10
243.023
20
-153.662
11
243.023
21
-153.664
0
LINE
8
BLACK
6
CONTINUOUS
10
243.023
20
-153.664
11
242.937
21
-154.372
0
LINE
8
BLACK
6
CONTINUOUS
10
242.937
20
-154.372
11
242.937
21
-154.372
0
LINE
8
BLACK
6
CONTINUOUS
10
242.937
20
-154.372
11
242.936
21
-154.374
0
LINE
8
BLACK
6
CONTINUOUS
10
242.936
20
-154.374
11
242.936
21
-154.376
0
LINE
8
BLACK
6
CONTINUOUS
10
242.936
20
-154.376
11
242.713
21
-155.054
0
LINE
8
BLACK
6
CONTINUOUS
10
242.713
20
-155.054
11
242.713
21
-155.054
0
LINE
8
BLACK
6
CONTINUOUS
10
242.713
20
-155.054
11
242.712
21
-155.056
0
LINE
8
BLACK
6
CONTINUOUS
10
242.712
20
-155.056
11
242.711
21
-155.058
0
LINE
8
BLACK
6
CONTINUOUS
10
242.711
20
-155.058
11
242.362
21
-155.679
0
LINE
8
BLACK
6
CONTINUOUS
10
242.362
20
-155.679
11
242.362
21
-155.68
0
LINE
8
BLACK
6
CONTINUOUS
10
242.362
20
-155.68
11
242.36
21
-155.682
0
LINE
8
BLACK
6
CONTINUOUS
10
242.36
20
-155.682
11
242.359
21
-155.683
0
LINE
8
BLACK
6
CONTINUOUS
10
242.359
20
-155.683
11
241.896
21
-156.225
0
LINE
8
BLACK
6
CONTINUOUS
10
241.896
20
-156.225
11
241.895
21
-156.225
0
LINE
8
BLACK
6
CONTINUOUS
10
241.895
20
-156.225
11
241.894
21
-156.227
0
LINE
8
BLACK
6
CONTINUOUS
10
241.894
20
-156.227
11
241.892
21
-156.228
0
LINE
8
BLACK
6
CONTINUOUS
10
241.892
20
-156.228
11
241.332
21
-156.67
0
LINE
8
BLACK
6
CONTINUOUS
10
241.332
20
-156.67
11
241.332
21
-156.67
0
LINE
8
BLACK
6
CONTINUOUS
10
241.332
20
-156.67
11
241.33
21
-156.671
0
LINE
8
BLACK
6
CONTINUOUS
10
241.33
20
-156.671
11
241.328
21
-156.672
0
LINE
8
BLACK
6
CONTINUOUS
10
241.328
20
-156.672
11
240.693
21
-156.996
0
LINE
8
BLACK
6
CONTINUOUS
10
240.693
20
-156.996
11
240.693
21
-156.996
0
LINE
8
BLACK
6
CONTINUOUS
10
240.693
20
-156.996
11
240.693
21
-156.996
0
LINE
8
BLACK
6
CONTINUOUS
10
240.693
20
-156.996
11
240.693
21
-156.997
0
LINE
8
BLACK
6
CONTINUOUS
10
240.693
20
-156.997
11
240.691
21
-156.997
0
LINE
8
BLACK
6
CONTINUOUS
10
240.691
20
-156.997
11
240.689
21
-156.998
0
LINE
8
BLACK
6
CONTINUOUS
10
240.689
20
-156.998
11
240.003
21
-157.193
0
LINE
8
BLACK
6
CONTINUOUS
10
240.003
20
-157.193
11
240.003
21
-157.193
0
LINE
8
BLACK
6
CONTINUOUS
10
240.003
20
-157.193
11
240
21
-157.193
0
LINE
8
BLACK
6
CONTINUOUS
10
240
20
-157.193
11
239.998
21
-157.194
0
LINE
8
BLACK
6
CONTINUOUS
10
239.998
20
-157.194
11
239.337
21
-157.252
0
LINE
8
BLACK
6
CONTINUOUS
10
239.337
20
-157.252
11
239.337
21
-157.252
0
LINE
8
BLACK
6
CONTINUOUS
10
239.337
20
-157.252
11
239.336
21
-157.252
0
LINE
8
BLACK
6
CONTINUOUS
10
239.336
20
-157.252
11
236.689
21
-157.251
0
LINE
8
BLACK
6
CONTINUOUS
10
236.689
20
-157.251
11
236.689
21
-188.596
0
LINE
8
BLACK
6
CONTINUOUS
10
236.689
20
-188.596
11
236.689
21
-188.597
0
LINE
8
BLACK
6
CONTINUOUS
10
236.689
20
-188.597
11
236.689
21
-188.597
0
LINE
8
BLACK
6
CONTINUOUS
10
236.689
20
-188.597
11
236.663
21
-188.869
0
LINE
8
BLACK
6
CONTINUOUS
10
236.663
20
-188.869
11
236.663
21
-188.869
0
LINE
8
BLACK
6
CONTINUOUS
10
236.663
20
-188.869
11
236.662
21
-188.871
0
LINE
8
BLACK
6
CONTINUOUS
10
236.662
20
-188.871
11
236.662
21
-188.874
0
LINE
8
BLACK
6
CONTINUOUS
10
236.662
20
-188.874
11
236.583
21
-189.135
0
LINE
8
BLACK
6
CONTINUOUS
10
236.583
20
-189.135
11
236.583
21
-189.135
0
LINE
8
BLACK
6
CONTINUOUS
10
236.583
20
-189.135
11
236.582
21
-189.137
0
LINE
8
BLACK
6
CONTINUOUS
10
236.582
20
-189.137
11
236.581
21
-189.139
0
LINE
8
BLACK
6
CONTINUOUS
10
236.581
20
-189.139
11
236.453
21
-189.38
0
LINE
8
BLACK
6
CONTINUOUS
10
236.453
20
-189.38
11
236.453
21
-189.38
0
LINE
8
BLACK
6
CONTINUOUS
10
236.453
20
-189.38
11
236.452
21
-189.382
0
LINE
8
BLACK
6
CONTINUOUS
10
236.452
20
-189.382
11
236.45
21
-189.384
0
LINE
8
BLACK
6
CONTINUOUS
10
236.45
20
-189.384
11
236.278
21
-189.595
0
LINE
8
BLACK
6
CONTINUOUS
10
236.278
20
-189.595
11
236.278
21
-189.595
0
LINE
8
BLACK
6
CONTINUOUS
10
236.278
20
-189.595
11
236.276
21
-189.597
0
LINE
8
BLACK
6
CONTINUOUS
10
236.276
20
-189.597
11
236.275
21
-189.599
0
LINE
8
BLACK
6
CONTINUOUS
10
236.275
20
-189.599
11
236.065
21
-189.772
0
LINE
8
BLACK
6
CONTINUOUS
10
236.065
20
-189.772
11
236.064
21
-189.773
0
LINE
8
BLACK
6
CONTINUOUS
10
236.064
20
-189.773
11
236.062
21
-189.774
0
LINE
8
BLACK
6
CONTINUOUS
10
236.062
20
-189.774
11
236.061
21
-189.775
0
LINE
8
BLACK
6
CONTINUOUS
10
236.061
20
-189.775
11
235.821
21
-189.905
0
LINE
8
BLACK
6
CONTINUOUS
10
235.821
20
-189.905
11
235.82
21
-189.905
0
LINE
8
BLACK
6
CONTINUOUS
10
235.82
20
-189.905
11
235.818
21
-189.906
0
LINE
8
BLACK
6
CONTINUOUS
10
235.818
20
-189.906
11
235.816
21
-189.907
0
LINE
8
BLACK
6
CONTINUOUS
10
235.816
20
-189.907
11
235.556
21
-189.987
0
LINE
8
BLACK
6
CONTINUOUS
10
235.556
20
-189.987
11
235.555
21
-189.987
0
LINE
8
BLACK
6
CONTINUOUS
10
235.555
20
-189.987
11
235.553
21
-189.988
0
LINE
8
BLACK
6
CONTINUOUS
10
235.553
20
-189.988
11
235.551
21
-189.988
0
LINE
8
BLACK
6
CONTINUOUS
10
235.551
20
-189.988
11
235.28
21
-190.017
0
LINE
8
BLACK
6
CONTINUOUS
10
235.28
20
-190.017
11
235.28
21
-190.017
0
LINE
8
BLACK
6
CONTINUOUS
10
235.28
20
-190.017
11
235.278
21
-190.017
0
LINE
8
BLACK
6
CONTINUOUS
10
235.278
20
-190.017
11
235.277
21
-190.017
0
LINE
8
BLACK
6
CONTINUOUS
10
235.277
20
-190.017
11
235.269
21
-190.017
0
LINE
8
BLACK
6
CONTINUOUS
10
235.269
20
-190.017
11
235.269
21
-190.017
0
LINE
8
BLACK
6
CONTINUOUS
10
235.269
20
-190.017
11
185.419
21
-190.017
0
LINE
8
BLACK
6
CONTINUOUS
10
185.419
20
-190.017
11
185.418
21
-190.017
0
LINE
8
BLACK
6
CONTINUOUS
10
185.418
20
-190.017
11
185.418
21
-190.017
0
LINE
8
BLACK
6
CONTINUOUS
10
185.418
20
-190.017
11
185.146
21
-189.99
0
LINE
8
BLACK
6
CONTINUOUS
10
185.146
20
-189.99
11
185.146
21
-189.99
0
LINE
8
BLACK
6
CONTINUOUS
10
185.146
20
-189.99
11
185.144
21
-189.99
0
LINE
8
BLACK
6
CONTINUOUS
10
185.144
20
-189.99
11
185.141
21
-189.989
0
LINE
8
BLACK
6
CONTINUOUS
10
185.141
20
-189.989
11
184.88
21
-189.911
0
LINE
8
BLACK
6
CONTINUOUS
10
184.88
20
-189.911
11
184.88
21
-189.91
0
LINE
8
BLACK
6
CONTINUOUS
10
184.88
20
-189.91
11
184.878
21
-189.91
0
LINE
8
BLACK
6
CONTINUOUS
10
184.878
20
-189.91
11
184.876
21
-189.909
0
LINE
8
BLACK
6
CONTINUOUS
10
184.876
20
-189.909
11
184.635
21
-189.781
0
LINE
8
BLACK
6
CONTINUOUS
10
184.635
20
-189.781
11
184.635
21
-189.78
0
LINE
8
BLACK
6
CONTINUOUS
10
184.635
20
-189.78
11
184.633
21
-189.779
0
LINE
8
BLACK
6
CONTINUOUS
10
184.633
20
-189.779
11
184.631
21
-189.778
0
LINE
8
BLACK
6
CONTINUOUS
10
184.631
20
-189.778
11
184.42
21
-189.606
0
LINE
8
BLACK
6
CONTINUOUS
10
184.42
20
-189.606
11
184.42
21
-189.605
0
LINE
8
BLACK
6
CONTINUOUS
10
184.42
20
-189.605
11
184.418
21
-189.604
0
LINE
8
BLACK
6
CONTINUOUS
10
184.418
20
-189.604
11
184.416
21
-189.602
0
LINE
8
BLACK
6
CONTINUOUS
10
184.416
20
-189.602
11
184.243
21
-189.392
0
LINE
8
BLACK
6
CONTINUOUS
10
184.243
20
-189.392
11
184.242
21
-189.392
0
LINE
8
BLACK
6
CONTINUOUS
10
184.242
20
-189.392
11
184.241
21
-189.39
0
LINE
8
BLACK
6
CONTINUOUS
10
184.241
20
-189.39
11
184.24
21
-189.388
0
LINE
8
BLACK
6
CONTINUOUS
10
184.24
20
-189.388
11
184.11
21
-189.148
0
LINE
8
BLACK
6
CONTINUOUS
10
184.11
20
-189.148
11
184.11
21
-189.148
0
LINE
8
BLACK
6
CONTINUOUS
10
184.11
20
-189.148
11
184.109
21
-189.146
0
LINE
8
BLACK
6
CONTINUOUS
10
184.109
20
-189.146
11
184.108
21
-189.144
0
LINE
8
BLACK
6
CONTINUOUS
10
184.108
20
-189.144
11
184.028
21
-188.883
0
LINE
8
BLACK
6
CONTINUOUS
10
184.028
20
-188.883
11
184.028
21
-188.883
0
LINE
8
BLACK
6
CONTINUOUS
10
184.028
20
-188.883
11
184.027
21
-188.881
0
LINE
8
BLACK
6
CONTINUOUS
10
184.027
20
-188.881
11
184.027
21
-188.879
0
LINE
8
BLACK
6
CONTINUOUS
10
184.027
20
-188.879
11
183.998
21
-188.607
0
LINE
8
BLACK
6
CONTINUOUS
10
183.998
20
-188.607
11
183.998
21
-188.607
0
LINE
8
BLACK
6
CONTINUOUS
10
183.998
20
-188.607
11
183.998
21
-188.606
0
LINE
8
BLACK
6
CONTINUOUS
10
183.998
20
-188.606
11
183.998
21
-188.605
0
LINE
8
BLACK
6
CONTINUOUS
10
183.998
20
-188.605
11
183.998
21
-188.596
0
LINE
8
BLACK
6
CONTINUOUS
10
183.998
20
-188.596
11
183.998
21
-188.596
0
LINE
8
BLACK
6
CONTINUOUS
10
183.998
20
-188.596
11
183.998
21
-186.627
0
LINE
8
BLACK
6
CONTINUOUS
10
183.998
20
-186.627
11
183.998
21
-186.627
0
LINE
8
BLACK
6
CONTINUOUS
10
183.998
20
-186.627
11
183.998
21
-186.618
0
LINE
8
BLACK
6
CONTINUOUS
10
183.998
20
-186.618
11
183.97
21
-186.351
0
LINE
8
BLACK
6
CONTINUOUS
10
183.97
20
-186.351
11
183.891
21
-186.095
0
LINE
8
BLACK
6
CONTINUOUS
10
183.891
20
-186.095
11
183.763
21
-185.859
0
LINE
8
BLACK
6
CONTINUOUS
10
183.763
20
-185.859
11
183.593
21
-185.653
0
LINE
8
BLACK
6
CONTINUOUS
10
183.593
20
-185.653
11
183.385
21
-185.484
0
LINE
8
BLACK
6
CONTINUOUS
10
183.385
20
-185.484
11
183.149
21
-185.358
0
LINE
8
BLACK
6
CONTINUOUS
10
183.149
20
-185.358
11
182.892
21
-185.281
0
LINE
8
BLACK
6
CONTINUOUS
10
182.892
20
-185.281
11
182.625
21
-185.254
0
LINE
8
BLACK
6
CONTINUOUS
10
182.625
20
-185.254
11
180.556
21
-185.254
0
LINE
8
BLACK
6
CONTINUOUS
10
180.556
20
-185.254
11
180.556
21
-186.96
0
LINE
8
BLACK
6
CONTINUOUS
10
180.556
20
-186.96
11
180.556
21
-186.961
0
LINE
8
BLACK
6
CONTINUOUS
10
180.556
20
-186.961
11
180.556
21
-186.961
0
LINE
8
BLACK
6
CONTINUOUS
10
180.556
20
-186.961
11
180.475
21
-187.815
0
LINE
8
BLACK
6
CONTINUOUS
10
180.475
20
-187.815
11
180.474
21
-187.818
0
LINE
8
BLACK
6
CONTINUOUS
10
180.474
20
-187.818
11
180.474
21
-187.819
0
LINE
8
BLACK
6
CONTINUOUS
10
180.474
20
-187.819
11
180.474
21
-187.82
0
LINE
8
BLACK
6
CONTINUOUS
10
180.474
20
-187.82
11
180.232
21
-188.643
0
LINE
8
BLACK
6
CONTINUOUS
10
180.232
20
-188.643
11
180.231
21
-188.645
0
LINE
8
BLACK
6
CONTINUOUS
10
180.231
20
-188.645
11
180.231
21
-188.646
0
LINE
8
BLACK
6
CONTINUOUS
10
180.231
20
-188.646
11
180.231
21
-188.647
0
LINE
8
BLACK
6
CONTINUOUS
10
180.231
20
-188.647
11
179.838
21
-189.41
0
LINE
8
BLACK
6
CONTINUOUS
10
179.838
20
-189.41
11
179.837
21
-189.412
0
LINE
8
BLACK
6
CONTINUOUS
10
179.837
20
-189.412
11
179.836
21
-189.413
0
LINE
8
BLACK
6
CONTINUOUS
10
179.836
20
-189.413
11
179.835
21
-189.414
0
LINE
8
BLACK
6
CONTINUOUS
10
179.835
20
-189.414
11
179.305
21
-190.088
0
LINE
8
BLACK
6
CONTINUOUS
10
179.305
20
-190.088
11
179.304
21
-190.09
0
LINE
8
BLACK
6
CONTINUOUS
10
179.304
20
-190.09
11
179.303
21
-190.091
0
LINE
8
BLACK
6
CONTINUOUS
10
179.303
20
-190.091
11
179.302
21
-190.092
0
LINE
8
BLACK
6
CONTINUOUS
10
179.302
20
-190.092
11
178.654
21
-190.654
0
LINE
8
BLACK
6
CONTINUOUS
10
178.654
20
-190.654
11
178.652
21
-190.655
0
LINE
8
BLACK
6
CONTINUOUS
10
178.652
20
-190.655
11
178.651
21
-190.656
0
LINE
8
BLACK
6
CONTINUOUS
10
178.651
20
-190.656
11
178.65
21
-190.657
0
LINE
8
BLACK
6
CONTINUOUS
10
178.65
20
-190.657
11
177.908
21
-191.086
0
LINE
8
BLACK
6
CONTINUOUS
10
177.908
20
-191.086
11
177.906
21
-191.087
0
LINE
8
BLACK
6
CONTINUOUS
10
177.906
20
-191.087
11
177.905
21
-191.088
0
LINE
8
BLACK
6
CONTINUOUS
10
177.905
20
-191.088
11
177.904
21
-191.088
0
LINE
8
BLACK
6
CONTINUOUS
10
177.904
20
-191.088
11
177.094
21
-191.369
0
LINE
8
BLACK
6
CONTINUOUS
10
177.094
20
-191.369
11
177.091
21
-191.37
0
LINE
8
BLACK
6
CONTINUOUS
10
177.091
20
-191.37
11
177.09
21
-191.37
0
LINE
8
BLACK
6
CONTINUOUS
10
177.09
20
-191.37
11
177.089
21
-191.37
0
LINE
8
BLACK
6
CONTINUOUS
10
177.089
20
-191.37
11
176.24
21
-191.494
0
LINE
8
BLACK
6
CONTINUOUS
10
176.24
20
-191.494
11
176.238
21
-191.494
0
LINE
8
BLACK
6
CONTINUOUS
10
176.238
20
-191.494
11
176.237
21
-191.494
0
LINE
8
BLACK
6
CONTINUOUS
10
176.237
20
-191.494
11
176.235
21
-191.494
0
LINE
8
BLACK
6
CONTINUOUS
10
176.235
20
-191.494
11
175.379
21
-191.454
0
LINE
8
BLACK
6
CONTINUOUS
10
175.379
20
-191.454
11
175.376
21
-191.454
0
LINE
8
BLACK
6
CONTINUOUS
10
175.376
20
-191.454
11
175.375
21
-191.454
0
LINE
8
BLACK
6
CONTINUOUS
10
175.375
20
-191.454
11
175.374
21
-191.453
0
LINE
8
BLACK
6
CONTINUOUS
10
175.374
20
-191.453
11
174.54
21
-191.252
0
LINE
8
BLACK
6
CONTINUOUS
10
174.54
20
-191.252
11
174.538
21
-191.252
0
LINE
8
BLACK
6
CONTINUOUS
10
174.538
20
-191.252
11
174.537
21
-191.251
0
LINE
8
BLACK
6
CONTINUOUS
10
174.537
20
-191.251
11
174.536
21
-191.251
0
LINE
8
BLACK
6
CONTINUOUS
10
174.536
20
-191.251
11
173.755
21
-190.896
0
LINE
8
BLACK
6
CONTINUOUS
10
173.755
20
-190.896
11
173.755
21
-190.896
0
LINE
8
BLACK
6
CONTINUOUS
10
173.755
20
-190.896
11
173.755
21
-190.896
0
LINE
8
BLACK
6
CONTINUOUS
10
173.755
20
-190.896
11
173.753
21
-190.895
0
LINE
8
BLACK
6
CONTINUOUS
10
173.753
20
-190.895
11
173.752
21
-190.894
0
LINE
8
BLACK
6
CONTINUOUS
10
173.752
20
-190.894
11
173.751
21
-190.894
0
LINE
8
BLACK
6
CONTINUOUS
10
173.751
20
-190.894
11
173.051
21
-190.397
0
LINE
8
BLACK
6
CONTINUOUS
10
173.051
20
-190.397
11
173.049
21
-190.396
0
LINE
8
BLACK
6
CONTINUOUS
10
173.049
20
-190.396
11
173.049
21
-190.395
0
LINE
8
BLACK
6
CONTINUOUS
10
173.049
20
-190.395
11
173.048
21
-190.394
0
LINE
8
BLACK
6
CONTINUOUS
10
173.048
20
-190.394
11
172.455
21
-189.775
0
LINE
8
BLACK
6
CONTINUOUS
10
172.455
20
-189.775
11
172.453
21
-189.773
0
LINE
8
BLACK
6
CONTINUOUS
10
172.453
20
-189.773
11
172.452
21
-189.772
0
LINE
8
BLACK
6
CONTINUOUS
10
172.452
20
-189.772
11
172.452
21
-189.771
0
LINE
8
BLACK
6
CONTINUOUS
10
172.452
20
-189.771
11
171.986
21
-189.05
0
LINE
8
BLACK
6
CONTINUOUS
10
171.986
20
-189.05
11
171.985
21
-189.048
0
LINE
8
BLACK
6
CONTINUOUS
10
171.985
20
-189.048
11
171.985
21
-189.047
0
LINE
8
BLACK
6
CONTINUOUS
10
171.985
20
-189.047
11
171.984
21
-189.046
0
LINE
8
BLACK
6
CONTINUOUS
10
171.984
20
-189.046
11
171.664
21
-188.251
0
LINE
8
BLACK
6
CONTINUOUS
10
171.664
20
-188.251
11
171.663
21
-188.248
0
LINE
8
BLACK
6
CONTINUOUS
10
171.663
20
-188.248
11
171.663
21
-188.247
0
LINE
8
BLACK
6
CONTINUOUS
10
171.663
20
-188.247
11
171.662
21
-188.246
0
LINE
8
BLACK
6
CONTINUOUS
10
171.662
20
-188.246
11
171.498
21
-187.404
0
LINE
8
BLACK
6
CONTINUOUS
10
171.498
20
-187.404
11
171.497
21
-187.402
0
LINE
8
BLACK
6
CONTINUOUS
10
171.497
20
-187.402
11
171.497
21
-187.401
0
LINE
8
BLACK
6
CONTINUOUS
10
171.497
20
-187.401
11
171.497
21
-187.401
0
LINE
8
BLACK
6
CONTINUOUS
10
171.497
20
-187.401
11
171.476
21
-186.961
0
LINE
8
BLACK
6
CONTINUOUS
10
171.476
20
-186.961
11
171.476
21
-186.96
0
LINE
8
BLACK
6
CONTINUOUS
10
171.476
20
-186.96
11
171.476
21
-185.254
0
LINE
8
BLACK
6
CONTINUOUS
10
171.476
20
-185.254
11
166.117
21
-185.254
0
LINE
8
BLACK
6
CONTINUOUS
10
166.117
20
-185.254
11
148.087
21
-185.953
0
LINE
8
BLACK
6
CONTINUOUS
10
148.087
20
-185.953
11
130.375
21
-192.872
0
LINE
8
BLACK
6
CONTINUOUS
10
130.375
20
-192.872
11
120.332
21
-197.621
0
LINE
8
BLACK
6
CONTINUOUS
10
120.332
20
-197.621
11
115.769
21
-200.604
0
LINE
8
BLACK
6
CONTINUOUS
10
115.769
20
-200.604
11
117.497
21
-203.315
0
LINE
8
BLACK
6
CONTINUOUS
10
117.497
20
-203.315
11
117.498
21
-203.318
0
LINE
8
BLACK
6
CONTINUOUS
10
117.498
20
-203.318
11
117.499
21
-203.318
0
LINE
8
BLACK
6
CONTINUOUS
10
117.499
20
-203.318
11
117.797
21
-203.955
0
LINE
8
BLACK
6
CONTINUOUS
10
117.797
20
-203.955
11
117.797
21
-203.955
0
LINE
8
BLACK
6
CONTINUOUS
10
117.797
20
-203.955
11
117.798
21
-203.957
0
LINE
8
BLACK
6
CONTINUOUS
10
117.798
20
-203.957
11
117.798
21
-203.959
0
LINE
8
BLACK
6
CONTINUOUS
10
117.798
20
-203.959
11
117.968
21
-204.643
0
LINE
8
BLACK
6
CONTINUOUS
10
117.968
20
-204.643
11
117.968
21
-204.644
0
LINE
8
BLACK
6
CONTINUOUS
10
117.968
20
-204.644
11
117.968
21
-204.646
0
LINE
8
BLACK
6
CONTINUOUS
10
117.968
20
-204.646
11
117.968
21
-204.648
0
LINE
8
BLACK
6
CONTINUOUS
10
117.968
20
-204.648
11
118.002
21
-205.352
0
LINE
8
BLACK
6
CONTINUOUS
10
118.002
20
-205.352
11
118.002
21
-205.352
0
LINE
8
BLACK
6
CONTINUOUS
10
118.002
20
-205.352
11
118.001
21
-205.355
0
LINE
8
BLACK
6
CONTINUOUS
10
118.001
20
-205.355
11
118.001
21
-205.357
0
LINE
8
BLACK
6
CONTINUOUS
10
118.001
20
-205.357
11
117.897
21
-206.054
0
LINE
8
BLACK
6
CONTINUOUS
10
117.897
20
-206.054
11
117.897
21
-206.054
0
LINE
8
BLACK
6
CONTINUOUS
10
117.897
20
-206.054
11
117.897
21
-206.057
0
LINE
8
BLACK
6
CONTINUOUS
10
117.897
20
-206.057
11
117.896
21
-206.059
0
LINE
8
BLACK
6
CONTINUOUS
10
117.896
20
-206.059
11
117.659
21
-206.722
0
LINE
8
BLACK
6
CONTINUOUS
10
117.659
20
-206.722
11
117.658
21
-206.722
0
LINE
8
BLACK
6
CONTINUOUS
10
117.658
20
-206.722
11
117.658
21
-206.722
0
LINE
8
BLACK
6
CONTINUOUS
10
117.658
20
-206.722
11
117.658
21
-206.723
0
LINE
8
BLACK
6
CONTINUOUS
10
117.658
20
-206.723
11
117.657
21
-206.725
0
LINE
8
BLACK
6
CONTINUOUS
10
117.657
20
-206.725
11
117.656
21
-206.727
0
LINE
8
BLACK
6
CONTINUOUS
10
117.656
20
-206.727
11
117.295
21
-207.331
0
LINE
8
BLACK
6
CONTINUOUS
10
117.295
20
-207.331
11
117.294
21
-207.332
0
LINE
8
BLACK
6
CONTINUOUS
10
117.294
20
-207.332
11
117.293
21
-207.333
0
LINE
8
BLACK
6
CONTINUOUS
10
117.293
20
-207.333
11
117.292
21
-207.335
0
LINE
8
BLACK
6
CONTINUOUS
10
117.292
20
-207.335
11
116.819
21
-207.858
0
LINE
8
BLACK
6
CONTINUOUS
10
116.819
20
-207.858
11
116.819
21
-207.858
0
LINE
8
BLACK
6
CONTINUOUS
10
116.819
20
-207.858
11
116.817
21
-207.86
0
LINE
8
BLACK
6
CONTINUOUS
10
116.817
20
-207.86
11
116.816
21
-207.861
0
LINE
8
BLACK
6
CONTINUOUS
10
116.816
20
-207.861
11
116.251
21
-208.283
0
LINE
8
BLACK
6
CONTINUOUS
10
116.251
20
-208.283
11
116.251
21
-208.283
0
LINE
8
BLACK
6
CONTINUOUS
10
116.251
20
-208.283
11
116.251
21
-208.283
0
LINE
8
BLACK
6
CONTINUOUS
10
116.251
20
-208.283
11
116.25
21
-208.283
0
LINE
8
BLACK
6
CONTINUOUS
10
116.25
20
-208.283
11
116.248
21
-208.284
0
LINE
8
BLACK
6
CONTINUOUS
10
116.248
20
-208.284
11
116.246
21
-208.285
0
LINE
8
BLACK
6
CONTINUOUS
10
116.246
20
-208.285
11
115.61
21
-208.589
0
LINE
8
BLACK
6
CONTINUOUS
10
115.61
20
-208.589
11
115.61
21
-208.589
0
LINE
8
BLACK
6
CONTINUOUS
10
115.61
20
-208.589
11
115.61
21
-208.589
0
LINE
8
BLACK
6
CONTINUOUS
10
115.61
20
-208.589
11
115.608
21
-208.59
0
LINE
8
BLACK
6
CONTINUOUS
10
115.608
20
-208.59
11
115.606
21
-208.59
0
LINE
8
BLACK
6
CONTINUOUS
10
115.606
20
-208.59
11
114.923
21
-208.764
0
LINE
8
BLACK
6
CONTINUOUS
10
114.923
20
-208.764
11
114.923
21
-208.765
0
LINE
8
BLACK
6
CONTINUOUS
10
114.923
20
-208.765
11
114.92
21
-208.765
0
LINE
8
BLACK
6
CONTINUOUS
10
114.92
20
-208.765
11
114.918
21
-208.765
0
LINE
8
BLACK
6
CONTINUOUS
10
114.918
20
-208.765
11
114.214
21
-208.803
0
LINE
8
BLACK
6
CONTINUOUS
10
114.214
20
-208.803
11
114.214
21
-208.803
0
LINE
8
BLACK
6
CONTINUOUS
10
114.214
20
-208.803
11
114.214
21
-208.803
0
LINE
8
BLACK
6
CONTINUOUS
10
114.214
20
-208.803
11
114.214
21
-208.803
0
LINE
8
BLACK
6
CONTINUOUS
10
114.214
20
-208.803
11
114.212
21
-208.803
0
LINE
8
BLACK
6
CONTINUOUS
10
114.212
20
-208.803
11
114.209
21
-208.803
0
LINE
8
BLACK
6
CONTINUOUS
10
114.209
20
-208.803
11
113.512
21
-208.704
0
LINE
8
BLACK
6
CONTINUOUS
10
113.512
20
-208.704
11
113.511
21
-208.704
0
LINE
8
BLACK
6
CONTINUOUS
10
113.511
20
-208.704
11
113.509
21
-208.703
0
LINE
8
BLACK
6
CONTINUOUS
10
113.509
20
-208.703
11
113.507
21
-208.703
0
LINE
8
BLACK
6
CONTINUOUS
10
113.507
20
-208.703
11
112.842
21
-208.47
0
LINE
8
BLACK
6
CONTINUOUS
10
112.842
20
-208.47
11
112.841
21
-208.47
0
LINE
8
BLACK
6
CONTINUOUS
10
112.841
20
-208.47
11
112.839
21
-208.469
0
LINE
8
BLACK
6
CONTINUOUS
10
112.839
20
-208.469
11
112.837
21
-208.468
0
LINE
8
BLACK
6
CONTINUOUS
10
112.837
20
-208.468
11
112.23
21
-208.11
0
LINE
8
BLACK
6
CONTINUOUS
10
112.23
20
-208.11
11
112.23
21
-208.11
0
LINE
8
BLACK
6
CONTINUOUS
10
112.23
20
-208.11
11
112.228
21
-208.109
0
LINE
8
BLACK
6
CONTINUOUS
10
112.228
20
-208.109
11
112.226
21
-208.107
0
LINE
8
BLACK
6
CONTINUOUS
10
112.226
20
-208.107
11
111.7
21
-207.638
0
LINE
8
BLACK
6
CONTINUOUS
10
111.7
20
-207.638
11
111.7
21
-207.638
0
LINE
8
BLACK
6
CONTINUOUS
10
111.7
20
-207.638
11
111.698
21
-207.637
0
LINE
8
BLACK
6
CONTINUOUS
10
111.698
20
-207.637
11
111.697
21
-207.635
0
LINE
8
BLACK
6
CONTINUOUS
10
111.697
20
-207.635
11
111.302
21
-207.122
0
LINE
8
BLACK
6
CONTINUOUS
10
111.302
20
-207.122
11
111.302
21
-207.122
0
LINE
8
BLACK
6
CONTINUOUS
10
111.302
20
-207.122
11
109.531
21
-204.631
0
LINE
8
BLACK
6
CONTINUOUS
10
109.531
20
-204.631
11
95.796
21
-213.559
0
LINE
8
BLACK
6
CONTINUOUS
10
95.796
20
-213.559
11
95.7927
21
-213.561
0
LINE
8
BLACK
6
CONTINUOUS
10
95.7927
20
-213.561
11
95.7917
21
-213.561
0
LINE
8
BLACK
6
CONTINUOUS
10
95.7917
20
-213.561
11
95.6268
21
-213.629
0
LINE
8
BLACK
6
CONTINUOUS
10
95.6268
20
-213.629
11
95.6265
21
-213.629
0
LINE
8
BLACK
6
CONTINUOUS
10
95.6265
20
-213.629
11
95.6243
21
-213.63
0
LINE
8
BLACK
6
CONTINUOUS
10
95.6243
20
-213.63
11
95.6221
21
-213.631
0
LINE
8
BLACK
6
CONTINUOUS
10
95.6221
20
-213.631
11
95.4459
21
-213.666
0
LINE
8
BLACK
6
CONTINUOUS
10
95.4459
20
-213.666
11
95.4456
21
-213.666
0
LINE
8
BLACK
6
CONTINUOUS
10
95.4456
20
-213.666
11
95.4433
21
-213.666
0
LINE
8
BLACK
6
CONTINUOUS
10
95.4433
20
-213.666
11
95.4411
21
-213.666
0
LINE
8
BLACK
6
CONTINUOUS
10
95.4411
20
-213.666
11
95.2614
21
-213.666
0
LINE
8
BLACK
6
CONTINUOUS
10
95.2614
20
-213.666
11
95.2611
21
-213.666
0
LINE
8
BLACK
6
CONTINUOUS
10
95.2611
20
-213.666
11
95.2588
21
-213.666
0
LINE
8
BLACK
6
CONTINUOUS
10
95.2588
20
-213.666
11
95.2566
21
-213.665
0
LINE
8
BLACK
6
CONTINUOUS
10
95.2566
20
-213.665
11
95.0804
21
-213.631
0
LINE
8
BLACK
6
CONTINUOUS
10
95.0804
20
-213.631
11
95.0801
21
-213.63
0
LINE
8
BLACK
6
CONTINUOUS
10
95.0801
20
-213.63
11
95.0779
21
-213.63
0
LINE
8
BLACK
6
CONTINUOUS
10
95.0779
20
-213.63
11
95.0757
21
-213.629
0
LINE
8
BLACK
6
CONTINUOUS
10
95.0757
20
-213.629
11
94.9097
21
-213.561
0
LINE
8
BLACK
6
CONTINUOUS
10
94.9097
20
-213.561
11
94.9094
21
-213.56
0
LINE
8
BLACK
6
CONTINUOUS
10
94.9094
20
-213.56
11
94.9073
21
-213.559
0
LINE
8
BLACK
6
CONTINUOUS
10
94.9073
20
-213.559
11
94.9054
21
-213.558
0
LINE
8
BLACK
6
CONTINUOUS
10
94.9054
20
-213.558
11
94.7558
21
-213.459
0
LINE
8
BLACK
6
CONTINUOUS
10
94.7558
20
-213.459
11
94.7555
21
-213.459
0
LINE
8
BLACK
6
CONTINUOUS
10
94.7555
20
-213.459
11
94.7538
21
-213.457
0
LINE
8
BLACK
6
CONTINUOUS
10
94.7538
20
-213.457
11
94.752
21
-213.456
0
LINE
8
BLACK
6
CONTINUOUS
10
94.752
20
-213.456
11
94.6246
21
-213.329
0
LINE
8
BLACK
6
CONTINUOUS
10
94.6246
20
-213.329
11
94.6244
21
-213.329
0
LINE
8
BLACK
6
CONTINUOUS
10
94.6244
20
-213.329
11
94.6233
21
-213.328
0
LINE
8
BLACK
6
CONTINUOUS
10
94.6233
20
-213.328
11
94.6222
21
-213.326
0
LINE
8
BLACK
6
CONTINUOUS
10
94.6222
20
-213.326
11
94.566
21
-213.251
0
LINE
8
BLACK
6
CONTINUOUS
10
94.566
20
-213.251
11
94.5655
21
-213.25
0
LINE
8
BLACK
6
CONTINUOUS
10
94.5655
20
-213.25
11
76.9937
21
-186.245
0
LINE
8
BLACK
6
CONTINUOUS
10
76.9937
20
-186.245
11
76.992
21
-186.242
0
LINE
8
BLACK
6
CONTINUOUS
10
76.992
20
-186.242
11
76.9917
21
-186.241
0
LINE
8
BLACK
6
CONTINUOUS
10
76.9917
20
-186.241
11
76.9238
21
-186.076
0
LINE
8
BLACK
6
CONTINUOUS
10
76.9238
20
-186.076
11
76.9237
21
-186.076
0
LINE
8
BLACK
6
CONTINUOUS
10
76.9237
20
-186.076
11
76.9231
21
-186.074
0
LINE
8
BLACK
6
CONTINUOUS
10
76.9231
20
-186.074
11
76.9224
21
-186.072
0
LINE
8
BLACK
6
CONTINUOUS
10
76.9224
20
-186.072
11
76.8876
21
-185.895
0
LINE
8
BLACK
6
CONTINUOUS
10
76.8876
20
-185.895
11
76.8875
21
-185.895
0
LINE
8
BLACK
6
CONTINUOUS
10
76.8875
20
-185.895
11
76.8873
21
-185.893
0
LINE
8
BLACK
6
CONTINUOUS
10
76.8873
20
-185.893
11
76.8871
21
-185.89
0
LINE
8
BLACK
6
CONTINUOUS
10
76.8871
20
-185.89
11
76.8872
21
-185.711
0
LINE
8
BLACK
6
CONTINUOUS
10
76.8872
20
-185.711
11
76.8872
21
-185.711
0
LINE
8
BLACK
6
CONTINUOUS
10
76.8872
20
-185.711
11
76.8874
21
-185.708
0
LINE
8
BLACK
6
CONTINUOUS
10
76.8874
20
-185.708
11
76.8877
21
-185.706
0
LINE
8
BLACK
6
CONTINUOUS
10
76.8877
20
-185.706
11
76.9226
21
-185.53
0
LINE
8
BLACK
6
CONTINUOUS
10
76.9226
20
-185.53
11
76.9227
21
-185.529
0
LINE
8
BLACK
6
CONTINUOUS
10
76.9227
20
-185.529
11
76.9234
21
-185.527
0
LINE
8
BLACK
6
CONTINUOUS
10
76.9234
20
-185.527
11
76.924
21
-185.525
0
LINE
8
BLACK
6
CONTINUOUS
10
76.924
20
-185.525
11
76.9925
21
-185.359
0
LINE
8
BLACK
6
CONTINUOUS
10
76.9925
20
-185.359
11
76.9927
21
-185.359
0
LINE
8
BLACK
6
CONTINUOUS
10
76.9927
20
-185.359
11
76.9938
21
-185.357
0
LINE
8
BLACK
6
CONTINUOUS
10
76.9938
20
-185.357
11
76.9948
21
-185.355
0
LINE
8
BLACK
6
CONTINUOUS
10
76.9948
20
-185.355
11
77.0943
21
-185.205
0
LINE
8
BLACK
6
CONTINUOUS
10
77.0943
20
-185.205
11
77.0945
21
-185.205
0
LINE
8
BLACK
6
CONTINUOUS
10
77.0945
20
-185.205
11
77.0959
21
-185.203
0
LINE
8
BLACK
6
CONTINUOUS
10
77.0959
20
-185.203
11
77.0974
21
-185.201
0
LINE
8
BLACK
6
CONTINUOUS
10
77.0974
20
-185.201
11
77.224
21
-185.074
0
LINE
8
BLACK
6
CONTINUOUS
10
77.224
20
-185.074
11
77.2242
21
-185.074
0
LINE
8
BLACK
6
CONTINUOUS
10
77.2242
20
-185.074
11
77.2255
21
-185.073
0
LINE
8
BLACK
6
CONTINUOUS
10
77.2255
20
-185.073
11
77.2268
21
-185.072
0
LINE
8
BLACK
6
CONTINUOUS
10
77.2268
20
-185.072
11
77.3027
21
-185.015
0
LINE
8
BLACK
6
CONTINUOUS
10
77.3027
20
-185.015
11
77.303
21
-185.015
0
LINE
8
BLACK
6
CONTINUOUS
10
77.303
20
-185.015
11
77.3072
21
-185.012
0
LINE
8
BLACK
6
CONTINUOUS
10
77.3072
20
-185.012
11
77.3118
21
-185.011
0
LINE
8
BLACK
6
CONTINUOUS
10
77.3118
20
-185.011
11
77.3158
21
-185.01
0
LINE
8
BLACK
6
CONTINUOUS
10
77.3158
20
-185.01
11
106.23
21
-166.221
0
LINE
8
BLACK
6
CONTINUOUS
10
106.23
20
-166.221
11
106.23
21
-166.221
0
LINE
8
BLACK
6
CONTINUOUS
10
106.23
20
-166.221
11
106.309
21
-166.174
0
LINE
8
BLACK
6
CONTINUOUS
10
106.309
20
-166.174
11
106.449
21
-166.058
0
LINE
8
BLACK
6
CONTINUOUS
10
106.449
20
-166.058
11
106.563
21
-165.918
0
LINE
8
BLACK
6
CONTINUOUS
10
106.563
20
-165.918
11
106.648
21
-165.758
0
LINE
8
BLACK
6
CONTINUOUS
10
106.648
20
-165.758
11
106.701
21
-165.584
0
LINE
8
BLACK
6
CONTINUOUS
10
106.701
20
-165.584
11
106.719
21
-165.403
0
LINE
8
BLACK
6
CONTINUOUS
10
106.719
20
-165.403
11
106.718
21
-158.648
0
LINE
8
BLACK
6
CONTINUOUS
10
106.718
20
-158.648
11
103.948
21
-158.648
0
LINE
8
BLACK
6
CONTINUOUS
10
103.948
20
-158.648
11
103.945
21
-158.648
0
LINE
8
BLACK
6
CONTINUOUS
10
103.945
20
-158.648
11
103.944
21
-158.648
0
LINE
8
BLACK
6
CONTINUOUS
10
103.944
20
-158.648
11
103.239
21
-158.557
0
LINE
8
BLACK
6
CONTINUOUS
10
103.239
20
-158.557
11
103.239
21
-158.557
0
LINE
8
BLACK
6
CONTINUOUS
10
103.239
20
-158.557
11
103.239
21
-158.556
0
LINE
8
BLACK
6
CONTINUOUS
10
103.239
20
-158.556
11
103.237
21
-158.556
0
LINE
8
BLACK
6
CONTINUOUS
10
103.237
20
-158.556
11
103.235
21
-158.555
0
LINE
8
BLACK
6
CONTINUOUS
10
103.235
20
-158.555
11
102.559
21
-158.329
0
LINE
8
BLACK
6
CONTINUOUS
10
102.559
20
-158.329
11
102.558
21
-158.328
0
LINE
8
BLACK
6
CONTINUOUS
10
102.558
20
-158.328
11
102.556
21
-158.327
0
LINE
8
BLACK
6
CONTINUOUS
10
102.556
20
-158.327
11
102.554
21
-158.327
0
LINE
8
BLACK
6
CONTINUOUS
10
102.554
20
-158.327
11
101.935
21
-157.973
0
LINE
8
BLACK
6
CONTINUOUS
10
101.935
20
-157.973
11
101.935
21
-157.973
0
LINE
8
BLACK
6
CONTINUOUS
10
101.935
20
-157.973
11
101.935
21
-157.973
0
LINE
8
BLACK
6
CONTINUOUS
10
101.935
20
-157.973
11
101.935
21
-157.973
0
LINE
8
BLACK
6
CONTINUOUS
10
101.935
20
-157.973
11
101.933
21
-157.971
0
LINE
8
BLACK
6
CONTINUOUS
10
101.933
20
-157.971
11
101.931
21
-157.97
0
LINE
8
BLACK
6
CONTINUOUS
10
101.931
20
-157.97
11
101.393
21
-157.503
0
LINE
8
BLACK
6
CONTINUOUS
10
101.393
20
-157.503
11
101.393
21
-157.503
0
LINE
8
BLACK
6
CONTINUOUS
10
101.393
20
-157.503
11
101.393
21
-157.503
0
LINE
8
BLACK
6
CONTINUOUS
10
101.393
20
-157.503
11
101.393
21
-157.502
0
LINE
8
BLACK
6
CONTINUOUS
10
101.393
20
-157.502
11
101.391
21
-157.501
0
LINE
8
BLACK
6
CONTINUOUS
10
101.391
20
-157.501
11
101.39
21
-157.499
0
LINE
8
BLACK
6
CONTINUOUS
10
101.39
20
-157.499
11
100.952
21
-156.936
0
LINE
8
BLACK
6
CONTINUOUS
10
100.952
20
-156.936
11
100.952
21
-156.936
0
LINE
8
BLACK
6
CONTINUOUS
10
100.952
20
-156.936
11
100.952
21
-156.936
0
LINE
8
BLACK
6
CONTINUOUS
10
100.952
20
-156.936
11
100.952
21
-156.936
0
LINE
8
BLACK
6
CONTINUOUS
10
100.952
20
-156.936
11
100.951
21
-156.934
0
LINE
8
BLACK
6
CONTINUOUS
10
100.951
20
-156.934
11
100.95
21
-156.932
0
LINE
8
BLACK
6
CONTINUOUS
10
100.95
20
-156.932
11
100.63
21
-156.295
0
LINE
8
BLACK
6
CONTINUOUS
10
100.63
20
-156.295
11
100.63
21
-156.295
0
LINE
8
BLACK
6
CONTINUOUS
10
100.63
20
-156.295
11
100.63
21
-156.295
0
LINE
8
BLACK
6
CONTINUOUS
10
100.63
20
-156.295
11
100.63
21
-156.295
0
LINE
8
BLACK
6
CONTINUOUS
10
100.63
20
-156.295
11
100.629
21
-156.292
0
LINE
8
BLACK
6
CONTINUOUS
10
100.629
20
-156.292
11
100.628
21
-156.29
0
LINE
8
BLACK
6
CONTINUOUS
10
100.628
20
-156.29
11
100.439
21
-155.603
0
LINE
8
BLACK
6
CONTINUOUS
10
100.439
20
-155.603
11
100.438
21
-155.603
0
LINE
8
BLACK
6
CONTINUOUS
10
100.438
20
-155.603
11
100.438
21
-155.601
0
LINE
8
BLACK
6
CONTINUOUS
10
100.438
20
-155.601
11
100.438
21
-155.598
0
LINE
8
BLACK
6
CONTINUOUS
10
100.438
20
-155.598
11
100.385
21
-154.887
0
LINE
8
BLACK
6
CONTINUOUS
10
100.385
20
-154.887
11
100.385
21
-154.887
0
LINE
8
BLACK
6
CONTINUOUS
10
100.385
20
-154.887
11
100.385
21
-154.887
0
LINE
8
BLACK
6
CONTINUOUS
10
100.385
20
-154.887
11
100.385
21
-154.887
0
LINE
8
BLACK
6
CONTINUOUS
10
100.385
20
-154.887
11
100.385
21
-154.885
0
LINE
8
BLACK
6
CONTINUOUS
10
100.385
20
-154.885
11
100.385
21
-154.883
0
LINE
8
BLACK
6
CONTINUOUS
10
100.385
20
-154.883
11
100.471
21
-154.175
0
LINE
8
BLACK
6
CONTINUOUS
10
100.471
20
-154.175
11
100.471
21
-154.175
0
LINE
8
BLACK
6
CONTINUOUS
10
100.471
20
-154.175
11
100.472
21
-154.172
0
LINE
8
BLACK
6
CONTINUOUS
10
100.472
20
-154.172
11
100.472
21
-154.17
0
LINE
8
BLACK
6
CONTINUOUS
10
100.472
20
-154.17
11
100.695
21
-153.493
0
LINE
8
BLACK
6
CONTINUOUS
10
100.695
20
-153.493
11
100.695
21
-153.492
0
LINE
8
BLACK
6
CONTINUOUS
10
100.695
20
-153.492
11
100.696
21
-153.49
0
LINE
8
BLACK
6
CONTINUOUS
10
100.696
20
-153.49
11
100.697
21
-153.488
0
LINE
8
BLACK
6
CONTINUOUS
10
100.697
20
-153.488
11
101.046
21
-152.867
0
LINE
8
BLACK
6
CONTINUOUS
10
101.046
20
-152.867
11
101.046
21
-152.867
0
LINE
8
BLACK
6
CONTINUOUS
10
101.046
20
-152.867
11
101.048
21
-152.865
0
LINE
8
BLACK
6
CONTINUOUS
10
101.048
20
-152.865
11
101.049
21
-152.863
0
LINE
8
BLACK
6
CONTINUOUS
10
101.049
20
-152.863
11
101.512
21
-152.321
0
LINE
8
BLACK
6
CONTINUOUS
10
101.512
20
-152.321
11
101.513
21
-152.321
0
LINE
8
BLACK
6
CONTINUOUS
10
101.513
20
-152.321
11
101.514
21
-152.32
0
LINE
8
BLACK
6
CONTINUOUS
10
101.514
20
-152.32
11
101.516
21
-152.318
0
LINE
8
BLACK
6
CONTINUOUS
10
101.516
20
-152.318
11
102.076
21
-151.877
0
LINE
8
BLACK
6
CONTINUOUS
10
102.076
20
-151.877
11
102.076
21
-151.877
0
LINE
8
BLACK
6
CONTINUOUS
10
102.076
20
-151.877
11
102.078
21
-151.875
0
LINE
8
BLACK
6
CONTINUOUS
10
102.078
20
-151.875
11
102.08
21
-151.874
0
LINE
8
BLACK
6
CONTINUOUS
10
102.08
20
-151.874
11
102.715
21
-151.55
0
LINE
8
BLACK
6
CONTINUOUS
10
102.715
20
-151.55
11
102.715
21
-151.55
0
LINE
8
BLACK
6
CONTINUOUS
10
102.715
20
-151.55
11
102.717
21
-151.549
0
LINE
8
BLACK
6
CONTINUOUS
10
102.717
20
-151.549
11
102.719
21
-151.548
0
LINE
8
BLACK
6
CONTINUOUS
10
102.719
20
-151.548
11
103.405
21
-151.354
0
LINE
8
BLACK
6
CONTINUOUS
10
103.405
20
-151.354
11
103.405
21
-151.354
0
LINE
8
BLACK
6
CONTINUOUS
10
103.405
20
-151.354
11
103.408
21
-151.353
0
LINE
8
BLACK
6
CONTINUOUS
10
103.408
20
-151.353
11
103.41
21
-151.353
0
LINE
8
BLACK
6
CONTINUOUS
10
103.41
20
-151.353
11
104.071
21
-151.295
0
LINE
8
BLACK
6
CONTINUOUS
10
104.071
20
-151.295
11
104.071
21
-151.295
0
LINE
8
BLACK
6
CONTINUOUS
10
104.071
20
-151.295
11
104.072
21
-151.295
0
LINE
8
BLACK
6
CONTINUOUS
10
104.072
20
-151.295
11
106.719
21
-151.295
0
LINE
8
BLACK
6
CONTINUOUS
10
106.719
20
-151.295
11
106.718
21
-86.2953
0
LINE
8
BLACK
6
CONTINUOUS
10
106.718
20
-86.2953
11
106.718
21
-86.2916
0
LINE
8
BLACK
6
CONTINUOUS
10
106.718
20
-86.2916
11
106.719
21
-86.2905
0
LINE
8
BLACK
6
CONTINUOUS
10
106.719
20
-86.2905
11
106.718
21
-83.5013
0
LINE
8
BLACK
6
CONTINUOUS
10
106.718
20
-83.5013
11
106.719
21
-83.4976
0
LINE
8
BLACK
6
CONTINUOUS
10
106.719
20
-83.4976
11
106.719
21
-83.4972
0
LINE
8
BLACK
6
CONTINUOUS
10
106.719
20
-83.4972
11
106.81
21
-82.7923
0
LINE
8
BLACK
6
CONTINUOUS
10
106.81
20
-82.7923
11
106.81
21
-82.792
0
LINE
8
BLACK
6
CONTINUOUS
10
106.81
20
-82.792
11
106.811
21
-82.7897
0
LINE
8
BLACK
6
CONTINUOUS
10
106.811
20
-82.7897
11
106.811
21
-82.7875
0
LINE
8
BLACK
6
CONTINUOUS
10
106.811
20
-82.7875
11
107.038
21
-82.1117
0
LINE
8
BLACK
6
CONTINUOUS
10
107.038
20
-82.1117
11
107.038
21
-82.1114
0
LINE
8
BLACK
6
CONTINUOUS
10
107.038
20
-82.1114
11
107.039
21
-82.1093
0
LINE
8
BLACK
6
CONTINUOUS
10
107.039
20
-82.1093
11
107.04
21
-82.1073
0
LINE
8
BLACK
6
CONTINUOUS
10
107.04
20
-82.1073
11
107.394
21
-81.4884
0
LINE
8
BLACK
6
CONTINUOUS
10
107.394
20
-81.4884
11
107.394
21
-81.4884
0
LINE
8
BLACK
6
CONTINUOUS
10
107.394
20
-81.4884
11
107.394
21
-81.4884
0
LINE
8
BLACK
6
CONTINUOUS
10
107.394
20
-81.4884
11
107.394
21
-81.4881
0
LINE
8
BLACK
6
CONTINUOUS
10
107.394
20
-81.4881
11
107.395
21
-81.4863
0
LINE
8
BLACK
6
CONTINUOUS
10
107.395
20
-81.4863
11
107.397
21
-81.4844
0
LINE
8
BLACK
6
CONTINUOUS
10
107.397
20
-81.4844
11
107.864
21
-80.9461
0
LINE
8
BLACK
6
CONTINUOUS
10
107.864
20
-80.9461
11
107.864
21
-80.9458
0
LINE
8
BLACK
6
CONTINUOUS
10
107.864
20
-80.9458
11
107.866
21
-80.9442
0
LINE
8
BLACK
6
CONTINUOUS
10
107.866
20
-80.9442
11
107.867
21
-80.9427
0
LINE
8
BLACK
6
CONTINUOUS
10
107.867
20
-80.9427
11
108.43
21
-80.5054
0
LINE
8
BLACK
6
CONTINUOUS
10
108.43
20
-80.5054
11
108.431
21
-80.5052
0
LINE
8
BLACK
6
CONTINUOUS
10
108.431
20
-80.5052
11
108.433
21
-80.504
0
LINE
8
BLACK
6
CONTINUOUS
10
108.433
20
-80.504
11
108.434
21
-80.5028
0
LINE
8
BLACK
6
CONTINUOUS
10
108.434
20
-80.5028
11
109.072
21
-80.1831
0
LINE
8
BLACK
6
CONTINUOUS
10
109.072
20
-80.1831
11
109.072
21
-80.183
0
LINE
8
BLACK
6
CONTINUOUS
10
109.072
20
-80.183
11
109.074
21
-80.1822
0
LINE
8
BLACK
6
CONTINUOUS
10
109.074
20
-80.1822
11
109.076
21
-80.1814
0
LINE
8
BLACK
6
CONTINUOUS
10
109.076
20
-80.1814
11
109.763
21
-79.9916
0
LINE
8
BLACK
6
CONTINUOUS
10
109.763
20
-79.9916
11
109.763
21
-79.9915
0
LINE
8
BLACK
6
CONTINUOUS
10
109.763
20
-79.9915
11
109.763
21
-79.9915
0
LINE
8
BLACK
6
CONTINUOUS
10
109.763
20
-79.9915
11
109.764
21
-79.9915
0
LINE
8
BLACK
6
CONTINUOUS
10
109.764
20
-79.9915
11
109.766
21
-79.9911
0
LINE
8
BLACK
6
CONTINUOUS
10
109.766
20
-79.9911
11
109.768
21
-79.9907
0
LINE
8
BLACK
6
CONTINUOUS
10
109.768
20
-79.9907
11
110.479
21
-79.938
0
LINE
8
BLACK
6
CONTINUOUS
10
110.479
20
-79.938
11
110.479
21
-79.938
0
LINE
8
BLACK
6
CONTINUOUS
10
110.479
20
-79.938
11
110.479
21
-79.938
0
LINE
8
BLACK
6
CONTINUOUS
10
110.479
20
-79.938
11
110.482
21
-79.938
0
LINE
8
BLACK
6
CONTINUOUS
10
110.482
20
-79.938
11
110.484
21
-79.9381
0
LINE
8
BLACK
6
CONTINUOUS
10
110.484
20
-79.9381
11
111.192
21
-80.0244
0
LINE
8
BLACK
6
CONTINUOUS
10
111.192
20
-80.0244
11
111.192
21
-80.0245
0
LINE
8
BLACK
6
CONTINUOUS
10
111.192
20
-80.0245
11
111.194
21
-80.025
0
LINE
8
BLACK
6
CONTINUOUS
10
111.194
20
-80.025
11
111.196
21
-80.0255
0
LINE
8
BLACK
6
CONTINUOUS
10
111.196
20
-80.0255
11
111.874
21
-80.2476
0
LINE
8
BLACK
6
CONTINUOUS
10
111.874
20
-80.2476
11
111.874
21
-80.2478
0
LINE
8
BLACK
6
CONTINUOUS
10
111.874
20
-80.2478
11
111.876
21
-80.2487
0
LINE
8
BLACK
6
CONTINUOUS
10
111.876
20
-80.2487
11
111.878
21
-80.2496
0
LINE
8
BLACK
6
CONTINUOUS
10
111.878
20
-80.2496
11
112.499
21
-80.5991
0
LINE
8
BLACK
6
CONTINUOUS
10
112.499
20
-80.5991
11
112.499
21
-80.5991
0
LINE
8
BLACK
6
CONTINUOUS
10
112.499
20
-80.5991
11
112.499
21
-80.5991
0
LINE
8
BLACK
6
CONTINUOUS
10
112.499
20
-80.5991
11
112.5
21
-80.5993
0
LINE
8
BLACK
6
CONTINUOUS
10
112.5
20
-80.5993
11
112.502
21
-80.6006
0
LINE
8
BLACK
6
CONTINUOUS
10
112.502
20
-80.6006
11
112.503
21
-80.6019
0
LINE
8
BLACK
6
CONTINUOUS
10
112.503
20
-80.6019
11
113.045
21
-81.0654
0
LINE
8
BLACK
6
CONTINUOUS
10
113.045
20
-81.0654
11
113.045
21
-81.0656
0
LINE
8
BLACK
6
CONTINUOUS
10
113.045
20
-81.0656
11
113.047
21
-81.0673
0
LINE
8
BLACK
6
CONTINUOUS
10
113.047
20
-81.0673
11
113.048
21
-81.0689
0
LINE
8
BLACK
6
CONTINUOUS
10
113.048
20
-81.0689
11
113.49
21
-81.6288
0
LINE
8
BLACK
6
CONTINUOUS
10
113.49
20
-81.6288
11
113.49
21
-81.6291
0
LINE
8
BLACK
6
CONTINUOUS
10
113.49
20
-81.6291
11
113.491
21
-81.631
0
LINE
8
BLACK
6
CONTINUOUS
10
113.491
20
-81.631
11
113.492
21
-81.6329
0
LINE
8
BLACK
6
CONTINUOUS
10
113.492
20
-81.6329
11
113.816
21
-82.2678
0
LINE
8
BLACK
6
CONTINUOUS
10
113.816
20
-82.2678
11
113.817
21
-82.2681
0
LINE
8
BLACK
6
CONTINUOUS
10
113.817
20
-82.2681
11
113.817
21
-82.2703
0
LINE
8
BLACK
6
CONTINUOUS
10
113.817
20
-82.2703
11
113.818
21
-82.2724
0
LINE
8
BLACK
6
CONTINUOUS
10
113.818
20
-82.2724
11
114.013
21
-82.9582
0
LINE
8
BLACK
6
CONTINUOUS
10
114.013
20
-82.9582
11
114.013
21
-82.9585
0
LINE
8
BLACK
6
CONTINUOUS
10
114.013
20
-82.9585
11
114.013
21
-82.9607
0
LINE
8
BLACK
6
CONTINUOUS
10
114.013
20
-82.9607
11
114.014
21
-82.9628
0
LINE
8
BLACK
6
CONTINUOUS
10
114.014
20
-82.9628
11
114.072
21
-83.6244
0
LINE
8
BLACK
6
CONTINUOUS
10
114.072
20
-83.6244
11
114.072
21
-83.6245
0
LINE
8
BLACK
6
CONTINUOUS
10
114.072
20
-83.6245
11
114.072
21
-83.6254
0
LINE
8
BLACK
6
CONTINUOUS
10
114.072
20
-83.6254
11
114.071
21
-86.2715
0
LINE
8
BLACK
6
CONTINUOUS
10
114.071
20
-86.2715
11
125.476
21
-86.2715
0
LINE
8
BLACK
6
CONTINUOUS
10
125.476
20
-86.2715
11
125.484
21
-86.2715
0
LINE
8
BLACK
6
CONTINUOUS
10
125.484
20
-86.2715
11
125.752
21
-86.2434
0
LINE
8
BLACK
6
CONTINUOUS
10
125.752
20
-86.2434
11
126.008
21
-86.1642
0
LINE
8
BLACK
6
CONTINUOUS
10
126.008
20
-86.1642
11
126.243
21
-86.0368
0
LINE
8
BLACK
6
CONTINUOUS
10
126.243
20
-86.0368
11
126.449
21
-85.8662
0
LINE
8
BLACK
6
CONTINUOUS
10
126.449
20
-85.8662
11
126.619
21
-85.6587
0
LINE
8
BLACK
6
CONTINUOUS
10
126.619
20
-85.6587
11
126.744
21
-85.4223
0
LINE
8
BLACK
6
CONTINUOUS
10
126.744
20
-85.4223
11
126.822
21
-85.166
0
LINE
8
BLACK
6
CONTINUOUS
10
126.822
20
-85.166
11
126.848
21
-84.8983
0
LINE
8
BLACK
6
CONTINUOUS
10
126.848
20
-84.8983
11
126.848
21
-84.3903
0
LINE
8
BLACK
6
CONTINUOUS
10
126.848
20
-84.3903
11
126.848
21
-84.3891
0
LINE
8
BLACK
6
CONTINUOUS
10
126.848
20
-84.3891
11
126.848
21
-84.3891
0
LINE
8
BLACK
6
CONTINUOUS
10
126.848
20
-84.3891
11
126.859
21
-84.2781
0
LINE
8
BLACK
6
CONTINUOUS
10
126.859
20
-84.2781
11
126.859
21
-84.2777
0
LINE
8
BLACK
6
CONTINUOUS
10
126.859
20
-84.2777
11
126.86
21
-84.2755
0
LINE
8
BLACK
6
CONTINUOUS
10
126.86
20
-84.2755
11
126.86
21
-84.2733
0
LINE
8
BLACK
6
CONTINUOUS
10
126.86
20
-84.2733
11
126.892
21
-84.1665
0
LINE
8
BLACK
6
CONTINUOUS
10
126.892
20
-84.1665
11
126.892
21
-84.1662
0
LINE
8
BLACK
6
CONTINUOUS
10
126.892
20
-84.1662
11
126.893
21
-84.1641
0
LINE
8
BLACK
6
CONTINUOUS
10
126.893
20
-84.1641
11
126.894
21
-84.162
0
LINE
8
BLACK
6
CONTINUOUS
10
126.894
20
-84.162
11
126.946
21
-84.0635
0
LINE
8
BLACK
6
CONTINUOUS
10
126.946
20
-84.0635
11
126.947
21
-84.0632
0
LINE
8
BLACK
6
CONTINUOUS
10
126.947
20
-84.0632
11
126.948
21
-84.0613
0
LINE
8
BLACK
6
CONTINUOUS
10
126.948
20
-84.0613
11
126.949
21
-84.0594
0
LINE
8
BLACK
6
CONTINUOUS
10
126.949
20
-84.0594
11
127.02
21
-83.973
0
LINE
8
BLACK
6
CONTINUOUS
10
127.02
20
-83.973
11
127.02
21
-83.973
0
LINE
8
BLACK
6
CONTINUOUS
10
127.02
20
-83.973
11
127.02
21
-83.973
0
LINE
8
BLACK
6
CONTINUOUS
10
127.02
20
-83.973
11
127.02
21
-83.9727
0
LINE
8
BLACK
6
CONTINUOUS
10
127.02
20
-83.9727
11
127.021
21
-83.9712
0
LINE
8
BLACK
6
CONTINUOUS
10
127.021
20
-83.9712
11
127.023
21
-83.9695
0
LINE
8
BLACK
6
CONTINUOUS
10
127.023
20
-83.9695
11
127.109
21
-83.8984
0
LINE
8
BLACK
6
CONTINUOUS
10
127.109
20
-83.8984
11
127.109
21
-83.8984
0
LINE
8
BLACK
6
CONTINUOUS
10
127.109
20
-83.8984
11
127.109
21
-83.8984
0
LINE
8
BLACK
6
CONTINUOUS
10
127.109
20
-83.8984
11
127.109
21
-83.8982
0
LINE
8
BLACK
6
CONTINUOUS
10
127.109
20
-83.8982
11
127.111
21
-83.897
0
LINE
8
BLACK
6
CONTINUOUS
10
127.111
20
-83.897
11
127.113
21
-83.8957
0
LINE
8
BLACK
6
CONTINUOUS
10
127.113
20
-83.8957
11
127.211
21
-83.8427
0
LINE
8
BLACK
6
CONTINUOUS
10
127.211
20
-83.8427
11
127.211
21
-83.8427
0
LINE
8
BLACK
6
CONTINUOUS
10
127.211
20
-83.8427
11
127.211
21
-83.8427
0
LINE
8
BLACK
6
CONTINUOUS
10
127.211
20
-83.8427
11
127.211
21
-83.8425
0
LINE
8
BLACK
6
CONTINUOUS
10
127.211
20
-83.8425
11
127.214
21
-83.8416
0
LINE
8
BLACK
6
CONTINUOUS
10
127.214
20
-83.8416
11
127.216
21
-83.8408
0
LINE
8
BLACK
6
CONTINUOUS
10
127.216
20
-83.8408
11
127.322
21
-83.8078
0
LINE
8
BLACK
6
CONTINUOUS
10
127.322
20
-83.8078
11
127.323
21
-83.8077
0
LINE
8
BLACK
6
CONTINUOUS
10
127.323
20
-83.8077
11
127.325
21
-83.8073
0
LINE
8
BLACK
6
CONTINUOUS
10
127.325
20
-83.8073
11
127.327
21
-83.8068
0
LINE
8
BLACK
6
CONTINUOUS
10
127.327
20
-83.8068
11
127.438
21
-83.7952
0
LINE
8
BLACK
6
CONTINUOUS
10
127.438
20
-83.7952
11
127.438
21
-83.7951
0
LINE
8
BLACK
6
CONTINUOUS
10
127.438
20
-83.7951
11
127.439
21
-83.7951
0
LINE
8
BLACK
6
CONTINUOUS
10
127.439
20
-83.7951
11
127.44
21
-83.795
0
LINE
8
BLACK
6
CONTINUOUS
10
127.44
20
-83.795
11
127.443
21
-83.795
0
LINE
8
BLACK
6
CONTINUOUS
10
127.443
20
-83.795
11
127.443
21
-83.795
0
LINE
8
BLACK
6
CONTINUOUS
10
127.443
20
-83.795
11
144.526
21
-83.795
0
LINE
8
BLACK
6
CONTINUOUS
10
144.526
20
-83.795
11
144.534
21
-83.795
0
LINE
8
BLACK
6
CONTINUOUS
10
144.534
20
-83.795
11
144.802
21
-83.7669
0
LINE
8
BLACK
6
CONTINUOUS
10
144.802
20
-83.7669
11
145.058
21
-83.6877
0
LINE
8
BLACK
6
CONTINUOUS
10
145.058
20
-83.6877
11
145.293
21
-83.5603
0
LINE
8
BLACK
6
CONTINUOUS
10
145.293
20
-83.5603
11
145.499
21
-83.3897
0
LINE
8
BLACK
6
CONTINUOUS
10
145.499
20
-83.3897
11
145.669
21
-83.1822
0
LINE
8
BLACK
6
CONTINUOUS
10
145.669
20
-83.1822
11
145.794
21
-82.9458
0
LINE
8
BLACK
6
CONTINUOUS
10
145.794
20
-82.9458
11
145.872
21
-82.6895
0
LINE
8
BLACK
6
CONTINUOUS
10
145.872
20
-82.6895
11
145.898
21
-82.4218
0
LINE
8
BLACK
6
CONTINUOUS
10
145.898
20
-82.4218
11
145.898
21
-82.1043
0
LINE
8
BLACK
6
CONTINUOUS
10
145.898
20
-82.1043
11
145.898
21
-82.1031
0
LINE
8
BLACK
6
CONTINUOUS
10
145.898
20
-82.1031
11
145.898
21
-82.1031
0
LINE
8
BLACK
6
CONTINUOUS
10
145.898
20
-82.1031
11
145.909
21
-81.9921
0
LINE
8
BLACK
6
CONTINUOUS
10
145.909
20
-81.9921
11
145.909
21
-81.9917
0
LINE
8
BLACK
6
CONTINUOUS
10
145.909
20
-81.9917
11
145.91
21
-81.9895
0
LINE
8
BLACK
6
CONTINUOUS
10
145.91
20
-81.9895
11
145.91
21
-81.9873
0
LINE
8
BLACK
6
CONTINUOUS
10
145.91
20
-81.9873
11
145.942
21
-81.8805
0
LINE
8
BLACK
6
CONTINUOUS
10
145.942
20
-81.8805
11
145.942
21
-81.8802
0
LINE
8
BLACK
6
CONTINUOUS
10
145.942
20
-81.8802
11
145.943
21
-81.8781
0
LINE
8
BLACK
6
CONTINUOUS
10
145.943
20
-81.8781
11
145.944
21
-81.876
0
LINE
8
BLACK
6
CONTINUOUS
10
145.944
20
-81.876
11
145.996
21
-81.7775
0
LINE
8
BLACK
6
CONTINUOUS
10
145.996
20
-81.7775
11
145.997
21
-81.7772
0
LINE
8
BLACK
6
CONTINUOUS
10
145.997
20
-81.7772
11
145.998
21
-81.7753
0
LINE
8
BLACK
6
CONTINUOUS
10
145.998
20
-81.7753
11
145.999
21
-81.7734
0
LINE
8
BLACK
6
CONTINUOUS
10
145.999
20
-81.7734
11
146.07
21
-81.687
0
LINE
8
BLACK
6
CONTINUOUS
10
146.07
20
-81.687
11
146.07
21
-81.687
0
LINE
8
BLACK
6
CONTINUOUS
10
146.07
20
-81.687
11
146.07
21
-81.687
0
LINE
8
BLACK
6
CONTINUOUS
10
146.07
20
-81.687
11
146.07
21
-81.6867
0
LINE
8
BLACK
6
CONTINUOUS
10
146.07
20
-81.6867
11
146.071
21
-81.6852
0
LINE
8
BLACK
6
CONTINUOUS
10
146.071
20
-81.6852
11
146.073
21
-81.6835
0
LINE
8
BLACK
6
CONTINUOUS
10
146.073
20
-81.6835
11
146.159
21
-81.6124
0
LINE
8
BLACK
6
CONTINUOUS
10
146.159
20
-81.6124
11
146.159
21
-81.6124
0
LINE
8
BLACK
6
CONTINUOUS
10
146.159
20
-81.6124
11
146.159
21
-81.6124
0
LINE
8
BLACK
6
CONTINUOUS
10
146.159
20
-81.6124
11
146.159
21
-81.6122
0
LINE
8
BLACK
6
CONTINUOUS
10
146.159
20
-81.6122
11
146.161
21
-81.611
0
LINE
8
BLACK
6
CONTINUOUS
10
146.161
20
-81.611
11
146.163
21
-81.6097
0
LINE
8
BLACK
6
CONTINUOUS
10
146.163
20
-81.6097
11
146.261
21
-81.5567
0
LINE
8
BLACK
6
CONTINUOUS
10
146.261
20
-81.5567
11
146.261
21
-81.5567
0
LINE
8
BLACK
6
CONTINUOUS
10
146.261
20
-81.5567
11
146.261
21
-81.5567
0
LINE
8
BLACK
6
CONTINUOUS
10
146.261
20
-81.5567
11
146.261
21
-81.5565
0
LINE
8
BLACK
6
CONTINUOUS
10
146.261
20
-81.5565
11
146.264
21
-81.5556
0
LINE
8
BLACK
6
CONTINUOUS
10
146.264
20
-81.5556
11
146.266
21
-81.5548
0
LINE
8
BLACK
6
CONTINUOUS
10
146.266
20
-81.5548
11
146.372
21
-81.5218
0
LINE
8
BLACK
6
CONTINUOUS
10
146.372
20
-81.5218
11
146.373
21
-81.5217
0
LINE
8
BLACK
6
CONTINUOUS
10
146.373
20
-81.5217
11
146.375
21
-81.5213
0
LINE
8
BLACK
6
CONTINUOUS
10
146.375
20
-81.5213
11
146.377
21
-81.5208
0
LINE
8
BLACK
6
CONTINUOUS
10
146.377
20
-81.5208
11
146.488
21
-81.5092
0
LINE
8
BLACK
6
CONTINUOUS
10
146.488
20
-81.5092
11
146.488
21
-81.5091
0
LINE
8
BLACK
6
CONTINUOUS
10
146.488
20
-81.5091
11
146.489
21
-81.5091
0
LINE
8
BLACK
6
CONTINUOUS
10
146.489
20
-81.5091
11
146.49
21
-81.509
0
LINE
8
BLACK
6
CONTINUOUS
10
146.49
20
-81.509
11
146.493
21
-81.509
0
LINE
8
BLACK
6
CONTINUOUS
10
146.493
20
-81.509
11
146.493
21
-81.509
0
LINE
8
BLACK
6
CONTINUOUS
10
146.493
20
-81.509
11
168.34
21
-81.509
0
LINE
8
BLACK
6
CONTINUOUS
10
168.34
20
-81.509
11
168.341
21
-81.5091
0
LINE
8
BLACK
6
CONTINUOUS
10
168.341
20
-81.5091
11
168.341
21
-81.5091
0
LINE
8
BLACK
6
CONTINUOUS
10
168.341
20
-81.5091
11
168.452
21
-81.52
0
LINE
8
BLACK
6
CONTINUOUS
10
168.452
20
-81.52
11
168.452
21
-81.52
0
LINE
8
BLACK
6
CONTINUOUS
10
168.452
20
-81.52
11
168.455
21
-81.5205
0
LINE
8
BLACK
6
CONTINUOUS
10
168.455
20
-81.5205
11
168.457
21
-81.521
0
LINE
8
BLACK
6
CONTINUOUS
10
168.457
20
-81.521
11
168.564
21
-81.5532
0
LINE
8
BLACK
6
CONTINUOUS
10
168.564
20
-81.5532
11
168.564
21
-81.5533
0
LINE
8
BLACK
6
CONTINUOUS
10
168.564
20
-81.5533
11
168.566
21
-81.5542
0
LINE
8
BLACK
6
CONTINUOUS
10
168.566
20
-81.5542
11
168.568
21
-81.555
0
LINE
8
BLACK
6
CONTINUOUS
10
168.568
20
-81.555
11
168.666
21
-81.6074
0
LINE
8
BLACK
6
CONTINUOUS
10
168.666
20
-81.6074
11
168.667
21
-81.6076
0
LINE
8
BLACK
6
CONTINUOUS
10
168.667
20
-81.6076
11
168.669
21
-81.6089
0
LINE
8
BLACK
6
CONTINUOUS
10
168.669
20
-81.6089
11
168.671
21
-81.6101
0
LINE
8
BLACK
6
CONTINUOUS
10
168.671
20
-81.6101
11
168.757
21
-81.6806
0
LINE
8
BLACK
6
CONTINUOUS
10
168.757
20
-81.6806
11
168.757
21
-81.6806
0
LINE
8
BLACK
6
CONTINUOUS
10
168.757
20
-81.6806
11
168.757
21
-81.6806
0
LINE
8
BLACK
6
CONTINUOUS
10
168.757
20
-81.6806
11
168.757
21
-81.6808
0
LINE
8
BLACK
6
CONTINUOUS
10
168.757
20
-81.6808
11
168.759
21
-81.6824
0
LINE
8
BLACK
6
CONTINUOUS
10
168.759
20
-81.6824
11
168.76
21
-81.684
0
LINE
8
BLACK
6
CONTINUOUS
10
168.76
20
-81.684
11
168.832
21
-81.77
0
LINE
8
BLACK
6
CONTINUOUS
10
168.832
20
-81.77
11
168.832
21
-81.77
0
LINE
8
BLACK
6
CONTINUOUS
10
168.832
20
-81.77
11
168.832
21
-81.77
0
LINE
8
BLACK
6
CONTINUOUS
10
168.832
20
-81.77
11
168.832
21
-81.7703
0
LINE
8
BLACK
6
CONTINUOUS
10
168.832
20
-81.7703
11
168.833
21
-81.7722
0
LINE
8
BLACK
6
CONTINUOUS
10
168.833
20
-81.7722
11
168.834
21
-81.774
0
LINE
8
BLACK
6
CONTINUOUS
10
168.834
20
-81.774
11
168.887
21
-81.8721
0
LINE
8
BLACK
6
CONTINUOUS
10
168.887
20
-81.8721
11
168.887
21
-81.8721
0
LINE
8
BLACK
6
CONTINUOUS
10
168.887
20
-81.8721
11
168.887
21
-81.8721
0
LINE
8
BLACK
6
CONTINUOUS
10
168.887
20
-81.8721
11
168.888
21
-81.8725
0
LINE
8
BLACK
6
CONTINUOUS
10
168.888
20
-81.8725
11
168.888
21
-81.8746
0
LINE
8
BLACK
6
CONTINUOUS
10
168.888
20
-81.8746
11
168.889
21
-81.8766
0
LINE
8
BLACK
6
CONTINUOUS
10
168.889
20
-81.8766
11
168.922
21
-81.9832
0
LINE
8
BLACK
6
CONTINUOUS
10
168.922
20
-81.9832
11
168.922
21
-81.9835
0
LINE
8
BLACK
6
CONTINUOUS
10
168.922
20
-81.9835
11
168.923
21
-81.9858
0
LINE
8
BLACK
6
CONTINUOUS
10
168.923
20
-81.9858
11
168.923
21
-81.988
0
LINE
8
BLACK
6
CONTINUOUS
10
168.923
20
-81.988
11
168.935
21
-82.0989
0
LINE
8
BLACK
6
CONTINUOUS
10
168.935
20
-82.0989
11
168.935
21
-82.0992
0
LINE
8
BLACK
6
CONTINUOUS
10
168.935
20
-82.0992
11
168.935
21
-82.1003
0
LINE
8
BLACK
6
CONTINUOUS
10
168.935
20
-82.1003
11
168.935
21
-82.1014
0
LINE
8
BLACK
6
CONTINUOUS
10
168.935
20
-82.1014
11
168.935
21
-82.1042
0
LINE
8
BLACK
6
CONTINUOUS
10
168.935
20
-82.1042
11
168.935
21
-82.1043
0
LINE
8
BLACK
6
CONTINUOUS
10
168.935
20
-82.1043
11
168.935
21
-82.4864
0
LINE
8
BLACK
6
CONTINUOUS
10
168.935
20
-82.4864
11
168.935
21
-82.4949
0
LINE
8
BLACK
6
CONTINUOUS
10
168.935
20
-82.4949
11
168.963
21
-82.7624
0
LINE
8
BLACK
6
CONTINUOUS
10
168.963
20
-82.7624
11
169.042
21
-83.0181
0
LINE
8
BLACK
6
CONTINUOUS
10
169.042
20
-83.0181
11
169.17
21
-83.2536
0
LINE
8
BLACK
6
CONTINUOUS
10
169.17
20
-83.2536
11
169.34
21
-83.4599
0
LINE
8
BLACK
6
CONTINUOUS
10
169.34
20
-83.4599
11
169.548
21
-83.6292
0
LINE
8
BLACK
6
CONTINUOUS
10
169.548
20
-83.6292
11
169.784
21
-83.7549
0
LINE
8
BLACK
6
CONTINUOUS
10
169.784
20
-83.7549
11
170.041
21
-83.8323
0
LINE
8
BLACK
6
CONTINUOUS
10
170.041
20
-83.8323
11
170.308
21
-83.8585
0
LINE
8
BLACK
6
CONTINUOUS
10
170.308
20
-83.8585
11
186.564
21
-83.8585
0
LINE
8
BLACK
6
CONTINUOUS
10
186.564
20
-83.8585
11
186.565
21
-83.8586
0
LINE
8
BLACK
6
CONTINUOUS
10
186.565
20
-83.8586
11
186.565
21
-83.8586
0
LINE
8
BLACK
6
CONTINUOUS
10
186.565
20
-83.8586
11
186.837
21
-83.8852
0
LINE
8
BLACK
6
CONTINUOUS
10
186.837
20
-83.8852
11
186.837
21
-83.8853
0
LINE
8
BLACK
6
CONTINUOUS
10
186.837
20
-83.8853
11
186.839
21
-83.8857
0
LINE
8
BLACK
6
CONTINUOUS
10
186.839
20
-83.8857
11
186.842
21
-83.8862
0
LINE
8
BLACK
6
CONTINUOUS
10
186.842
20
-83.8862
11
187.103
21
-83.965
0
LINE
8
BLACK
6
CONTINUOUS
10
187.103
20
-83.965
11
187.103
21
-83.9651
0
LINE
8
BLACK
6
CONTINUOUS
10
187.103
20
-83.9651
11
187.105
21
-83.966
0
LINE
8
BLACK
6
CONTINUOUS
10
187.105
20
-83.966
11
187.107
21
-83.9668
0
LINE
8
BLACK
6
CONTINUOUS
10
187.107
20
-83.9668
11
187.348
21
-84.0948
0
LINE
8
BLACK
6
CONTINUOUS
10
187.348
20
-84.0948
11
187.348
21
-84.095
0
LINE
8
BLACK
6
CONTINUOUS
10
187.348
20
-84.095
11
187.35
21
-84.0963
0
LINE
8
BLACK
6
CONTINUOUS
10
187.35
20
-84.0963
11
187.352
21
-84.0975
0
LINE
8
BLACK
6
CONTINUOUS
10
187.352
20
-84.0975
11
187.563
21
-84.2699
0
LINE
8
BLACK
6
CONTINUOUS
10
187.563
20
-84.2699
11
187.563
21
-84.2699
0
LINE
8
BLACK
6
CONTINUOUS
10
187.563
20
-84.2699
11
187.563
21
-84.2699
0
LINE
8
BLACK
6
CONTINUOUS
10
187.563
20
-84.2699
11
187.563
21
-84.2701
0
LINE
8
BLACK
6
CONTINUOUS
10
187.563
20
-84.2701
11
187.565
21
-84.2717
0
LINE
8
BLACK
6
CONTINUOUS
10
187.565
20
-84.2717
11
187.567
21
-84.2733
0
LINE
8
BLACK
6
CONTINUOUS
10
187.567
20
-84.2733
11
187.74
21
-84.4834
0
LINE
8
BLACK
6
CONTINUOUS
10
187.74
20
-84.4834
11
187.741
21
-84.4836
0
LINE
8
BLACK
6
CONTINUOUS
10
187.741
20
-84.4836
11
187.742
21
-84.4856
0
LINE
8
BLACK
6
CONTINUOUS
10
187.742
20
-84.4856
11
187.743
21
-84.4874
0
LINE
8
BLACK
6
CONTINUOUS
10
187.743
20
-84.4874
11
187.873
21
-84.7272
0
LINE
8
BLACK
6
CONTINUOUS
10
187.873
20
-84.7272
11
187.873
21
-84.7272
0
LINE
8
BLACK
6
CONTINUOUS
10
187.873
20
-84.7272
11
187.873
21
-84.7273
0
LINE
8
BLACK
6
CONTINUOUS
10
187.873
20
-84.7273
11
187.873
21
-84.7276
0
LINE
8
BLACK
6
CONTINUOUS
10
187.873
20
-84.7276
11
187.874
21
-84.7297
0
LINE
8
BLACK
6
CONTINUOUS
10
187.874
20
-84.7297
11
187.875
21
-84.7317
0
LINE
8
BLACK
6
CONTINUOUS
10
187.875
20
-84.7317
11
187.955
21
-84.9922
0
LINE
8
BLACK
6
CONTINUOUS
10
187.955
20
-84.9922
11
187.955
21
-84.9925
0
LINE
8
BLACK
6
CONTINUOUS
10
187.955
20
-84.9925
11
187.956
21
-84.9948
0
LINE
8
BLACK
6
CONTINUOUS
10
187.956
20
-84.9948
11
187.956
21
-84.997
0
LINE
8
BLACK
6
CONTINUOUS
10
187.956
20
-84.997
11
187.985
21
-85.2681
0
LINE
8
BLACK
6
CONTINUOUS
10
187.985
20
-85.2681
11
187.985
21
-85.2685
0
LINE
8
BLACK
6
CONTINUOUS
10
187.985
20
-85.2685
11
187.985
21
-85.2696
0
LINE
8
BLACK
6
CONTINUOUS
10
187.985
20
-85.2696
11
187.985
21
-85.2707
0
LINE
8
BLACK
6
CONTINUOUS
10
187.985
20
-85.2707
11
187.985
21
-85.2792
0
LINE
8
BLACK
6
CONTINUOUS
10
187.985
20
-85.2792
11
187.985
21
-85.2793
0
LINE
8
BLACK
6
CONTINUOUS
10
187.985
20
-85.2793
11
187.985
21
-87.2489
0
LINE
8
BLACK
6
CONTINUOUS
10
187.985
20
-87.2489
11
187.985
21
-87.2574
0
LINE
8
BLACK
6
CONTINUOUS
10
187.985
20
-87.2574
11
188.013
21
-87.5249
0
LINE
8
BLACK
6
CONTINUOUS
10
188.013
20
-87.5249
11
188.092
21
-87.7806
0
LINE
8
BLACK
6
CONTINUOUS
10
188.092
20
-87.7806
11
188.22
21
-88.0161
0
LINE
8
BLACK
6
CONTINUOUS
10
188.22
20
-88.0161
11
188.39
21
-88.2224
0
LINE
8
BLACK
6
CONTINUOUS
10
188.39
20
-88.2224
11
188.598
21
-88.3917
0
LINE
8
BLACK
6
CONTINUOUS
10
188.598
20
-88.3917
11
188.834
21
-88.5174
0
LINE
8
BLACK
6
CONTINUOUS
10
188.834
20
-88.5174
11
189.091
21
-88.5948
0
LINE
8
BLACK
6
CONTINUOUS
10
189.091
20
-88.5948
11
189.358
21
-88.621
0
LINE
8
BLACK
6
CONTINUOUS
10
189.358
20
-88.621
11
215.812
21
-88.621
0
LINE
8
BLACK
6
CONTINUOUS
10
215.812
20
-88.621
11
215.811
21
-85.8508
0
LINE
8
BLACK
6
CONTINUOUS
10
215.811
20
-85.8508
11
215.812
21
-85.8471
0
LINE
8
BLACK
6
CONTINUOUS
10
215.812
20
-85.8471
11
215.812
21
-85.8467
0
LINE
8
BLACK
6
CONTINUOUS
10
215.812
20
-85.8467
11
215.903
21
-85.1418
0
LINE
8
BLACK
6
CONTINUOUS
10
215.903
20
-85.1418
11
215.903
21
-85.1415
0
LINE
8
BLACK
6
CONTINUOUS
10
215.903
20
-85.1415
11
215.904
21
-85.1392
0
LINE
8
BLACK
6
CONTINUOUS
10
215.904
20
-85.1392
11
215.904
21
-85.137
0
LINE
8
BLACK
6
CONTINUOUS
10
215.904
20
-85.137
11
216.131
21
-84.4612
0
LINE
8
BLACK
6
CONTINUOUS
10
216.131
20
-84.4612
11
216.131
21
-84.4609
0
LINE
8
BLACK
6
CONTINUOUS
10
216.131
20
-84.4609
11
216.132
21
-84.4588
0
LINE
8
BLACK
6
CONTINUOUS
10
216.132
20
-84.4588
11
216.133
21
-84.4568
0
LINE
8
BLACK
6
CONTINUOUS
10
216.133
20
-84.4568
11
216.487
21
-83.8379
0
LINE
8
BLACK
6
CONTINUOUS
10
216.487
20
-83.8379
11
216.487
21
-83.8379
0
LINE
8
BLACK
6
CONTINUOUS
10
216.487
20
-83.8379
11
216.487
21
-83.8379
0
LINE
8
BLACK
6
CONTINUOUS
10
216.487
20
-83.8379
11
216.487
21
-83.8376
0
LINE
8
BLACK
6
CONTINUOUS
10
216.487
20
-83.8376
11
216.488
21
-83.8358
0
LINE
8
BLACK
6
CONTINUOUS
10
216.488
20
-83.8358
11
216.49
21
-83.8339
0
LINE
8
BLACK
6
CONTINUOUS
10
216.49
20
-83.8339
11
216.957
21
-83.2956
0
LINE
8
BLACK
6
CONTINUOUS
10
216.957
20
-83.2956
11
216.957
21
-83.2953
0
LINE
8
BLACK
6
CONTINUOUS
10
216.957
20
-83.2953
11
216.959
21
-83.2937
0
LINE
8
BLACK
6
CONTINUOUS
10
216.959
20
-83.2937
11
216.96
21
-83.2922
0
LINE
8
BLACK
6
CONTINUOUS
10
216.96
20
-83.2922
11
217.523
21
-82.8549
0
LINE
8
BLACK
6
CONTINUOUS
10
217.523
20
-82.8549
11
217.524
21
-82.8547
0
LINE
8
BLACK
6
CONTINUOUS
10
217.524
20
-82.8547
11
217.526
21
-82.8535
0
LINE
8
BLACK
6
CONTINUOUS
10
217.526
20
-82.8535
11
217.527
21
-82.8523
0
LINE
8
BLACK
6
CONTINUOUS
10
217.527
20
-82.8523
11
218.165
21
-82.5326
0
LINE
8
BLACK
6
CONTINUOUS
10
218.165
20
-82.5326
11
218.165
21
-82.5325
0
LINE
8
BLACK
6
CONTINUOUS
10
218.165
20
-82.5325
11
218.167
21
-82.5317
0
LINE
8
BLACK
6
CONTINUOUS
10
218.167
20
-82.5317
11
218.169
21
-82.5309
0
LINE
8
BLACK
6
CONTINUOUS
10
218.169
20
-82.5309
11
218.856
21
-82.3411
0
LINE
8
BLACK
6
CONTINUOUS
10
218.856
20
-82.3411
11
218.856
21
-82.341
0
LINE
8
BLACK
6
CONTINUOUS
10
218.856
20
-82.341
11
218.856
21
-82.341
0
LINE
8
BLACK
6
CONTINUOUS
10
218.856
20
-82.341
11
218.857
21
-82.341
0
LINE
8
BLACK
6
CONTINUOUS
10
218.857
20
-82.341
11
218.859
21
-82.3406
0
LINE
8
BLACK
6
CONTINUOUS
10
218.859
20
-82.3406
11
218.861
21
-82.3402
0
LINE
8
BLACK
6
CONTINUOUS
10
218.861
20
-82.3402
11
219.572
21
-82.2875
0
LINE
8
BLACK
6
CONTINUOUS
10
219.572
20
-82.2875
11
219.572
21
-82.2875
0
LINE
8
BLACK
6
CONTINUOUS
10
219.572
20
-82.2875
11
219.572
21
-82.2875
0
LINE
8
BLACK
6
CONTINUOUS
10
127.442
20
-83.845
11
127.335
21
-83.8563
0
LINE
8
BLACK
6
CONTINUOUS
10
127.335
20
-83.8563
11
127.233
21
-83.8878
0
LINE
8
BLACK
6
CONTINUOUS
10
127.233
20
-83.8878
11
127.139
21
-83.9385
0
LINE
8
BLACK
6
CONTINUOUS
10
127.139
20
-83.9385
11
127.057
21
-84.0065
0
LINE
8
BLACK
6
CONTINUOUS
10
127.057
20
-84.0065
11
126.989
21
-84.0891
0
LINE
8
BLACK
6
CONTINUOUS
10
126.989
20
-84.0891
11
126.939
21
-84.1833
0
LINE
8
BLACK
6
CONTINUOUS
10
126.939
20
-84.1833
11
126.909
21
-84.2854
0
LINE
8
BLACK
6
CONTINUOUS
10
126.909
20
-84.2854
11
126.898
21
-84.3927
0
LINE
8
BLACK
6
CONTINUOUS
10
126.898
20
-84.3927
11
126.898
21
-84.9007
0
LINE
8
BLACK
6
CONTINUOUS
10
126.898
20
-84.9007
11
126.898
21
-84.9019
0
LINE
8
BLACK
6
CONTINUOUS
10
126.898
20
-84.9019
11
126.898
21
-84.9019
0
LINE
8
BLACK
6
CONTINUOUS
10
126.898
20
-84.9019
11
126.871
21
-85.1733
0
LINE
8
BLACK
6
CONTINUOUS
10
126.871
20
-85.1733
11
126.871
21
-85.1736
0
LINE
8
BLACK
6
CONTINUOUS
10
126.871
20
-85.1736
11
126.871
21
-85.1759
0
LINE
8
BLACK
6
CONTINUOUS
10
126.871
20
-85.1759
11
126.87
21
-85.1781
0
LINE
8
BLACK
6
CONTINUOUS
10
126.87
20
-85.1781
11
126.792
21
-85.4391
0
LINE
8
BLACK
6
CONTINUOUS
10
126.792
20
-85.4391
11
126.791
21
-85.4394
0
LINE
8
BLACK
6
CONTINUOUS
10
126.791
20
-85.4394
11
126.791
21
-85.4415
0
LINE
8
BLACK
6
CONTINUOUS
10
126.791
20
-85.4415
11
126.79
21
-85.4436
0
LINE
8
BLACK
6
CONTINUOUS
10
126.79
20
-85.4436
11
126.662
21
-85.6843
0
LINE
8
BLACK
6
CONTINUOUS
10
126.662
20
-85.6843
11
126.661
21
-85.6846
0
LINE
8
BLACK
6
CONTINUOUS
10
126.661
20
-85.6846
11
126.66
21
-85.6865
0
LINE
8
BLACK
6
CONTINUOUS
10
126.66
20
-85.6865
11
126.659
21
-85.6884
0
LINE
8
BLACK
6
CONTINUOUS
10
126.659
20
-85.6884
11
126.487
21
-85.8997
0
LINE
8
BLACK
6
CONTINUOUS
10
126.487
20
-85.8997
11
126.486
21
-85.8999
0
LINE
8
BLACK
6
CONTINUOUS
10
126.486
20
-85.8999
11
126.485
21
-85.9016
0
LINE
8
BLACK
6
CONTINUOUS
10
126.485
20
-85.9016
11
126.483
21
-85.9031
0
LINE
8
BLACK
6
CONTINUOUS
10
126.483
20
-85.9031
11
126.273
21
-86.0769
0
LINE
8
BLACK
6
CONTINUOUS
10
126.273
20
-86.0769
11
126.273
21
-86.0771
0
LINE
8
BLACK
6
CONTINUOUS
10
126.273
20
-86.0771
11
126.271
21
-86.0784
0
LINE
8
BLACK
6
CONTINUOUS
10
126.271
20
-86.0784
11
126.269
21
-86.0797
0
LINE
8
BLACK
6
CONTINUOUS
10
126.269
20
-86.0797
11
126.029
21
-86.2093
0
LINE
8
BLACK
6
CONTINUOUS
10
126.029
20
-86.2093
11
126.029
21
-86.2095
0
LINE
8
BLACK
6
CONTINUOUS
10
126.029
20
-86.2095
11
126.027
21
-86.2104
0
LINE
8
BLACK
6
CONTINUOUS
10
126.027
20
-86.2104
11
126.025
21
-86.2112
0
LINE
8
BLACK
6
CONTINUOUS
10
126.025
20
-86.2112
11
125.764
21
-86.2918
0
LINE
8
BLACK
6
CONTINUOUS
10
125.764
20
-86.2918
11
125.764
21
-86.2919
0
LINE
8
BLACK
6
CONTINUOUS
10
125.764
20
-86.2919
11
125.762
21
-86.2924
0
LINE
8
BLACK
6
CONTINUOUS
10
125.762
20
-86.2924
11
125.76
21
-86.2928
0
LINE
8
BLACK
6
CONTINUOUS
10
125.76
20
-86.2928
11
125.488
21
-86.3213
0
LINE
8
BLACK
6
CONTINUOUS
10
125.488
20
-86.3213
11
125.488
21
-86.3214
0
LINE
8
BLACK
6
CONTINUOUS
10
125.488
20
-86.3214
11
125.487
21
-86.3214
0
LINE
8
BLACK
6
CONTINUOUS
10
125.487
20
-86.3214
11
125.486
21
-86.3215
0
LINE
8
BLACK
6
CONTINUOUS
10
125.486
20
-86.3215
11
125.477
21
-86.3215
0
LINE
8
BLACK
6
CONTINUOUS
10
125.477
20
-86.3215
11
125.477
21
-86.3215
0
LINE
8
BLACK
6
CONTINUOUS
10
125.477
20
-86.3215
11
114.047
21
-86.3215
0
LINE
8
BLACK
6
CONTINUOUS
10
114.047
20
-86.3215
11
114.046
21
-86.3216
0
LINE
8
BLACK
6
CONTINUOUS
10
114.046
20
-86.3216
11
114.045
21
-86.3215
0
LINE
8
BLACK
6
CONTINUOUS
10
114.045
20
-86.3215
11
114.045
21
-86.3215
0
LINE
8
BLACK
6
CONTINUOUS
10
114.045
20
-86.3215
11
114.041
21
-86.3211
0
LINE
8
BLACK
6
CONTINUOUS
10
114.041
20
-86.3211
11
114.041
21
-86.3211
0
LINE
8
BLACK
6
CONTINUOUS
10
114.041
20
-86.3211
11
114.041
21
-86.3211
0
LINE
8
BLACK
6
CONTINUOUS
10
114.041
20
-86.3211
11
114.04
21
-86.3207
0
LINE
8
BLACK
6
CONTINUOUS
10
114.04
20
-86.3207
11
114.036
21
-86.3197
0
LINE
8
BLACK
6
CONTINUOUS
10
114.036
20
-86.3197
11
114.036
21
-86.3197
0
LINE
8
BLACK
6
CONTINUOUS
10
114.036
20
-86.3197
11
114.036
21
-86.3197
0
LINE
8
BLACK
6
CONTINUOUS
10
114.036
20
-86.3197
11
114.036
21
-86.3195
0
LINE
8
BLACK
6
CONTINUOUS
10
114.036
20
-86.3195
11
114.032
21
-86.3174
0
LINE
8
BLACK
6
CONTINUOUS
10
114.032
20
-86.3174
11
114.028
21
-86.3143
0
LINE
8
BLACK
6
CONTINUOUS
10
114.028
20
-86.3143
11
114.028
21
-86.3141
0
LINE
8
BLACK
6
CONTINUOUS
10
114.028
20
-86.3141
11
114.028
21
-86.3137
0
LINE
8
BLACK
6
CONTINUOUS
10
114.028
20
-86.3137
11
114.025
21
-86.3105
0
LINE
8
BLACK
6
CONTINUOUS
10
114.025
20
-86.3105
11
114.025
21
-86.3105
0
LINE
8
BLACK
6
CONTINUOUS
10
114.025
20
-86.3105
11
114.025
21
-86.3104
0
LINE
8
BLACK
6
CONTINUOUS
10
114.025
20
-86.3104
11
114.024
21
-86.3092
0
LINE
8
BLACK
6
CONTINUOUS
10
114.024
20
-86.3092
11
114.023
21
-86.3061
0
LINE
8
BLACK
6
CONTINUOUS
10
114.023
20
-86.3061
11
114.021
21
-86.3014
0
LINE
8
BLACK
6
CONTINUOUS
10
114.021
20
-86.3014
11
114.021
21
-86.2965
0
LINE
8
BLACK
6
CONTINUOUS
10
114.021
20
-86.2965
11
114.021
21
-86.2953
0
LINE
8
BLACK
6
CONTINUOUS
10
114.021
20
-86.2953
11
114.022
21
-83.6277
0
LINE
8
BLACK
6
CONTINUOUS
10
114.022
20
-83.6277
11
113.964
21
-82.9695
0
LINE
8
BLACK
6
CONTINUOUS
10
113.964
20
-82.9695
11
113.771
21
-82.2884
0
LINE
8
BLACK
6
CONTINUOUS
10
113.771
20
-82.2884
11
113.449
21
-81.6578
0
LINE
8
BLACK
6
CONTINUOUS
10
113.449
20
-81.6578
11
113.011
21
-81.1018
0
LINE
8
BLACK
6
CONTINUOUS
10
113.011
20
-81.1018
11
112.473
21
-80.6415
0
LINE
8
BLACK
6
CONTINUOUS
10
112.473
20
-80.6415
11
111.856
21
-80.2944
0
LINE
8
BLACK
6
CONTINUOUS
10
111.856
20
-80.2944
11
111.183
21
-80.0738
0
LINE
8
BLACK
6
CONTINUOUS
10
111.183
20
-80.0738
11
110.48
21
-79.988
0
LINE
8
BLACK
6
CONTINUOUS
10
110.48
20
-79.988
11
109.774
21
-80.0404
0
LINE
8
BLACK
6
CONTINUOUS
10
109.774
20
-80.0404
11
109.092
21
-80.2289
0
LINE
8
BLACK
6
CONTINUOUS
10
109.092
20
-80.2289
11
108.459
21
-80.5464
0
LINE
8
BLACK
6
CONTINUOUS
10
108.459
20
-80.5464
11
107.9
21
-80.9807
0
LINE
8
BLACK
6
CONTINUOUS
10
107.9
20
-80.9807
11
107.436
21
-81.5154
0
LINE
8
BLACK
6
CONTINUOUS
10
107.436
20
-81.5154
11
107.085
21
-82.13
0
LINE
8
BLACK
6
CONTINUOUS
10
107.085
20
-82.13
11
106.859
21
-82.8011
0
LINE
8
BLACK
6
CONTINUOUS
10
106.859
20
-82.8011
11
106.768
21
-83.5041
0
LINE
8
BLACK
6
CONTINUOUS
10
106.768
20
-83.5041
11
106.768
21
-86.2977
0
LINE
8
BLACK
6
CONTINUOUS
10
106.768
20
-86.2977
11
106.768
21
-86.3014
0
LINE
8
BLACK
6
CONTINUOUS
10
106.768
20
-86.3014
11
106.768
21
-86.3025
0
LINE
8
BLACK
6
CONTINUOUS
10
106.768
20
-86.3025
11
106.768
21
-151.319
0
LINE
8
BLACK
6
CONTINUOUS
10
106.768
20
-151.319
11
106.769
21
-151.321
0
LINE
8
BLACK
6
CONTINUOUS
10
106.769
20
-151.321
11
106.768
21
-151.322
0
LINE
8
BLACK
6
CONTINUOUS
10
106.768
20
-151.322
11
106.768
21
-151.322
0
LINE
8
BLACK
6
CONTINUOUS
10
106.768
20
-151.322
11
106.768
21
-151.325
0
LINE
8
BLACK
6
CONTINUOUS
10
106.768
20
-151.325
11
106.767
21
-151.33
0
LINE
8
BLACK
6
CONTINUOUS
10
106.767
20
-151.33
11
106.767
21
-151.33
0
LINE
8
BLACK
6
CONTINUOUS
10
106.767
20
-151.33
11
106.767
21
-151.33
0
LINE
8
BLACK
6
CONTINUOUS
10
106.767
20
-151.33
11
106.766
21
-151.332
0
LINE
8
BLACK
6
CONTINUOUS
10
106.766
20
-151.332
11
106.764
21
-151.334
0
LINE
8
BLACK
6
CONTINUOUS
10
106.764
20
-151.334
11
106.764
21
-151.334
0
LINE
8
BLACK
6
CONTINUOUS
10
106.764
20
-151.334
11
106.764
21
-151.334
0
LINE
8
BLACK
6
CONTINUOUS
10
106.764
20
-151.334
11
106.763
21
-151.336
0
LINE
8
BLACK
6
CONTINUOUS
10
106.763
20
-151.336
11
106.761
21
-151.338
0
LINE
8
BLACK
6
CONTINUOUS
10
106.761
20
-151.338
11
106.761
21
-151.338
0
LINE
8
BLACK
6
CONTINUOUS
10
106.761
20
-151.338
11
106.761
21
-151.338
0
LINE
8
BLACK
6
CONTINUOUS
10
106.761
20
-151.338
11
106.759
21
-151.34
0
LINE
8
BLACK
6
CONTINUOUS
10
106.759
20
-151.34
11
106.757
21
-151.341
0
LINE
8
BLACK
6
CONTINUOUS
10
106.757
20
-151.341
11
106.757
21
-151.341
0
LINE
8
BLACK
6
CONTINUOUS
10
106.757
20
-151.341
11
106.757
21
-151.341
0
LINE
8
BLACK
6
CONTINUOUS
10
106.757
20
-151.341
11
106.754
21
-151.343
0
LINE
8
BLACK
6
CONTINUOUS
10
106.754
20
-151.343
11
106.753
21
-151.344
0
LINE
8
BLACK
6
CONTINUOUS
10
106.753
20
-151.344
11
106.753
21
-151.344
0
LINE
8
BLACK
6
CONTINUOUS
10
106.753
20
-151.344
11
106.753
21
-151.344
0
LINE
8
BLACK
6
CONTINUOUS
10
106.753
20
-151.344
11
106.751
21
-151.344
0
LINE
8
BLACK
6
CONTINUOUS
10
106.751
20
-151.344
11
106.748
21
-151.345
0
LINE
8
BLACK
6
CONTINUOUS
10
106.748
20
-151.345
11
106.748
21
-151.345
0
LINE
8
BLACK
6
CONTINUOUS
10
106.748
20
-151.345
11
106.748
21
-151.345
0
LINE
8
BLACK
6
CONTINUOUS
10
106.748
20
-151.345
11
106.745
21
-151.345
0
LINE
8
BLACK
6
CONTINUOUS
10
106.745
20
-151.345
11
106.745
21
-151.345
0
LINE
8
BLACK
6
CONTINUOUS
10
106.745
20
-151.345
11
106.743
21
-151.346
0
LINE
8
BLACK
6
CONTINUOUS
10
106.743
20
-151.346
11
106.742
21
-151.345
0
LINE
8
BLACK
6
CONTINUOUS
10
106.742
20
-151.345
11
104.075
21
-151.345
0
LINE
8
BLACK
6
CONTINUOUS
10
104.075
20
-151.345
11
103.417
21
-151.402
0
LINE
8
BLACK
6
CONTINUOUS
10
103.417
20
-151.402
11
102.735
21
-151.596
0
LINE
8
BLACK
6
CONTINUOUS
10
102.735
20
-151.596
11
102.105
21
-151.918
0
LINE
8
BLACK
6
CONTINUOUS
10
102.105
20
-151.918
11
101.549
21
-152.356
0
LINE
8
BLACK
6
CONTINUOUS
10
101.549
20
-152.356
11
101.088
21
-152.894
0
LINE
8
BLACK
6
CONTINUOUS
10
101.088
20
-152.894
11
100.741
21
-153.511
0
LINE
8
BLACK
6
CONTINUOUS
10
100.741
20
-153.511
11
100.521
21
-154.183
0
LINE
8
BLACK
6
CONTINUOUS
10
100.521
20
-154.183
11
100.435
21
-154.886
0
LINE
8
BLACK
6
CONTINUOUS
10
100.435
20
-154.886
11
100.487
21
-155.592
0
LINE
8
BLACK
6
CONTINUOUS
10
100.487
20
-155.592
11
100.676
21
-156.275
0
LINE
8
BLACK
6
CONTINUOUS
10
100.676
20
-156.275
11
100.993
21
-156.907
0
LINE
8
BLACK
6
CONTINUOUS
10
100.993
20
-156.907
11
101.428
21
-157.466
0
LINE
8
BLACK
6
CONTINUOUS
10
101.428
20
-157.466
11
101.962
21
-157.931
0
LINE
8
BLACK
6
CONTINUOUS
10
101.962
20
-157.931
11
102.577
21
-158.282
0
LINE
8
BLACK
6
CONTINUOUS
10
102.577
20
-158.282
11
103.248
21
-158.507
0
LINE
8
BLACK
6
CONTINUOUS
10
103.248
20
-158.507
11
103.951
21
-158.598
0
LINE
8
BLACK
6
CONTINUOUS
10
103.951
20
-158.598
11
106.742
21
-158.598
0
LINE
8
BLACK
6
CONTINUOUS
10
106.742
20
-158.598
11
106.743
21
-158.598
0
LINE
8
BLACK
6
CONTINUOUS
10
106.743
20
-158.598
11
106.745
21
-158.598
0
LINE
8
BLACK
6
CONTINUOUS
10
106.745
20
-158.598
11
106.745
21
-158.598
0
LINE
8
BLACK
6
CONTINUOUS
10
106.745
20
-158.598
11
106.748
21
-158.598
0
LINE
8
BLACK
6
CONTINUOUS
10
106.748
20
-158.598
11
106.753
21
-158.6
0
LINE
8
BLACK
6
CONTINUOUS
10
106.753
20
-158.6
11
106.757
21
-158.602
0
LINE
8
BLACK
6
CONTINUOUS
10
106.757
20
-158.602
11
106.761
21
-158.605
0
LINE
8
BLACK
6
CONTINUOUS
10
106.761
20
-158.605
11
106.764
21
-158.609
0
LINE
8
BLACK
6
CONTINUOUS
10
106.764
20
-158.609
11
106.767
21
-158.613
0
LINE
8
BLACK
6
CONTINUOUS
10
106.767
20
-158.613
11
106.768
21
-158.618
0
LINE
8
BLACK
6
CONTINUOUS
10
106.768
20
-158.618
11
106.769
21
-158.623
0
LINE
8
BLACK
6
CONTINUOUS
10
106.769
20
-158.623
11
106.768
21
-158.624
0
LINE
8
BLACK
6
CONTINUOUS
10
106.768
20
-158.624
11
106.768
21
-165.406
0
LINE
8
BLACK
6
CONTINUOUS
10
106.768
20
-165.406
11
106.768
21
-165.407
0
LINE
8
BLACK
6
CONTINUOUS
10
106.768
20
-165.407
11
106.768
21
-165.407
0
LINE
8
BLACK
6
CONTINUOUS
10
106.768
20
-165.407
11
106.75
21
-165.592
0
LINE
8
BLACK
6
CONTINUOUS
10
106.75
20
-165.592
11
106.75
21
-165.592
0
LINE
8
BLACK
6
CONTINUOUS
10
106.75
20
-165.592
11
106.75
21
-165.594
0
LINE
8
BLACK
6
CONTINUOUS
10
106.75
20
-165.594
11
106.749
21
-165.597
0
LINE
8
BLACK
6
CONTINUOUS
10
106.749
20
-165.597
11
106.696
21
-165.775
0
LINE
8
BLACK
6
CONTINUOUS
10
106.696
20
-165.775
11
106.695
21
-165.775
0
LINE
8
BLACK
6
CONTINUOUS
10
106.695
20
-165.775
11
106.695
21
-165.777
0
LINE
8
BLACK
6
CONTINUOUS
10
106.695
20
-165.777
11
106.694
21
-165.779
0
LINE
8
BLACK
6
CONTINUOUS
10
106.694
20
-165.779
11
106.606
21
-165.943
0
LINE
8
BLACK
6
CONTINUOUS
10
106.606
20
-165.943
11
106.606
21
-165.944
0
LINE
8
BLACK
6
CONTINUOUS
10
106.606
20
-165.944
11
106.605
21
-165.945
0
LINE
8
BLACK
6
CONTINUOUS
10
106.605
20
-165.945
11
106.604
21
-165.947
0
LINE
8
BLACK
6
CONTINUOUS
10
106.604
20
-165.947
11
106.486
21
-166.091
0
LINE
8
BLACK
6
CONTINUOUS
10
106.486
20
-166.091
11
106.486
21
-166.092
0
LINE
8
BLACK
6
CONTINUOUS
10
106.486
20
-166.092
11
106.484
21
-166.093
0
LINE
8
BLACK
6
CONTINUOUS
10
106.484
20
-166.093
11
106.483
21
-166.095
0
LINE
8
BLACK
6
CONTINUOUS
10
106.483
20
-166.095
11
106.34
21
-166.213
0
LINE
8
BLACK
6
CONTINUOUS
10
106.34
20
-166.213
11
106.339
21
-166.213
0
LINE
8
BLACK
6
CONTINUOUS
10
106.339
20
-166.213
11
106.338
21
-166.214
0
LINE
8
BLACK
6
CONTINUOUS
10
106.338
20
-166.214
11
106.337
21
-166.215
0
LINE
8
BLACK
6
CONTINUOUS
10
106.337
20
-166.215
11
106.256
21
-166.264
0
LINE
8
BLACK
6
CONTINUOUS
10
106.256
20
-166.264
11
77.3302
21
-185.061
0
LINE
8
BLACK
6
CONTINUOUS
10
77.3302
20
-185.061
11
77.3269
21
-185.062
0
LINE
8
BLACK
6
CONTINUOUS
10
77.3269
20
-185.062
11
77.3222
21
-185.064
0
LINE
8
BLACK
6
CONTINUOUS
10
77.3222
20
-185.064
11
77.321
21
-185.064
0
LINE
8
BLACK
6
CONTINUOUS
10
77.321
20
-185.064
11
77.2581
21
-185.111
0
LINE
8
BLACK
6
CONTINUOUS
10
77.2581
20
-185.111
11
77.1346
21
-185.235
0
LINE
8
BLACK
6
CONTINUOUS
10
77.1346
20
-185.235
11
77.0378
21
-185.38
0
LINE
8
BLACK
6
CONTINUOUS
10
77.0378
20
-185.38
11
76.9712
21
-185.542
0
LINE
8
BLACK
6
CONTINUOUS
10
76.9712
20
-185.542
11
76.9372
21
-185.713
0
LINE
8
BLACK
6
CONTINUOUS
10
76.9372
20
-185.713
11
76.9371
21
-185.888
0
LINE
8
BLACK
6
CONTINUOUS
10
76.9371
20
-185.888
11
76.971
21
-186.059
0
LINE
8
BLACK
6
CONTINUOUS
10
76.971
20
-186.059
11
77.0376
21
-186.221
0
LINE
8
BLACK
6
CONTINUOUS
10
77.0376
20
-186.221
11
94.6063
21
-213.221
0
LINE
8
BLACK
6
CONTINUOUS
10
94.6063
20
-213.221
11
94.6612
21
-213.295
0
LINE
8
BLACK
6
CONTINUOUS
10
94.6612
20
-213.295
11
94.7855
21
-213.419
0
LINE
8
BLACK
6
CONTINUOUS
10
94.7855
20
-213.419
11
94.931
21
-213.515
0
LINE
8
BLACK
6
CONTINUOUS
10
94.931
20
-213.515
11
95.0925
21
-213.582
0
LINE
8
BLACK
6
CONTINUOUS
10
95.0925
20
-213.582
11
95.2639
21
-213.616
0
LINE
8
BLACK
6
CONTINUOUS
10
95.2639
20
-213.616
11
95.4386
21
-213.616
0
LINE
8
BLACK
6
CONTINUOUS
10
95.4386
20
-213.616
11
95.6101
21
-213.582
0
LINE
8
BLACK
6
CONTINUOUS
10
95.6101
20
-213.582
11
95.7717
21
-213.516
0
LINE
8
BLACK
6
CONTINUOUS
10
95.7717
20
-213.516
11
109.522
21
-204.577
0
LINE
8
BLACK
6
CONTINUOUS
10
109.522
20
-204.577
11
109.523
21
-204.577
0
LINE
8
BLACK
6
CONTINUOUS
10
109.523
20
-204.577
11
109.524
21
-204.576
0
LINE
8
BLACK
6
CONTINUOUS
10
109.524
20
-204.576
11
109.525
21
-204.575
0
LINE
8
BLACK
6
CONTINUOUS
10
109.525
20
-204.575
11
109.526
21
-204.575
0
LINE
8
BLACK
6
CONTINUOUS
10
109.526
20
-204.575
11
109.527
21
-204.574
0
LINE
8
BLACK
6
CONTINUOUS
10
109.527
20
-204.574
11
109.528
21
-204.574
0
LINE
8
BLACK
6
CONTINUOUS
10
109.528
20
-204.574
11
109.528
21
-204.574
0
LINE
8
BLACK
6
CONTINUOUS
10
109.528
20
-204.574
11
109.53
21
-204.573
0
LINE
8
BLACK
6
CONTINUOUS
10
109.53
20
-204.573
11
109.532
21
-204.573
0
LINE
8
BLACK
6
CONTINUOUS
10
109.532
20
-204.573
11
109.532
21
-204.572
0
LINE
8
BLACK
6
CONTINUOUS
10
109.532
20
-204.572
11
109.533
21
-204.572
0
LINE
8
BLACK
6
CONTINUOUS
10
109.533
20
-204.572
11
109.535
21
-204.572
0
LINE
8
BLACK
6
CONTINUOUS
10
109.535
20
-204.572
11
109.537
21
-204.572
0
LINE
8
BLACK
6
CONTINUOUS
10
109.537
20
-204.572
11
109.537
21
-204.572
0
LINE
8
BLACK
6
CONTINUOUS
10
109.537
20
-204.572
11
109.538
21
-204.572
0
LINE
8
BLACK
6
CONTINUOUS
10
109.538
20
-204.572
11
109.54
21
-204.572
0
LINE
8
BLACK
6
CONTINUOUS
10
109.54
20
-204.572
11
109.542
21
-204.572
0
LINE
8
BLACK
6
CONTINUOUS
10
109.542
20
-204.572
11
109.542
21
-204.572
0
LINE
8
BLACK
6
CONTINUOUS
10
109.542
20
-204.572
11
109.543
21
-204.572
0
LINE
8
BLACK
6
CONTINUOUS
10
109.543
20
-204.572
11
109.545
21
-204.573
0
LINE
8
BLACK
6
CONTINUOUS
10
109.545
20
-204.573
11
109.546
21
-204.574
0
LINE
8
BLACK
6
CONTINUOUS
10
109.546
20
-204.574
11
109.547
21
-204.574
0
LINE
8
BLACK
6
CONTINUOUS
10
109.547
20
-204.574
11
109.547
21
-204.574
0
LINE
8
BLACK
6
CONTINUOUS
10
109.547
20
-204.574
11
109.549
21
-204.575
0
LINE
8
BLACK
6
CONTINUOUS
10
109.549
20
-204.575
11
109.551
21
-204.576
0
LINE
8
BLACK
6
CONTINUOUS
10
109.551
20
-204.576
11
109.551
21
-204.576
0
LINE
8
BLACK
6
CONTINUOUS
10
109.551
20
-204.576
11
109.552
21
-204.576
0
LINE
8
BLACK
6
CONTINUOUS
10
109.552
20
-204.576
11
109.553
21
-204.578
0
LINE
8
BLACK
6
CONTINUOUS
10
109.553
20
-204.578
11
109.555
21
-204.579
0
LINE
8
BLACK
6
CONTINUOUS
10
109.555
20
-204.579
11
109.555
21
-204.579
0
LINE
8
BLACK
6
CONTINUOUS
10
109.555
20
-204.579
11
109.555
21
-204.579
0
LINE
8
BLACK
6
CONTINUOUS
10
109.555
20
-204.579
11
109.557
21
-204.581
0
LINE
8
BLACK
6
CONTINUOUS
10
109.557
20
-204.581
11
109.557
21
-204.582
0
LINE
8
BLACK
6
CONTINUOUS
10
109.557
20
-204.582
11
109.557
21
-204.582
0
LINE
8
BLACK
6
CONTINUOUS
10
109.557
20
-204.582
11
109.559
21
-204.583
0
LINE
8
BLACK
6
CONTINUOUS
10
109.559
20
-204.583
11
109.559
21
-204.584
0
LINE
8
BLACK
6
CONTINUOUS
10
109.559
20
-204.584
11
111.342
21
-207.092
0
LINE
8
BLACK
6
CONTINUOUS
10
111.342
20
-207.092
11
111.735
21
-207.603
0
LINE
8
BLACK
6
CONTINUOUS
10
111.735
20
-207.603
11
112.258
21
-208.068
0
LINE
8
BLACK
6
CONTINUOUS
10
112.258
20
-208.068
11
112.861
21
-208.423
0
LINE
8
BLACK
6
CONTINUOUS
10
112.861
20
-208.423
11
113.521
21
-208.655
0
LINE
8
BLACK
6
CONTINUOUS
10
113.521
20
-208.655
11
114.214
21
-208.753
0
LINE
8
BLACK
6
CONTINUOUS
10
114.214
20
-208.753
11
114.913
21
-208.715
0
LINE
8
BLACK
6
CONTINUOUS
10
114.913
20
-208.715
11
115.591
21
-208.542
0
LINE
8
BLACK
6
CONTINUOUS
10
115.591
20
-208.542
11
116.223
21
-208.241
0
LINE
8
BLACK
6
CONTINUOUS
10
116.223
20
-208.241
11
116.784
21
-207.823
0
LINE
8
BLACK
6
CONTINUOUS
10
116.784
20
-207.823
11
117.253
21
-207.304
0
LINE
8
BLACK
6
CONTINUOUS
10
117.253
20
-207.304
11
117.612
21
-206.703
0
LINE
8
BLACK
6
CONTINUOUS
10
117.612
20
-206.703
11
117.848
21
-206.044
0
LINE
8
BLACK
6
CONTINUOUS
10
117.848
20
-206.044
11
117.952
21
-205.352
0
LINE
8
BLACK
6
CONTINUOUS
10
117.952
20
-205.352
11
117.918
21
-204.653
0
LINE
8
BLACK
6
CONTINUOUS
10
117.918
20
-204.653
11
117.75
21
-203.974
0
LINE
8
BLACK
6
CONTINUOUS
10
117.75
20
-203.974
11
117.453
21
-203.339
0
LINE
8
BLACK
6
CONTINUOUS
10
117.453
20
-203.339
11
115.715
21
-200.611
0
LINE
8
BLACK
6
CONTINUOUS
10
115.715
20
-200.611
11
115.714
21
-200.61
0
LINE
8
BLACK
6
CONTINUOUS
10
115.714
20
-200.61
11
115.713
21
-200.609
0
LINE
8
BLACK
6
CONTINUOUS
10
115.713
20
-200.609
11
115.713
21
-200.609
0
LINE
8
BLACK
6
CONTINUOUS
10
115.713
20
-200.609
11
115.713
21
-200.608
0
LINE
8
BLACK
6
CONTINUOUS
10
115.713
20
-200.608
11
115.712
21
-200.606
0
LINE
8
BLACK
6
CONTINUOUS
10
115.712
20
-200.606
11
115.712
21
-200.606
0
LINE
8
BLACK
6
CONTINUOUS
10
115.712
20
-200.606
11
115.712
21
-200.606
0
LINE
8
BLACK
6
CONTINUOUS
10
115.712
20
-200.606
11
115.711
21
-200.603
0
LINE
8
BLACK
6
CONTINUOUS
10
115.711
20
-200.603
11
115.71
21
-200.601
0
LINE
8
BLACK
6
CONTINUOUS
10
115.71
20
-200.601
11
115.71
21
-200.601
0
LINE
8
BLACK
6
CONTINUOUS
10
115.71
20
-200.601
11
115.71
21
-200.601
0
LINE
8
BLACK
6
CONTINUOUS
10
115.71
20
-200.601
11
115.71
21
-200.599
0
LINE
8
BLACK
6
CONTINUOUS
10
115.71
20
-200.599
11
115.71
21
-200.596
0
LINE
8
BLACK
6
CONTINUOUS
10
115.71
20
-200.596
11
115.71
21
-200.596
0
LINE
8
BLACK
6
CONTINUOUS
10
115.71
20
-200.596
11
115.71
21
-200.596
0
LINE
8
BLACK
6
CONTINUOUS
10
115.71
20
-200.596
11
115.71
21
-200.594
0
LINE
8
BLACK
6
CONTINUOUS
10
115.71
20
-200.594
11
115.711
21
-200.591
0
LINE
8
BLACK
6
CONTINUOUS
10
115.711
20
-200.591
11
115.711
21
-200.591
0
LINE
8
BLACK
6
CONTINUOUS
10
115.711
20
-200.591
11
115.711
21
-200.591
0
LINE
8
BLACK
6
CONTINUOUS
10
115.711
20
-200.591
11
115.711
21
-200.589
0
LINE
8
BLACK
6
CONTINUOUS
10
115.711
20
-200.589
11
115.712
21
-200.587
0
LINE
8
BLACK
6
CONTINUOUS
10
115.712
20
-200.587
11
115.712
21
-200.587
0
LINE
8
BLACK
6
CONTINUOUS
10
115.712
20
-200.587
11
115.712
21
-200.586
0
LINE
8
BLACK
6
CONTINUOUS
10
115.712
20
-200.586
11
115.713
21
-200.584
0
LINE
8
BLACK
6
CONTINUOUS
10
115.713
20
-200.584
11
115.714
21
-200.582
0
LINE
8
BLACK
6
CONTINUOUS
10
115.714
20
-200.582
11
115.714
21
-200.582
0
LINE
8
BLACK
6
CONTINUOUS
10
115.714
20
-200.582
11
115.715
21
-200.582
0
LINE
8
BLACK
6
CONTINUOUS
10
115.715
20
-200.582
11
115.716
21
-200.58
0
LINE
8
BLACK
6
CONTINUOUS
10
115.716
20
-200.58
11
115.718
21
-200.579
0
LINE
8
BLACK
6
CONTINUOUS
10
115.718
20
-200.579
11
115.718
21
-200.578
0
LINE
8
BLACK
6
CONTINUOUS
10
115.718
20
-200.578
11
115.718
21
-200.578
0
LINE
8
BLACK
6
CONTINUOUS
10
115.718
20
-200.578
11
115.72
21
-200.577
0
LINE
8
BLACK
6
CONTINUOUS
10
115.72
20
-200.577
11
115.72
21
-200.576
0
LINE
8
BLACK
6
CONTINUOUS
10
115.72
20
-200.576
11
115.721
21
-200.576
0
LINE
8
BLACK
6
CONTINUOUS
10
115.721
20
-200.576
11
115.722
21
-200.575
0
LINE
8
BLACK
6
CONTINUOUS
10
115.722
20
-200.575
11
115.723
21
-200.575
0
LINE
8
BLACK
6
CONTINUOUS
10
115.723
20
-200.575
11
120.304
21
-197.579
0
LINE
8
BLACK
6
CONTINUOUS
10
120.304
20
-197.579
11
120.305
21
-197.579
0
LINE
8
BLACK
6
CONTINUOUS
10
120.305
20
-197.579
11
120.306
21
-197.578
0
LINE
8
BLACK
6
CONTINUOUS
10
120.306
20
-197.578
11
120.307
21
-197.578
0
LINE
8
BLACK
6
CONTINUOUS
10
120.307
20
-197.578
11
120.308
21
-197.577
0
LINE
8
BLACK
6
CONTINUOUS
10
120.308
20
-197.577
11
120.308
21
-197.577
0
LINE
8
BLACK
6
CONTINUOUS
10
120.308
20
-197.577
11
120.309
21
-197.577
0
LINE
8
BLACK
6
CONTINUOUS
10
120.309
20
-197.577
11
120.31
21
-197.576
0
LINE
8
BLACK
6
CONTINUOUS
10
120.31
20
-197.576
11
120.311
21
-197.576
0
LINE
8
BLACK
6
CONTINUOUS
10
120.311
20
-197.576
11
130.355
21
-192.827
0
LINE
8
BLACK
6
CONTINUOUS
10
130.355
20
-192.827
11
130.355
21
-192.827
0
LINE
8
BLACK
6
CONTINUOUS
10
130.355
20
-192.827
11
130.356
21
-192.827
0
LINE
8
BLACK
6
CONTINUOUS
10
130.356
20
-192.827
11
130.356
21
-192.826
0
LINE
8
BLACK
6
CONTINUOUS
10
130.356
20
-192.826
11
130.357
21
-192.826
0
LINE
8
BLACK
6
CONTINUOUS
10
130.357
20
-192.826
11
148.071
21
-185.905
0
LINE
8
BLACK
6
CONTINUOUS
10
148.071
20
-185.905
11
148.071
21
-185.905
0
LINE
8
BLACK
6
CONTINUOUS
10
148.071
20
-185.905
11
148.073
21
-185.905
0
LINE
8
BLACK
6
CONTINUOUS
10
148.073
20
-185.905
11
148.074
21
-185.904
0
LINE
8
BLACK
6
CONTINUOUS
10
148.074
20
-185.904
11
148.075
21
-185.904
0
LINE
8
BLACK
6
CONTINUOUS
10
148.075
20
-185.904
11
148.076
21
-185.904
0
LINE
8
BLACK
6
CONTINUOUS
10
148.076
20
-185.904
11
148.077
21
-185.903
0
LINE
8
BLACK
6
CONTINUOUS
10
148.077
20
-185.903
11
148.078
21
-185.903
0
LINE
8
BLACK
6
CONTINUOUS
10
148.078
20
-185.903
11
148.079
21
-185.903
0
LINE
8
BLACK
6
CONTINUOUS
10
148.079
20
-185.903
11
148.08
21
-185.903
0
LINE
8
BLACK
6
CONTINUOUS
10
148.08
20
-185.903
11
148.081
21
-185.903
0
LINE
8
BLACK
6
CONTINUOUS
10
148.081
20
-185.903
11
148.083
21
-185.903
0
LINE
8
BLACK
6
CONTINUOUS
10
148.083
20
-185.903
11
148.083
21
-185.903
0
LINE
8
BLACK
6
CONTINUOUS
10
148.083
20
-185.903
11
166.114
21
-185.205
0
LINE
8
BLACK
6
CONTINUOUS
10
166.114
20
-185.205
11
166.115
21
-185.204
0
LINE
8
BLACK
6
CONTINUOUS
10
166.115
20
-185.204
11
166.116
21
-185.204
0
LINE
8
BLACK
6
CONTINUOUS
10
166.116
20
-185.204
11
166.116
21
-185.204
0
LINE
8
BLACK
6
CONTINUOUS
10
166.116
20
-185.204
11
166.117
21
-185.204
0
LINE
8
BLACK
6
CONTINUOUS
10
166.117
20
-185.204
11
171.5
21
-185.204
0
LINE
8
BLACK
6
CONTINUOUS
10
171.5
20
-185.204
11
171.501
21
-185.204
0
LINE
8
BLACK
6
CONTINUOUS
10
171.501
20
-185.204
11
171.502
21
-185.204
0
LINE
8
BLACK
6
CONTINUOUS
10
171.502
20
-185.204
11
171.506
21
-185.205
0
LINE
8
BLACK
6
CONTINUOUS
10
171.506
20
-185.205
11
171.51
21
-185.206
0
LINE
8
BLACK
6
CONTINUOUS
10
171.51
20
-185.206
11
171.515
21
-185.209
0
LINE
8
BLACK
6
CONTINUOUS
10
171.515
20
-185.209
11
171.519
21
-185.212
0
LINE
8
BLACK
6
CONTINUOUS
10
171.519
20
-185.212
11
171.522
21
-185.216
0
LINE
8
BLACK
6
CONTINUOUS
10
171.522
20
-185.216
11
171.524
21
-185.22
0
LINE
8
BLACK
6
CONTINUOUS
10
171.524
20
-185.22
11
171.525
21
-185.225
0
LINE
8
BLACK
6
CONTINUOUS
10
171.525
20
-185.225
11
171.526
21
-185.23
0
LINE
8
BLACK
6
CONTINUOUS
10
171.526
20
-185.23
11
171.526
21
-185.231
0
LINE
8
BLACK
6
CONTINUOUS
10
171.526
20
-185.231
11
171.526
21
-186.958
0
LINE
8
BLACK
6
CONTINUOUS
10
171.526
20
-186.958
11
171.547
21
-187.397
0
LINE
8
BLACK
6
CONTINUOUS
10
171.547
20
-187.397
11
171.711
21
-188.234
0
LINE
8
BLACK
6
CONTINUOUS
10
171.711
20
-188.234
11
172.03
21
-189.025
0
LINE
8
BLACK
6
CONTINUOUS
10
172.03
20
-189.025
11
172.492
21
-189.742
0
LINE
8
BLACK
6
CONTINUOUS
10
172.492
20
-189.742
11
173.082
21
-190.358
0
LINE
8
BLACK
6
CONTINUOUS
10
173.082
20
-190.358
11
173.778
21
-190.851
0
LINE
8
BLACK
6
CONTINUOUS
10
173.778
20
-190.851
11
174.554
21
-191.204
0
LINE
8
BLACK
6
CONTINUOUS
10
174.554
20
-191.204
11
175.383
21
-191.404
0
LINE
8
BLACK
6
CONTINUOUS
10
175.383
20
-191.404
11
176.235
21
-191.444
0
LINE
8
BLACK
6
CONTINUOUS
10
176.235
20
-191.444
11
177.079
21
-191.321
0
LINE
8
BLACK
6
CONTINUOUS
10
177.079
20
-191.321
11
177.885
21
-191.042
0
LINE
8
BLACK
6
CONTINUOUS
10
177.885
20
-191.042
11
178.623
21
-190.614
0
LINE
8
BLACK
6
CONTINUOUS
10
178.623
20
-190.614
11
179.268
21
-190.055
0
LINE
8
BLACK
6
CONTINUOUS
10
179.268
20
-190.055
11
179.794
21
-189.385
0
LINE
8
BLACK
6
CONTINUOUS
10
179.794
20
-189.385
11
180.185
21
-188.626
0
LINE
8
BLACK
6
CONTINUOUS
10
180.185
20
-188.626
11
180.425
21
-187.808
0
LINE
8
BLACK
6
CONTINUOUS
10
180.425
20
-187.808
11
180.506
21
-186.958
0
LINE
8
BLACK
6
CONTINUOUS
10
180.506
20
-186.958
11
180.506
21
-185.231
0
LINE
8
BLACK
6
CONTINUOUS
10
180.506
20
-185.231
11
180.506
21
-185.23
0
LINE
8
BLACK
6
CONTINUOUS
10
180.506
20
-185.23
11
180.507
21
-185.225
0
LINE
8
BLACK
6
CONTINUOUS
10
180.507
20
-185.225
11
180.508
21
-185.22
0
LINE
8
BLACK
6
CONTINUOUS
10
180.508
20
-185.22
11
180.51
21
-185.216
0
LINE
8
BLACK
6
CONTINUOUS
10
180.51
20
-185.216
11
180.513
21
-185.212
0
LINE
8
BLACK
6
CONTINUOUS
10
180.513
20
-185.212
11
180.517
21
-185.209
0
LINE
8
BLACK
6
CONTINUOUS
10
180.517
20
-185.209
11
180.522
21
-185.206
0
LINE
8
BLACK
6
CONTINUOUS
10
180.522
20
-185.206
11
180.526
21
-185.205
0
LINE
8
BLACK
6
CONTINUOUS
10
180.526
20
-185.205
11
180.53
21
-185.204
0
LINE
8
BLACK
6
CONTINUOUS
10
180.53
20
-185.204
11
180.53
21
-185.204
0
LINE
8
BLACK
6
CONTINUOUS
10
180.53
20
-185.204
11
180.531
21
-185.204
0
LINE
8
BLACK
6
CONTINUOUS
10
180.531
20
-185.204
11
180.532
21
-185.204
0
LINE
8
BLACK
6
CONTINUOUS
10
180.532
20
-185.204
11
182.627
21
-185.204
0
LINE
8
BLACK
6
CONTINUOUS
10
182.627
20
-185.204
11
182.628
21
-185.205
0
LINE
8
BLACK
6
CONTINUOUS
10
182.628
20
-185.205
11
182.628
21
-185.205
0
LINE
8
BLACK
6
CONTINUOUS
10
182.628
20
-185.205
11
182.9
21
-185.231
0
LINE
8
BLACK
6
CONTINUOUS
10
182.9
20
-185.231
11
182.9
21
-185.231
0
LINE
8
BLACK
6
CONTINUOUS
10
182.9
20
-185.231
11
182.902
21
-185.232
0
LINE
8
BLACK
6
CONTINUOUS
10
182.902
20
-185.232
11
182.905
21
-185.232
0
LINE
8
BLACK
6
CONTINUOUS
10
182.905
20
-185.232
11
183.166
21
-185.311
0
LINE
8
BLACK
6
CONTINUOUS
10
183.166
20
-185.311
11
183.166
21
-185.311
0
LINE
8
BLACK
6
CONTINUOUS
10
183.166
20
-185.311
11
183.168
21
-185.312
0
LINE
8
BLACK
6
CONTINUOUS
10
183.168
20
-185.312
11
183.17
21
-185.313
0
LINE
8
BLACK
6
CONTINUOUS
10
183.17
20
-185.313
11
183.411
21
-185.441
0
LINE
8
BLACK
6
CONTINUOUS
10
183.411
20
-185.441
11
183.411
21
-185.441
0
LINE
8
BLACK
6
CONTINUOUS
10
183.411
20
-185.441
11
183.413
21
-185.442
0
LINE
8
BLACK
6
CONTINUOUS
10
183.413
20
-185.442
11
183.415
21
-185.444
0
LINE
8
BLACK
6
CONTINUOUS
10
183.415
20
-185.444
11
183.626
21
-185.616
0
LINE
8
BLACK
6
CONTINUOUS
10
183.626
20
-185.616
11
183.626
21
-185.616
0
LINE
8
BLACK
6
CONTINUOUS
10
183.626
20
-185.616
11
183.626
21
-185.616
0
LINE
8
BLACK
6
CONTINUOUS
10
183.626
20
-185.616
11
183.626
21
-185.616
0
LINE
8
BLACK
6
CONTINUOUS
10
183.626
20
-185.616
11
183.628
21
-185.618
0
LINE
8
BLACK
6
CONTINUOUS
10
183.628
20
-185.618
11
183.63
21
-185.619
0
LINE
8
BLACK
6
CONTINUOUS
10
183.63
20
-185.619
11
183.803
21
-185.829
0
LINE
8
BLACK
6
CONTINUOUS
10
183.803
20
-185.829
11
183.804
21
-185.83
0
LINE
8
BLACK
6
CONTINUOUS
10
183.804
20
-185.83
11
183.805
21
-185.832
0
LINE
8
BLACK
6
CONTINUOUS
10
183.805
20
-185.832
11
183.806
21
-185.833
0
LINE
8
BLACK
6
CONTINUOUS
10
183.806
20
-185.833
11
183.936
21
-186.073
0
LINE
8
BLACK
6
CONTINUOUS
10
183.936
20
-186.073
11
183.936
21
-186.073
0
LINE
8
BLACK
6
CONTINUOUS
10
183.936
20
-186.073
11
183.936
21
-186.073
0
LINE
8
BLACK
6
CONTINUOUS
10
183.936
20
-186.073
11
183.936
21
-186.074
0
LINE
8
BLACK
6
CONTINUOUS
10
183.936
20
-186.074
11
183.937
21
-186.076
0
LINE
8
BLACK
6
CONTINUOUS
10
183.937
20
-186.076
11
183.938
21
-186.078
0
LINE
8
BLACK
6
CONTINUOUS
10
183.938
20
-186.078
11
184.018
21
-186.338
0
LINE
8
BLACK
6
CONTINUOUS
10
184.018
20
-186.338
11
184.018
21
-186.339
0
LINE
8
BLACK
6
CONTINUOUS
10
184.018
20
-186.339
11
184.019
21
-186.341
0
LINE
8
BLACK
6
CONTINUOUS
10
184.019
20
-186.341
11
184.019
21
-186.343
0
LINE
8
BLACK
6
CONTINUOUS
10
184.019
20
-186.343
11
184.048
21
-186.614
0
LINE
8
BLACK
6
CONTINUOUS
10
184.048
20
-186.614
11
184.048
21
-186.614
0
LINE
8
BLACK
6
CONTINUOUS
10
184.048
20
-186.614
11
184.048
21
-186.616
0
LINE
8
BLACK
6
CONTINUOUS
10
184.048
20
-186.616
11
184.048
21
-186.617
0
LINE
8
BLACK
6
CONTINUOUS
10
184.048
20
-186.617
11
184.048
21
-186.625
0
LINE
8
BLACK
6
CONTINUOUS
10
184.048
20
-186.625
11
184.048
21
-186.625
0
LINE
8
BLACK
6
CONTINUOUS
10
184.048
20
-186.625
11
184.048
21
-188.595
0
LINE
8
BLACK
6
CONTINUOUS
10
184.048
20
-188.595
11
184.048
21
-188.603
0
LINE
8
BLACK
6
CONTINUOUS
10
184.048
20
-188.603
11
184.076
21
-188.871
0
LINE
8
BLACK
6
CONTINUOUS
10
184.076
20
-188.871
11
184.155
21
-189.127
0
LINE
8
BLACK
6
CONTINUOUS
10
184.155
20
-189.127
11
184.283
21
-189.362
0
LINE
8
BLACK
6
CONTINUOUS
10
184.283
20
-189.362
11
184.453
21
-189.568
0
LINE
8
BLACK
6
CONTINUOUS
10
184.453
20
-189.568
11
184.661
21
-189.738
0
LINE
8
BLACK
6
CONTINUOUS
10
184.661
20
-189.738
11
184.897
21
-189.863
0
LINE
8
BLACK
6
CONTINUOUS
10
184.897
20
-189.863
11
185.154
21
-189.941
0
LINE
8
BLACK
6
CONTINUOUS
10
185.154
20
-189.941
11
185.421
21
-189.967
0
LINE
8
BLACK
6
CONTINUOUS
10
185.421
20
-189.967
11
235.267
21
-189.967
0
LINE
8
BLACK
6
CONTINUOUS
10
235.267
20
-189.967
11
235.276
21
-189.967
0
LINE
8
BLACK
6
CONTINUOUS
10
235.276
20
-189.967
11
235.543
21
-189.939
0
LINE
8
BLACK
6
CONTINUOUS
10
235.543
20
-189.939
11
235.799
21
-189.86
0
LINE
8
BLACK
6
CONTINUOUS
10
235.799
20
-189.86
11
236.035
21
-189.732
0
LINE
8
BLACK
6
CONTINUOUS
10
236.035
20
-189.732
11
236.241
21
-189.562
0
LINE
8
BLACK
6
CONTINUOUS
10
236.241
20
-189.562
11
236.41
21
-189.354
0
LINE
8
BLACK
6
CONTINUOUS
10
236.41
20
-189.354
11
236.536
21
-189.118
0
LINE
8
BLACK
6
CONTINUOUS
10
236.536
20
-189.118
11
236.613
21
-188.861
0
LINE
8
BLACK
6
CONTINUOUS
10
236.613
20
-188.861
11
236.64
21
-188.594
0
LINE
8
BLACK
6
CONTINUOUS
10
236.64
20
-188.594
11
236.639
21
-157.227
0
LINE
8
BLACK
6
CONTINUOUS
10
236.639
20
-157.227
11
236.639
21
-157.226
0
LINE
8
BLACK
6
CONTINUOUS
10
236.639
20
-157.226
11
236.64
21
-157.224
0
LINE
8
BLACK
6
CONTINUOUS
10
236.64
20
-157.224
11
236.64
21
-157.221
0
LINE
8
BLACK
6
CONTINUOUS
10
236.64
20
-157.221
11
236.64
21
-157.221
0
LINE
8
BLACK
6
CONTINUOUS
10
236.64
20
-157.221
11
236.64
21
-157.221
0
LINE
8
BLACK
6
CONTINUOUS
10
236.64
20
-157.221
11
236.641
21
-157.219
0
LINE
8
BLACK
6
CONTINUOUS
10
236.641
20
-157.219
11
236.641
21
-157.216
0
LINE
8
BLACK
6
CONTINUOUS
10
236.641
20
-157.216
11
236.641
21
-157.216
0
LINE
8
BLACK
6
CONTINUOUS
10
236.641
20
-157.216
11
236.641
21
-157.216
0
LINE
8
BLACK
6
CONTINUOUS
10
236.641
20
-157.216
11
236.642
21
-157.215
0
LINE
8
BLACK
6
CONTINUOUS
10
236.642
20
-157.215
11
236.644
21
-157.212
0
LINE
8
BLACK
6
CONTINUOUS
10
236.644
20
-157.212
11
236.644
21
-157.212
0
LINE
8
BLACK
6
CONTINUOUS
10
236.644
20
-157.212
11
236.644
21
-157.212
0
LINE
8
BLACK
6
CONTINUOUS
10
236.644
20
-157.212
11
236.645
21
-157.211
0
LINE
8
BLACK
6
CONTINUOUS
10
236.645
20
-157.211
11
236.647
21
-157.208
0
LINE
8
BLACK
6
CONTINUOUS
10
236.647
20
-157.208
11
236.651
21
-157.205
0
LINE
8
BLACK
6
CONTINUOUS
10
236.651
20
-157.205
11
236.651
21
-157.205
0
LINE
8
BLACK
6
CONTINUOUS
10
236.651
20
-157.205
11
236.651
21
-157.205
0
LINE
8
BLACK
6
CONTINUOUS
10
236.651
20
-157.205
11
236.652
21
-157.204
0
LINE
8
BLACK
6
CONTINUOUS
10
236.652
20
-157.204
11
236.655
21
-157.203
0
LINE
8
BLACK
6
CONTINUOUS
10
236.655
20
-157.203
11
236.655
21
-157.203
0
LINE
8
BLACK
6
CONTINUOUS
10
236.655
20
-157.203
11
236.655
21
-157.203
0
LINE
8
BLACK
6
CONTINUOUS
10
236.655
20
-157.203
11
236.655
21
-157.203
0
LINE
8
BLACK
6
CONTINUOUS
10
236.655
20
-157.203
11
236.66
21
-157.201
0
LINE
8
BLACK
6
CONTINUOUS
10
236.66
20
-157.201
11
236.664
21
-157.201
0
LINE
8
BLACK
6
CONTINUOUS
10
236.664
20
-157.201
11
236.666
21
-157.201
0
LINE
8
BLACK
6
CONTINUOUS
10
236.666
20
-157.201
11
239.333
21
-157.202
0
LINE
8
BLACK
6
CONTINUOUS
10
239.333
20
-157.202
11
239.991
21
-157.144
0
LINE
8
BLACK
6
CONTINUOUS
10
239.991
20
-157.144
11
240.673
21
-156.951
0
LINE
8
BLACK
6
CONTINUOUS
10
240.673
20
-156.951
11
241.303
21
-156.629
0
LINE
8
BLACK
6
CONTINUOUS
10
241.303
20
-156.629
11
241.859
21
-156.191
0
LINE
8
BLACK
6
CONTINUOUS
10
241.859
20
-156.191
11
242.32
21
-155.653
0
LINE
8
BLACK
6
CONTINUOUS
10
242.32
20
-155.653
11
242.667
21
-155.036
0
LINE
8
BLACK
6
CONTINUOUS
10
242.667
20
-155.036
11
242.887
21
-154.363
0
LINE
8
BLACK
6
CONTINUOUS
10
242.887
20
-154.363
11
242.973
21
-153.66
0
LINE
8
BLACK
6
CONTINUOUS
10
242.973
20
-153.66
11
242.921
21
-152.954
0
LINE
8
BLACK
6
CONTINUOUS
10
242.921
20
-152.954
11
242.732
21
-152.272
0
LINE
8
BLACK
6
CONTINUOUS
10
242.732
20
-152.272
11
242.415
21
-151.639
0
LINE
8
BLACK
6
CONTINUOUS
10
242.415
20
-151.639
11
241.98
21
-151.08
0
LINE
8
BLACK
6
CONTINUOUS
10
241.98
20
-151.08
11
241.446
21
-150.616
0
LINE
8
BLACK
6
CONTINUOUS
10
241.446
20
-150.616
11
240.831
21
-150.265
0
LINE
8
BLACK
6
CONTINUOUS
10
240.831
20
-150.265
11
240.16
21
-150.039
0
LINE
8
BLACK
6
CONTINUOUS
10
240.16
20
-150.039
11
239.457
21
-149.948
0
LINE
8
BLACK
6
CONTINUOUS
10
239.457
20
-149.948
11
236.666
21
-149.948
0
LINE
8
BLACK
6
CONTINUOUS
10
236.666
20
-149.948
11
236.664
21
-149.949
0
LINE
8
BLACK
6
CONTINUOUS
10
236.664
20
-149.949
11
236.66
21
-149.948
0
LINE
8
BLACK
6
CONTINUOUS
10
236.66
20
-149.948
11
236.655
21
-149.947
0
LINE
8
BLACK
6
CONTINUOUS
10
236.655
20
-149.947
11
236.651
21
-149.944
0
LINE
8
BLACK
6
CONTINUOUS
10
236.651
20
-149.944
11
236.647
21
-149.941
0
LINE
8
BLACK
6
CONTINUOUS
10
236.647
20
-149.941
11
236.645
21
-149.939
0
LINE
8
BLACK
6
CONTINUOUS
10
236.645
20
-149.939
11
236.644
21
-149.937
0
LINE
8
BLACK
6
CONTINUOUS
10
236.644
20
-149.937
11
236.641
21
-149.933
0
LINE
8
BLACK
6
CONTINUOUS
10
236.641
20
-149.933
11
236.64
21
-149.928
0
LINE
8
BLACK
6
CONTINUOUS
10
236.64
20
-149.928
11
236.639
21
-149.923
0
LINE
8
BLACK
6
CONTINUOUS
10
236.639
20
-149.923
11
236.639
21
-149.922
0
LINE
8
BLACK
6
CONTINUOUS
10
236.639
20
-149.922
11
236.64
21
-90.0431
0
LINE
8
BLACK
6
CONTINUOUS
10
236.64
20
-90.0431
11
236.639
21
-90.0431
0
LINE
8
BLACK
6
CONTINUOUS
10
236.639
20
-90.0431
11
236.639
21
-90.0346
0
LINE
8
BLACK
6
CONTINUOUS
10
236.639
20
-90.0346
11
236.611
21
-89.7671
0
LINE
8
BLACK
6
CONTINUOUS
10
236.611
20
-89.7671
11
236.532
21
-89.5114
0
LINE
8
BLACK
6
CONTINUOUS
10
236.532
20
-89.5114
11
236.405
21
-89.2759
0
LINE
8
BLACK
6
CONTINUOUS
10
236.405
20
-89.2759
11
236.234
21
-89.0696
0
LINE
8
BLACK
6
CONTINUOUS
10
236.234
20
-89.0696
11
236.027
21
-88.9003
0
LINE
8
BLACK
6
CONTINUOUS
10
236.027
20
-88.9003
11
235.79
21
-88.7746
0
LINE
8
BLACK
6
CONTINUOUS
10
235.79
20
-88.7746
11
235.534
21
-88.6972
0
LINE
8
BLACK
6
CONTINUOUS
10
235.534
20
-88.6972
11
235.266
21
-88.671
0
LINE
8
BLACK
6
CONTINUOUS
10
235.266
20
-88.671
11
223.14
21
-88.671
0
LINE
8
BLACK
6
CONTINUOUS
10
223.14
20
-88.671
11
223.139
21
-88.6711
0
LINE
8
BLACK
6
CONTINUOUS
10
223.139
20
-88.6711
11
223.138
21
-88.671
0
LINE
8
BLACK
6
CONTINUOUS
10
223.138
20
-88.671
11
223.138
21
-88.671
0
LINE
8
BLACK
6
CONTINUOUS
10
223.138
20
-88.671
11
223.134
21
-88.6706
0
LINE
8
BLACK
6
CONTINUOUS
10
223.134
20
-88.6706
11
223.134
21
-88.6706
0
LINE
8
BLACK
6
CONTINUOUS
10
223.134
20
-88.6706
11
223.134
21
-88.6706
0
LINE
8
BLACK
6
CONTINUOUS
10
223.134
20
-88.6706
11
223.133
21
-88.6702
0
LINE
8
BLACK
6
CONTINUOUS
10
223.133
20
-88.6702
11
223.129
21
-88.6692
0
LINE
8
BLACK
6
CONTINUOUS
10
223.129
20
-88.6692
11
223.129
21
-88.6692
0
LINE
8
BLACK
6
CONTINUOUS
10
223.129
20
-88.6692
11
223.129
21
-88.6692
0
LINE
8
BLACK
6
CONTINUOUS
10
223.129
20
-88.6692
11
223.129
21
-88.669
0
LINE
8
BLACK
6
CONTINUOUS
10
223.129
20
-88.669
11
223.125
21
-88.6669
0
LINE
8
BLACK
6
CONTINUOUS
10
223.125
20
-88.6669
11
223.121
21
-88.6638
0
LINE
8
BLACK
6
CONTINUOUS
10
223.121
20
-88.6638
11
223.118
21
-88.66
0
LINE
8
BLACK
6
CONTINUOUS
10
223.118
20
-88.66
11
223.118
21
-88.66
0
LINE
8
BLACK
6
CONTINUOUS
10
223.118
20
-88.66
11
223.118
21
-88.6599
0
LINE
8
BLACK
6
CONTINUOUS
10
223.118
20
-88.6599
11
223.117
21
-88.6587
0
LINE
8
BLACK
6
CONTINUOUS
10
223.117
20
-88.6587
11
223.116
21
-88.6556
0
LINE
8
BLACK
6
CONTINUOUS
10
223.116
20
-88.6556
11
223.114
21
-88.6509
0
LINE
8
BLACK
6
CONTINUOUS
10
223.114
20
-88.6509
11
223.114
21
-88.646
0
LINE
8
BLACK
6
CONTINUOUS
10
223.114
20
-88.646
11
223.114
21
-88.6448
0
LINE
8
BLACK
6
CONTINUOUS
10
223.114
20
-88.6448
11
223.115
21
-85.9772
0
LINE
8
BLACK
6
CONTINUOUS
10
223.115
20
-85.9772
11
223.057
21
-85.319
0
LINE
8
BLACK
6
CONTINUOUS
10
223.057
20
-85.319
11
222.864
21
-84.6379
0
LINE
8
BLACK
6
CONTINUOUS
10
222.864
20
-84.6379
11
222.542
21
-84.0073
0
LINE
8
BLACK
6
CONTINUOUS
10
222.542
20
-84.0073
11
222.104
21
-83.4513
0
LINE
8
BLACK
6
CONTINUOUS
10
222.104
20
-83.4513
11
221.566
21
-82.991
0
LINE
8
BLACK
6
CONTINUOUS
10
221.566
20
-82.991
11
220.949
21
-82.6439
0
LINE
8
BLACK
6
CONTINUOUS
10
220.949
20
-82.6439
11
220.276
21
-82.4233
0
LINE
8
BLACK
6
CONTINUOUS
10
220.276
20
-82.4233
11
219.573
21
-82.3375
0
LINE
8
BLACK
6
CONTINUOUS
10
219.573
20
-82.3375
11
218.867
21
-82.3899
0
LINE
8
BLACK
6
CONTINUOUS
10
218.867
20
-82.3899
11
218.185
21
-82.5784
0
LINE
8
BLACK
6
CONTINUOUS
10
218.185
20
-82.5784
11
217.552
21
-82.8959
0
LINE
8
BLACK
6
CONTINUOUS
10
217.552
20
-82.8959
11
216.993
21
-83.3302
0
LINE
8
BLACK
6
CONTINUOUS
10
216.993
20
-83.3302
11
216.529
21
-83.8649
0
LINE
8
BLACK
6
CONTINUOUS
10
216.529
20
-83.8649
11
216.178
21
-84.4795
0
LINE
8
BLACK
6
CONTINUOUS
10
216.178
20
-84.4795
11
215.952
21
-85.1506
0
LINE
8
BLACK
6
CONTINUOUS
10
215.952
20
-85.1506
11
215.861
21
-85.8536
0
LINE
8
BLACK
6
CONTINUOUS
10
215.861
20
-85.8536
11
215.861
21
-88.6448
0
LINE
8
BLACK
6
CONTINUOUS
10
215.861
20
-88.6448
11
215.862
21
-88.646
0
LINE
8
BLACK
6
CONTINUOUS
10
215.862
20
-88.646
11
215.861
21
-88.6509
0
LINE
8
BLACK
6
CONTINUOUS
10
215.861
20
-88.6509
11
215.86
21
-88.6556
0
LINE
8
BLACK
6
CONTINUOUS
10
215.86
20
-88.6556
11
215.857
21
-88.66
0
LINE
8
BLACK
6
CONTINUOUS
10
215.857
20
-88.66
11
215.854
21
-88.6638
0
LINE
8
BLACK
6
CONTINUOUS
10
215.854
20
-88.6638
11
215.85
21
-88.6669
0
LINE
8
BLACK
6
CONTINUOUS
10
215.85
20
-88.6669
11
215.846
21
-88.6692
0
LINE
8
BLACK
6
CONTINUOUS
10
215.846
20
-88.6692
11
215.841
21
-88.6706
0
LINE
8
BLACK
6
CONTINUOUS
10
215.841
20
-88.6706
11
215.839
21
-88.6708
0
LINE
8
BLACK
6
CONTINUOUS
10
215.839
20
-88.6708
11
215.837
21
-88.6711
0
LINE
8
BLACK
6
CONTINUOUS
10
215.837
20
-88.6711
11
215.835
21
-88.671
0
LINE
8
BLACK
6
CONTINUOUS
10
215.835
20
-88.671
11
189.356
21
-88.671
0
LINE
8
BLACK
6
CONTINUOUS
10
189.356
20
-88.671
11
189.355
21
-88.6709
0
LINE
8
BLACK
6
CONTINUOUS
10
189.355
20
-88.6709
11
189.355
21
-88.6709
0
LINE
8
BLACK
6
CONTINUOUS
10
189.355
20
-88.6709
11
189.083
21
-88.6443
0
LINE
8
BLACK
6
CONTINUOUS
10
189.083
20
-88.6443
11
189.083
21
-88.6442
0
LINE
8
BLACK
6
CONTINUOUS
10
189.083
20
-88.6442
11
189.081
21
-88.6438
0
LINE
8
BLACK
6
CONTINUOUS
10
189.081
20
-88.6438
11
189.078
21
-88.6433
0
LINE
8
BLACK
6
CONTINUOUS
10
189.078
20
-88.6433
11
188.817
21
-88.5645
0
LINE
8
BLACK
6
CONTINUOUS
10
188.817
20
-88.5645
11
188.817
21
-88.5644
0
LINE
8
BLACK
6
CONTINUOUS
10
188.817
20
-88.5644
11
188.815
21
-88.5635
0
LINE
8
BLACK
6
CONTINUOUS
10
188.815
20
-88.5635
11
188.813
21
-88.5627
0
LINE
8
BLACK
6
CONTINUOUS
10
188.813
20
-88.5627
11
188.572
21
-88.4347
0
LINE
8
BLACK
6
CONTINUOUS
10
188.572
20
-88.4347
11
188.572
21
-88.4345
0
LINE
8
BLACK
6
CONTINUOUS
10
188.572
20
-88.4345
11
188.57
21
-88.4332
0
LINE
8
BLACK
6
CONTINUOUS
10
188.57
20
-88.4332
11
188.568
21
-88.432
0
LINE
8
BLACK
6
CONTINUOUS
10
188.568
20
-88.432
11
188.357
21
-88.2596
0
LINE
8
BLACK
6
CONTINUOUS
10
188.357
20
-88.2596
11
188.357
21
-88.2594
0
LINE
8
BLACK
6
CONTINUOUS
10
188.357
20
-88.2594
11
188.355
21
-88.2578
0
LINE
8
BLACK
6
CONTINUOUS
10
188.355
20
-88.2578
11
188.353
21
-88.2562
0
LINE
8
BLACK
6
CONTINUOUS
10
188.353
20
-88.2562
11
188.18
21
-88.0461
0
LINE
8
BLACK
6
CONTINUOUS
10
188.18
20
-88.0461
11
188.179
21
-88.0459
0
LINE
8
BLACK
6
CONTINUOUS
10
188.179
20
-88.0459
11
188.178
21
-88.044
0
LINE
8
BLACK
6
CONTINUOUS
10
188.178
20
-88.044
11
188.177
21
-88.0421
0
LINE
8
BLACK
6
CONTINUOUS
10
188.177
20
-88.0421
11
188.047
21
-87.8023
0
LINE
8
BLACK
6
CONTINUOUS
10
188.047
20
-87.8023
11
188.047
21
-87.8019
0
LINE
8
BLACK
6
CONTINUOUS
10
188.047
20
-87.8019
11
188.046
21
-87.7998
0
LINE
8
BLACK
6
CONTINUOUS
10
188.046
20
-87.7998
11
188.045
21
-87.7978
0
LINE
8
BLACK
6
CONTINUOUS
10
188.045
20
-87.7978
11
187.965
21
-87.5373
0
LINE
8
BLACK
6
CONTINUOUS
10
187.965
20
-87.5373
11
187.965
21
-87.537
0
LINE
8
BLACK
6
CONTINUOUS
10
187.965
20
-87.537
11
187.964
21
-87.5347
0
LINE
8
BLACK
6
CONTINUOUS
10
187.964
20
-87.5347
11
187.964
21
-87.5325
0
LINE
8
BLACK
6
CONTINUOUS
10
187.964
20
-87.5325
11
187.935
21
-87.2614
0
LINE
8
BLACK
6
CONTINUOUS
10
187.935
20
-87.2614
11
187.935
21
-87.261
0
LINE
8
BLACK
6
CONTINUOUS
10
187.935
20
-87.261
11
187.935
21
-87.2599
0
LINE
8
BLACK
6
CONTINUOUS
10
187.935
20
-87.2599
11
187.935
21
-87.2588
0
LINE
8
BLACK
6
CONTINUOUS
10
187.935
20
-87.2588
11
187.935
21
-87.2502
0
LINE
8
BLACK
6
CONTINUOUS
10
187.935
20
-87.2502
11
187.935
21
-87.2502
0
LINE
8
BLACK
6
CONTINUOUS
10
187.935
20
-87.2502
11
187.935
21
-87.2494
0
LINE
8
BLACK
6
CONTINUOUS
10
187.935
20
-87.2494
11
187.935
21
-87.2491
0
LINE
8
BLACK
6
CONTINUOUS
10
187.935
20
-87.2491
11
187.935
21
-87.2487
0
LINE
8
BLACK
6
CONTINUOUS
10
187.935
20
-87.2487
11
187.935
21
-85.2806
0
LINE
8
BLACK
6
CONTINUOUS
10
187.935
20
-85.2806
11
187.935
21
-85.2721
0
LINE
8
BLACK
6
CONTINUOUS
10
187.935
20
-85.2721
11
187.907
21
-85.0046
0
LINE
8
BLACK
6
CONTINUOUS
10
187.907
20
-85.0046
11
187.828
21
-84.7489
0
LINE
8
BLACK
6
CONTINUOUS
10
187.828
20
-84.7489
11
187.7
21
-84.5134
0
LINE
8
BLACK
6
CONTINUOUS
10
187.7
20
-84.5134
11
187.53
21
-84.3071
0
LINE
8
BLACK
6
CONTINUOUS
10
187.53
20
-84.3071
11
187.322
21
-84.1378
0
LINE
8
BLACK
6
CONTINUOUS
10
187.322
20
-84.1378
11
187.086
21
-84.0121
0
LINE
8
BLACK
6
CONTINUOUS
10
187.086
20
-84.0121
11
186.829
21
-83.9347
0
LINE
8
BLACK
6
CONTINUOUS
10
186.829
20
-83.9347
11
186.562
21
-83.9085
0
LINE
8
BLACK
6
CONTINUOUS
10
186.562
20
-83.9085
11
170.306
21
-83.9085
0
LINE
8
BLACK
6
CONTINUOUS
10
170.306
20
-83.9085
11
170.305
21
-83.9084
0
LINE
8
BLACK
6
CONTINUOUS
10
170.305
20
-83.9084
11
170.305
21
-83.9084
0
LINE
8
BLACK
6
CONTINUOUS
10
170.305
20
-83.9084
11
170.033
21
-83.8818
0
LINE
8
BLACK
6
CONTINUOUS
10
170.033
20
-83.8818
11
170.033
21
-83.8817
0
LINE
8
BLACK
6
CONTINUOUS
10
170.033
20
-83.8817
11
170.031
21
-83.8813
0
LINE
8
BLACK
6
CONTINUOUS
10
170.031
20
-83.8813
11
170.028
21
-83.8808
0
LINE
8
BLACK
6
CONTINUOUS
10
170.028
20
-83.8808
11
169.767
21
-83.802
0
LINE
8
BLACK
6
CONTINUOUS
10
169.767
20
-83.802
11
169.767
21
-83.8019
0
LINE
8
BLACK
6
CONTINUOUS
10
169.767
20
-83.8019
11
169.765
21
-83.801
0
LINE
8
BLACK
6
CONTINUOUS
10
169.765
20
-83.801
11
169.763
21
-83.8002
0
LINE
8
BLACK
6
CONTINUOUS
10
169.763
20
-83.8002
11
169.522
21
-83.6722
0
LINE
8
BLACK
6
CONTINUOUS
10
169.522
20
-83.6722
11
169.522
21
-83.672
0
LINE
8
BLACK
6
CONTINUOUS
10
169.522
20
-83.672
11
169.52
21
-83.6707
0
LINE
8
BLACK
6
CONTINUOUS
10
169.52
20
-83.6707
11
169.518
21
-83.6695
0
LINE
8
BLACK
6
CONTINUOUS
10
169.518
20
-83.6695
11
169.307
21
-83.4971
0
LINE
8
BLACK
6
CONTINUOUS
10
169.307
20
-83.4971
11
169.307
21
-83.4969
0
LINE
8
BLACK
6
CONTINUOUS
10
169.307
20
-83.4969
11
169.305
21
-83.4953
0
LINE
8
BLACK
6
CONTINUOUS
10
169.305
20
-83.4953
11
169.303
21
-83.4937
0
LINE
8
BLACK
6
CONTINUOUS
10
169.303
20
-83.4937
11
169.13
21
-83.2836
0
LINE
8
BLACK
6
CONTINUOUS
10
169.13
20
-83.2836
11
169.129
21
-83.2834
0
LINE
8
BLACK
6
CONTINUOUS
10
169.129
20
-83.2834
11
169.128
21
-83.2815
0
LINE
8
BLACK
6
CONTINUOUS
10
169.128
20
-83.2815
11
169.127
21
-83.2796
0
LINE
8
BLACK
6
CONTINUOUS
10
169.127
20
-83.2796
11
168.997
21
-83.0397
0
LINE
8
BLACK
6
CONTINUOUS
10
168.997
20
-83.0397
11
168.997
21
-83.0394
0
LINE
8
BLACK
6
CONTINUOUS
10
168.997
20
-83.0394
11
168.996
21
-83.0373
0
LINE
8
BLACK
6
CONTINUOUS
10
168.996
20
-83.0373
11
168.995
21
-83.0353
0
LINE
8
BLACK
6
CONTINUOUS
10
168.995
20
-83.0353
11
168.915
21
-82.7748
0
LINE
8
BLACK
6
CONTINUOUS
10
168.915
20
-82.7748
11
168.915
21
-82.7745
0
LINE
8
BLACK
6
CONTINUOUS
10
168.915
20
-82.7745
11
168.914
21
-82.7722
0
LINE
8
BLACK
6
CONTINUOUS
10
168.914
20
-82.7722
11
168.914
21
-82.77
0
LINE
8
BLACK
6
CONTINUOUS
10
168.914
20
-82.77
11
168.885
21
-82.4989
0
LINE
8
BLACK
6
CONTINUOUS
10
168.885
20
-82.4989
11
168.885
21
-82.4985
0
LINE
8
BLACK
6
CONTINUOUS
10
168.885
20
-82.4985
11
168.885
21
-82.4974
0
LINE
8
BLACK
6
CONTINUOUS
10
168.885
20
-82.4974
11
168.885
21
-82.4963
0
LINE
8
BLACK
6
CONTINUOUS
10
168.885
20
-82.4963
11
168.885
21
-82.4877
0
LINE
8
BLACK
6
CONTINUOUS
10
168.885
20
-82.4877
11
168.885
21
-82.4877
0
LINE
8
BLACK
6
CONTINUOUS
10
168.885
20
-82.4877
11
168.885
21
-82.4869
0
LINE
8
BLACK
6
CONTINUOUS
10
168.885
20
-82.4869
11
168.885
21
-82.4866
0
LINE
8
BLACK
6
CONTINUOUS
10
168.885
20
-82.4866
11
168.885
21
-82.4862
0
LINE
8
BLACK
6
CONTINUOUS
10
168.885
20
-82.4862
11
168.885
21
-82.1056
0
LINE
8
BLACK
6
CONTINUOUS
10
168.885
20
-82.1056
11
168.885
21
-82.1029
0
LINE
8
BLACK
6
CONTINUOUS
10
168.885
20
-82.1029
11
168.874
21
-81.9956
0
LINE
8
BLACK
6
CONTINUOUS
10
168.874
20
-81.9956
11
168.842
21
-81.8938
0
LINE
8
BLACK
6
CONTINUOUS
10
168.842
20
-81.8938
11
168.791
21
-81.8
0
LINE
8
BLACK
6
CONTINUOUS
10
168.791
20
-81.8
11
168.723
21
-81.7178
0
LINE
8
BLACK
6
CONTINUOUS
10
168.723
20
-81.7178
11
168.641
21
-81.6504
0
LINE
8
BLACK
6
CONTINUOUS
10
168.641
20
-81.6504
11
168.547
21
-81.6003
0
LINE
8
BLACK
6
CONTINUOUS
10
168.547
20
-81.6003
11
168.445
21
-81.5695
0
LINE
8
BLACK
6
CONTINUOUS
10
168.445
20
-81.5695
11
168.337
21
-81.559
0
LINE
8
BLACK
6
CONTINUOUS
10
168.337
20
-81.559
11
146.495
21
-81.559
0
LINE
8
BLACK
6
CONTINUOUS
10
146.495
20
-81.559
11
146.492
21
-81.559
0
LINE
8
BLACK
6
CONTINUOUS
10
146.492
20
-81.559
11
146.385
21
-81.5703
0
LINE
8
BLACK
6
CONTINUOUS
10
146.385
20
-81.5703
11
146.283
21
-81.6018
0
LINE
8
BLACK
6
CONTINUOUS
10
146.283
20
-81.6018
11
146.189
21
-81.6525
0
LINE
8
BLACK
6
CONTINUOUS
10
146.189
20
-81.6525
11
146.107
21
-81.7205
0
LINE
8
BLACK
6
CONTINUOUS
10
146.107
20
-81.7205
11
146.039
21
-81.8031
0
LINE
8
BLACK
6
CONTINUOUS
10
146.039
20
-81.8031
11
145.989
21
-81.8973
0
LINE
8
BLACK
6
CONTINUOUS
10
145.989
20
-81.8973
11
145.959
21
-81.9994
0
LINE
8
BLACK
6
CONTINUOUS
10
145.959
20
-81.9994
11
145.948
21
-82.1067
0
LINE
8
BLACK
6
CONTINUOUS
10
145.948
20
-82.1067
11
145.948
21
-82.4242
0
LINE
8
BLACK
6
CONTINUOUS
10
145.948
20
-82.4242
11
145.948
21
-82.4254
0
LINE
8
BLACK
6
CONTINUOUS
10
145.948
20
-82.4254
11
145.948
21
-82.4254
0
LINE
8
BLACK
6
CONTINUOUS
10
145.948
20
-82.4254
11
145.921
21
-82.6968
0
LINE
8
BLACK
6
CONTINUOUS
10
145.921
20
-82.6968
11
145.921
21
-82.6971
0
LINE
8
BLACK
6
CONTINUOUS
10
145.921
20
-82.6971
11
145.921
21
-82.6994
0
LINE
8
BLACK
6
CONTINUOUS
10
145.921
20
-82.6994
11
145.92
21
-82.7016
0
LINE
8
BLACK
6
CONTINUOUS
10
145.92
20
-82.7016
11
145.842
21
-82.9626
0
LINE
8
BLACK
6
CONTINUOUS
10
145.842
20
-82.9626
11
145.841
21
-82.9629
0
LINE
8
BLACK
6
CONTINUOUS
10
145.841
20
-82.9629
11
145.841
21
-82.965
0
LINE
8
BLACK
6
CONTINUOUS
10
145.841
20
-82.965
11
145.84
21
-82.9671
0
LINE
8
BLACK
6
CONTINUOUS
10
145.84
20
-82.9671
11
145.712
21
-83.2078
0
LINE
8
BLACK
6
CONTINUOUS
10
145.712
20
-83.2078
11
145.711
21
-83.2081
0
LINE
8
BLACK
6
CONTINUOUS
10
145.711
20
-83.2081
11
145.71
21
-83.21
0
LINE
8
BLACK
6
CONTINUOUS
10
145.71
20
-83.21
11
145.709
21
-83.2119
0
LINE
8
BLACK
6
CONTINUOUS
10
145.709
20
-83.2119
11
145.537
21
-83.4232
0
LINE
8
BLACK
6
CONTINUOUS
10
145.537
20
-83.4232
11
145.536
21
-83.4234
0
LINE
8
BLACK
6
CONTINUOUS
10
145.536
20
-83.4234
11
145.535
21
-83.4251
0
LINE
8
BLACK
6
CONTINUOUS
10
145.535
20
-83.4251
11
145.533
21
-83.4266
0
LINE
8
BLACK
6
CONTINUOUS
10
145.533
20
-83.4266
11
145.323
21
-83.6004
0
LINE
8
BLACK
6
CONTINUOUS
10
145.323
20
-83.6004
11
145.323
21
-83.6006
0
LINE
8
BLACK
6
CONTINUOUS
10
145.323
20
-83.6006
11
145.321
21
-83.6019
0
LINE
8
BLACK
6
CONTINUOUS
10
145.321
20
-83.6019
11
145.319
21
-83.6032
0
LINE
8
BLACK
6
CONTINUOUS
10
145.319
20
-83.6032
11
145.079
21
-83.7328
0
LINE
8
BLACK
6
CONTINUOUS
10
145.079
20
-83.7328
11
145.079
21
-83.733
0
LINE
8
BLACK
6
CONTINUOUS
10
145.079
20
-83.733
11
145.077
21
-83.7339
0
LINE
8
BLACK
6
CONTINUOUS
10
145.077
20
-83.7339
11
145.075
21
-83.7347
0
LINE
8
BLACK
6
CONTINUOUS
10
145.075
20
-83.7347
11
144.814
21
-83.8153
0
LINE
8
BLACK
6
CONTINUOUS
10
144.814
20
-83.8153
11
144.814
21
-83.8154
0
LINE
8
BLACK
6
CONTINUOUS
10
144.814
20
-83.8154
11
144.812
21
-83.8159
0
LINE
8
BLACK
6
CONTINUOUS
10
144.812
20
-83.8159
11
144.81
21
-83.8163
0
LINE
8
BLACK
6
CONTINUOUS
10
144.81
20
-83.8163
11
144.538
21
-83.8448
0
LINE
8
BLACK
6
CONTINUOUS
10
144.538
20
-83.8448
11
144.538
21
-83.8449
0
LINE
8
BLACK
6
CONTINUOUS
10
144.538
20
-83.8449
11
144.537
21
-83.8449
0
LINE
8
BLACK
6
CONTINUOUS
10
144.537
20
-83.8449
11
144.536
21
-83.845
0
LINE
8
BLACK
6
CONTINUOUS
10
144.536
20
-83.845
11
144.527
21
-83.845
0
LINE
8
BLACK
6
CONTINUOUS
10
144.527
20
-83.845
11
144.527
21
-83.845
0
LINE
8
BLACK
6
CONTINUOUS
10
144.527
20
-83.845
11
127.445
21
-83.845
0
LINE
8
BLACK
6
CONTINUOUS
10
127.445
20
-83.845
11
127.442
21
-83.845
  0
ENDSEC
  0
EOF
