  0
SECTION
  2
HEADER
  9
$ANGBASE
  50
0.0
  9
$ANGDIR
  70
1
  9
$MEASUREMENT
  70
1
  0
ENDSEC
  0
SECTION
  2
TABLES
  0
TABLE
  2
LTYPE
  70
4
  0
LTYPE
  5
40F
  2
CONTINUOUS
  70
0
  3
Solid line
  72
65
  73
0
  40
0.0
  0
LTYPE
  5
410
  2
DASHDOT
 70
0
  3
Dash Dot ____ _ ____ _
 72
65
 73
4
 40
2.0
 49
1.25
 49
-0.25
 49
0.25
 49
-0.25
  0
LTYPE
  5
411
  2
DASHED
 70
0
  3
Dashed __ __ __ __ __
 72
65
 73
2
 40
0.75
 49
0.5
 49
-0.25
  0
LTYPE
  5
43B
  2
DOTTED
 70
0
  3
Dotted .  .  .  .
 72
65
 73
2
 40
0.2
 49
0.0
 49
-0.2
  0
ENDTAB
  0
TABLE
  2
STYLE
  70
4
  0
STYLE
  2
KICAD
  70
0
  40
0
  41
1
  42
1
  50
0
  71
0
  3
isocp.shx
  0
STYLE
  2
KICADB
  70
0
  40
0
  41
1
  42
1
  50
0
  71
0
  3
isocp.shx
  0
STYLE
  2
KICADI
  70
0
  40
0
  41
1
  42
1
  50
15
  71
0
  3
isocp.shx
  0
STYLE
  2
KICADBI
  70
0
  40
0
  41
1
  42
1
  50
15
  71
0
  3
isocp.shx
  0
ENDTAB
  0
TABLE
  2
LAYER
  70
1
  0
LAYER
  2
BLACK
  70
0
  62
7
  6
CONTINUOUS
  0
ENDTAB
  0
ENDSEC
  0
SECTION
  2
ENTITIES
0
LINE
8
BLACK
6
CONTINUOUS
10
180.973
20
-167.03
11
180.973
21
-167.03
0
LINE
8
BLACK
6
CONTINUOUS
10
180.973
20
-167.03
11
180.701
21
-167.003
0
LINE
8
BLACK
6
CONTINUOUS
10
180.701
20
-167.003
11
180.701
21
-167.003
0
LINE
8
BLACK
6
CONTINUOUS
10
180.701
20
-167.003
11
180.699
21
-167.003
0
LINE
8
BLACK
6
CONTINUOUS
10
180.699
20
-167.003
11
180.696
21
-167.002
0
LINE
8
BLACK
6
CONTINUOUS
10
180.696
20
-167.002
11
180.435
21
-166.924
0
LINE
8
BLACK
6
CONTINUOUS
10
180.435
20
-166.924
11
180.435
21
-166.923
0
LINE
8
BLACK
6
CONTINUOUS
10
180.435
20
-166.923
11
180.433
21
-166.923
0
LINE
8
BLACK
6
CONTINUOUS
10
180.433
20
-166.923
11
180.431
21
-166.922
0
LINE
8
BLACK
6
CONTINUOUS
10
180.431
20
-166.922
11
180.19
21
-166.794
0
LINE
8
BLACK
6
CONTINUOUS
10
180.19
20
-166.794
11
180.19
21
-166.793
0
LINE
8
BLACK
6
CONTINUOUS
10
180.19
20
-166.793
11
180.188
21
-166.792
0
LINE
8
BLACK
6
CONTINUOUS
10
180.188
20
-166.792
11
180.186
21
-166.791
0
LINE
8
BLACK
6
CONTINUOUS
10
180.186
20
-166.791
11
179.975
21
-166.619
0
LINE
8
BLACK
6
CONTINUOUS
10
179.975
20
-166.619
11
179.975
21
-166.618
0
LINE
8
BLACK
6
CONTINUOUS
10
179.975
20
-166.618
11
179.973
21
-166.617
0
LINE
8
BLACK
6
CONTINUOUS
10
179.973
20
-166.617
11
179.971
21
-166.615
0
LINE
8
BLACK
6
CONTINUOUS
10
179.971
20
-166.615
11
179.798
21
-166.405
0
LINE
8
BLACK
6
CONTINUOUS
10
179.798
20
-166.405
11
179.797
21
-166.405
0
LINE
8
BLACK
6
CONTINUOUS
10
179.797
20
-166.405
11
179.796
21
-166.403
0
LINE
8
BLACK
6
CONTINUOUS
10
179.796
20
-166.403
11
179.795
21
-166.401
0
LINE
8
BLACK
6
CONTINUOUS
10
179.795
20
-166.401
11
179.665
21
-166.161
0
LINE
8
BLACK
6
CONTINUOUS
10
179.665
20
-166.161
11
179.665
21
-166.161
0
LINE
8
BLACK
6
CONTINUOUS
10
179.665
20
-166.161
11
179.664
21
-166.159
0
LINE
8
BLACK
6
CONTINUOUS
10
179.664
20
-166.159
11
179.663
21
-166.157
0
LINE
8
BLACK
6
CONTINUOUS
10
179.663
20
-166.157
11
179.583
21
-165.896
0
LINE
8
BLACK
6
CONTINUOUS
10
179.583
20
-165.896
11
179.583
21
-165.896
0
LINE
8
BLACK
6
CONTINUOUS
10
179.583
20
-165.896
11
179.582
21
-165.894
0
LINE
8
BLACK
6
CONTINUOUS
10
179.582
20
-165.894
11
179.582
21
-165.892
0
LINE
8
BLACK
6
CONTINUOUS
10
179.582
20
-165.892
11
179.553
21
-165.62
0
LINE
8
BLACK
6
CONTINUOUS
10
179.553
20
-165.62
11
179.553
21
-165.62
0
LINE
8
BLACK
6
CONTINUOUS
10
179.553
20
-165.62
11
179.553
21
-165.619
0
LINE
8
BLACK
6
CONTINUOUS
10
179.553
20
-165.619
11
179.553
21
-165.618
0
LINE
8
BLACK
6
CONTINUOUS
10
179.553
20
-165.618
11
179.553
21
-165.609
0
LINE
8
BLACK
6
CONTINUOUS
10
179.553
20
-165.609
11
179.553
21
-165.609
0
LINE
8
BLACK
6
CONTINUOUS
10
179.553
20
-165.609
11
179.553
21
-163.64
0
LINE
8
BLACK
6
CONTINUOUS
10
179.553
20
-163.64
11
179.553
21
-163.64
0
LINE
8
BLACK
6
CONTINUOUS
10
179.553
20
-163.64
11
179.553
21
-163.631
0
LINE
8
BLACK
6
CONTINUOUS
10
179.553
20
-163.631
11
179.525
21
-163.364
0
LINE
8
BLACK
6
CONTINUOUS
10
179.525
20
-163.364
11
179.446
21
-163.108
0
LINE
8
BLACK
6
CONTINUOUS
10
179.446
20
-163.108
11
179.318
21
-162.872
0
LINE
8
BLACK
6
CONTINUOUS
10
179.318
20
-162.872
11
179.148
21
-162.666
0
LINE
8
BLACK
6
CONTINUOUS
10
179.148
20
-162.666
11
178.94
21
-162.497
0
LINE
8
BLACK
6
CONTINUOUS
10
178.94
20
-162.497
11
178.704
21
-162.371
0
LINE
8
BLACK
6
CONTINUOUS
10
178.704
20
-162.371
11
178.447
21
-162.294
0
LINE
8
BLACK
6
CONTINUOUS
10
178.447
20
-162.294
11
178.18
21
-162.267
0
LINE
8
BLACK
6
CONTINUOUS
10
178.18
20
-162.267
11
176.111
21
-162.267
0
LINE
8
BLACK
6
CONTINUOUS
10
176.111
20
-162.267
11
176.111
21
-163.973
0
LINE
8
BLACK
6
CONTINUOUS
10
176.111
20
-163.973
11
176.111
21
-163.974
0
LINE
8
BLACK
6
CONTINUOUS
10
176.111
20
-163.974
11
176.111
21
-163.974
0
LINE
8
BLACK
6
CONTINUOUS
10
176.111
20
-163.974
11
176.03
21
-164.828
0
LINE
8
BLACK
6
CONTINUOUS
10
176.03
20
-164.828
11
176.029
21
-164.831
0
LINE
8
BLACK
6
CONTINUOUS
10
176.029
20
-164.831
11
176.029
21
-164.832
0
LINE
8
BLACK
6
CONTINUOUS
10
176.029
20
-164.832
11
176.029
21
-164.833
0
LINE
8
BLACK
6
CONTINUOUS
10
176.029
20
-164.833
11
175.787
21
-165.656
0
LINE
8
BLACK
6
CONTINUOUS
10
175.787
20
-165.656
11
175.786
21
-165.658
0
LINE
8
BLACK
6
CONTINUOUS
10
175.786
20
-165.658
11
175.786
21
-165.659
0
LINE
8
BLACK
6
CONTINUOUS
10
175.786
20
-165.659
11
175.786
21
-165.66
0
LINE
8
BLACK
6
CONTINUOUS
10
175.786
20
-165.66
11
175.393
21
-166.423
0
LINE
8
BLACK
6
CONTINUOUS
10
175.393
20
-166.423
11
175.392
21
-166.425
0
LINE
8
BLACK
6
CONTINUOUS
10
175.392
20
-166.425
11
175.391
21
-166.426
0
LINE
8
BLACK
6
CONTINUOUS
10
175.391
20
-166.426
11
175.39
21
-166.427
0
LINE
8
BLACK
6
CONTINUOUS
10
175.39
20
-166.427
11
174.86
21
-167.101
0
LINE
8
BLACK
6
CONTINUOUS
10
174.86
20
-167.101
11
174.859
21
-167.103
0
LINE
8
BLACK
6
CONTINUOUS
10
174.859
20
-167.103
11
174.858
21
-167.104
0
LINE
8
BLACK
6
CONTINUOUS
10
174.858
20
-167.104
11
174.857
21
-167.105
0
LINE
8
BLACK
6
CONTINUOUS
10
174.857
20
-167.105
11
174.209
21
-167.667
0
LINE
8
BLACK
6
CONTINUOUS
10
174.209
20
-167.667
11
174.207
21
-167.668
0
LINE
8
BLACK
6
CONTINUOUS
10
174.207
20
-167.668
11
174.206
21
-167.669
0
LINE
8
BLACK
6
CONTINUOUS
10
174.206
20
-167.669
11
174.205
21
-167.67
0
LINE
8
BLACK
6
CONTINUOUS
10
174.205
20
-167.67
11
173.463
21
-168.099
0
LINE
8
BLACK
6
CONTINUOUS
10
173.463
20
-168.099
11
173.461
21
-168.1
0
LINE
8
BLACK
6
CONTINUOUS
10
173.461
20
-168.1
11
173.46
21
-168.101
0
LINE
8
BLACK
6
CONTINUOUS
10
173.46
20
-168.101
11
173.459
21
-168.101
0
LINE
8
BLACK
6
CONTINUOUS
10
173.459
20
-168.101
11
172.649
21
-168.382
0
LINE
8
BLACK
6
CONTINUOUS
10
172.649
20
-168.382
11
172.646
21
-168.383
0
LINE
8
BLACK
6
CONTINUOUS
10
172.646
20
-168.383
11
172.645
21
-168.383
0
LINE
8
BLACK
6
CONTINUOUS
10
172.645
20
-168.383
11
172.644
21
-168.383
0
LINE
8
BLACK
6
CONTINUOUS
10
172.644
20
-168.383
11
171.795
21
-168.507
0
LINE
8
BLACK
6
CONTINUOUS
10
171.795
20
-168.507
11
171.793
21
-168.507
0
LINE
8
BLACK
6
CONTINUOUS
10
171.793
20
-168.507
11
171.792
21
-168.507
0
LINE
8
BLACK
6
CONTINUOUS
10
171.792
20
-168.507
11
171.79
21
-168.507
0
LINE
8
BLACK
6
CONTINUOUS
10
171.79
20
-168.507
11
170.934
21
-168.467
0
LINE
8
BLACK
6
CONTINUOUS
10
170.934
20
-168.467
11
170.931
21
-168.467
0
LINE
8
BLACK
6
CONTINUOUS
10
170.931
20
-168.467
11
170.93
21
-168.467
0
LINE
8
BLACK
6
CONTINUOUS
10
170.93
20
-168.467
11
170.929
21
-168.466
0
LINE
8
BLACK
6
CONTINUOUS
10
170.929
20
-168.466
11
170.095
21
-168.265
0
LINE
8
BLACK
6
CONTINUOUS
10
170.095
20
-168.265
11
170.093
21
-168.265
0
LINE
8
BLACK
6
CONTINUOUS
10
170.093
20
-168.265
11
170.092
21
-168.264
0
LINE
8
BLACK
6
CONTINUOUS
10
170.092
20
-168.264
11
170.091
21
-168.264
0
LINE
8
BLACK
6
CONTINUOUS
10
170.091
20
-168.264
11
169.31
21
-167.909
0
LINE
8
BLACK
6
CONTINUOUS
10
169.31
20
-167.909
11
169.31
21
-167.909
0
LINE
8
BLACK
6
CONTINUOUS
10
169.31
20
-167.909
11
169.31
21
-167.909
0
LINE
8
BLACK
6
CONTINUOUS
10
169.31
20
-167.909
11
169.308
21
-167.908
0
LINE
8
BLACK
6
CONTINUOUS
10
169.308
20
-167.908
11
169.307
21
-167.907
0
LINE
8
BLACK
6
CONTINUOUS
10
169.307
20
-167.907
11
169.306
21
-167.907
0
LINE
8
BLACK
6
CONTINUOUS
10
169.306
20
-167.907
11
168.606
21
-167.41
0
LINE
8
BLACK
6
CONTINUOUS
10
168.606
20
-167.41
11
168.604
21
-167.409
0
LINE
8
BLACK
6
CONTINUOUS
10
168.604
20
-167.409
11
168.604
21
-167.408
0
LINE
8
BLACK
6
CONTINUOUS
10
168.604
20
-167.408
11
168.603
21
-167.407
0
LINE
8
BLACK
6
CONTINUOUS
10
168.603
20
-167.407
11
168.01
21
-166.788
0
LINE
8
BLACK
6
CONTINUOUS
10
168.01
20
-166.788
11
168.008
21
-166.786
0
LINE
8
BLACK
6
CONTINUOUS
10
168.008
20
-166.786
11
168.007
21
-166.785
0
LINE
8
BLACK
6
CONTINUOUS
10
168.007
20
-166.785
11
168.007
21
-166.784
0
LINE
8
BLACK
6
CONTINUOUS
10
168.007
20
-166.784
11
167.541
21
-166.063
0
LINE
8
BLACK
6
CONTINUOUS
10
167.541
20
-166.063
11
167.54
21
-166.061
0
LINE
8
BLACK
6
CONTINUOUS
10
167.54
20
-166.061
11
167.54
21
-166.06
0
LINE
8
BLACK
6
CONTINUOUS
10
167.54
20
-166.06
11
167.539
21
-166.059
0
LINE
8
BLACK
6
CONTINUOUS
10
167.539
20
-166.059
11
167.219
21
-165.264
0
LINE
8
BLACK
6
CONTINUOUS
10
167.219
20
-165.264
11
167.218
21
-165.261
0
LINE
8
BLACK
6
CONTINUOUS
10
167.218
20
-165.261
11
167.218
21
-165.26
0
LINE
8
BLACK
6
CONTINUOUS
10
167.218
20
-165.26
11
167.217
21
-165.259
0
LINE
8
BLACK
6
CONTINUOUS
10
167.217
20
-165.259
11
167.053
21
-164.417
0
LINE
8
BLACK
6
CONTINUOUS
10
167.053
20
-164.417
11
167.052
21
-164.415
0
LINE
8
BLACK
6
CONTINUOUS
10
167.052
20
-164.415
11
167.052
21
-164.414
0
LINE
8
BLACK
6
CONTINUOUS
10
167.052
20
-164.414
11
167.052
21
-164.414
0
LINE
8
BLACK
6
CONTINUOUS
10
167.052
20
-164.414
11
167.031
21
-163.974
0
LINE
8
BLACK
6
CONTINUOUS
10
167.031
20
-163.974
11
167.031
21
-163.973
0
LINE
8
BLACK
6
CONTINUOUS
10
167.031
20
-163.973
11
167.031
21
-162.267
0
LINE
8
BLACK
6
CONTINUOUS
10
167.031
20
-162.267
11
161.672
21
-162.267
0
LINE
8
BLACK
6
CONTINUOUS
10
161.672
20
-162.267
11
143.642
21
-162.966
0
LINE
8
BLACK
6
CONTINUOUS
10
143.642
20
-162.966
11
125.93
21
-169.885
0
LINE
8
BLACK
6
CONTINUOUS
10
125.93
20
-169.885
11
115.887
21
-174.634
0
LINE
8
BLACK
6
CONTINUOUS
10
115.887
20
-174.634
11
112.01
21
-177.16
0
LINE
8
BLACK
6
CONTINUOUS
10
112.01
20
-177.16
11
113.23
21
-179.083
0
LINE
8
BLACK
6
CONTINUOUS
10
113.23
20
-179.083
11
113.23
21
-179.084
0
LINE
8
BLACK
6
CONTINUOUS
10
113.23
20
-179.084
11
113.626
21
-179.845
0
LINE
8
BLACK
6
CONTINUOUS
10
113.626
20
-179.845
11
113.627
21
-179.847
0
LINE
8
BLACK
6
CONTINUOUS
10
113.627
20
-179.847
11
113.627
21
-179.848
0
LINE
8
BLACK
6
CONTINUOUS
10
113.627
20
-179.848
11
113.627
21
-179.849
0
LINE
8
BLACK
6
CONTINUOUS
10
113.627
20
-179.849
11
113.872
21
-180.671
0
LINE
8
BLACK
6
CONTINUOUS
10
113.872
20
-180.671
11
113.872
21
-180.674
0
LINE
8
BLACK
6
CONTINUOUS
10
113.872
20
-180.674
11
113.872
21
-180.675
0
LINE
8
BLACK
6
CONTINUOUS
10
113.872
20
-180.675
11
113.873
21
-180.676
0
LINE
8
BLACK
6
CONTINUOUS
10
113.873
20
-180.676
11
113.957
21
-181.53
0
LINE
8
BLACK
6
CONTINUOUS
10
113.957
20
-181.53
11
113.957
21
-181.532
0
LINE
8
BLACK
6
CONTINUOUS
10
113.957
20
-181.532
11
113.957
21
-181.533
0
LINE
8
BLACK
6
CONTINUOUS
10
113.957
20
-181.533
11
113.957
21
-181.534
0
LINE
8
BLACK
6
CONTINUOUS
10
113.957
20
-181.534
11
113.879
21
-182.388
0
LINE
8
BLACK
6
CONTINUOUS
10
113.879
20
-182.388
11
113.879
21
-182.391
0
LINE
8
BLACK
6
CONTINUOUS
10
113.879
20
-182.391
11
113.878
21
-182.392
0
LINE
8
BLACK
6
CONTINUOUS
10
113.878
20
-182.392
11
113.878
21
-182.393
0
LINE
8
BLACK
6
CONTINUOUS
10
113.878
20
-182.393
11
113.64
21
-183.217
0
LINE
8
BLACK
6
CONTINUOUS
10
113.64
20
-183.217
11
113.639
21
-183.219
0
LINE
8
BLACK
6
CONTINUOUS
10
113.639
20
-183.219
11
113.638
21
-183.22
0
LINE
8
BLACK
6
CONTINUOUS
10
113.638
20
-183.22
11
113.638
21
-183.221
0
LINE
8
BLACK
6
CONTINUOUS
10
113.638
20
-183.221
11
113.248
21
-183.985
0
LINE
8
BLACK
6
CONTINUOUS
10
113.248
20
-183.985
11
113.247
21
-183.988
0
LINE
8
BLACK
6
CONTINUOUS
10
113.247
20
-183.988
11
113.246
21
-183.988
0
LINE
8
BLACK
6
CONTINUOUS
10
113.246
20
-183.988
11
113.246
21
-183.989
0
LINE
8
BLACK
6
CONTINUOUS
10
113.246
20
-183.989
11
112.718
21
-184.666
0
LINE
8
BLACK
6
CONTINUOUS
10
112.718
20
-184.666
11
112.717
21
-184.668
0
LINE
8
BLACK
6
CONTINUOUS
10
112.717
20
-184.668
11
112.716
21
-184.668
0
LINE
8
BLACK
6
CONTINUOUS
10
112.716
20
-184.668
11
112.715
21
-184.669
0
LINE
8
BLACK
6
CONTINUOUS
10
112.715
20
-184.669
11
112.069
21
-185.234
0
LINE
8
BLACK
6
CONTINUOUS
10
112.069
20
-185.234
11
112.067
21
-185.235
0
LINE
8
BLACK
6
CONTINUOUS
10
112.067
20
-185.235
11
112.066
21
-185.236
0
LINE
8
BLACK
6
CONTINUOUS
10
112.066
20
-185.236
11
112.065
21
-185.237
0
LINE
8
BLACK
6
CONTINUOUS
10
112.065
20
-185.237
11
111.325
21
-185.669
0
LINE
8
BLACK
6
CONTINUOUS
10
111.325
20
-185.669
11
111.322
21
-185.67
0
LINE
8
BLACK
6
CONTINUOUS
10
111.322
20
-185.67
11
111.321
21
-185.67
0
LINE
8
BLACK
6
CONTINUOUS
10
111.321
20
-185.67
11
111.32
21
-185.671
0
LINE
8
BLACK
6
CONTINUOUS
10
111.32
20
-185.671
11
110.511
21
-185.955
0
LINE
8
BLACK
6
CONTINUOUS
10
110.511
20
-185.955
11
110.509
21
-185.956
0
LINE
8
BLACK
6
CONTINUOUS
10
110.509
20
-185.956
11
110.508
21
-185.956
0
LINE
8
BLACK
6
CONTINUOUS
10
110.508
20
-185.956
11
110.507
21
-185.956
0
LINE
8
BLACK
6
CONTINUOUS
10
110.507
20
-185.956
11
109.658
21
-186.083
0
LINE
8
BLACK
6
CONTINUOUS
10
109.658
20
-186.083
11
109.656
21
-186.083
0
LINE
8
BLACK
6
CONTINUOUS
10
109.656
20
-186.083
11
109.655
21
-186.083
0
LINE
8
BLACK
6
CONTINUOUS
10
109.655
20
-186.083
11
109.653
21
-186.083
0
LINE
8
BLACK
6
CONTINUOUS
10
109.653
20
-186.083
11
108.796
21
-186.046
0
LINE
8
BLACK
6
CONTINUOUS
10
108.796
20
-186.046
11
108.794
21
-186.046
0
LINE
8
BLACK
6
CONTINUOUS
10
108.794
20
-186.046
11
108.793
21
-186.046
0
LINE
8
BLACK
6
CONTINUOUS
10
108.793
20
-186.046
11
108.792
21
-186.046
0
LINE
8
BLACK
6
CONTINUOUS
10
108.792
20
-186.046
11
107.957
21
-185.848
0
LINE
8
BLACK
6
CONTINUOUS
10
107.957
20
-185.848
11
107.957
21
-185.848
0
LINE
8
BLACK
6
CONTINUOUS
10
107.957
20
-185.848
11
107.957
21
-185.848
0
LINE
8
BLACK
6
CONTINUOUS
10
107.957
20
-185.848
11
107.955
21
-185.847
0
LINE
8
BLACK
6
CONTINUOUS
10
107.955
20
-185.847
11
107.954
21
-185.847
0
LINE
8
BLACK
6
CONTINUOUS
10
107.954
20
-185.847
11
107.953
21
-185.846
0
LINE
8
BLACK
6
CONTINUOUS
10
107.953
20
-185.846
11
107.171
21
-185.494
0
LINE
8
BLACK
6
CONTINUOUS
10
107.171
20
-185.494
11
107.168
21
-185.493
0
LINE
8
BLACK
6
CONTINUOUS
10
107.168
20
-185.493
11
107.168
21
-185.492
0
LINE
8
BLACK
6
CONTINUOUS
10
107.168
20
-185.492
11
107.167
21
-185.492
0
LINE
8
BLACK
6
CONTINUOUS
10
107.167
20
-185.492
11
106.465
21
-184.998
0
LINE
8
BLACK
6
CONTINUOUS
10
106.465
20
-184.998
11
106.463
21
-184.997
0
LINE
8
BLACK
6
CONTINUOUS
10
106.463
20
-184.997
11
106.462
21
-184.996
0
LINE
8
BLACK
6
CONTINUOUS
10
106.462
20
-184.996
11
106.462
21
-184.995
0
LINE
8
BLACK
6
CONTINUOUS
10
106.462
20
-184.995
11
105.866
21
-184.378
0
LINE
8
BLACK
6
CONTINUOUS
10
105.866
20
-184.378
11
105.864
21
-184.376
0
LINE
8
BLACK
6
CONTINUOUS
10
105.864
20
-184.376
11
105.864
21
-184.375
0
LINE
8
BLACK
6
CONTINUOUS
10
105.864
20
-184.375
11
105.864
21
-184.375
0
LINE
8
BLACK
6
CONTINUOUS
10
105.864
20
-184.375
11
105.585
21
-183.984
0
LINE
8
BLACK
6
CONTINUOUS
10
105.585
20
-183.984
11
105.585
21
-183.984
0
LINE
8
BLACK
6
CONTINUOUS
10
105.585
20
-183.984
11
104.374
21
-182.114
0
LINE
8
BLACK
6
CONTINUOUS
10
104.374
20
-182.114
11
91.351
21
-190.572
0
LINE
8
BLACK
6
CONTINUOUS
10
91.351
20
-190.572
11
91.3477
21
-190.574
0
LINE
8
BLACK
6
CONTINUOUS
10
91.3477
20
-190.574
11
91.3467
21
-190.574
0
LINE
8
BLACK
6
CONTINUOUS
10
91.3467
20
-190.574
11
91.1818
21
-190.642
0
LINE
8
BLACK
6
CONTINUOUS
10
91.1818
20
-190.642
11
91.1815
21
-190.642
0
LINE
8
BLACK
6
CONTINUOUS
10
91.1815
20
-190.642
11
91.1793
21
-190.643
0
LINE
8
BLACK
6
CONTINUOUS
10
91.1793
20
-190.643
11
91.1771
21
-190.644
0
LINE
8
BLACK
6
CONTINUOUS
10
91.1771
20
-190.644
11
91.0009
21
-190.679
0
LINE
8
BLACK
6
CONTINUOUS
10
91.0009
20
-190.679
11
91.0006
21
-190.679
0
LINE
8
BLACK
6
CONTINUOUS
10
91.0006
20
-190.679
11
90.9983
21
-190.679
0
LINE
8
BLACK
6
CONTINUOUS
10
90.9983
20
-190.679
11
90.9961
21
-190.679
0
LINE
8
BLACK
6
CONTINUOUS
10
90.9961
20
-190.679
11
90.8164
21
-190.679
0
LINE
8
BLACK
6
CONTINUOUS
10
90.8164
20
-190.679
11
90.8161
21
-190.679
0
LINE
8
BLACK
6
CONTINUOUS
10
90.8161
20
-190.679
11
90.8138
21
-190.679
0
LINE
8
BLACK
6
CONTINUOUS
10
90.8138
20
-190.679
11
90.8116
21
-190.678
0
LINE
8
BLACK
6
CONTINUOUS
10
90.8116
20
-190.678
11
90.6354
21
-190.644
0
LINE
8
BLACK
6
CONTINUOUS
10
90.6354
20
-190.644
11
90.6351
21
-190.643
0
LINE
8
BLACK
6
CONTINUOUS
10
90.6351
20
-190.643
11
90.6329
21
-190.643
0
LINE
8
BLACK
6
CONTINUOUS
10
90.6329
20
-190.643
11
90.6307
21
-190.642
0
LINE
8
BLACK
6
CONTINUOUS
10
90.6307
20
-190.642
11
90.4647
21
-190.574
0
LINE
8
BLACK
6
CONTINUOUS
10
90.4647
20
-190.574
11
90.4644
21
-190.573
0
LINE
8
BLACK
6
CONTINUOUS
10
90.4644
20
-190.573
11
90.4623
21
-190.572
0
LINE
8
BLACK
6
CONTINUOUS
10
90.4623
20
-190.572
11
90.4604
21
-190.571
0
LINE
8
BLACK
6
CONTINUOUS
10
90.4604
20
-190.571
11
90.3108
21
-190.472
0
LINE
8
BLACK
6
CONTINUOUS
10
90.3108
20
-190.472
11
90.3105
21
-190.472
0
LINE
8
BLACK
6
CONTINUOUS
10
90.3105
20
-190.472
11
90.3088
21
-190.47
0
LINE
8
BLACK
6
CONTINUOUS
10
90.3088
20
-190.47
11
90.307
21
-190.469
0
LINE
8
BLACK
6
CONTINUOUS
10
90.307
20
-190.469
11
90.1796
21
-190.342
0
LINE
8
BLACK
6
CONTINUOUS
10
90.1796
20
-190.342
11
90.1794
21
-190.342
0
LINE
8
BLACK
6
CONTINUOUS
10
90.1794
20
-190.342
11
90.1783
21
-190.341
0
LINE
8
BLACK
6
CONTINUOUS
10
90.1783
20
-190.341
11
90.1772
21
-190.339
0
LINE
8
BLACK
6
CONTINUOUS
10
90.1772
20
-190.339
11
90.121
21
-190.264
0
LINE
8
BLACK
6
CONTINUOUS
10
90.121
20
-190.264
11
90.1205
21
-190.263
0
LINE
8
BLACK
6
CONTINUOUS
10
90.1205
20
-190.263
11
72.5487
21
-163.258
0
LINE
8
BLACK
6
CONTINUOUS
10
72.5487
20
-163.258
11
72.547
21
-163.255
0
LINE
8
BLACK
6
CONTINUOUS
10
72.547
20
-163.255
11
72.5467
21
-163.254
0
LINE
8
BLACK
6
CONTINUOUS
10
72.5467
20
-163.254
11
72.4788
21
-163.089
0
LINE
8
BLACK
6
CONTINUOUS
10
72.4788
20
-163.089
11
72.4787
21
-163.089
0
LINE
8
BLACK
6
CONTINUOUS
10
72.4787
20
-163.089
11
72.4781
21
-163.087
0
LINE
8
BLACK
6
CONTINUOUS
10
72.4781
20
-163.087
11
72.4774
21
-163.085
0
LINE
8
BLACK
6
CONTINUOUS
10
72.4774
20
-163.085
11
72.4426
21
-162.908
0
LINE
8
BLACK
6
CONTINUOUS
10
72.4426
20
-162.908
11
72.4425
21
-162.908
0
LINE
8
BLACK
6
CONTINUOUS
10
72.4425
20
-162.908
11
72.4423
21
-162.906
0
LINE
8
BLACK
6
CONTINUOUS
10
72.4423
20
-162.906
11
72.4421
21
-162.903
0
LINE
8
BLACK
6
CONTINUOUS
10
72.4421
20
-162.903
11
72.4422
21
-162.724
0
LINE
8
BLACK
6
CONTINUOUS
10
72.4422
20
-162.724
11
72.4422
21
-162.724
0
LINE
8
BLACK
6
CONTINUOUS
10
72.4422
20
-162.724
11
72.4424
21
-162.721
0
LINE
8
BLACK
6
CONTINUOUS
10
72.4424
20
-162.721
11
72.4427
21
-162.719
0
LINE
8
BLACK
6
CONTINUOUS
10
72.4427
20
-162.719
11
72.4776
21
-162.543
0
LINE
8
BLACK
6
CONTINUOUS
10
72.4776
20
-162.543
11
72.4777
21
-162.542
0
LINE
8
BLACK
6
CONTINUOUS
10
72.4777
20
-162.542
11
72.4784
21
-162.54
0
LINE
8
BLACK
6
CONTINUOUS
10
72.4784
20
-162.54
11
72.479
21
-162.538
0
LINE
8
BLACK
6
CONTINUOUS
10
72.479
20
-162.538
11
72.5475
21
-162.372
0
LINE
8
BLACK
6
CONTINUOUS
10
72.5475
20
-162.372
11
72.5477
21
-162.372
0
LINE
8
BLACK
6
CONTINUOUS
10
72.5477
20
-162.372
11
72.5488
21
-162.37
0
LINE
8
BLACK
6
CONTINUOUS
10
72.5488
20
-162.37
11
72.5498
21
-162.368
0
LINE
8
BLACK
6
CONTINUOUS
10
72.5498
20
-162.368
11
72.6493
21
-162.218
0
LINE
8
BLACK
6
CONTINUOUS
10
72.6493
20
-162.218
11
72.6495
21
-162.218
0
LINE
8
BLACK
6
CONTINUOUS
10
72.6495
20
-162.218
11
72.6509
21
-162.216
0
LINE
8
BLACK
6
CONTINUOUS
10
72.6509
20
-162.216
11
72.6524
21
-162.214
0
LINE
8
BLACK
6
CONTINUOUS
10
72.6524
20
-162.214
11
72.779
21
-162.087
0
LINE
8
BLACK
6
CONTINUOUS
10
72.779
20
-162.087
11
72.7792
21
-162.087
0
LINE
8
BLACK
6
CONTINUOUS
10
72.7792
20
-162.087
11
72.7805
21
-162.086
0
LINE
8
BLACK
6
CONTINUOUS
10
72.7805
20
-162.086
11
72.7818
21
-162.085
0
LINE
8
BLACK
6
CONTINUOUS
10
72.7818
20
-162.085
11
72.8577
21
-162.028
0
LINE
8
BLACK
6
CONTINUOUS
10
72.8577
20
-162.028
11
72.858
21
-162.028
0
LINE
8
BLACK
6
CONTINUOUS
10
72.858
20
-162.028
11
72.8622
21
-162.025
0
LINE
8
BLACK
6
CONTINUOUS
10
72.8622
20
-162.025
11
72.8668
21
-162.024
0
LINE
8
BLACK
6
CONTINUOUS
10
72.8668
20
-162.024
11
72.8708
21
-162.023
0
LINE
8
BLACK
6
CONTINUOUS
10
72.8708
20
-162.023
11
101.785
21
-143.234
0
LINE
8
BLACK
6
CONTINUOUS
10
101.785
20
-143.234
11
101.785
21
-143.234
0
LINE
8
BLACK
6
CONTINUOUS
10
101.785
20
-143.234
11
101.864
21
-143.187
0
LINE
8
BLACK
6
CONTINUOUS
10
101.864
20
-143.187
11
102.004
21
-143.071
0
LINE
8
BLACK
6
CONTINUOUS
10
102.004
20
-143.071
11
102.118
21
-142.931
0
LINE
8
BLACK
6
CONTINUOUS
10
102.118
20
-142.931
11
102.203
21
-142.771
0
LINE
8
BLACK
6
CONTINUOUS
10
102.203
20
-142.771
11
102.256
21
-142.597
0
LINE
8
BLACK
6
CONTINUOUS
10
102.256
20
-142.597
11
102.274
21
-142.416
0
LINE
8
BLACK
6
CONTINUOUS
10
102.274
20
-142.416
11
102.273
21
-136.868
0
LINE
8
BLACK
6
CONTINUOUS
10
102.273
20
-136.868
11
100.187
21
-136.868
0
LINE
8
BLACK
6
CONTINUOUS
10
100.187
20
-136.868
11
100.186
21
-136.868
0
LINE
8
BLACK
6
CONTINUOUS
10
100.186
20
-136.868
11
100.186
21
-136.868
0
LINE
8
BLACK
6
CONTINUOUS
10
100.186
20
-136.868
11
99.3318
21
-136.787
0
LINE
8
BLACK
6
CONTINUOUS
10
99.3318
20
-136.787
11
99.3294
21
-136.786
0
LINE
8
BLACK
6
CONTINUOUS
10
99.3294
20
-136.786
11
99.3283
21
-136.786
0
LINE
8
BLACK
6
CONTINUOUS
10
99.3283
20
-136.786
11
99.3272
21
-136.786
0
LINE
8
BLACK
6
CONTINUOUS
10
99.3272
20
-136.786
11
98.5042
21
-136.544
0
LINE
8
BLACK
6
CONTINUOUS
10
98.5042
20
-136.544
11
98.5019
21
-136.543
0
LINE
8
BLACK
6
CONTINUOUS
10
98.5019
20
-136.543
11
98.5008
21
-136.543
0
LINE
8
BLACK
6
CONTINUOUS
10
98.5008
20
-136.543
11
98.4998
21
-136.543
0
LINE
8
BLACK
6
CONTINUOUS
10
98.4998
20
-136.543
11
97.7373
21
-136.15
0
LINE
8
BLACK
6
CONTINUOUS
10
97.7373
20
-136.15
11
97.7352
21
-136.149
0
LINE
8
BLACK
6
CONTINUOUS
10
97.7352
20
-136.149
11
97.7342
21
-136.148
0
LINE
8
BLACK
6
CONTINUOUS
10
97.7342
20
-136.148
11
97.7333
21
-136.147
0
LINE
8
BLACK
6
CONTINUOUS
10
97.7333
20
-136.147
11
97.0588
21
-135.617
0
LINE
8
BLACK
6
CONTINUOUS
10
97.0588
20
-135.617
11
97.057
21
-135.616
0
LINE
8
BLACK
6
CONTINUOUS
10
97.057
20
-135.616
11
97.0562
21
-135.615
0
LINE
8
BLACK
6
CONTINUOUS
10
97.0562
20
-135.615
11
97.0554
21
-135.614
0
LINE
8
BLACK
6
CONTINUOUS
10
97.0554
20
-135.614
11
96.4932
21
-134.966
0
LINE
8
BLACK
6
CONTINUOUS
10
96.4932
20
-134.966
11
96.4917
21
-134.964
0
LINE
8
BLACK
6
CONTINUOUS
10
96.4917
20
-134.964
11
96.4912
21
-134.963
0
LINE
8
BLACK
6
CONTINUOUS
10
96.4912
20
-134.963
11
96.4905
21
-134.962
0
LINE
8
BLACK
6
CONTINUOUS
10
96.4905
20
-134.962
11
96.061
21
-134.22
0
LINE
8
BLACK
6
CONTINUOUS
10
96.061
20
-134.22
11
96.0599
21
-134.218
0
LINE
8
BLACK
6
CONTINUOUS
10
96.0599
20
-134.218
11
96.0595
21
-134.217
0
LINE
8
BLACK
6
CONTINUOUS
10
96.0595
20
-134.217
11
96.059
21
-134.216
0
LINE
8
BLACK
6
CONTINUOUS
10
96.059
20
-134.216
11
95.7777
21
-133.406
0
LINE
8
BLACK
6
CONTINUOUS
10
95.7777
20
-133.406
11
95.777
21
-133.403
0
LINE
8
BLACK
6
CONTINUOUS
10
95.777
20
-133.403
11
95.7768
21
-133.402
0
LINE
8
BLACK
6
CONTINUOUS
10
95.7768
20
-133.402
11
95.7765
21
-133.401
0
LINE
8
BLACK
6
CONTINUOUS
10
95.7765
20
-133.401
11
95.6535
21
-132.552
0
LINE
8
BLACK
6
CONTINUOUS
10
95.6535
20
-132.552
11
95.6532
21
-132.55
0
LINE
8
BLACK
6
CONTINUOUS
10
95.6532
20
-132.55
11
95.6533
21
-132.549
0
LINE
8
BLACK
6
CONTINUOUS
10
95.6533
20
-132.549
11
95.6532
21
-132.547
0
LINE
8
BLACK
6
CONTINUOUS
10
95.6532
20
-132.547
11
95.6929
21
-131.691
0
LINE
8
BLACK
6
CONTINUOUS
10
95.6929
20
-131.691
11
95.6931
21
-131.688
0
LINE
8
BLACK
6
CONTINUOUS
10
95.6931
20
-131.688
11
95.6934
21
-131.687
0
LINE
8
BLACK
6
CONTINUOUS
10
95.6934
20
-131.687
11
95.6936
21
-131.686
0
LINE
8
BLACK
6
CONTINUOUS
10
95.6936
20
-131.686
11
95.8945
21
-130.852
0
LINE
8
BLACK
6
CONTINUOUS
10
95.8945
20
-130.852
11
95.8952
21
-130.85
0
LINE
8
BLACK
6
CONTINUOUS
10
95.8952
20
-130.85
11
95.8957
21
-130.849
0
LINE
8
BLACK
6
CONTINUOUS
10
95.8957
20
-130.849
11
95.8961
21
-130.848
0
LINE
8
BLACK
6
CONTINUOUS
10
95.8961
20
-130.848
11
96.251
21
-130.067
0
LINE
8
BLACK
6
CONTINUOUS
10
96.251
20
-130.067
11
96.2522
21
-130.065
0
LINE
8
BLACK
6
CONTINUOUS
10
96.2522
20
-130.065
11
96.2528
21
-130.064
0
LINE
8
BLACK
6
CONTINUOUS
10
96.2528
20
-130.064
11
96.2534
21
-130.063
0
LINE
8
BLACK
6
CONTINUOUS
10
96.2534
20
-130.063
11
96.7496
21
-129.363
0
LINE
8
BLACK
6
CONTINUOUS
10
96.7496
20
-129.363
11
96.7496
21
-129.363
0
LINE
8
BLACK
6
CONTINUOUS
10
96.7496
20
-129.363
11
96.7496
21
-129.363
0
LINE
8
BLACK
6
CONTINUOUS
10
96.7496
20
-129.363
11
96.7511
21
-129.361
0
LINE
8
BLACK
6
CONTINUOUS
10
96.7511
20
-129.361
11
96.752
21
-129.361
0
LINE
8
BLACK
6
CONTINUOUS
10
96.752
20
-129.361
11
96.7527
21
-129.36
0
LINE
8
BLACK
6
CONTINUOUS
10
96.7527
20
-129.36
11
97.3723
21
-128.767
0
LINE
8
BLACK
6
CONTINUOUS
10
97.3723
20
-128.767
11
97.3741
21
-128.765
0
LINE
8
BLACK
6
CONTINUOUS
10
97.3741
20
-128.765
11
97.3751
21
-128.764
0
LINE
8
BLACK
6
CONTINUOUS
10
97.3751
20
-128.764
11
97.376
21
-128.764
0
LINE
8
BLACK
6
CONTINUOUS
10
97.376
20
-128.764
11
98.0965
21
-128.298
0
LINE
8
BLACK
6
CONTINUOUS
10
98.0965
20
-128.298
11
98.0966
21
-128.298
0
LINE
8
BLACK
6
CONTINUOUS
10
98.0966
20
-128.298
11
98.0966
21
-128.298
0
LINE
8
BLACK
6
CONTINUOUS
10
98.0966
20
-128.298
11
98.0987
21
-128.297
0
LINE
8
BLACK
6
CONTINUOUS
10
98.0987
20
-128.297
11
98.0997
21
-128.297
0
LINE
8
BLACK
6
CONTINUOUS
10
98.0997
20
-128.297
11
98.1008
21
-128.296
0
LINE
8
BLACK
6
CONTINUOUS
10
98.1008
20
-128.296
11
98.8963
21
-127.976
0
LINE
8
BLACK
6
CONTINUOUS
10
98.8963
20
-127.976
11
98.8986
21
-127.975
0
LINE
8
BLACK
6
CONTINUOUS
10
98.8986
20
-127.975
11
98.8997
21
-127.975
0
LINE
8
BLACK
6
CONTINUOUS
10
98.8997
20
-127.975
11
98.9008
21
-127.974
0
LINE
8
BLACK
6
CONTINUOUS
10
98.9008
20
-127.974
11
99.7426
21
-127.81
0
LINE
8
BLACK
6
CONTINUOUS
10
99.7426
20
-127.81
11
99.745
21
-127.809
0
LINE
8
BLACK
6
CONTINUOUS
10
99.745
20
-127.809
11
99.7456
21
-127.809
0
LINE
8
BLACK
6
CONTINUOUS
10
99.7456
20
-127.809
11
99.7462
21
-127.809
0
LINE
8
BLACK
6
CONTINUOUS
10
99.7462
20
-127.809
11
100.186
21
-127.788
0
LINE
8
BLACK
6
CONTINUOUS
10
100.186
20
-127.788
11
100.187
21
-127.788
0
LINE
8
BLACK
6
CONTINUOUS
10
100.187
20
-127.788
11
102.274
21
-127.788
0
LINE
8
BLACK
6
CONTINUOUS
10
102.274
20
-127.788
11
102.273
21
-63.3083
0
LINE
8
BLACK
6
CONTINUOUS
10
102.273
20
-63.3083
11
102.273
21
-63.3083
0
LINE
8
BLACK
6
CONTINUOUS
10
102.273
20
-63.3083
11
102.273
21
-61.5788
0
LINE
8
BLACK
6
CONTINUOUS
10
102.273
20
-61.5788
11
102.273
21
-61.5776
0
LINE
8
BLACK
6
CONTINUOUS
10
102.273
20
-61.5776
11
102.273
21
-61.5776
0
LINE
8
BLACK
6
CONTINUOUS
10
102.273
20
-61.5776
11
102.354
21
-60.7238
0
LINE
8
BLACK
6
CONTINUOUS
10
102.354
20
-60.7238
11
102.355
21
-60.7214
0
LINE
8
BLACK
6
CONTINUOUS
10
102.355
20
-60.7214
11
102.355
21
-60.7203
0
LINE
8
BLACK
6
CONTINUOUS
10
102.355
20
-60.7203
11
102.355
21
-60.7192
0
LINE
8
BLACK
6
CONTINUOUS
10
102.355
20
-60.7192
11
102.597
21
-59.8962
0
LINE
8
BLACK
6
CONTINUOUS
10
102.597
20
-59.8962
11
102.598
21
-59.8939
0
LINE
8
BLACK
6
CONTINUOUS
10
102.598
20
-59.8939
11
102.598
21
-59.8928
0
LINE
8
BLACK
6
CONTINUOUS
10
102.598
20
-59.8928
11
102.598
21
-59.8918
0
LINE
8
BLACK
6
CONTINUOUS
10
102.598
20
-59.8918
11
102.991
21
-59.1293
0
LINE
8
BLACK
6
CONTINUOUS
10
102.991
20
-59.1293
11
102.992
21
-59.1272
0
LINE
8
BLACK
6
CONTINUOUS
10
102.992
20
-59.1272
11
102.993
21
-59.1262
0
LINE
8
BLACK
6
CONTINUOUS
10
102.993
20
-59.1262
11
102.994
21
-59.1253
0
LINE
8
BLACK
6
CONTINUOUS
10
102.994
20
-59.1253
11
103.524
21
-58.4508
0
LINE
8
BLACK
6
CONTINUOUS
10
103.524
20
-58.4508
11
103.525
21
-58.449
0
LINE
8
BLACK
6
CONTINUOUS
10
103.525
20
-58.449
11
103.526
21
-58.4482
0
LINE
8
BLACK
6
CONTINUOUS
10
103.526
20
-58.4482
11
103.527
21
-58.4474
0
LINE
8
BLACK
6
CONTINUOUS
10
103.527
20
-58.4474
11
104.175
21
-57.8852
0
LINE
8
BLACK
6
CONTINUOUS
10
104.175
20
-57.8852
11
104.177
21
-57.8837
0
LINE
8
BLACK
6
CONTINUOUS
10
104.177
20
-57.8837
11
104.178
21
-57.8832
0
LINE
8
BLACK
6
CONTINUOUS
10
104.178
20
-57.8832
11
104.179
21
-57.8825
0
LINE
8
BLACK
6
CONTINUOUS
10
104.179
20
-57.8825
11
104.921
21
-57.453
0
LINE
8
BLACK
6
CONTINUOUS
10
104.921
20
-57.453
11
104.923
21
-57.4519
0
LINE
8
BLACK
6
CONTINUOUS
10
104.923
20
-57.4519
11
104.924
21
-57.4515
0
LINE
8
BLACK
6
CONTINUOUS
10
104.924
20
-57.4515
11
104.925
21
-57.451
0
LINE
8
BLACK
6
CONTINUOUS
10
104.925
20
-57.451
11
105.735
21
-57.1697
0
LINE
8
BLACK
6
CONTINUOUS
10
105.735
20
-57.1697
11
105.738
21
-57.169
0
LINE
8
BLACK
6
CONTINUOUS
10
105.738
20
-57.169
11
105.739
21
-57.1688
0
LINE
8
BLACK
6
CONTINUOUS
10
105.739
20
-57.1688
11
105.74
21
-57.1685
0
LINE
8
BLACK
6
CONTINUOUS
10
105.74
20
-57.1685
11
106.589
21
-57.0455
0
LINE
8
BLACK
6
CONTINUOUS
10
106.589
20
-57.0455
11
106.591
21
-57.0452
0
LINE
8
BLACK
6
CONTINUOUS
10
106.591
20
-57.0452
11
106.592
21
-57.0453
0
LINE
8
BLACK
6
CONTINUOUS
10
106.592
20
-57.0453
11
106.594
21
-57.0452
0
LINE
8
BLACK
6
CONTINUOUS
10
106.594
20
-57.0452
11
107.45
21
-57.0849
0
LINE
8
BLACK
6
CONTINUOUS
10
107.45
20
-57.0849
11
107.453
21
-57.0851
0
LINE
8
BLACK
6
CONTINUOUS
10
107.453
20
-57.0851
11
107.454
21
-57.0854
0
LINE
8
BLACK
6
CONTINUOUS
10
107.454
20
-57.0854
11
107.455
21
-57.0856
0
LINE
8
BLACK
6
CONTINUOUS
10
107.455
20
-57.0856
11
108.289
21
-57.2865
0
LINE
8
BLACK
6
CONTINUOUS
10
108.289
20
-57.2865
11
108.289
21
-57.2865
0
LINE
8
BLACK
6
CONTINUOUS
10
108.289
20
-57.2865
11
108.289
21
-57.2865
0
LINE
8
BLACK
6
CONTINUOUS
10
108.289
20
-57.2865
11
108.291
21
-57.2872
0
LINE
8
BLACK
6
CONTINUOUS
10
108.291
20
-57.2872
11
108.292
21
-57.2877
0
LINE
8
BLACK
6
CONTINUOUS
10
108.292
20
-57.2877
11
108.293
21
-57.2881
0
LINE
8
BLACK
6
CONTINUOUS
10
108.293
20
-57.2881
11
109.074
21
-57.643
0
LINE
8
BLACK
6
CONTINUOUS
10
109.074
20
-57.643
11
109.076
21
-57.6442
0
LINE
8
BLACK
6
CONTINUOUS
10
109.076
20
-57.6442
11
109.077
21
-57.6448
0
LINE
8
BLACK
6
CONTINUOUS
10
109.077
20
-57.6448
11
109.078
21
-57.6454
0
LINE
8
BLACK
6
CONTINUOUS
10
109.078
20
-57.6454
11
109.778
21
-58.1416
0
LINE
8
BLACK
6
CONTINUOUS
10
109.778
20
-58.1416
11
109.778
21
-58.1416
0
LINE
8
BLACK
6
CONTINUOUS
10
109.778
20
-58.1416
11
109.778
21
-58.1416
0
LINE
8
BLACK
6
CONTINUOUS
10
109.778
20
-58.1416
11
109.78
21
-58.1431
0
LINE
8
BLACK
6
CONTINUOUS
10
109.78
20
-58.1431
11
109.78
21
-58.144
0
LINE
8
BLACK
6
CONTINUOUS
10
109.78
20
-58.144
11
109.781
21
-58.1447
0
LINE
8
BLACK
6
CONTINUOUS
10
109.781
20
-58.1447
11
110.374
21
-58.7643
0
LINE
8
BLACK
6
CONTINUOUS
10
110.374
20
-58.7643
11
110.376
21
-58.7661
0
LINE
8
BLACK
6
CONTINUOUS
10
110.376
20
-58.7661
11
110.377
21
-58.7671
0
LINE
8
BLACK
6
CONTINUOUS
10
110.377
20
-58.7671
11
110.377
21
-58.768
0
LINE
8
BLACK
6
CONTINUOUS
10
110.377
20
-58.768
11
110.843
21
-59.4885
0
LINE
8
BLACK
6
CONTINUOUS
10
110.843
20
-59.4885
11
110.843
21
-59.4886
0
LINE
8
BLACK
6
CONTINUOUS
10
110.843
20
-59.4886
11
110.843
21
-59.4886
0
LINE
8
BLACK
6
CONTINUOUS
10
110.843
20
-59.4886
11
110.844
21
-59.4907
0
LINE
8
BLACK
6
CONTINUOUS
10
110.844
20
-59.4907
11
110.844
21
-59.4917
0
LINE
8
BLACK
6
CONTINUOUS
10
110.844
20
-59.4917
11
110.845
21
-59.4928
0
LINE
8
BLACK
6
CONTINUOUS
10
110.845
20
-59.4928
11
111.165
21
-60.2883
0
LINE
8
BLACK
6
CONTINUOUS
10
111.165
20
-60.2883
11
111.166
21
-60.2906
0
LINE
8
BLACK
6
CONTINUOUS
10
111.166
20
-60.2906
11
111.166
21
-60.2917
0
LINE
8
BLACK
6
CONTINUOUS
10
111.166
20
-60.2917
11
111.167
21
-60.2928
0
LINE
8
BLACK
6
CONTINUOUS
10
111.167
20
-60.2928
11
111.331
21
-61.1346
0
LINE
8
BLACK
6
CONTINUOUS
10
111.331
20
-61.1346
11
111.332
21
-61.137
0
LINE
8
BLACK
6
CONTINUOUS
10
111.332
20
-61.137
11
111.332
21
-61.1376
0
LINE
8
BLACK
6
CONTINUOUS
10
111.332
20
-61.1376
11
111.332
21
-61.1382
0
LINE
8
BLACK
6
CONTINUOUS
10
111.332
20
-61.1382
11
111.353
21
-61.5782
0
LINE
8
BLACK
6
CONTINUOUS
10
111.353
20
-61.5782
11
111.353
21
-61.5788
0
LINE
8
BLACK
6
CONTINUOUS
10
111.353
20
-61.5788
11
111.353
21
-63.2845
0
LINE
8
BLACK
6
CONTINUOUS
10
111.353
20
-63.2845
11
121.031
21
-63.2845
0
LINE
8
BLACK
6
CONTINUOUS
10
121.031
20
-63.2845
11
121.039
21
-63.2845
0
LINE
8
BLACK
6
CONTINUOUS
10
121.039
20
-63.2845
11
121.307
21
-63.2564
0
LINE
8
BLACK
6
CONTINUOUS
10
121.307
20
-63.2564
11
121.563
21
-63.1772
0
LINE
8
BLACK
6
CONTINUOUS
10
121.563
20
-63.1772
11
121.798
21
-63.0498
0
LINE
8
BLACK
6
CONTINUOUS
10
121.798
20
-63.0498
11
122.004
21
-62.8792
0
LINE
8
BLACK
6
CONTINUOUS
10
122.004
20
-62.8792
11
122.174
21
-62.6717
0
LINE
8
BLACK
6
CONTINUOUS
10
122.174
20
-62.6717
11
122.299
21
-62.4353
0
LINE
8
BLACK
6
CONTINUOUS
10
122.299
20
-62.4353
11
122.377
21
-62.179
0
LINE
8
BLACK
6
CONTINUOUS
10
122.377
20
-62.179
11
122.403
21
-61.9113
0
LINE
8
BLACK
6
CONTINUOUS
10
122.403
20
-61.9113
11
122.403
21
-61.4033
0
LINE
8
BLACK
6
CONTINUOUS
10
122.403
20
-61.4033
11
122.403
21
-61.4021
0
LINE
8
BLACK
6
CONTINUOUS
10
122.403
20
-61.4021
11
122.403
21
-61.4021
0
LINE
8
BLACK
6
CONTINUOUS
10
122.403
20
-61.4021
11
122.414
21
-61.2911
0
LINE
8
BLACK
6
CONTINUOUS
10
122.414
20
-61.2911
11
122.414
21
-61.2907
0
LINE
8
BLACK
6
CONTINUOUS
10
122.414
20
-61.2907
11
122.415
21
-61.2885
0
LINE
8
BLACK
6
CONTINUOUS
10
122.415
20
-61.2885
11
122.415
21
-61.2863
0
LINE
8
BLACK
6
CONTINUOUS
10
122.415
20
-61.2863
11
122.447
21
-61.1795
0
LINE
8
BLACK
6
CONTINUOUS
10
122.447
20
-61.1795
11
122.447
21
-61.1792
0
LINE
8
BLACK
6
CONTINUOUS
10
122.447
20
-61.1792
11
122.448
21
-61.177
0
LINE
8
BLACK
6
CONTINUOUS
10
122.448
20
-61.177
11
122.449
21
-61.175
0
LINE
8
BLACK
6
CONTINUOUS
10
122.449
20
-61.175
11
122.501
21
-61.0765
0
LINE
8
BLACK
6
CONTINUOUS
10
122.501
20
-61.0765
11
122.502
21
-61.0762
0
LINE
8
BLACK
6
CONTINUOUS
10
122.502
20
-61.0762
11
122.503
21
-61.0743
0
LINE
8
BLACK
6
CONTINUOUS
10
122.503
20
-61.0743
11
122.504
21
-61.0724
0
LINE
8
BLACK
6
CONTINUOUS
10
122.504
20
-61.0724
11
122.575
21
-60.986
0
LINE
8
BLACK
6
CONTINUOUS
10
122.575
20
-60.986
11
122.575
21
-60.986
0
LINE
8
BLACK
6
CONTINUOUS
10
122.575
20
-60.986
11
122.575
21
-60.986
0
LINE
8
BLACK
6
CONTINUOUS
10
122.575
20
-60.986
11
122.575
21
-60.9857
0
LINE
8
BLACK
6
CONTINUOUS
10
122.575
20
-60.9857
11
122.576
21
-60.9842
0
LINE
8
BLACK
6
CONTINUOUS
10
122.576
20
-60.9842
11
122.578
21
-60.9825
0
LINE
8
BLACK
6
CONTINUOUS
10
122.578
20
-60.9825
11
122.664
21
-60.9114
0
LINE
8
BLACK
6
CONTINUOUS
10
122.664
20
-60.9114
11
122.664
21
-60.9114
0
LINE
8
BLACK
6
CONTINUOUS
10
122.664
20
-60.9114
11
122.664
21
-60.9114
0
LINE
8
BLACK
6
CONTINUOUS
10
122.664
20
-60.9114
11
122.664
21
-60.9112
0
LINE
8
BLACK
6
CONTINUOUS
10
122.664
20
-60.9112
11
122.666
21
-60.91
0
LINE
8
BLACK
6
CONTINUOUS
10
122.666
20
-60.91
11
122.668
21
-60.9087
0
LINE
8
BLACK
6
CONTINUOUS
10
122.668
20
-60.9087
11
122.766
21
-60.8557
0
LINE
8
BLACK
6
CONTINUOUS
10
122.766
20
-60.8557
11
122.766
21
-60.8557
0
LINE
8
BLACK
6
CONTINUOUS
10
122.766
20
-60.8557
11
122.766
21
-60.8557
0
LINE
8
BLACK
6
CONTINUOUS
10
122.766
20
-60.8557
11
122.766
21
-60.8555
0
LINE
8
BLACK
6
CONTINUOUS
10
122.766
20
-60.8555
11
122.769
21
-60.8546
0
LINE
8
BLACK
6
CONTINUOUS
10
122.769
20
-60.8546
11
122.771
21
-60.8538
0
LINE
8
BLACK
6
CONTINUOUS
10
122.771
20
-60.8538
11
122.877
21
-60.8208
0
LINE
8
BLACK
6
CONTINUOUS
10
122.877
20
-60.8208
11
122.878
21
-60.8207
0
LINE
8
BLACK
6
CONTINUOUS
10
122.878
20
-60.8207
11
122.88
21
-60.8203
0
LINE
8
BLACK
6
CONTINUOUS
10
122.88
20
-60.8203
11
122.882
21
-60.8198
0
LINE
8
BLACK
6
CONTINUOUS
10
122.882
20
-60.8198
11
122.993
21
-60.8082
0
LINE
8
BLACK
6
CONTINUOUS
10
122.993
20
-60.8082
11
122.993
21
-60.8081
0
LINE
8
BLACK
6
CONTINUOUS
10
122.993
20
-60.8081
11
122.994
21
-60.8081
0
LINE
8
BLACK
6
CONTINUOUS
10
122.994
20
-60.8081
11
122.995
21
-60.808
0
LINE
8
BLACK
6
CONTINUOUS
10
122.995
20
-60.808
11
122.998
21
-60.808
0
LINE
8
BLACK
6
CONTINUOUS
10
122.998
20
-60.808
11
122.998
21
-60.808
0
LINE
8
BLACK
6
CONTINUOUS
10
122.998
20
-60.808
11
140.081
21
-60.808
0
LINE
8
BLACK
6
CONTINUOUS
10
140.081
20
-60.808
11
140.089
21
-60.808
0
LINE
8
BLACK
6
CONTINUOUS
10
140.089
20
-60.808
11
140.357
21
-60.7799
0
LINE
8
BLACK
6
CONTINUOUS
10
140.357
20
-60.7799
11
140.613
21
-60.7007
0
LINE
8
BLACK
6
CONTINUOUS
10
140.613
20
-60.7007
11
140.848
21
-60.5733
0
LINE
8
BLACK
6
CONTINUOUS
10
140.848
20
-60.5733
11
141.054
21
-60.4027
0
LINE
8
BLACK
6
CONTINUOUS
10
141.054
20
-60.4027
11
141.224
21
-60.1952
0
LINE
8
BLACK
6
CONTINUOUS
10
141.224
20
-60.1952
11
141.349
21
-59.9588
0
LINE
8
BLACK
6
CONTINUOUS
10
141.349
20
-59.9588
11
141.427
21
-59.7025
0
LINE
8
BLACK
6
CONTINUOUS
10
141.427
20
-59.7025
11
141.453
21
-59.4348
0
LINE
8
BLACK
6
CONTINUOUS
10
141.453
20
-59.4348
11
141.453
21
-59.1173
0
LINE
8
BLACK
6
CONTINUOUS
10
141.453
20
-59.1173
11
141.453
21
-59.1161
0
LINE
8
BLACK
6
CONTINUOUS
10
141.453
20
-59.1161
11
141.453
21
-59.1161
0
LINE
8
BLACK
6
CONTINUOUS
10
141.453
20
-59.1161
11
141.464
21
-59.0051
0
LINE
8
BLACK
6
CONTINUOUS
10
141.464
20
-59.0051
11
141.464
21
-59.0047
0
LINE
8
BLACK
6
CONTINUOUS
10
141.464
20
-59.0047
11
141.465
21
-59.0025
0
LINE
8
BLACK
6
CONTINUOUS
10
141.465
20
-59.0025
11
141.465
21
-59.0003
0
LINE
8
BLACK
6
CONTINUOUS
10
141.465
20
-59.0003
11
141.497
21
-58.8935
0
LINE
8
BLACK
6
CONTINUOUS
10
141.497
20
-58.8935
11
141.497
21
-58.8932
0
LINE
8
BLACK
6
CONTINUOUS
10
141.497
20
-58.8932
11
141.498
21
-58.891
0
LINE
8
BLACK
6
CONTINUOUS
10
141.498
20
-58.891
11
141.499
21
-58.889
0
LINE
8
BLACK
6
CONTINUOUS
10
141.499
20
-58.889
11
141.551
21
-58.7905
0
LINE
8
BLACK
6
CONTINUOUS
10
141.551
20
-58.7905
11
141.552
21
-58.7902
0
LINE
8
BLACK
6
CONTINUOUS
10
141.552
20
-58.7902
11
141.553
21
-58.7883
0
LINE
8
BLACK
6
CONTINUOUS
10
141.553
20
-58.7883
11
141.554
21
-58.7864
0
LINE
8
BLACK
6
CONTINUOUS
10
141.554
20
-58.7864
11
141.625
21
-58.7
0
LINE
8
BLACK
6
CONTINUOUS
10
141.625
20
-58.7
11
141.625
21
-58.7
0
LINE
8
BLACK
6
CONTINUOUS
10
141.625
20
-58.7
11
141.625
21
-58.7
0
LINE
8
BLACK
6
CONTINUOUS
10
141.625
20
-58.7
11
141.625
21
-58.6997
0
LINE
8
BLACK
6
CONTINUOUS
10
141.625
20
-58.6997
11
141.626
21
-58.6982
0
LINE
8
BLACK
6
CONTINUOUS
10
141.626
20
-58.6982
11
141.628
21
-58.6965
0
LINE
8
BLACK
6
CONTINUOUS
10
141.628
20
-58.6965
11
141.714
21
-58.6254
0
LINE
8
BLACK
6
CONTINUOUS
10
141.714
20
-58.6254
11
141.714
21
-58.6254
0
LINE
8
BLACK
6
CONTINUOUS
10
141.714
20
-58.6254
11
141.714
21
-58.6254
0
LINE
8
BLACK
6
CONTINUOUS
10
141.714
20
-58.6254
11
141.714
21
-58.6252
0
LINE
8
BLACK
6
CONTINUOUS
10
141.714
20
-58.6252
11
141.716
21
-58.624
0
LINE
8
BLACK
6
CONTINUOUS
10
141.716
20
-58.624
11
141.718
21
-58.6227
0
LINE
8
BLACK
6
CONTINUOUS
10
141.718
20
-58.6227
11
141.816
21
-58.5697
0
LINE
8
BLACK
6
CONTINUOUS
10
141.816
20
-58.5697
11
141.816
21
-58.5697
0
LINE
8
BLACK
6
CONTINUOUS
10
141.816
20
-58.5697
11
141.816
21
-58.5697
0
LINE
8
BLACK
6
CONTINUOUS
10
141.816
20
-58.5697
11
141.816
21
-58.5695
0
LINE
8
BLACK
6
CONTINUOUS
10
141.816
20
-58.5695
11
141.819
21
-58.5686
0
LINE
8
BLACK
6
CONTINUOUS
10
141.819
20
-58.5686
11
141.821
21
-58.5678
0
LINE
8
BLACK
6
CONTINUOUS
10
141.821
20
-58.5678
11
141.927
21
-58.5348
0
LINE
8
BLACK
6
CONTINUOUS
10
141.927
20
-58.5348
11
141.928
21
-58.5347
0
LINE
8
BLACK
6
CONTINUOUS
10
141.928
20
-58.5347
11
141.93
21
-58.5343
0
LINE
8
BLACK
6
CONTINUOUS
10
141.93
20
-58.5343
11
141.932
21
-58.5338
0
LINE
8
BLACK
6
CONTINUOUS
10
141.932
20
-58.5338
11
142.043
21
-58.5222
0
LINE
8
BLACK
6
CONTINUOUS
10
142.043
20
-58.5222
11
142.043
21
-58.5221
0
LINE
8
BLACK
6
CONTINUOUS
10
142.043
20
-58.5221
11
142.044
21
-58.5221
0
LINE
8
BLACK
6
CONTINUOUS
10
142.044
20
-58.5221
11
142.045
21
-58.522
0
LINE
8
BLACK
6
CONTINUOUS
10
142.045
20
-58.522
11
142.048
21
-58.522
0
LINE
8
BLACK
6
CONTINUOUS
10
142.048
20
-58.522
11
142.048
21
-58.522
0
LINE
8
BLACK
6
CONTINUOUS
10
142.048
20
-58.522
11
163.895
21
-58.522
0
LINE
8
BLACK
6
CONTINUOUS
10
163.895
20
-58.522
11
163.896
21
-58.5221
0
LINE
8
BLACK
6
CONTINUOUS
10
163.896
20
-58.5221
11
163.896
21
-58.5221
0
LINE
8
BLACK
6
CONTINUOUS
10
163.896
20
-58.5221
11
164.007
21
-58.533
0
LINE
8
BLACK
6
CONTINUOUS
10
164.007
20
-58.533
11
164.007
21
-58.533
0
LINE
8
BLACK
6
CONTINUOUS
10
164.007
20
-58.533
11
164.01
21
-58.5335
0
LINE
8
BLACK
6
CONTINUOUS
10
164.01
20
-58.5335
11
164.012
21
-58.534
0
LINE
8
BLACK
6
CONTINUOUS
10
164.012
20
-58.534
11
164.119
21
-58.5662
0
LINE
8
BLACK
6
CONTINUOUS
10
164.119
20
-58.5662
11
164.119
21
-58.5663
0
LINE
8
BLACK
6
CONTINUOUS
10
164.119
20
-58.5663
11
164.121
21
-58.5672
0
LINE
8
BLACK
6
CONTINUOUS
10
164.121
20
-58.5672
11
164.123
21
-58.568
0
LINE
8
BLACK
6
CONTINUOUS
10
164.123
20
-58.568
11
164.221
21
-58.6204
0
LINE
8
BLACK
6
CONTINUOUS
10
164.221
20
-58.6204
11
164.222
21
-58.6206
0
LINE
8
BLACK
6
CONTINUOUS
10
164.222
20
-58.6206
11
164.224
21
-58.6219
0
LINE
8
BLACK
6
CONTINUOUS
10
164.224
20
-58.6219
11
164.226
21
-58.6231
0
LINE
8
BLACK
6
CONTINUOUS
10
164.226
20
-58.6231
11
164.312
21
-58.6936
0
LINE
8
BLACK
6
CONTINUOUS
10
164.312
20
-58.6936
11
164.312
21
-58.6936
0
LINE
8
BLACK
6
CONTINUOUS
10
164.312
20
-58.6936
11
164.312
21
-58.6936
0
LINE
8
BLACK
6
CONTINUOUS
10
164.312
20
-58.6936
11
164.312
21
-58.6938
0
LINE
8
BLACK
6
CONTINUOUS
10
164.312
20
-58.6938
11
164.314
21
-58.6954
0
LINE
8
BLACK
6
CONTINUOUS
10
164.314
20
-58.6954
11
164.315
21
-58.697
0
LINE
8
BLACK
6
CONTINUOUS
10
164.315
20
-58.697
11
164.387
21
-58.783
0
LINE
8
BLACK
6
CONTINUOUS
10
164.387
20
-58.783
11
164.387
21
-58.783
0
LINE
8
BLACK
6
CONTINUOUS
10
164.387
20
-58.783
11
164.387
21
-58.783
0
LINE
8
BLACK
6
CONTINUOUS
10
164.387
20
-58.783
11
164.387
21
-58.7833
0
LINE
8
BLACK
6
CONTINUOUS
10
164.387
20
-58.7833
11
164.388
21
-58.7852
0
LINE
8
BLACK
6
CONTINUOUS
10
164.388
20
-58.7852
11
164.389
21
-58.787
0
LINE
8
BLACK
6
CONTINUOUS
10
164.389
20
-58.787
11
164.442
21
-58.8851
0
LINE
8
BLACK
6
CONTINUOUS
10
164.442
20
-58.8851
11
164.442
21
-58.8851
0
LINE
8
BLACK
6
CONTINUOUS
10
164.442
20
-58.8851
11
164.442
21
-58.8851
0
LINE
8
BLACK
6
CONTINUOUS
10
164.442
20
-58.8851
11
164.443
21
-58.8855
0
LINE
8
BLACK
6
CONTINUOUS
10
164.443
20
-58.8855
11
164.443
21
-58.8876
0
LINE
8
BLACK
6
CONTINUOUS
10
164.443
20
-58.8876
11
164.444
21
-58.8896
0
LINE
8
BLACK
6
CONTINUOUS
10
164.444
20
-58.8896
11
164.477
21
-58.9962
0
LINE
8
BLACK
6
CONTINUOUS
10
164.477
20
-58.9962
11
164.477
21
-58.9965
0
LINE
8
BLACK
6
CONTINUOUS
10
164.477
20
-58.9965
11
164.478
21
-58.9988
0
LINE
8
BLACK
6
CONTINUOUS
10
164.478
20
-58.9988
11
164.478
21
-59.001
0
LINE
8
BLACK
6
CONTINUOUS
10
164.478
20
-59.001
11
164.49
21
-59.1119
0
LINE
8
BLACK
6
CONTINUOUS
10
164.49
20
-59.1119
11
164.49
21
-59.1122
0
LINE
8
BLACK
6
CONTINUOUS
10
164.49
20
-59.1122
11
164.49
21
-59.1133
0
LINE
8
BLACK
6
CONTINUOUS
10
164.49
20
-59.1133
11
164.49
21
-59.1144
0
LINE
8
BLACK
6
CONTINUOUS
10
164.49
20
-59.1144
11
164.49
21
-59.1172
0
LINE
8
BLACK
6
CONTINUOUS
10
164.49
20
-59.1172
11
164.49
21
-59.1173
0
LINE
8
BLACK
6
CONTINUOUS
10
164.49
20
-59.1173
11
164.49
21
-59.4994
0
LINE
8
BLACK
6
CONTINUOUS
10
164.49
20
-59.4994
11
164.49
21
-59.5079
0
LINE
8
BLACK
6
CONTINUOUS
10
164.49
20
-59.5079
11
164.518
21
-59.7754
0
LINE
8
BLACK
6
CONTINUOUS
10
164.518
20
-59.7754
11
164.597
21
-60.0311
0
LINE
8
BLACK
6
CONTINUOUS
10
164.597
20
-60.0311
11
164.725
21
-60.2666
0
LINE
8
BLACK
6
CONTINUOUS
10
164.725
20
-60.2666
11
164.895
21
-60.4729
0
LINE
8
BLACK
6
CONTINUOUS
10
164.895
20
-60.4729
11
165.103
21
-60.6422
0
LINE
8
BLACK
6
CONTINUOUS
10
165.103
20
-60.6422
11
165.339
21
-60.7679
0
LINE
8
BLACK
6
CONTINUOUS
10
165.339
20
-60.7679
11
165.596
21
-60.8453
0
LINE
8
BLACK
6
CONTINUOUS
10
165.596
20
-60.8453
11
165.863
21
-60.8715
0
LINE
8
BLACK
6
CONTINUOUS
10
165.863
20
-60.8715
11
182.119
21
-60.8715
0
LINE
8
BLACK
6
CONTINUOUS
10
182.119
20
-60.8715
11
182.12
21
-60.8716
0
LINE
8
BLACK
6
CONTINUOUS
10
182.12
20
-60.8716
11
182.12
21
-60.8716
0
LINE
8
BLACK
6
CONTINUOUS
10
182.12
20
-60.8716
11
182.392
21
-60.8982
0
LINE
8
BLACK
6
CONTINUOUS
10
182.392
20
-60.8982
11
182.392
21
-60.8983
0
LINE
8
BLACK
6
CONTINUOUS
10
182.392
20
-60.8983
11
182.394
21
-60.8987
0
LINE
8
BLACK
6
CONTINUOUS
10
182.394
20
-60.8987
11
182.397
21
-60.8992
0
LINE
8
BLACK
6
CONTINUOUS
10
182.397
20
-60.8992
11
182.658
21
-60.978
0
LINE
8
BLACK
6
CONTINUOUS
10
182.658
20
-60.978
11
182.658
21
-60.9781
0
LINE
8
BLACK
6
CONTINUOUS
10
182.658
20
-60.9781
11
182.66
21
-60.979
0
LINE
8
BLACK
6
CONTINUOUS
10
182.66
20
-60.979
11
182.662
21
-60.9798
0
LINE
8
BLACK
6
CONTINUOUS
10
182.662
20
-60.9798
11
182.903
21
-61.1078
0
LINE
8
BLACK
6
CONTINUOUS
10
182.903
20
-61.1078
11
182.903
21
-61.108
0
LINE
8
BLACK
6
CONTINUOUS
10
182.903
20
-61.108
11
182.905
21
-61.1093
0
LINE
8
BLACK
6
CONTINUOUS
10
182.905
20
-61.1093
11
182.907
21
-61.1105
0
LINE
8
BLACK
6
CONTINUOUS
10
182.907
20
-61.1105
11
183.118
21
-61.2829
0
LINE
8
BLACK
6
CONTINUOUS
10
183.118
20
-61.2829
11
183.118
21
-61.2829
0
LINE
8
BLACK
6
CONTINUOUS
10
183.118
20
-61.2829
11
183.118
21
-61.2829
0
LINE
8
BLACK
6
CONTINUOUS
10
183.118
20
-61.2829
11
183.118
21
-61.2831
0
LINE
8
BLACK
6
CONTINUOUS
10
183.118
20
-61.2831
11
183.12
21
-61.2847
0
LINE
8
BLACK
6
CONTINUOUS
10
183.12
20
-61.2847
11
183.122
21
-61.2863
0
LINE
8
BLACK
6
CONTINUOUS
10
183.122
20
-61.2863
11
183.295
21
-61.4964
0
LINE
8
BLACK
6
CONTINUOUS
10
183.295
20
-61.4964
11
183.296
21
-61.4966
0
LINE
8
BLACK
6
CONTINUOUS
10
183.296
20
-61.4966
11
183.297
21
-61.4986
0
LINE
8
BLACK
6
CONTINUOUS
10
183.297
20
-61.4986
11
183.298
21
-61.5004
0
LINE
8
BLACK
6
CONTINUOUS
10
183.298
20
-61.5004
11
183.428
21
-61.7402
0
LINE
8
BLACK
6
CONTINUOUS
10
183.428
20
-61.7402
11
183.428
21
-61.7402
0
LINE
8
BLACK
6
CONTINUOUS
10
183.428
20
-61.7402
11
183.428
21
-61.7403
0
LINE
8
BLACK
6
CONTINUOUS
10
183.428
20
-61.7403
11
183.428
21
-61.7406
0
LINE
8
BLACK
6
CONTINUOUS
10
183.428
20
-61.7406
11
183.429
21
-61.7427
0
LINE
8
BLACK
6
CONTINUOUS
10
183.429
20
-61.7427
11
183.43
21
-61.7447
0
LINE
8
BLACK
6
CONTINUOUS
10
183.43
20
-61.7447
11
183.51
21
-62.0052
0
LINE
8
BLACK
6
CONTINUOUS
10
183.51
20
-62.0052
11
183.51
21
-62.0055
0
LINE
8
BLACK
6
CONTINUOUS
10
183.51
20
-62.0055
11
183.511
21
-62.0078
0
LINE
8
BLACK
6
CONTINUOUS
10
183.511
20
-62.0078
11
183.511
21
-62.01
0
LINE
8
BLACK
6
CONTINUOUS
10
183.511
20
-62.01
11
183.54
21
-62.2811
0
LINE
8
BLACK
6
CONTINUOUS
10
183.54
20
-62.2811
11
183.54
21
-62.2815
0
LINE
8
BLACK
6
CONTINUOUS
10
183.54
20
-62.2815
11
183.54
21
-62.2826
0
LINE
8
BLACK
6
CONTINUOUS
10
183.54
20
-62.2826
11
183.54
21
-62.2837
0
LINE
8
BLACK
6
CONTINUOUS
10
183.54
20
-62.2837
11
183.54
21
-62.2922
0
LINE
8
BLACK
6
CONTINUOUS
10
183.54
20
-62.2922
11
183.54
21
-62.2923
0
LINE
8
BLACK
6
CONTINUOUS
10
183.54
20
-62.2923
11
183.54
21
-64.2619
0
LINE
8
BLACK
6
CONTINUOUS
10
183.54
20
-64.2619
11
183.54
21
-64.2704
0
LINE
8
BLACK
6
CONTINUOUS
10
183.54
20
-64.2704
11
183.568
21
-64.5379
0
LINE
8
BLACK
6
CONTINUOUS
10
183.568
20
-64.5379
11
183.647
21
-64.7936
0
LINE
8
BLACK
6
CONTINUOUS
10
183.647
20
-64.7936
11
183.775
21
-65.0291
0
LINE
8
BLACK
6
CONTINUOUS
10
183.775
20
-65.0291
11
183.945
21
-65.2354
0
LINE
8
BLACK
6
CONTINUOUS
10
183.945
20
-65.2354
11
184.153
21
-65.4047
0
LINE
8
BLACK
6
CONTINUOUS
10
184.153
20
-65.4047
11
184.389
21
-65.5304
0
LINE
8
BLACK
6
CONTINUOUS
10
184.389
20
-65.5304
11
184.646
21
-65.6078
0
LINE
8
BLACK
6
CONTINUOUS
10
184.646
20
-65.6078
11
184.913
21
-65.634
0
LINE
8
BLACK
6
CONTINUOUS
10
184.913
20
-65.634
11
210.413
21
-65.634
0
LINE
8
BLACK
6
CONTINUOUS
10
210.413
20
-65.634
11
210.413
21
-63.9283
0
LINE
8
BLACK
6
CONTINUOUS
10
210.413
20
-63.9283
11
210.413
21
-63.9271
0
LINE
8
BLACK
6
CONTINUOUS
10
210.413
20
-63.9271
11
210.413
21
-63.9271
0
LINE
8
BLACK
6
CONTINUOUS
10
210.413
20
-63.9271
11
210.495
21
-63.0733
0
LINE
8
BLACK
6
CONTINUOUS
10
210.495
20
-63.0733
11
210.495
21
-63.0709
0
LINE
8
BLACK
6
CONTINUOUS
10
210.495
20
-63.0709
11
210.496
21
-63.0698
0
LINE
8
BLACK
6
CONTINUOUS
10
210.496
20
-63.0698
11
210.496
21
-63.0687
0
LINE
8
BLACK
6
CONTINUOUS
10
210.496
20
-63.0687
11
210.737
21
-62.2457
0
LINE
8
BLACK
6
CONTINUOUS
10
210.737
20
-62.2457
11
210.738
21
-62.2434
0
LINE
8
BLACK
6
CONTINUOUS
10
210.738
20
-62.2434
11
210.739
21
-62.2423
0
LINE
8
BLACK
6
CONTINUOUS
10
210.739
20
-62.2423
11
210.739
21
-62.2413
0
LINE
8
BLACK
6
CONTINUOUS
10
210.739
20
-62.2413
11
211.132
21
-61.4788
0
LINE
8
BLACK
6
CONTINUOUS
10
211.132
20
-61.4788
11
211.133
21
-61.4767
0
LINE
8
BLACK
6
CONTINUOUS
10
211.133
20
-61.4767
11
211.134
21
-61.4757
0
LINE
8
BLACK
6
CONTINUOUS
10
211.134
20
-61.4757
11
211.134
21
-61.4748
0
LINE
8
BLACK
6
CONTINUOUS
10
211.134
20
-61.4748
11
211.664
21
-60.8003
0
LINE
8
BLACK
6
CONTINUOUS
10
211.664
20
-60.8003
11
211.666
21
-60.7985
0
LINE
8
BLACK
6
CONTINUOUS
10
211.666
20
-60.7985
11
211.667
21
-60.7977
0
LINE
8
BLACK
6
CONTINUOUS
10
211.667
20
-60.7977
11
211.667
21
-60.7969
0
LINE
8
BLACK
6
CONTINUOUS
10
211.667
20
-60.7969
11
212.315
21
-60.2347
0
LINE
8
BLACK
6
CONTINUOUS
10
212.315
20
-60.2347
11
212.317
21
-60.2332
0
LINE
8
BLACK
6
CONTINUOUS
10
212.317
20
-60.2332
11
212.318
21
-60.2327
0
LINE
8
BLACK
6
CONTINUOUS
10
212.318
20
-60.2327
11
212.319
21
-60.232
0
LINE
8
BLACK
6
CONTINUOUS
10
212.319
20
-60.232
11
213.061
21
-59.8025
0
LINE
8
BLACK
6
CONTINUOUS
10
213.061
20
-59.8025
11
213.064
21
-59.8014
0
LINE
8
BLACK
6
CONTINUOUS
10
213.064
20
-59.8014
11
213.065
21
-59.801
0
LINE
8
BLACK
6
CONTINUOUS
10
213.065
20
-59.801
11
213.066
21
-59.8005
0
LINE
8
BLACK
6
CONTINUOUS
10
213.066
20
-59.8005
11
213.876
21
-59.5192
0
LINE
8
BLACK
6
CONTINUOUS
10
213.876
20
-59.5192
11
213.878
21
-59.5185
0
LINE
8
BLACK
6
CONTINUOUS
10
213.878
20
-59.5185
11
213.879
21
-59.5183
0
LINE
8
BLACK
6
CONTINUOUS
10
213.879
20
-59.5183
11
213.881
21
-59.518
0
LINE
8
BLACK
6
CONTINUOUS
10
213.881
20
-59.518
11
214.729
21
-59.395
0
LINE
8
BLACK
6
CONTINUOUS
10
214.729
20
-59.395
11
214.732
21
-59.3947
0
LINE
8
BLACK
6
CONTINUOUS
10
214.732
20
-59.3947
11
214.733
21
-59.3948
0
LINE
8
BLACK
6
CONTINUOUS
10
214.733
20
-59.3948
11
214.734
21
-59.3947
0
LINE
8
BLACK
6
CONTINUOUS
10
214.734
20
-59.3947
11
215.591
21
-59.4344
0
LINE
8
BLACK
6
CONTINUOUS
10
215.591
20
-59.4344
11
215.593
21
-59.4346
0
LINE
8
BLACK
6
CONTINUOUS
10
215.593
20
-59.4346
11
215.594
21
-59.4349
0
LINE
8
BLACK
6
CONTINUOUS
10
215.594
20
-59.4349
11
215.596
21
-59.4351
0
LINE
8
BLACK
6
CONTINUOUS
10
215.596
20
-59.4351
11
216.429
21
-59.636
0
LINE
8
BLACK
6
CONTINUOUS
10
216.429
20
-59.636
11
216.429
21
-59.636
0
LINE
8
BLACK
6
CONTINUOUS
10
216.429
20
-59.636
11
216.429
21
-59.636
0
LINE
8
BLACK
6
CONTINUOUS
10
216.429
20
-59.636
11
216.432
21
-59.6367
0
LINE
8
BLACK
6
CONTINUOUS
10
216.432
20
-59.6367
11
216.433
21
-59.6372
0
LINE
8
BLACK
6
CONTINUOUS
10
216.433
20
-59.6372
11
216.434
21
-59.6376
0
LINE
8
BLACK
6
CONTINUOUS
10
216.434
20
-59.6376
11
217.215
21
-59.9925
0
LINE
8
BLACK
6
CONTINUOUS
10
217.215
20
-59.9925
11
217.217
21
-59.9937
0
LINE
8
BLACK
6
CONTINUOUS
10
217.217
20
-59.9937
11
217.218
21
-59.9943
0
LINE
8
BLACK
6
CONTINUOUS
10
217.218
20
-59.9943
11
217.219
21
-59.9949
0
LINE
8
BLACK
6
CONTINUOUS
10
217.219
20
-59.9949
11
217.918
21
-60.4911
0
LINE
8
BLACK
6
CONTINUOUS
10
217.918
20
-60.4911
11
217.918
21
-60.4911
0
LINE
8
BLACK
6
CONTINUOUS
10
217.918
20
-60.4911
11
217.918
21
-60.4911
0
LINE
8
BLACK
6
CONTINUOUS
10
217.918
20
-60.4911
11
217.92
21
-60.4926
0
LINE
8
BLACK
6
CONTINUOUS
10
217.92
20
-60.4926
11
217.921
21
-60.4935
0
LINE
8
BLACK
6
CONTINUOUS
10
217.921
20
-60.4935
11
217.922
21
-60.4942
0
LINE
8
BLACK
6
CONTINUOUS
10
217.922
20
-60.4942
11
218.515
21
-61.1138
0
LINE
8
BLACK
6
CONTINUOUS
10
218.515
20
-61.1138
11
218.517
21
-61.1156
0
LINE
8
BLACK
6
CONTINUOUS
10
218.517
20
-61.1156
11
218.517
21
-61.1166
0
LINE
8
BLACK
6
CONTINUOUS
10
218.517
20
-61.1166
11
218.518
21
-61.1175
0
LINE
8
BLACK
6
CONTINUOUS
10
218.518
20
-61.1175
11
218.983
21
-61.838
0
LINE
8
BLACK
6
CONTINUOUS
10
218.983
20
-61.838
11
218.983
21
-61.8381
0
LINE
8
BLACK
6
CONTINUOUS
10
218.983
20
-61.8381
11
218.983
21
-61.8381
0
LINE
8
BLACK
6
CONTINUOUS
10
218.983
20
-61.8381
11
218.984
21
-61.8402
0
LINE
8
BLACK
6
CONTINUOUS
10
218.984
20
-61.8402
11
218.985
21
-61.8412
0
LINE
8
BLACK
6
CONTINUOUS
10
218.985
20
-61.8412
11
218.985
21
-61.8423
0
LINE
8
BLACK
6
CONTINUOUS
10
218.985
20
-61.8423
11
219.306
21
-62.6378
0
LINE
8
BLACK
6
CONTINUOUS
10
219.306
20
-62.6378
11
219.307
21
-62.6401
0
LINE
8
BLACK
6
CONTINUOUS
10
219.307
20
-62.6401
11
219.307
21
-62.6412
0
LINE
8
BLACK
6
CONTINUOUS
10
219.307
20
-62.6412
11
219.307
21
-62.6423
0
LINE
8
BLACK
6
CONTINUOUS
10
219.307
20
-62.6423
11
219.472
21
-63.4841
0
LINE
8
BLACK
6
CONTINUOUS
10
219.472
20
-63.4841
11
219.472
21
-63.4865
0
LINE
8
BLACK
6
CONTINUOUS
10
219.472
20
-63.4865
11
219.472
21
-63.4871
0
LINE
8
BLACK
6
CONTINUOUS
10
219.472
20
-63.4871
11
219.472
21
-63.4877
0
LINE
8
BLACK
6
CONTINUOUS
10
219.472
20
-63.4877
11
219.494
21
-63.9277
0
LINE
8
BLACK
6
CONTINUOUS
10
219.494
20
-63.9277
11
219.494
21
-63.9283
0
LINE
8
BLACK
6
CONTINUOUS
10
219.494
20
-63.9283
11
219.494
21
-65.634
0
LINE
8
BLACK
6
CONTINUOUS
10
219.494
20
-65.634
11
230.824
21
-65.634
0
LINE
8
BLACK
6
CONTINUOUS
10
230.824
20
-65.634
11
230.825
21
-65.6341
0
LINE
8
BLACK
6
CONTINUOUS
10
230.825
20
-65.6341
11
230.825
21
-65.6341
0
LINE
8
BLACK
6
CONTINUOUS
10
230.825
20
-65.6341
11
231.096
21
-65.6607
0
LINE
8
BLACK
6
CONTINUOUS
10
231.096
20
-65.6607
11
231.097
21
-65.6608
0
LINE
8
BLACK
6
CONTINUOUS
10
231.097
20
-65.6608
11
231.099
21
-65.6612
0
LINE
8
BLACK
6
CONTINUOUS
10
231.099
20
-65.6612
11
231.101
21
-65.6617
0
LINE
8
BLACK
6
CONTINUOUS
10
231.101
20
-65.6617
11
231.362
21
-65.7405
0
LINE
8
BLACK
6
CONTINUOUS
10
231.362
20
-65.7405
11
231.362
21
-65.7406
0
LINE
8
BLACK
6
CONTINUOUS
10
231.362
20
-65.7406
11
231.365
21
-65.7415
0
LINE
8
BLACK
6
CONTINUOUS
10
231.365
20
-65.7415
11
231.367
21
-65.7423
0
LINE
8
BLACK
6
CONTINUOUS
10
231.367
20
-65.7423
11
231.607
21
-65.8703
0
LINE
8
BLACK
6
CONTINUOUS
10
231.607
20
-65.8703
11
231.608
21
-65.8705
0
LINE
8
BLACK
6
CONTINUOUS
10
231.608
20
-65.8705
11
231.609
21
-65.8718
0
LINE
8
BLACK
6
CONTINUOUS
10
231.609
20
-65.8718
11
231.611
21
-65.873
0
LINE
8
BLACK
6
CONTINUOUS
10
231.611
20
-65.873
11
231.823
21
-66.0454
0
LINE
8
BLACK
6
CONTINUOUS
10
231.823
20
-66.0454
11
231.823
21
-66.0454
0
LINE
8
BLACK
6
CONTINUOUS
10
231.823
20
-66.0454
11
231.823
21
-66.0454
0
LINE
8
BLACK
6
CONTINUOUS
10
231.823
20
-66.0454
11
231.823
21
-66.0456
0
LINE
8
BLACK
6
CONTINUOUS
10
231.823
20
-66.0456
11
231.825
21
-66.0472
0
LINE
8
BLACK
6
CONTINUOUS
10
231.825
20
-66.0472
11
231.826
21
-66.0488
0
LINE
8
BLACK
6
CONTINUOUS
10
231.826
20
-66.0488
11
232
21
-66.2589
0
LINE
8
BLACK
6
CONTINUOUS
10
232
20
-66.2589
11
232
21
-66.2591
0
LINE
8
BLACK
6
CONTINUOUS
10
232
20
-66.2591
11
232.001
21
-66.2611
0
LINE
8
BLACK
6
CONTINUOUS
10
232.001
20
-66.2611
11
232.003
21
-66.2629
0
LINE
8
BLACK
6
CONTINUOUS
10
232.003
20
-66.2629
11
232.132
21
-66.5027
0
LINE
8
BLACK
6
CONTINUOUS
10
232.132
20
-66.5027
11
232.132
21
-66.5027
0
LINE
8
BLACK
6
CONTINUOUS
10
232.132
20
-66.5027
11
232.132
21
-66.5028
0
LINE
8
BLACK
6
CONTINUOUS
10
232.132
20
-66.5028
11
232.132
21
-66.5031
0
LINE
8
BLACK
6
CONTINUOUS
10
232.132
20
-66.5031
11
232.133
21
-66.5052
0
LINE
8
BLACK
6
CONTINUOUS
10
232.133
20
-66.5052
11
232.134
21
-66.5072
0
LINE
8
BLACK
6
CONTINUOUS
10
232.134
20
-66.5072
11
232.215
21
-66.7677
0
LINE
8
BLACK
6
CONTINUOUS
10
232.215
20
-66.7677
11
232.215
21
-66.768
0
LINE
8
BLACK
6
CONTINUOUS
10
232.215
20
-66.768
11
232.215
21
-66.7703
0
LINE
8
BLACK
6
CONTINUOUS
10
232.215
20
-66.7703
11
232.216
21
-66.7725
0
LINE
8
BLACK
6
CONTINUOUS
10
232.216
20
-66.7725
11
232.244
21
-67.0436
0
LINE
8
BLACK
6
CONTINUOUS
10
232.244
20
-67.0436
11
232.244
21
-67.044
0
LINE
8
BLACK
6
CONTINUOUS
10
232.244
20
-67.044
11
232.244
21
-67.0451
0
LINE
8
BLACK
6
CONTINUOUS
10
232.244
20
-67.0451
11
232.244
21
-67.0462
0
LINE
8
BLACK
6
CONTINUOUS
10
232.244
20
-67.0462
11
232.244
21
-67.0547
0
LINE
8
BLACK
6
CONTINUOUS
10
232.244
20
-67.0547
11
232.244
21
-67.0548
0
LINE
8
BLACK
6
CONTINUOUS
10
232.244
20
-67.0548
11
232.244
21
-126.047
0
LINE
8
BLACK
6
CONTINUOUS
10
232.244
20
-126.047
11
233.95
21
-126.047
0
LINE
8
BLACK
6
CONTINUOUS
10
233.95
20
-126.047
11
233.951
21
-126.047
0
LINE
8
BLACK
6
CONTINUOUS
10
233.951
20
-126.047
11
233.951
21
-126.047
0
LINE
8
BLACK
6
CONTINUOUS
10
233.951
20
-126.047
11
234.805
21
-126.129
0
LINE
8
BLACK
6
CONTINUOUS
10
234.805
20
-126.129
11
234.805
21
-126.129
0
LINE
8
BLACK
6
CONTINUOUS
10
234.805
20
-126.129
11
234.805
21
-126.129
0
LINE
8
BLACK
6
CONTINUOUS
10
234.805
20
-126.129
11
234.808
21
-126.129
0
LINE
8
BLACK
6
CONTINUOUS
10
234.808
20
-126.129
11
234.809
21
-126.129
0
LINE
8
BLACK
6
CONTINUOUS
10
234.809
20
-126.129
11
234.81
21
-126.13
0
LINE
8
BLACK
6
CONTINUOUS
10
234.81
20
-126.13
11
235.633
21
-126.371
0
LINE
8
BLACK
6
CONTINUOUS
10
235.633
20
-126.371
11
235.635
21
-126.372
0
LINE
8
BLACK
6
CONTINUOUS
10
235.635
20
-126.372
11
235.636
21
-126.372
0
LINE
8
BLACK
6
CONTINUOUS
10
235.636
20
-126.372
11
235.637
21
-126.373
0
LINE
8
BLACK
6
CONTINUOUS
10
235.637
20
-126.373
11
236.4
21
-126.766
0
LINE
8
BLACK
6
CONTINUOUS
10
236.4
20
-126.766
11
236.402
21
-126.767
0
LINE
8
BLACK
6
CONTINUOUS
10
236.402
20
-126.767
11
236.403
21
-126.768
0
LINE
8
BLACK
6
CONTINUOUS
10
236.403
20
-126.768
11
236.404
21
-126.768
0
LINE
8
BLACK
6
CONTINUOUS
10
236.404
20
-126.768
11
237.078
21
-127.298
0
LINE
8
BLACK
6
CONTINUOUS
10
237.078
20
-127.298
11
237.08
21
-127.3
0
LINE
8
BLACK
6
CONTINUOUS
10
237.08
20
-127.3
11
237.081
21
-127.3
0
LINE
8
BLACK
6
CONTINUOUS
10
237.081
20
-127.3
11
237.082
21
-127.301
0
LINE
8
BLACK
6
CONTINUOUS
10
237.082
20
-127.301
11
237.644
21
-127.949
0
LINE
8
BLACK
6
CONTINUOUS
10
237.644
20
-127.949
11
237.645
21
-127.951
0
LINE
8
BLACK
6
CONTINUOUS
10
237.645
20
-127.951
11
237.646
21
-127.952
0
LINE
8
BLACK
6
CONTINUOUS
10
237.646
20
-127.952
11
237.647
21
-127.953
0
LINE
8
BLACK
6
CONTINUOUS
10
237.647
20
-127.953
11
238.076
21
-128.695
0
LINE
8
BLACK
6
CONTINUOUS
10
238.076
20
-128.695
11
238.077
21
-128.697
0
LINE
8
BLACK
6
CONTINUOUS
10
238.077
20
-128.697
11
238.078
21
-128.699
0
LINE
8
BLACK
6
CONTINUOUS
10
238.078
20
-128.699
11
238.078
21
-128.7
0
LINE
8
BLACK
6
CONTINUOUS
10
238.078
20
-128.7
11
238.359
21
-129.51
0
LINE
8
BLACK
6
CONTINUOUS
10
238.359
20
-129.51
11
238.36
21
-129.512
0
LINE
8
BLACK
6
CONTINUOUS
10
238.36
20
-129.512
11
238.36
21
-129.513
0
LINE
8
BLACK
6
CONTINUOUS
10
238.36
20
-129.513
11
238.36
21
-129.514
0
LINE
8
BLACK
6
CONTINUOUS
10
238.36
20
-129.514
11
238.484
21
-130.363
0
LINE
8
BLACK
6
CONTINUOUS
10
238.484
20
-130.363
11
238.484
21
-130.366
0
LINE
8
BLACK
6
CONTINUOUS
10
238.484
20
-130.366
11
238.484
21
-130.367
0
LINE
8
BLACK
6
CONTINUOUS
10
238.484
20
-130.367
11
238.484
21
-130.368
0
LINE
8
BLACK
6
CONTINUOUS
10
238.484
20
-130.368
11
238.444
21
-131.225
0
LINE
8
BLACK
6
CONTINUOUS
10
238.444
20
-131.225
11
238.444
21
-131.227
0
LINE
8
BLACK
6
CONTINUOUS
10
238.444
20
-131.227
11
238.444
21
-131.228
0
LINE
8
BLACK
6
CONTINUOUS
10
238.444
20
-131.228
11
238.443
21
-131.229
0
LINE
8
BLACK
6
CONTINUOUS
10
238.443
20
-131.229
11
238.242
21
-132.063
0
LINE
8
BLACK
6
CONTINUOUS
10
238.242
20
-132.063
11
238.242
21
-132.066
0
LINE
8
BLACK
6
CONTINUOUS
10
238.242
20
-132.066
11
238.241
21
-132.067
0
LINE
8
BLACK
6
CONTINUOUS
10
238.241
20
-132.067
11
238.241
21
-132.068
0
LINE
8
BLACK
6
CONTINUOUS
10
238.241
20
-132.068
11
237.886
21
-132.849
0
LINE
8
BLACK
6
CONTINUOUS
10
237.886
20
-132.849
11
237.886
21
-132.849
0
LINE
8
BLACK
6
CONTINUOUS
10
237.886
20
-132.849
11
237.886
21
-132.849
0
LINE
8
BLACK
6
CONTINUOUS
10
237.886
20
-132.849
11
237.885
21
-132.851
0
LINE
8
BLACK
6
CONTINUOUS
10
237.885
20
-132.851
11
237.884
21
-132.852
0
LINE
8
BLACK
6
CONTINUOUS
10
237.884
20
-132.852
11
237.884
21
-132.853
0
LINE
8
BLACK
6
CONTINUOUS
10
237.884
20
-132.853
11
237.387
21
-133.552
0
LINE
8
BLACK
6
CONTINUOUS
10
237.387
20
-133.552
11
237.386
21
-133.554
0
LINE
8
BLACK
6
CONTINUOUS
10
237.386
20
-133.554
11
237.385
21
-133.555
0
LINE
8
BLACK
6
CONTINUOUS
10
237.385
20
-133.555
11
237.384
21
-133.556
0
LINE
8
BLACK
6
CONTINUOUS
10
237.384
20
-133.556
11
236.765
21
-134.149
0
LINE
8
BLACK
6
CONTINUOUS
10
236.765
20
-134.149
11
236.763
21
-134.15
0
LINE
8
BLACK
6
CONTINUOUS
10
236.763
20
-134.15
11
236.762
21
-134.151
0
LINE
8
BLACK
6
CONTINUOUS
10
236.762
20
-134.151
11
236.761
21
-134.152
0
LINE
8
BLACK
6
CONTINUOUS
10
236.761
20
-134.152
11
236.04
21
-134.617
0
LINE
8
BLACK
6
CONTINUOUS
10
236.04
20
-134.617
11
236.038
21
-134.618
0
LINE
8
BLACK
6
CONTINUOUS
10
236.038
20
-134.618
11
236.037
21
-134.619
0
LINE
8
BLACK
6
CONTINUOUS
10
236.037
20
-134.619
11
236.036
21
-134.619
0
LINE
8
BLACK
6
CONTINUOUS
10
236.036
20
-134.619
11
235.241
21
-134.94
0
LINE
8
BLACK
6
CONTINUOUS
10
235.241
20
-134.94
11
235.238
21
-134.941
0
LINE
8
BLACK
6
CONTINUOUS
10
235.238
20
-134.941
11
235.237
21
-134.941
0
LINE
8
BLACK
6
CONTINUOUS
10
235.237
20
-134.941
11
235.236
21
-134.941
0
LINE
8
BLACK
6
CONTINUOUS
10
235.236
20
-134.941
11
234.394
21
-135.106
0
LINE
8
BLACK
6
CONTINUOUS
10
234.394
20
-135.106
11
234.392
21
-135.106
0
LINE
8
BLACK
6
CONTINUOUS
10
234.392
20
-135.106
11
234.391
21
-135.106
0
LINE
8
BLACK
6
CONTINUOUS
10
234.391
20
-135.106
11
234.391
21
-135.106
0
LINE
8
BLACK
6
CONTINUOUS
10
234.391
20
-135.106
11
233.951
21
-135.128
0
LINE
8
BLACK
6
CONTINUOUS
10
233.951
20
-135.128
11
233.95
21
-135.128
0
LINE
8
BLACK
6
CONTINUOUS
10
233.95
20
-135.128
11
232.244
21
-135.128
0
LINE
8
BLACK
6
CONTINUOUS
10
232.244
20
-135.128
11
232.244
21
-165.609
0
LINE
8
BLACK
6
CONTINUOUS
10
232.244
20
-165.609
11
232.244
21
-165.61
0
LINE
8
BLACK
6
CONTINUOUS
10
232.244
20
-165.61
11
232.244
21
-165.61
0
LINE
8
BLACK
6
CONTINUOUS
10
232.244
20
-165.61
11
232.218
21
-165.882
0
LINE
8
BLACK
6
CONTINUOUS
10
232.218
20
-165.882
11
232.218
21
-165.882
0
LINE
8
BLACK
6
CONTINUOUS
10
232.218
20
-165.882
11
232.217
21
-165.884
0
LINE
8
BLACK
6
CONTINUOUS
10
232.217
20
-165.884
11
232.217
21
-165.887
0
LINE
8
BLACK
6
CONTINUOUS
10
232.217
20
-165.887
11
232.138
21
-166.148
0
LINE
8
BLACK
6
CONTINUOUS
10
232.138
20
-166.148
11
232.138
21
-166.148
0
LINE
8
BLACK
6
CONTINUOUS
10
232.138
20
-166.148
11
232.137
21
-166.15
0
LINE
8
BLACK
6
CONTINUOUS
10
232.137
20
-166.15
11
232.136
21
-166.152
0
LINE
8
BLACK
6
CONTINUOUS
10
232.136
20
-166.152
11
232.008
21
-166.393
0
LINE
8
BLACK
6
CONTINUOUS
10
232.008
20
-166.393
11
232.008
21
-166.393
0
LINE
8
BLACK
6
CONTINUOUS
10
232.008
20
-166.393
11
232.007
21
-166.395
0
LINE
8
BLACK
6
CONTINUOUS
10
232.007
20
-166.395
11
232.005
21
-166.397
0
LINE
8
BLACK
6
CONTINUOUS
10
232.005
20
-166.397
11
231.833
21
-166.608
0
LINE
8
BLACK
6
CONTINUOUS
10
231.833
20
-166.608
11
231.833
21
-166.608
0
LINE
8
BLACK
6
CONTINUOUS
10
231.833
20
-166.608
11
231.831
21
-166.61
0
LINE
8
BLACK
6
CONTINUOUS
10
231.831
20
-166.61
11
231.83
21
-166.612
0
LINE
8
BLACK
6
CONTINUOUS
10
231.83
20
-166.612
11
231.62
21
-166.785
0
LINE
8
BLACK
6
CONTINUOUS
10
231.62
20
-166.785
11
231.619
21
-166.786
0
LINE
8
BLACK
6
CONTINUOUS
10
231.619
20
-166.786
11
231.617
21
-166.787
0
LINE
8
BLACK
6
CONTINUOUS
10
231.617
20
-166.787
11
231.616
21
-166.788
0
LINE
8
BLACK
6
CONTINUOUS
10
231.616
20
-166.788
11
231.376
21
-166.918
0
LINE
8
BLACK
6
CONTINUOUS
10
231.376
20
-166.918
11
231.375
21
-166.918
0
LINE
8
BLACK
6
CONTINUOUS
10
231.375
20
-166.918
11
231.373
21
-166.919
0
LINE
8
BLACK
6
CONTINUOUS
10
231.373
20
-166.919
11
231.371
21
-166.92
0
LINE
8
BLACK
6
CONTINUOUS
10
231.371
20
-166.92
11
231.111
21
-167
0
LINE
8
BLACK
6
CONTINUOUS
10
231.111
20
-167
11
231.11
21
-167
0
LINE
8
BLACK
6
CONTINUOUS
10
231.11
20
-167
11
231.108
21
-167.001
0
LINE
8
BLACK
6
CONTINUOUS
10
231.108
20
-167.001
11
231.106
21
-167.001
0
LINE
8
BLACK
6
CONTINUOUS
10
231.106
20
-167.001
11
230.835
21
-167.03
0
LINE
8
BLACK
6
CONTINUOUS
10
230.835
20
-167.03
11
230.835
21
-167.03
0
LINE
8
BLACK
6
CONTINUOUS
10
230.835
20
-167.03
11
230.833
21
-167.03
0
LINE
8
BLACK
6
CONTINUOUS
10
230.833
20
-167.03
11
230.832
21
-167.03
0
LINE
8
BLACK
6
CONTINUOUS
10
230.832
20
-167.03
11
230.824
21
-167.03
0
LINE
8
BLACK
6
CONTINUOUS
10
230.824
20
-167.03
11
230.824
21
-167.03
0
LINE
8
BLACK
6
CONTINUOUS
10
230.824
20
-167.03
11
180.974
21
-167.03
0
LINE
8
BLACK
6
CONTINUOUS
10
180.974
20
-167.03
11
180.973
21
-167.03
0
LINE
8
BLACK
6
CONTINUOUS
10
102.316
20
-136.825
11
102.319
21
-136.829
0
LINE
8
BLACK
6
CONTINUOUS
10
102.319
20
-136.829
11
102.322
21
-136.833
0
LINE
8
BLACK
6
CONTINUOUS
10
102.322
20
-136.833
11
102.323
21
-136.838
0
LINE
8
BLACK
6
CONTINUOUS
10
102.323
20
-136.838
11
102.323
21
-136.841
0
LINE
8
BLACK
6
CONTINUOUS
10
102.323
20
-136.841
11
102.323
21
-136.841
0
LINE
8
BLACK
6
CONTINUOUS
10
102.323
20
-136.841
11
102.324
21
-136.842
0
LINE
8
BLACK
6
CONTINUOUS
10
102.324
20
-136.842
11
102.323
21
-136.844
0
LINE
8
BLACK
6
CONTINUOUS
10
102.323
20
-136.844
11
102.323
21
-142.419
0
LINE
8
BLACK
6
CONTINUOUS
10
102.323
20
-142.419
11
102.323
21
-142.42
0
LINE
8
BLACK
6
CONTINUOUS
10
102.323
20
-142.42
11
102.323
21
-142.42
0
LINE
8
BLACK
6
CONTINUOUS
10
102.323
20
-142.42
11
102.305
21
-142.605
0
LINE
8
BLACK
6
CONTINUOUS
10
102.305
20
-142.605
11
102.305
21
-142.605
0
LINE
8
BLACK
6
CONTINUOUS
10
102.305
20
-142.605
11
102.305
21
-142.607
0
LINE
8
BLACK
6
CONTINUOUS
10
102.305
20
-142.607
11
102.304
21
-142.61
0
LINE
8
BLACK
6
CONTINUOUS
10
102.304
20
-142.61
11
102.251
21
-142.788
0
LINE
8
BLACK
6
CONTINUOUS
10
102.251
20
-142.788
11
102.25
21
-142.788
0
LINE
8
BLACK
6
CONTINUOUS
10
102.25
20
-142.788
11
102.25
21
-142.79
0
LINE
8
BLACK
6
CONTINUOUS
10
102.25
20
-142.79
11
102.249
21
-142.792
0
LINE
8
BLACK
6
CONTINUOUS
10
102.249
20
-142.792
11
102.161
21
-142.956
0
LINE
8
BLACK
6
CONTINUOUS
10
102.161
20
-142.956
11
102.161
21
-142.957
0
LINE
8
BLACK
6
CONTINUOUS
10
102.161
20
-142.957
11
102.16
21
-142.958
0
LINE
8
BLACK
6
CONTINUOUS
10
102.16
20
-142.958
11
102.159
21
-142.96
0
LINE
8
BLACK
6
CONTINUOUS
10
102.159
20
-142.96
11
102.041
21
-143.104
0
LINE
8
BLACK
6
CONTINUOUS
10
102.041
20
-143.104
11
102.041
21
-143.105
0
LINE
8
BLACK
6
CONTINUOUS
10
102.041
20
-143.105
11
102.039
21
-143.106
0
LINE
8
BLACK
6
CONTINUOUS
10
102.039
20
-143.106
11
102.038
21
-143.108
0
LINE
8
BLACK
6
CONTINUOUS
10
102.038
20
-143.108
11
101.895
21
-143.226
0
LINE
8
BLACK
6
CONTINUOUS
10
101.895
20
-143.226
11
101.894
21
-143.226
0
LINE
8
BLACK
6
CONTINUOUS
10
101.894
20
-143.226
11
101.893
21
-143.227
0
LINE
8
BLACK
6
CONTINUOUS
10
101.893
20
-143.227
11
101.892
21
-143.228
0
LINE
8
BLACK
6
CONTINUOUS
10
101.892
20
-143.228
11
101.811
21
-143.277
0
LINE
8
BLACK
6
CONTINUOUS
10
101.811
20
-143.277
11
72.8852
21
-162.074
0
LINE
8
BLACK
6
CONTINUOUS
10
72.8852
20
-162.074
11
72.8819
21
-162.075
0
LINE
8
BLACK
6
CONTINUOUS
10
72.8819
20
-162.075
11
72.8772
21
-162.077
0
LINE
8
BLACK
6
CONTINUOUS
10
72.8772
20
-162.077
11
72.876
21
-162.077
0
LINE
8
BLACK
6
CONTINUOUS
10
72.876
20
-162.077
11
72.8131
21
-162.124
0
LINE
8
BLACK
6
CONTINUOUS
10
72.8131
20
-162.124
11
72.6896
21
-162.248
0
LINE
8
BLACK
6
CONTINUOUS
10
72.6896
20
-162.248
11
72.5928
21
-162.393
0
LINE
8
BLACK
6
CONTINUOUS
10
72.5928
20
-162.393
11
72.5262
21
-162.555
0
LINE
8
BLACK
6
CONTINUOUS
10
72.5262
20
-162.555
11
72.4922
21
-162.726
0
LINE
8
BLACK
6
CONTINUOUS
10
72.4922
20
-162.726
11
72.4921
21
-162.901
0
LINE
8
BLACK
6
CONTINUOUS
10
72.4921
20
-162.901
11
72.526
21
-163.072
0
LINE
8
BLACK
6
CONTINUOUS
10
72.526
20
-163.072
11
72.5926
21
-163.234
0
LINE
8
BLACK
6
CONTINUOUS
10
72.5926
20
-163.234
11
90.1613
21
-190.234
0
LINE
8
BLACK
6
CONTINUOUS
10
90.1613
20
-190.234
11
90.2162
21
-190.308
0
LINE
8
BLACK
6
CONTINUOUS
10
90.2162
20
-190.308
11
90.3405
21
-190.432
0
LINE
8
BLACK
6
CONTINUOUS
10
90.3405
20
-190.432
11
90.486
21
-190.528
0
LINE
8
BLACK
6
CONTINUOUS
10
90.486
20
-190.528
11
90.6475
21
-190.595
0
LINE
8
BLACK
6
CONTINUOUS
10
90.6475
20
-190.595
11
90.8189
21
-190.629
0
LINE
8
BLACK
6
CONTINUOUS
10
90.8189
20
-190.629
11
90.9936
21
-190.629
0
LINE
8
BLACK
6
CONTINUOUS
10
90.9936
20
-190.629
11
91.1651
21
-190.595
0
LINE
8
BLACK
6
CONTINUOUS
10
91.1651
20
-190.595
11
91.3267
21
-190.529
0
LINE
8
BLACK
6
CONTINUOUS
10
91.3267
20
-190.529
11
104.367
21
-182.06
0
LINE
8
BLACK
6
CONTINUOUS
10
104.367
20
-182.06
11
104.368
21
-182.059
0
LINE
8
BLACK
6
CONTINUOUS
10
104.368
20
-182.059
11
104.369
21
-182.058
0
LINE
8
BLACK
6
CONTINUOUS
10
104.369
20
-182.058
11
104.372
21
-182.057
0
LINE
8
BLACK
6
CONTINUOUS
10
104.372
20
-182.057
11
104.372
21
-182.057
0
LINE
8
BLACK
6
CONTINUOUS
10
104.372
20
-182.057
11
104.372
21
-182.057
0
LINE
8
BLACK
6
CONTINUOUS
10
104.372
20
-182.057
11
104.374
21
-182.056
0
LINE
8
BLACK
6
CONTINUOUS
10
104.374
20
-182.056
11
104.377
21
-182.055
0
LINE
8
BLACK
6
CONTINUOUS
10
104.377
20
-182.055
11
104.377
21
-182.055
0
LINE
8
BLACK
6
CONTINUOUS
10
104.377
20
-182.055
11
104.377
21
-182.055
0
LINE
8
BLACK
6
CONTINUOUS
10
104.377
20
-182.055
11
104.379
21
-182.055
0
LINE
8
BLACK
6
CONTINUOUS
10
104.379
20
-182.055
11
104.382
21
-182.055
0
LINE
8
BLACK
6
CONTINUOUS
10
104.382
20
-182.055
11
104.382
21
-182.055
0
LINE
8
BLACK
6
CONTINUOUS
10
104.382
20
-182.055
11
104.382
21
-182.055
0
LINE
8
BLACK
6
CONTINUOUS
10
104.382
20
-182.055
11
104.384
21
-182.055
0
LINE
8
BLACK
6
CONTINUOUS
10
104.384
20
-182.055
11
104.387
21
-182.055
0
LINE
8
BLACK
6
CONTINUOUS
10
104.387
20
-182.055
11
104.387
21
-182.055
0
LINE
8
BLACK
6
CONTINUOUS
10
104.387
20
-182.055
11
104.387
21
-182.055
0
LINE
8
BLACK
6
CONTINUOUS
10
104.387
20
-182.055
11
104.39
21
-182.056
0
LINE
8
BLACK
6
CONTINUOUS
10
104.39
20
-182.056
11
104.391
21
-182.057
0
LINE
8
BLACK
6
CONTINUOUS
10
104.391
20
-182.057
11
104.391
21
-182.057
0
LINE
8
BLACK
6
CONTINUOUS
10
104.391
20
-182.057
11
104.391
21
-182.057
0
LINE
8
BLACK
6
CONTINUOUS
10
104.391
20
-182.057
11
104.394
21
-182.058
0
LINE
8
BLACK
6
CONTINUOUS
10
104.394
20
-182.058
11
104.396
21
-182.059
0
LINE
8
BLACK
6
CONTINUOUS
10
104.396
20
-182.059
11
104.396
21
-182.059
0
LINE
8
BLACK
6
CONTINUOUS
10
104.396
20
-182.059
11
104.396
21
-182.059
0
LINE
8
BLACK
6
CONTINUOUS
10
104.396
20
-182.059
11
104.397
21
-182.061
0
LINE
8
BLACK
6
CONTINUOUS
10
104.397
20
-182.061
11
104.399
21
-182.062
0
LINE
8
BLACK
6
CONTINUOUS
10
104.399
20
-182.062
11
104.399
21
-182.062
0
LINE
8
BLACK
6
CONTINUOUS
10
104.399
20
-182.062
11
104.399
21
-182.062
0
LINE
8
BLACK
6
CONTINUOUS
10
104.399
20
-182.062
11
104.401
21
-182.064
0
LINE
8
BLACK
6
CONTINUOUS
10
104.401
20
-182.064
11
104.402
21
-182.066
0
LINE
8
BLACK
6
CONTINUOUS
10
104.402
20
-182.066
11
104.403
21
-182.067
0
LINE
8
BLACK
6
CONTINUOUS
10
104.403
20
-182.067
11
105.626
21
-183.955
0
LINE
8
BLACK
6
CONTINUOUS
10
105.626
20
-183.955
11
105.903
21
-184.344
0
LINE
8
BLACK
6
CONTINUOUS
10
105.903
20
-184.344
11
106.496
21
-184.959
0
LINE
8
BLACK
6
CONTINUOUS
10
106.496
20
-184.959
11
107.193
21
-185.45
0
LINE
8
BLACK
6
CONTINUOUS
10
107.193
20
-185.45
11
107.971
21
-185.8
0
LINE
8
BLACK
6
CONTINUOUS
10
107.971
20
-185.8
11
108.801
21
-185.996
0
LINE
8
BLACK
6
CONTINUOUS
10
108.801
20
-185.996
11
109.653
21
-186.033
0
LINE
8
BLACK
6
CONTINUOUS
10
109.653
20
-186.033
11
110.497
21
-185.907
0
LINE
8
BLACK
6
CONTINUOUS
10
110.497
20
-185.907
11
111.301
21
-185.624
0
LINE
8
BLACK
6
CONTINUOUS
10
111.301
20
-185.624
11
112.038
21
-185.195
0
LINE
8
BLACK
6
CONTINUOUS
10
112.038
20
-185.195
11
112.68
21
-184.633
0
LINE
8
BLACK
6
CONTINUOUS
10
112.68
20
-184.633
11
113.205
21
-183.961
0
LINE
8
BLACK
6
CONTINUOUS
10
113.205
20
-183.961
11
113.592
21
-183.201
0
LINE
8
BLACK
6
CONTINUOUS
10
113.592
20
-183.201
11
113.829
21
-182.382
0
LINE
8
BLACK
6
CONTINUOUS
10
113.829
20
-182.382
11
113.907
21
-181.532
0
LINE
8
BLACK
6
CONTINUOUS
10
113.907
20
-181.532
11
113.823
21
-180.683
0
LINE
8
BLACK
6
CONTINUOUS
10
113.823
20
-180.683
11
113.58
21
-179.866
0
LINE
8
BLACK
6
CONTINUOUS
10
113.58
20
-179.866
11
113.186
21
-179.108
0
LINE
8
BLACK
6
CONTINUOUS
10
113.186
20
-179.108
11
111.956
21
-177.167
0
LINE
8
BLACK
6
CONTINUOUS
10
111.956
20
-177.167
11
111.955
21
-177.166
0
LINE
8
BLACK
6
CONTINUOUS
10
111.955
20
-177.166
11
111.954
21
-177.165
0
LINE
8
BLACK
6
CONTINUOUS
10
111.954
20
-177.165
11
111.954
21
-177.165
0
LINE
8
BLACK
6
CONTINUOUS
10
111.954
20
-177.165
11
111.954
21
-177.164
0
LINE
8
BLACK
6
CONTINUOUS
10
111.954
20
-177.164
11
111.953
21
-177.162
0
LINE
8
BLACK
6
CONTINUOUS
10
111.953
20
-177.162
11
111.953
21
-177.161
0
LINE
8
BLACK
6
CONTINUOUS
10
111.953
20
-177.161
11
111.952
21
-177.161
0
LINE
8
BLACK
6
CONTINUOUS
10
111.952
20
-177.161
11
111.952
21
-177.159
0
LINE
8
BLACK
6
CONTINUOUS
10
111.952
20
-177.159
11
111.951
21
-177.157
0
LINE
8
BLACK
6
CONTINUOUS
10
111.951
20
-177.157
11
111.951
21
-177.157
0
LINE
8
BLACK
6
CONTINUOUS
10
111.951
20
-177.157
11
111.951
21
-177.157
0
LINE
8
BLACK
6
CONTINUOUS
10
111.951
20
-177.157
11
111.951
21
-177.154
0
LINE
8
BLACK
6
CONTINUOUS
10
111.951
20
-177.154
11
111.951
21
-177.152
0
LINE
8
BLACK
6
CONTINUOUS
10
111.951
20
-177.152
11
111.951
21
-177.152
0
LINE
8
BLACK
6
CONTINUOUS
10
111.951
20
-177.152
11
111.951
21
-177.152
0
LINE
8
BLACK
6
CONTINUOUS
10
111.951
20
-177.152
11
111.951
21
-177.149
0
LINE
8
BLACK
6
CONTINUOUS
10
111.951
20
-177.149
11
111.951
21
-177.147
0
LINE
8
BLACK
6
CONTINUOUS
10
111.951
20
-177.147
11
111.951
21
-177.147
0
LINE
8
BLACK
6
CONTINUOUS
10
111.951
20
-177.147
11
111.951
21
-177.147
0
LINE
8
BLACK
6
CONTINUOUS
10
111.951
20
-177.147
11
111.952
21
-177.145
0
LINE
8
BLACK
6
CONTINUOUS
10
111.952
20
-177.145
11
111.953
21
-177.142
0
LINE
8
BLACK
6
CONTINUOUS
10
111.953
20
-177.142
11
111.953
21
-177.142
0
LINE
8
BLACK
6
CONTINUOUS
10
111.953
20
-177.142
11
111.953
21
-177.142
0
LINE
8
BLACK
6
CONTINUOUS
10
111.953
20
-177.142
11
111.954
21
-177.14
0
LINE
8
BLACK
6
CONTINUOUS
10
111.954
20
-177.14
11
111.955
21
-177.138
0
LINE
8
BLACK
6
CONTINUOUS
10
111.955
20
-177.138
11
111.955
21
-177.138
0
LINE
8
BLACK
6
CONTINUOUS
10
111.955
20
-177.138
11
111.955
21
-177.138
0
LINE
8
BLACK
6
CONTINUOUS
10
111.955
20
-177.138
11
111.957
21
-177.136
0
LINE
8
BLACK
6
CONTINUOUS
10
111.957
20
-177.136
11
111.958
21
-177.134
0
LINE
8
BLACK
6
CONTINUOUS
10
111.958
20
-177.134
11
111.958
21
-177.134
0
LINE
8
BLACK
6
CONTINUOUS
10
111.958
20
-177.134
11
111.959
21
-177.134
0
LINE
8
BLACK
6
CONTINUOUS
10
111.959
20
-177.134
11
111.96
21
-177.133
0
LINE
8
BLACK
6
CONTINUOUS
10
111.96
20
-177.133
11
111.961
21
-177.132
0
LINE
8
BLACK
6
CONTINUOUS
10
111.961
20
-177.132
11
111.961
21
-177.132
0
LINE
8
BLACK
6
CONTINUOUS
10
111.961
20
-177.132
11
111.962
21
-177.131
0
LINE
8
BLACK
6
CONTINUOUS
10
111.962
20
-177.131
11
111.963
21
-177.131
0
LINE
8
BLACK
6
CONTINUOUS
10
111.963
20
-177.131
11
115.859
21
-174.592
0
LINE
8
BLACK
6
CONTINUOUS
10
115.859
20
-174.592
11
115.86
21
-174.592
0
LINE
8
BLACK
6
CONTINUOUS
10
115.86
20
-174.592
11
115.861
21
-174.591
0
LINE
8
BLACK
6
CONTINUOUS
10
115.861
20
-174.591
11
115.862
21
-174.591
0
LINE
8
BLACK
6
CONTINUOUS
10
115.862
20
-174.591
11
115.863
21
-174.59
0
LINE
8
BLACK
6
CONTINUOUS
10
115.863
20
-174.59
11
115.863
21
-174.59
0
LINE
8
BLACK
6
CONTINUOUS
10
115.863
20
-174.59
11
115.864
21
-174.59
0
LINE
8
BLACK
6
CONTINUOUS
10
115.864
20
-174.59
11
115.865
21
-174.589
0
LINE
8
BLACK
6
CONTINUOUS
10
115.865
20
-174.589
11
115.866
21
-174.589
0
LINE
8
BLACK
6
CONTINUOUS
10
115.866
20
-174.589
11
125.91
21
-169.84
0
LINE
8
BLACK
6
CONTINUOUS
10
125.91
20
-169.84
11
125.91
21
-169.84
0
LINE
8
BLACK
6
CONTINUOUS
10
125.91
20
-169.84
11
125.911
21
-169.84
0
LINE
8
BLACK
6
CONTINUOUS
10
125.911
20
-169.84
11
125.911
21
-169.839
0
LINE
8
BLACK
6
CONTINUOUS
10
125.911
20
-169.839
11
125.912
21
-169.839
0
LINE
8
BLACK
6
CONTINUOUS
10
125.912
20
-169.839
11
143.626
21
-162.918
0
LINE
8
BLACK
6
CONTINUOUS
10
143.626
20
-162.918
11
143.626
21
-162.918
0
LINE
8
BLACK
6
CONTINUOUS
10
143.626
20
-162.918
11
143.628
21
-162.918
0
LINE
8
BLACK
6
CONTINUOUS
10
143.628
20
-162.918
11
143.629
21
-162.917
0
LINE
8
BLACK
6
CONTINUOUS
10
143.629
20
-162.917
11
143.63
21
-162.917
0
LINE
8
BLACK
6
CONTINUOUS
10
143.63
20
-162.917
11
143.631
21
-162.917
0
LINE
8
BLACK
6
CONTINUOUS
10
143.631
20
-162.917
11
143.632
21
-162.916
0
LINE
8
BLACK
6
CONTINUOUS
10
143.632
20
-162.916
11
143.633
21
-162.916
0
LINE
8
BLACK
6
CONTINUOUS
10
143.633
20
-162.916
11
143.634
21
-162.916
0
LINE
8
BLACK
6
CONTINUOUS
10
143.634
20
-162.916
11
143.635
21
-162.916
0
LINE
8
BLACK
6
CONTINUOUS
10
143.635
20
-162.916
11
143.636
21
-162.916
0
LINE
8
BLACK
6
CONTINUOUS
10
143.636
20
-162.916
11
143.638
21
-162.916
0
LINE
8
BLACK
6
CONTINUOUS
10
143.638
20
-162.916
11
143.638
21
-162.916
0
LINE
8
BLACK
6
CONTINUOUS
10
143.638
20
-162.916
11
161.669
21
-162.218
0
LINE
8
BLACK
6
CONTINUOUS
10
161.669
20
-162.218
11
161.67
21
-162.218
0
LINE
8
BLACK
6
CONTINUOUS
10
161.67
20
-162.218
11
161.671
21
-162.218
0
LINE
8
BLACK
6
CONTINUOUS
10
161.671
20
-162.218
11
161.671
21
-162.217
0
LINE
8
BLACK
6
CONTINUOUS
10
161.671
20
-162.217
11
161.672
21
-162.218
0
LINE
8
BLACK
6
CONTINUOUS
10
161.672
20
-162.218
11
167.055
21
-162.218
0
LINE
8
BLACK
6
CONTINUOUS
10
167.055
20
-162.218
11
167.056
21
-162.217
0
LINE
8
BLACK
6
CONTINUOUS
10
167.056
20
-162.217
11
167.057
21
-162.218
0
LINE
8
BLACK
6
CONTINUOUS
10
167.057
20
-162.218
11
167.061
21
-162.218
0
LINE
8
BLACK
6
CONTINUOUS
10
167.061
20
-162.218
11
167.065
21
-162.219
0
LINE
8
BLACK
6
CONTINUOUS
10
167.065
20
-162.219
11
167.07
21
-162.222
0
LINE
8
BLACK
6
CONTINUOUS
10
167.07
20
-162.222
11
167.074
21
-162.225
0
LINE
8
BLACK
6
CONTINUOUS
10
167.074
20
-162.225
11
167.077
21
-162.229
0
LINE
8
BLACK
6
CONTINUOUS
10
167.077
20
-162.229
11
167.079
21
-162.233
0
LINE
8
BLACK
6
CONTINUOUS
10
167.079
20
-162.233
11
167.08
21
-162.238
0
LINE
8
BLACK
6
CONTINUOUS
10
167.08
20
-162.238
11
167.081
21
-162.243
0
LINE
8
BLACK
6
CONTINUOUS
10
167.081
20
-162.243
11
167.081
21
-162.244
0
LINE
8
BLACK
6
CONTINUOUS
10
167.081
20
-162.244
11
167.081
21
-163.971
0
LINE
8
BLACK
6
CONTINUOUS
10
167.081
20
-163.971
11
167.102
21
-164.41
0
LINE
8
BLACK
6
CONTINUOUS
10
167.102
20
-164.41
11
167.266
21
-165.247
0
LINE
8
BLACK
6
CONTINUOUS
10
167.266
20
-165.247
11
167.585
21
-166.038
0
LINE
8
BLACK
6
CONTINUOUS
10
167.585
20
-166.038
11
168.047
21
-166.755
0
LINE
8
BLACK
6
CONTINUOUS
10
168.047
20
-166.755
11
168.637
21
-167.371
0
LINE
8
BLACK
6
CONTINUOUS
10
168.637
20
-167.371
11
169.333
21
-167.864
0
LINE
8
BLACK
6
CONTINUOUS
10
169.333
20
-167.864
11
170.109
21
-168.217
0
LINE
8
BLACK
6
CONTINUOUS
10
170.109
20
-168.217
11
170.938
21
-168.417
0
LINE
8
BLACK
6
CONTINUOUS
10
170.938
20
-168.417
11
171.79
21
-168.457
0
LINE
8
BLACK
6
CONTINUOUS
10
171.79
20
-168.457
11
172.634
21
-168.334
0
LINE
8
BLACK
6
CONTINUOUS
10
172.634
20
-168.334
11
173.44
21
-168.055
0
LINE
8
BLACK
6
CONTINUOUS
10
173.44
20
-168.055
11
174.178
21
-167.627
0
LINE
8
BLACK
6
CONTINUOUS
10
174.178
20
-167.627
11
174.823
21
-167.068
0
LINE
8
BLACK
6
CONTINUOUS
10
174.823
20
-167.068
11
175.349
21
-166.398
0
LINE
8
BLACK
6
CONTINUOUS
10
175.349
20
-166.398
11
175.74
21
-165.639
0
LINE
8
BLACK
6
CONTINUOUS
10
175.74
20
-165.639
11
175.98
21
-164.821
0
LINE
8
BLACK
6
CONTINUOUS
10
175.98
20
-164.821
11
176.061
21
-163.971
0
LINE
8
BLACK
6
CONTINUOUS
10
176.061
20
-163.971
11
176.061
21
-162.244
0
LINE
8
BLACK
6
CONTINUOUS
10
176.061
20
-162.244
11
176.061
21
-162.243
0
LINE
8
BLACK
6
CONTINUOUS
10
176.061
20
-162.243
11
176.062
21
-162.238
0
LINE
8
BLACK
6
CONTINUOUS
10
176.062
20
-162.238
11
176.063
21
-162.233
0
LINE
8
BLACK
6
CONTINUOUS
10
176.063
20
-162.233
11
176.065
21
-162.229
0
LINE
8
BLACK
6
CONTINUOUS
10
176.065
20
-162.229
11
176.068
21
-162.225
0
LINE
8
BLACK
6
CONTINUOUS
10
176.068
20
-162.225
11
176.072
21
-162.222
0
LINE
8
BLACK
6
CONTINUOUS
10
176.072
20
-162.222
11
176.077
21
-162.219
0
LINE
8
BLACK
6
CONTINUOUS
10
176.077
20
-162.219
11
176.081
21
-162.218
0
LINE
8
BLACK
6
CONTINUOUS
10
176.081
20
-162.218
11
176.085
21
-162.218
0
LINE
8
BLACK
6
CONTINUOUS
10
176.085
20
-162.218
11
176.085
21
-162.218
0
LINE
8
BLACK
6
CONTINUOUS
10
176.085
20
-162.218
11
176.086
21
-162.217
0
LINE
8
BLACK
6
CONTINUOUS
10
176.086
20
-162.217
11
176.087
21
-162.218
0
LINE
8
BLACK
6
CONTINUOUS
10
176.087
20
-162.218
11
178.182
21
-162.218
0
LINE
8
BLACK
6
CONTINUOUS
10
178.182
20
-162.218
11
178.183
21
-162.218
0
LINE
8
BLACK
6
CONTINUOUS
10
178.183
20
-162.218
11
178.183
21
-162.218
0
LINE
8
BLACK
6
CONTINUOUS
10
178.183
20
-162.218
11
178.455
21
-162.244
0
LINE
8
BLACK
6
CONTINUOUS
10
178.455
20
-162.244
11
178.455
21
-162.244
0
LINE
8
BLACK
6
CONTINUOUS
10
178.455
20
-162.244
11
178.457
21
-162.245
0
LINE
8
BLACK
6
CONTINUOUS
10
178.457
20
-162.245
11
178.46
21
-162.245
0
LINE
8
BLACK
6
CONTINUOUS
10
178.46
20
-162.245
11
178.721
21
-162.324
0
LINE
8
BLACK
6
CONTINUOUS
10
178.721
20
-162.324
11
178.721
21
-162.324
0
LINE
8
BLACK
6
CONTINUOUS
10
178.721
20
-162.324
11
178.723
21
-162.325
0
LINE
8
BLACK
6
CONTINUOUS
10
178.723
20
-162.325
11
178.725
21
-162.326
0
LINE
8
BLACK
6
CONTINUOUS
10
178.725
20
-162.326
11
178.966
21
-162.454
0
LINE
8
BLACK
6
CONTINUOUS
10
178.966
20
-162.454
11
178.966
21
-162.454
0
LINE
8
BLACK
6
CONTINUOUS
10
178.966
20
-162.454
11
178.968
21
-162.455
0
LINE
8
BLACK
6
CONTINUOUS
10
178.968
20
-162.455
11
178.97
21
-162.457
0
LINE
8
BLACK
6
CONTINUOUS
10
178.97
20
-162.457
11
179.181
21
-162.629
0
LINE
8
BLACK
6
CONTINUOUS
10
179.181
20
-162.629
11
179.181
21
-162.629
0
LINE
8
BLACK
6
CONTINUOUS
10
179.181
20
-162.629
11
179.181
21
-162.629
0
LINE
8
BLACK
6
CONTINUOUS
10
179.181
20
-162.629
11
179.181
21
-162.629
0
LINE
8
BLACK
6
CONTINUOUS
10
179.181
20
-162.629
11
179.183
21
-162.631
0
LINE
8
BLACK
6
CONTINUOUS
10
179.183
20
-162.631
11
179.185
21
-162.632
0
LINE
8
BLACK
6
CONTINUOUS
10
179.185
20
-162.632
11
179.358
21
-162.842
0
LINE
8
BLACK
6
CONTINUOUS
10
179.358
20
-162.842
11
179.359
21
-162.843
0
LINE
8
BLACK
6
CONTINUOUS
10
179.359
20
-162.843
11
179.36
21
-162.845
0
LINE
8
BLACK
6
CONTINUOUS
10
179.36
20
-162.845
11
179.361
21
-162.846
0
LINE
8
BLACK
6
CONTINUOUS
10
179.361
20
-162.846
11
179.491
21
-163.086
0
LINE
8
BLACK
6
CONTINUOUS
10
179.491
20
-163.086
11
179.491
21
-163.086
0
LINE
8
BLACK
6
CONTINUOUS
10
179.491
20
-163.086
11
179.491
21
-163.086
0
LINE
8
BLACK
6
CONTINUOUS
10
179.491
20
-163.086
11
179.491
21
-163.087
0
LINE
8
BLACK
6
CONTINUOUS
10
179.491
20
-163.087
11
179.492
21
-163.089
0
LINE
8
BLACK
6
CONTINUOUS
10
179.492
20
-163.089
11
179.493
21
-163.091
0
LINE
8
BLACK
6
CONTINUOUS
10
179.493
20
-163.091
11
179.573
21
-163.351
0
LINE
8
BLACK
6
CONTINUOUS
10
179.573
20
-163.351
11
179.573
21
-163.352
0
LINE
8
BLACK
6
CONTINUOUS
10
179.573
20
-163.352
11
179.574
21
-163.354
0
LINE
8
BLACK
6
CONTINUOUS
10
179.574
20
-163.354
11
179.574
21
-163.356
0
LINE
8
BLACK
6
CONTINUOUS
10
179.574
20
-163.356
11
179.603
21
-163.627
0
LINE
8
BLACK
6
CONTINUOUS
10
179.603
20
-163.627
11
179.603
21
-163.627
0
LINE
8
BLACK
6
CONTINUOUS
10
179.603
20
-163.627
11
179.603
21
-163.629
0
LINE
8
BLACK
6
CONTINUOUS
10
179.603
20
-163.629
11
179.603
21
-163.63
0
LINE
8
BLACK
6
CONTINUOUS
10
179.603
20
-163.63
11
179.603
21
-163.638
0
LINE
8
BLACK
6
CONTINUOUS
10
179.603
20
-163.638
11
179.603
21
-163.638
0
LINE
8
BLACK
6
CONTINUOUS
10
179.603
20
-163.638
11
179.603
21
-165.608
0
LINE
8
BLACK
6
CONTINUOUS
10
179.603
20
-165.608
11
179.603
21
-165.616
0
LINE
8
BLACK
6
CONTINUOUS
10
179.603
20
-165.616
11
179.631
21
-165.884
0
LINE
8
BLACK
6
CONTINUOUS
10
179.631
20
-165.884
11
179.71
21
-166.14
0
LINE
8
BLACK
6
CONTINUOUS
10
179.71
20
-166.14
11
179.838
21
-166.375
0
LINE
8
BLACK
6
CONTINUOUS
10
179.838
20
-166.375
11
180.008
21
-166.581
0
LINE
8
BLACK
6
CONTINUOUS
10
180.008
20
-166.581
11
180.216
21
-166.751
0
LINE
8
BLACK
6
CONTINUOUS
10
180.216
20
-166.751
11
180.452
21
-166.876
0
LINE
8
BLACK
6
CONTINUOUS
10
180.452
20
-166.876
11
180.709
21
-166.954
0
LINE
8
BLACK
6
CONTINUOUS
10
180.709
20
-166.954
11
180.976
21
-166.98
0
LINE
8
BLACK
6
CONTINUOUS
10
180.976
20
-166.98
11
230.822
21
-166.98
0
LINE
8
BLACK
6
CONTINUOUS
10
230.822
20
-166.98
11
230.831
21
-166.98
0
LINE
8
BLACK
6
CONTINUOUS
10
230.831
20
-166.98
11
231.098
21
-166.952
0
LINE
8
BLACK
6
CONTINUOUS
10
231.098
20
-166.952
11
231.354
21
-166.873
0
LINE
8
BLACK
6
CONTINUOUS
10
231.354
20
-166.873
11
231.59
21
-166.745
0
LINE
8
BLACK
6
CONTINUOUS
10
231.59
20
-166.745
11
231.796
21
-166.575
0
LINE
8
BLACK
6
CONTINUOUS
10
231.796
20
-166.575
11
231.965
21
-166.367
0
LINE
8
BLACK
6
CONTINUOUS
10
231.965
20
-166.367
11
232.091
21
-166.131
0
LINE
8
BLACK
6
CONTINUOUS
10
232.091
20
-166.131
11
232.168
21
-165.874
0
LINE
8
BLACK
6
CONTINUOUS
10
232.168
20
-165.874
11
232.195
21
-165.607
0
LINE
8
BLACK
6
CONTINUOUS
10
232.195
20
-165.607
11
232.194
21
-135.104
0
LINE
8
BLACK
6
CONTINUOUS
10
232.194
20
-135.104
11
232.194
21
-135.103
0
LINE
8
BLACK
6
CONTINUOUS
10
232.194
20
-135.103
11
232.195
21
-135.098
0
LINE
8
BLACK
6
CONTINUOUS
10
232.195
20
-135.098
11
232.196
21
-135.093
0
LINE
8
BLACK
6
CONTINUOUS
10
232.196
20
-135.093
11
232.199
21
-135.089
0
LINE
8
BLACK
6
CONTINUOUS
10
232.199
20
-135.089
11
232.202
21
-135.085
0
LINE
8
BLACK
6
CONTINUOUS
10
232.202
20
-135.085
11
232.206
21
-135.082
0
LINE
8
BLACK
6
CONTINUOUS
10
232.206
20
-135.082
11
232.21
21
-135.079
0
LINE
8
BLACK
6
CONTINUOUS
10
232.21
20
-135.079
11
232.215
21
-135.078
0
LINE
8
BLACK
6
CONTINUOUS
10
232.215
20
-135.078
11
232.218
21
-135.078
0
LINE
8
BLACK
6
CONTINUOUS
10
232.218
20
-135.078
11
232.219
21
-135.077
0
LINE
8
BLACK
6
CONTINUOUS
10
232.219
20
-135.077
11
232.221
21
-135.078
0
LINE
8
BLACK
6
CONTINUOUS
10
232.221
20
-135.078
11
233.948
21
-135.078
0
LINE
8
BLACK
6
CONTINUOUS
10
233.948
20
-135.078
11
234.387
21
-135.056
0
LINE
8
BLACK
6
CONTINUOUS
10
234.387
20
-135.056
11
235.224
21
-134.893
0
LINE
8
BLACK
6
CONTINUOUS
10
235.224
20
-134.893
11
236.015
21
-134.574
0
LINE
8
BLACK
6
CONTINUOUS
10
236.015
20
-134.574
11
236.732
21
-134.111
0
LINE
8
BLACK
6
CONTINUOUS
10
236.732
20
-134.111
11
237.348
21
-133.521
0
LINE
8
BLACK
6
CONTINUOUS
10
237.348
20
-133.521
11
237.841
21
-132.826
0
LINE
8
BLACK
6
CONTINUOUS
10
237.841
20
-132.826
11
238.194
21
-132.049
0
LINE
8
BLACK
6
CONTINUOUS
10
238.194
20
-132.049
11
238.394
21
-131.22
0
LINE
8
BLACK
6
CONTINUOUS
10
238.394
20
-131.22
11
238.434
21
-130.368
0
LINE
8
BLACK
6
CONTINUOUS
10
238.434
20
-130.368
11
238.311
21
-129.524
0
LINE
8
BLACK
6
CONTINUOUS
10
238.311
20
-129.524
11
238.032
21
-128.718
0
LINE
8
BLACK
6
CONTINUOUS
10
238.032
20
-128.718
11
237.604
21
-127.98
0
LINE
8
BLACK
6
CONTINUOUS
10
237.604
20
-127.98
11
237.045
21
-127.336
0
LINE
8
BLACK
6
CONTINUOUS
10
237.045
20
-127.336
11
236.375
21
-126.809
0
LINE
8
BLACK
6
CONTINUOUS
10
236.375
20
-126.809
11
235.616
21
-126.418
0
LINE
8
BLACK
6
CONTINUOUS
10
235.616
20
-126.418
11
234.798
21
-126.178
0
LINE
8
BLACK
6
CONTINUOUS
10
234.798
20
-126.178
11
233.948
21
-126.097
0
LINE
8
BLACK
6
CONTINUOUS
10
233.948
20
-126.097
11
232.221
21
-126.097
0
LINE
8
BLACK
6
CONTINUOUS
10
232.221
20
-126.097
11
232.219
21
-126.097
0
LINE
8
BLACK
6
CONTINUOUS
10
232.219
20
-126.097
11
232.215
21
-126.097
0
LINE
8
BLACK
6
CONTINUOUS
10
232.215
20
-126.097
11
232.21
21
-126.095
0
LINE
8
BLACK
6
CONTINUOUS
10
232.21
20
-126.095
11
232.206
21
-126.093
0
LINE
8
BLACK
6
CONTINUOUS
10
232.206
20
-126.093
11
232.202
21
-126.09
0
LINE
8
BLACK
6
CONTINUOUS
10
232.202
20
-126.09
11
232.199
21
-126.087
0
LINE
8
BLACK
6
CONTINUOUS
10
232.199
20
-126.087
11
232.199
21
-126.086
0
LINE
8
BLACK
6
CONTINUOUS
10
232.199
20
-126.086
11
232.196
21
-126.082
0
LINE
8
BLACK
6
CONTINUOUS
10
232.196
20
-126.082
11
232.195
21
-126.077
0
LINE
8
BLACK
6
CONTINUOUS
10
232.195
20
-126.077
11
232.194
21
-126.072
0
LINE
8
BLACK
6
CONTINUOUS
10
232.194
20
-126.072
11
232.194
21
-126.071
0
LINE
8
BLACK
6
CONTINUOUS
10
232.194
20
-126.071
11
232.195
21
-67.0561
0
LINE
8
BLACK
6
CONTINUOUS
10
232.195
20
-67.0561
11
232.194
21
-67.0561
0
LINE
8
BLACK
6
CONTINUOUS
10
232.194
20
-67.0561
11
232.194
21
-67.0476
0
LINE
8
BLACK
6
CONTINUOUS
10
232.194
20
-67.0476
11
232.166
21
-66.7801
0
LINE
8
BLACK
6
CONTINUOUS
10
232.166
20
-66.7801
11
232.087
21
-66.5244
0
LINE
8
BLACK
6
CONTINUOUS
10
232.087
20
-66.5244
11
231.96
21
-66.2889
0
LINE
8
BLACK
6
CONTINUOUS
10
231.96
20
-66.2889
11
231.789
21
-66.0826
0
LINE
8
BLACK
6
CONTINUOUS
10
231.789
20
-66.0826
11
231.582
21
-65.9133
0
LINE
8
BLACK
6
CONTINUOUS
10
231.582
20
-65.9133
11
231.345
21
-65.7876
0
LINE
8
BLACK
6
CONTINUOUS
10
231.345
20
-65.7876
11
231.089
21
-65.7102
0
LINE
8
BLACK
6
CONTINUOUS
10
231.089
20
-65.7102
11
230.821
21
-65.684
0
LINE
8
BLACK
6
CONTINUOUS
10
230.821
20
-65.684
11
219.47
21
-65.684
0
LINE
8
BLACK
6
CONTINUOUS
10
219.47
20
-65.684
11
219.469
21
-65.6841
0
LINE
8
BLACK
6
CONTINUOUS
10
219.469
20
-65.6841
11
219.467
21
-65.684
0
LINE
8
BLACK
6
CONTINUOUS
10
219.467
20
-65.684
11
219.467
21
-65.684
0
LINE
8
BLACK
6
CONTINUOUS
10
219.467
20
-65.684
11
219.464
21
-65.6836
0
LINE
8
BLACK
6
CONTINUOUS
10
219.464
20
-65.6836
11
219.459
21
-65.6822
0
LINE
8
BLACK
6
CONTINUOUS
10
219.459
20
-65.6822
11
219.455
21
-65.6799
0
LINE
8
BLACK
6
CONTINUOUS
10
219.455
20
-65.6799
11
219.451
21
-65.6768
0
LINE
8
BLACK
6
CONTINUOUS
10
219.451
20
-65.6768
11
219.448
21
-65.673
0
LINE
8
BLACK
6
CONTINUOUS
10
219.448
20
-65.673
11
219.445
21
-65.6686
0
LINE
8
BLACK
6
CONTINUOUS
10
219.445
20
-65.6686
11
219.444
21
-65.6639
0
LINE
8
BLACK
6
CONTINUOUS
10
219.444
20
-65.6639
11
219.444
21
-65.659
0
LINE
8
BLACK
6
CONTINUOUS
10
219.444
20
-65.659
11
219.444
21
-65.6578
0
LINE
8
BLACK
6
CONTINUOUS
10
219.444
20
-65.6578
11
219.444
21
-63.9301
0
LINE
8
BLACK
6
CONTINUOUS
10
219.444
20
-63.9301
11
219.422
21
-63.4919
0
LINE
8
BLACK
6
CONTINUOUS
10
219.422
20
-63.4919
11
219.259
21
-62.6542
0
LINE
8
BLACK
6
CONTINUOUS
10
219.259
20
-62.6542
11
218.94
21
-61.8632
0
LINE
8
BLACK
6
CONTINUOUS
10
218.94
20
-61.8632
11
218.477
21
-61.1467
0
LINE
8
BLACK
6
CONTINUOUS
10
218.477
20
-61.1467
11
217.887
21
-60.5305
0
LINE
8
BLACK
6
CONTINUOUS
10
217.887
20
-60.5305
11
217.192
21
-60.0371
0
LINE
8
BLACK
6
CONTINUOUS
10
217.192
20
-60.0371
11
216.415
21
-59.6841
0
LINE
8
BLACK
6
CONTINUOUS
10
216.415
20
-59.6841
11
215.586
21
-59.4842
0
LINE
8
BLACK
6
CONTINUOUS
10
215.586
20
-59.4842
11
214.734
21
-59.4448
0
LINE
8
BLACK
6
CONTINUOUS
10
214.734
20
-59.4448
11
213.89
21
-59.5672
0
LINE
8
BLACK
6
CONTINUOUS
10
213.89
20
-59.5672
11
213.084
21
-59.847
0
LINE
8
BLACK
6
CONTINUOUS
10
213.084
20
-59.847
11
212.346
21
-60.2741
0
LINE
8
BLACK
6
CONTINUOUS
10
212.346
20
-60.2741
11
211.702
21
-60.8331
0
LINE
8
BLACK
6
CONTINUOUS
10
211.702
20
-60.8331
11
211.175
21
-61.5038
0
LINE
8
BLACK
6
CONTINUOUS
10
211.175
20
-61.5038
11
210.785
21
-62.262
0
LINE
8
BLACK
6
CONTINUOUS
10
210.785
20
-62.262
11
210.544
21
-63.0804
0
LINE
8
BLACK
6
CONTINUOUS
10
210.544
20
-63.0804
11
210.463
21
-63.9307
0
LINE
8
BLACK
6
CONTINUOUS
10
210.463
20
-63.9307
11
210.463
21
-65.6578
0
LINE
8
BLACK
6
CONTINUOUS
10
210.463
20
-65.6578
11
210.463
21
-65.659
0
LINE
8
BLACK
6
CONTINUOUS
10
210.463
20
-65.659
11
210.463
21
-65.6639
0
LINE
8
BLACK
6
CONTINUOUS
10
210.463
20
-65.6639
11
210.462
21
-65.6686
0
LINE
8
BLACK
6
CONTINUOUS
10
210.462
20
-65.6686
11
210.459
21
-65.673
0
LINE
8
BLACK
6
CONTINUOUS
10
210.459
20
-65.673
11
210.456
21
-65.6768
0
LINE
8
BLACK
6
CONTINUOUS
10
210.456
20
-65.6768
11
210.452
21
-65.6799
0
LINE
8
BLACK
6
CONTINUOUS
10
210.452
20
-65.6799
11
210.448
21
-65.6822
0
LINE
8
BLACK
6
CONTINUOUS
10
210.448
20
-65.6822
11
210.443
21
-65.6836
0
LINE
8
BLACK
6
CONTINUOUS
10
210.443
20
-65.6836
11
210.441
21
-65.6838
0
LINE
8
BLACK
6
CONTINUOUS
10
210.441
20
-65.6838
11
210.438
21
-65.6841
0
LINE
8
BLACK
6
CONTINUOUS
10
210.438
20
-65.6841
11
210.437
21
-65.684
0
LINE
8
BLACK
6
CONTINUOUS
10
210.437
20
-65.684
11
184.911
21
-65.684
0
LINE
8
BLACK
6
CONTINUOUS
10
184.911
20
-65.684
11
184.91
21
-65.6839
0
LINE
8
BLACK
6
CONTINUOUS
10
184.91
20
-65.6839
11
184.91
21
-65.6839
0
LINE
8
BLACK
6
CONTINUOUS
10
184.91
20
-65.6839
11
184.638
21
-65.6573
0
LINE
8
BLACK
6
CONTINUOUS
10
184.638
20
-65.6573
11
184.638
21
-65.6572
0
LINE
8
BLACK
6
CONTINUOUS
10
184.638
20
-65.6572
11
184.636
21
-65.6568
0
LINE
8
BLACK
6
CONTINUOUS
10
184.636
20
-65.6568
11
184.633
21
-65.6563
0
LINE
8
BLACK
6
CONTINUOUS
10
184.633
20
-65.6563
11
184.372
21
-65.5775
0
LINE
8
BLACK
6
CONTINUOUS
10
184.372
20
-65.5775
11
184.372
21
-65.5774
0
LINE
8
BLACK
6
CONTINUOUS
10
184.372
20
-65.5774
11
184.37
21
-65.5765
0
LINE
8
BLACK
6
CONTINUOUS
10
184.37
20
-65.5765
11
184.368
21
-65.5757
0
LINE
8
BLACK
6
CONTINUOUS
10
184.368
20
-65.5757
11
184.127
21
-65.4477
0
LINE
8
BLACK
6
CONTINUOUS
10
184.127
20
-65.4477
11
184.127
21
-65.4475
0
LINE
8
BLACK
6
CONTINUOUS
10
184.127
20
-65.4475
11
184.125
21
-65.4462
0
LINE
8
BLACK
6
CONTINUOUS
10
184.125
20
-65.4462
11
184.123
21
-65.445
0
LINE
8
BLACK
6
CONTINUOUS
10
184.123
20
-65.445
11
183.912
21
-65.2726
0
LINE
8
BLACK
6
CONTINUOUS
10
183.912
20
-65.2726
11
183.912
21
-65.2724
0
LINE
8
BLACK
6
CONTINUOUS
10
183.912
20
-65.2724
11
183.91
21
-65.2708
0
LINE
8
BLACK
6
CONTINUOUS
10
183.91
20
-65.2708
11
183.908
21
-65.2692
0
LINE
8
BLACK
6
CONTINUOUS
10
183.908
20
-65.2692
11
183.735
21
-65.0591
0
LINE
8
BLACK
6
CONTINUOUS
10
183.735
20
-65.0591
11
183.734
21
-65.0589
0
LINE
8
BLACK
6
CONTINUOUS
10
183.734
20
-65.0589
11
183.733
21
-65.057
0
LINE
8
BLACK
6
CONTINUOUS
10
183.733
20
-65.057
11
183.732
21
-65.0551
0
LINE
8
BLACK
6
CONTINUOUS
10
183.732
20
-65.0551
11
183.602
21
-64.8152
0
LINE
8
BLACK
6
CONTINUOUS
10
183.602
20
-64.8152
11
183.602
21
-64.8149
0
LINE
8
BLACK
6
CONTINUOUS
10
183.602
20
-64.8149
11
183.601
21
-64.8128
0
LINE
8
BLACK
6
CONTINUOUS
10
183.601
20
-64.8128
11
183.6
21
-64.8108
0
LINE
8
BLACK
6
CONTINUOUS
10
183.6
20
-64.8108
11
183.52
21
-64.5503
0
LINE
8
BLACK
6
CONTINUOUS
10
183.52
20
-64.5503
11
183.52
21
-64.55
0
LINE
8
BLACK
6
CONTINUOUS
10
183.52
20
-64.55
11
183.519
21
-64.5477
0
LINE
8
BLACK
6
CONTINUOUS
10
183.519
20
-64.5477
11
183.519
21
-64.5455
0
LINE
8
BLACK
6
CONTINUOUS
10
183.519
20
-64.5455
11
183.49
21
-64.2744
0
LINE
8
BLACK
6
CONTINUOUS
10
183.49
20
-64.2744
11
183.49
21
-64.274
0
LINE
8
BLACK
6
CONTINUOUS
10
183.49
20
-64.274
11
183.49
21
-64.2729
0
LINE
8
BLACK
6
CONTINUOUS
10
183.49
20
-64.2729
11
183.49
21
-64.2718
0
LINE
8
BLACK
6
CONTINUOUS
10
183.49
20
-64.2718
11
183.49
21
-64.2632
0
LINE
8
BLACK
6
CONTINUOUS
10
183.49
20
-64.2632
11
183.49
21
-64.2632
0
LINE
8
BLACK
6
CONTINUOUS
10
183.49
20
-64.2632
11
183.49
21
-64.2624
0
LINE
8
BLACK
6
CONTINUOUS
10
183.49
20
-64.2624
11
183.49
21
-64.2621
0
LINE
8
BLACK
6
CONTINUOUS
10
183.49
20
-64.2621
11
183.49
21
-64.2617
0
LINE
8
BLACK
6
CONTINUOUS
10
183.49
20
-64.2617
11
183.49
21
-62.2936
0
LINE
8
BLACK
6
CONTINUOUS
10
183.49
20
-62.2936
11
183.49
21
-62.2851
0
LINE
8
BLACK
6
CONTINUOUS
10
183.49
20
-62.2851
11
183.462
21
-62.0176
0
LINE
8
BLACK
6
CONTINUOUS
10
183.462
20
-62.0176
11
183.383
21
-61.7619
0
LINE
8
BLACK
6
CONTINUOUS
10
183.383
20
-61.7619
11
183.255
21
-61.5264
0
LINE
8
BLACK
6
CONTINUOUS
10
183.255
20
-61.5264
11
183.085
21
-61.3201
0
LINE
8
BLACK
6
CONTINUOUS
10
183.085
20
-61.3201
11
182.877
21
-61.1508
0
LINE
8
BLACK
6
CONTINUOUS
10
182.877
20
-61.1508
11
182.641
21
-61.0251
0
LINE
8
BLACK
6
CONTINUOUS
10
182.641
20
-61.0251
11
182.384
21
-60.9477
0
LINE
8
BLACK
6
CONTINUOUS
10
182.384
20
-60.9477
11
182.117
21
-60.9215
0
LINE
8
BLACK
6
CONTINUOUS
10
182.117
20
-60.9215
11
165.861
21
-60.9215
0
LINE
8
BLACK
6
CONTINUOUS
10
165.861
20
-60.9215
11
165.86
21
-60.9214
0
LINE
8
BLACK
6
CONTINUOUS
10
165.86
20
-60.9214
11
165.86
21
-60.9214
0
LINE
8
BLACK
6
CONTINUOUS
10
165.86
20
-60.9214
11
165.588
21
-60.8948
0
LINE
8
BLACK
6
CONTINUOUS
10
165.588
20
-60.8948
11
165.588
21
-60.8947
0
LINE
8
BLACK
6
CONTINUOUS
10
165.588
20
-60.8947
11
165.586
21
-60.8943
0
LINE
8
BLACK
6
CONTINUOUS
10
165.586
20
-60.8943
11
165.583
21
-60.8938
0
LINE
8
BLACK
6
CONTINUOUS
10
165.583
20
-60.8938
11
165.322
21
-60.815
0
LINE
8
BLACK
6
CONTINUOUS
10
165.322
20
-60.815
11
165.322
21
-60.8149
0
LINE
8
BLACK
6
CONTINUOUS
10
165.322
20
-60.8149
11
165.32
21
-60.814
0
LINE
8
BLACK
6
CONTINUOUS
10
165.32
20
-60.814
11
165.318
21
-60.8132
0
LINE
8
BLACK
6
CONTINUOUS
10
165.318
20
-60.8132
11
165.077
21
-60.6852
0
LINE
8
BLACK
6
CONTINUOUS
10
165.077
20
-60.6852
11
165.077
21
-60.685
0
LINE
8
BLACK
6
CONTINUOUS
10
165.077
20
-60.685
11
165.075
21
-60.6837
0
LINE
8
BLACK
6
CONTINUOUS
10
165.075
20
-60.6837
11
165.073
21
-60.6825
0
LINE
8
BLACK
6
CONTINUOUS
10
165.073
20
-60.6825
11
164.862
21
-60.5101
0
LINE
8
BLACK
6
CONTINUOUS
10
164.862
20
-60.5101
11
164.862
21
-60.5099
0
LINE
8
BLACK
6
CONTINUOUS
10
164.862
20
-60.5099
11
164.86
21
-60.5083
0
LINE
8
BLACK
6
CONTINUOUS
10
164.86
20
-60.5083
11
164.858
21
-60.5067
0
LINE
8
BLACK
6
CONTINUOUS
10
164.858
20
-60.5067
11
164.685
21
-60.2966
0
LINE
8
BLACK
6
CONTINUOUS
10
164.685
20
-60.2966
11
164.684
21
-60.2964
0
LINE
8
BLACK
6
CONTINUOUS
10
164.684
20
-60.2964
11
164.683
21
-60.2945
0
LINE
8
BLACK
6
CONTINUOUS
10
164.683
20
-60.2945
11
164.682
21
-60.2926
0
LINE
8
BLACK
6
CONTINUOUS
10
164.682
20
-60.2926
11
164.552
21
-60.0527
0
LINE
8
BLACK
6
CONTINUOUS
10
164.552
20
-60.0527
11
164.552
21
-60.0524
0
LINE
8
BLACK
6
CONTINUOUS
10
164.552
20
-60.0524
11
164.551
21
-60.0503
0
LINE
8
BLACK
6
CONTINUOUS
10
164.551
20
-60.0503
11
164.55
21
-60.0483
0
LINE
8
BLACK
6
CONTINUOUS
10
164.55
20
-60.0483
11
164.47
21
-59.7878
0
LINE
8
BLACK
6
CONTINUOUS
10
164.47
20
-59.7878
11
164.47
21
-59.7875
0
LINE
8
BLACK
6
CONTINUOUS
10
164.47
20
-59.7875
11
164.469
21
-59.7852
0
LINE
8
BLACK
6
CONTINUOUS
10
164.469
20
-59.7852
11
164.469
21
-59.783
0
LINE
8
BLACK
6
CONTINUOUS
10
164.469
20
-59.783
11
164.44
21
-59.5119
0
LINE
8
BLACK
6
CONTINUOUS
10
164.44
20
-59.5119
11
164.44
21
-59.5115
0
LINE
8
BLACK
6
CONTINUOUS
10
164.44
20
-59.5115
11
164.44
21
-59.5104
0
LINE
8
BLACK
6
CONTINUOUS
10
164.44
20
-59.5104
11
164.44
21
-59.5093
0
LINE
8
BLACK
6
CONTINUOUS
10
164.44
20
-59.5093
11
164.44
21
-59.5007
0
LINE
8
BLACK
6
CONTINUOUS
10
164.44
20
-59.5007
11
164.44
21
-59.5007
0
LINE
8
BLACK
6
CONTINUOUS
10
164.44
20
-59.5007
11
164.44
21
-59.4997
0
LINE
8
BLACK
6
CONTINUOUS
10
164.44
20
-59.4997
11
164.44
21
-59.4996
0
LINE
8
BLACK
6
CONTINUOUS
10
164.44
20
-59.4996
11
164.44
21
-59.4992
0
LINE
8
BLACK
6
CONTINUOUS
10
164.44
20
-59.4992
11
164.44
21
-59.1186
0
LINE
8
BLACK
6
CONTINUOUS
10
164.44
20
-59.1186
11
164.44
21
-59.1159
0
LINE
8
BLACK
6
CONTINUOUS
10
164.44
20
-59.1159
11
164.429
21
-59.0086
0
LINE
8
BLACK
6
CONTINUOUS
10
164.429
20
-59.0086
11
164.397
21
-58.9068
0
LINE
8
BLACK
6
CONTINUOUS
10
164.397
20
-58.9068
11
164.346
21
-58.813
0
LINE
8
BLACK
6
CONTINUOUS
10
164.346
20
-58.813
11
164.278
21
-58.7308
0
LINE
8
BLACK
6
CONTINUOUS
10
164.278
20
-58.7308
11
164.196
21
-58.6634
0
LINE
8
BLACK
6
CONTINUOUS
10
164.196
20
-58.6634
11
164.102
21
-58.6133
0
LINE
8
BLACK
6
CONTINUOUS
10
164.102
20
-58.6133
11
164
21
-58.5825
0
LINE
8
BLACK
6
CONTINUOUS
10
164
20
-58.5825
11
163.892
21
-58.572
0
LINE
8
BLACK
6
CONTINUOUS
10
163.892
20
-58.572
11
142.05
21
-58.572
0
LINE
8
BLACK
6
CONTINUOUS
10
142.05
20
-58.572
11
142.047
21
-58.572
0
LINE
8
BLACK
6
CONTINUOUS
10
142.047
20
-58.572
11
141.94
21
-58.5833
0
LINE
8
BLACK
6
CONTINUOUS
10
141.94
20
-58.5833
11
141.838
21
-58.6148
0
LINE
8
BLACK
6
CONTINUOUS
10
141.838
20
-58.6148
11
141.744
21
-58.6655
0
LINE
8
BLACK
6
CONTINUOUS
10
141.744
20
-58.6655
11
141.662
21
-58.7335
0
LINE
8
BLACK
6
CONTINUOUS
10
141.662
20
-58.7335
11
141.594
21
-58.8161
0
LINE
8
BLACK
6
CONTINUOUS
10
141.594
20
-58.8161
11
141.544
21
-58.9103
0
LINE
8
BLACK
6
CONTINUOUS
10
141.544
20
-58.9103
11
141.514
21
-59.0124
0
LINE
8
BLACK
6
CONTINUOUS
10
141.514
20
-59.0124
11
141.503
21
-59.1197
0
LINE
8
BLACK
6
CONTINUOUS
10
141.503
20
-59.1197
11
141.503
21
-59.4372
0
LINE
8
BLACK
6
CONTINUOUS
10
141.503
20
-59.4372
11
141.503
21
-59.4384
0
LINE
8
BLACK
6
CONTINUOUS
10
141.503
20
-59.4384
11
141.503
21
-59.4384
0
LINE
8
BLACK
6
CONTINUOUS
10
141.503
20
-59.4384
11
141.476
21
-59.7098
0
LINE
8
BLACK
6
CONTINUOUS
10
141.476
20
-59.7098
11
141.476
21
-59.7101
0
LINE
8
BLACK
6
CONTINUOUS
10
141.476
20
-59.7101
11
141.476
21
-59.7124
0
LINE
8
BLACK
6
CONTINUOUS
10
141.476
20
-59.7124
11
141.475
21
-59.7146
0
LINE
8
BLACK
6
CONTINUOUS
10
141.475
20
-59.7146
11
141.397
21
-59.9756
0
LINE
8
BLACK
6
CONTINUOUS
10
141.397
20
-59.9756
11
141.396
21
-59.9759
0
LINE
8
BLACK
6
CONTINUOUS
10
141.396
20
-59.9759
11
141.396
21
-59.978
0
LINE
8
BLACK
6
CONTINUOUS
10
141.396
20
-59.978
11
141.395
21
-59.9801
0
LINE
8
BLACK
6
CONTINUOUS
10
141.395
20
-59.9801
11
141.267
21
-60.2208
0
LINE
8
BLACK
6
CONTINUOUS
10
141.267
20
-60.2208
11
141.266
21
-60.2211
0
LINE
8
BLACK
6
CONTINUOUS
10
141.266
20
-60.2211
11
141.265
21
-60.223
0
LINE
8
BLACK
6
CONTINUOUS
10
141.265
20
-60.223
11
141.264
21
-60.2249
0
LINE
8
BLACK
6
CONTINUOUS
10
141.264
20
-60.2249
11
141.092
21
-60.4362
0
LINE
8
BLACK
6
CONTINUOUS
10
141.092
20
-60.4362
11
141.091
21
-60.4364
0
LINE
8
BLACK
6
CONTINUOUS
10
141.091
20
-60.4364
11
141.09
21
-60.4381
0
LINE
8
BLACK
6
CONTINUOUS
10
141.09
20
-60.4381
11
141.088
21
-60.4396
0
LINE
8
BLACK
6
CONTINUOUS
10
141.088
20
-60.4396
11
140.878
21
-60.6134
0
LINE
8
BLACK
6
CONTINUOUS
10
140.878
20
-60.6134
11
140.878
21
-60.6136
0
LINE
8
BLACK
6
CONTINUOUS
10
140.878
20
-60.6136
11
140.876
21
-60.6149
0
LINE
8
BLACK
6
CONTINUOUS
10
140.876
20
-60.6149
11
140.874
21
-60.6162
0
LINE
8
BLACK
6
CONTINUOUS
10
140.874
20
-60.6162
11
140.634
21
-60.7458
0
LINE
8
BLACK
6
CONTINUOUS
10
140.634
20
-60.7458
11
140.634
21
-60.746
0
LINE
8
BLACK
6
CONTINUOUS
10
140.634
20
-60.746
11
140.632
21
-60.7469
0
LINE
8
BLACK
6
CONTINUOUS
10
140.632
20
-60.7469
11
140.63
21
-60.7477
0
LINE
8
BLACK
6
CONTINUOUS
10
140.63
20
-60.7477
11
140.369
21
-60.8283
0
LINE
8
BLACK
6
CONTINUOUS
10
140.369
20
-60.8283
11
140.369
21
-60.8284
0
LINE
8
BLACK
6
CONTINUOUS
10
140.369
20
-60.8284
11
140.367
21
-60.8289
0
LINE
8
BLACK
6
CONTINUOUS
10
140.367
20
-60.8289
11
140.365
21
-60.8293
0
LINE
8
BLACK
6
CONTINUOUS
10
140.365
20
-60.8293
11
140.093
21
-60.8578
0
LINE
8
BLACK
6
CONTINUOUS
10
140.093
20
-60.8578
11
140.093
21
-60.8579
0
LINE
8
BLACK
6
CONTINUOUS
10
140.093
20
-60.8579
11
140.092
21
-60.8579
0
LINE
8
BLACK
6
CONTINUOUS
10
140.092
20
-60.8579
11
140.091
21
-60.858
0
LINE
8
BLACK
6
CONTINUOUS
10
140.091
20
-60.858
11
140.082
21
-60.858
0
LINE
8
BLACK
6
CONTINUOUS
10
140.082
20
-60.858
11
140.082
21
-60.858
0
LINE
8
BLACK
6
CONTINUOUS
10
140.082
20
-60.858
11
123
21
-60.858
0
LINE
8
BLACK
6
CONTINUOUS
10
123
20
-60.858
11
122.997
21
-60.858
0
LINE
8
BLACK
6
CONTINUOUS
10
122.997
20
-60.858
11
122.89
21
-60.8693
0
LINE
8
BLACK
6
CONTINUOUS
10
122.89
20
-60.8693
11
122.788
21
-60.9008
0
LINE
8
BLACK
6
CONTINUOUS
10
122.788
20
-60.9008
11
122.694
21
-60.9515
0
LINE
8
BLACK
6
CONTINUOUS
10
122.694
20
-60.9515
11
122.612
21
-61.0195
0
LINE
8
BLACK
6
CONTINUOUS
10
122.612
20
-61.0195
11
122.544
21
-61.1021
0
LINE
8
BLACK
6
CONTINUOUS
10
122.544
20
-61.1021
11
122.494
21
-61.1963
0
LINE
8
BLACK
6
CONTINUOUS
10
122.494
20
-61.1963
11
122.464
21
-61.2984
0
LINE
8
BLACK
6
CONTINUOUS
10
122.464
20
-61.2984
11
122.453
21
-61.4057
0
LINE
8
BLACK
6
CONTINUOUS
10
122.453
20
-61.4057
11
122.453
21
-61.9137
0
LINE
8
BLACK
6
CONTINUOUS
10
122.453
20
-61.9137
11
122.453
21
-61.9149
0
LINE
8
BLACK
6
CONTINUOUS
10
122.453
20
-61.9149
11
122.453
21
-61.9149
0
LINE
8
BLACK
6
CONTINUOUS
10
122.453
20
-61.9149
11
122.426
21
-62.1863
0
LINE
8
BLACK
6
CONTINUOUS
10
122.426
20
-62.1863
11
122.426
21
-62.1866
0
LINE
8
BLACK
6
CONTINUOUS
10
122.426
20
-62.1866
11
122.426
21
-62.1889
0
LINE
8
BLACK
6
CONTINUOUS
10
122.426
20
-62.1889
11
122.425
21
-62.1911
0
LINE
8
BLACK
6
CONTINUOUS
10
122.425
20
-62.1911
11
122.347
21
-62.4521
0
LINE
8
BLACK
6
CONTINUOUS
10
122.347
20
-62.4521
11
122.346
21
-62.4524
0
LINE
8
BLACK
6
CONTINUOUS
10
122.346
20
-62.4524
11
122.346
21
-62.4545
0
LINE
8
BLACK
6
CONTINUOUS
10
122.346
20
-62.4545
11
122.345
21
-62.4566
0
LINE
8
BLACK
6
CONTINUOUS
10
122.345
20
-62.4566
11
122.217
21
-62.6973
0
LINE
8
BLACK
6
CONTINUOUS
10
122.217
20
-62.6973
11
122.216
21
-62.6976
0
LINE
8
BLACK
6
CONTINUOUS
10
122.216
20
-62.6976
11
122.215
21
-62.6995
0
LINE
8
BLACK
6
CONTINUOUS
10
122.215
20
-62.6995
11
122.214
21
-62.7014
0
LINE
8
BLACK
6
CONTINUOUS
10
122.214
20
-62.7014
11
122.042
21
-62.9127
0
LINE
8
BLACK
6
CONTINUOUS
10
122.042
20
-62.9127
11
122.041
21
-62.9129
0
LINE
8
BLACK
6
CONTINUOUS
10
122.041
20
-62.9129
11
122.04
21
-62.9146
0
LINE
8
BLACK
6
CONTINUOUS
10
122.04
20
-62.9146
11
122.038
21
-62.9161
0
LINE
8
BLACK
6
CONTINUOUS
10
122.038
20
-62.9161
11
121.828
21
-63.0899
0
LINE
8
BLACK
6
CONTINUOUS
10
121.828
20
-63.0899
11
121.828
21
-63.0901
0
LINE
8
BLACK
6
CONTINUOUS
10
121.828
20
-63.0901
11
121.826
21
-63.0914
0
LINE
8
BLACK
6
CONTINUOUS
10
121.826
20
-63.0914
11
121.824
21
-63.0927
0
LINE
8
BLACK
6
CONTINUOUS
10
121.824
20
-63.0927
11
121.584
21
-63.2223
0
LINE
8
BLACK
6
CONTINUOUS
10
121.584
20
-63.2223
11
121.584
21
-63.2225
0
LINE
8
BLACK
6
CONTINUOUS
10
121.584
20
-63.2225
11
121.582
21
-63.2234
0
LINE
8
BLACK
6
CONTINUOUS
10
121.582
20
-63.2234
11
121.58
21
-63.2242
0
LINE
8
BLACK
6
CONTINUOUS
10
121.58
20
-63.2242
11
121.319
21
-63.3048
0
LINE
8
BLACK
6
CONTINUOUS
10
121.319
20
-63.3048
11
121.319
21
-63.3049
0
LINE
8
BLACK
6
CONTINUOUS
10
121.319
20
-63.3049
11
121.317
21
-63.3054
0
LINE
8
BLACK
6
CONTINUOUS
10
121.317
20
-63.3054
11
121.315
21
-63.3058
0
LINE
8
BLACK
6
CONTINUOUS
10
121.315
20
-63.3058
11
121.043
21
-63.3343
0
LINE
8
BLACK
6
CONTINUOUS
10
121.043
20
-63.3343
11
121.043
21
-63.3344
0
LINE
8
BLACK
6
CONTINUOUS
10
121.043
20
-63.3344
11
121.042
21
-63.3344
0
LINE
8
BLACK
6
CONTINUOUS
10
121.042
20
-63.3344
11
121.041
21
-63.3345
0
LINE
8
BLACK
6
CONTINUOUS
10
121.041
20
-63.3345
11
121.032
21
-63.3345
0
LINE
8
BLACK
6
CONTINUOUS
10
121.032
20
-63.3345
11
121.032
21
-63.3345
0
LINE
8
BLACK
6
CONTINUOUS
10
121.032
20
-63.3345
11
111.329
21
-63.3345
0
LINE
8
BLACK
6
CONTINUOUS
10
111.329
20
-63.3345
11
111.328
21
-63.3346
0
LINE
8
BLACK
6
CONTINUOUS
10
111.328
20
-63.3346
11
111.327
21
-63.3345
0
LINE
8
BLACK
6
CONTINUOUS
10
111.327
20
-63.3345
11
111.327
21
-63.3345
0
LINE
8
BLACK
6
CONTINUOUS
10
111.327
20
-63.3345
11
111.323
21
-63.3341
0
LINE
8
BLACK
6
CONTINUOUS
10
111.323
20
-63.3341
11
111.319
21
-63.3327
0
LINE
8
BLACK
6
CONTINUOUS
10
111.319
20
-63.3327
11
111.314
21
-63.3304
0
LINE
8
BLACK
6
CONTINUOUS
10
111.314
20
-63.3304
11
111.31
21
-63.3273
0
LINE
8
BLACK
6
CONTINUOUS
10
111.31
20
-63.3273
11
111.307
21
-63.3235
0
LINE
8
BLACK
6
CONTINUOUS
10
111.307
20
-63.3235
11
111.305
21
-63.3191
0
LINE
8
BLACK
6
CONTINUOUS
10
111.305
20
-63.3191
11
111.304
21
-63.3144
0
LINE
8
BLACK
6
CONTINUOUS
10
111.304
20
-63.3144
11
111.303
21
-63.3095
0
LINE
8
BLACK
6
CONTINUOUS
10
111.303
20
-63.3095
11
111.303
21
-63.3083
0
LINE
8
BLACK
6
CONTINUOUS
10
111.303
20
-63.3083
11
111.303
21
-61.5806
0
LINE
8
BLACK
6
CONTINUOUS
10
111.303
20
-61.5806
11
111.282
21
-61.1424
0
LINE
8
BLACK
6
CONTINUOUS
10
111.282
20
-61.1424
11
111.118
21
-60.3047
0
LINE
8
BLACK
6
CONTINUOUS
10
111.118
20
-60.3047
11
110.799
21
-59.5137
0
LINE
8
BLACK
6
CONTINUOUS
10
110.799
20
-59.5137
11
110.337
21
-58.7972
0
LINE
8
BLACK
6
CONTINUOUS
10
110.337
20
-58.7972
11
109.747
21
-58.181
0
LINE
8
BLACK
6
CONTINUOUS
10
109.747
20
-58.181
11
109.051
21
-57.6876
0
LINE
8
BLACK
6
CONTINUOUS
10
109.051
20
-57.6876
11
108.275
21
-57.3346
0
LINE
8
BLACK
6
CONTINUOUS
10
108.275
20
-57.3346
11
107.446
21
-57.1347
0
LINE
8
BLACK
6
CONTINUOUS
10
107.446
20
-57.1347
11
106.594
21
-57.0953
0
LINE
8
BLACK
6
CONTINUOUS
10
106.594
20
-57.0953
11
105.75
21
-57.2177
0
LINE
8
BLACK
6
CONTINUOUS
10
105.75
20
-57.2177
11
104.944
21
-57.4975
0
LINE
8
BLACK
6
CONTINUOUS
10
104.944
20
-57.4975
11
104.206
21
-57.9246
0
LINE
8
BLACK
6
CONTINUOUS
10
104.206
20
-57.9246
11
103.561
21
-58.4836
0
LINE
8
BLACK
6
CONTINUOUS
10
103.561
20
-58.4836
11
103.035
21
-59.1543
0
LINE
8
BLACK
6
CONTINUOUS
10
103.035
20
-59.1543
11
102.644
21
-59.9125
0
LINE
8
BLACK
6
CONTINUOUS
10
102.644
20
-59.9125
11
102.404
21
-60.7309
0
LINE
8
BLACK
6
CONTINUOUS
10
102.404
20
-60.7309
11
102.323
21
-61.5812
0
LINE
8
BLACK
6
CONTINUOUS
10
102.323
20
-61.5812
11
102.323
21
-63.3107
0
LINE
8
BLACK
6
CONTINUOUS
10
102.323
20
-63.3107
11
102.323
21
-63.3107
0
LINE
8
BLACK
6
CONTINUOUS
10
102.323
20
-63.3107
11
102.323
21
-127.812
0
LINE
8
BLACK
6
CONTINUOUS
10
102.323
20
-127.812
11
102.324
21
-127.813
0
LINE
8
BLACK
6
CONTINUOUS
10
102.324
20
-127.813
11
102.323
21
-127.818
0
LINE
8
BLACK
6
CONTINUOUS
10
102.323
20
-127.818
11
102.322
21
-127.822
0
LINE
8
BLACK
6
CONTINUOUS
10
102.322
20
-127.822
11
102.319
21
-127.827
0
LINE
8
BLACK
6
CONTINUOUS
10
102.319
20
-127.827
11
102.316
21
-127.831
0
LINE
8
BLACK
6
CONTINUOUS
10
102.316
20
-127.831
11
102.312
21
-127.834
0
LINE
8
BLACK
6
CONTINUOUS
10
102.312
20
-127.834
11
102.308
21
-127.836
0
LINE
8
BLACK
6
CONTINUOUS
10
102.308
20
-127.836
11
102.303
21
-127.837
0
LINE
8
BLACK
6
CONTINUOUS
10
102.303
20
-127.837
11
102.3
21
-127.838
0
LINE
8
BLACK
6
CONTINUOUS
10
102.3
20
-127.838
11
102.3
21
-127.838
0
LINE
8
BLACK
6
CONTINUOUS
10
102.3
20
-127.838
11
102.298
21
-127.838
0
LINE
8
BLACK
6
CONTINUOUS
10
102.298
20
-127.838
11
102.297
21
-127.838
0
LINE
8
BLACK
6
CONTINUOUS
10
102.297
20
-127.838
11
100.189
21
-127.838
0
LINE
8
BLACK
6
CONTINUOUS
10
100.189
20
-127.838
11
99.7504
21
-127.859
0
LINE
8
BLACK
6
CONTINUOUS
10
99.7504
20
-127.859
11
98.9128
21
-128.023
0
LINE
8
BLACK
6
CONTINUOUS
10
98.9128
20
-128.023
11
98.1217
21
-128.342
0
LINE
8
BLACK
6
CONTINUOUS
10
98.1217
20
-128.342
11
97.4052
21
-128.804
0
LINE
8
BLACK
6
CONTINUOUS
10
97.4052
20
-128.804
11
96.789
21
-129.394
0
LINE
8
BLACK
6
CONTINUOUS
10
96.789
20
-129.394
11
96.2956
21
-130.09
0
LINE
8
BLACK
6
CONTINUOUS
10
96.2956
20
-130.09
11
95.9426
21
-130.866
0
LINE
8
BLACK
6
CONTINUOUS
10
95.9426
20
-130.866
11
95.7427
21
-131.695
0
LINE
8
BLACK
6
CONTINUOUS
10
95.7427
20
-131.695
11
95.7033
21
-132.547
0
LINE
8
BLACK
6
CONTINUOUS
10
95.7033
20
-132.547
11
95.8257
21
-133.391
0
LINE
8
BLACK
6
CONTINUOUS
10
95.8257
20
-133.391
11
96.1055
21
-134.197
0
LINE
8
BLACK
6
CONTINUOUS
10
96.1055
20
-134.197
11
96.5326
21
-134.935
0
LINE
8
BLACK
6
CONTINUOUS
10
96.5326
20
-134.935
11
97.0916
21
-135.58
0
LINE
8
BLACK
6
CONTINUOUS
10
97.0916
20
-135.58
11
97.7623
21
-136.106
0
LINE
8
BLACK
6
CONTINUOUS
10
97.7623
20
-136.106
11
98.5205
21
-136.497
0
LINE
8
BLACK
6
CONTINUOUS
10
98.5205
20
-136.497
11
99.3389
21
-136.737
0
LINE
8
BLACK
6
CONTINUOUS
10
99.3389
20
-136.737
11
100.189
21
-136.818
0
LINE
8
BLACK
6
CONTINUOUS
10
100.189
20
-136.818
11
102.297
21
-136.818
0
LINE
8
BLACK
6
CONTINUOUS
10
102.297
20
-136.818
11
102.298
21
-136.817
0
LINE
8
BLACK
6
CONTINUOUS
10
102.298
20
-136.817
11
102.303
21
-136.818
0
LINE
8
BLACK
6
CONTINUOUS
10
102.303
20
-136.818
11
102.303
21
-136.818
0
LINE
8
BLACK
6
CONTINUOUS
10
102.303
20
-136.818
11
102.303
21
-136.818
0
LINE
8
BLACK
6
CONTINUOUS
10
102.303
20
-136.818
11
102.303
21
-136.818
0
LINE
8
BLACK
6
CONTINUOUS
10
102.303
20
-136.818
11
102.306
21
-136.819
0
LINE
8
BLACK
6
CONTINUOUS
10
102.306
20
-136.819
11
102.308
21
-136.819
0
LINE
8
BLACK
6
CONTINUOUS
10
102.308
20
-136.819
11
102.308
21
-136.819
0
LINE
8
BLACK
6
CONTINUOUS
10
102.308
20
-136.819
11
102.308
21
-136.819
0
LINE
8
BLACK
6
CONTINUOUS
10
102.308
20
-136.819
11
102.309
21
-136.82
0
LINE
8
BLACK
6
CONTINUOUS
10
102.309
20
-136.82
11
102.312
21
-136.822
0
LINE
8
BLACK
6
CONTINUOUS
10
102.312
20
-136.822
11
102.312
21
-136.822
0
LINE
8
BLACK
6
CONTINUOUS
10
102.312
20
-136.822
11
102.316
21
-136.825
  0
ENDSEC
  0
EOF
