<?xml version="1.0" standalone="no"?>
 <!DOCTYPE svg PUBLIC "-//W3C//DTD SVG 1.1//EN" 
 "http://www.w3.org/Graphics/SVG/1.1/DTD/svg11.dtd"> 
<svg xmlns="http://www.w3.org/2000/svg" version="1.1" 
    width="59.4004cm" height="41.9989cm" viewBox="0 0 233860 165350 ">
<title>SVG Picture created as Apollo-Edge_Cuts.svg date 2020/02/24 15:27:54 </title>
  <desc>Picture generated by PCBNEW </desc>
<g style="fill:#000000; fill-opacity:1;stroke:#000000; stroke-opacity:1;
stroke-linecap:round; stroke-linejoin:round; "
 transform="translate(0 0) scale(1 1)">
</g>
<g style="fill:#000000; fill-opacity:0.0; 
stroke:#000000; stroke-width:-0.000393701; stroke-opacity:1; 
stroke-linecap:round; stroke-linejoin:round;">
</g>
<g style="fill:#000000; fill-opacity:0.0; 
stroke:#000000; stroke-width:19.685; stroke-opacity:1; 
stroke-linecap:round; stroke-linejoin:round;">
<path d="M48350.8 80876.6 A1220.66 1220.66 0.0 1 0 50361.9 79492.6 " />
<path d="M46700 34925
L46747 34925
" />
<circle cx="45044.1" cy="63347.6" r="590.551" /> 
<path d="M45044 64627
L46150 64627
" />
<path d="M45044.1 62068.1 A1279.53 1279.53 0.0 0 0 45044.1 64627.2 " />
<path d="M45044 62068
L46150 62068
" />
<circle cx="48027.4" cy="33994.1" r="590.551" /> 
<path d="M46747 33994
L46747 34925
" />
<path d="M49306 33994
L49306 34925
" />
<path d="M49306.9 33994.1 A1279.53 1279.53 0.0 0 0 46747.8 33994.1 " />
<circle cx="90002.4" cy="34969.1" r="590.551" /> 
<path d="M88722 34969
L88722 35850
" />
<path d="M91281 34969
L91281 35850
" />
<path d="M91281.9 34969.1 A1279.53 1279.53 0.0 0 0 88722.8 34969.1 " />
<path d="M96605.9 67631.9 A1279.53 1279.53 0.0 0 0 96605.9 65072.8 " />
<path d="M96605 67631
L95675 67631
" />
<circle cx="96605.9" cy="66352.4" r="590.551" /> 
<path d="M96605 65072
L95675 65072
" />
<path d="M47800 80050
L41940 83920
" />
<path d="M47800 80050
L48350 80876
" />
<path d="M49881 78767
L50361 79492
" />
<circle cx="49425" cy="80234.4" r="590.551" /> 
<path d="M46150 64627
L46150 65500
" />
<path d="M60406 33950
L60600 33950
" />
<path d="M91281 35850
L95125 35850
" />
<path d="M95675 67631
L95675 73700
" />
<path d="M74233 72375
L75600 72375
" />
<path d="M74233 73301
L74233 72375
" />
<path d="M72068 73301
L72068 72375
" />
<circle cx="73151" cy="73301.2" r="590.551" /> 
<path d="M72068.3 73301.2 A1082.68 1082.68 0.0 0 0 74233.7 73301.2 " />
<path d="M45952.8 65830.2 A375 375 0.0 0 0 46150 65500 " />
<path d="M34879 73018.5 A362.353 362.353 0.0 0 0 34760 73490 " />
<path d="M45952 65830
L34879 73018
" />
<path d="M41468.5 83801 A362.353 362.353 0.0 0 0 41940 83920 " />
<path d="M34760 73490
L41468 83800
" />
<path d="M55025 75405
L49881 78767
" />
<path d="M62000 72800
L55025 75405
" />
<path d="M69100 72375
L62000 72800
" />
<path d="M76150 73700
L76150 72925
" />
<path d="M53650 34175
L53650 34375
" />
<path d="M61150 33275
L61150 33400
" />
<path d="M70200 33275
L70200 33425
" />
<path d="M77700 34525
L77700 35300
" />
<path d="M46150 35475
L46150 62068
" />
<path d="M69100 72375
L72068 72375
" />
<path d="M76700 74250
L95125 74250
" />
<path d="M49306 34925
L53100 34925
" />
<path d="M53875 33950
L60406 33950
" />
<path d="M61375 33050
L69975 33050
" />
<path d="M70750 33975
L77150 33975
" />
<path d="M78250 35850
L88722 35850
" />
<path d="M53875 33950 A225 225 0.0 0 0 53650 34175 " />
<path d="M61375 33050 A225 225 0.0 0 0 61150 33275 " />
<path d="M70200 33275 A225 225 0.0 0 0 69975 33050 " />
<path d="M76150 72925 A550 550 0.0 0 0 75600 72375 " />
<path d="M76150 73700 A550 550 0.0 0 0 76700 74250 " />
<path d="M95125 74250 A550 550 0.0 0 0 95675 73700 " />
<path d="M46700 34925 A550 550 0.0 0 0 46150 35475 " />
<path d="M53100 34925 A550 550 0.0 0 0 53650 34375 " />
<path d="M60600 33950 A550 550 0.0 0 0 61150 33400 " />
<path d="M70200 33425 A550 550 0.0 0 0 70750 33975 " />
<path d="M77700 34525 A550 550 0.0 0 0 77150 33975 " />
<path d="M77700 35300 A550 550 0.0 0 0 78250 35850 " />
<path d="M95675 36400 A550 550 0.0 0 0 95125 35850 " />
<path d="M95675 65072
L95675 36400
" />
<g >
</g>
<g >
</g>
<g >
</g>
<g >
</g>
<g >
</g>
<g >
</g>
<g >
</g>
<g >
</g>
<g >
</g>
<g >
</g>
<g >
</g>
<g >
</g>
<g >
</g>
<g >
</g>
<g >
</g>
<g >
</g>
<g >
</g>
<g >
</g>
<g >
</g>
<g >
</g>
<g >
</g>
<g >
</g>
<g >
</g>
<g >
</g>
<g >
</g>
<g >
</g>
<g >
</g>
<g >
</g>
<g >
</g>
<g >
</g>
<g >
</g>
<g >
</g>
</g> 
</svg>
