  0
SECTION
  2
HEADER
  9
$ANGBASE
  50
0.0
  9
$ANGDIR
  70
1
  9
$MEASUREMENT
  70
1
  0
ENDSEC
  0
SECTION
  2
TABLES
  0
TABLE
  2
LTYPE
  70
4
  0
LTYPE
  5
40F
  2
CONTINUOUS
  70
0
  3
Solid line
  72
65
  73
0
  40
0.0
  0
LTYPE
  5
410
  2
DASHDOT
 70
0
  3
Dash Dot ____ _ ____ _
 72
65
 73
4
 40
2.0
 49
1.25
 49
-0.25
 49
0.25
 49
-0.25
  0
LTYPE
  5
411
  2
DASHED
 70
0
  3
Dashed __ __ __ __ __
 72
65
 73
2
 40
0.75
 49
0.5
 49
-0.25
  0
LTYPE
  5
43B
  2
DOTTED
 70
0
  3
Dotted .  .  .  .
 72
65
 73
2
 40
0.2
 49
0.0
 49
-0.2
  0
ENDTAB
  0
TABLE
  2
STYLE
  70
4
  0
STYLE
  2
KICAD
  70
0
  40
0
  41
1
  42
1
  50
0
  71
0
  3
isocp.shx
  0
STYLE
  2
KICADB
  70
0
  40
0
  41
1
  42
1
  50
0
  71
0
  3
isocp.shx
  0
STYLE
  2
KICADI
  70
0
  40
0
  41
1
  42
1
  50
15
  71
0
  3
isocp.shx
  0
STYLE
  2
KICADBI
  70
0
  40
0
  41
1
  42
1
  50
15
  71
0
  3
isocp.shx
  0
ENDTAB
  0
TABLE
  2
LAYER
  70
1
  0
LAYER
  2
BLACK
  70
0
  62
7
  6
CONTINUOUS
  0
ENDTAB
  0
ENDSEC
  0
SECTION
  2
ENTITIES
0
LINE
8
BLACK
6
CONTINUOUS
10
224.906
20
-53.5855
11
224.909
21
-53.5855
0
LINE
8
BLACK
6
CONTINUOUS
10
224.909
20
-53.5855
11
224.911
21
-53.5856
0
LINE
8
BLACK
6
CONTINUOUS
10
224.911
20
-53.5856
11
225.619
21
-53.6719
0
LINE
8
BLACK
6
CONTINUOUS
10
225.619
20
-53.6719
11
225.619
21
-53.672
0
LINE
8
BLACK
6
CONTINUOUS
10
225.619
20
-53.672
11
225.621
21
-53.6725
0
LINE
8
BLACK
6
CONTINUOUS
10
225.621
20
-53.6725
11
225.623
21
-53.673
0
LINE
8
BLACK
6
CONTINUOUS
10
225.623
20
-53.673
11
226.301
21
-53.8951
0
LINE
8
BLACK
6
CONTINUOUS
10
226.301
20
-53.8951
11
226.301
21
-53.8953
0
LINE
8
BLACK
6
CONTINUOUS
10
226.301
20
-53.8953
11
226.303
21
-53.8962
0
LINE
8
BLACK
6
CONTINUOUS
10
226.303
20
-53.8962
11
226.305
21
-53.8971
0
LINE
8
BLACK
6
CONTINUOUS
10
226.305
20
-53.8971
11
226.926
21
-54.2466
0
LINE
8
BLACK
6
CONTINUOUS
10
226.926
20
-54.2466
11
226.926
21
-54.2466
0
LINE
8
BLACK
6
CONTINUOUS
10
226.926
20
-54.2466
11
226.926
21
-54.2466
0
LINE
8
BLACK
6
CONTINUOUS
10
226.926
20
-54.2466
11
226.927
21
-54.2468
0
LINE
8
BLACK
6
CONTINUOUS
10
226.927
20
-54.2468
11
226.929
21
-54.2481
0
LINE
8
BLACK
6
CONTINUOUS
10
226.929
20
-54.2481
11
226.93
21
-54.2494
0
LINE
8
BLACK
6
CONTINUOUS
10
226.93
20
-54.2494
11
227.472
21
-54.7129
0
LINE
8
BLACK
6
CONTINUOUS
10
227.472
20
-54.7129
11
227.472
21
-54.7131
0
LINE
8
BLACK
6
CONTINUOUS
10
227.472
20
-54.7131
11
227.474
21
-54.7148
0
LINE
8
BLACK
6
CONTINUOUS
10
227.474
20
-54.7148
11
227.475
21
-54.7164
0
LINE
8
BLACK
6
CONTINUOUS
10
227.475
20
-54.7164
11
227.917
21
-55.2763
0
LINE
8
BLACK
6
CONTINUOUS
10
227.917
20
-55.2763
11
227.917
21
-55.2766
0
LINE
8
BLACK
6
CONTINUOUS
10
227.917
20
-55.2766
11
227.918
21
-55.2785
0
LINE
8
BLACK
6
CONTINUOUS
10
227.918
20
-55.2785
11
227.919
21
-55.2804
0
LINE
8
BLACK
6
CONTINUOUS
10
227.919
20
-55.2804
11
228.243
21
-55.9153
0
LINE
8
BLACK
6
CONTINUOUS
10
228.243
20
-55.9153
11
228.244
21
-55.9156
0
LINE
8
BLACK
6
CONTINUOUS
10
228.244
20
-55.9156
11
228.244
21
-55.9178
0
LINE
8
BLACK
6
CONTINUOUS
10
228.244
20
-55.9178
11
228.245
21
-55.9199
0
LINE
8
BLACK
6
CONTINUOUS
10
228.245
20
-55.9199
11
228.44
21
-56.6057
0
LINE
8
BLACK
6
CONTINUOUS
10
228.44
20
-56.6057
11
228.44
21
-56.606
0
LINE
8
BLACK
6
CONTINUOUS
10
228.44
20
-56.606
11
228.44
21
-56.6082
0
LINE
8
BLACK
6
CONTINUOUS
10
228.44
20
-56.6082
11
228.441
21
-56.6103
0
LINE
8
BLACK
6
CONTINUOUS
10
228.441
20
-56.6103
11
228.499
21
-57.2719
0
LINE
8
BLACK
6
CONTINUOUS
10
228.499
20
-57.2719
11
228.499
21
-57.272
0
LINE
8
BLACK
6
CONTINUOUS
10
228.499
20
-57.272
11
228.499
21
-57.2729
0
LINE
8
BLACK
6
CONTINUOUS
10
228.499
20
-57.2729
11
228.498
21
-59.919
0
LINE
8
BLACK
6
CONTINUOUS
10
228.498
20
-59.919
11
240.603
21
-59.919
0
LINE
8
BLACK
6
CONTINUOUS
10
240.603
20
-59.919
11
240.604
21
-59.9191
0
LINE
8
BLACK
6
CONTINUOUS
10
240.604
20
-59.9191
11
240.604
21
-59.9191
0
LINE
8
BLACK
6
CONTINUOUS
10
240.604
20
-59.9191
11
240.875
21
-59.9457
0
LINE
8
BLACK
6
CONTINUOUS
10
240.875
20
-59.9457
11
240.876
21
-59.9458
0
LINE
8
BLACK
6
CONTINUOUS
10
240.876
20
-59.9458
11
240.878
21
-59.9462
0
LINE
8
BLACK
6
CONTINUOUS
10
240.878
20
-59.9462
11
240.88
21
-59.9467
0
LINE
8
BLACK
6
CONTINUOUS
10
240.88
20
-59.9467
11
241.141
21
-60.0255
0
LINE
8
BLACK
6
CONTINUOUS
10
241.141
20
-60.0255
11
241.141
21
-60.0256
0
LINE
8
BLACK
6
CONTINUOUS
10
241.141
20
-60.0256
11
241.144
21
-60.0265
0
LINE
8
BLACK
6
CONTINUOUS
10
241.144
20
-60.0265
11
241.146
21
-60.0273
0
LINE
8
BLACK
6
CONTINUOUS
10
241.146
20
-60.0273
11
241.386
21
-60.1553
0
LINE
8
BLACK
6
CONTINUOUS
10
241.386
20
-60.1553
11
241.387
21
-60.1555
0
LINE
8
BLACK
6
CONTINUOUS
10
241.387
20
-60.1555
11
241.388
21
-60.1568
0
LINE
8
BLACK
6
CONTINUOUS
10
241.388
20
-60.1568
11
241.39
21
-60.158
0
LINE
8
BLACK
6
CONTINUOUS
10
241.39
20
-60.158
11
241.602
21
-60.3304
0
LINE
8
BLACK
6
CONTINUOUS
10
241.602
20
-60.3304
11
241.602
21
-60.3304
0
LINE
8
BLACK
6
CONTINUOUS
10
241.602
20
-60.3304
11
241.602
21
-60.3304
0
LINE
8
BLACK
6
CONTINUOUS
10
241.602
20
-60.3304
11
241.602
21
-60.3306
0
LINE
8
BLACK
6
CONTINUOUS
10
241.602
20
-60.3306
11
241.604
21
-60.3322
0
LINE
8
BLACK
6
CONTINUOUS
10
241.604
20
-60.3322
11
241.605
21
-60.3338
0
LINE
8
BLACK
6
CONTINUOUS
10
241.605
20
-60.3338
11
241.779
21
-60.5439
0
LINE
8
BLACK
6
CONTINUOUS
10
241.779
20
-60.5439
11
241.779
21
-60.5441
0
LINE
8
BLACK
6
CONTINUOUS
10
241.779
20
-60.5441
11
241.78
21
-60.5461
0
LINE
8
BLACK
6
CONTINUOUS
10
241.78
20
-60.5461
11
241.782
21
-60.5479
0
LINE
8
BLACK
6
CONTINUOUS
10
241.782
20
-60.5479
11
241.911
21
-60.7877
0
LINE
8
BLACK
6
CONTINUOUS
10
241.911
20
-60.7877
11
241.911
21
-60.7877
0
LINE
8
BLACK
6
CONTINUOUS
10
241.911
20
-60.7877
11
241.911
21
-60.7878
0
LINE
8
BLACK
6
CONTINUOUS
10
241.911
20
-60.7878
11
241.911
21
-60.7881
0
LINE
8
BLACK
6
CONTINUOUS
10
241.911
20
-60.7881
11
241.912
21
-60.7902
0
LINE
8
BLACK
6
CONTINUOUS
10
241.912
20
-60.7902
11
241.913
21
-60.7922
0
LINE
8
BLACK
6
CONTINUOUS
10
241.913
20
-60.7922
11
241.994
21
-61.0527
0
LINE
8
BLACK
6
CONTINUOUS
10
241.994
20
-61.0527
11
241.994
21
-61.053
0
LINE
8
BLACK
6
CONTINUOUS
10
241.994
20
-61.053
11
241.994
21
-61.0553
0
LINE
8
BLACK
6
CONTINUOUS
10
241.994
20
-61.0553
11
241.995
21
-61.0575
0
LINE
8
BLACK
6
CONTINUOUS
10
241.995
20
-61.0575
11
242.023
21
-61.3286
0
LINE
8
BLACK
6
CONTINUOUS
10
242.023
20
-61.3286
11
242.023
21
-61.329
0
LINE
8
BLACK
6
CONTINUOUS
10
242.023
20
-61.329
11
242.023
21
-61.3301
0
LINE
8
BLACK
6
CONTINUOUS
10
242.023
20
-61.3301
11
242.023
21
-61.3312
0
LINE
8
BLACK
6
CONTINUOUS
10
242.023
20
-61.3312
11
242.023
21
-61.3397
0
LINE
8
BLACK
6
CONTINUOUS
10
242.023
20
-61.3397
11
242.023
21
-61.3398
0
LINE
8
BLACK
6
CONTINUOUS
10
242.023
20
-61.3398
11
242.023
21
-121.197
0
LINE
8
BLACK
6
CONTINUOUS
10
242.023
20
-121.197
11
244.794
21
-121.197
0
LINE
8
BLACK
6
CONTINUOUS
10
244.794
20
-121.197
11
244.797
21
-121.197
0
LINE
8
BLACK
6
CONTINUOUS
10
244.797
20
-121.197
11
244.798
21
-121.197
0
LINE
8
BLACK
6
CONTINUOUS
10
244.798
20
-121.197
11
245.503
21
-121.288
0
LINE
8
BLACK
6
CONTINUOUS
10
245.503
20
-121.288
11
245.503
21
-121.288
0
LINE
8
BLACK
6
CONTINUOUS
10
245.503
20
-121.288
11
245.505
21
-121.289
0
LINE
8
BLACK
6
CONTINUOUS
10
245.505
20
-121.289
11
245.507
21
-121.289
0
LINE
8
BLACK
6
CONTINUOUS
10
245.507
20
-121.289
11
246.183
21
-121.516
0
LINE
8
BLACK
6
CONTINUOUS
10
246.183
20
-121.516
11
246.184
21
-121.516
0
LINE
8
BLACK
6
CONTINUOUS
10
246.184
20
-121.516
11
246.186
21
-121.517
0
LINE
8
BLACK
6
CONTINUOUS
10
246.186
20
-121.517
11
246.188
21
-121.518
0
LINE
8
BLACK
6
CONTINUOUS
10
246.188
20
-121.518
11
246.807
21
-121.872
0
LINE
8
BLACK
6
CONTINUOUS
10
246.807
20
-121.872
11
246.807
21
-121.872
0
LINE
8
BLACK
6
CONTINUOUS
10
246.807
20
-121.872
11
246.807
21
-121.872
0
LINE
8
BLACK
6
CONTINUOUS
10
246.807
20
-121.872
11
246.807
21
-121.872
0
LINE
8
BLACK
6
CONTINUOUS
10
246.807
20
-121.872
11
246.809
21
-121.873
0
LINE
8
BLACK
6
CONTINUOUS
10
246.809
20
-121.873
11
246.811
21
-121.875
0
LINE
8
BLACK
6
CONTINUOUS
10
246.811
20
-121.875
11
247.349
21
-122.342
0
LINE
8
BLACK
6
CONTINUOUS
10
247.349
20
-122.342
11
247.349
21
-122.342
0
LINE
8
BLACK
6
CONTINUOUS
10
247.349
20
-122.342
11
247.351
21
-122.344
0
LINE
8
BLACK
6
CONTINUOUS
10
247.351
20
-122.344
11
247.352
21
-122.345
0
LINE
8
BLACK
6
CONTINUOUS
10
247.352
20
-122.345
11
247.79
21
-122.908
0
LINE
8
BLACK
6
CONTINUOUS
10
247.79
20
-122.908
11
247.79
21
-122.909
0
LINE
8
BLACK
6
CONTINUOUS
10
247.79
20
-122.909
11
247.791
21
-122.911
0
LINE
8
BLACK
6
CONTINUOUS
10
247.791
20
-122.911
11
247.792
21
-122.912
0
LINE
8
BLACK
6
CONTINUOUS
10
247.792
20
-122.912
11
248.112
21
-123.55
0
LINE
8
BLACK
6
CONTINUOUS
10
248.112
20
-123.55
11
248.112
21
-123.55
0
LINE
8
BLACK
6
CONTINUOUS
10
248.112
20
-123.55
11
248.113
21
-123.552
0
LINE
8
BLACK
6
CONTINUOUS
10
248.113
20
-123.552
11
248.114
21
-123.554
0
LINE
8
BLACK
6
CONTINUOUS
10
248.114
20
-123.554
11
248.303
21
-124.241
0
LINE
8
BLACK
6
CONTINUOUS
10
248.303
20
-124.241
11
248.303
21
-124.241
0
LINE
8
BLACK
6
CONTINUOUS
10
248.303
20
-124.241
11
248.303
21
-124.241
0
LINE
8
BLACK
6
CONTINUOUS
10
248.303
20
-124.241
11
248.304
21
-124.242
0
LINE
8
BLACK
6
CONTINUOUS
10
248.304
20
-124.242
11
248.304
21
-124.244
0
LINE
8
BLACK
6
CONTINUOUS
10
248.304
20
-124.244
11
248.304
21
-124.246
0
LINE
8
BLACK
6
CONTINUOUS
10
248.304
20
-124.246
11
248.357
21
-124.957
0
LINE
8
BLACK
6
CONTINUOUS
10
248.357
20
-124.957
11
248.357
21
-124.957
0
LINE
8
BLACK
6
CONTINUOUS
10
248.357
20
-124.957
11
248.357
21
-124.96
0
LINE
8
BLACK
6
CONTINUOUS
10
248.357
20
-124.96
11
248.357
21
-124.962
0
LINE
8
BLACK
6
CONTINUOUS
10
248.357
20
-124.962
11
248.271
21
-125.67
0
LINE
8
BLACK
6
CONTINUOUS
10
248.271
20
-125.67
11
248.271
21
-125.67
0
LINE
8
BLACK
6
CONTINUOUS
10
248.271
20
-125.67
11
248.27
21
-125.672
0
LINE
8
BLACK
6
CONTINUOUS
10
248.27
20
-125.672
11
248.27
21
-125.674
0
LINE
8
BLACK
6
CONTINUOUS
10
248.27
20
-125.674
11
248.047
21
-126.352
0
LINE
8
BLACK
6
CONTINUOUS
10
248.047
20
-126.352
11
248.047
21
-126.352
0
LINE
8
BLACK
6
CONTINUOUS
10
248.047
20
-126.352
11
248.046
21
-126.354
0
LINE
8
BLACK
6
CONTINUOUS
10
248.046
20
-126.354
11
248.045
21
-126.356
0
LINE
8
BLACK
6
CONTINUOUS
10
248.045
20
-126.356
11
247.696
21
-126.977
0
LINE
8
BLACK
6
CONTINUOUS
10
247.696
20
-126.977
11
247.696
21
-126.978
0
LINE
8
BLACK
6
CONTINUOUS
10
247.696
20
-126.978
11
247.694
21
-126.98
0
LINE
8
BLACK
6
CONTINUOUS
10
247.694
20
-126.98
11
247.693
21
-126.981
0
LINE
8
BLACK
6
CONTINUOUS
10
247.693
20
-126.981
11
247.23
21
-127.523
0
LINE
8
BLACK
6
CONTINUOUS
10
247.23
20
-127.523
11
247.229
21
-127.523
0
LINE
8
BLACK
6
CONTINUOUS
10
247.229
20
-127.523
11
247.228
21
-127.525
0
LINE
8
BLACK
6
CONTINUOUS
10
247.228
20
-127.525
11
247.226
21
-127.526
0
LINE
8
BLACK
6
CONTINUOUS
10
247.226
20
-127.526
11
246.666
21
-127.968
0
LINE
8
BLACK
6
CONTINUOUS
10
246.666
20
-127.968
11
246.666
21
-127.968
0
LINE
8
BLACK
6
CONTINUOUS
10
246.666
20
-127.968
11
246.664
21
-127.969
0
LINE
8
BLACK
6
CONTINUOUS
10
246.664
20
-127.969
11
246.662
21
-127.97
0
LINE
8
BLACK
6
CONTINUOUS
10
246.662
20
-127.97
11
246.027
21
-128.294
0
LINE
8
BLACK
6
CONTINUOUS
10
246.027
20
-128.294
11
246.027
21
-128.294
0
LINE
8
BLACK
6
CONTINUOUS
10
246.027
20
-128.294
11
246.027
21
-128.294
0
LINE
8
BLACK
6
CONTINUOUS
10
246.027
20
-128.294
11
246.027
21
-128.295
0
LINE
8
BLACK
6
CONTINUOUS
10
246.027
20
-128.295
11
246.025
21
-128.295
0
LINE
8
BLACK
6
CONTINUOUS
10
246.025
20
-128.295
11
246.023
21
-128.296
0
LINE
8
BLACK
6
CONTINUOUS
10
246.023
20
-128.296
11
245.337
21
-128.491
0
LINE
8
BLACK
6
CONTINUOUS
10
245.337
20
-128.491
11
245.337
21
-128.491
0
LINE
8
BLACK
6
CONTINUOUS
10
245.337
20
-128.491
11
245.334
21
-128.491
0
LINE
8
BLACK
6
CONTINUOUS
10
245.334
20
-128.491
11
245.332
21
-128.492
0
LINE
8
BLACK
6
CONTINUOUS
10
245.332
20
-128.492
11
244.671
21
-128.55
0
LINE
8
BLACK
6
CONTINUOUS
10
244.671
20
-128.55
11
244.671
21
-128.55
0
LINE
8
BLACK
6
CONTINUOUS
10
244.671
20
-128.55
11
244.67
21
-128.55
0
LINE
8
BLACK
6
CONTINUOUS
10
244.67
20
-128.55
11
242.023
21
-128.549
0
LINE
8
BLACK
6
CONTINUOUS
10
242.023
20
-128.549
11
242.023
21
-159.894
0
LINE
8
BLACK
6
CONTINUOUS
10
242.023
20
-159.894
11
242.023
21
-159.895
0
LINE
8
BLACK
6
CONTINUOUS
10
242.023
20
-159.895
11
242.023
21
-159.895
0
LINE
8
BLACK
6
CONTINUOUS
10
242.023
20
-159.895
11
241.997
21
-160.167
0
LINE
8
BLACK
6
CONTINUOUS
10
241.997
20
-160.167
11
241.997
21
-160.167
0
LINE
8
BLACK
6
CONTINUOUS
10
241.997
20
-160.167
11
241.996
21
-160.169
0
LINE
8
BLACK
6
CONTINUOUS
10
241.996
20
-160.169
11
241.996
21
-160.172
0
LINE
8
BLACK
6
CONTINUOUS
10
241.996
20
-160.172
11
241.917
21
-160.433
0
LINE
8
BLACK
6
CONTINUOUS
10
241.917
20
-160.433
11
241.917
21
-160.433
0
LINE
8
BLACK
6
CONTINUOUS
10
241.917
20
-160.433
11
241.916
21
-160.435
0
LINE
8
BLACK
6
CONTINUOUS
10
241.916
20
-160.435
11
241.915
21
-160.437
0
LINE
8
BLACK
6
CONTINUOUS
10
241.915
20
-160.437
11
241.787
21
-160.678
0
LINE
8
BLACK
6
CONTINUOUS
10
241.787
20
-160.678
11
241.787
21
-160.678
0
LINE
8
BLACK
6
CONTINUOUS
10
241.787
20
-160.678
11
241.786
21
-160.68
0
LINE
8
BLACK
6
CONTINUOUS
10
241.786
20
-160.68
11
241.784
21
-160.682
0
LINE
8
BLACK
6
CONTINUOUS
10
241.784
20
-160.682
11
241.612
21
-160.893
0
LINE
8
BLACK
6
CONTINUOUS
10
241.612
20
-160.893
11
241.612
21
-160.893
0
LINE
8
BLACK
6
CONTINUOUS
10
241.612
20
-160.893
11
241.61
21
-160.895
0
LINE
8
BLACK
6
CONTINUOUS
10
241.61
20
-160.895
11
241.609
21
-160.897
0
LINE
8
BLACK
6
CONTINUOUS
10
241.609
20
-160.897
11
241.399
21
-161.07
0
LINE
8
BLACK
6
CONTINUOUS
10
241.399
20
-161.07
11
241.398
21
-161.071
0
LINE
8
BLACK
6
CONTINUOUS
10
241.398
20
-161.071
11
241.396
21
-161.072
0
LINE
8
BLACK
6
CONTINUOUS
10
241.396
20
-161.072
11
241.395
21
-161.073
0
LINE
8
BLACK
6
CONTINUOUS
10
241.395
20
-161.073
11
241.155
21
-161.203
0
LINE
8
BLACK
6
CONTINUOUS
10
241.155
20
-161.203
11
241.154
21
-161.203
0
LINE
8
BLACK
6
CONTINUOUS
10
241.154
20
-161.203
11
241.152
21
-161.204
0
LINE
8
BLACK
6
CONTINUOUS
10
241.152
20
-161.204
11
241.15
21
-161.205
0
LINE
8
BLACK
6
CONTINUOUS
10
241.15
20
-161.205
11
240.89
21
-161.285
0
LINE
8
BLACK
6
CONTINUOUS
10
240.89
20
-161.285
11
240.889
21
-161.285
0
LINE
8
BLACK
6
CONTINUOUS
10
240.889
20
-161.285
11
240.887
21
-161.286
0
LINE
8
BLACK
6
CONTINUOUS
10
240.887
20
-161.286
11
240.885
21
-161.286
0
LINE
8
BLACK
6
CONTINUOUS
10
240.885
20
-161.286
11
240.614
21
-161.315
0
LINE
8
BLACK
6
CONTINUOUS
10
240.614
20
-161.315
11
240.614
21
-161.315
0
LINE
8
BLACK
6
CONTINUOUS
10
240.614
20
-161.315
11
240.612
21
-161.315
0
LINE
8
BLACK
6
CONTINUOUS
10
240.612
20
-161.315
11
240.611
21
-161.315
0
LINE
8
BLACK
6
CONTINUOUS
10
240.611
20
-161.315
11
240.603
21
-161.315
0
LINE
8
BLACK
6
CONTINUOUS
10
240.603
20
-161.315
11
240.603
21
-161.315
0
LINE
8
BLACK
6
CONTINUOUS
10
240.603
20
-161.315
11
190.753
21
-161.315
0
LINE
8
BLACK
6
CONTINUOUS
10
190.753
20
-161.315
11
190.752
21
-161.315
0
LINE
8
BLACK
6
CONTINUOUS
10
190.752
20
-161.315
11
190.752
21
-161.315
0
LINE
8
BLACK
6
CONTINUOUS
10
190.752
20
-161.315
11
190.48
21
-161.288
0
LINE
8
BLACK
6
CONTINUOUS
10
190.48
20
-161.288
11
190.48
21
-161.288
0
LINE
8
BLACK
6
CONTINUOUS
10
190.48
20
-161.288
11
190.478
21
-161.288
0
LINE
8
BLACK
6
CONTINUOUS
10
190.478
20
-161.288
11
190.475
21
-161.287
0
LINE
8
BLACK
6
CONTINUOUS
10
190.475
20
-161.287
11
190.214
21
-161.209
0
LINE
8
BLACK
6
CONTINUOUS
10
190.214
20
-161.209
11
190.214
21
-161.208
0
LINE
8
BLACK
6
CONTINUOUS
10
190.214
20
-161.208
11
190.212
21
-161.208
0
LINE
8
BLACK
6
CONTINUOUS
10
190.212
20
-161.208
11
190.21
21
-161.207
0
LINE
8
BLACK
6
CONTINUOUS
10
190.21
20
-161.207
11
189.969
21
-161.079
0
LINE
8
BLACK
6
CONTINUOUS
10
189.969
20
-161.079
11
189.969
21
-161.078
0
LINE
8
BLACK
6
CONTINUOUS
10
189.969
20
-161.078
11
189.967
21
-161.077
0
LINE
8
BLACK
6
CONTINUOUS
10
189.967
20
-161.077
11
189.965
21
-161.076
0
LINE
8
BLACK
6
CONTINUOUS
10
189.965
20
-161.076
11
189.754
21
-160.904
0
LINE
8
BLACK
6
CONTINUOUS
10
189.754
20
-160.904
11
189.754
21
-160.903
0
LINE
8
BLACK
6
CONTINUOUS
10
189.754
20
-160.903
11
189.752
21
-160.902
0
LINE
8
BLACK
6
CONTINUOUS
10
189.752
20
-160.902
11
189.75
21
-160.9
0
LINE
8
BLACK
6
CONTINUOUS
10
189.75
20
-160.9
11
189.577
21
-160.69
0
LINE
8
BLACK
6
CONTINUOUS
10
189.577
20
-160.69
11
189.576
21
-160.69
0
LINE
8
BLACK
6
CONTINUOUS
10
189.576
20
-160.69
11
189.575
21
-160.688
0
LINE
8
BLACK
6
CONTINUOUS
10
189.575
20
-160.688
11
189.574
21
-160.686
0
LINE
8
BLACK
6
CONTINUOUS
10
189.574
20
-160.686
11
189.444
21
-160.446
0
LINE
8
BLACK
6
CONTINUOUS
10
189.444
20
-160.446
11
189.444
21
-160.446
0
LINE
8
BLACK
6
CONTINUOUS
10
189.444
20
-160.446
11
189.443
21
-160.444
0
LINE
8
BLACK
6
CONTINUOUS
10
189.443
20
-160.444
11
189.442
21
-160.442
0
LINE
8
BLACK
6
CONTINUOUS
10
189.442
20
-160.442
11
189.362
21
-160.181
0
LINE
8
BLACK
6
CONTINUOUS
10
189.362
20
-160.181
11
189.362
21
-160.181
0
LINE
8
BLACK
6
CONTINUOUS
10
189.362
20
-160.181
11
189.361
21
-160.179
0
LINE
8
BLACK
6
CONTINUOUS
10
189.361
20
-160.179
11
189.361
21
-160.177
0
LINE
8
BLACK
6
CONTINUOUS
10
189.361
20
-160.177
11
189.332
21
-159.905
0
LINE
8
BLACK
6
CONTINUOUS
10
189.332
20
-159.905
11
189.332
21
-159.905
0
LINE
8
BLACK
6
CONTINUOUS
10
189.332
20
-159.905
11
189.332
21
-159.904
0
LINE
8
BLACK
6
CONTINUOUS
10
189.332
20
-159.904
11
189.332
21
-159.903
0
LINE
8
BLACK
6
CONTINUOUS
10
189.332
20
-159.903
11
189.332
21
-159.894
0
LINE
8
BLACK
6
CONTINUOUS
10
189.332
20
-159.894
11
189.332
21
-159.894
0
LINE
8
BLACK
6
CONTINUOUS
10
189.332
20
-159.894
11
189.332
21
-157.925
0
LINE
8
BLACK
6
CONTINUOUS
10
189.332
20
-157.925
11
189.332
21
-157.925
0
LINE
8
BLACK
6
CONTINUOUS
10
189.332
20
-157.925
11
189.332
21
-157.916
0
LINE
8
BLACK
6
CONTINUOUS
10
189.332
20
-157.916
11
189.304
21
-157.649
0
LINE
8
BLACK
6
CONTINUOUS
10
189.304
20
-157.649
11
189.225
21
-157.393
0
LINE
8
BLACK
6
CONTINUOUS
10
189.225
20
-157.393
11
189.097
21
-157.157
0
LINE
8
BLACK
6
CONTINUOUS
10
189.097
20
-157.157
11
188.927
21
-156.951
0
LINE
8
BLACK
6
CONTINUOUS
10
188.927
20
-156.951
11
188.719
21
-156.782
0
LINE
8
BLACK
6
CONTINUOUS
10
188.719
20
-156.782
11
188.483
21
-156.656
0
LINE
8
BLACK
6
CONTINUOUS
10
188.483
20
-156.656
11
188.226
21
-156.579
0
LINE
8
BLACK
6
CONTINUOUS
10
188.226
20
-156.579
11
187.959
21
-156.552
0
LINE
8
BLACK
6
CONTINUOUS
10
187.959
20
-156.552
11
185.89
21
-156.552
0
LINE
8
BLACK
6
CONTINUOUS
10
185.89
20
-156.552
11
185.89
21
-158.258
0
LINE
8
BLACK
6
CONTINUOUS
10
185.89
20
-158.258
11
185.89
21
-158.259
0
LINE
8
BLACK
6
CONTINUOUS
10
185.89
20
-158.259
11
185.89
21
-158.259
0
LINE
8
BLACK
6
CONTINUOUS
10
185.89
20
-158.259
11
185.809
21
-159.113
0
LINE
8
BLACK
6
CONTINUOUS
10
185.809
20
-159.113
11
185.808
21
-159.116
0
LINE
8
BLACK
6
CONTINUOUS
10
185.808
20
-159.116
11
185.808
21
-159.117
0
LINE
8
BLACK
6
CONTINUOUS
10
185.808
20
-159.117
11
185.808
21
-159.118
0
LINE
8
BLACK
6
CONTINUOUS
10
185.808
20
-159.118
11
185.566
21
-159.941
0
LINE
8
BLACK
6
CONTINUOUS
10
185.566
20
-159.941
11
185.565
21
-159.943
0
LINE
8
BLACK
6
CONTINUOUS
10
185.565
20
-159.943
11
185.565
21
-159.944
0
LINE
8
BLACK
6
CONTINUOUS
10
185.565
20
-159.944
11
185.565
21
-159.945
0
LINE
8
BLACK
6
CONTINUOUS
10
185.565
20
-159.945
11
185.172
21
-160.708
0
LINE
8
BLACK
6
CONTINUOUS
10
185.172
20
-160.708
11
185.171
21
-160.71
0
LINE
8
BLACK
6
CONTINUOUS
10
185.171
20
-160.71
11
185.17
21
-160.711
0
LINE
8
BLACK
6
CONTINUOUS
10
185.17
20
-160.711
11
185.169
21
-160.712
0
LINE
8
BLACK
6
CONTINUOUS
10
185.169
20
-160.712
11
184.639
21
-161.386
0
LINE
8
BLACK
6
CONTINUOUS
10
184.639
20
-161.386
11
184.638
21
-161.388
0
LINE
8
BLACK
6
CONTINUOUS
10
184.638
20
-161.388
11
184.637
21
-161.389
0
LINE
8
BLACK
6
CONTINUOUS
10
184.637
20
-161.389
11
184.636
21
-161.39
0
LINE
8
BLACK
6
CONTINUOUS
10
184.636
20
-161.39
11
183.988
21
-161.952
0
LINE
8
BLACK
6
CONTINUOUS
10
183.988
20
-161.952
11
183.986
21
-161.953
0
LINE
8
BLACK
6
CONTINUOUS
10
183.986
20
-161.953
11
183.985
21
-161.954
0
LINE
8
BLACK
6
CONTINUOUS
10
183.985
20
-161.954
11
183.984
21
-161.955
0
LINE
8
BLACK
6
CONTINUOUS
10
183.984
20
-161.955
11
183.242
21
-162.384
0
LINE
8
BLACK
6
CONTINUOUS
10
183.242
20
-162.384
11
183.24
21
-162.385
0
LINE
8
BLACK
6
CONTINUOUS
10
183.24
20
-162.385
11
183.239
21
-162.386
0
LINE
8
BLACK
6
CONTINUOUS
10
183.239
20
-162.386
11
183.238
21
-162.386
0
LINE
8
BLACK
6
CONTINUOUS
10
183.238
20
-162.386
11
182.428
21
-162.667
0
LINE
8
BLACK
6
CONTINUOUS
10
182.428
20
-162.667
11
182.425
21
-162.668
0
LINE
8
BLACK
6
CONTINUOUS
10
182.425
20
-162.668
11
182.424
21
-162.668
0
LINE
8
BLACK
6
CONTINUOUS
10
182.424
20
-162.668
11
182.423
21
-162.668
0
LINE
8
BLACK
6
CONTINUOUS
10
182.423
20
-162.668
11
181.574
21
-162.792
0
LINE
8
BLACK
6
CONTINUOUS
10
181.574
20
-162.792
11
181.572
21
-162.792
0
LINE
8
BLACK
6
CONTINUOUS
10
181.572
20
-162.792
11
181.571
21
-162.792
0
LINE
8
BLACK
6
CONTINUOUS
10
181.571
20
-162.792
11
181.569
21
-162.792
0
LINE
8
BLACK
6
CONTINUOUS
10
181.569
20
-162.792
11
180.713
21
-162.752
0
LINE
8
BLACK
6
CONTINUOUS
10
180.713
20
-162.752
11
180.71
21
-162.752
0
LINE
8
BLACK
6
CONTINUOUS
10
180.71
20
-162.752
11
180.709
21
-162.752
0
LINE
8
BLACK
6
CONTINUOUS
10
180.709
20
-162.752
11
180.708
21
-162.751
0
LINE
8
BLACK
6
CONTINUOUS
10
180.708
20
-162.751
11
179.874
21
-162.55
0
LINE
8
BLACK
6
CONTINUOUS
10
179.874
20
-162.55
11
179.872
21
-162.55
0
LINE
8
BLACK
6
CONTINUOUS
10
179.872
20
-162.55
11
179.871
21
-162.549
0
LINE
8
BLACK
6
CONTINUOUS
10
179.871
20
-162.549
11
179.87
21
-162.549
0
LINE
8
BLACK
6
CONTINUOUS
10
179.87
20
-162.549
11
179.089
21
-162.194
0
LINE
8
BLACK
6
CONTINUOUS
10
179.089
20
-162.194
11
179.089
21
-162.194
0
LINE
8
BLACK
6
CONTINUOUS
10
179.089
20
-162.194
11
179.089
21
-162.194
0
LINE
8
BLACK
6
CONTINUOUS
10
179.089
20
-162.194
11
179.087
21
-162.193
0
LINE
8
BLACK
6
CONTINUOUS
10
179.087
20
-162.193
11
179.086
21
-162.192
0
LINE
8
BLACK
6
CONTINUOUS
10
179.086
20
-162.192
11
179.085
21
-162.192
0
LINE
8
BLACK
6
CONTINUOUS
10
179.085
20
-162.192
11
178.385
21
-161.695
0
LINE
8
BLACK
6
CONTINUOUS
10
178.385
20
-161.695
11
178.383
21
-161.694
0
LINE
8
BLACK
6
CONTINUOUS
10
178.383
20
-161.694
11
178.383
21
-161.693
0
LINE
8
BLACK
6
CONTINUOUS
10
178.383
20
-161.693
11
178.382
21
-161.692
0
LINE
8
BLACK
6
CONTINUOUS
10
178.382
20
-161.692
11
177.789
21
-161.073
0
LINE
8
BLACK
6
CONTINUOUS
10
177.789
20
-161.073
11
177.787
21
-161.071
0
LINE
8
BLACK
6
CONTINUOUS
10
177.787
20
-161.071
11
177.786
21
-161.07
0
LINE
8
BLACK
6
CONTINUOUS
10
177.786
20
-161.07
11
177.786
21
-161.069
0
LINE
8
BLACK
6
CONTINUOUS
10
177.786
20
-161.069
11
177.32
21
-160.348
0
LINE
8
BLACK
6
CONTINUOUS
10
177.32
20
-160.348
11
177.319
21
-160.346
0
LINE
8
BLACK
6
CONTINUOUS
10
177.319
20
-160.346
11
177.319
21
-160.345
0
LINE
8
BLACK
6
CONTINUOUS
10
177.319
20
-160.345
11
177.318
21
-160.344
0
LINE
8
BLACK
6
CONTINUOUS
10
177.318
20
-160.344
11
176.998
21
-159.549
0
LINE
8
BLACK
6
CONTINUOUS
10
176.998
20
-159.549
11
176.997
21
-159.546
0
LINE
8
BLACK
6
CONTINUOUS
10
176.997
20
-159.546
11
176.997
21
-159.545
0
LINE
8
BLACK
6
CONTINUOUS
10
176.997
20
-159.545
11
176.996
21
-159.544
0
LINE
8
BLACK
6
CONTINUOUS
10
176.996
20
-159.544
11
176.832
21
-158.702
0
LINE
8
BLACK
6
CONTINUOUS
10
176.832
20
-158.702
11
176.831
21
-158.7
0
LINE
8
BLACK
6
CONTINUOUS
10
176.831
20
-158.7
11
176.831
21
-158.699
0
LINE
8
BLACK
6
CONTINUOUS
10
176.831
20
-158.699
11
176.831
21
-158.699
0
LINE
8
BLACK
6
CONTINUOUS
10
176.831
20
-158.699
11
176.81
21
-158.259
0
LINE
8
BLACK
6
CONTINUOUS
10
176.81
20
-158.259
11
176.81
21
-158.258
0
LINE
8
BLACK
6
CONTINUOUS
10
176.81
20
-158.258
11
176.81
21
-156.552
0
LINE
8
BLACK
6
CONTINUOUS
10
176.81
20
-156.552
11
171.451
21
-156.552
0
LINE
8
BLACK
6
CONTINUOUS
10
171.451
20
-156.552
11
153.421
21
-157.251
0
LINE
8
BLACK
6
CONTINUOUS
10
153.421
20
-157.251
11
135.71
21
-164.17
0
LINE
8
BLACK
6
CONTINUOUS
10
135.71
20
-164.17
11
126.175
21
-169.681
0
LINE
8
BLACK
6
CONTINUOUS
10
126.175
20
-169.681
11
121.611
21
-172.664
0
LINE
8
BLACK
6
CONTINUOUS
10
121.611
20
-172.664
11
122.831
21
-174.613
0
LINE
8
BLACK
6
CONTINUOUS
10
122.831
20
-174.613
11
122.832
21
-174.616
0
LINE
8
BLACK
6
CONTINUOUS
10
122.832
20
-174.616
11
122.833
21
-174.616
0
LINE
8
BLACK
6
CONTINUOUS
10
122.833
20
-174.616
11
123.131
21
-175.253
0
LINE
8
BLACK
6
CONTINUOUS
10
123.131
20
-175.253
11
123.131
21
-175.253
0
LINE
8
BLACK
6
CONTINUOUS
10
123.131
20
-175.253
11
123.132
21
-175.255
0
LINE
8
BLACK
6
CONTINUOUS
10
123.132
20
-175.255
11
123.132
21
-175.257
0
LINE
8
BLACK
6
CONTINUOUS
10
123.132
20
-175.257
11
123.302
21
-175.941
0
LINE
8
BLACK
6
CONTINUOUS
10
123.302
20
-175.941
11
123.302
21
-175.942
0
LINE
8
BLACK
6
CONTINUOUS
10
123.302
20
-175.942
11
123.302
21
-175.944
0
LINE
8
BLACK
6
CONTINUOUS
10
123.302
20
-175.944
11
123.302
21
-175.946
0
LINE
8
BLACK
6
CONTINUOUS
10
123.302
20
-175.946
11
123.336
21
-176.65
0
LINE
8
BLACK
6
CONTINUOUS
10
123.336
20
-176.65
11
123.336
21
-176.65
0
LINE
8
BLACK
6
CONTINUOUS
10
123.336
20
-176.65
11
123.335
21
-176.653
0
LINE
8
BLACK
6
CONTINUOUS
10
123.335
20
-176.653
11
123.335
21
-176.655
0
LINE
8
BLACK
6
CONTINUOUS
10
123.335
20
-176.655
11
123.231
21
-177.352
0
LINE
8
BLACK
6
CONTINUOUS
10
123.231
20
-177.352
11
123.231
21
-177.352
0
LINE
8
BLACK
6
CONTINUOUS
10
123.231
20
-177.352
11
123.231
21
-177.355
0
LINE
8
BLACK
6
CONTINUOUS
10
123.231
20
-177.355
11
123.23
21
-177.357
0
LINE
8
BLACK
6
CONTINUOUS
10
123.23
20
-177.357
11
122.993
21
-178.02
0
LINE
8
BLACK
6
CONTINUOUS
10
122.993
20
-178.02
11
122.992
21
-178.02
0
LINE
8
BLACK
6
CONTINUOUS
10
122.992
20
-178.02
11
122.992
21
-178.02
0
LINE
8
BLACK
6
CONTINUOUS
10
122.992
20
-178.02
11
122.992
21
-178.021
0
LINE
8
BLACK
6
CONTINUOUS
10
122.992
20
-178.021
11
122.991
21
-178.023
0
LINE
8
BLACK
6
CONTINUOUS
10
122.991
20
-178.023
11
122.99
21
-178.025
0
LINE
8
BLACK
6
CONTINUOUS
10
122.99
20
-178.025
11
122.629
21
-178.629
0
LINE
8
BLACK
6
CONTINUOUS
10
122.629
20
-178.629
11
122.628
21
-178.63
0
LINE
8
BLACK
6
CONTINUOUS
10
122.628
20
-178.63
11
122.627
21
-178.631
0
LINE
8
BLACK
6
CONTINUOUS
10
122.627
20
-178.631
11
122.626
21
-178.633
0
LINE
8
BLACK
6
CONTINUOUS
10
122.626
20
-178.633
11
122.153
21
-179.156
0
LINE
8
BLACK
6
CONTINUOUS
10
122.153
20
-179.156
11
122.153
21
-179.156
0
LINE
8
BLACK
6
CONTINUOUS
10
122.153
20
-179.156
11
122.151
21
-179.158
0
LINE
8
BLACK
6
CONTINUOUS
10
122.151
20
-179.158
11
122.15
21
-179.159
0
LINE
8
BLACK
6
CONTINUOUS
10
122.15
20
-179.159
11
121.585
21
-179.581
0
LINE
8
BLACK
6
CONTINUOUS
10
121.585
20
-179.581
11
121.585
21
-179.581
0
LINE
8
BLACK
6
CONTINUOUS
10
121.585
20
-179.581
11
121.585
21
-179.581
0
LINE
8
BLACK
6
CONTINUOUS
10
121.585
20
-179.581
11
121.584
21
-179.581
0
LINE
8
BLACK
6
CONTINUOUS
10
121.584
20
-179.581
11
121.582
21
-179.582
0
LINE
8
BLACK
6
CONTINUOUS
10
121.582
20
-179.582
11
121.58
21
-179.583
0
LINE
8
BLACK
6
CONTINUOUS
10
121.58
20
-179.583
11
120.944
21
-179.887
0
LINE
8
BLACK
6
CONTINUOUS
10
120.944
20
-179.887
11
120.944
21
-179.887
0
LINE
8
BLACK
6
CONTINUOUS
10
120.944
20
-179.887
11
120.944
21
-179.887
0
LINE
8
BLACK
6
CONTINUOUS
10
120.944
20
-179.887
11
120.942
21
-179.888
0
LINE
8
BLACK
6
CONTINUOUS
10
120.942
20
-179.888
11
120.94
21
-179.888
0
LINE
8
BLACK
6
CONTINUOUS
10
120.94
20
-179.888
11
120.257
21
-180.062
0
LINE
8
BLACK
6
CONTINUOUS
10
120.257
20
-180.062
11
120.257
21
-180.063
0
LINE
8
BLACK
6
CONTINUOUS
10
120.257
20
-180.063
11
120.254
21
-180.063
0
LINE
8
BLACK
6
CONTINUOUS
10
120.254
20
-180.063
11
120.252
21
-180.063
0
LINE
8
BLACK
6
CONTINUOUS
10
120.252
20
-180.063
11
119.548
21
-180.101
0
LINE
8
BLACK
6
CONTINUOUS
10
119.548
20
-180.101
11
119.548
21
-180.101
0
LINE
8
BLACK
6
CONTINUOUS
10
119.548
20
-180.101
11
119.548
21
-180.101
0
LINE
8
BLACK
6
CONTINUOUS
10
119.548
20
-180.101
11
119.548
21
-180.101
0
LINE
8
BLACK
6
CONTINUOUS
10
119.548
20
-180.101
11
119.546
21
-180.101
0
LINE
8
BLACK
6
CONTINUOUS
10
119.546
20
-180.101
11
119.543
21
-180.101
0
LINE
8
BLACK
6
CONTINUOUS
10
119.543
20
-180.101
11
118.846
21
-180.002
0
LINE
8
BLACK
6
CONTINUOUS
10
118.846
20
-180.002
11
118.845
21
-180.002
0
LINE
8
BLACK
6
CONTINUOUS
10
118.845
20
-180.002
11
118.843
21
-180.001
0
LINE
8
BLACK
6
CONTINUOUS
10
118.843
20
-180.001
11
118.841
21
-180.001
0
LINE
8
BLACK
6
CONTINUOUS
10
118.841
20
-180.001
11
118.176
21
-179.768
0
LINE
8
BLACK
6
CONTINUOUS
10
118.176
20
-179.768
11
118.175
21
-179.768
0
LINE
8
BLACK
6
CONTINUOUS
10
118.175
20
-179.768
11
118.173
21
-179.767
0
LINE
8
BLACK
6
CONTINUOUS
10
118.173
20
-179.767
11
118.171
21
-179.766
0
LINE
8
BLACK
6
CONTINUOUS
10
118.171
20
-179.766
11
117.564
21
-179.408
0
LINE
8
BLACK
6
CONTINUOUS
10
117.564
20
-179.408
11
117.564
21
-179.408
0
LINE
8
BLACK
6
CONTINUOUS
10
117.564
20
-179.408
11
117.562
21
-179.407
0
LINE
8
BLACK
6
CONTINUOUS
10
117.562
20
-179.407
11
117.56
21
-179.405
0
LINE
8
BLACK
6
CONTINUOUS
10
117.56
20
-179.405
11
117.034
21
-178.936
0
LINE
8
BLACK
6
CONTINUOUS
10
117.034
20
-178.936
11
117.034
21
-178.936
0
LINE
8
BLACK
6
CONTINUOUS
10
117.034
20
-178.936
11
117.032
21
-178.935
0
LINE
8
BLACK
6
CONTINUOUS
10
117.032
20
-178.935
11
117.031
21
-178.933
0
LINE
8
BLACK
6
CONTINUOUS
10
117.031
20
-178.933
11
116.637
21
-178.42
0
LINE
8
BLACK
6
CONTINUOUS
10
116.637
20
-178.42
11
116.636
21
-178.42
0
LINE
8
BLACK
6
CONTINUOUS
10
116.636
20
-178.42
11
115.373
21
-176.691
0
LINE
8
BLACK
6
CONTINUOUS
10
115.373
20
-176.691
11
102.146
21
-185.302
0
LINE
8
BLACK
6
CONTINUOUS
10
102.146
20
-185.302
11
102.143
21
-185.304
0
LINE
8
BLACK
6
CONTINUOUS
10
102.143
20
-185.304
11
102.142
21
-185.304
0
LINE
8
BLACK
6
CONTINUOUS
10
102.142
20
-185.304
11
101.977
21
-185.372
0
LINE
8
BLACK
6
CONTINUOUS
10
101.977
20
-185.372
11
101.976
21
-185.372
0
LINE
8
BLACK
6
CONTINUOUS
10
101.976
20
-185.372
11
101.974
21
-185.373
0
LINE
8
BLACK
6
CONTINUOUS
10
101.974
20
-185.373
11
101.972
21
-185.373
0
LINE
8
BLACK
6
CONTINUOUS
10
101.972
20
-185.373
11
101.796
21
-185.408
0
LINE
8
BLACK
6
CONTINUOUS
10
101.796
20
-185.408
11
101.796
21
-185.408
0
LINE
8
BLACK
6
CONTINUOUS
10
101.796
20
-185.408
11
101.793
21
-185.408
0
LINE
8
BLACK
6
CONTINUOUS
10
101.793
20
-185.408
11
101.791
21
-185.409
0
LINE
8
BLACK
6
CONTINUOUS
10
101.791
20
-185.409
11
101.611
21
-185.408
0
LINE
8
BLACK
6
CONTINUOUS
10
101.611
20
-185.408
11
101.611
21
-185.408
0
LINE
8
BLACK
6
CONTINUOUS
10
101.611
20
-185.408
11
101.609
21
-185.408
0
LINE
8
BLACK
6
CONTINUOUS
10
101.609
20
-185.408
11
101.607
21
-185.408
0
LINE
8
BLACK
6
CONTINUOUS
10
101.607
20
-185.408
11
101.43
21
-185.373
0
LINE
8
BLACK
6
CONTINUOUS
10
101.43
20
-185.373
11
101.43
21
-185.373
0
LINE
8
BLACK
6
CONTINUOUS
10
101.43
20
-185.373
11
101.428
21
-185.372
0
LINE
8
BLACK
6
CONTINUOUS
10
101.428
20
-185.372
11
101.426
21
-185.372
0
LINE
8
BLACK
6
CONTINUOUS
10
101.426
20
-185.372
11
101.26
21
-185.303
0
LINE
8
BLACK
6
CONTINUOUS
10
101.26
20
-185.303
11
101.259
21
-185.303
0
LINE
8
BLACK
6
CONTINUOUS
10
101.259
20
-185.303
11
101.257
21
-185.302
0
LINE
8
BLACK
6
CONTINUOUS
10
101.257
20
-185.302
11
101.255
21
-185.301
0
LINE
8
BLACK
6
CONTINUOUS
10
101.255
20
-185.301
11
101.106
21
-185.201
0
LINE
8
BLACK
6
CONTINUOUS
10
101.106
20
-185.201
11
101.106
21
-185.201
0
LINE
8
BLACK
6
CONTINUOUS
10
101.106
20
-185.201
11
101.104
21
-185.2
0
LINE
8
BLACK
6
CONTINUOUS
10
101.104
20
-185.2
11
101.102
21
-185.198
0
LINE
8
BLACK
6
CONTINUOUS
10
101.102
20
-185.198
11
100.975
21
-185.072
0
LINE
8
BLACK
6
CONTINUOUS
10
100.975
20
-185.072
11
100.974
21
-185.071
0
LINE
8
BLACK
6
CONTINUOUS
10
100.974
20
-185.071
11
100.973
21
-185.07
0
LINE
8
BLACK
6
CONTINUOUS
10
100.973
20
-185.07
11
100.972
21
-185.069
0
LINE
8
BLACK
6
CONTINUOUS
10
100.972
20
-185.069
11
100.916
21
-184.993
0
LINE
8
BLACK
6
CONTINUOUS
10
100.916
20
-184.993
11
100.916
21
-184.993
0
LINE
8
BLACK
6
CONTINUOUS
10
100.916
20
-184.993
11
82.8611
21
-157.293
0
LINE
8
BLACK
6
CONTINUOUS
10
82.8611
20
-157.293
11
82.8594
21
-157.29
0
LINE
8
BLACK
6
CONTINUOUS
10
82.8594
20
-157.29
11
82.8591
21
-157.289
0
LINE
8
BLACK
6
CONTINUOUS
10
82.8591
20
-157.289
11
82.7912
21
-157.124
0
LINE
8
BLACK
6
CONTINUOUS
10
82.7912
20
-157.124
11
82.7911
21
-157.124
0
LINE
8
BLACK
6
CONTINUOUS
10
82.7911
20
-157.124
11
82.7905
21
-157.122
0
LINE
8
BLACK
6
CONTINUOUS
10
82.7905
20
-157.122
11
82.7898
21
-157.119
0
LINE
8
BLACK
6
CONTINUOUS
10
82.7898
20
-157.119
11
82.755
21
-156.943
0
LINE
8
BLACK
6
CONTINUOUS
10
82.755
20
-156.943
11
82.7549
21
-156.943
0
LINE
8
BLACK
6
CONTINUOUS
10
82.7549
20
-156.943
11
82.7547
21
-156.941
0
LINE
8
BLACK
6
CONTINUOUS
10
82.7547
20
-156.941
11
82.7545
21
-156.938
0
LINE
8
BLACK
6
CONTINUOUS
10
82.7545
20
-156.938
11
82.7546
21
-156.759
0
LINE
8
BLACK
6
CONTINUOUS
10
82.7546
20
-156.759
11
82.7546
21
-156.758
0
LINE
8
BLACK
6
CONTINUOUS
10
82.7546
20
-156.758
11
82.7548
21
-156.756
0
LINE
8
BLACK
6
CONTINUOUS
10
82.7548
20
-156.756
11
82.7551
21
-156.754
0
LINE
8
BLACK
6
CONTINUOUS
10
82.7551
20
-156.754
11
82.79
21
-156.578
0
LINE
8
BLACK
6
CONTINUOUS
10
82.79
20
-156.578
11
82.7901
21
-156.577
0
LINE
8
BLACK
6
CONTINUOUS
10
82.7901
20
-156.577
11
82.7908
21
-156.575
0
LINE
8
BLACK
6
CONTINUOUS
10
82.7908
20
-156.575
11
82.7914
21
-156.573
0
LINE
8
BLACK
6
CONTINUOUS
10
82.7914
20
-156.573
11
82.8599
21
-156.407
0
LINE
8
BLACK
6
CONTINUOUS
10
82.8599
20
-156.407
11
82.8601
21
-156.407
0
LINE
8
BLACK
6
CONTINUOUS
10
82.8601
20
-156.407
11
82.8612
21
-156.405
0
LINE
8
BLACK
6
CONTINUOUS
10
82.8612
20
-156.405
11
82.8622
21
-156.403
0
LINE
8
BLACK
6
CONTINUOUS
10
82.8622
20
-156.403
11
82.9617
21
-156.253
0
LINE
8
BLACK
6
CONTINUOUS
10
82.9617
20
-156.253
11
82.9619
21
-156.253
0
LINE
8
BLACK
6
CONTINUOUS
10
82.9619
20
-156.253
11
82.9633
21
-156.251
0
LINE
8
BLACK
6
CONTINUOUS
10
82.9633
20
-156.251
11
82.9648
21
-156.249
0
LINE
8
BLACK
6
CONTINUOUS
10
82.9648
20
-156.249
11
83.0914
21
-156.122
0
LINE
8
BLACK
6
CONTINUOUS
10
83.0914
20
-156.122
11
83.0916
21
-156.122
0
LINE
8
BLACK
6
CONTINUOUS
10
83.0916
20
-156.122
11
83.0929
21
-156.121
0
LINE
8
BLACK
6
CONTINUOUS
10
83.0929
20
-156.121
11
83.0942
21
-156.119
0
LINE
8
BLACK
6
CONTINUOUS
10
83.0942
20
-156.119
11
83.1698
21
-156.063
0
LINE
8
BLACK
6
CONTINUOUS
10
83.1698
20
-156.063
11
83.1704
21
-156.063
0
LINE
8
BLACK
6
CONTINUOUS
10
83.1704
20
-156.063
11
111.564
21
-137.646
0
LINE
8
BLACK
6
CONTINUOUS
10
111.564
20
-137.646
11
111.564
21
-137.646
0
LINE
8
BLACK
6
CONTINUOUS
10
111.564
20
-137.646
11
111.643
21
-137.599
0
LINE
8
BLACK
6
CONTINUOUS
10
111.643
20
-137.599
11
111.783
21
-137.483
0
LINE
8
BLACK
6
CONTINUOUS
10
111.783
20
-137.483
11
111.897
21
-137.343
0
LINE
8
BLACK
6
CONTINUOUS
10
111.897
20
-137.343
11
111.982
21
-137.183
0
LINE
8
BLACK
6
CONTINUOUS
10
111.982
20
-137.183
11
112.035
21
-137.009
0
LINE
8
BLACK
6
CONTINUOUS
10
112.035
20
-137.009
11
112.053
21
-136.828
0
LINE
8
BLACK
6
CONTINUOUS
10
112.053
20
-136.828
11
112.052
21
-129.946
0
LINE
8
BLACK
6
CONTINUOUS
10
112.052
20
-129.946
11
109.282
21
-129.946
0
LINE
8
BLACK
6
CONTINUOUS
10
109.282
20
-129.946
11
109.279
21
-129.946
0
LINE
8
BLACK
6
CONTINUOUS
10
109.279
20
-129.946
11
109.278
21
-129.946
0
LINE
8
BLACK
6
CONTINUOUS
10
109.278
20
-129.946
11
108.573
21
-129.855
0
LINE
8
BLACK
6
CONTINUOUS
10
108.573
20
-129.855
11
108.573
21
-129.855
0
LINE
8
BLACK
6
CONTINUOUS
10
108.573
20
-129.855
11
108.573
21
-129.854
0
LINE
8
BLACK
6
CONTINUOUS
10
108.573
20
-129.854
11
108.571
21
-129.854
0
LINE
8
BLACK
6
CONTINUOUS
10
108.571
20
-129.854
11
108.569
21
-129.853
0
LINE
8
BLACK
6
CONTINUOUS
10
108.569
20
-129.853
11
107.893
21
-129.627
0
LINE
8
BLACK
6
CONTINUOUS
10
107.893
20
-129.627
11
107.892
21
-129.626
0
LINE
8
BLACK
6
CONTINUOUS
10
107.892
20
-129.626
11
107.89
21
-129.625
0
LINE
8
BLACK
6
CONTINUOUS
10
107.89
20
-129.625
11
107.888
21
-129.625
0
LINE
8
BLACK
6
CONTINUOUS
10
107.888
20
-129.625
11
107.269
21
-129.271
0
LINE
8
BLACK
6
CONTINUOUS
10
107.269
20
-129.271
11
107.269
21
-129.271
0
LINE
8
BLACK
6
CONTINUOUS
10
107.269
20
-129.271
11
107.269
21
-129.271
0
LINE
8
BLACK
6
CONTINUOUS
10
107.269
20
-129.271
11
107.269
21
-129.271
0
LINE
8
BLACK
6
CONTINUOUS
10
107.269
20
-129.271
11
107.267
21
-129.269
0
LINE
8
BLACK
6
CONTINUOUS
10
107.267
20
-129.269
11
107.265
21
-129.268
0
LINE
8
BLACK
6
CONTINUOUS
10
107.265
20
-129.268
11
106.727
21
-128.801
0
LINE
8
BLACK
6
CONTINUOUS
10
106.727
20
-128.801
11
106.727
21
-128.801
0
LINE
8
BLACK
6
CONTINUOUS
10
106.727
20
-128.801
11
106.727
21
-128.801
0
LINE
8
BLACK
6
CONTINUOUS
10
106.727
20
-128.801
11
106.727
21
-128.8
0
LINE
8
BLACK
6
CONTINUOUS
10
106.727
20
-128.8
11
106.725
21
-128.799
0
LINE
8
BLACK
6
CONTINUOUS
10
106.725
20
-128.799
11
106.724
21
-128.797
0
LINE
8
BLACK
6
CONTINUOUS
10
106.724
20
-128.797
11
106.286
21
-128.234
0
LINE
8
BLACK
6
CONTINUOUS
10
106.286
20
-128.234
11
106.286
21
-128.234
0
LINE
8
BLACK
6
CONTINUOUS
10
106.286
20
-128.234
11
106.286
21
-128.234
0
LINE
8
BLACK
6
CONTINUOUS
10
106.286
20
-128.234
11
106.286
21
-128.234
0
LINE
8
BLACK
6
CONTINUOUS
10
106.286
20
-128.234
11
106.285
21
-128.232
0
LINE
8
BLACK
6
CONTINUOUS
10
106.285
20
-128.232
11
106.284
21
-128.23
0
LINE
8
BLACK
6
CONTINUOUS
10
106.284
20
-128.23
11
105.964
21
-127.593
0
LINE
8
BLACK
6
CONTINUOUS
10
105.964
20
-127.593
11
105.964
21
-127.593
0
LINE
8
BLACK
6
CONTINUOUS
10
105.964
20
-127.593
11
105.964
21
-127.593
0
LINE
8
BLACK
6
CONTINUOUS
10
105.964
20
-127.593
11
105.964
21
-127.593
0
LINE
8
BLACK
6
CONTINUOUS
10
105.964
20
-127.593
11
105.963
21
-127.59
0
LINE
8
BLACK
6
CONTINUOUS
10
105.963
20
-127.59
11
105.962
21
-127.588
0
LINE
8
BLACK
6
CONTINUOUS
10
105.962
20
-127.588
11
105.773
21
-126.901
0
LINE
8
BLACK
6
CONTINUOUS
10
105.773
20
-126.901
11
105.772
21
-126.901
0
LINE
8
BLACK
6
CONTINUOUS
10
105.772
20
-126.901
11
105.772
21
-126.899
0
LINE
8
BLACK
6
CONTINUOUS
10
105.772
20
-126.899
11
105.772
21
-126.896
0
LINE
8
BLACK
6
CONTINUOUS
10
105.772
20
-126.896
11
105.719
21
-126.185
0
LINE
8
BLACK
6
CONTINUOUS
10
105.719
20
-126.185
11
105.719
21
-126.185
0
LINE
8
BLACK
6
CONTINUOUS
10
105.719
20
-126.185
11
105.719
21
-126.185
0
LINE
8
BLACK
6
CONTINUOUS
10
105.719
20
-126.185
11
105.719
21
-126.185
0
LINE
8
BLACK
6
CONTINUOUS
10
105.719
20
-126.185
11
105.719
21
-126.183
0
LINE
8
BLACK
6
CONTINUOUS
10
105.719
20
-126.183
11
105.719
21
-126.181
0
LINE
8
BLACK
6
CONTINUOUS
10
105.719
20
-126.181
11
105.805
21
-125.473
0
LINE
8
BLACK
6
CONTINUOUS
10
105.805
20
-125.473
11
105.805
21
-125.473
0
LINE
8
BLACK
6
CONTINUOUS
10
105.805
20
-125.473
11
105.806
21
-125.47
0
LINE
8
BLACK
6
CONTINUOUS
10
105.806
20
-125.47
11
105.806
21
-125.468
0
LINE
8
BLACK
6
CONTINUOUS
10
105.806
20
-125.468
11
106.029
21
-124.791
0
LINE
8
BLACK
6
CONTINUOUS
10
106.029
20
-124.791
11
106.029
21
-124.79
0
LINE
8
BLACK
6
CONTINUOUS
10
106.029
20
-124.79
11
106.03
21
-124.788
0
LINE
8
BLACK
6
CONTINUOUS
10
106.03
20
-124.788
11
106.031
21
-124.786
0
LINE
8
BLACK
6
CONTINUOUS
10
106.031
20
-124.786
11
106.38
21
-124.165
0
LINE
8
BLACK
6
CONTINUOUS
10
106.38
20
-124.165
11
106.38
21
-124.165
0
LINE
8
BLACK
6
CONTINUOUS
10
106.38
20
-124.165
11
106.382
21
-124.163
0
LINE
8
BLACK
6
CONTINUOUS
10
106.382
20
-124.163
11
106.383
21
-124.161
0
LINE
8
BLACK
6
CONTINUOUS
10
106.383
20
-124.161
11
106.846
21
-123.619
0
LINE
8
BLACK
6
CONTINUOUS
10
106.846
20
-123.619
11
106.847
21
-123.619
0
LINE
8
BLACK
6
CONTINUOUS
10
106.847
20
-123.619
11
106.848
21
-123.618
0
LINE
8
BLACK
6
CONTINUOUS
10
106.848
20
-123.618
11
106.85
21
-123.616
0
LINE
8
BLACK
6
CONTINUOUS
10
106.85
20
-123.616
11
107.41
21
-123.175
0
LINE
8
BLACK
6
CONTINUOUS
10
107.41
20
-123.175
11
107.41
21
-123.175
0
LINE
8
BLACK
6
CONTINUOUS
10
107.41
20
-123.175
11
107.412
21
-123.173
0
LINE
8
BLACK
6
CONTINUOUS
10
107.412
20
-123.173
11
107.414
21
-123.172
0
LINE
8
BLACK
6
CONTINUOUS
10
107.414
20
-123.172
11
108.049
21
-122.848
0
LINE
8
BLACK
6
CONTINUOUS
10
108.049
20
-122.848
11
108.049
21
-122.848
0
LINE
8
BLACK
6
CONTINUOUS
10
108.049
20
-122.848
11
108.051
21
-122.847
0
LINE
8
BLACK
6
CONTINUOUS
10
108.051
20
-122.847
11
108.053
21
-122.846
0
LINE
8
BLACK
6
CONTINUOUS
10
108.053
20
-122.846
11
108.739
21
-122.652
0
LINE
8
BLACK
6
CONTINUOUS
10
108.739
20
-122.652
11
108.739
21
-122.652
0
LINE
8
BLACK
6
CONTINUOUS
10
108.739
20
-122.652
11
108.742
21
-122.651
0
LINE
8
BLACK
6
CONTINUOUS
10
108.742
20
-122.651
11
108.744
21
-122.651
0
LINE
8
BLACK
6
CONTINUOUS
10
108.744
20
-122.651
11
109.405
21
-122.593
0
LINE
8
BLACK
6
CONTINUOUS
10
109.405
20
-122.593
11
109.405
21
-122.593
0
LINE
8
BLACK
6
CONTINUOUS
10
109.405
20
-122.593
11
109.406
21
-122.593
0
LINE
8
BLACK
6
CONTINUOUS
10
109.406
20
-122.593
11
112.053
21
-122.593
0
LINE
8
BLACK
6
CONTINUOUS
10
112.053
20
-122.593
11
112.052
21
-57.5933
0
LINE
8
BLACK
6
CONTINUOUS
10
112.052
20
-57.5933
11
112.052
21
-57.5896
0
LINE
8
BLACK
6
CONTINUOUS
10
112.052
20
-57.5896
11
112.053
21
-57.5885
0
LINE
8
BLACK
6
CONTINUOUS
10
112.053
20
-57.5885
11
112.052
21
-54.7993
0
LINE
8
BLACK
6
CONTINUOUS
10
112.052
20
-54.7993
11
112.053
21
-54.7956
0
LINE
8
BLACK
6
CONTINUOUS
10
112.053
20
-54.7956
11
112.053
21
-54.7952
0
LINE
8
BLACK
6
CONTINUOUS
10
112.053
20
-54.7952
11
112.144
21
-54.0903
0
LINE
8
BLACK
6
CONTINUOUS
10
112.144
20
-54.0903
11
112.144
21
-54.09
0
LINE
8
BLACK
6
CONTINUOUS
10
112.144
20
-54.09
11
112.145
21
-54.0877
0
LINE
8
BLACK
6
CONTINUOUS
10
112.145
20
-54.0877
11
112.145
21
-54.0855
0
LINE
8
BLACK
6
CONTINUOUS
10
112.145
20
-54.0855
11
112.372
21
-53.4097
0
LINE
8
BLACK
6
CONTINUOUS
10
112.372
20
-53.4097
11
112.372
21
-53.4094
0
LINE
8
BLACK
6
CONTINUOUS
10
112.372
20
-53.4094
11
112.373
21
-53.4073
0
LINE
8
BLACK
6
CONTINUOUS
10
112.373
20
-53.4073
11
112.374
21
-53.4053
0
LINE
8
BLACK
6
CONTINUOUS
10
112.374
20
-53.4053
11
112.728
21
-52.7864
0
LINE
8
BLACK
6
CONTINUOUS
10
112.728
20
-52.7864
11
112.728
21
-52.7864
0
LINE
8
BLACK
6
CONTINUOUS
10
112.728
20
-52.7864
11
112.728
21
-52.7864
0
LINE
8
BLACK
6
CONTINUOUS
10
112.728
20
-52.7864
11
112.728
21
-52.7861
0
LINE
8
BLACK
6
CONTINUOUS
10
112.728
20
-52.7861
11
112.729
21
-52.7843
0
LINE
8
BLACK
6
CONTINUOUS
10
112.729
20
-52.7843
11
112.731
21
-52.7824
0
LINE
8
BLACK
6
CONTINUOUS
10
112.731
20
-52.7824
11
113.198
21
-52.2441
0
LINE
8
BLACK
6
CONTINUOUS
10
113.198
20
-52.2441
11
113.198
21
-52.2438
0
LINE
8
BLACK
6
CONTINUOUS
10
113.198
20
-52.2438
11
113.2
21
-52.2422
0
LINE
8
BLACK
6
CONTINUOUS
10
113.2
20
-52.2422
11
113.201
21
-52.2407
0
LINE
8
BLACK
6
CONTINUOUS
10
113.201
20
-52.2407
11
113.764
21
-51.8034
0
LINE
8
BLACK
6
CONTINUOUS
10
113.764
20
-51.8034
11
113.765
21
-51.8032
0
LINE
8
BLACK
6
CONTINUOUS
10
113.765
20
-51.8032
11
113.767
21
-51.802
0
LINE
8
BLACK
6
CONTINUOUS
10
113.767
20
-51.802
11
113.768
21
-51.8008
0
LINE
8
BLACK
6
CONTINUOUS
10
113.768
20
-51.8008
11
114.406
21
-51.4811
0
LINE
8
BLACK
6
CONTINUOUS
10
114.406
20
-51.4811
11
114.406
21
-51.481
0
LINE
8
BLACK
6
CONTINUOUS
10
114.406
20
-51.481
11
114.408
21
-51.4802
0
LINE
8
BLACK
6
CONTINUOUS
10
114.408
20
-51.4802
11
114.41
21
-51.4794
0
LINE
8
BLACK
6
CONTINUOUS
10
114.41
20
-51.4794
11
115.097
21
-51.2896
0
LINE
8
BLACK
6
CONTINUOUS
10
115.097
20
-51.2896
11
115.097
21
-51.2895
0
LINE
8
BLACK
6
CONTINUOUS
10
115.097
20
-51.2895
11
115.097
21
-51.2895
0
LINE
8
BLACK
6
CONTINUOUS
10
115.097
20
-51.2895
11
115.098
21
-51.2895
0
LINE
8
BLACK
6
CONTINUOUS
10
115.098
20
-51.2895
11
115.1
21
-51.2891
0
LINE
8
BLACK
6
CONTINUOUS
10
115.1
20
-51.2891
11
115.102
21
-51.2887
0
LINE
8
BLACK
6
CONTINUOUS
10
115.102
20
-51.2887
11
115.813
21
-51.236
0
LINE
8
BLACK
6
CONTINUOUS
10
115.813
20
-51.236
11
115.813
21
-51.236
0
LINE
8
BLACK
6
CONTINUOUS
10
115.813
20
-51.236
11
115.813
21
-51.236
0
LINE
8
BLACK
6
CONTINUOUS
10
115.813
20
-51.236
11
115.816
21
-51.236
0
LINE
8
BLACK
6
CONTINUOUS
10
115.816
20
-51.236
11
115.818
21
-51.2361
0
LINE
8
BLACK
6
CONTINUOUS
10
115.818
20
-51.2361
11
116.526
21
-51.3224
0
LINE
8
BLACK
6
CONTINUOUS
10
116.526
20
-51.3224
11
116.526
21
-51.3225
0
LINE
8
BLACK
6
CONTINUOUS
10
116.526
20
-51.3225
11
116.528
21
-51.323
0
LINE
8
BLACK
6
CONTINUOUS
10
116.528
20
-51.323
11
116.53
21
-51.3235
0
LINE
8
BLACK
6
CONTINUOUS
10
116.53
20
-51.3235
11
117.208
21
-51.5456
0
LINE
8
BLACK
6
CONTINUOUS
10
117.208
20
-51.5456
11
117.208
21
-51.5458
0
LINE
8
BLACK
6
CONTINUOUS
10
117.208
20
-51.5458
11
117.21
21
-51.5467
0
LINE
8
BLACK
6
CONTINUOUS
10
117.21
20
-51.5467
11
117.212
21
-51.5476
0
LINE
8
BLACK
6
CONTINUOUS
10
117.212
20
-51.5476
11
117.833
21
-51.8971
0
LINE
8
BLACK
6
CONTINUOUS
10
117.833
20
-51.8971
11
117.833
21
-51.8971
0
LINE
8
BLACK
6
CONTINUOUS
10
117.833
20
-51.8971
11
117.833
21
-51.8971
0
LINE
8
BLACK
6
CONTINUOUS
10
117.833
20
-51.8971
11
117.834
21
-51.8973
0
LINE
8
BLACK
6
CONTINUOUS
10
117.834
20
-51.8973
11
117.836
21
-51.8986
0
LINE
8
BLACK
6
CONTINUOUS
10
117.836
20
-51.8986
11
117.837
21
-51.8999
0
LINE
8
BLACK
6
CONTINUOUS
10
117.837
20
-51.8999
11
118.379
21
-52.3634
0
LINE
8
BLACK
6
CONTINUOUS
10
118.379
20
-52.3634
11
118.379
21
-52.3636
0
LINE
8
BLACK
6
CONTINUOUS
10
118.379
20
-52.3636
11
118.381
21
-52.3653
0
LINE
8
BLACK
6
CONTINUOUS
10
118.381
20
-52.3653
11
118.382
21
-52.3669
0
LINE
8
BLACK
6
CONTINUOUS
10
118.382
20
-52.3669
11
118.824
21
-52.9268
0
LINE
8
BLACK
6
CONTINUOUS
10
118.824
20
-52.9268
11
118.824
21
-52.9271
0
LINE
8
BLACK
6
CONTINUOUS
10
118.824
20
-52.9271
11
118.825
21
-52.929
0
LINE
8
BLACK
6
CONTINUOUS
10
118.825
20
-52.929
11
118.826
21
-52.9309
0
LINE
8
BLACK
6
CONTINUOUS
10
118.826
20
-52.9309
11
119.15
21
-53.5658
0
LINE
8
BLACK
6
CONTINUOUS
10
119.15
20
-53.5658
11
119.151
21
-53.5661
0
LINE
8
BLACK
6
CONTINUOUS
10
119.151
20
-53.5661
11
119.151
21
-53.5683
0
LINE
8
BLACK
6
CONTINUOUS
10
119.151
20
-53.5683
11
119.152
21
-53.5704
0
LINE
8
BLACK
6
CONTINUOUS
10
119.152
20
-53.5704
11
119.347
21
-54.2562
0
LINE
8
BLACK
6
CONTINUOUS
10
119.347
20
-54.2562
11
119.347
21
-54.2565
0
LINE
8
BLACK
6
CONTINUOUS
10
119.347
20
-54.2565
11
119.347
21
-54.2587
0
LINE
8
BLACK
6
CONTINUOUS
10
119.347
20
-54.2587
11
119.348
21
-54.2608
0
LINE
8
BLACK
6
CONTINUOUS
10
119.348
20
-54.2608
11
119.406
21
-54.9224
0
LINE
8
BLACK
6
CONTINUOUS
10
119.406
20
-54.9224
11
119.406
21
-54.9225
0
LINE
8
BLACK
6
CONTINUOUS
10
119.406
20
-54.9225
11
119.406
21
-54.9234
0
LINE
8
BLACK
6
CONTINUOUS
10
119.406
20
-54.9234
11
119.405
21
-57.5695
0
LINE
8
BLACK
6
CONTINUOUS
10
119.405
20
-57.5695
11
130.81
21
-57.5695
0
LINE
8
BLACK
6
CONTINUOUS
10
130.81
20
-57.5695
11
130.818
21
-57.5695
0
LINE
8
BLACK
6
CONTINUOUS
10
130.818
20
-57.5695
11
131.086
21
-57.5414
0
LINE
8
BLACK
6
CONTINUOUS
10
131.086
20
-57.5414
11
131.342
21
-57.4622
0
LINE
8
BLACK
6
CONTINUOUS
10
131.342
20
-57.4622
11
131.577
21
-57.3348
0
LINE
8
BLACK
6
CONTINUOUS
10
131.577
20
-57.3348
11
131.783
21
-57.1642
0
LINE
8
BLACK
6
CONTINUOUS
10
131.783
20
-57.1642
11
131.953
21
-56.9567
0
LINE
8
BLACK
6
CONTINUOUS
10
131.953
20
-56.9567
11
132.078
21
-56.7203
0
LINE
8
BLACK
6
CONTINUOUS
10
132.078
20
-56.7203
11
132.156
21
-56.464
0
LINE
8
BLACK
6
CONTINUOUS
10
132.156
20
-56.464
11
132.182
21
-56.1963
0
LINE
8
BLACK
6
CONTINUOUS
10
132.182
20
-56.1963
11
132.182
21
-55.6883
0
LINE
8
BLACK
6
CONTINUOUS
10
132.182
20
-55.6883
11
132.182
21
-55.6871
0
LINE
8
BLACK
6
CONTINUOUS
10
132.182
20
-55.6871
11
132.182
21
-55.6871
0
LINE
8
BLACK
6
CONTINUOUS
10
132.182
20
-55.6871
11
132.193
21
-55.5761
0
LINE
8
BLACK
6
CONTINUOUS
10
132.193
20
-55.5761
11
132.193
21
-55.5757
0
LINE
8
BLACK
6
CONTINUOUS
10
132.193
20
-55.5757
11
132.194
21
-55.5735
0
LINE
8
BLACK
6
CONTINUOUS
10
132.194
20
-55.5735
11
132.194
21
-55.5713
0
LINE
8
BLACK
6
CONTINUOUS
10
132.194
20
-55.5713
11
132.226
21
-55.4645
0
LINE
8
BLACK
6
CONTINUOUS
10
132.226
20
-55.4645
11
132.226
21
-55.4642
0
LINE
8
BLACK
6
CONTINUOUS
10
132.226
20
-55.4642
11
132.227
21
-55.462
0
LINE
8
BLACK
6
CONTINUOUS
10
132.227
20
-55.462
11
132.228
21
-55.46
0
LINE
8
BLACK
6
CONTINUOUS
10
132.228
20
-55.46
11
132.28
21
-55.3615
0
LINE
8
BLACK
6
CONTINUOUS
10
132.28
20
-55.3615
11
132.281
21
-55.3612
0
LINE
8
BLACK
6
CONTINUOUS
10
132.281
20
-55.3612
11
132.282
21
-55.3593
0
LINE
8
BLACK
6
CONTINUOUS
10
132.282
20
-55.3593
11
132.283
21
-55.3574
0
LINE
8
BLACK
6
CONTINUOUS
10
132.283
20
-55.3574
11
132.354
21
-55.271
0
LINE
8
BLACK
6
CONTINUOUS
10
132.354
20
-55.271
11
132.354
21
-55.271
0
LINE
8
BLACK
6
CONTINUOUS
10
132.354
20
-55.271
11
132.354
21
-55.271
0
LINE
8
BLACK
6
CONTINUOUS
10
132.354
20
-55.271
11
132.354
21
-55.2707
0
LINE
8
BLACK
6
CONTINUOUS
10
132.354
20
-55.2707
11
132.355
21
-55.2692
0
LINE
8
BLACK
6
CONTINUOUS
10
132.355
20
-55.2692
11
132.357
21
-55.2675
0
LINE
8
BLACK
6
CONTINUOUS
10
132.357
20
-55.2675
11
132.443
21
-55.1964
0
LINE
8
BLACK
6
CONTINUOUS
10
132.443
20
-55.1964
11
132.443
21
-55.1964
0
LINE
8
BLACK
6
CONTINUOUS
10
132.443
20
-55.1964
11
132.443
21
-55.1964
0
LINE
8
BLACK
6
CONTINUOUS
10
132.443
20
-55.1964
11
132.443
21
-55.1962
0
LINE
8
BLACK
6
CONTINUOUS
10
132.443
20
-55.1962
11
132.445
21
-55.195
0
LINE
8
BLACK
6
CONTINUOUS
10
132.445
20
-55.195
11
132.447
21
-55.1937
0
LINE
8
BLACK
6
CONTINUOUS
10
132.447
20
-55.1937
11
132.545
21
-55.1407
0
LINE
8
BLACK
6
CONTINUOUS
10
132.545
20
-55.1407
11
132.545
21
-55.1407
0
LINE
8
BLACK
6
CONTINUOUS
10
132.545
20
-55.1407
11
132.545
21
-55.1407
0
LINE
8
BLACK
6
CONTINUOUS
10
132.545
20
-55.1407
11
132.545
21
-55.1405
0
LINE
8
BLACK
6
CONTINUOUS
10
132.545
20
-55.1405
11
132.548
21
-55.1396
0
LINE
8
BLACK
6
CONTINUOUS
10
132.548
20
-55.1396
11
132.55
21
-55.1388
0
LINE
8
BLACK
6
CONTINUOUS
10
132.55
20
-55.1388
11
132.656
21
-55.1058
0
LINE
8
BLACK
6
CONTINUOUS
10
132.656
20
-55.1058
11
132.657
21
-55.1057
0
LINE
8
BLACK
6
CONTINUOUS
10
132.657
20
-55.1057
11
132.659
21
-55.1053
0
LINE
8
BLACK
6
CONTINUOUS
10
132.659
20
-55.1053
11
132.661
21
-55.1048
0
LINE
8
BLACK
6
CONTINUOUS
10
132.661
20
-55.1048
11
132.772
21
-55.0932
0
LINE
8
BLACK
6
CONTINUOUS
10
132.772
20
-55.0932
11
132.772
21
-55.0931
0
LINE
8
BLACK
6
CONTINUOUS
10
132.772
20
-55.0931
11
132.773
21
-55.0931
0
LINE
8
BLACK
6
CONTINUOUS
10
132.773
20
-55.0931
11
132.774
21
-55.093
0
LINE
8
BLACK
6
CONTINUOUS
10
132.774
20
-55.093
11
132.777
21
-55.093
0
LINE
8
BLACK
6
CONTINUOUS
10
132.777
20
-55.093
11
132.777
21
-55.093
0
LINE
8
BLACK
6
CONTINUOUS
10
132.777
20
-55.093
11
149.86
21
-55.093
0
LINE
8
BLACK
6
CONTINUOUS
10
149.86
20
-55.093
11
149.868
21
-55.093
0
LINE
8
BLACK
6
CONTINUOUS
10
149.868
20
-55.093
11
150.136
21
-55.0649
0
LINE
8
BLACK
6
CONTINUOUS
10
150.136
20
-55.0649
11
150.392
21
-54.9857
0
LINE
8
BLACK
6
CONTINUOUS
10
150.392
20
-54.9857
11
150.627
21
-54.8583
0
LINE
8
BLACK
6
CONTINUOUS
10
150.627
20
-54.8583
11
150.833
21
-54.6877
0
LINE
8
BLACK
6
CONTINUOUS
10
150.833
20
-54.6877
11
151.003
21
-54.4802
0
LINE
8
BLACK
6
CONTINUOUS
10
151.003
20
-54.4802
11
151.128
21
-54.2438
0
LINE
8
BLACK
6
CONTINUOUS
10
151.128
20
-54.2438
11
151.206
21
-53.9875
0
LINE
8
BLACK
6
CONTINUOUS
10
151.206
20
-53.9875
11
151.232
21
-53.7198
0
LINE
8
BLACK
6
CONTINUOUS
10
151.232
20
-53.7198
11
151.232
21
-53.4023
0
LINE
8
BLACK
6
CONTINUOUS
10
151.232
20
-53.4023
11
151.232
21
-53.4011
0
LINE
8
BLACK
6
CONTINUOUS
10
151.232
20
-53.4011
11
151.232
21
-53.4011
0
LINE
8
BLACK
6
CONTINUOUS
10
151.232
20
-53.4011
11
151.243
21
-53.2901
0
LINE
8
BLACK
6
CONTINUOUS
10
151.243
20
-53.2901
11
151.243
21
-53.2897
0
LINE
8
BLACK
6
CONTINUOUS
10
151.243
20
-53.2897
11
151.244
21
-53.2875
0
LINE
8
BLACK
6
CONTINUOUS
10
151.244
20
-53.2875
11
151.244
21
-53.2853
0
LINE
8
BLACK
6
CONTINUOUS
10
151.244
20
-53.2853
11
151.276
21
-53.1785
0
LINE
8
BLACK
6
CONTINUOUS
10
151.276
20
-53.1785
11
151.276
21
-53.1782
0
LINE
8
BLACK
6
CONTINUOUS
10
151.276
20
-53.1782
11
151.277
21
-53.176
0
LINE
8
BLACK
6
CONTINUOUS
10
151.277
20
-53.176
11
151.278
21
-53.174
0
LINE
8
BLACK
6
CONTINUOUS
10
151.278
20
-53.174
11
151.33
21
-53.0755
0
LINE
8
BLACK
6
CONTINUOUS
10
151.33
20
-53.0755
11
151.331
21
-53.0752
0
LINE
8
BLACK
6
CONTINUOUS
10
151.331
20
-53.0752
11
151.332
21
-53.0733
0
LINE
8
BLACK
6
CONTINUOUS
10
151.332
20
-53.0733
11
151.333
21
-53.0714
0
LINE
8
BLACK
6
CONTINUOUS
10
151.333
20
-53.0714
11
151.404
21
-52.985
0
LINE
8
BLACK
6
CONTINUOUS
10
151.404
20
-52.985
11
151.404
21
-52.985
0
LINE
8
BLACK
6
CONTINUOUS
10
151.404
20
-52.985
11
151.404
21
-52.985
0
LINE
8
BLACK
6
CONTINUOUS
10
151.404
20
-52.985
11
151.404
21
-52.9847
0
LINE
8
BLACK
6
CONTINUOUS
10
151.404
20
-52.9847
11
151.405
21
-52.9832
0
LINE
8
BLACK
6
CONTINUOUS
10
151.405
20
-52.9832
11
151.407
21
-52.9815
0
LINE
8
BLACK
6
CONTINUOUS
10
151.407
20
-52.9815
11
151.493
21
-52.9104
0
LINE
8
BLACK
6
CONTINUOUS
10
151.493
20
-52.9104
11
151.493
21
-52.9104
0
LINE
8
BLACK
6
CONTINUOUS
10
151.493
20
-52.9104
11
151.493
21
-52.9104
0
LINE
8
BLACK
6
CONTINUOUS
10
151.493
20
-52.9104
11
151.493
21
-52.9102
0
LINE
8
BLACK
6
CONTINUOUS
10
151.493
20
-52.9102
11
151.495
21
-52.909
0
LINE
8
BLACK
6
CONTINUOUS
10
151.495
20
-52.909
11
151.497
21
-52.9077
0
LINE
8
BLACK
6
CONTINUOUS
10
151.497
20
-52.9077
11
151.595
21
-52.8547
0
LINE
8
BLACK
6
CONTINUOUS
10
151.595
20
-52.8547
11
151.595
21
-52.8547
0
LINE
8
BLACK
6
CONTINUOUS
10
151.595
20
-52.8547
11
151.595
21
-52.8547
0
LINE
8
BLACK
6
CONTINUOUS
10
151.595
20
-52.8547
11
151.595
21
-52.8545
0
LINE
8
BLACK
6
CONTINUOUS
10
151.595
20
-52.8545
11
151.598
21
-52.8536
0
LINE
8
BLACK
6
CONTINUOUS
10
151.598
20
-52.8536
11
151.6
21
-52.8528
0
LINE
8
BLACK
6
CONTINUOUS
10
151.6
20
-52.8528
11
151.706
21
-52.8198
0
LINE
8
BLACK
6
CONTINUOUS
10
151.706
20
-52.8198
11
151.707
21
-52.8197
0
LINE
8
BLACK
6
CONTINUOUS
10
151.707
20
-52.8197
11
151.709
21
-52.8193
0
LINE
8
BLACK
6
CONTINUOUS
10
151.709
20
-52.8193
11
151.711
21
-52.8188
0
LINE
8
BLACK
6
CONTINUOUS
10
151.711
20
-52.8188
11
151.822
21
-52.8072
0
LINE
8
BLACK
6
CONTINUOUS
10
151.822
20
-52.8072
11
151.822
21
-52.8071
0
LINE
8
BLACK
6
CONTINUOUS
10
151.822
20
-52.8071
11
151.823
21
-52.8071
0
LINE
8
BLACK
6
CONTINUOUS
10
151.823
20
-52.8071
11
151.824
21
-52.807
0
LINE
8
BLACK
6
CONTINUOUS
10
151.824
20
-52.807
11
151.827
21
-52.807
0
LINE
8
BLACK
6
CONTINUOUS
10
151.827
20
-52.807
11
151.827
21
-52.807
0
LINE
8
BLACK
6
CONTINUOUS
10
151.827
20
-52.807
11
173.674
21
-52.807
0
LINE
8
BLACK
6
CONTINUOUS
10
173.674
20
-52.807
11
173.675
21
-52.8071
0
LINE
8
BLACK
6
CONTINUOUS
10
173.675
20
-52.8071
11
173.675
21
-52.8071
0
LINE
8
BLACK
6
CONTINUOUS
10
173.675
20
-52.8071
11
173.786
21
-52.818
0
LINE
8
BLACK
6
CONTINUOUS
10
173.786
20
-52.818
11
173.786
21
-52.818
0
LINE
8
BLACK
6
CONTINUOUS
10
173.786
20
-52.818
11
173.789
21
-52.8185
0
LINE
8
BLACK
6
CONTINUOUS
10
173.789
20
-52.8185
11
173.791
21
-52.819
0
LINE
8
BLACK
6
CONTINUOUS
10
173.791
20
-52.819
11
173.898
21
-52.8512
0
LINE
8
BLACK
6
CONTINUOUS
10
173.898
20
-52.8512
11
173.898
21
-52.8513
0
LINE
8
BLACK
6
CONTINUOUS
10
173.898
20
-52.8513
11
173.9
21
-52.8522
0
LINE
8
BLACK
6
CONTINUOUS
10
173.9
20
-52.8522
11
173.902
21
-52.853
0
LINE
8
BLACK
6
CONTINUOUS
10
173.902
20
-52.853
11
174
21
-52.9054
0
LINE
8
BLACK
6
CONTINUOUS
10
174
20
-52.9054
11
174.001
21
-52.9056
0
LINE
8
BLACK
6
CONTINUOUS
10
174.001
20
-52.9056
11
174.003
21
-52.9069
0
LINE
8
BLACK
6
CONTINUOUS
10
174.003
20
-52.9069
11
174.005
21
-52.9081
0
LINE
8
BLACK
6
CONTINUOUS
10
174.005
20
-52.9081
11
174.091
21
-52.9786
0
LINE
8
BLACK
6
CONTINUOUS
10
174.091
20
-52.9786
11
174.091
21
-52.9786
0
LINE
8
BLACK
6
CONTINUOUS
10
174.091
20
-52.9786
11
174.091
21
-52.9786
0
LINE
8
BLACK
6
CONTINUOUS
10
174.091
20
-52.9786
11
174.091
21
-52.9788
0
LINE
8
BLACK
6
CONTINUOUS
10
174.091
20
-52.9788
11
174.093
21
-52.9804
0
LINE
8
BLACK
6
CONTINUOUS
10
174.093
20
-52.9804
11
174.094
21
-52.982
0
LINE
8
BLACK
6
CONTINUOUS
10
174.094
20
-52.982
11
174.166
21
-53.068
0
LINE
8
BLACK
6
CONTINUOUS
10
174.166
20
-53.068
11
174.166
21
-53.068
0
LINE
8
BLACK
6
CONTINUOUS
10
174.166
20
-53.068
11
174.166
21
-53.068
0
LINE
8
BLACK
6
CONTINUOUS
10
174.166
20
-53.068
11
174.166
21
-53.0683
0
LINE
8
BLACK
6
CONTINUOUS
10
174.166
20
-53.0683
11
174.167
21
-53.0702
0
LINE
8
BLACK
6
CONTINUOUS
10
174.167
20
-53.0702
11
174.168
21
-53.072
0
LINE
8
BLACK
6
CONTINUOUS
10
174.168
20
-53.072
11
174.221
21
-53.1701
0
LINE
8
BLACK
6
CONTINUOUS
10
174.221
20
-53.1701
11
174.221
21
-53.1701
0
LINE
8
BLACK
6
CONTINUOUS
10
174.221
20
-53.1701
11
174.221
21
-53.1701
0
LINE
8
BLACK
6
CONTINUOUS
10
174.221
20
-53.1701
11
174.222
21
-53.1705
0
LINE
8
BLACK
6
CONTINUOUS
10
174.222
20
-53.1705
11
174.222
21
-53.1726
0
LINE
8
BLACK
6
CONTINUOUS
10
174.222
20
-53.1726
11
174.223
21
-53.1746
0
LINE
8
BLACK
6
CONTINUOUS
10
174.223
20
-53.1746
11
174.256
21
-53.2812
0
LINE
8
BLACK
6
CONTINUOUS
10
174.256
20
-53.2812
11
174.256
21
-53.2815
0
LINE
8
BLACK
6
CONTINUOUS
10
174.256
20
-53.2815
11
174.257
21
-53.2838
0
LINE
8
BLACK
6
CONTINUOUS
10
174.257
20
-53.2838
11
174.257
21
-53.286
0
LINE
8
BLACK
6
CONTINUOUS
10
174.257
20
-53.286
11
174.269
21
-53.3969
0
LINE
8
BLACK
6
CONTINUOUS
10
174.269
20
-53.3969
11
174.269
21
-53.3972
0
LINE
8
BLACK
6
CONTINUOUS
10
174.269
20
-53.3972
11
174.269
21
-53.3983
0
LINE
8
BLACK
6
CONTINUOUS
10
174.269
20
-53.3983
11
174.269
21
-53.3994
0
LINE
8
BLACK
6
CONTINUOUS
10
174.269
20
-53.3994
11
174.269
21
-53.4022
0
LINE
8
BLACK
6
CONTINUOUS
10
174.269
20
-53.4022
11
174.269
21
-53.4023
0
LINE
8
BLACK
6
CONTINUOUS
10
174.269
20
-53.4023
11
174.269
21
-53.7844
0
LINE
8
BLACK
6
CONTINUOUS
10
174.269
20
-53.7844
11
174.269
21
-53.7929
0
LINE
8
BLACK
6
CONTINUOUS
10
174.269
20
-53.7929
11
174.297
21
-54.0604
0
LINE
8
BLACK
6
CONTINUOUS
10
174.297
20
-54.0604
11
174.376
21
-54.3161
0
LINE
8
BLACK
6
CONTINUOUS
10
174.376
20
-54.3161
11
174.504
21
-54.5516
0
LINE
8
BLACK
6
CONTINUOUS
10
174.504
20
-54.5516
11
174.674
21
-54.7579
0
LINE
8
BLACK
6
CONTINUOUS
10
174.674
20
-54.7579
11
174.882
21
-54.9272
0
LINE
8
BLACK
6
CONTINUOUS
10
174.882
20
-54.9272
11
175.118
21
-55.0529
0
LINE
8
BLACK
6
CONTINUOUS
10
175.118
20
-55.0529
11
175.375
21
-55.1303
0
LINE
8
BLACK
6
CONTINUOUS
10
175.375
20
-55.1303
11
175.642
21
-55.1565
0
LINE
8
BLACK
6
CONTINUOUS
10
175.642
20
-55.1565
11
191.898
21
-55.1565
0
LINE
8
BLACK
6
CONTINUOUS
10
191.898
20
-55.1565
11
191.899
21
-55.1566
0
LINE
8
BLACK
6
CONTINUOUS
10
191.899
20
-55.1566
11
191.899
21
-55.1566
0
LINE
8
BLACK
6
CONTINUOUS
10
191.899
20
-55.1566
11
192.171
21
-55.1832
0
LINE
8
BLACK
6
CONTINUOUS
10
192.171
20
-55.1832
11
192.171
21
-55.1833
0
LINE
8
BLACK
6
CONTINUOUS
10
192.171
20
-55.1833
11
192.173
21
-55.1837
0
LINE
8
BLACK
6
CONTINUOUS
10
192.173
20
-55.1837
11
192.176
21
-55.1842
0
LINE
8
BLACK
6
CONTINUOUS
10
192.176
20
-55.1842
11
192.437
21
-55.263
0
LINE
8
BLACK
6
CONTINUOUS
10
192.437
20
-55.263
11
192.437
21
-55.2631
0
LINE
8
BLACK
6
CONTINUOUS
10
192.437
20
-55.2631
11
192.439
21
-55.264
0
LINE
8
BLACK
6
CONTINUOUS
10
192.439
20
-55.264
11
192.441
21
-55.2648
0
LINE
8
BLACK
6
CONTINUOUS
10
192.441
20
-55.2648
11
192.682
21
-55.3928
0
LINE
8
BLACK
6
CONTINUOUS
10
192.682
20
-55.3928
11
192.682
21
-55.393
0
LINE
8
BLACK
6
CONTINUOUS
10
192.682
20
-55.393
11
192.684
21
-55.3943
0
LINE
8
BLACK
6
CONTINUOUS
10
192.684
20
-55.3943
11
192.686
21
-55.3955
0
LINE
8
BLACK
6
CONTINUOUS
10
192.686
20
-55.3955
11
192.897
21
-55.5679
0
LINE
8
BLACK
6
CONTINUOUS
10
192.897
20
-55.5679
11
192.897
21
-55.5679
0
LINE
8
BLACK
6
CONTINUOUS
10
192.897
20
-55.5679
11
192.897
21
-55.5679
0
LINE
8
BLACK
6
CONTINUOUS
10
192.897
20
-55.5679
11
192.897
21
-55.5681
0
LINE
8
BLACK
6
CONTINUOUS
10
192.897
20
-55.5681
11
192.899
21
-55.5697
0
LINE
8
BLACK
6
CONTINUOUS
10
192.899
20
-55.5697
11
192.901
21
-55.5713
0
LINE
8
BLACK
6
CONTINUOUS
10
192.901
20
-55.5713
11
193.074
21
-55.7814
0
LINE
8
BLACK
6
CONTINUOUS
10
193.074
20
-55.7814
11
193.075
21
-55.7816
0
LINE
8
BLACK
6
CONTINUOUS
10
193.075
20
-55.7816
11
193.076
21
-55.7836
0
LINE
8
BLACK
6
CONTINUOUS
10
193.076
20
-55.7836
11
193.077
21
-55.7854
0
LINE
8
BLACK
6
CONTINUOUS
10
193.077
20
-55.7854
11
193.207
21
-56.0252
0
LINE
8
BLACK
6
CONTINUOUS
10
193.207
20
-56.0252
11
193.207
21
-56.0252
0
LINE
8
BLACK
6
CONTINUOUS
10
193.207
20
-56.0252
11
193.207
21
-56.0253
0
LINE
8
BLACK
6
CONTINUOUS
10
193.207
20
-56.0253
11
193.207
21
-56.0256
0
LINE
8
BLACK
6
CONTINUOUS
10
193.207
20
-56.0256
11
193.208
21
-56.0277
0
LINE
8
BLACK
6
CONTINUOUS
10
193.208
20
-56.0277
11
193.209
21
-56.0297
0
LINE
8
BLACK
6
CONTINUOUS
10
193.209
20
-56.0297
11
193.289
21
-56.2902
0
LINE
8
BLACK
6
CONTINUOUS
10
193.289
20
-56.2902
11
193.289
21
-56.2905
0
LINE
8
BLACK
6
CONTINUOUS
10
193.289
20
-56.2905
11
193.29
21
-56.2928
0
LINE
8
BLACK
6
CONTINUOUS
10
193.29
20
-56.2928
11
193.29
21
-56.295
0
LINE
8
BLACK
6
CONTINUOUS
10
193.29
20
-56.295
11
193.319
21
-56.5661
0
LINE
8
BLACK
6
CONTINUOUS
10
193.319
20
-56.5661
11
193.319
21
-56.5665
0
LINE
8
BLACK
6
CONTINUOUS
10
193.319
20
-56.5665
11
193.319
21
-56.5676
0
LINE
8
BLACK
6
CONTINUOUS
10
193.319
20
-56.5676
11
193.319
21
-56.5687
0
LINE
8
BLACK
6
CONTINUOUS
10
193.319
20
-56.5687
11
193.319
21
-56.5772
0
LINE
8
BLACK
6
CONTINUOUS
10
193.319
20
-56.5772
11
193.319
21
-56.5773
0
LINE
8
BLACK
6
CONTINUOUS
10
193.319
20
-56.5773
11
193.319
21
-58.5469
0
LINE
8
BLACK
6
CONTINUOUS
10
193.319
20
-58.5469
11
193.319
21
-58.5554
0
LINE
8
BLACK
6
CONTINUOUS
10
193.319
20
-58.5554
11
193.347
21
-58.8229
0
LINE
8
BLACK
6
CONTINUOUS
10
193.347
20
-58.8229
11
193.426
21
-59.0786
0
LINE
8
BLACK
6
CONTINUOUS
10
193.426
20
-59.0786
11
193.554
21
-59.3141
0
LINE
8
BLACK
6
CONTINUOUS
10
193.554
20
-59.3141
11
193.724
21
-59.5204
0
LINE
8
BLACK
6
CONTINUOUS
10
193.724
20
-59.5204
11
193.932
21
-59.6897
0
LINE
8
BLACK
6
CONTINUOUS
10
193.932
20
-59.6897
11
194.168
21
-59.8154
0
LINE
8
BLACK
6
CONTINUOUS
10
194.168
20
-59.8154
11
194.425
21
-59.8928
0
LINE
8
BLACK
6
CONTINUOUS
10
194.425
20
-59.8928
11
194.692
21
-59.919
0
LINE
8
BLACK
6
CONTINUOUS
10
194.692
20
-59.919
11
221.146
21
-59.919
0
LINE
8
BLACK
6
CONTINUOUS
10
221.146
20
-59.919
11
221.145
21
-57.1488
0
LINE
8
BLACK
6
CONTINUOUS
10
221.145
20
-57.1488
11
221.146
21
-57.1451
0
LINE
8
BLACK
6
CONTINUOUS
10
221.146
20
-57.1451
11
221.146
21
-57.1447
0
LINE
8
BLACK
6
CONTINUOUS
10
221.146
20
-57.1447
11
221.237
21
-56.4398
0
LINE
8
BLACK
6
CONTINUOUS
10
221.237
20
-56.4398
11
221.237
21
-56.4395
0
LINE
8
BLACK
6
CONTINUOUS
10
221.237
20
-56.4395
11
221.238
21
-56.4372
0
LINE
8
BLACK
6
CONTINUOUS
10
221.238
20
-56.4372
11
221.238
21
-56.435
0
LINE
8
BLACK
6
CONTINUOUS
10
221.238
20
-56.435
11
221.465
21
-55.7592
0
LINE
8
BLACK
6
CONTINUOUS
10
221.465
20
-55.7592
11
221.465
21
-55.7589
0
LINE
8
BLACK
6
CONTINUOUS
10
221.465
20
-55.7589
11
221.466
21
-55.7568
0
LINE
8
BLACK
6
CONTINUOUS
10
221.466
20
-55.7568
11
221.467
21
-55.7548
0
LINE
8
BLACK
6
CONTINUOUS
10
221.467
20
-55.7548
11
221.821
21
-55.1359
0
LINE
8
BLACK
6
CONTINUOUS
10
221.821
20
-55.1359
11
221.821
21
-55.1359
0
LINE
8
BLACK
6
CONTINUOUS
10
221.821
20
-55.1359
11
221.821
21
-55.1359
0
LINE
8
BLACK
6
CONTINUOUS
10
221.821
20
-55.1359
11
221.821
21
-55.1356
0
LINE
8
BLACK
6
CONTINUOUS
10
221.821
20
-55.1356
11
221.822
21
-55.1338
0
LINE
8
BLACK
6
CONTINUOUS
10
221.822
20
-55.1338
11
221.824
21
-55.1319
0
LINE
8
BLACK
6
CONTINUOUS
10
221.824
20
-55.1319
11
222.291
21
-54.5936
0
LINE
8
BLACK
6
CONTINUOUS
10
222.291
20
-54.5936
11
222.291
21
-54.5933
0
LINE
8
BLACK
6
CONTINUOUS
10
222.291
20
-54.5933
11
222.293
21
-54.5917
0
LINE
8
BLACK
6
CONTINUOUS
10
222.293
20
-54.5917
11
222.294
21
-54.5902
0
LINE
8
BLACK
6
CONTINUOUS
10
222.294
20
-54.5902
11
222.857
21
-54.1529
0
LINE
8
BLACK
6
CONTINUOUS
10
222.857
20
-54.1529
11
222.858
21
-54.1527
0
LINE
8
BLACK
6
CONTINUOUS
10
222.858
20
-54.1527
11
222.86
21
-54.1515
0
LINE
8
BLACK
6
CONTINUOUS
10
222.86
20
-54.1515
11
222.861
21
-54.1503
0
LINE
8
BLACK
6
CONTINUOUS
10
222.861
20
-54.1503
11
223.499
21
-53.8306
0
LINE
8
BLACK
6
CONTINUOUS
10
223.499
20
-53.8306
11
223.499
21
-53.8305
0
LINE
8
BLACK
6
CONTINUOUS
10
223.499
20
-53.8305
11
223.501
21
-53.8297
0
LINE
8
BLACK
6
CONTINUOUS
10
223.501
20
-53.8297
11
223.503
21
-53.8289
0
LINE
8
BLACK
6
CONTINUOUS
10
223.503
20
-53.8289
11
224.19
21
-53.6391
0
LINE
8
BLACK
6
CONTINUOUS
10
224.19
20
-53.6391
11
224.19
21
-53.639
0
LINE
8
BLACK
6
CONTINUOUS
10
224.19
20
-53.639
11
224.19
21
-53.639
0
LINE
8
BLACK
6
CONTINUOUS
10
224.19
20
-53.639
11
224.191
21
-53.639
0
LINE
8
BLACK
6
CONTINUOUS
10
224.191
20
-53.639
11
224.193
21
-53.6386
0
LINE
8
BLACK
6
CONTINUOUS
10
224.193
20
-53.6386
11
224.195
21
-53.6382
0
LINE
8
BLACK
6
CONTINUOUS
10
224.195
20
-53.6382
11
224.906
21
-53.5855
0
LINE
8
BLACK
6
CONTINUOUS
10
224.906
20
-53.5855
11
224.906
21
-53.5855
0
LINE
8
BLACK
6
CONTINUOUS
10
224.906
20
-53.5855
11
224.906
21
-53.5855
0
LINE
8
BLACK
6
CONTINUOUS
10
132.776
20
-55.143
11
132.669
21
-55.1543
0
LINE
8
BLACK
6
CONTINUOUS
10
132.669
20
-55.1543
11
132.567
21
-55.1858
0
LINE
8
BLACK
6
CONTINUOUS
10
132.567
20
-55.1858
11
132.473
21
-55.2365
0
LINE
8
BLACK
6
CONTINUOUS
10
132.473
20
-55.2365
11
132.391
21
-55.3045
0
LINE
8
BLACK
6
CONTINUOUS
10
132.391
20
-55.3045
11
132.323
21
-55.3871
0
LINE
8
BLACK
6
CONTINUOUS
10
132.323
20
-55.3871
11
132.273
21
-55.4813
0
LINE
8
BLACK
6
CONTINUOUS
10
132.273
20
-55.4813
11
132.243
21
-55.5834
0
LINE
8
BLACK
6
CONTINUOUS
10
132.243
20
-55.5834
11
132.232
21
-55.6907
0
LINE
8
BLACK
6
CONTINUOUS
10
132.232
20
-55.6907
11
132.232
21
-56.1987
0
LINE
8
BLACK
6
CONTINUOUS
10
132.232
20
-56.1987
11
132.232
21
-56.1999
0
LINE
8
BLACK
6
CONTINUOUS
10
132.232
20
-56.1999
11
132.232
21
-56.1999
0
LINE
8
BLACK
6
CONTINUOUS
10
132.232
20
-56.1999
11
132.205
21
-56.4713
0
LINE
8
BLACK
6
CONTINUOUS
10
132.205
20
-56.4713
11
132.205
21
-56.4716
0
LINE
8
BLACK
6
CONTINUOUS
10
132.205
20
-56.4716
11
132.205
21
-56.4739
0
LINE
8
BLACK
6
CONTINUOUS
10
132.205
20
-56.4739
11
132.204
21
-56.4761
0
LINE
8
BLACK
6
CONTINUOUS
10
132.204
20
-56.4761
11
132.126
21
-56.7371
0
LINE
8
BLACK
6
CONTINUOUS
10
132.126
20
-56.7371
11
132.125
21
-56.7374
0
LINE
8
BLACK
6
CONTINUOUS
10
132.125
20
-56.7374
11
132.125
21
-56.7395
0
LINE
8
BLACK
6
CONTINUOUS
10
132.125
20
-56.7395
11
132.124
21
-56.7416
0
LINE
8
BLACK
6
CONTINUOUS
10
132.124
20
-56.7416
11
131.996
21
-56.9823
0
LINE
8
BLACK
6
CONTINUOUS
10
131.996
20
-56.9823
11
131.995
21
-56.9826
0
LINE
8
BLACK
6
CONTINUOUS
10
131.995
20
-56.9826
11
131.994
21
-56.9845
0
LINE
8
BLACK
6
CONTINUOUS
10
131.994
20
-56.9845
11
131.993
21
-56.9864
0
LINE
8
BLACK
6
CONTINUOUS
10
131.993
20
-56.9864
11
131.821
21
-57.1977
0
LINE
8
BLACK
6
CONTINUOUS
10
131.821
20
-57.1977
11
131.82
21
-57.1979
0
LINE
8
BLACK
6
CONTINUOUS
10
131.82
20
-57.1979
11
131.819
21
-57.1996
0
LINE
8
BLACK
6
CONTINUOUS
10
131.819
20
-57.1996
11
131.817
21
-57.2011
0
LINE
8
BLACK
6
CONTINUOUS
10
131.817
20
-57.2011
11
131.607
21
-57.3749
0
LINE
8
BLACK
6
CONTINUOUS
10
131.607
20
-57.3749
11
131.607
21
-57.3751
0
LINE
8
BLACK
6
CONTINUOUS
10
131.607
20
-57.3751
11
131.605
21
-57.3764
0
LINE
8
BLACK
6
CONTINUOUS
10
131.605
20
-57.3764
11
131.603
21
-57.3777
0
LINE
8
BLACK
6
CONTINUOUS
10
131.603
20
-57.3777
11
131.363
21
-57.5073
0
LINE
8
BLACK
6
CONTINUOUS
10
131.363
20
-57.5073
11
131.363
21
-57.5075
0
LINE
8
BLACK
6
CONTINUOUS
10
131.363
20
-57.5075
11
131.361
21
-57.5084
0
LINE
8
BLACK
6
CONTINUOUS
10
131.361
20
-57.5084
11
131.359
21
-57.5092
0
LINE
8
BLACK
6
CONTINUOUS
10
131.359
20
-57.5092
11
131.098
21
-57.5898
0
LINE
8
BLACK
6
CONTINUOUS
10
131.098
20
-57.5898
11
131.098
21
-57.5899
0
LINE
8
BLACK
6
CONTINUOUS
10
131.098
20
-57.5899
11
131.096
21
-57.5904
0
LINE
8
BLACK
6
CONTINUOUS
10
131.096
20
-57.5904
11
131.094
21
-57.5908
0
LINE
8
BLACK
6
CONTINUOUS
10
131.094
20
-57.5908
11
130.822
21
-57.6193
0
LINE
8
BLACK
6
CONTINUOUS
10
130.822
20
-57.6193
11
130.822
21
-57.6194
0
LINE
8
BLACK
6
CONTINUOUS
10
130.822
20
-57.6194
11
130.821
21
-57.6194
0
LINE
8
BLACK
6
CONTINUOUS
10
130.821
20
-57.6194
11
130.82
21
-57.6195
0
LINE
8
BLACK
6
CONTINUOUS
10
130.82
20
-57.6195
11
130.811
21
-57.6195
0
LINE
8
BLACK
6
CONTINUOUS
10
130.811
20
-57.6195
11
130.811
21
-57.6195
0
LINE
8
BLACK
6
CONTINUOUS
10
130.811
20
-57.6195
11
119.381
21
-57.6195
0
LINE
8
BLACK
6
CONTINUOUS
10
119.381
20
-57.6195
11
119.38
21
-57.6196
0
LINE
8
BLACK
6
CONTINUOUS
10
119.38
20
-57.6196
11
119.379
21
-57.6195
0
LINE
8
BLACK
6
CONTINUOUS
10
119.379
20
-57.6195
11
119.379
21
-57.6195
0
LINE
8
BLACK
6
CONTINUOUS
10
119.379
20
-57.6195
11
119.375
21
-57.6191
0
LINE
8
BLACK
6
CONTINUOUS
10
119.375
20
-57.6191
11
119.375
21
-57.6191
0
LINE
8
BLACK
6
CONTINUOUS
10
119.375
20
-57.6191
11
119.375
21
-57.6191
0
LINE
8
BLACK
6
CONTINUOUS
10
119.375
20
-57.6191
11
119.374
21
-57.6187
0
LINE
8
BLACK
6
CONTINUOUS
10
119.374
20
-57.6187
11
119.37
21
-57.6177
0
LINE
8
BLACK
6
CONTINUOUS
10
119.37
20
-57.6177
11
119.37
21
-57.6177
0
LINE
8
BLACK
6
CONTINUOUS
10
119.37
20
-57.6177
11
119.37
21
-57.6177
0
LINE
8
BLACK
6
CONTINUOUS
10
119.37
20
-57.6177
11
119.37
21
-57.6175
0
LINE
8
BLACK
6
CONTINUOUS
10
119.37
20
-57.6175
11
119.366
21
-57.6154
0
LINE
8
BLACK
6
CONTINUOUS
10
119.366
20
-57.6154
11
119.362
21
-57.6123
0
LINE
8
BLACK
6
CONTINUOUS
10
119.362
20
-57.6123
11
119.362
21
-57.6121
0
LINE
8
BLACK
6
CONTINUOUS
10
119.362
20
-57.6121
11
119.362
21
-57.6117
0
LINE
8
BLACK
6
CONTINUOUS
10
119.362
20
-57.6117
11
119.359
21
-57.6085
0
LINE
8
BLACK
6
CONTINUOUS
10
119.359
20
-57.6085
11
119.359
21
-57.6085
0
LINE
8
BLACK
6
CONTINUOUS
10
119.359
20
-57.6085
11
119.359
21
-57.6084
0
LINE
8
BLACK
6
CONTINUOUS
10
119.359
20
-57.6084
11
119.358
21
-57.6072
0
LINE
8
BLACK
6
CONTINUOUS
10
119.358
20
-57.6072
11
119.357
21
-57.6041
0
LINE
8
BLACK
6
CONTINUOUS
10
119.357
20
-57.6041
11
119.355
21
-57.5994
0
LINE
8
BLACK
6
CONTINUOUS
10
119.355
20
-57.5994
11
119.355
21
-57.5945
0
LINE
8
BLACK
6
CONTINUOUS
10
119.355
20
-57.5945
11
119.355
21
-57.5933
0
LINE
8
BLACK
6
CONTINUOUS
10
119.355
20
-57.5933
11
119.356
21
-54.9257
0
LINE
8
BLACK
6
CONTINUOUS
10
119.356
20
-54.9257
11
119.298
21
-54.2675
0
LINE
8
BLACK
6
CONTINUOUS
10
119.298
20
-54.2675
11
119.105
21
-53.5864
0
LINE
8
BLACK
6
CONTINUOUS
10
119.105
20
-53.5864
11
118.783
21
-52.9558
0
LINE
8
BLACK
6
CONTINUOUS
10
118.783
20
-52.9558
11
118.345
21
-52.3998
0
LINE
8
BLACK
6
CONTINUOUS
10
118.345
20
-52.3998
11
117.807
21
-51.9395
0
LINE
8
BLACK
6
CONTINUOUS
10
117.807
20
-51.9395
11
117.19
21
-51.5924
0
LINE
8
BLACK
6
CONTINUOUS
10
117.19
20
-51.5924
11
116.517
21
-51.3718
0
LINE
8
BLACK
6
CONTINUOUS
10
116.517
20
-51.3718
11
115.814
21
-51.286
0
LINE
8
BLACK
6
CONTINUOUS
10
115.814
20
-51.286
11
115.108
21
-51.3384
0
LINE
8
BLACK
6
CONTINUOUS
10
115.108
20
-51.3384
11
114.426
21
-51.5269
0
LINE
8
BLACK
6
CONTINUOUS
10
114.426
20
-51.5269
11
113.793
21
-51.8444
0
LINE
8
BLACK
6
CONTINUOUS
10
113.793
20
-51.8444
11
113.234
21
-52.2787
0
LINE
8
BLACK
6
CONTINUOUS
10
113.234
20
-52.2787
11
112.77
21
-52.8134
0
LINE
8
BLACK
6
CONTINUOUS
10
112.77
20
-52.8134
11
112.419
21
-53.428
0
LINE
8
BLACK
6
CONTINUOUS
10
112.419
20
-53.428
11
112.193
21
-54.0991
0
LINE
8
BLACK
6
CONTINUOUS
10
112.193
20
-54.0991
11
112.102
21
-54.8021
0
LINE
8
BLACK
6
CONTINUOUS
10
112.102
20
-54.8021
11
112.102
21
-57.5957
0
LINE
8
BLACK
6
CONTINUOUS
10
112.102
20
-57.5957
11
112.102
21
-57.5994
0
LINE
8
BLACK
6
CONTINUOUS
10
112.102
20
-57.5994
11
112.102
21
-57.6005
0
LINE
8
BLACK
6
CONTINUOUS
10
112.102
20
-57.6005
11
112.102
21
-122.617
0
LINE
8
BLACK
6
CONTINUOUS
10
112.102
20
-122.617
11
112.103
21
-122.619
0
LINE
8
BLACK
6
CONTINUOUS
10
112.103
20
-122.619
11
112.102
21
-122.62
0
LINE
8
BLACK
6
CONTINUOUS
10
112.102
20
-122.62
11
112.102
21
-122.62
0
LINE
8
BLACK
6
CONTINUOUS
10
112.102
20
-122.62
11
112.102
21
-122.623
0
LINE
8
BLACK
6
CONTINUOUS
10
112.102
20
-122.623
11
112.101
21
-122.628
0
LINE
8
BLACK
6
CONTINUOUS
10
112.101
20
-122.628
11
112.101
21
-122.628
0
LINE
8
BLACK
6
CONTINUOUS
10
112.101
20
-122.628
11
112.101
21
-122.628
0
LINE
8
BLACK
6
CONTINUOUS
10
112.101
20
-122.628
11
112.1
21
-122.63
0
LINE
8
BLACK
6
CONTINUOUS
10
112.1
20
-122.63
11
112.098
21
-122.632
0
LINE
8
BLACK
6
CONTINUOUS
10
112.098
20
-122.632
11
112.098
21
-122.632
0
LINE
8
BLACK
6
CONTINUOUS
10
112.098
20
-122.632
11
112.098
21
-122.632
0
LINE
8
BLACK
6
CONTINUOUS
10
112.098
20
-122.632
11
112.097
21
-122.634
0
LINE
8
BLACK
6
CONTINUOUS
10
112.097
20
-122.634
11
112.095
21
-122.636
0
LINE
8
BLACK
6
CONTINUOUS
10
112.095
20
-122.636
11
112.095
21
-122.636
0
LINE
8
BLACK
6
CONTINUOUS
10
112.095
20
-122.636
11
112.095
21
-122.636
0
LINE
8
BLACK
6
CONTINUOUS
10
112.095
20
-122.636
11
112.093
21
-122.638
0
LINE
8
BLACK
6
CONTINUOUS
10
112.093
20
-122.638
11
112.091
21
-122.639
0
LINE
8
BLACK
6
CONTINUOUS
10
112.091
20
-122.639
11
112.091
21
-122.639
0
LINE
8
BLACK
6
CONTINUOUS
10
112.091
20
-122.639
11
112.091
21
-122.639
0
LINE
8
BLACK
6
CONTINUOUS
10
112.091
20
-122.639
11
112.088
21
-122.641
0
LINE
8
BLACK
6
CONTINUOUS
10
112.088
20
-122.641
11
112.087
21
-122.642
0
LINE
8
BLACK
6
CONTINUOUS
10
112.087
20
-122.642
11
112.087
21
-122.642
0
LINE
8
BLACK
6
CONTINUOUS
10
112.087
20
-122.642
11
112.087
21
-122.642
0
LINE
8
BLACK
6
CONTINUOUS
10
112.087
20
-122.642
11
112.085
21
-122.642
0
LINE
8
BLACK
6
CONTINUOUS
10
112.085
20
-122.642
11
112.082
21
-122.643
0
LINE
8
BLACK
6
CONTINUOUS
10
112.082
20
-122.643
11
112.082
21
-122.643
0
LINE
8
BLACK
6
CONTINUOUS
10
112.082
20
-122.643
11
112.082
21
-122.643
0
LINE
8
BLACK
6
CONTINUOUS
10
112.082
20
-122.643
11
112.079
21
-122.643
0
LINE
8
BLACK
6
CONTINUOUS
10
112.079
20
-122.643
11
112.079
21
-122.643
0
LINE
8
BLACK
6
CONTINUOUS
10
112.079
20
-122.643
11
112.078
21
-122.644
0
LINE
8
BLACK
6
CONTINUOUS
10
112.078
20
-122.644
11
112.076
21
-122.643
0
LINE
8
BLACK
6
CONTINUOUS
10
112.076
20
-122.643
11
109.409
21
-122.643
0
LINE
8
BLACK
6
CONTINUOUS
10
109.409
20
-122.643
11
108.751
21
-122.7
0
LINE
8
BLACK
6
CONTINUOUS
10
108.751
20
-122.7
11
108.069
21
-122.894
0
LINE
8
BLACK
6
CONTINUOUS
10
108.069
20
-122.894
11
107.439
21
-123.216
0
LINE
8
BLACK
6
CONTINUOUS
10
107.439
20
-123.216
11
106.883
21
-123.654
0
LINE
8
BLACK
6
CONTINUOUS
10
106.883
20
-123.654
11
106.422
21
-124.192
0
LINE
8
BLACK
6
CONTINUOUS
10
106.422
20
-124.192
11
106.075
21
-124.809
0
LINE
8
BLACK
6
CONTINUOUS
10
106.075
20
-124.809
11
105.855
21
-125.481
0
LINE
8
BLACK
6
CONTINUOUS
10
105.855
20
-125.481
11
105.769
21
-126.184
0
LINE
8
BLACK
6
CONTINUOUS
10
105.769
20
-126.184
11
105.821
21
-126.89
0
LINE
8
BLACK
6
CONTINUOUS
10
105.821
20
-126.89
11
106.01
21
-127.573
0
LINE
8
BLACK
6
CONTINUOUS
10
106.01
20
-127.573
11
106.327
21
-128.205
0
LINE
8
BLACK
6
CONTINUOUS
10
106.327
20
-128.205
11
106.762
21
-128.764
0
LINE
8
BLACK
6
CONTINUOUS
10
106.762
20
-128.764
11
107.296
21
-129.229
0
LINE
8
BLACK
6
CONTINUOUS
10
107.296
20
-129.229
11
107.911
21
-129.58
0
LINE
8
BLACK
6
CONTINUOUS
10
107.911
20
-129.58
11
108.582
21
-129.805
0
LINE
8
BLACK
6
CONTINUOUS
10
108.582
20
-129.805
11
109.285
21
-129.896
0
LINE
8
BLACK
6
CONTINUOUS
10
109.285
20
-129.896
11
112.076
21
-129.896
0
LINE
8
BLACK
6
CONTINUOUS
10
112.076
20
-129.896
11
112.078
21
-129.896
0
LINE
8
BLACK
6
CONTINUOUS
10
112.078
20
-129.896
11
112.079
21
-129.896
0
LINE
8
BLACK
6
CONTINUOUS
10
112.079
20
-129.896
11
112.079
21
-129.896
0
LINE
8
BLACK
6
CONTINUOUS
10
112.079
20
-129.896
11
112.082
21
-129.896
0
LINE
8
BLACK
6
CONTINUOUS
10
112.082
20
-129.896
11
112.087
21
-129.898
0
LINE
8
BLACK
6
CONTINUOUS
10
112.087
20
-129.898
11
112.091
21
-129.9
0
LINE
8
BLACK
6
CONTINUOUS
10
112.091
20
-129.9
11
112.095
21
-129.903
0
LINE
8
BLACK
6
CONTINUOUS
10
112.095
20
-129.903
11
112.098
21
-129.907
0
LINE
8
BLACK
6
CONTINUOUS
10
112.098
20
-129.907
11
112.101
21
-129.911
0
LINE
8
BLACK
6
CONTINUOUS
10
112.101
20
-129.911
11
112.102
21
-129.916
0
LINE
8
BLACK
6
CONTINUOUS
10
112.102
20
-129.916
11
112.103
21
-129.921
0
LINE
8
BLACK
6
CONTINUOUS
10
112.103
20
-129.921
11
112.102
21
-129.922
0
LINE
8
BLACK
6
CONTINUOUS
10
112.102
20
-129.922
11
112.102
21
-136.831
0
LINE
8
BLACK
6
CONTINUOUS
10
112.102
20
-136.831
11
112.102
21
-136.832
0
LINE
8
BLACK
6
CONTINUOUS
10
112.102
20
-136.832
11
112.102
21
-136.832
0
LINE
8
BLACK
6
CONTINUOUS
10
112.102
20
-136.832
11
112.084
21
-137.017
0
LINE
8
BLACK
6
CONTINUOUS
10
112.084
20
-137.017
11
112.084
21
-137.017
0
LINE
8
BLACK
6
CONTINUOUS
10
112.084
20
-137.017
11
112.084
21
-137.019
0
LINE
8
BLACK
6
CONTINUOUS
10
112.084
20
-137.019
11
112.083
21
-137.022
0
LINE
8
BLACK
6
CONTINUOUS
10
112.083
20
-137.022
11
112.03
21
-137.2
0
LINE
8
BLACK
6
CONTINUOUS
10
112.03
20
-137.2
11
112.029
21
-137.2
0
LINE
8
BLACK
6
CONTINUOUS
10
112.029
20
-137.2
11
112.029
21
-137.202
0
LINE
8
BLACK
6
CONTINUOUS
10
112.029
20
-137.202
11
112.028
21
-137.204
0
LINE
8
BLACK
6
CONTINUOUS
10
112.028
20
-137.204
11
111.94
21
-137.368
0
LINE
8
BLACK
6
CONTINUOUS
10
111.94
20
-137.368
11
111.94
21
-137.368
0
LINE
8
BLACK
6
CONTINUOUS
10
111.94
20
-137.368
11
111.939
21
-137.37
0
LINE
8
BLACK
6
CONTINUOUS
10
111.939
20
-137.37
11
111.938
21
-137.372
0
LINE
8
BLACK
6
CONTINUOUS
10
111.938
20
-137.372
11
111.82
21
-137.516
0
LINE
8
BLACK
6
CONTINUOUS
10
111.82
20
-137.516
11
111.82
21
-137.517
0
LINE
8
BLACK
6
CONTINUOUS
10
111.82
20
-137.517
11
111.818
21
-137.518
0
LINE
8
BLACK
6
CONTINUOUS
10
111.818
20
-137.518
11
111.817
21
-137.52
0
LINE
8
BLACK
6
CONTINUOUS
10
111.817
20
-137.52
11
111.674
21
-137.638
0
LINE
8
BLACK
6
CONTINUOUS
10
111.674
20
-137.638
11
111.673
21
-137.638
0
LINE
8
BLACK
6
CONTINUOUS
10
111.673
20
-137.638
11
111.672
21
-137.639
0
LINE
8
BLACK
6
CONTINUOUS
10
111.672
20
-137.639
11
111.671
21
-137.64
0
LINE
8
BLACK
6
CONTINUOUS
10
111.671
20
-137.64
11
111.59
21
-137.689
0
LINE
8
BLACK
6
CONTINUOUS
10
111.59
20
-137.689
11
83.1993
21
-156.104
0
LINE
8
BLACK
6
CONTINUOUS
10
83.1993
20
-156.104
11
83.1255
21
-156.158
0
LINE
8
BLACK
6
CONTINUOUS
10
83.1255
20
-156.158
11
83.002
21
-156.283
0
LINE
8
BLACK
6
CONTINUOUS
10
83.002
20
-156.283
11
82.9052
21
-156.428
0
LINE
8
BLACK
6
CONTINUOUS
10
82.9052
20
-156.428
11
82.8386
21
-156.59
0
LINE
8
BLACK
6
CONTINUOUS
10
82.8386
20
-156.59
11
82.8046
21
-156.761
0
LINE
8
BLACK
6
CONTINUOUS
10
82.8046
20
-156.761
11
82.8045
21
-156.936
0
LINE
8
BLACK
6
CONTINUOUS
10
82.8045
20
-156.936
11
82.8384
21
-157.107
0
LINE
8
BLACK
6
CONTINUOUS
10
82.8384
20
-157.107
11
82.905
21
-157.269
0
LINE
8
BLACK
6
CONTINUOUS
10
82.905
20
-157.269
11
100.956
21
-184.964
0
LINE
8
BLACK
6
CONTINUOUS
10
100.956
20
-184.964
11
101.011
21
-185.037
0
LINE
8
BLACK
6
CONTINUOUS
10
101.011
20
-185.037
11
101.136
21
-185.161
0
LINE
8
BLACK
6
CONTINUOUS
10
101.136
20
-185.161
11
101.281
21
-185.258
0
LINE
8
BLACK
6
CONTINUOUS
10
101.281
20
-185.258
11
101.443
21
-185.324
0
LINE
8
BLACK
6
CONTINUOUS
10
101.443
20
-185.324
11
101.614
21
-185.358
0
LINE
8
BLACK
6
CONTINUOUS
10
101.614
20
-185.358
11
101.789
21
-185.359
0
LINE
8
BLACK
6
CONTINUOUS
10
101.789
20
-185.359
11
101.96
21
-185.325
0
LINE
8
BLACK
6
CONTINUOUS
10
101.96
20
-185.325
11
102.122
21
-185.258
0
LINE
8
BLACK
6
CONTINUOUS
10
102.122
20
-185.258
11
115.364
21
-176.637
0
LINE
8
BLACK
6
CONTINUOUS
10
115.364
20
-176.637
11
115.365
21
-176.637
0
LINE
8
BLACK
6
CONTINUOUS
10
115.365
20
-176.637
11
115.366
21
-176.636
0
LINE
8
BLACK
6
CONTINUOUS
10
115.366
20
-176.636
11
115.367
21
-176.635
0
LINE
8
BLACK
6
CONTINUOUS
10
115.367
20
-176.635
11
115.367
21
-176.635
0
LINE
8
BLACK
6
CONTINUOUS
10
115.367
20
-176.635
11
115.369
21
-176.634
0
LINE
8
BLACK
6
CONTINUOUS
10
115.369
20
-176.634
11
115.37
21
-176.634
0
LINE
8
BLACK
6
CONTINUOUS
10
115.37
20
-176.634
11
115.37
21
-176.634
0
LINE
8
BLACK
6
CONTINUOUS
10
115.37
20
-176.634
11
115.372
21
-176.633
0
LINE
8
BLACK
6
CONTINUOUS
10
115.372
20
-176.633
11
115.374
21
-176.633
0
LINE
8
BLACK
6
CONTINUOUS
10
115.374
20
-176.633
11
115.374
21
-176.632
0
LINE
8
BLACK
6
CONTINUOUS
10
115.374
20
-176.632
11
115.375
21
-176.632
0
LINE
8
BLACK
6
CONTINUOUS
10
115.375
20
-176.632
11
115.377
21
-176.632
0
LINE
8
BLACK
6
CONTINUOUS
10
115.377
20
-176.632
11
115.378
21
-176.632
0
LINE
8
BLACK
6
CONTINUOUS
10
115.378
20
-176.632
11
115.379
21
-176.632
0
LINE
8
BLACK
6
CONTINUOUS
10
115.379
20
-176.632
11
115.38
21
-176.632
0
LINE
8
BLACK
6
CONTINUOUS
10
115.38
20
-176.632
11
115.382
21
-176.632
0
LINE
8
BLACK
6
CONTINUOUS
10
115.382
20
-176.632
11
115.383
21
-176.632
0
LINE
8
BLACK
6
CONTINUOUS
10
115.383
20
-176.632
11
115.384
21
-176.632
0
LINE
8
BLACK
6
CONTINUOUS
10
115.384
20
-176.632
11
115.385
21
-176.632
0
LINE
8
BLACK
6
CONTINUOUS
10
115.385
20
-176.632
11
115.386
21
-176.633
0
LINE
8
BLACK
6
CONTINUOUS
10
115.386
20
-176.633
11
115.388
21
-176.633
0
LINE
8
BLACK
6
CONTINUOUS
10
115.388
20
-176.633
11
115.389
21
-176.634
0
LINE
8
BLACK
6
CONTINUOUS
10
115.389
20
-176.634
11
115.389
21
-176.634
0
LINE
8
BLACK
6
CONTINUOUS
10
115.389
20
-176.634
11
115.391
21
-176.635
0
LINE
8
BLACK
6
CONTINUOUS
10
115.391
20
-176.635
11
115.393
21
-176.636
0
LINE
8
BLACK
6
CONTINUOUS
10
115.393
20
-176.636
11
115.393
21
-176.636
0
LINE
8
BLACK
6
CONTINUOUS
10
115.393
20
-176.636
11
115.394
21
-176.636
0
LINE
8
BLACK
6
CONTINUOUS
10
115.394
20
-176.636
11
115.395
21
-176.637
0
LINE
8
BLACK
6
CONTINUOUS
10
115.395
20
-176.637
11
115.397
21
-176.639
0
LINE
8
BLACK
6
CONTINUOUS
10
115.397
20
-176.639
11
115.397
21
-176.639
0
LINE
8
BLACK
6
CONTINUOUS
10
115.397
20
-176.639
11
115.397
21
-176.639
0
LINE
8
BLACK
6
CONTINUOUS
10
115.397
20
-176.639
11
115.399
21
-176.641
0
LINE
8
BLACK
6
CONTINUOUS
10
115.399
20
-176.641
11
115.399
21
-176.641
0
LINE
8
BLACK
6
CONTINUOUS
10
115.399
20
-176.641
11
115.399
21
-176.642
0
LINE
8
BLACK
6
CONTINUOUS
10
115.399
20
-176.642
11
115.401
21
-176.643
0
LINE
8
BLACK
6
CONTINUOUS
10
115.401
20
-176.643
11
115.401
21
-176.644
0
LINE
8
BLACK
6
CONTINUOUS
10
115.401
20
-176.644
11
116.676
21
-178.389
0
LINE
8
BLACK
6
CONTINUOUS
10
116.676
20
-178.389
11
117.069
21
-178.901
0
LINE
8
BLACK
6
CONTINUOUS
10
117.069
20
-178.901
11
117.592
21
-179.366
0
LINE
8
BLACK
6
CONTINUOUS
10
117.592
20
-179.366
11
118.195
21
-179.721
0
LINE
8
BLACK
6
CONTINUOUS
10
118.195
20
-179.721
11
118.855
21
-179.953
0
LINE
8
BLACK
6
CONTINUOUS
10
118.855
20
-179.953
11
119.548
21
-180.051
0
LINE
8
BLACK
6
CONTINUOUS
10
119.548
20
-180.051
11
120.247
21
-180.013
0
LINE
8
BLACK
6
CONTINUOUS
10
120.247
20
-180.013
11
120.925
21
-179.84
0
LINE
8
BLACK
6
CONTINUOUS
10
120.925
20
-179.84
11
121.557
21
-179.539
0
LINE
8
BLACK
6
CONTINUOUS
10
121.557
20
-179.539
11
122.118
21
-179.121
0
LINE
8
BLACK
6
CONTINUOUS
10
122.118
20
-179.121
11
122.587
21
-178.602
0
LINE
8
BLACK
6
CONTINUOUS
10
122.587
20
-178.602
11
122.946
21
-178.001
0
LINE
8
BLACK
6
CONTINUOUS
10
122.946
20
-178.001
11
123.182
21
-177.342
0
LINE
8
BLACK
6
CONTINUOUS
10
123.182
20
-177.342
11
123.286
21
-176.65
0
LINE
8
BLACK
6
CONTINUOUS
10
123.286
20
-176.65
11
123.252
21
-175.951
0
LINE
8
BLACK
6
CONTINUOUS
10
123.252
20
-175.951
11
123.084
21
-175.272
0
LINE
8
BLACK
6
CONTINUOUS
10
123.084
20
-175.272
11
122.787
21
-174.637
0
LINE
8
BLACK
6
CONTINUOUS
10
122.787
20
-174.637
11
121.557
21
-172.671
0
LINE
8
BLACK
6
CONTINUOUS
10
121.557
20
-172.671
11
121.556
21
-172.67
0
LINE
8
BLACK
6
CONTINUOUS
10
121.556
20
-172.67
11
121.555
21
-172.669
0
LINE
8
BLACK
6
CONTINUOUS
10
121.555
20
-172.669
11
121.555
21
-172.669
0
LINE
8
BLACK
6
CONTINUOUS
10
121.555
20
-172.669
11
121.555
21
-172.668
0
LINE
8
BLACK
6
CONTINUOUS
10
121.555
20
-172.668
11
121.554
21
-172.666
0
LINE
8
BLACK
6
CONTINUOUS
10
121.554
20
-172.666
11
121.554
21
-172.666
0
LINE
8
BLACK
6
CONTINUOUS
10
121.554
20
-172.666
11
121.554
21
-172.665
0
LINE
8
BLACK
6
CONTINUOUS
10
121.554
20
-172.665
11
121.553
21
-172.663
0
LINE
8
BLACK
6
CONTINUOUS
10
121.553
20
-172.663
11
121.552
21
-172.661
0
LINE
8
BLACK
6
CONTINUOUS
10
121.552
20
-172.661
11
121.552
21
-172.661
0
LINE
8
BLACK
6
CONTINUOUS
10
121.552
20
-172.661
11
121.552
21
-172.661
0
LINE
8
BLACK
6
CONTINUOUS
10
121.552
20
-172.661
11
121.552
21
-172.658
0
LINE
8
BLACK
6
CONTINUOUS
10
121.552
20
-172.658
11
121.552
21
-172.656
0
LINE
8
BLACK
6
CONTINUOUS
10
121.552
20
-172.656
11
121.552
21
-172.656
0
LINE
8
BLACK
6
CONTINUOUS
10
121.552
20
-172.656
11
121.552
21
-172.656
0
LINE
8
BLACK
6
CONTINUOUS
10
121.552
20
-172.656
11
121.552
21
-172.654
0
LINE
8
BLACK
6
CONTINUOUS
10
121.552
20
-172.654
11
121.553
21
-172.651
0
LINE
8
BLACK
6
CONTINUOUS
10
121.553
20
-172.651
11
121.553
21
-172.651
0
LINE
8
BLACK
6
CONTINUOUS
10
121.553
20
-172.651
11
121.553
21
-172.651
0
LINE
8
BLACK
6
CONTINUOUS
10
121.553
20
-172.651
11
121.553
21
-172.649
0
LINE
8
BLACK
6
CONTINUOUS
10
121.553
20
-172.649
11
121.554
21
-172.647
0
LINE
8
BLACK
6
CONTINUOUS
10
121.554
20
-172.647
11
121.554
21
-172.646
0
LINE
8
BLACK
6
CONTINUOUS
10
121.554
20
-172.646
11
121.554
21
-172.646
0
LINE
8
BLACK
6
CONTINUOUS
10
121.554
20
-172.646
11
121.555
21
-172.644
0
LINE
8
BLACK
6
CONTINUOUS
10
121.555
20
-172.644
11
121.556
21
-172.642
0
LINE
8
BLACK
6
CONTINUOUS
10
121.556
20
-172.642
11
121.557
21
-172.642
0
LINE
8
BLACK
6
CONTINUOUS
10
121.557
20
-172.642
11
121.557
21
-172.642
0
LINE
8
BLACK
6
CONTINUOUS
10
121.557
20
-172.642
11
121.558
21
-172.64
0
LINE
8
BLACK
6
CONTINUOUS
10
121.558
20
-172.64
11
121.56
21
-172.639
0
LINE
8
BLACK
6
CONTINUOUS
10
121.56
20
-172.639
11
121.56
21
-172.638
0
LINE
8
BLACK
6
CONTINUOUS
10
121.56
20
-172.638
11
121.56
21
-172.638
0
LINE
8
BLACK
6
CONTINUOUS
10
121.56
20
-172.638
11
121.562
21
-172.637
0
LINE
8
BLACK
6
CONTINUOUS
10
121.562
20
-172.637
11
121.562
21
-172.636
0
LINE
8
BLACK
6
CONTINUOUS
10
121.562
20
-172.636
11
121.563
21
-172.636
0
LINE
8
BLACK
6
CONTINUOUS
10
121.563
20
-172.636
11
121.564
21
-172.635
0
LINE
8
BLACK
6
CONTINUOUS
10
121.564
20
-172.635
11
121.565
21
-172.635
0
LINE
8
BLACK
6
CONTINUOUS
10
121.565
20
-172.635
11
126.148
21
-169.639
0
LINE
8
BLACK
6
CONTINUOUS
10
126.148
20
-169.639
11
126.148
21
-169.638
0
LINE
8
BLACK
6
CONTINUOUS
10
126.148
20
-169.638
11
126.149
21
-169.638
0
LINE
8
BLACK
6
CONTINUOUS
10
126.149
20
-169.638
11
126.149
21
-169.638
0
LINE
8
BLACK
6
CONTINUOUS
10
126.149
20
-169.638
11
126.15
21
-169.637
0
LINE
8
BLACK
6
CONTINUOUS
10
126.15
20
-169.637
11
135.685
21
-164.127
0
LINE
8
BLACK
6
CONTINUOUS
10
135.685
20
-164.127
11
135.686
21
-164.126
0
LINE
8
BLACK
6
CONTINUOUS
10
135.686
20
-164.126
11
135.688
21
-164.126
0
LINE
8
BLACK
6
CONTINUOUS
10
135.688
20
-164.126
11
135.688
21
-164.125
0
LINE
8
BLACK
6
CONTINUOUS
10
135.688
20
-164.125
11
135.689
21
-164.125
0
LINE
8
BLACK
6
CONTINUOUS
10
135.689
20
-164.125
11
135.689
21
-164.125
0
LINE
8
BLACK
6
CONTINUOUS
10
135.689
20
-164.125
11
135.69
21
-164.124
0
LINE
8
BLACK
6
CONTINUOUS
10
135.69
20
-164.124
11
135.691
21
-164.124
0
LINE
8
BLACK
6
CONTINUOUS
10
135.691
20
-164.124
11
135.692
21
-164.124
0
LINE
8
BLACK
6
CONTINUOUS
10
135.692
20
-164.124
11
153.405
21
-157.203
0
LINE
8
BLACK
6
CONTINUOUS
10
153.405
20
-157.203
11
153.405
21
-157.203
0
LINE
8
BLACK
6
CONTINUOUS
10
153.405
20
-157.203
11
153.407
21
-157.203
0
LINE
8
BLACK
6
CONTINUOUS
10
153.407
20
-157.203
11
153.408
21
-157.202
0
LINE
8
BLACK
6
CONTINUOUS
10
153.408
20
-157.202
11
153.409
21
-157.202
0
LINE
8
BLACK
6
CONTINUOUS
10
153.409
20
-157.202
11
153.41
21
-157.202
0
LINE
8
BLACK
6
CONTINUOUS
10
153.41
20
-157.202
11
153.411
21
-157.201
0
LINE
8
BLACK
6
CONTINUOUS
10
153.411
20
-157.201
11
153.412
21
-157.201
0
LINE
8
BLACK
6
CONTINUOUS
10
153.412
20
-157.201
11
153.413
21
-157.201
0
LINE
8
BLACK
6
CONTINUOUS
10
153.413
20
-157.201
11
153.414
21
-157.201
0
LINE
8
BLACK
6
CONTINUOUS
10
153.414
20
-157.201
11
153.415
21
-157.201
0
LINE
8
BLACK
6
CONTINUOUS
10
153.415
20
-157.201
11
153.417
21
-157.201
0
LINE
8
BLACK
6
CONTINUOUS
10
153.417
20
-157.201
11
153.417
21
-157.201
0
LINE
8
BLACK
6
CONTINUOUS
10
153.417
20
-157.201
11
171.448
21
-156.503
0
LINE
8
BLACK
6
CONTINUOUS
10
171.448
20
-156.503
11
171.449
21
-156.502
0
LINE
8
BLACK
6
CONTINUOUS
10
171.449
20
-156.502
11
171.45
21
-156.502
0
LINE
8
BLACK
6
CONTINUOUS
10
171.45
20
-156.502
11
171.45
21
-156.502
0
LINE
8
BLACK
6
CONTINUOUS
10
171.45
20
-156.502
11
171.451
21
-156.502
0
LINE
8
BLACK
6
CONTINUOUS
10
171.451
20
-156.502
11
176.834
21
-156.502
0
LINE
8
BLACK
6
CONTINUOUS
10
176.834
20
-156.502
11
176.835
21
-156.502
0
LINE
8
BLACK
6
CONTINUOUS
10
176.835
20
-156.502
11
176.836
21
-156.502
0
LINE
8
BLACK
6
CONTINUOUS
10
176.836
20
-156.502
11
176.84
21
-156.503
0
LINE
8
BLACK
6
CONTINUOUS
10
176.84
20
-156.503
11
176.844
21
-156.504
0
LINE
8
BLACK
6
CONTINUOUS
10
176.844
20
-156.504
11
176.849
21
-156.507
0
LINE
8
BLACK
6
CONTINUOUS
10
176.849
20
-156.507
11
176.853
21
-156.51
0
LINE
8
BLACK
6
CONTINUOUS
10
176.853
20
-156.51
11
176.856
21
-156.514
0
LINE
8
BLACK
6
CONTINUOUS
10
176.856
20
-156.514
11
176.858
21
-156.518
0
LINE
8
BLACK
6
CONTINUOUS
10
176.858
20
-156.518
11
176.859
21
-156.523
0
LINE
8
BLACK
6
CONTINUOUS
10
176.859
20
-156.523
11
176.86
21
-156.528
0
LINE
8
BLACK
6
CONTINUOUS
10
176.86
20
-156.528
11
176.86
21
-156.529
0
LINE
8
BLACK
6
CONTINUOUS
10
176.86
20
-156.529
11
176.86
21
-158.256
0
LINE
8
BLACK
6
CONTINUOUS
10
176.86
20
-158.256
11
176.881
21
-158.695
0
LINE
8
BLACK
6
CONTINUOUS
10
176.881
20
-158.695
11
177.045
21
-159.532
0
LINE
8
BLACK
6
CONTINUOUS
10
177.045
20
-159.532
11
177.364
21
-160.323
0
LINE
8
BLACK
6
CONTINUOUS
10
177.364
20
-160.323
11
177.826
21
-161.04
0
LINE
8
BLACK
6
CONTINUOUS
10
177.826
20
-161.04
11
178.416
21
-161.656
0
LINE
8
BLACK
6
CONTINUOUS
10
178.416
20
-161.656
11
179.112
21
-162.149
0
LINE
8
BLACK
6
CONTINUOUS
10
179.112
20
-162.149
11
179.888
21
-162.502
0
LINE
8
BLACK
6
CONTINUOUS
10
179.888
20
-162.502
11
180.717
21
-162.702
0
LINE
8
BLACK
6
CONTINUOUS
10
180.717
20
-162.702
11
181.569
21
-162.742
0
LINE
8
BLACK
6
CONTINUOUS
10
181.569
20
-162.742
11
182.413
21
-162.619
0
LINE
8
BLACK
6
CONTINUOUS
10
182.413
20
-162.619
11
183.219
21
-162.34
0
LINE
8
BLACK
6
CONTINUOUS
10
183.219
20
-162.34
11
183.957
21
-161.912
0
LINE
8
BLACK
6
CONTINUOUS
10
183.957
20
-161.912
11
184.602
21
-161.353
0
LINE
8
BLACK
6
CONTINUOUS
10
184.602
20
-161.353
11
185.128
21
-160.683
0
LINE
8
BLACK
6
CONTINUOUS
10
185.128
20
-160.683
11
185.519
21
-159.924
0
LINE
8
BLACK
6
CONTINUOUS
10
185.519
20
-159.924
11
185.759
21
-159.106
0
LINE
8
BLACK
6
CONTINUOUS
10
185.759
20
-159.106
11
185.84
21
-158.256
0
LINE
8
BLACK
6
CONTINUOUS
10
185.84
20
-158.256
11
185.84
21
-156.529
0
LINE
8
BLACK
6
CONTINUOUS
10
185.84
20
-156.529
11
185.84
21
-156.528
0
LINE
8
BLACK
6
CONTINUOUS
10
185.84
20
-156.528
11
185.841
21
-156.523
0
LINE
8
BLACK
6
CONTINUOUS
10
185.841
20
-156.523
11
185.842
21
-156.518
0
LINE
8
BLACK
6
CONTINUOUS
10
185.842
20
-156.518
11
185.844
21
-156.514
0
LINE
8
BLACK
6
CONTINUOUS
10
185.844
20
-156.514
11
185.847
21
-156.51
0
LINE
8
BLACK
6
CONTINUOUS
10
185.847
20
-156.51
11
185.851
21
-156.507
0
LINE
8
BLACK
6
CONTINUOUS
10
185.851
20
-156.507
11
185.856
21
-156.504
0
LINE
8
BLACK
6
CONTINUOUS
10
185.856
20
-156.504
11
185.86
21
-156.503
0
LINE
8
BLACK
6
CONTINUOUS
10
185.86
20
-156.503
11
185.864
21
-156.502
0
LINE
8
BLACK
6
CONTINUOUS
10
185.864
20
-156.502
11
185.864
21
-156.502
0
LINE
8
BLACK
6
CONTINUOUS
10
185.864
20
-156.502
11
185.865
21
-156.502
0
LINE
8
BLACK
6
CONTINUOUS
10
185.865
20
-156.502
11
185.866
21
-156.502
0
LINE
8
BLACK
6
CONTINUOUS
10
185.866
20
-156.502
11
187.961
21
-156.502
0
LINE
8
BLACK
6
CONTINUOUS
10
187.961
20
-156.502
11
187.962
21
-156.503
0
LINE
8
BLACK
6
CONTINUOUS
10
187.962
20
-156.503
11
187.962
21
-156.503
0
LINE
8
BLACK
6
CONTINUOUS
10
187.962
20
-156.503
11
188.234
21
-156.529
0
LINE
8
BLACK
6
CONTINUOUS
10
188.234
20
-156.529
11
188.234
21
-156.529
0
LINE
8
BLACK
6
CONTINUOUS
10
188.234
20
-156.529
11
188.236
21
-156.53
0
LINE
8
BLACK
6
CONTINUOUS
10
188.236
20
-156.53
11
188.239
21
-156.53
0
LINE
8
BLACK
6
CONTINUOUS
10
188.239
20
-156.53
11
188.5
21
-156.609
0
LINE
8
BLACK
6
CONTINUOUS
10
188.5
20
-156.609
11
188.5
21
-156.609
0
LINE
8
BLACK
6
CONTINUOUS
10
188.5
20
-156.609
11
188.502
21
-156.61
0
LINE
8
BLACK
6
CONTINUOUS
10
188.502
20
-156.61
11
188.504
21
-156.611
0
LINE
8
BLACK
6
CONTINUOUS
10
188.504
20
-156.611
11
188.745
21
-156.739
0
LINE
8
BLACK
6
CONTINUOUS
10
188.745
20
-156.739
11
188.745
21
-156.739
0
LINE
8
BLACK
6
CONTINUOUS
10
188.745
20
-156.739
11
188.747
21
-156.74
0
LINE
8
BLACK
6
CONTINUOUS
10
188.747
20
-156.74
11
188.749
21
-156.742
0
LINE
8
BLACK
6
CONTINUOUS
10
188.749
20
-156.742
11
188.96
21
-156.914
0
LINE
8
BLACK
6
CONTINUOUS
10
188.96
20
-156.914
11
188.96
21
-156.914
0
LINE
8
BLACK
6
CONTINUOUS
10
188.96
20
-156.914
11
188.96
21
-156.914
0
LINE
8
BLACK
6
CONTINUOUS
10
188.96
20
-156.914
11
188.96
21
-156.914
0
LINE
8
BLACK
6
CONTINUOUS
10
188.96
20
-156.914
11
188.962
21
-156.916
0
LINE
8
BLACK
6
CONTINUOUS
10
188.962
20
-156.916
11
188.964
21
-156.917
0
LINE
8
BLACK
6
CONTINUOUS
10
188.964
20
-156.917
11
189.137
21
-157.127
0
LINE
8
BLACK
6
CONTINUOUS
10
189.137
20
-157.127
11
189.138
21
-157.128
0
LINE
8
BLACK
6
CONTINUOUS
10
189.138
20
-157.128
11
189.139
21
-157.13
0
LINE
8
BLACK
6
CONTINUOUS
10
189.139
20
-157.13
11
189.14
21
-157.131
0
LINE
8
BLACK
6
CONTINUOUS
10
189.14
20
-157.131
11
189.27
21
-157.371
0
LINE
8
BLACK
6
CONTINUOUS
10
189.27
20
-157.371
11
189.27
21
-157.371
0
LINE
8
BLACK
6
CONTINUOUS
10
189.27
20
-157.371
11
189.27
21
-157.371
0
LINE
8
BLACK
6
CONTINUOUS
10
189.27
20
-157.371
11
189.27
21
-157.372
0
LINE
8
BLACK
6
CONTINUOUS
10
189.27
20
-157.372
11
189.271
21
-157.374
0
LINE
8
BLACK
6
CONTINUOUS
10
189.271
20
-157.374
11
189.272
21
-157.376
0
LINE
8
BLACK
6
CONTINUOUS
10
189.272
20
-157.376
11
189.352
21
-157.636
0
LINE
8
BLACK
6
CONTINUOUS
10
189.352
20
-157.636
11
189.352
21
-157.637
0
LINE
8
BLACK
6
CONTINUOUS
10
189.352
20
-157.637
11
189.353
21
-157.639
0
LINE
8
BLACK
6
CONTINUOUS
10
189.353
20
-157.639
11
189.353
21
-157.641
0
LINE
8
BLACK
6
CONTINUOUS
10
189.353
20
-157.641
11
189.382
21
-157.912
0
LINE
8
BLACK
6
CONTINUOUS
10
189.382
20
-157.912
11
189.382
21
-157.912
0
LINE
8
BLACK
6
CONTINUOUS
10
189.382
20
-157.912
11
189.382
21
-157.914
0
LINE
8
BLACK
6
CONTINUOUS
10
189.382
20
-157.914
11
189.382
21
-157.915
0
LINE
8
BLACK
6
CONTINUOUS
10
189.382
20
-157.915
11
189.382
21
-157.923
0
LINE
8
BLACK
6
CONTINUOUS
10
189.382
20
-157.923
11
189.382
21
-157.923
0
LINE
8
BLACK
6
CONTINUOUS
10
189.382
20
-157.923
11
189.382
21
-159.893
0
LINE
8
BLACK
6
CONTINUOUS
10
189.382
20
-159.893
11
189.382
21
-159.901
0
LINE
8
BLACK
6
CONTINUOUS
10
189.382
20
-159.901
11
189.41
21
-160.169
0
LINE
8
BLACK
6
CONTINUOUS
10
189.41
20
-160.169
11
189.489
21
-160.425
0
LINE
8
BLACK
6
CONTINUOUS
10
189.489
20
-160.425
11
189.617
21
-160.66
0
LINE
8
BLACK
6
CONTINUOUS
10
189.617
20
-160.66
11
189.787
21
-160.866
0
LINE
8
BLACK
6
CONTINUOUS
10
189.787
20
-160.866
11
189.995
21
-161.036
0
LINE
8
BLACK
6
CONTINUOUS
10
189.995
20
-161.036
11
190.231
21
-161.161
0
LINE
8
BLACK
6
CONTINUOUS
10
190.231
20
-161.161
11
190.488
21
-161.239
0
LINE
8
BLACK
6
CONTINUOUS
10
190.488
20
-161.239
11
190.755
21
-161.265
0
LINE
8
BLACK
6
CONTINUOUS
10
190.755
20
-161.265
11
240.601
21
-161.265
0
LINE
8
BLACK
6
CONTINUOUS
10
240.601
20
-161.265
11
240.61
21
-161.265
0
LINE
8
BLACK
6
CONTINUOUS
10
240.61
20
-161.265
11
240.877
21
-161.237
0
LINE
8
BLACK
6
CONTINUOUS
10
240.877
20
-161.237
11
241.133
21
-161.158
0
LINE
8
BLACK
6
CONTINUOUS
10
241.133
20
-161.158
11
241.369
21
-161.03
0
LINE
8
BLACK
6
CONTINUOUS
10
241.369
20
-161.03
11
241.575
21
-160.86
0
LINE
8
BLACK
6
CONTINUOUS
10
241.575
20
-160.86
11
241.744
21
-160.652
0
LINE
8
BLACK
6
CONTINUOUS
10
241.744
20
-160.652
11
241.87
21
-160.416
0
LINE
8
BLACK
6
CONTINUOUS
10
241.87
20
-160.416
11
241.947
21
-160.159
0
LINE
8
BLACK
6
CONTINUOUS
10
241.947
20
-160.159
11
241.974
21
-159.892
0
LINE
8
BLACK
6
CONTINUOUS
10
241.974
20
-159.892
11
241.974
21
-128.525
0
LINE
8
BLACK
6
CONTINUOUS
10
241.974
20
-128.525
11
241.973
21
-128.524
0
LINE
8
BLACK
6
CONTINUOUS
10
241.973
20
-128.524
11
241.974
21
-128.522
0
LINE
8
BLACK
6
CONTINUOUS
10
241.974
20
-128.522
11
241.974
21
-128.519
0
LINE
8
BLACK
6
CONTINUOUS
10
241.974
20
-128.519
11
241.974
21
-128.519
0
LINE
8
BLACK
6
CONTINUOUS
10
241.974
20
-128.519
11
241.974
21
-128.519
0
LINE
8
BLACK
6
CONTINUOUS
10
241.974
20
-128.519
11
241.975
21
-128.517
0
LINE
8
BLACK
6
CONTINUOUS
10
241.975
20
-128.517
11
241.975
21
-128.514
0
LINE
8
BLACK
6
CONTINUOUS
10
241.975
20
-128.514
11
241.975
21
-128.514
0
LINE
8
BLACK
6
CONTINUOUS
10
241.975
20
-128.514
11
241.975
21
-128.514
0
LINE
8
BLACK
6
CONTINUOUS
10
241.975
20
-128.514
11
241.976
21
-128.513
0
LINE
8
BLACK
6
CONTINUOUS
10
241.976
20
-128.513
11
241.978
21
-128.51
0
LINE
8
BLACK
6
CONTINUOUS
10
241.978
20
-128.51
11
241.978
21
-128.51
0
LINE
8
BLACK
6
CONTINUOUS
10
241.978
20
-128.51
11
241.978
21
-128.51
0
LINE
8
BLACK
6
CONTINUOUS
10
241.978
20
-128.51
11
241.979
21
-128.509
0
LINE
8
BLACK
6
CONTINUOUS
10
241.979
20
-128.509
11
241.981
21
-128.506
0
LINE
8
BLACK
6
CONTINUOUS
10
241.981
20
-128.506
11
241.985
21
-128.503
0
LINE
8
BLACK
6
CONTINUOUS
10
241.985
20
-128.503
11
241.985
21
-128.503
0
LINE
8
BLACK
6
CONTINUOUS
10
241.985
20
-128.503
11
241.985
21
-128.503
0
LINE
8
BLACK
6
CONTINUOUS
10
241.985
20
-128.503
11
241.986
21
-128.502
0
LINE
8
BLACK
6
CONTINUOUS
10
241.986
20
-128.502
11
241.989
21
-128.501
0
LINE
8
BLACK
6
CONTINUOUS
10
241.989
20
-128.501
11
241.989
21
-128.501
0
LINE
8
BLACK
6
CONTINUOUS
10
241.989
20
-128.501
11
241.989
21
-128.501
0
LINE
8
BLACK
6
CONTINUOUS
10
241.989
20
-128.501
11
241.989
21
-128.501
0
LINE
8
BLACK
6
CONTINUOUS
10
241.989
20
-128.501
11
241.994
21
-128.499
0
LINE
8
BLACK
6
CONTINUOUS
10
241.994
20
-128.499
11
241.998
21
-128.499
0
LINE
8
BLACK
6
CONTINUOUS
10
241.998
20
-128.499
11
242
21
-128.499
0
LINE
8
BLACK
6
CONTINUOUS
10
242
20
-128.499
11
244.667
21
-128.5
0
LINE
8
BLACK
6
CONTINUOUS
10
244.667
20
-128.5
11
245.325
21
-128.442
0
LINE
8
BLACK
6
CONTINUOUS
10
245.325
20
-128.442
11
246.007
21
-128.249
0
LINE
8
BLACK
6
CONTINUOUS
10
246.007
20
-128.249
11
246.637
21
-127.927
0
LINE
8
BLACK
6
CONTINUOUS
10
246.637
20
-127.927
11
247.193
21
-127.489
0
LINE
8
BLACK
6
CONTINUOUS
10
247.193
20
-127.489
11
247.654
21
-126.951
0
LINE
8
BLACK
6
CONTINUOUS
10
247.654
20
-126.951
11
248.001
21
-126.334
0
LINE
8
BLACK
6
CONTINUOUS
10
248.001
20
-126.334
11
248.221
21
-125.661
0
LINE
8
BLACK
6
CONTINUOUS
10
248.221
20
-125.661
11
248.307
21
-124.958
0
LINE
8
BLACK
6
CONTINUOUS
10
248.307
20
-124.958
11
248.255
21
-124.252
0
LINE
8
BLACK
6
CONTINUOUS
10
248.255
20
-124.252
11
248.066
21
-123.57
0
LINE
8
BLACK
6
CONTINUOUS
10
248.066
20
-123.57
11
247.749
21
-122.937
0
LINE
8
BLACK
6
CONTINUOUS
10
247.749
20
-122.937
11
247.314
21
-122.378
0
LINE
8
BLACK
6
CONTINUOUS
10
247.314
20
-122.378
11
246.78
21
-121.914
0
LINE
8
BLACK
6
CONTINUOUS
10
246.78
20
-121.914
11
246.165
21
-121.563
0
LINE
8
BLACK
6
CONTINUOUS
10
246.165
20
-121.563
11
245.494
21
-121.337
0
LINE
8
BLACK
6
CONTINUOUS
10
245.494
20
-121.337
11
244.791
21
-121.246
0
LINE
8
BLACK
6
CONTINUOUS
10
244.791
20
-121.246
11
242
21
-121.246
0
LINE
8
BLACK
6
CONTINUOUS
10
242
20
-121.246
11
241.998
21
-121.247
0
LINE
8
BLACK
6
CONTINUOUS
10
241.998
20
-121.247
11
241.994
21
-121.246
0
LINE
8
BLACK
6
CONTINUOUS
10
241.994
20
-121.246
11
241.989
21
-121.245
0
LINE
8
BLACK
6
CONTINUOUS
10
241.989
20
-121.245
11
241.985
21
-121.242
0
LINE
8
BLACK
6
CONTINUOUS
10
241.985
20
-121.242
11
241.981
21
-121.239
0
LINE
8
BLACK
6
CONTINUOUS
10
241.981
20
-121.239
11
241.979
21
-121.237
0
LINE
8
BLACK
6
CONTINUOUS
10
241.979
20
-121.237
11
241.978
21
-121.235
0
LINE
8
BLACK
6
CONTINUOUS
10
241.978
20
-121.235
11
241.975
21
-121.231
0
LINE
8
BLACK
6
CONTINUOUS
10
241.975
20
-121.231
11
241.974
21
-121.226
0
LINE
8
BLACK
6
CONTINUOUS
10
241.974
20
-121.226
11
241.973
21
-121.221
0
LINE
8
BLACK
6
CONTINUOUS
10
241.973
20
-121.221
11
241.974
21
-121.22
0
LINE
8
BLACK
6
CONTINUOUS
10
241.974
20
-121.22
11
241.974
21
-61.3411
0
LINE
8
BLACK
6
CONTINUOUS
10
241.974
20
-61.3411
11
241.974
21
-61.3411
0
LINE
8
BLACK
6
CONTINUOUS
10
241.974
20
-61.3411
11
241.973
21
-61.3326
0
LINE
8
BLACK
6
CONTINUOUS
10
241.973
20
-61.3326
11
241.945
21
-61.0651
0
LINE
8
BLACK
6
CONTINUOUS
10
241.945
20
-61.0651
11
241.866
21
-60.8094
0
LINE
8
BLACK
6
CONTINUOUS
10
241.866
20
-60.8094
11
241.739
21
-60.5739
0
LINE
8
BLACK
6
CONTINUOUS
10
241.739
20
-60.5739
11
241.568
21
-60.3676
0
LINE
8
BLACK
6
CONTINUOUS
10
241.568
20
-60.3676
11
241.361
21
-60.1983
0
LINE
8
BLACK
6
CONTINUOUS
10
241.361
20
-60.1983
11
241.124
21
-60.0726
0
LINE
8
BLACK
6
CONTINUOUS
10
241.124
20
-60.0726
11
240.868
21
-59.9952
0
LINE
8
BLACK
6
CONTINUOUS
10
240.868
20
-59.9952
11
240.6
21
-59.969
0
LINE
8
BLACK
6
CONTINUOUS
10
240.6
20
-59.969
11
228.474
21
-59.969
0
LINE
8
BLACK
6
CONTINUOUS
10
228.474
20
-59.969
11
228.473
21
-59.9691
0
LINE
8
BLACK
6
CONTINUOUS
10
228.473
20
-59.9691
11
228.472
21
-59.969
0
LINE
8
BLACK
6
CONTINUOUS
10
228.472
20
-59.969
11
228.472
21
-59.969
0
LINE
8
BLACK
6
CONTINUOUS
10
228.472
20
-59.969
11
228.468
21
-59.9686
0
LINE
8
BLACK
6
CONTINUOUS
10
228.468
20
-59.9686
11
228.468
21
-59.9686
0
LINE
8
BLACK
6
CONTINUOUS
10
228.468
20
-59.9686
11
228.468
21
-59.9686
0
LINE
8
BLACK
6
CONTINUOUS
10
228.468
20
-59.9686
11
228.467
21
-59.9682
0
LINE
8
BLACK
6
CONTINUOUS
10
228.467
20
-59.9682
11
228.463
21
-59.9672
0
LINE
8
BLACK
6
CONTINUOUS
10
228.463
20
-59.9672
11
228.463
21
-59.9672
0
LINE
8
BLACK
6
CONTINUOUS
10
228.463
20
-59.9672
11
228.463
21
-59.9672
0
LINE
8
BLACK
6
CONTINUOUS
10
228.463
20
-59.9672
11
228.463
21
-59.967
0
LINE
8
BLACK
6
CONTINUOUS
10
228.463
20
-59.967
11
228.459
21
-59.9649
0
LINE
8
BLACK
6
CONTINUOUS
10
228.459
20
-59.9649
11
228.455
21
-59.9618
0
LINE
8
BLACK
6
CONTINUOUS
10
228.455
20
-59.9618
11
228.452
21
-59.958
0
LINE
8
BLACK
6
CONTINUOUS
10
228.452
20
-59.958
11
228.452
21
-59.958
0
LINE
8
BLACK
6
CONTINUOUS
10
228.452
20
-59.958
11
228.452
21
-59.9579
0
LINE
8
BLACK
6
CONTINUOUS
10
228.452
20
-59.9579
11
228.451
21
-59.9567
0
LINE
8
BLACK
6
CONTINUOUS
10
228.451
20
-59.9567
11
228.45
21
-59.9536
0
LINE
8
BLACK
6
CONTINUOUS
10
228.45
20
-59.9536
11
228.448
21
-59.9489
0
LINE
8
BLACK
6
CONTINUOUS
10
228.448
20
-59.9489
11
228.448
21
-59.944
0
LINE
8
BLACK
6
CONTINUOUS
10
228.448
20
-59.944
11
228.448
21
-59.9428
0
LINE
8
BLACK
6
CONTINUOUS
10
228.448
20
-59.9428
11
228.449
21
-57.2752
0
LINE
8
BLACK
6
CONTINUOUS
10
228.449
20
-57.2752
11
228.391
21
-56.617
0
LINE
8
BLACK
6
CONTINUOUS
10
228.391
20
-56.617
11
228.198
21
-55.9359
0
LINE
8
BLACK
6
CONTINUOUS
10
228.198
20
-55.9359
11
227.876
21
-55.3053
0
LINE
8
BLACK
6
CONTINUOUS
10
227.876
20
-55.3053
11
227.438
21
-54.7493
0
LINE
8
BLACK
6
CONTINUOUS
10
227.438
20
-54.7493
11
226.9
21
-54.289
0
LINE
8
BLACK
6
CONTINUOUS
10
226.9
20
-54.289
11
226.283
21
-53.9419
0
LINE
8
BLACK
6
CONTINUOUS
10
226.283
20
-53.9419
11
225.61
21
-53.7213
0
LINE
8
BLACK
6
CONTINUOUS
10
225.61
20
-53.7213
11
224.907
21
-53.6355
0
LINE
8
BLACK
6
CONTINUOUS
10
224.907
20
-53.6355
11
224.201
21
-53.6879
0
LINE
8
BLACK
6
CONTINUOUS
10
224.201
20
-53.6879
11
223.519
21
-53.8764
0
LINE
8
BLACK
6
CONTINUOUS
10
223.519
20
-53.8764
11
222.886
21
-54.1939
0
LINE
8
BLACK
6
CONTINUOUS
10
222.886
20
-54.1939
11
222.327
21
-54.6282
0
LINE
8
BLACK
6
CONTINUOUS
10
222.327
20
-54.6282
11
221.863
21
-55.1629
0
LINE
8
BLACK
6
CONTINUOUS
10
221.863
20
-55.1629
11
221.512
21
-55.7775
0
LINE
8
BLACK
6
CONTINUOUS
10
221.512
20
-55.7775
11
221.286
21
-56.4486
0
LINE
8
BLACK
6
CONTINUOUS
10
221.286
20
-56.4486
11
221.195
21
-57.1516
0
LINE
8
BLACK
6
CONTINUOUS
10
221.195
20
-57.1516
11
221.195
21
-59.9428
0
LINE
8
BLACK
6
CONTINUOUS
10
221.195
20
-59.9428
11
221.196
21
-59.944
0
LINE
8
BLACK
6
CONTINUOUS
10
221.196
20
-59.944
11
221.195
21
-59.9489
0
LINE
8
BLACK
6
CONTINUOUS
10
221.195
20
-59.9489
11
221.194
21
-59.9536
0
LINE
8
BLACK
6
CONTINUOUS
10
221.194
20
-59.9536
11
221.191
21
-59.958
0
LINE
8
BLACK
6
CONTINUOUS
10
221.191
20
-59.958
11
221.188
21
-59.9618
0
LINE
8
BLACK
6
CONTINUOUS
10
221.188
20
-59.9618
11
221.184
21
-59.9649
0
LINE
8
BLACK
6
CONTINUOUS
10
221.184
20
-59.9649
11
221.18
21
-59.9672
0
LINE
8
BLACK
6
CONTINUOUS
10
221.18
20
-59.9672
11
221.175
21
-59.9686
0
LINE
8
BLACK
6
CONTINUOUS
10
221.175
20
-59.9686
11
221.173
21
-59.9688
0
LINE
8
BLACK
6
CONTINUOUS
10
221.173
20
-59.9688
11
221.171
21
-59.9691
0
LINE
8
BLACK
6
CONTINUOUS
10
221.171
20
-59.9691
11
221.169
21
-59.969
0
LINE
8
BLACK
6
CONTINUOUS
10
221.169
20
-59.969
11
194.69
21
-59.969
0
LINE
8
BLACK
6
CONTINUOUS
10
194.69
20
-59.969
11
194.689
21
-59.9689
0
LINE
8
BLACK
6
CONTINUOUS
10
194.689
20
-59.9689
11
194.689
21
-59.9689
0
LINE
8
BLACK
6
CONTINUOUS
10
194.689
20
-59.9689
11
194.417
21
-59.9423
0
LINE
8
BLACK
6
CONTINUOUS
10
194.417
20
-59.9423
11
194.417
21
-59.9422
0
LINE
8
BLACK
6
CONTINUOUS
10
194.417
20
-59.9422
11
194.415
21
-59.9418
0
LINE
8
BLACK
6
CONTINUOUS
10
194.415
20
-59.9418
11
194.412
21
-59.9413
0
LINE
8
BLACK
6
CONTINUOUS
10
194.412
20
-59.9413
11
194.151
21
-59.8625
0
LINE
8
BLACK
6
CONTINUOUS
10
194.151
20
-59.8625
11
194.151
21
-59.8624
0
LINE
8
BLACK
6
CONTINUOUS
10
194.151
20
-59.8624
11
194.149
21
-59.8615
0
LINE
8
BLACK
6
CONTINUOUS
10
194.149
20
-59.8615
11
194.147
21
-59.8607
0
LINE
8
BLACK
6
CONTINUOUS
10
194.147
20
-59.8607
11
193.906
21
-59.7327
0
LINE
8
BLACK
6
CONTINUOUS
10
193.906
20
-59.7327
11
193.906
21
-59.7325
0
LINE
8
BLACK
6
CONTINUOUS
10
193.906
20
-59.7325
11
193.904
21
-59.7312
0
LINE
8
BLACK
6
CONTINUOUS
10
193.904
20
-59.7312
11
193.902
21
-59.73
0
LINE
8
BLACK
6
CONTINUOUS
10
193.902
20
-59.73
11
193.691
21
-59.5576
0
LINE
8
BLACK
6
CONTINUOUS
10
193.691
20
-59.5576
11
193.691
21
-59.5574
0
LINE
8
BLACK
6
CONTINUOUS
10
193.691
20
-59.5574
11
193.689
21
-59.5558
0
LINE
8
BLACK
6
CONTINUOUS
10
193.689
20
-59.5558
11
193.687
21
-59.5542
0
LINE
8
BLACK
6
CONTINUOUS
10
193.687
20
-59.5542
11
193.514
21
-59.3441
0
LINE
8
BLACK
6
CONTINUOUS
10
193.514
20
-59.3441
11
193.513
21
-59.3439
0
LINE
8
BLACK
6
CONTINUOUS
10
193.513
20
-59.3439
11
193.512
21
-59.342
0
LINE
8
BLACK
6
CONTINUOUS
10
193.512
20
-59.342
11
193.511
21
-59.3401
0
LINE
8
BLACK
6
CONTINUOUS
10
193.511
20
-59.3401
11
193.381
21
-59.1002
0
LINE
8
BLACK
6
CONTINUOUS
10
193.381
20
-59.1002
11
193.381
21
-59.0999
0
LINE
8
BLACK
6
CONTINUOUS
10
193.381
20
-59.0999
11
193.38
21
-59.0978
0
LINE
8
BLACK
6
CONTINUOUS
10
193.38
20
-59.0978
11
193.379
21
-59.0958
0
LINE
8
BLACK
6
CONTINUOUS
10
193.379
20
-59.0958
11
193.299
21
-58.8353
0
LINE
8
BLACK
6
CONTINUOUS
10
193.299
20
-58.8353
11
193.299
21
-58.835
0
LINE
8
BLACK
6
CONTINUOUS
10
193.299
20
-58.835
11
193.298
21
-58.8327
0
LINE
8
BLACK
6
CONTINUOUS
10
193.298
20
-58.8327
11
193.298
21
-58.8305
0
LINE
8
BLACK
6
CONTINUOUS
10
193.298
20
-58.8305
11
193.269
21
-58.5594
0
LINE
8
BLACK
6
CONTINUOUS
10
193.269
20
-58.5594
11
193.269
21
-58.559
0
LINE
8
BLACK
6
CONTINUOUS
10
193.269
20
-58.559
11
193.269
21
-58.5579
0
LINE
8
BLACK
6
CONTINUOUS
10
193.269
20
-58.5579
11
193.269
21
-58.5568
0
LINE
8
BLACK
6
CONTINUOUS
10
193.269
20
-58.5568
11
193.269
21
-58.5482
0
LINE
8
BLACK
6
CONTINUOUS
10
193.269
20
-58.5482
11
193.269
21
-58.5482
0
LINE
8
BLACK
6
CONTINUOUS
10
193.269
20
-58.5482
11
193.269
21
-58.5474
0
LINE
8
BLACK
6
CONTINUOUS
10
193.269
20
-58.5474
11
193.269
21
-58.5471
0
LINE
8
BLACK
6
CONTINUOUS
10
193.269
20
-58.5471
11
193.269
21
-58.5467
0
LINE
8
BLACK
6
CONTINUOUS
10
193.269
20
-58.5467
11
193.269
21
-56.5786
0
LINE
8
BLACK
6
CONTINUOUS
10
193.269
20
-56.5786
11
193.269
21
-56.5701
0
LINE
8
BLACK
6
CONTINUOUS
10
193.269
20
-56.5701
11
193.241
21
-56.3026
0
LINE
8
BLACK
6
CONTINUOUS
10
193.241
20
-56.3026
11
193.162
21
-56.0469
0
LINE
8
BLACK
6
CONTINUOUS
10
193.162
20
-56.0469
11
193.034
21
-55.8114
0
LINE
8
BLACK
6
CONTINUOUS
10
193.034
20
-55.8114
11
192.864
21
-55.6051
0
LINE
8
BLACK
6
CONTINUOUS
10
192.864
20
-55.6051
11
192.656
21
-55.4358
0
LINE
8
BLACK
6
CONTINUOUS
10
192.656
20
-55.4358
11
192.42
21
-55.3101
0
LINE
8
BLACK
6
CONTINUOUS
10
192.42
20
-55.3101
11
192.163
21
-55.2327
0
LINE
8
BLACK
6
CONTINUOUS
10
192.163
20
-55.2327
11
191.896
21
-55.2065
0
LINE
8
BLACK
6
CONTINUOUS
10
191.896
20
-55.2065
11
175.64
21
-55.2065
0
LINE
8
BLACK
6
CONTINUOUS
10
175.64
20
-55.2065
11
175.639
21
-55.2064
0
LINE
8
BLACK
6
CONTINUOUS
10
175.639
20
-55.2064
11
175.639
21
-55.2064
0
LINE
8
BLACK
6
CONTINUOUS
10
175.639
20
-55.2064
11
175.367
21
-55.1798
0
LINE
8
BLACK
6
CONTINUOUS
10
175.367
20
-55.1798
11
175.367
21
-55.1797
0
LINE
8
BLACK
6
CONTINUOUS
10
175.367
20
-55.1797
11
175.365
21
-55.1793
0
LINE
8
BLACK
6
CONTINUOUS
10
175.365
20
-55.1793
11
175.362
21
-55.1788
0
LINE
8
BLACK
6
CONTINUOUS
10
175.362
20
-55.1788
11
175.101
21
-55.1
0
LINE
8
BLACK
6
CONTINUOUS
10
175.101
20
-55.1
11
175.101
21
-55.0999
0
LINE
8
BLACK
6
CONTINUOUS
10
175.101
20
-55.0999
11
175.099
21
-55.099
0
LINE
8
BLACK
6
CONTINUOUS
10
175.099
20
-55.099
11
175.097
21
-55.0982
0
LINE
8
BLACK
6
CONTINUOUS
10
175.097
20
-55.0982
11
174.856
21
-54.9702
0
LINE
8
BLACK
6
CONTINUOUS
10
174.856
20
-54.9702
11
174.856
21
-54.97
0
LINE
8
BLACK
6
CONTINUOUS
10
174.856
20
-54.97
11
174.854
21
-54.9687
0
LINE
8
BLACK
6
CONTINUOUS
10
174.854
20
-54.9687
11
174.852
21
-54.9675
0
LINE
8
BLACK
6
CONTINUOUS
10
174.852
20
-54.9675
11
174.641
21
-54.7951
0
LINE
8
BLACK
6
CONTINUOUS
10
174.641
20
-54.7951
11
174.641
21
-54.7949
0
LINE
8
BLACK
6
CONTINUOUS
10
174.641
20
-54.7949
11
174.639
21
-54.7933
0
LINE
8
BLACK
6
CONTINUOUS
10
174.639
20
-54.7933
11
174.637
21
-54.7917
0
LINE
8
BLACK
6
CONTINUOUS
10
174.637
20
-54.7917
11
174.464
21
-54.5816
0
LINE
8
BLACK
6
CONTINUOUS
10
174.464
20
-54.5816
11
174.463
21
-54.5814
0
LINE
8
BLACK
6
CONTINUOUS
10
174.463
20
-54.5814
11
174.462
21
-54.5795
0
LINE
8
BLACK
6
CONTINUOUS
10
174.462
20
-54.5795
11
174.461
21
-54.5776
0
LINE
8
BLACK
6
CONTINUOUS
10
174.461
20
-54.5776
11
174.331
21
-54.3377
0
LINE
8
BLACK
6
CONTINUOUS
10
174.331
20
-54.3377
11
174.331
21
-54.3374
0
LINE
8
BLACK
6
CONTINUOUS
10
174.331
20
-54.3374
11
174.33
21
-54.3353
0
LINE
8
BLACK
6
CONTINUOUS
10
174.33
20
-54.3353
11
174.329
21
-54.3333
0
LINE
8
BLACK
6
CONTINUOUS
10
174.329
20
-54.3333
11
174.249
21
-54.0728
0
LINE
8
BLACK
6
CONTINUOUS
10
174.249
20
-54.0728
11
174.249
21
-54.0725
0
LINE
8
BLACK
6
CONTINUOUS
10
174.249
20
-54.0725
11
174.248
21
-54.0702
0
LINE
8
BLACK
6
CONTINUOUS
10
174.248
20
-54.0702
11
174.248
21
-54.068
0
LINE
8
BLACK
6
CONTINUOUS
10
174.248
20
-54.068
11
174.219
21
-53.7969
0
LINE
8
BLACK
6
CONTINUOUS
10
174.219
20
-53.7969
11
174.219
21
-53.7965
0
LINE
8
BLACK
6
CONTINUOUS
10
174.219
20
-53.7965
11
174.219
21
-53.7954
0
LINE
8
BLACK
6
CONTINUOUS
10
174.219
20
-53.7954
11
174.219
21
-53.7943
0
LINE
8
BLACK
6
CONTINUOUS
10
174.219
20
-53.7943
11
174.219
21
-53.7857
0
LINE
8
BLACK
6
CONTINUOUS
10
174.219
20
-53.7857
11
174.219
21
-53.7857
0
LINE
8
BLACK
6
CONTINUOUS
10
174.219
20
-53.7857
11
174.219
21
-53.7849
0
LINE
8
BLACK
6
CONTINUOUS
10
174.219
20
-53.7849
11
174.219
21
-53.7846
0
LINE
8
BLACK
6
CONTINUOUS
10
174.219
20
-53.7846
11
174.219
21
-53.7842
0
LINE
8
BLACK
6
CONTINUOUS
10
174.219
20
-53.7842
11
174.219
21
-53.4036
0
LINE
8
BLACK
6
CONTINUOUS
10
174.219
20
-53.4036
11
174.219
21
-53.4009
0
LINE
8
BLACK
6
CONTINUOUS
10
174.219
20
-53.4009
11
174.208
21
-53.2936
0
LINE
8
BLACK
6
CONTINUOUS
10
174.208
20
-53.2936
11
174.176
21
-53.1918
0
LINE
8
BLACK
6
CONTINUOUS
10
174.176
20
-53.1918
11
174.125
21
-53.098
0
LINE
8
BLACK
6
CONTINUOUS
10
174.125
20
-53.098
11
174.057
21
-53.0158
0
LINE
8
BLACK
6
CONTINUOUS
10
174.057
20
-53.0158
11
173.975
21
-52.9484
0
LINE
8
BLACK
6
CONTINUOUS
10
173.975
20
-52.9484
11
173.881
21
-52.8983
0
LINE
8
BLACK
6
CONTINUOUS
10
173.881
20
-52.8983
11
173.779
21
-52.8675
0
LINE
8
BLACK
6
CONTINUOUS
10
173.779
20
-52.8675
11
173.671
21
-52.857
0
LINE
8
BLACK
6
CONTINUOUS
10
173.671
20
-52.857
11
151.829
21
-52.857
0
LINE
8
BLACK
6
CONTINUOUS
10
151.829
20
-52.857
11
151.826
21
-52.857
0
LINE
8
BLACK
6
CONTINUOUS
10
151.826
20
-52.857
11
151.719
21
-52.8683
0
LINE
8
BLACK
6
CONTINUOUS
10
151.719
20
-52.8683
11
151.617
21
-52.8998
0
LINE
8
BLACK
6
CONTINUOUS
10
151.617
20
-52.8998
11
151.523
21
-52.9505
0
LINE
8
BLACK
6
CONTINUOUS
10
151.523
20
-52.9505
11
151.441
21
-53.0185
0
LINE
8
BLACK
6
CONTINUOUS
10
151.441
20
-53.0185
11
151.373
21
-53.1011
0
LINE
8
BLACK
6
CONTINUOUS
10
151.373
20
-53.1011
11
151.323
21
-53.1953
0
LINE
8
BLACK
6
CONTINUOUS
10
151.323
20
-53.1953
11
151.293
21
-53.2974
0
LINE
8
BLACK
6
CONTINUOUS
10
151.293
20
-53.2974
11
151.282
21
-53.4047
0
LINE
8
BLACK
6
CONTINUOUS
10
151.282
20
-53.4047
11
151.282
21
-53.7222
0
LINE
8
BLACK
6
CONTINUOUS
10
151.282
20
-53.7222
11
151.282
21
-53.7234
0
LINE
8
BLACK
6
CONTINUOUS
10
151.282
20
-53.7234
11
151.282
21
-53.7234
0
LINE
8
BLACK
6
CONTINUOUS
10
151.282
20
-53.7234
11
151.255
21
-53.9948
0
LINE
8
BLACK
6
CONTINUOUS
10
151.255
20
-53.9948
11
151.255
21
-53.9951
0
LINE
8
BLACK
6
CONTINUOUS
10
151.255
20
-53.9951
11
151.255
21
-53.9974
0
LINE
8
BLACK
6
CONTINUOUS
10
151.255
20
-53.9974
11
151.254
21
-53.9996
0
LINE
8
BLACK
6
CONTINUOUS
10
151.254
20
-53.9996
11
151.176
21
-54.2606
0
LINE
8
BLACK
6
CONTINUOUS
10
151.176
20
-54.2606
11
151.175
21
-54.2609
0
LINE
8
BLACK
6
CONTINUOUS
10
151.175
20
-54.2609
11
151.175
21
-54.263
0
LINE
8
BLACK
6
CONTINUOUS
10
151.175
20
-54.263
11
151.174
21
-54.2651
0
LINE
8
BLACK
6
CONTINUOUS
10
151.174
20
-54.2651
11
151.046
21
-54.5058
0
LINE
8
BLACK
6
CONTINUOUS
10
151.046
20
-54.5058
11
151.045
21
-54.5061
0
LINE
8
BLACK
6
CONTINUOUS
10
151.045
20
-54.5061
11
151.044
21
-54.508
0
LINE
8
BLACK
6
CONTINUOUS
10
151.044
20
-54.508
11
151.043
21
-54.5099
0
LINE
8
BLACK
6
CONTINUOUS
10
151.043
20
-54.5099
11
150.871
21
-54.7212
0
LINE
8
BLACK
6
CONTINUOUS
10
150.871
20
-54.7212
11
150.87
21
-54.7214
0
LINE
8
BLACK
6
CONTINUOUS
10
150.87
20
-54.7214
11
150.869
21
-54.7231
0
LINE
8
BLACK
6
CONTINUOUS
10
150.869
20
-54.7231
11
150.867
21
-54.7246
0
LINE
8
BLACK
6
CONTINUOUS
10
150.867
20
-54.7246
11
150.657
21
-54.8984
0
LINE
8
BLACK
6
CONTINUOUS
10
150.657
20
-54.8984
11
150.657
21
-54.8986
0
LINE
8
BLACK
6
CONTINUOUS
10
150.657
20
-54.8986
11
150.655
21
-54.8999
0
LINE
8
BLACK
6
CONTINUOUS
10
150.655
20
-54.8999
11
150.653
21
-54.9012
0
LINE
8
BLACK
6
CONTINUOUS
10
150.653
20
-54.9012
11
150.413
21
-55.0308
0
LINE
8
BLACK
6
CONTINUOUS
10
150.413
20
-55.0308
11
150.413
21
-55.031
0
LINE
8
BLACK
6
CONTINUOUS
10
150.413
20
-55.031
11
150.411
21
-55.0319
0
LINE
8
BLACK
6
CONTINUOUS
10
150.411
20
-55.0319
11
150.409
21
-55.0327
0
LINE
8
BLACK
6
CONTINUOUS
10
150.409
20
-55.0327
11
150.148
21
-55.1133
0
LINE
8
BLACK
6
CONTINUOUS
10
150.148
20
-55.1133
11
150.148
21
-55.1135
0
LINE
8
BLACK
6
CONTINUOUS
10
150.148
20
-55.1135
11
150.146
21
-55.1139
0
LINE
8
BLACK
6
CONTINUOUS
10
150.146
20
-55.1139
11
150.144
21
-55.1143
0
LINE
8
BLACK
6
CONTINUOUS
10
150.144
20
-55.1143
11
149.872
21
-55.1428
0
LINE
8
BLACK
6
CONTINUOUS
10
149.872
20
-55.1428
11
149.872
21
-55.1429
0
LINE
8
BLACK
6
CONTINUOUS
10
149.872
20
-55.1429
11
149.871
21
-55.1429
0
LINE
8
BLACK
6
CONTINUOUS
10
149.871
20
-55.1429
11
149.87
21
-55.143
0
LINE
8
BLACK
6
CONTINUOUS
10
149.87
20
-55.143
11
149.861
21
-55.143
0
LINE
8
BLACK
6
CONTINUOUS
10
149.861
20
-55.143
11
149.861
21
-55.143
0
LINE
8
BLACK
6
CONTINUOUS
10
149.861
20
-55.143
11
132.779
21
-55.143
0
LINE
8
BLACK
6
CONTINUOUS
10
132.779
20
-55.143
11
132.776
21
-55.143
  0
ENDSEC
  0
EOF
