<?xml version="1.0" standalone="no"?>
 <!DOCTYPE svg PUBLIC "-//W3C//DTD SVG 1.1//EN" 
 "http://www.w3.org/Graphics/SVG/1.1/DTD/svg11.dtd"> 
<svg xmlns="http://www.w3.org/2000/svg" version="1.1" 
    width="59.4004cm" height="41.9989cm" viewBox="0 0 233860 165350 ">
<title>SVG Picture created as Apollo-Edge_Cuts.svg date 2020/02/28 02:32:33 </title>
  <desc>Picture generated by PCBNEW </desc>
<g style="fill:#000000; fill-opacity:1;stroke:#000000; stroke-opacity:1;
stroke-linecap:round; stroke-linejoin:round; "
 transform="translate(0 0) scale(1 1)">
</g>
<g style="fill:#000000; fill-opacity:0.0; 
stroke:#000000; stroke-width:-0.000393701; stroke-opacity:1; 
stroke-linecap:round; stroke-linejoin:round;">
</g>
<g style="fill:#000000; fill-opacity:0.0; 
stroke:#000000; stroke-width:19.685; stroke-opacity:1; 
stroke-linecap:round; stroke-linejoin:round;">
<path d="M43025 51150
L44125 51150
" />
<path d="M43073.9 48274.6 A1438.04 1438.04 0.0 0 0 43025 51150 " />
<path d="M43073 48274
L44125 48275
" />
<path d="M44125 21575
L44125 22675
" />
<path d="M47000.4 21623.9 A1438.04 1438.04 0.0 0 0 44125 21575 " />
<path d="M47000 21623
L47000 22675
" />
<path d="M87075 22500
L87075 23600
" />
<path d="M89950.4 22548.9 A1438.04 1438.04 0.0 0 0 87075 22500 " />
<path d="M89950 22548
L89950 23600
" />
<path d="M96375 47725
L95275 47725
" />
<path d="M47865 67975
L49670 66795
" />
<path d="M53425 64625
L49670 66795
" />
<path d="M47865 67975
L48350 68750
" />
<path d="M45425 69550
L45927 70237
" />
<path d="M45927.5 70237.9 A1421.66 1421.66 0.0 0 0 48350 68750 " />
<path d="M44124 22675
L44125 48275
" />
<path d="M69620 62305
L69620 61625
" />
<path d="M69620 62305.9 A1777.63 1777.63 0.0 0 0 73175.3 62305.9 " />
<path d="M73175 62305
L73175 61625
" />
<path d="M96326 50600
L95275 50600
" />
<path d="M96326.1 50600.4 A1438.04 1438.04 0.0 0 0 96375 47725 " />
<path d="M45425 69550
L40210 72945
" />
<path d="M44125 51150
L44125 53869
" />
<path d="M89950 23600
L94725 23600
" />
<path d="M95275 50600
L95275 62950
" />
<path d="M73175 61625
L74000 61625
" />
<path d="M43927.8 54200 A375 375 0.0 0 0 44125 53869.8 " />
<path d="M32750 61450 A362.353 362.353 0.0 0 0 32631 61921.5 " />
<path d="M43927 54200
L32750 61450
" />
<path d="M39738.5 72826 A362.353 362.353 0.0 0 0 40210 72945 " />
<path d="M32630 61921
L39738 72825
" />
<path d="M60400 61900
L53425 64625
" />
<path d="M67500 61625
L60400 61900
" />
<path d="M74550 62950
L74550 62175
" />
<path d="M52050 21925
L52050 22125
" />
<path d="M59550 21025
L59550 21150
" />
<path d="M68600 21025
L68600 21175
" />
<path d="M76100 22275
L76100 23050
" />
<path d="M67500 61625
L69620 61625
" />
<path d="M75100 63500
L94725 63500
" />
<path d="M47000 22675
L51500 22675
" />
<path d="M52275 21700
L59000 21700
" />
<path d="M59775 20800
L68375 20800
" />
<path d="M69150 21725
L75550 21725
" />
<path d="M76650 23600
L87075 23600
" />
<path d="M52275 21700 A225 225 0.0 0 0 52050 21925 " />
<path d="M59775 20800 A225 225 0.0 0 0 59550 21025 " />
<path d="M68600 21025 A225 225 0.0 0 0 68375 20800 " />
<path d="M74550 62175 A550 550 0.0 0 0 74000 61625 " />
<path d="M74550 62950 A550 550 0.0 0 0 75100 63500 " />
<path d="M94725 63500 A550 550 0.0 0 0 95275 62950 " />
<path d="M51500 22675 A550 550 0.0 0 0 52050 22125 " />
<path d="M59000 21700 A550 550 0.0 0 0 59550 21150 " />
<path d="M68600 21175 A550 550 0.0 0 0 69150 21725 " />
<path d="M76100 22275 A550 550 0.0 0 0 75550 21725 " />
<path d="M76100 23050 A550 550 0.0 0 0 76650 23600 " />
<path d="M95275 24150 A550 550 0.0 0 0 94725 23600 " />
<path d="M95275 47725
L95275 24150
" />
<g >
</g>
<g >
</g>
<g >
</g>
<g >
</g>
<g >
</g>
<g >
</g>
<g >
</g>
<g >
</g>
<g >
</g>
<g >
</g>
<g >
</g>
<g >
</g>
<g >
</g>
<g >
</g>
<g >
</g>
<g >
</g>
<g >
</g>
<g >
</g>
<g >
</g>
<g >
</g>
<g >
</g>
<g >
</g>
<g >
</g>
<g >
</g>
<g >
</g>
<g >
</g>
<g >
</g>
<g >
</g>
<g >
</g>
<g >
</g>
<g >
</g>
<g >
</g>
<g >
</g>
<g >
</g>
<g >
</g>
<g >
</g>
<g >
</g>
<g >
</g>
</g> 
</svg>
