<?xml version="1.0" standalone="no"?>
 <!DOCTYPE svg PUBLIC "-//W3C//DTD SVG 1.1//EN" 
 "http://www.w3.org/Graphics/SVG/1.1/DTD/svg11.dtd"> 
<svg xmlns="http://www.w3.org/2000/svg" version="1.1" 
    width="59.4004cm" height="41.9989cm" viewBox="0 0 233860 165350 ">
<title>SVG Picture created as ApolloRight-Edge_Cuts.svg date 2020/02/22 19:24:56 </title>
  <desc>Picture generated by PCBNEW </desc>
<g style="fill:#000000; fill-opacity:1;stroke:#000000; stroke-opacity:1;
stroke-linecap:round; stroke-linejoin:round; "
 transform="translate(0 0) scale(1 1)">
</g>
<g style="fill:#000000; fill-opacity:0.0; 
stroke:#000000; stroke-width:-0.000393701; stroke-opacity:1; 
stroke-linecap:round; stroke-linejoin:round;">
</g>
<g style="fill:#000000; fill-opacity:0.0; 
stroke:#000000; stroke-width:19.685; stroke-opacity:1; 
stroke-linecap:round; stroke-linejoin:round;">
<path d="M121450 61675
L118778 61675
" />
<path d="M106050 23950 A225 225 0.0 0 0 106275 24175 " />
<path d="M136100 23400 A225 225 0.0 0 0 135875 23175 " />
<path d="M132050 23175 A225 225 0.0 0 0 131825 23400 " />
<path d="M102075 23175 A225 225 0.0 0 0 101850 23400 " />
<path d="M106050 23400 A225 225 0.0 0 0 105825 23175 " />
<path d="M91203.5 72406 A362.353 362.353 0.0 0 0 91675 72525 " />
<path d="M85569 63078.5 A362.353 362.353 0.0 0 0 85450 63550 " />
<path d="M96252.8 56125 A375 375 0.0 0 0 96450 55794.8 " />
<path d="M118779 61674.9 A1483.91 1483.91 0.0 0 0 117551 60899.9 " />
<path d="M126450 62225 A550 550 0.0 0 0 125900 61675 " />
<path d="M126450 63000 A550 550 0.0 0 0 127000 63550 " />
<path d="M144650 63550 A550 550 0.0 0 0 145200 63000 " />
<path d="M97000 25125 A550 550 0.0 0 0 96450 25675 " />
<path d="M101300 25125 A550 550 0.0 0 0 101850 24575 " />
<path d="M110900 24175 A550 550 0.0 0 0 111450 23625 " />
<path d="M118950 23625 A550 550 0.0 0 0 119500 24175 " />
<path d="M126450 24725 A550 550 0.0 0 0 125900 24175 " />
<path d="M126450 25500 A550 550 0.0 0 0 127000 26050 " />
<path d="M131275 26050 A550 550 0.0 0 0 131825 25500 " />
<path d="M136100 25500 A550 550 0.0 0 0 136650 26050 " />
<path d="M145200 26600 A550 550 0.0 0 0 144650 26050 " />
<path d="M110900 24175
L106275 24175
" />
<path d="M96450 55794
L96450 25675
" />
<path d="M85569 63078
L96252 56125
" />
<path d="M91203 72405
L85450 63550
" />
<path d="M103940 64560
L91675 72525
" />
<path d="M111550 61550
L103940 64560
" />
<path d="M117551 60899
L111550 61550
" />
<path d="M125900 61675
L121450 61675
" />
<path d="M126450 63000
L126450 62225
" />
<path d="M144650 63550
L127000 63550
" />
<path d="M145200 26600
L145200 63000
" />
<path d="M136650 26050
L144650 26050
" />
<path d="M136100 25500
L136100 23400
" />
<path d="M132050 23175
L135875 23175
" />
<path d="M131825 25500
L131825 23400
" />
<path d="M127000 26050
L131275 26050
" />
<path d="M126450 24725
L126450 25500
" />
<path d="M119500 24175
L125900 24175
" />
<path d="M118950 23250
L118950 23625
" />
<path d="M111450 23250
L118950 23250
" />
<path d="M111450 23625
L111450 23250
" />
<path d="M106050 23950
L106050 23400
" />
<path d="M102075 23175
L105825 23175
" />
<path d="M101850 24575
L101850 23400
" />
<path d="M97000 25125
L101300 25125
" />
<g >
</g>
<g >
</g>
<g >
</g>
<g >
</g>
<g >
</g>
<g >
</g>
<g >
</g>
<g >
</g>
<g >
</g>
<g >
</g>
<g >
</g>
<g >
</g>
<g >
</g>
<g >
</g>
<g >
</g>
<g >
</g>
<g >
</g>
<g >
</g>
<g >
</g>
<g >
</g>
<g >
</g>
<g >
</g>
<g >
</g>
<g >
</g>
<g >
</g>
<g >
</g>
<g >
</g>
<g >
</g>
<g >
</g>
<g >
</g>
<g >
</g>
<g >
</g>
<g >
</g>
<g >
</g>
<g >
</g>
<g >
</g>
<g >
</g>
<g >
</g>
<g >
</g>
<g >
</g>
<g >
</g>
<g >
</g>
<g >
</g>
<g >
</g>
<g >
</g>
<g >
</g>
<g >
</g>
<g >
</g>
<g >
</g>
<g >
</g>
<g >
</g>
<g >
</g>
<g >
</g>
<g >
</g>
<g >
</g>
<g >
</g>
<g >
</g>
<g >
</g>
<g >
</g>
<g >
</g>
<g >
</g>
<g >
</g>
<g >
</g>
<g >
</g>
<g >
</g>
<g >
</g>
<g >
</g>
<g >
</g>
<g >
</g>
<g >
</g>
<g >
</g>
<g >
</g>
<g >
</g>
<g >
</g>
<g >
</g>
<g >
</g>
<g >
</g>
<g >
</g>
<g >
</g>
<g >
</g>
<g >
</g>
<g >
</g>
<g >
</g>
<g >
</g>
<g >
</g>
<g >
</g>
<g >
</g>
<g >
</g>
<g >
</g>
<g >
</g>
<g >
</g>
</g> 
</svg>
