<?xml version="1.0" standalone="no"?>
 <!DOCTYPE svg PUBLIC "-//W3C//DTD SVG 1.1//EN" 
 "http://www.w3.org/Graphics/SVG/1.1/DTD/svg11.dtd"> 
<svg xmlns="http://www.w3.org/2000/svg" version="1.1" 
    width="59.4004cm" height="41.9989cm" viewBox="0 0 233860 165350 ">
<title>SVG Picture created as Apollo-B_Cu.svg date 2020/02/29 12:59:26 </title>
  <desc>Picture generated by PCBNEW </desc>
<g style="fill:#000000; fill-opacity:1;stroke:#000000; stroke-opacity:1;
stroke-linecap:round; stroke-linejoin:round; "
 transform="translate(0 0) scale(1 1)">
</g>
<g style="fill:#000000; fill-opacity:0.0; 
stroke:#000000; stroke-width:-0.000393701; stroke-opacity:1; 
stroke-linecap:round; stroke-linejoin:round;">
<g >
</g>
<g >
</g>
<g >
</g>
<g >
</g>
<g >
</g>
<g >
</g>
<g >
</g>
<g >
</g>
<g >
</g>
<g >
</g>
<g >
</g>
<g >
</g>
<g >
</g>
<g >
</g>
<g >
</g>
<g >
</g>
<g >
</g>
<g >
</g>
<g >
</g>
<g >
</g>
<g >
</g>
<g >
</g>
<g >
</g>
<g >
</g>
<g >
</g>
<g >
</g>
<g >
</g>
<g >
</g>
<g >
</g>
<g >
</g>
<g >
</g>
<g >
</g>
<g >
</g>
<g >
</g>
<g >
</g>
<g >
</g>
<g >
</g>
<g >
</g>
<g >
</g>
<g >
</g>
</g>
<g style="fill:#FFFFFF; fill-opacity:0.0; 
stroke:#FFFFFF; stroke-width:-0.000393701; stroke-opacity:1; 
stroke-linecap:round; stroke-linejoin:round;">
</g>
<g style="fill:#FFFFFF; fill-opacity:1.0; 
stroke:#FFFFFF; stroke-width:0; stroke-opacity:1; 
stroke-linecap:round; stroke-linejoin:round;">
<circle cx="74450" cy="50950" r="531.496" /> 
</g>
<g style="fill:#FFFFFF; fill-opacity:1.0; 
stroke:#FFFFFF; stroke-width:39.3701; stroke-opacity:1; 
stroke-linecap:round; stroke-linejoin:round;">
</g>
<g style="fill:#FFFFFF; fill-opacity:1.0; 
stroke:#FFFFFF; stroke-width:0; stroke-opacity:1; 
stroke-linecap:round; stroke-linejoin:round;">
<circle cx="71875" cy="22800" r="531.496" /> 
</g>
<g style="fill:#FFFFFF; fill-opacity:1.0; 
stroke:#FFFFFF; stroke-width:39.3701; stroke-opacity:1; 
stroke-linecap:round; stroke-linejoin:round;">
</g>
<g style="fill:#FFFFFF; fill-opacity:1.0; 
stroke:#FFFFFF; stroke-width:0; stroke-opacity:1; 
stroke-linecap:round; stroke-linejoin:round;">
<circle cx="28925" cy="23725" r="531.496" /> 
</g>
<g style="fill:#FFFFFF; fill-opacity:1.0; 
stroke:#FFFFFF; stroke-width:39.3701; stroke-opacity:1; 
stroke-linecap:round; stroke-linejoin:round;">
</g>
<g style="fill:#FFFFFF; fill-opacity:1.0; 
stroke:#FFFFFF; stroke-width:0; stroke-opacity:1; 
stroke-linecap:round; stroke-linejoin:round;">
<circle cx="21050" cy="50425" r="531.496" /> 
</g>
<g style="fill:#FFFFFF; fill-opacity:1.0; 
stroke:#FFFFFF; stroke-width:39.3701; stroke-opacity:1; 
stroke-linecap:round; stroke-linejoin:round;">
</g>
<g style="fill:#FFFFFF; fill-opacity:1.0; 
stroke:#FFFFFF; stroke-width:0; stroke-opacity:1; 
stroke-linecap:round; stroke-linejoin:round;">
<circle cx="70300" cy="70725" r="531.496" /> 
</g>
<g style="fill:#FFFFFF; fill-opacity:1.0; 
stroke:#FFFFFF; stroke-width:39.3701; stroke-opacity:1; 
stroke-linecap:round; stroke-linejoin:round;">
</g>
<g style="fill:#FFFFFF; fill-opacity:1.0; 
stroke:#FFFFFF; stroke-width:0; stroke-opacity:1; 
stroke-linecap:round; stroke-linejoin:round;">
<circle cx="46050" cy="63775" r="531.496" /> 
</g>
<g style="fill:#FFFFFF; fill-opacity:1.0; 
stroke:#FFFFFF; stroke-width:39.3701; stroke-opacity:1; 
stroke-linecap:round; stroke-linejoin:round;">
</g>
<g style="fill:#FFFFFF; fill-opacity:1.0; 
stroke:#FFFFFF; stroke-width:200; stroke-opacity:1; 
stroke-linecap:round; stroke-linejoin:round;">
</g>
<g style="fill:#FFFFFF; fill-opacity:0.0; 
stroke:#FFFFFF; stroke-width:200; stroke-opacity:1; 
stroke-linecap:round; stroke-linejoin:round;">
<path d="M71025 29925
L71350 29925
" />
<path d="M65400 29925
L65725 29925
" />
<path d="M71025 27825
L71350 27825
" />
<path d="M65400 27825
L65725 27825
" />
</g>
<g style="fill:#FFFFFF; fill-opacity:0.0; 
stroke:#FFFFFF; stroke-width:500; stroke-opacity:1; 
stroke-linecap:round; stroke-linejoin:round;">
<path d="M67625 31625
L69125 31625
" />
<path d="M67625 26125
L69125 26125
" />
</g>
<g style="fill:#FFFFFF; fill-opacity:0.0; 
stroke:#FFFFFF; stroke-width:200; stroke-opacity:1; 
stroke-linecap:round; stroke-linejoin:round;">
<path d="M65725 27825
L65725 29925
" />
<path d="M71025 27825
L71025 29925
" />
<path d="M65400 29925
L65400 31525
" />
<path d="M71350 29925
L71350 31525
" />
<path d="M71350 26225
L71350 27825
" />
<path d="M65400 26225
L65400 27825
" />
<path d="M65405 31525
L71345 31525
" />
<path d="M65405 26225
L71345 26225
" />
<path d="M48525 28975
L48850 28975
" />
<path d="M42900 28975
L43225 28975
" />
<path d="M48525 26875
L48850 26875
" />
<path d="M42900 26875
L43225 26875
" />
</g>
<g style="fill:#FFFFFF; fill-opacity:0.0; 
stroke:#FFFFFF; stroke-width:500; stroke-opacity:1; 
stroke-linecap:round; stroke-linejoin:round;">
<path d="M45125 30675
L46625 30675
" />
<path d="M45125 25175
L46625 25175
" />
</g>
<g style="fill:#FFFFFF; fill-opacity:0.0; 
stroke:#FFFFFF; stroke-width:200; stroke-opacity:1; 
stroke-linecap:round; stroke-linejoin:round;">
<path d="M43225 26875
L43225 28975
" />
<path d="M48525 26875
L48525 28975
" />
<path d="M42900 28975
L42900 30575
" />
<path d="M48850 28975
L48850 30575
" />
<path d="M48850 25275
L48850 26875
" />
<path d="M42900 25275
L42900 26875
" />
<path d="M42905 30575
L48845 30575
" />
<path d="M42905 25275
L48845 25275
" />
<path d="M26030 42150
L31970 42150
" />
<path d="M26030 47450
L31970 47450
" />
<path d="M26025 42150
L26025 43750
" />
<path d="M31975 42150
L31975 43750
" />
<path d="M31975 45850
L31975 47450
" />
<path d="M26025 45850
L26025 47450
" />
<path d="M31650 43750
L31650 45850
" />
<path d="M26350 43750
L26350 45850
" />
</g>
<g style="fill:#FFFFFF; fill-opacity:0.0; 
stroke:#FFFFFF; stroke-width:500; stroke-opacity:1; 
stroke-linecap:round; stroke-linejoin:round;">
<path d="M28250 42050
L29750 42050
" />
<path d="M28250 47550
L29750 47550
" />
</g>
<g style="fill:#FFFFFF; fill-opacity:0.0; 
stroke:#FFFFFF; stroke-width:200; stroke-opacity:1; 
stroke-linecap:round; stroke-linejoin:round;">
<path d="M26025 43750
L26350 43750
" />
<path d="M31650 43750
L31975 43750
" />
<path d="M26025 45850
L26350 45850
" />
<path d="M31650 45850
L31975 45850
" />
<path d="M31650 53350
L31975 53350
" />
<path d="M26025 53350
L26350 53350
" />
<path d="M31650 51250
L31975 51250
" />
<path d="M26025 51250
L26350 51250
" />
</g>
<g style="fill:#FFFFFF; fill-opacity:0.0; 
stroke:#FFFFFF; stroke-width:500; stroke-opacity:1; 
stroke-linecap:round; stroke-linejoin:round;">
<path d="M28250 55050
L29750 55050
" />
<path d="M28250 49550
L29750 49550
" />
</g>
<g style="fill:#FFFFFF; fill-opacity:0.0; 
stroke:#FFFFFF; stroke-width:200; stroke-opacity:1; 
stroke-linecap:round; stroke-linejoin:round;">
<path d="M26350 51250
L26350 53350
" />
<path d="M31650 51250
L31650 53350
" />
<path d="M26025 53350
L26025 54950
" />
<path d="M31975 53350
L31975 54950
" />
<path d="M31975 49650
L31975 51250
" />
<path d="M26025 49650
L26025 51250
" />
<path d="M26030 54950
L31970 54950
" />
<path d="M26030 49650
L31970 49650
" />
<path d="M31650 30850
L31975 30850
" />
<path d="M26025 30850
L26350 30850
" />
<path d="M31650 28750
L31975 28750
" />
<path d="M26025 28750
L26350 28750
" />
</g>
<g style="fill:#FFFFFF; fill-opacity:0.0; 
stroke:#FFFFFF; stroke-width:500; stroke-opacity:1; 
stroke-linecap:round; stroke-linejoin:round;">
<path d="M28250 32550
L29750 32550
" />
<path d="M28250 27050
L29750 27050
" />
</g>
<g style="fill:#FFFFFF; fill-opacity:0.0; 
stroke:#FFFFFF; stroke-width:200; stroke-opacity:1; 
stroke-linecap:round; stroke-linejoin:round;">
<path d="M26350 28750
L26350 30850
" />
<path d="M31650 28750
L31650 30850
" />
<path d="M26025 30850
L26025 32450
" />
<path d="M31975 30850
L31975 32450
" />
<path d="M31975 27150
L31975 28750
" />
<path d="M26025 27150
L26025 28750
" />
<path d="M26030 32450
L31970 32450
" />
<path d="M26030 27150
L31970 27150
" />
<path d="M26030 57150
L31970 57150
" />
<path d="M26030 62450
L31970 62450
" />
<path d="M26025 57150
L26025 58750
" />
<path d="M31975 57150
L31975 58750
" />
<path d="M31975 60850
L31975 62450
" />
<path d="M26025 60850
L26025 62450
" />
<path d="M31650 58750
L31650 60850
" />
<path d="M26350 58750
L26350 60850
" />
</g>
<g style="fill:#FFFFFF; fill-opacity:0.0; 
stroke:#FFFFFF; stroke-width:500; stroke-opacity:1; 
stroke-linecap:round; stroke-linejoin:round;">
<path d="M28250 57050
L29750 57050
" />
<path d="M28250 62550
L29750 62550
" />
</g>
<g style="fill:#FFFFFF; fill-opacity:0.0; 
stroke:#FFFFFF; stroke-width:200; stroke-opacity:1; 
stroke-linecap:round; stroke-linejoin:round;">
<path d="M26025 58750
L26350 58750
" />
<path d="M31650 58750
L31975 58750
" />
<path d="M26025 60850
L26350 60850
" />
<path d="M31650 60850
L31975 60850
" />
<path d="M26030 34650
L31970 34650
" />
<path d="M26030 39950
L31970 39950
" />
<path d="M26025 34650
L26025 36250
" />
<path d="M31975 34650
L31975 36250
" />
<path d="M31975 38350
L31975 39950
" />
<path d="M26025 38350
L26025 39950
" />
<path d="M31650 36250
L31650 38350
" />
<path d="M26350 36250
L26350 38350
" />
</g>
<g style="fill:#FFFFFF; fill-opacity:0.0; 
stroke:#FFFFFF; stroke-width:500; stroke-opacity:1; 
stroke-linecap:round; stroke-linejoin:round;">
<path d="M28250 34550
L29750 34550
" />
<path d="M28250 40050
L29750 40050
" />
</g>
<g style="fill:#FFFFFF; fill-opacity:0.0; 
stroke:#FFFFFF; stroke-width:200; stroke-opacity:1; 
stroke-linecap:round; stroke-linejoin:round;">
<path d="M26025 36250
L26350 36250
" />
<path d="M31650 36250
L31975 36250
" />
<path d="M26025 38350
L26350 38350
" />
<path d="M31650 38350
L31975 38350
" />
<path d="M76052 62109
L81034 65345
" />
<path d="M73165 66554
L78147 69790
" />
<path d="M76048 62107
L75176 63449
" />
<path d="M81038 65347
L80166 66689
" />
<path d="M79023 68450
L78151 69792
" />
<path d="M74033 65210
L73161 66552
" />
<path d="M79894 66512
L78750 68273
" />
<path d="M75449 63626
L74305 65387
" />
</g>
<g style="fill:#FFFFFF; fill-opacity:0.0; 
stroke:#FFFFFF; stroke-width:500; stroke-opacity:1; 
stroke-linecap:round; stroke-linejoin:round;">
<path d="M77968 63235
L79226 64052
" />
<path d="M74973 67847
L76231 68664
" />
</g>
<g style="fill:#FFFFFF; fill-opacity:0.0; 
stroke:#FFFFFF; stroke-width:200; stroke-opacity:1; 
stroke-linecap:round; stroke-linejoin:round;">
<path d="M75176 63449
L75449 63626
" />
<path d="M79894 66512
L80166 66689
" />
<path d="M74033 65210
L74305 65387
" />
<path d="M78750 68273
L79023 68450
" />
<path d="M69777 58034
L74759 61270
" />
<path d="M66890 62479
L71872 65715
" />
<path d="M69773 58032
L68901 59374
" />
<path d="M74763 61272
L73891 62614
" />
<path d="M72748 64375
L71876 65717
" />
<path d="M67758 61135
L66886 62477
" />
<path d="M73619 62437
L72475 64198
" />
<path d="M69174 59551
L68030 61312
" />
</g>
<g style="fill:#FFFFFF; fill-opacity:0.0; 
stroke:#FFFFFF; stroke-width:500; stroke-opacity:1; 
stroke-linecap:round; stroke-linejoin:round;">
<path d="M71693 59160
L72951 59977
" />
<path d="M68698 63772
L69956 64589
" />
</g>
<g style="fill:#FFFFFF; fill-opacity:0.0; 
stroke:#FFFFFF; stroke-width:200; stroke-opacity:1; 
stroke-linecap:round; stroke-linejoin:round;">
<path d="M68901 59374
L69174 59551
" />
<path d="M73619 62437
L73891 62614
" />
<path d="M67758 61135
L68030 61312
" />
<path d="M72475 64198
L72748 64375
" />
<path d="M63807 62228
L58070 60691
" />
<path d="M65179 57108
L59442 55571
" />
<path d="M63812 62229
L64226 60684
" />
<path d="M58065 60689
L58479 59144
" />
<path d="M59023 57115
L59437 55570
" />
<path d="M64770 58655
L65184 57110
" />
<path d="M58793 59228
L59337 57199
" />
<path d="M63912 60600
L64456 58571
" />
</g>
<g style="fill:#FFFFFF; fill-opacity:0.0; 
stroke:#FFFFFF; stroke-width:500; stroke-opacity:1; 
stroke-linecap:round; stroke-linejoin:round;">
<path d="M61637 61750
L60188 61362
" />
<path d="M63061 56437
L61612 56049
" />
</g>
<g style="fill:#FFFFFF; fill-opacity:0.0; 
stroke:#FFFFFF; stroke-width:200; stroke-opacity:1; 
stroke-linecap:round; stroke-linejoin:round;">
<path d="M64226 60684
L63912 60600
" />
<path d="M58793 59228
L58479 59144
" />
<path d="M64770 58655
L64456 58571
" />
<path d="M59337 57199
L59023 57115
" />
<path d="M71025 52425
L71350 52425
" />
<path d="M65400 52425
L65725 52425
" />
<path d="M71025 50325
L71350 50325
" />
<path d="M65400 50325
L65725 50325
" />
</g>
<g style="fill:#FFFFFF; fill-opacity:0.0; 
stroke:#FFFFFF; stroke-width:500; stroke-opacity:1; 
stroke-linecap:round; stroke-linejoin:round;">
<path d="M67625 54125
L69125 54125
" />
<path d="M67625 48625
L69125 48625
" />
</g>
<g style="fill:#FFFFFF; fill-opacity:0.0; 
stroke:#FFFFFF; stroke-width:200; stroke-opacity:1; 
stroke-linecap:round; stroke-linejoin:round;">
<path d="M65725 50325
L65725 52425
" />
<path d="M71025 50325
L71025 52425
" />
<path d="M65400 52425
L65400 54025
" />
<path d="M71350 52425
L71350 54025
" />
<path d="M71350 48725
L71350 50325
" />
<path d="M65400 48725
L65400 50325
" />
<path d="M65405 54025
L71345 54025
" />
<path d="M65405 48725
L71345 48725
" />
<path d="M65405 41225
L71345 41225
" />
<path d="M65405 46525
L71345 46525
" />
<path d="M65400 41225
L65400 42825
" />
<path d="M71350 41225
L71350 42825
" />
<path d="M71350 44925
L71350 46525
" />
<path d="M65400 44925
L65400 46525
" />
<path d="M71025 42825
L71025 44925
" />
<path d="M65725 42825
L65725 44925
" />
</g>
<g style="fill:#FFFFFF; fill-opacity:0.0; 
stroke:#FFFFFF; stroke-width:500; stroke-opacity:1; 
stroke-linecap:round; stroke-linejoin:round;">
<path d="M67625 41125
L69125 41125
" />
<path d="M67625 46625
L69125 46625
" />
</g>
<g style="fill:#FFFFFF; fill-opacity:0.0; 
stroke:#FFFFFF; stroke-width:200; stroke-opacity:1; 
stroke-linecap:round; stroke-linejoin:round;">
<path d="M65400 42825
L65725 42825
" />
<path d="M71025 42825
L71350 42825
" />
<path d="M65400 44925
L65725 44925
" />
<path d="M71025 44925
L71350 44925
" />
<path d="M65405 33725
L71345 33725
" />
<path d="M65405 39025
L71345 39025
" />
<path d="M65400 33725
L65400 35325
" />
<path d="M71350 33725
L71350 35325
" />
<path d="M71350 37425
L71350 39025
" />
<path d="M65400 37425
L65400 39025
" />
<path d="M71025 35325
L71025 37425
" />
<path d="M65725 35325
L65725 37425
" />
</g>
<g style="fill:#FFFFFF; fill-opacity:0.0; 
stroke:#FFFFFF; stroke-width:500; stroke-opacity:1; 
stroke-linecap:round; stroke-linejoin:round;">
<path d="M67625 33625
L69125 33625
" />
<path d="M67625 39125
L69125 39125
" />
</g>
<g style="fill:#FFFFFF; fill-opacity:0.0; 
stroke:#FFFFFF; stroke-width:200; stroke-opacity:1; 
stroke-linecap:round; stroke-linejoin:round;">
<path d="M65400 35325
L65725 35325
" />
<path d="M71025 35325
L71350 35325
" />
<path d="M65400 37425
L65725 37425
" />
<path d="M71025 37425
L71350 37425
" />
<path d="M63525 51475
L63850 51475
" />
<path d="M57900 51475
L58225 51475
" />
<path d="M63525 49375
L63850 49375
" />
<path d="M57900 49375
L58225 49375
" />
</g>
<g style="fill:#FFFFFF; fill-opacity:0.0; 
stroke:#FFFFFF; stroke-width:500; stroke-opacity:1; 
stroke-linecap:round; stroke-linejoin:round;">
<path d="M60125 53175
L61625 53175
" />
<path d="M60125 47675
L61625 47675
" />
</g>
<g style="fill:#FFFFFF; fill-opacity:0.0; 
stroke:#FFFFFF; stroke-width:200; stroke-opacity:1; 
stroke-linecap:round; stroke-linejoin:round;">
<path d="M58225 49375
L58225 51475
" />
<path d="M63525 49375
L63525 51475
" />
<path d="M57900 51475
L57900 53075
" />
<path d="M63850 51475
L63850 53075
" />
<path d="M63850 47775
L63850 49375
" />
<path d="M57900 47775
L57900 49375
" />
<path d="M57905 53075
L63845 53075
" />
<path d="M57905 47775
L63845 47775
" />
<path d="M57905 40275
L63845 40275
" />
<path d="M57905 45575
L63845 45575
" />
<path d="M57900 40275
L57900 41875
" />
<path d="M63850 40275
L63850 41875
" />
<path d="M63850 43975
L63850 45575
" />
<path d="M57900 43975
L57900 45575
" />
<path d="M63525 41875
L63525 43975
" />
<path d="M58225 41875
L58225 43975
" />
</g>
<g style="fill:#FFFFFF; fill-opacity:0.0; 
stroke:#FFFFFF; stroke-width:500; stroke-opacity:1; 
stroke-linecap:round; stroke-linejoin:round;">
<path d="M60125 40175
L61625 40175
" />
<path d="M60125 45675
L61625 45675
" />
</g>
<g style="fill:#FFFFFF; fill-opacity:0.0; 
stroke:#FFFFFF; stroke-width:200; stroke-opacity:1; 
stroke-linecap:round; stroke-linejoin:round;">
<path d="M57900 41875
L58225 41875
" />
<path d="M63525 41875
L63850 41875
" />
<path d="M57900 43975
L58225 43975
" />
<path d="M63525 43975
L63850 43975
" />
<path d="M63525 28975
L63850 28975
" />
<path d="M57900 28975
L58225 28975
" />
<path d="M63525 26875
L63850 26875
" />
<path d="M57900 26875
L58225 26875
" />
</g>
<g style="fill:#FFFFFF; fill-opacity:0.0; 
stroke:#FFFFFF; stroke-width:500; stroke-opacity:1; 
stroke-linecap:round; stroke-linejoin:round;">
<path d="M60125 30675
L61625 30675
" />
<path d="M60125 25175
L61625 25175
" />
</g>
<g style="fill:#FFFFFF; fill-opacity:0.0; 
stroke:#FFFFFF; stroke-width:200; stroke-opacity:1; 
stroke-linecap:round; stroke-linejoin:round;">
<path d="M58225 26875
L58225 28975
" />
<path d="M63525 26875
L63525 28975
" />
<path d="M57900 28975
L57900 30575
" />
<path d="M63850 28975
L63850 30575
" />
<path d="M63850 25275
L63850 26875
" />
<path d="M57900 25275
L57900 26875
" />
<path d="M57905 30575
L63845 30575
" />
<path d="M57905 25275
L63845 25275
" />
<path d="M57905 32775
L63845 32775
" />
<path d="M57905 38075
L63845 38075
" />
<path d="M57900 32775
L57900 34375
" />
<path d="M63850 32775
L63850 34375
" />
<path d="M63850 36475
L63850 38075
" />
<path d="M57900 36475
L57900 38075
" />
<path d="M63525 34375
L63525 36475
" />
<path d="M58225 34375
L58225 36475
" />
</g>
<g style="fill:#FFFFFF; fill-opacity:0.0; 
stroke:#FFFFFF; stroke-width:500; stroke-opacity:1; 
stroke-linecap:round; stroke-linejoin:round;">
<path d="M60125 32675
L61625 32675
" />
<path d="M60125 38175
L61625 38175
" />
</g>
<g style="fill:#FFFFFF; fill-opacity:0.0; 
stroke:#FFFFFF; stroke-width:200; stroke-opacity:1; 
stroke-linecap:round; stroke-linejoin:round;">
<path d="M57900 34375
L58225 34375
" />
<path d="M63525 34375
L63850 34375
" />
<path d="M57900 36475
L58225 36475
" />
<path d="M63525 36475
L63850 36475
" />
<path d="M50405 24350
L56345 24350
" />
<path d="M50405 29650
L56345 29650
" />
<path d="M50400 24350
L50400 25950
" />
<path d="M56350 24350
L56350 25950
" />
<path d="M56350 28050
L56350 29650
" />
<path d="M50400 28050
L50400 29650
" />
<path d="M56025 25950
L56025 28050
" />
<path d="M50725 25950
L50725 28050
" />
</g>
<g style="fill:#FFFFFF; fill-opacity:0.0; 
stroke:#FFFFFF; stroke-width:500; stroke-opacity:1; 
stroke-linecap:round; stroke-linejoin:round;">
<path d="M52625 24250
L54125 24250
" />
<path d="M52625 29750
L54125 29750
" />
</g>
<g style="fill:#FFFFFF; fill-opacity:0.0; 
stroke:#FFFFFF; stroke-width:200; stroke-opacity:1; 
stroke-linecap:round; stroke-linejoin:round;">
<path d="M50400 25950
L50725 25950
" />
<path d="M56025 25950
L56350 25950
" />
<path d="M50400 28050
L50725 28050
" />
<path d="M56025 28050
L56350 28050
" />
<path d="M56025 35550
L56350 35550
" />
<path d="M50400 35550
L50725 35550
" />
<path d="M56025 33450
L56350 33450
" />
<path d="M50400 33450
L50725 33450
" />
</g>
<g style="fill:#FFFFFF; fill-opacity:0.0; 
stroke:#FFFFFF; stroke-width:500; stroke-opacity:1; 
stroke-linecap:round; stroke-linejoin:round;">
<path d="M52625 37250
L54125 37250
" />
<path d="M52625 31750
L54125 31750
" />
</g>
<g style="fill:#FFFFFF; fill-opacity:0.0; 
stroke:#FFFFFF; stroke-width:200; stroke-opacity:1; 
stroke-linecap:round; stroke-linejoin:round;">
<path d="M50725 33450
L50725 35550
" />
<path d="M56025 33450
L56025 35550
" />
<path d="M50400 35550
L50400 37150
" />
<path d="M56350 35550
L56350 37150
" />
<path d="M56350 31850
L56350 33450
" />
<path d="M50400 31850
L50400 33450
" />
<path d="M50405 37150
L56345 37150
" />
<path d="M50405 31850
L56345 31850
" />
<path d="M56025 58050
L56350 58050
" />
<path d="M50400 58050
L50725 58050
" />
<path d="M56025 55950
L56350 55950
" />
<path d="M50400 55950
L50725 55950
" />
</g>
<g style="fill:#FFFFFF; fill-opacity:0.0; 
stroke:#FFFFFF; stroke-width:500; stroke-opacity:1; 
stroke-linecap:round; stroke-linejoin:round;">
<path d="M52625 59750
L54125 59750
" />
<path d="M52625 54250
L54125 54250
" />
</g>
<g style="fill:#FFFFFF; fill-opacity:0.0; 
stroke:#FFFFFF; stroke-width:200; stroke-opacity:1; 
stroke-linecap:round; stroke-linejoin:round;">
<path d="M50725 55950
L50725 58050
" />
<path d="M56025 55950
L56025 58050
" />
<path d="M50400 58050
L50400 59650
" />
<path d="M56350 58050
L56350 59650
" />
<path d="M56350 54350
L56350 55950
" />
<path d="M50400 54350
L50400 55950
" />
<path d="M50405 59650
L56345 59650
" />
<path d="M50405 54350
L56345 54350
" />
<path d="M50405 46850
L56345 46850
" />
<path d="M50405 52150
L56345 52150
" />
<path d="M50400 46850
L50400 48450
" />
<path d="M56350 46850
L56350 48450
" />
<path d="M56350 50550
L56350 52150
" />
<path d="M50400 50550
L50400 52150
" />
<path d="M56025 48450
L56025 50550
" />
<path d="M50725 48450
L50725 50550
" />
</g>
<g style="fill:#FFFFFF; fill-opacity:0.0; 
stroke:#FFFFFF; stroke-width:500; stroke-opacity:1; 
stroke-linecap:round; stroke-linejoin:round;">
<path d="M52625 46750
L54125 46750
" />
<path d="M52625 52250
L54125 52250
" />
</g>
<g style="fill:#FFFFFF; fill-opacity:0.0; 
stroke:#FFFFFF; stroke-width:200; stroke-opacity:1; 
stroke-linecap:round; stroke-linejoin:round;">
<path d="M50400 48450
L50725 48450
" />
<path d="M56025 48450
L56350 48450
" />
<path d="M50400 50550
L50725 50550
" />
<path d="M56025 50550
L56350 50550
" />
<path d="M56025 43050
L56350 43050
" />
<path d="M50400 43050
L50725 43050
" />
<path d="M56025 40950
L56350 40950
" />
<path d="M50400 40950
L50725 40950
" />
</g>
<g style="fill:#FFFFFF; fill-opacity:0.0; 
stroke:#FFFFFF; stroke-width:500; stroke-opacity:1; 
stroke-linecap:round; stroke-linejoin:round;">
<path d="M52625 44750
L54125 44750
" />
<path d="M52625 39250
L54125 39250
" />
</g>
<g style="fill:#FFFFFF; fill-opacity:0.0; 
stroke:#FFFFFF; stroke-width:200; stroke-opacity:1; 
stroke-linecap:round; stroke-linejoin:round;">
<path d="M50725 40950
L50725 43050
" />
<path d="M56025 40950
L56025 43050
" />
<path d="M50400 43050
L50400 44650
" />
<path d="M56350 43050
L56350 44650
" />
<path d="M56350 39350
L56350 40950
" />
<path d="M50400 39350
L50400 40950
" />
<path d="M50405 44650
L56345 44650
" />
<path d="M50405 39350
L56345 39350
" />
<path d="M35405 27150
L41345 27150
" />
<path d="M35405 32450
L41345 32450
" />
<path d="M35400 27150
L35400 28750
" />
<path d="M41350 27150
L41350 28750
" />
<path d="M41350 30850
L41350 32450
" />
<path d="M35400 30850
L35400 32450
" />
<path d="M41025 28750
L41025 30850
" />
<path d="M35725 28750
L35725 30850
" />
</g>
<g style="fill:#FFFFFF; fill-opacity:0.0; 
stroke:#FFFFFF; stroke-width:500; stroke-opacity:1; 
stroke-linecap:round; stroke-linejoin:round;">
<path d="M37625 27050
L39125 27050
" />
<path d="M37625 32550
L39125 32550
" />
</g>
<g style="fill:#FFFFFF; fill-opacity:0.0; 
stroke:#FFFFFF; stroke-width:200; stroke-opacity:1; 
stroke-linecap:round; stroke-linejoin:round;">
<path d="M35400 28750
L35725 28750
" />
<path d="M41025 28750
L41350 28750
" />
<path d="M35400 30850
L35725 30850
" />
<path d="M41025 30850
L41350 30850
" />
<path d="M35405 34650
L41345 34650
" />
<path d="M35405 39950
L41345 39950
" />
<path d="M35400 34650
L35400 36250
" />
<path d="M41350 34650
L41350 36250
" />
<path d="M41350 38350
L41350 39950
" />
<path d="M35400 38350
L35400 39950
" />
<path d="M41025 36250
L41025 38350
" />
<path d="M35725 36250
L35725 38350
" />
</g>
<g style="fill:#FFFFFF; fill-opacity:0.0; 
stroke:#FFFFFF; stroke-width:500; stroke-opacity:1; 
stroke-linecap:round; stroke-linejoin:round;">
<path d="M37625 34550
L39125 34550
" />
<path d="M37625 40050
L39125 40050
" />
</g>
<g style="fill:#FFFFFF; fill-opacity:0.0; 
stroke:#FFFFFF; stroke-width:200; stroke-opacity:1; 
stroke-linecap:round; stroke-linejoin:round;">
<path d="M35400 36250
L35725 36250
" />
<path d="M41025 36250
L41350 36250
" />
<path d="M35400 38350
L35725 38350
" />
<path d="M41025 38350
L41350 38350
" />
<path d="M41025 60850
L41350 60850
" />
<path d="M35400 60850
L35725 60850
" />
<path d="M41025 58750
L41350 58750
" />
<path d="M35400 58750
L35725 58750
" />
</g>
<g style="fill:#FFFFFF; fill-opacity:0.0; 
stroke:#FFFFFF; stroke-width:500; stroke-opacity:1; 
stroke-linecap:round; stroke-linejoin:round;">
<path d="M37625 62550
L39125 62550
" />
<path d="M37625 57050
L39125 57050
" />
</g>
<g style="fill:#FFFFFF; fill-opacity:0.0; 
stroke:#FFFFFF; stroke-width:200; stroke-opacity:1; 
stroke-linecap:round; stroke-linejoin:round;">
<path d="M35725 58750
L35725 60850
" />
<path d="M41025 58750
L41025 60850
" />
<path d="M35400 60850
L35400 62450
" />
<path d="M41350 60850
L41350 62450
" />
<path d="M41350 57150
L41350 58750
" />
<path d="M35400 57150
L35400 58750
" />
<path d="M35405 62450
L41345 62450
" />
<path d="M35405 57150
L41345 57150
" />
<path d="M35405 49650
L41345 49650
" />
<path d="M35405 54950
L41345 54950
" />
<path d="M35400 49650
L35400 51250
" />
<path d="M41350 49650
L41350 51250
" />
<path d="M41350 53350
L41350 54950
" />
<path d="M35400 53350
L35400 54950
" />
<path d="M41025 51250
L41025 53350
" />
<path d="M35725 51250
L35725 53350
" />
</g>
<g style="fill:#FFFFFF; fill-opacity:0.0; 
stroke:#FFFFFF; stroke-width:500; stroke-opacity:1; 
stroke-linecap:round; stroke-linejoin:round;">
<path d="M37625 49550
L39125 49550
" />
<path d="M37625 55050
L39125 55050
" />
</g>
<g style="fill:#FFFFFF; fill-opacity:0.0; 
stroke:#FFFFFF; stroke-width:200; stroke-opacity:1; 
stroke-linecap:round; stroke-linejoin:round;">
<path d="M35400 51250
L35725 51250
" />
<path d="M41025 51250
L41350 51250
" />
<path d="M35400 53350
L35725 53350
" />
<path d="M41025 53350
L41350 53350
" />
<path d="M41025 45850
L41350 45850
" />
<path d="M35400 45850
L35725 45850
" />
<path d="M41025 43750
L41350 43750
" />
<path d="M35400 43750
L35725 43750
" />
</g>
<g style="fill:#FFFFFF; fill-opacity:0.0; 
stroke:#FFFFFF; stroke-width:500; stroke-opacity:1; 
stroke-linecap:round; stroke-linejoin:round;">
<path d="M37625 47550
L39125 47550
" />
<path d="M37625 42050
L39125 42050
" />
</g>
<g style="fill:#FFFFFF; fill-opacity:0.0; 
stroke:#FFFFFF; stroke-width:200; stroke-opacity:1; 
stroke-linecap:round; stroke-linejoin:round;">
<path d="M35725 43750
L35725 45850
" />
<path d="M41025 43750
L41025 45850
" />
<path d="M35400 45850
L35400 47450
" />
<path d="M41350 45850
L41350 47450
" />
<path d="M41350 42150
L41350 43750
" />
<path d="M35400 42150
L35400 43750
" />
<path d="M35405 47450
L41345 47450
" />
<path d="M35405 42150
L41345 42150
" />
<path d="M42905 55275
L48845 55275
" />
<path d="M42905 60575
L48845 60575
" />
<path d="M42900 55275
L42900 56875
" />
<path d="M48850 55275
L48850 56875
" />
<path d="M48850 58975
L48850 60575
" />
<path d="M42900 58975
L42900 60575
" />
<path d="M48525 56875
L48525 58975
" />
<path d="M43225 56875
L43225 58975
" />
</g>
<g style="fill:#FFFFFF; fill-opacity:0.0; 
stroke:#FFFFFF; stroke-width:500; stroke-opacity:1; 
stroke-linecap:round; stroke-linejoin:round;">
<path d="M45125 55175
L46625 55175
" />
<path d="M45125 60675
L46625 60675
" />
</g>
<g style="fill:#FFFFFF; fill-opacity:0.0; 
stroke:#FFFFFF; stroke-width:200; stroke-opacity:1; 
stroke-linecap:round; stroke-linejoin:round;">
<path d="M42900 56875
L43225 56875
" />
<path d="M48525 56875
L48850 56875
" />
<path d="M42900 58975
L43225 58975
" />
<path d="M48525 58975
L48850 58975
" />
<path d="M42905 40275
L48845 40275
" />
<path d="M42905 45575
L48845 45575
" />
<path d="M42900 40275
L42900 41875
" />
<path d="M48850 40275
L48850 41875
" />
<path d="M48850 43975
L48850 45575
" />
<path d="M42900 43975
L42900 45575
" />
<path d="M48525 41875
L48525 43975
" />
<path d="M43225 41875
L43225 43975
" />
</g>
<g style="fill:#FFFFFF; fill-opacity:0.0; 
stroke:#FFFFFF; stroke-width:500; stroke-opacity:1; 
stroke-linecap:round; stroke-linejoin:round;">
<path d="M45125 40175
L46625 40175
" />
<path d="M45125 45675
L46625 45675
" />
</g>
<g style="fill:#FFFFFF; fill-opacity:0.0; 
stroke:#FFFFFF; stroke-width:200; stroke-opacity:1; 
stroke-linecap:round; stroke-linejoin:round;">
<path d="M42900 41875
L43225 41875
" />
<path d="M48525 41875
L48850 41875
" />
<path d="M42900 43975
L43225 43975
" />
<path d="M48525 43975
L48850 43975
" />
<path d="M48525 51475
L48850 51475
" />
<path d="M42900 51475
L43225 51475
" />
<path d="M48525 49375
L48850 49375
" />
<path d="M42900 49375
L43225 49375
" />
</g>
<g style="fill:#FFFFFF; fill-opacity:0.0; 
stroke:#FFFFFF; stroke-width:500; stroke-opacity:1; 
stroke-linecap:round; stroke-linejoin:round;">
<path d="M45125 53175
L46625 53175
" />
<path d="M45125 47675
L46625 47675
" />
</g>
<g style="fill:#FFFFFF; fill-opacity:0.0; 
stroke:#FFFFFF; stroke-width:200; stroke-opacity:1; 
stroke-linecap:round; stroke-linejoin:round;">
<path d="M43225 49375
L43225 51475
" />
<path d="M48525 49375
L48525 51475
" />
<path d="M42900 51475
L42900 53075
" />
<path d="M48850 51475
L48850 53075
" />
<path d="M48850 47775
L48850 49375
" />
<path d="M42900 47775
L42900 49375
" />
<path d="M42905 53075
L48845 53075
" />
<path d="M42905 47775
L48845 47775
" />
<path d="M42905 32775
L48845 32775
" />
<path d="M42905 38075
L48845 38075
" />
<path d="M42900 32775
L42900 34375
" />
<path d="M48850 32775
L48850 34375
" />
<path d="M48850 36475
L48850 38075
" />
<path d="M42900 36475
L42900 38075
" />
<path d="M48525 34375
L48525 36475
" />
<path d="M43225 34375
L43225 36475
" />
</g>
<g style="fill:#FFFFFF; fill-opacity:0.0; 
stroke:#FFFFFF; stroke-width:500; stroke-opacity:1; 
stroke-linecap:round; stroke-linejoin:round;">
<path d="M45125 32675
L46625 32675
" />
<path d="M45125 38175
L46625 38175
" />
</g>
<g style="fill:#FFFFFF; fill-opacity:0.0; 
stroke:#FFFFFF; stroke-width:200; stroke-opacity:1; 
stroke-linecap:round; stroke-linejoin:round;">
<path d="M42900 34375
L43225 34375
" />
<path d="M48525 34375
L48850 34375
" />
<path d="M42900 36475
L43225 36475
" />
<path d="M48525 36475
L48850 36475
" />
</g>
<g style="fill:#000000; fill-opacity:0.0; 
stroke:#000000; stroke-width:200; stroke-opacity:1; 
stroke-linecap:round; stroke-linejoin:round;">
</g> 
</svg>
