<?xml version="1.0" standalone="no"?>
 <!DOCTYPE svg PUBLIC "-//W3C//DTD SVG 1.1//EN" 
 "http://www.w3.org/Graphics/SVG/1.1/DTD/svg11.dtd"> 
<svg xmlns="http://www.w3.org/2000/svg" version="1.1" 
    width="8.3947cm" height="1.36906cm" viewBox="0 0 33050 5390 ">
<title>SVG Picture created as headplate-brd.svg date 2019/02/11 22:15:48 </title>
  <desc>Picture generated by PCBNEW </desc>
<g style="fill:#000000; fill-opacity:1;stroke:#000000; stroke-opacity:1;
stroke-linecap:round; stroke-linejoin:round; "
 transform="translate(0 0) scale(1 1)">
</g>
<g style="fill:#000000; fill-opacity:0.0; 
stroke:#000000; stroke-width:-0.000393701; stroke-opacity:1; 
stroke-linecap:round; stroke-linejoin:round;">
</g>
<g style="fill:#FFFFFF; fill-opacity:0.0; 
stroke:#FFFFFF; stroke-width:-0.000393701; stroke-opacity:1; 
stroke-linecap:round; stroke-linejoin:round;">
</g>
<g style="fill:#000000; fill-opacity:0.0; 
stroke:#000000; stroke-width:-0.000393701; stroke-opacity:1; 
stroke-linecap:round; stroke-linejoin:round;">
</g>
<g style="fill:#FFFFFF; fill-opacity:0.0; 
stroke:#FFFFFF; stroke-width:-0.000393701; stroke-opacity:1; 
stroke-linecap:round; stroke-linejoin:round;">
</g>
<g style="fill:#000000; fill-opacity:0.0; 
stroke:#000000; stroke-width:-0.000393701; stroke-opacity:1; 
stroke-linecap:round; stroke-linejoin:round;">
</g>
<g style="fill:#000000; fill-opacity:0.0; 
stroke:#000000; stroke-width:78.7402; stroke-opacity:1; 
stroke-linecap:round; stroke-linejoin:round;">
<path d="M787 3976
L9448 3976
" />
<path d="M23228 3976
L31889 3976
" />
<path d="M23228 4173
L31889 4173
" />
<path d="M787 4173
L9448 4173
" />
</g>
<g style="fill:#000000; fill-opacity:1.0; 
stroke:#000000; stroke-width:3.93701; stroke-opacity:1; 
stroke-linecap:round; stroke-linejoin:round;">
<polyline style="fill-rule:evenodd;"
points="13524,1195
13581,1206
13618,1225
13635,1254
13635,1293
13634,1298
13626,1324
13613,1353
13592,1387
13563,1427
13524,1476
13473,1536
13409,1609
13329,1696
13233,1801
13216,1818
13137,1904
13049,2000
12959,2098
12872,2192
12796,2276
12776,2298
12641,2446
12520,2574
12414,2685
12319,2778
12236,2857
12171,2913
12124,2952
12085,2984
12058,3005
12048,3012
12042,3001
12042,2995
12050,2981
12075,2949
12115,2901
12167,2840
12231,2766
12304,2683
12385,2591
12471,2493
12562,2391
12656,2287
12751,2183
12844,2080
12889,2032
12991,1920
13076,1825
13145,1747
13199,1682
13240,1630
13268,1589
13285,1558
13293,1534
13292,1516
13291,1514
13278,1501
13247,1491
13199,1485
13131,1483
13040,1483
12926,1488
12861,1491
12682,1501
12512,1513
12347,1527
12180,1542
12006,1561
11820,1583
11617,1609
11484,1627
11398,1638
11321,1648
11258,1655
11211,1661
11185,1663
11181,1662
11189,1652
11212,1626
11248,1587
11294,1539
11335,1497
11494,1336
11731,1326
11894,1319
12073,1308
12271,1294
12489,1276
12730,1255
12835,1245
12939,1236
13044,1226
13145,1217
13235,1209
13307,1202
13342,1199
13445,1193
13524,1195
" /> 
<polyline style="fill-rule:evenodd;"
points="14452,3260
14450,3269
14435,3288
14407,3318
14363,3364
14317,3410
14159,3568
14026,3583
13945,3592
13885,3596
13841,3595
13806,3589
13777,3578
13766,3572
13723,3549
13884,3458
13996,3398
14096,3351
14194,3315
14297,3286
14416,3262
14428,3259
14444,3257
14452,3260
" /> 
<polyline style="fill-rule:evenodd;"
points="20176,995
20218,1006
20115,1115
20065,1167
20028,1201
20000,1219
19978,1225
19977,1225
19945,1231
19901,1245
19874,1257
19842,1274
19815,1294
19789,1322
19758,1364
19726,1413
19618,1595
19520,1794
19432,2001
19360,2211
19305,2415
19289,2494
19264,2668
19259,2833
19274,2984
19307,3121
19340,3205
19371,3269
19394,3310
19412,3330
19428,3331
19446,3315
19470,3282
19478,3270
19512,3224
19562,3164
19621,3095
19686,3022
19753,2950
19818,2883
19875,2827
19907,2796
19990,2732
20085,2670
20185,2616
20279,2576
20302,2568
20348,2555
20394,2546
20445,2541
20510,2540
20562,2540
20629,2541
20691,2543
20739,2545
20768,2547
20807,2552
20917,2218
20984,2006
21039,1818
21083,1651
21114,1506
21134,1382
21136,1365
21143,1308
21149,1261
21155,1230
21157,1222
21170,1212
21201,1194
21245,1170
21295,1143
21346,1116
21393,1093
21417,1081
21417,1092
21411,1124
21400,1175
21384,1239
21367,1307
21347,1383
21328,1454
21308,1524
21287,1598
21263,1679
21235,1770
21202,1877
21163,2002
21131,2105
21098,2211
21067,2314
21041,2409
21018,2492
21002,2560
20991,2610
20988,2635
20998,2663
21015,2685
21054,2730
21092,2790
21123,2856
21138,2902
21156,2971
21206,2905
21237,2860
21252,2836
21248,2831
21228,2846
21205,2866
21183,2885
21176,2888
21183,2878
21207,2849
21234,2811
21267,2764
21305,2705
21351,2633
21404,2548
21466,2446
21538,2328
21620,2190
21713,2033
21819,1854
21828,1838
21883,1746
21927,1673
21963,1615
21995,1568
22026,1527
22057,1490
22093,1452
22136,1408
22155,1388
22207,1337
22253,1294
22289,1261
22313,1242
22319,1238
22334,1250
22338,1283
22331,1341
22314,1415
22232,1756
22168,2084
22118,2405
22084,2726
22063,3055
22055,3398
22055,3439
22054,3558
22052,3654
22048,3732
22041,3796
22030,3849
22016,3896
21997,3941
21982,3973
21957,4019
21938,4045
21919,4058
21897,4062
21866,4061
21844,4045
21829,4023
21811,3988
21796,3948
21785,3898
21778,3837
21773,3760
21770,3663
21769,3544
21769,3525
21769,3428
21770,3332
21772,3243
21774,3166
21777,3109
21778,3095
21788,2972
21726,3019
21613,3090
21477,3148
21318,3192
21211,3212
21158,3221
21126,3230
21107,3241
21095,3258
21089,3271
21066,3311
21027,3365
20975,3428
20913,3496
20846,3567
20776,3636
20708,3699
20645,3752
20631,3763
20551,3817
20455,3869
20354,3914
20259,3948
20248,3951
20202,3961
20139,3969
20066,3977
20002,3981
19872,3981
19758,3969
19649,3940
19536,3895
19491,3873
19374,3814
19338,3870
19317,3902
19303,3925
19300,3930
19287,3930
19269,3925
19251,3914
19243,3890
19242,3861
19245,3812
19253,3766
19254,3761
19260,3735
19257,3714
19242,3688
19214,3651
19208,3644
19133,3537
19102,3471
19518,3471
19570,3516
19670,3588
19790,3650
19924,3698
19982,3713
20047,3722
20129,3726
20220,3725
20312,3718
20396,3707
20442,3698
20502,3680
20566,3656
20629,3628
20687,3599
20734,3572
20765,3548
20775,3532
20783,3507
20805,3473
20816,3459
20845,3415
20871,3356
20889,3295
20895,3249
20883,3228
20848,3203
20832,3195
20782,3167
20748,3135
20727,3095
20717,3040
20715,2975
21195,2975
21335,2968
21456,2955
21585,2931
21633,2920
21694,2904
21745,2891
21780,2881
21795,2876
21795,2876
21798,2862
21804,2827
21812,2776
21821,2718
21830,2660
21842,2582
21858,2490
21875,2390
21893,2287
21903,2233
21919,2143
21933,2061
21945,1993
21953,1940
21958,1907
21958,1897
21950,1907
21931,1936
21902,1981
21866,2039
21824,2107
21815,2122
21734,2257
21663,2371
21601,2469
21547,2552
21497,2623
21450,2687
21404,2745
21357,2801
21306,2858
21275,2890
21195,2975
20715,2975
20715,2968
20715,2911
20713,2874
20707,2852
20696,2837
20679,2825
20675,2823
20587,2782
20483,2755
20372,2742
20261,2746
20188,2758
20067,2798
19945,2858
19830,2936
19730,3024
19722,3033
19692,3065
19682,3080
19689,3079
19698,3074
19735,3051
19695,3116
19672,3156
19643,3211
19611,3275
19586,3326
19518,3471
19102,3471
19078,3420
19041,3292
19021,3148
19018,2986
19019,2966
19038,2768
19080,2558
19145,2335
19232,2100
19286,1974
19360,1816
19433,1679
19508,1557
19590,1444
19681,1334
19747,1262
19843,1165
19928,1091
20002,1037
20068,1004
20126,991
20176,995
" /> 
<polyline style="fill-rule:evenodd;"
points="15934,2614
16025,2627
16096,2652
16144,2689
16170,2737
16171,2794
16157,2842
16135,2883
16102,2929
16056,2982
15995,3044
15919,3115
15825,3197
15713,3291
15581,3399
15512,3454
15458,3498
15413,3535
15380,3563
15363,3579
15362,3582
15374,3584
15410,3585
15465,3583
15535,3579
15617,3574
15707,3567
15802,3559
15898,3550
15899,3550
15980,3543
16059,3538
16130,3535
16184,3534
16202,3535
16288,3541
16332,3466
16368,3410
16412,3354
16466,3293
16533,3227
16615,3152
16716,3065
16764,3024
16863,2942
16942,2877
17005,2828
17053,2793
17086,2771
17107,2761
17117,2762
17111,2775
17089,2803
17053,2845
17006,2897
16950,2956
16887,3020
16828,3078
16748,3166
16692,3250
16658,3334
16644,3412
16645,3491
16664,3554
16702,3610
16730,3638
16782,3683
16831,3714
16884,3734
16947,3746
17026,3751
17082,3752
17159,3751
17218,3748
17270,3741
17321,3729
17375,3714
17440,3694
17485,3679
17516,3666
17537,3652
17555,3633
17575,3607
17580,3600
17601,3569
17613,3541
17619,3509
17621,3462
17622,3434
17620,3374
17614,3329
17602,3290
17582,3247
17528,3158
17453,3065
17364,2973
17287,2905
17238,2864
17193,2823
17159,2789
17147,2774
17113,2738
17073,2709
17069,2706
17023,2682
17182,2688
17269,2693
17343,2703
17412,2719
17483,2743
17563,2777
17638,2813
17759,2881
17854,2954
17924,3032
17967,3113
17985,3199
17976,3289
17962,3335
17947,3369
17929,3400
17903,3433
17866,3472
17814,3523
17791,3544
17657,3665
17537,3765
17426,3848
17322,3913
17222,3965
17123,4003
17054,4024
16984,4038
16905,4050
16826,4057
16755,4060
16702,4056
16702,4056
16619,4038
16537,4011
16467,3979
16455,3971
16395,3923
16342,3862
16300,3795
16275,3728
16268,3683
16266,3661
16257,3654
16236,3664
16201,3690
16191,3697
16163,3719
16133,3737
16101,3754
16062,3768
16016,3781
15958,3793
15887,3805
15801,3818
15696,3831
15570,3845
15421,3861
15375,3866
15287,3875
15204,3883
15130,3889
15072,3893
15034,3894
15031,3894
14987,3896
14958,3904
14932,3925
14912,3947
14860,3996
14812,4026
14769,4038
14736,4029
14722,4011
14714,3975
14719,3918
14735,3843
14762,3753
14781,3698
15042,3698
15046,3704
15063,3698
15095,3678
15127,3656
15170,3624
15224,3583
15278,3540
15288,3532
15335,3496
15397,3450
15465,3399
15533,3351
15541,3345
15656,3259
15746,3183
15813,3114
15857,3053
15878,2998
15879,2962
15862,2923
15824,2895
15768,2878
15698,2872
15617,2878
15530,2898
15515,2902
15457,2921
15413,2939
15378,2961
15348,2990
15320,3030
15288,3086
15250,3162
15244,3174
15216,3233
15185,3304
15153,3381
15122,3458
15094,3533
15070,3599
15052,3653
15043,3689
15042,3698
14781,3698
14797,3650
14841,3539
14893,3420
14950,3297
15014,3173
15023,3155
15054,3099
15080,3060
15106,3031
15139,3005
15174,2983
15221,2952
15281,2910
15346,2864
15393,2829
15506,2749
15609,2689
15703,2647
15793,2623
15883,2613
15934,2614
" /> 
<polyline style="fill-rule:evenodd;"
points="14144,2431
14137,2445
14120,2473
14090,2518
14048,2581
14041,2592
13985,2677
13940,2750
13906,2808
13885,2850
13877,2874
13880,2878
13899,2874
13935,2863
13964,2852
14020,2832
14093,2807
14180,2778
14277,2747
14382,2714
14490,2679
14600,2645
14708,2612
14810,2581
14904,2553
14986,2529
15053,2510
15101,2498
15129,2492
15132,2492
15129,2501
15111,2526
15080,2563
15038,2611
15007,2644
14863,2797
14776,2811
14731,2820
14667,2833
14592,2849
14514,2867
14488,2873
14405,2891
14305,2913
14198,2936
14095,2958
14042,2969
13795,3020
13764,3084
13722,3191
13695,3303
13683,3416
13687,3524
13707,3620
13726,3669
13777,3748
13844,3813
13921,3860
13957,3873
14001,3883
14062,3892
14131,3900
14178,3905
14249,3911
14298,3918
14327,3926
14342,3937
14364,3955
14376,3958
14377,3964
14359,3978
14325,3999
14280,4024
14228,4051
14174,4079
14122,4103
14076,4123
14041,4136
14035,4138
13955,4152
13861,4157
13767,4153
13683,4141
13668,4137
13561,4097
13474,4040
13408,3968
13362,3881
13338,3780
13336,3665
13355,3538
13395,3400
13429,3314
13457,3253
13487,3192
13514,3142
13522,3129
13545,3087
13553,3062
13548,3051
13542,3040
13560,3026
13586,3003
13623,2956
13671,2887
13730,2794
13761,2744
13783,2708
13804,2677
13826,2650
13854,2624
13890,2595
13937,2561
13999,2519
14079,2467
14114,2444
14131,2433
14141,2428
14144,2431
" /> 
<polyline style="fill-rule:evenodd;"
points="12842,1702
12833,1717
12807,1747
12768,1791
12718,1845
12660,1907
12595,1974
12528,2044
12459,2113
12393,2179
12332,2239
12308,2262
12247,2320
12170,2392
12084,2473
11992,2558
11899,2645
11809,2727
11802,2734
11720,2809
11641,2884
11566,2953
11501,3015
11447,3067
11409,3104
11400,3114
11289,3233
11201,3341
11135,3438
11089,3525
11064,3604
11058,3677
11071,3744
11074,3751
11114,3820
11175,3873
11256,3910
11265,3913
11336,3926
11429,3932
11543,3930
11673,3921
11818,3906
11974,3884
12138,3856
12308,3822
12448,3791
12589,3757
12707,3730
12803,3707
12880,3689
12941,3676
12987,3666
13022,3660
13048,3656
13066,3655
13079,3656
13091,3658
13097,3660
13140,3672
13011,3749
12923,3799
12837,3843
12748,3883
12652,3919
12546,3953
12426,3986
12288,4020
12129,4056
12088,4064
11867,4110
11670,4147
11496,4175
11348,4195
11223,4206
11124,4208
11055,4203
10950,4179
10867,4143
10806,4095
10765,4031
10742,3957
10740,3908
10750,3845
10768,3776
10792,3712
10801,3693
10834,3635
10879,3570
10936,3498
11007,3417
11093,3325
11195,3222
11315,3106
11452,2975
11604,2835
11777,2675
11933,2526
12073,2390
12196,2266
12300,2157
12384,2063
12418,2023
12465,1967
12505,1924
12545,1888
12593,1852
12654,1811
12683,1793
12739,1758
12787,1729
12822,1710
12840,1702
12842,1702
" /> 
</g>
<g style="fill:#000000; fill-opacity:0.0; 
stroke:#000000; stroke-width:78.7402; stroke-opacity:1; 
stroke-linecap:round; stroke-linejoin:round;">
<path d="M1633.86 39.7543 A1594.49 1594.49 0.0 0 0 39.3705 1634.24 " />
<path d="M39.3705 4665.74 A688.976 688.976 0.0 0 0 728.347 5354.71 " />
<path d="M32322.8 5354.71 A688.976 688.976 0.0 0 0 33011.8 4665.74 " />
<path d="M33011.8 3957.08 A2255.24 2255.24 0.0 0 0 32731.5 3066.22 " />
<path d="M31397.6 689.179 A1146.5 1146.5 0.0 0 0 30334.9 39.749 " />
<path d="M33011 3972
L33011 4665
" />
<path d="M39 4665
L39 1634
" />
<path d="M32322 5354
L728 5354
" />
<path d="M32732 3067
L31397 689
" />
<path d="M1633 39
L30334 39
" />
<circle cx="6299.21" cy="1220.86" r="405.34" /> 
<circle cx="28740.2" cy="1212.81" r="405.34" /> 
</g> 
</svg>
