<?xml version="1.0" standalone="no"?>
 <!DOCTYPE svg PUBLIC "-//W3C//DTD SVG 1.1//EN" 
 "http://www.w3.org/Graphics/SVG/1.1/DTD/svg11.dtd"> 
<svg xmlns="http://www.w3.org/2000/svg" version="1.1" 
    width="26.7691cm" height="12.0193cm" viewBox="0 0 105390 47320 ">
<title>SVG Picture created as zero60_middle_closed_plate_svg-brd.svg date 2019/02/08 16:45:13 </title>
  <desc>Picture generated by PCBNEW </desc>
<g style="fill:#000000; fill-opacity:1;stroke:#000000; stroke-opacity:1;
stroke-linecap:round; stroke-linejoin:round; "
 transform="translate(0 0) scale(1 1)">
</g>
<g style="fill:#000000; fill-opacity:0.0; 
stroke:#000000; stroke-width:-0.000393701; stroke-opacity:1; 
stroke-linecap:round; stroke-linejoin:round;">
</g>
<g style="fill:#FFFFFF; fill-opacity:0.0; 
stroke:#FFFFFF; stroke-width:-0.000393701; stroke-opacity:1; 
stroke-linecap:round; stroke-linejoin:round;">
</g>
<g style="fill:#000000; fill-opacity:0.0; 
stroke:#000000; stroke-width:-0.000393701; stroke-opacity:1; 
stroke-linecap:round; stroke-linejoin:round;">
</g>
<g style="fill:#FFFFFF; fill-opacity:0.0; 
stroke:#FFFFFF; stroke-width:-0.000393701; stroke-opacity:1; 
stroke-linecap:round; stroke-linejoin:round;">
</g>
<g style="fill:#000000; fill-opacity:0.0; 
stroke:#000000; stroke-width:-0.000393701; stroke-opacity:1; 
stroke-linecap:round; stroke-linejoin:round;">
</g>
<g style="fill:#000000; fill-opacity:0.0; 
stroke:#000000; stroke-width:78.7402; stroke-opacity:1; 
stroke-linecap:round; stroke-linejoin:round;">
<path d="M39.3705 45315 A1968.5 1968.5 0.0 0 0 2007.87 47283.5 " />
<path d="M2007.87 39.3705 A1968.5 1968.5 0.0 0 0 39.3705 2007.87 " />
<path d="M105354 1811.02 A1771.65 1771.65 0.0 0 0 103583 39.3705 " />
<path d="M103386 47283.5 A1968.5 1968.5 0.0 0 0 105354 45315 " />
<circle cx="6929.13" cy="45698.3" r="600.958" /> 
<circle cx="36850.4" cy="45708.7" r="599.667" /> 
<circle cx="68740.2" cy="45708.7" r="600.958" /> 
<circle cx="98661.4" cy="45708.7" r="600.958" /> 
<circle cx="98661.4" cy="1811.02" r="600.958" /> 
<circle cx="68740.2" cy="1811.02" r="600.958" /> 
<circle cx="29370.1" cy="1811.02" r="599.667" /> 
<circle cx="6929.13" cy="1811.02" r="600.958" /> 
<path d="M102205 44133.9 A393.701 393.701 0.0 0 0 102598 43740.2 " />
<path d="M102598 6338.58 A393.701 393.701 0.0 0 0 102205 5944.88 " />
<path d="M2795.28 43740.2 A393.701 393.701 0.0 0 0 3188.98 44133.9 " />
<path d="M3188.98 5944.88 A393.701 393.701 0.0 0 0 2795.28 6338.58 " />
<path d="M102204 5944
L3188 5944
" />
<path d="M102598 43740
L102598 6338
" />
<path d="M3188 44133
L102204 44133
" />
<path d="M2795 6338
L2795 43740
" />
<path d="M105354 1811
L105354 45314
" />
<path d="M39 45314
L39 2007
" />
<path d="M103385 47283
L2007 47283
" />
<path d="M2007 39
L103582 39
" />
</g> 
</svg>
