<?xml version="1.0" standalone="no"?>
 <!DOCTYPE svg PUBLIC "-//W3C//DTD SVG 1.1//EN" 
 "http://www.w3.org/Graphics/SVG/1.1/DTD/svg11.dtd"> 
<svg xmlns="http://www.w3.org/2000/svg" version="1.1" 
    width="15.4864cm" height="13.4671cm" viewBox="0 0 60970 53020 ">
<title>SVG Picture created as Apollo-brd.svg date 2020/02/24 02:45:49 </title>
  <desc>Picture generated by PCBNEW </desc>
<g style="fill:#000000; fill-opacity:1;stroke:#000000; stroke-opacity:1;
stroke-linecap:round; stroke-linejoin:round; "
 transform="translate(0 0) scale(1 1)">
</g>
<g style="fill:#000000; fill-opacity:0.0; 
stroke:#000000; stroke-width:-0.000393701; stroke-opacity:1; 
stroke-linecap:round; stroke-linejoin:round;">
<g >
</g>
<g >
</g>
<g >
</g>
<g >
</g>
<g >
</g>
<g >
</g>
<g >
</g>
<g >
</g>
<g >
</g>
<g >
</g>
<g >
</g>
<g >
</g>
<g >
</g>
<g >
</g>
<g >
</g>
<g >
</g>
<g >
</g>
<g >
</g>
<g >
</g>
<g >
</g>
<g >
</g>
<g >
</g>
<g >
</g>
<g >
</g>
<g >
</g>
<g >
</g>
<g >
</g>
<g >
</g>
<g >
</g>
<g >
</g>
<g >
</g>
<g >
</g>
<g >
</g>
<g >
</g>
</g>
<g style="fill:#FFFFFF; fill-opacity:0.0; 
stroke:#FFFFFF; stroke-width:-0.000393701; stroke-opacity:1; 
stroke-linecap:round; stroke-linejoin:round;">
</g>
<g style="fill:#FFFFFF; fill-opacity:0.0; 
stroke:#FFFFFF; stroke-width:200; stroke-opacity:1; 
stroke-linecap:round; stroke-linejoin:round;">
<path d="M47659 9223
L47984 9223
" />
<path d="M42034 9223
L42359 9223
" />
<path d="M47659 7123
L47984 7123
" />
<path d="M42034 7123
L42359 7123
" />
</g>
<g style="fill:#FFFFFF; fill-opacity:0.0; 
stroke:#FFFFFF; stroke-width:500; stroke-opacity:1; 
stroke-linecap:round; stroke-linejoin:round;">
<path d="M44259 10923
L45759 10923
" />
<path d="M44259 5423
L45759 5423
" />
</g>
<g style="fill:#FFFFFF; fill-opacity:0.0; 
stroke:#FFFFFF; stroke-width:200; stroke-opacity:1; 
stroke-linecap:round; stroke-linejoin:round;">
<path d="M42359 7123
L42359 9223
" />
<path d="M47659 7123
L47659 9223
" />
<path d="M42034 9223
L42034 10823
" />
<path d="M47984 9223
L47984 10823
" />
<path d="M47984 5523
L47984 7123
" />
<path d="M42034 5523
L42034 7123
" />
<path d="M42039 10823
L47979 10823
" />
<path d="M42039 5523
L47979 5523
" />
<path d="M25159 8273
L25484 8273
" />
<path d="M19534 8273
L19859 8273
" />
<path d="M25159 6173
L25484 6173
" />
<path d="M19534 6173
L19859 6173
" />
</g>
<g style="fill:#FFFFFF; fill-opacity:0.0; 
stroke:#FFFFFF; stroke-width:500; stroke-opacity:1; 
stroke-linecap:round; stroke-linejoin:round;">
<path d="M21759 9973
L23259 9973
" />
<path d="M21759 4473
L23259 4473
" />
</g>
<g style="fill:#FFFFFF; fill-opacity:0.0; 
stroke:#FFFFFF; stroke-width:200; stroke-opacity:1; 
stroke-linecap:round; stroke-linejoin:round;">
<path d="M19859 6173
L19859 8273
" />
<path d="M25159 6173
L25159 8273
" />
<path d="M19534 8273
L19534 9873
" />
<path d="M25484 8273
L25484 9873
" />
<path d="M25484 4573
L25484 6173
" />
<path d="M19534 4573
L19534 6173
" />
<path d="M19539 9873
L25479 9873
" />
<path d="M19539 4573
L25479 4573
" />
<path d="M2664 21448
L8604 21448
" />
<path d="M2664 26748
L8604 26748
" />
<path d="M2659 21448
L2659 23048
" />
<path d="M8609 21448
L8609 23048
" />
<path d="M8609 25148
L8609 26748
" />
<path d="M2659 25148
L2659 26748
" />
<path d="M8284 23048
L8284 25148
" />
<path d="M2984 23048
L2984 25148
" />
</g>
<g style="fill:#FFFFFF; fill-opacity:0.0; 
stroke:#FFFFFF; stroke-width:500; stroke-opacity:1; 
stroke-linecap:round; stroke-linejoin:round;">
<path d="M4884 21348
L6384 21348
" />
<path d="M4884 26848
L6384 26848
" />
</g>
<g style="fill:#FFFFFF; fill-opacity:0.0; 
stroke:#FFFFFF; stroke-width:200; stroke-opacity:1; 
stroke-linecap:round; stroke-linejoin:round;">
<path d="M2659 23048
L2984 23048
" />
<path d="M8284 23048
L8609 23048
" />
<path d="M2659 25148
L2984 25148
" />
<path d="M8284 25148
L8609 25148
" />
<path d="M8284 32648
L8609 32648
" />
<path d="M2659 32648
L2984 32648
" />
<path d="M8284 30548
L8609 30548
" />
<path d="M2659 30548
L2984 30548
" />
</g>
<g style="fill:#FFFFFF; fill-opacity:0.0; 
stroke:#FFFFFF; stroke-width:500; stroke-opacity:1; 
stroke-linecap:round; stroke-linejoin:round;">
<path d="M4884 34348
L6384 34348
" />
<path d="M4884 28848
L6384 28848
" />
</g>
<g style="fill:#FFFFFF; fill-opacity:0.0; 
stroke:#FFFFFF; stroke-width:200; stroke-opacity:1; 
stroke-linecap:round; stroke-linejoin:round;">
<path d="M2984 30548
L2984 32648
" />
<path d="M8284 30548
L8284 32648
" />
<path d="M2659 32648
L2659 34248
" />
<path d="M8609 32648
L8609 34248
" />
<path d="M8609 28948
L8609 30548
" />
<path d="M2659 28948
L2659 30548
" />
<path d="M2664 34248
L8604 34248
" />
<path d="M2664 28948
L8604 28948
" />
<path d="M8284 10148
L8609 10148
" />
<path d="M2659 10148
L2984 10148
" />
<path d="M8284 8048
L8609 8048
" />
<path d="M2659 8048
L2984 8048
" />
</g>
<g style="fill:#FFFFFF; fill-opacity:0.0; 
stroke:#FFFFFF; stroke-width:500; stroke-opacity:1; 
stroke-linecap:round; stroke-linejoin:round;">
<path d="M4884 11848
L6384 11848
" />
<path d="M4884 6348
L6384 6348
" />
</g>
<g style="fill:#FFFFFF; fill-opacity:0.0; 
stroke:#FFFFFF; stroke-width:200; stroke-opacity:1; 
stroke-linecap:round; stroke-linejoin:round;">
<path d="M2984 8048
L2984 10148
" />
<path d="M8284 8048
L8284 10148
" />
<path d="M2659 10148
L2659 11748
" />
<path d="M8609 10148
L8609 11748
" />
<path d="M8609 6448
L8609 8048
" />
<path d="M2659 6448
L2659 8048
" />
<path d="M2664 11748
L8604 11748
" />
<path d="M2664 6448
L8604 6448
" />
<path d="M2664 36448
L8604 36448
" />
<path d="M2664 41748
L8604 41748
" />
<path d="M2659 36448
L2659 38048
" />
<path d="M8609 36448
L8609 38048
" />
<path d="M8609 40148
L8609 41748
" />
<path d="M2659 40148
L2659 41748
" />
<path d="M8284 38048
L8284 40148
" />
<path d="M2984 38048
L2984 40148
" />
</g>
<g style="fill:#FFFFFF; fill-opacity:0.0; 
stroke:#FFFFFF; stroke-width:500; stroke-opacity:1; 
stroke-linecap:round; stroke-linejoin:round;">
<path d="M4884 36348
L6384 36348
" />
<path d="M4884 41848
L6384 41848
" />
</g>
<g style="fill:#FFFFFF; fill-opacity:0.0; 
stroke:#FFFFFF; stroke-width:200; stroke-opacity:1; 
stroke-linecap:round; stroke-linejoin:round;">
<path d="M2659 38048
L2984 38048
" />
<path d="M8284 38048
L8609 38048
" />
<path d="M2659 40148
L2984 40148
" />
<path d="M8284 40148
L8609 40148
" />
<path d="M2664 13948
L8604 13948
" />
<path d="M2664 19248
L8604 19248
" />
<path d="M2659 13948
L2659 15548
" />
<path d="M8609 13948
L8609 15548
" />
<path d="M8609 17648
L8609 19248
" />
<path d="M2659 17648
L2659 19248
" />
<path d="M8284 15548
L8284 17648
" />
<path d="M2984 15548
L2984 17648
" />
</g>
<g style="fill:#FFFFFF; fill-opacity:0.0; 
stroke:#FFFFFF; stroke-width:500; stroke-opacity:1; 
stroke-linecap:round; stroke-linejoin:round;">
<path d="M4884 13848
L6384 13848
" />
<path d="M4884 19348
L6384 19348
" />
</g>
<g style="fill:#FFFFFF; fill-opacity:0.0; 
stroke:#FFFFFF; stroke-width:200; stroke-opacity:1; 
stroke-linecap:round; stroke-linejoin:round;">
<path d="M2659 15548
L2984 15548
" />
<path d="M8284 15548
L8609 15548
" />
<path d="M2659 17648
L2984 17648
" />
<path d="M8284 17648
L8609 17648
" />
<path d="M52687 41408
L57668 44643
" />
<path d="M49800 45853
L54782 49088
" />
<path d="M52683 41405
L51811 42747
" />
<path d="M57673 44646
L56801 45987
" />
<path d="M55658 47749
L54786 49091
" />
<path d="M50667 44508
L49796 45850
" />
<path d="M56529 45810
L55385 47572
" />
<path d="M52084 42924
L50940 44685
" />
</g>
<g style="fill:#FFFFFF; fill-opacity:0.0; 
stroke:#FFFFFF; stroke-width:500; stroke-opacity:1; 
stroke-linecap:round; stroke-linejoin:round;">
<path d="M54603 42533
L55861 43350
" />
<path d="M51608 47146
L52866 47963
" />
</g>
<g style="fill:#FFFFFF; fill-opacity:0.0; 
stroke:#FFFFFF; stroke-width:200; stroke-opacity:1; 
stroke-linecap:round; stroke-linejoin:round;">
<path d="M51811 42747
L52084 42924
" />
<path d="M56529 45810
L56801 45987
" />
<path d="M50667 44508
L50940 44685
" />
<path d="M55385 47572
L55658 47749
" />
<path d="M46412 37333
L51393 40568
" />
<path d="M43525 41778
L48507 45013
" />
<path d="M46408 37330
L45536 38672
" />
<path d="M51398 40571
L50526 41912
" />
<path d="M49383 43674
L48511 45016
" />
<path d="M44392 40433
L43521 41775
" />
<path d="M50254 41735
L49110 43497
" />
<path d="M45809 38849
L44665 40610
" />
</g>
<g style="fill:#FFFFFF; fill-opacity:0.0; 
stroke:#FFFFFF; stroke-width:500; stroke-opacity:1; 
stroke-linecap:round; stroke-linejoin:round;">
<path d="M48328 38458
L49586 39275
" />
<path d="M45333 43071
L46591 43888
" />
</g>
<g style="fill:#FFFFFF; fill-opacity:0.0; 
stroke:#FFFFFF; stroke-width:200; stroke-opacity:1; 
stroke-linecap:round; stroke-linejoin:round;">
<path d="M45536 38672
L45809 38849
" />
<path d="M50254 41735
L50526 41912
" />
<path d="M44392 40433
L44665 40610
" />
<path d="M49110 43497
L49383 43674
" />
<path d="M40442 41526
L34705 39989
" />
<path d="M41814 36407
L36076 34869
" />
<path d="M40447 41527
L40861 39982
" />
<path d="M34700 39987
L35114 38442
" />
<path d="M35657 36414
L36072 34868
" />
<path d="M41405 37953
L41819 36408
" />
<path d="M35428 38526
L35971 36498
" />
<path d="M40547 39898
L41091 37869
" />
</g>
<g style="fill:#FFFFFF; fill-opacity:0.0; 
stroke:#FFFFFF; stroke-width:500; stroke-opacity:1; 
stroke-linecap:round; stroke-linejoin:round;">
<path d="M38272 41048
L36823 40660
" />
<path d="M39696 35736
L38247 35347
" />
</g>
<g style="fill:#FFFFFF; fill-opacity:0.0; 
stroke:#FFFFFF; stroke-width:200; stroke-opacity:1; 
stroke-linecap:round; stroke-linejoin:round;">
<path d="M40861 39982
L40547 39898
" />
<path d="M35428 38526
L35114 38442
" />
<path d="M41405 37953
L41091 37869
" />
<path d="M35971 36498
L35657 36414
" />
<path d="M47659 31723
L47984 31723
" />
<path d="M42034 31723
L42359 31723
" />
<path d="M47659 29623
L47984 29623
" />
<path d="M42034 29623
L42359 29623
" />
</g>
<g style="fill:#FFFFFF; fill-opacity:0.0; 
stroke:#FFFFFF; stroke-width:500; stroke-opacity:1; 
stroke-linecap:round; stroke-linejoin:round;">
<path d="M44259 33423
L45759 33423
" />
<path d="M44259 27923
L45759 27923
" />
</g>
<g style="fill:#FFFFFF; fill-opacity:0.0; 
stroke:#FFFFFF; stroke-width:200; stroke-opacity:1; 
stroke-linecap:round; stroke-linejoin:round;">
<path d="M42359 29623
L42359 31723
" />
<path d="M47659 29623
L47659 31723
" />
<path d="M42034 31723
L42034 33323
" />
<path d="M47984 31723
L47984 33323
" />
<path d="M47984 28023
L47984 29623
" />
<path d="M42034 28023
L42034 29623
" />
<path d="M42039 33323
L47979 33323
" />
<path d="M42039 28023
L47979 28023
" />
<path d="M42039 20523
L47979 20523
" />
<path d="M42039 25823
L47979 25823
" />
<path d="M42034 20523
L42034 22123
" />
<path d="M47984 20523
L47984 22123
" />
<path d="M47984 24223
L47984 25823
" />
<path d="M42034 24223
L42034 25823
" />
<path d="M47659 22123
L47659 24223
" />
<path d="M42359 22123
L42359 24223
" />
</g>
<g style="fill:#FFFFFF; fill-opacity:0.0; 
stroke:#FFFFFF; stroke-width:500; stroke-opacity:1; 
stroke-linecap:round; stroke-linejoin:round;">
<path d="M44259 20423
L45759 20423
" />
<path d="M44259 25923
L45759 25923
" />
</g>
<g style="fill:#FFFFFF; fill-opacity:0.0; 
stroke:#FFFFFF; stroke-width:200; stroke-opacity:1; 
stroke-linecap:round; stroke-linejoin:round;">
<path d="M42034 22123
L42359 22123
" />
<path d="M47659 22123
L47984 22123
" />
<path d="M42034 24223
L42359 24223
" />
<path d="M47659 24223
L47984 24223
" />
<path d="M42039 13023
L47979 13023
" />
<path d="M42039 18323
L47979 18323
" />
<path d="M42034 13023
L42034 14623
" />
<path d="M47984 13023
L47984 14623
" />
<path d="M47984 16723
L47984 18323
" />
<path d="M42034 16723
L42034 18323
" />
<path d="M47659 14623
L47659 16723
" />
<path d="M42359 14623
L42359 16723
" />
</g>
<g style="fill:#FFFFFF; fill-opacity:0.0; 
stroke:#FFFFFF; stroke-width:500; stroke-opacity:1; 
stroke-linecap:round; stroke-linejoin:round;">
<path d="M44259 12923
L45759 12923
" />
<path d="M44259 18423
L45759 18423
" />
</g>
<g style="fill:#FFFFFF; fill-opacity:0.0; 
stroke:#FFFFFF; stroke-width:200; stroke-opacity:1; 
stroke-linecap:round; stroke-linejoin:round;">
<path d="M42034 14623
L42359 14623
" />
<path d="M47659 14623
L47984 14623
" />
<path d="M42034 16723
L42359 16723
" />
<path d="M47659 16723
L47984 16723
" />
<path d="M40159 30773
L40484 30773
" />
<path d="M34534 30773
L34859 30773
" />
<path d="M40159 28673
L40484 28673
" />
<path d="M34534 28673
L34859 28673
" />
</g>
<g style="fill:#FFFFFF; fill-opacity:0.0; 
stroke:#FFFFFF; stroke-width:500; stroke-opacity:1; 
stroke-linecap:round; stroke-linejoin:round;">
<path d="M36759 32473
L38259 32473
" />
<path d="M36759 26973
L38259 26973
" />
</g>
<g style="fill:#FFFFFF; fill-opacity:0.0; 
stroke:#FFFFFF; stroke-width:200; stroke-opacity:1; 
stroke-linecap:round; stroke-linejoin:round;">
<path d="M34859 28673
L34859 30773
" />
<path d="M40159 28673
L40159 30773
" />
<path d="M34534 30773
L34534 32373
" />
<path d="M40484 30773
L40484 32373
" />
<path d="M40484 27073
L40484 28673
" />
<path d="M34534 27073
L34534 28673
" />
<path d="M34539 32373
L40479 32373
" />
<path d="M34539 27073
L40479 27073
" />
<path d="M34539 19573
L40479 19573
" />
<path d="M34539 24873
L40479 24873
" />
<path d="M34534 19573
L34534 21173
" />
<path d="M40484 19573
L40484 21173
" />
<path d="M40484 23273
L40484 24873
" />
<path d="M34534 23273
L34534 24873
" />
<path d="M40159 21173
L40159 23273
" />
<path d="M34859 21173
L34859 23273
" />
</g>
<g style="fill:#FFFFFF; fill-opacity:0.0; 
stroke:#FFFFFF; stroke-width:500; stroke-opacity:1; 
stroke-linecap:round; stroke-linejoin:round;">
<path d="M36759 19473
L38259 19473
" />
<path d="M36759 24973
L38259 24973
" />
</g>
<g style="fill:#FFFFFF; fill-opacity:0.0; 
stroke:#FFFFFF; stroke-width:200; stroke-opacity:1; 
stroke-linecap:round; stroke-linejoin:round;">
<path d="M34534 21173
L34859 21173
" />
<path d="M40159 21173
L40484 21173
" />
<path d="M34534 23273
L34859 23273
" />
<path d="M40159 23273
L40484 23273
" />
<path d="M40159 8273
L40484 8273
" />
<path d="M34534 8273
L34859 8273
" />
<path d="M40159 6173
L40484 6173
" />
<path d="M34534 6173
L34859 6173
" />
</g>
<g style="fill:#FFFFFF; fill-opacity:0.0; 
stroke:#FFFFFF; stroke-width:500; stroke-opacity:1; 
stroke-linecap:round; stroke-linejoin:round;">
<path d="M36759 9973
L38259 9973
" />
<path d="M36759 4473
L38259 4473
" />
</g>
<g style="fill:#FFFFFF; fill-opacity:0.0; 
stroke:#FFFFFF; stroke-width:200; stroke-opacity:1; 
stroke-linecap:round; stroke-linejoin:round;">
<path d="M34859 6173
L34859 8273
" />
<path d="M40159 6173
L40159 8273
" />
<path d="M34534 8273
L34534 9873
" />
<path d="M40484 8273
L40484 9873
" />
<path d="M40484 4573
L40484 6173
" />
<path d="M34534 4573
L34534 6173
" />
<path d="M34539 9873
L40479 9873
" />
<path d="M34539 4573
L40479 4573
" />
<path d="M34539 12073
L40479 12073
" />
<path d="M34539 17373
L40479 17373
" />
<path d="M34534 12073
L34534 13673
" />
<path d="M40484 12073
L40484 13673
" />
<path d="M40484 15773
L40484 17373
" />
<path d="M34534 15773
L34534 17373
" />
<path d="M40159 13673
L40159 15773
" />
<path d="M34859 13673
L34859 15773
" />
</g>
<g style="fill:#FFFFFF; fill-opacity:0.0; 
stroke:#FFFFFF; stroke-width:500; stroke-opacity:1; 
stroke-linecap:round; stroke-linejoin:round;">
<path d="M36759 11973
L38259 11973
" />
<path d="M36759 17473
L38259 17473
" />
</g>
<g style="fill:#FFFFFF; fill-opacity:0.0; 
stroke:#FFFFFF; stroke-width:200; stroke-opacity:1; 
stroke-linecap:round; stroke-linejoin:round;">
<path d="M34534 13673
L34859 13673
" />
<path d="M40159 13673
L40484 13673
" />
<path d="M34534 15773
L34859 15773
" />
<path d="M40159 15773
L40484 15773
" />
<path d="M27039 3648
L32979 3648
" />
<path d="M27039 8948
L32979 8948
" />
<path d="M27034 3648
L27034 5248
" />
<path d="M32984 3648
L32984 5248
" />
<path d="M32984 7348
L32984 8948
" />
<path d="M27034 7348
L27034 8948
" />
<path d="M32659 5248
L32659 7348
" />
<path d="M27359 5248
L27359 7348
" />
</g>
<g style="fill:#FFFFFF; fill-opacity:0.0; 
stroke:#FFFFFF; stroke-width:500; stroke-opacity:1; 
stroke-linecap:round; stroke-linejoin:round;">
<path d="M29259 3548
L30759 3548
" />
<path d="M29259 9048
L30759 9048
" />
</g>
<g style="fill:#FFFFFF; fill-opacity:0.0; 
stroke:#FFFFFF; stroke-width:200; stroke-opacity:1; 
stroke-linecap:round; stroke-linejoin:round;">
<path d="M27034 5248
L27359 5248
" />
<path d="M32659 5248
L32984 5248
" />
<path d="M27034 7348
L27359 7348
" />
<path d="M32659 7348
L32984 7348
" />
<path d="M32659 14848
L32984 14848
" />
<path d="M27034 14848
L27359 14848
" />
<path d="M32659 12748
L32984 12748
" />
<path d="M27034 12748
L27359 12748
" />
</g>
<g style="fill:#FFFFFF; fill-opacity:0.0; 
stroke:#FFFFFF; stroke-width:500; stroke-opacity:1; 
stroke-linecap:round; stroke-linejoin:round;">
<path d="M29259 16548
L30759 16548
" />
<path d="M29259 11048
L30759 11048
" />
</g>
<g style="fill:#FFFFFF; fill-opacity:0.0; 
stroke:#FFFFFF; stroke-width:200; stroke-opacity:1; 
stroke-linecap:round; stroke-linejoin:round;">
<path d="M27359 12748
L27359 14848
" />
<path d="M32659 12748
L32659 14848
" />
<path d="M27034 14848
L27034 16448
" />
<path d="M32984 14848
L32984 16448
" />
<path d="M32984 11148
L32984 12748
" />
<path d="M27034 11148
L27034 12748
" />
<path d="M27039 16448
L32979 16448
" />
<path d="M27039 11148
L32979 11148
" />
<path d="M32659 37348
L32984 37348
" />
<path d="M27034 37348
L27359 37348
" />
<path d="M32659 35248
L32984 35248
" />
<path d="M27034 35248
L27359 35248
" />
</g>
<g style="fill:#FFFFFF; fill-opacity:0.0; 
stroke:#FFFFFF; stroke-width:500; stroke-opacity:1; 
stroke-linecap:round; stroke-linejoin:round;">
<path d="M29259 39048
L30759 39048
" />
<path d="M29259 33548
L30759 33548
" />
</g>
<g style="fill:#FFFFFF; fill-opacity:0.0; 
stroke:#FFFFFF; stroke-width:200; stroke-opacity:1; 
stroke-linecap:round; stroke-linejoin:round;">
<path d="M27359 35248
L27359 37348
" />
<path d="M32659 35248
L32659 37348
" />
<path d="M27034 37348
L27034 38948
" />
<path d="M32984 37348
L32984 38948
" />
<path d="M32984 33648
L32984 35248
" />
<path d="M27034 33648
L27034 35248
" />
<path d="M27039 38948
L32979 38948
" />
<path d="M27039 33648
L32979 33648
" />
<path d="M27039 26148
L32979 26148
" />
<path d="M27039 31448
L32979 31448
" />
<path d="M27034 26148
L27034 27748
" />
<path d="M32984 26148
L32984 27748
" />
<path d="M32984 29848
L32984 31448
" />
<path d="M27034 29848
L27034 31448
" />
<path d="M32659 27748
L32659 29848
" />
<path d="M27359 27748
L27359 29848
" />
</g>
<g style="fill:#FFFFFF; fill-opacity:0.0; 
stroke:#FFFFFF; stroke-width:500; stroke-opacity:1; 
stroke-linecap:round; stroke-linejoin:round;">
<path d="M29259 26048
L30759 26048
" />
<path d="M29259 31548
L30759 31548
" />
</g>
<g style="fill:#FFFFFF; fill-opacity:0.0; 
stroke:#FFFFFF; stroke-width:200; stroke-opacity:1; 
stroke-linecap:round; stroke-linejoin:round;">
<path d="M27034 27748
L27359 27748
" />
<path d="M32659 27748
L32984 27748
" />
<path d="M27034 29848
L27359 29848
" />
<path d="M32659 29848
L32984 29848
" />
<path d="M32659 22348
L32984 22348
" />
<path d="M27034 22348
L27359 22348
" />
<path d="M32659 20248
L32984 20248
" />
<path d="M27034 20248
L27359 20248
" />
</g>
<g style="fill:#FFFFFF; fill-opacity:0.0; 
stroke:#FFFFFF; stroke-width:500; stroke-opacity:1; 
stroke-linecap:round; stroke-linejoin:round;">
<path d="M29259 24048
L30759 24048
" />
<path d="M29259 18548
L30759 18548
" />
</g>
<g style="fill:#FFFFFF; fill-opacity:0.0; 
stroke:#FFFFFF; stroke-width:200; stroke-opacity:1; 
stroke-linecap:round; stroke-linejoin:round;">
<path d="M27359 20248
L27359 22348
" />
<path d="M32659 20248
L32659 22348
" />
<path d="M27034 22348
L27034 23948
" />
<path d="M32984 22348
L32984 23948
" />
<path d="M32984 18648
L32984 20248
" />
<path d="M27034 18648
L27034 20248
" />
<path d="M27039 23948
L32979 23948
" />
<path d="M27039 18648
L32979 18648
" />
<path d="M12039 6448
L17979 6448
" />
<path d="M12039 11748
L17979 11748
" />
<path d="M12034 6448
L12034 8048
" />
<path d="M17984 6448
L17984 8048
" />
<path d="M17984 10148
L17984 11748
" />
<path d="M12034 10148
L12034 11748
" />
<path d="M17659 8048
L17659 10148
" />
<path d="M12359 8048
L12359 10148
" />
</g>
<g style="fill:#FFFFFF; fill-opacity:0.0; 
stroke:#FFFFFF; stroke-width:500; stroke-opacity:1; 
stroke-linecap:round; stroke-linejoin:round;">
<path d="M14259 6348
L15759 6348
" />
<path d="M14259 11848
L15759 11848
" />
</g>
<g style="fill:#FFFFFF; fill-opacity:0.0; 
stroke:#FFFFFF; stroke-width:200; stroke-opacity:1; 
stroke-linecap:round; stroke-linejoin:round;">
<path d="M12034 8048
L12359 8048
" />
<path d="M17659 8048
L17984 8048
" />
<path d="M12034 10148
L12359 10148
" />
<path d="M17659 10148
L17984 10148
" />
<path d="M12039 13948
L17979 13948
" />
<path d="M12039 19248
L17979 19248
" />
<path d="M12034 13948
L12034 15548
" />
<path d="M17984 13948
L17984 15548
" />
<path d="M17984 17648
L17984 19248
" />
<path d="M12034 17648
L12034 19248
" />
<path d="M17659 15548
L17659 17648
" />
<path d="M12359 15548
L12359 17648
" />
</g>
<g style="fill:#FFFFFF; fill-opacity:0.0; 
stroke:#FFFFFF; stroke-width:500; stroke-opacity:1; 
stroke-linecap:round; stroke-linejoin:round;">
<path d="M14259 13848
L15759 13848
" />
<path d="M14259 19348
L15759 19348
" />
</g>
<g style="fill:#FFFFFF; fill-opacity:0.0; 
stroke:#FFFFFF; stroke-width:200; stroke-opacity:1; 
stroke-linecap:round; stroke-linejoin:round;">
<path d="M12034 15548
L12359 15548
" />
<path d="M17659 15548
L17984 15548
" />
<path d="M12034 17648
L12359 17648
" />
<path d="M17659 17648
L17984 17648
" />
<path d="M17659 40148
L17984 40148
" />
<path d="M12034 40148
L12359 40148
" />
<path d="M17659 38048
L17984 38048
" />
<path d="M12034 38048
L12359 38048
" />
</g>
<g style="fill:#FFFFFF; fill-opacity:0.0; 
stroke:#FFFFFF; stroke-width:500; stroke-opacity:1; 
stroke-linecap:round; stroke-linejoin:round;">
<path d="M14259 41848
L15759 41848
" />
<path d="M14259 36348
L15759 36348
" />
</g>
<g style="fill:#FFFFFF; fill-opacity:0.0; 
stroke:#FFFFFF; stroke-width:200; stroke-opacity:1; 
stroke-linecap:round; stroke-linejoin:round;">
<path d="M12359 38048
L12359 40148
" />
<path d="M17659 38048
L17659 40148
" />
<path d="M12034 40148
L12034 41748
" />
<path d="M17984 40148
L17984 41748
" />
<path d="M17984 36448
L17984 38048
" />
<path d="M12034 36448
L12034 38048
" />
<path d="M12039 41748
L17979 41748
" />
<path d="M12039 36448
L17979 36448
" />
<path d="M12039 28948
L17979 28948
" />
<path d="M12039 34248
L17979 34248
" />
<path d="M12034 28948
L12034 30548
" />
<path d="M17984 28948
L17984 30548
" />
<path d="M17984 32648
L17984 34248
" />
<path d="M12034 32648
L12034 34248
" />
<path d="M17659 30548
L17659 32648
" />
<path d="M12359 30548
L12359 32648
" />
</g>
<g style="fill:#FFFFFF; fill-opacity:0.0; 
stroke:#FFFFFF; stroke-width:500; stroke-opacity:1; 
stroke-linecap:round; stroke-linejoin:round;">
<path d="M14259 28848
L15759 28848
" />
<path d="M14259 34348
L15759 34348
" />
</g>
<g style="fill:#FFFFFF; fill-opacity:0.0; 
stroke:#FFFFFF; stroke-width:200; stroke-opacity:1; 
stroke-linecap:round; stroke-linejoin:round;">
<path d="M12034 30548
L12359 30548
" />
<path d="M17659 30548
L17984 30548
" />
<path d="M12034 32648
L12359 32648
" />
<path d="M17659 32648
L17984 32648
" />
<path d="M17659 25148
L17984 25148
" />
<path d="M12034 25148
L12359 25148
" />
<path d="M17659 23048
L17984 23048
" />
<path d="M12034 23048
L12359 23048
" />
</g>
<g style="fill:#FFFFFF; fill-opacity:0.0; 
stroke:#FFFFFF; stroke-width:500; stroke-opacity:1; 
stroke-linecap:round; stroke-linejoin:round;">
<path d="M14259 26848
L15759 26848
" />
<path d="M14259 21348
L15759 21348
" />
</g>
<g style="fill:#FFFFFF; fill-opacity:0.0; 
stroke:#FFFFFF; stroke-width:200; stroke-opacity:1; 
stroke-linecap:round; stroke-linejoin:round;">
<path d="M12359 23048
L12359 25148
" />
<path d="M17659 23048
L17659 25148
" />
<path d="M12034 25148
L12034 26748
" />
<path d="M17984 25148
L17984 26748
" />
<path d="M17984 21448
L17984 23048
" />
<path d="M12034 21448
L12034 23048
" />
<path d="M12039 26748
L17979 26748
" />
<path d="M12039 21448
L17979 21448
" />
<path d="M19539 34573
L25479 34573
" />
<path d="M19539 39873
L25479 39873
" />
<path d="M19534 34573
L19534 36173
" />
<path d="M25484 34573
L25484 36173
" />
<path d="M25484 38273
L25484 39873
" />
<path d="M19534 38273
L19534 39873
" />
<path d="M25159 36173
L25159 38273
" />
<path d="M19859 36173
L19859 38273
" />
</g>
<g style="fill:#FFFFFF; fill-opacity:0.0; 
stroke:#FFFFFF; stroke-width:500; stroke-opacity:1; 
stroke-linecap:round; stroke-linejoin:round;">
<path d="M21759 34473
L23259 34473
" />
<path d="M21759 39973
L23259 39973
" />
</g>
<g style="fill:#FFFFFF; fill-opacity:0.0; 
stroke:#FFFFFF; stroke-width:200; stroke-opacity:1; 
stroke-linecap:round; stroke-linejoin:round;">
<path d="M19534 36173
L19859 36173
" />
<path d="M25159 36173
L25484 36173
" />
<path d="M19534 38273
L19859 38273
" />
<path d="M25159 38273
L25484 38273
" />
<path d="M19539 19573
L25479 19573
" />
<path d="M19539 24873
L25479 24873
" />
<path d="M19534 19573
L19534 21173
" />
<path d="M25484 19573
L25484 21173
" />
<path d="M25484 23273
L25484 24873
" />
<path d="M19534 23273
L19534 24873
" />
<path d="M25159 21173
L25159 23273
" />
<path d="M19859 21173
L19859 23273
" />
</g>
<g style="fill:#FFFFFF; fill-opacity:0.0; 
stroke:#FFFFFF; stroke-width:500; stroke-opacity:1; 
stroke-linecap:round; stroke-linejoin:round;">
<path d="M21759 19473
L23259 19473
" />
<path d="M21759 24973
L23259 24973
" />
</g>
<g style="fill:#FFFFFF; fill-opacity:0.0; 
stroke:#FFFFFF; stroke-width:200; stroke-opacity:1; 
stroke-linecap:round; stroke-linejoin:round;">
<path d="M19534 21173
L19859 21173
" />
<path d="M25159 21173
L25484 21173
" />
<path d="M19534 23273
L19859 23273
" />
<path d="M25159 23273
L25484 23273
" />
<path d="M25159 30773
L25484 30773
" />
<path d="M19534 30773
L19859 30773
" />
<path d="M25159 28673
L25484 28673
" />
<path d="M19534 28673
L19859 28673
" />
</g>
<g style="fill:#FFFFFF; fill-opacity:0.0; 
stroke:#FFFFFF; stroke-width:500; stroke-opacity:1; 
stroke-linecap:round; stroke-linejoin:round;">
<path d="M21759 32473
L23259 32473
" />
<path d="M21759 26973
L23259 26973
" />
</g>
<g style="fill:#FFFFFF; fill-opacity:0.0; 
stroke:#FFFFFF; stroke-width:200; stroke-opacity:1; 
stroke-linecap:round; stroke-linejoin:round;">
<path d="M19859 28673
L19859 30773
" />
<path d="M25159 28673
L25159 30773
" />
<path d="M19534 30773
L19534 32373
" />
<path d="M25484 30773
L25484 32373
" />
<path d="M25484 27073
L25484 28673
" />
<path d="M19534 27073
L19534 28673
" />
<path d="M19539 32373
L25479 32373
" />
<path d="M19539 27073
L25479 27073
" />
<path d="M19539 12073
L25479 12073
" />
<path d="M19539 17373
L25479 17373
" />
<path d="M19534 12073
L19534 13673
" />
<path d="M25484 12073
L25484 13673
" />
<path d="M25484 15773
L25484 17373
" />
<path d="M19534 15773
L19534 17373
" />
<path d="M25159 13673
L25159 15773
" />
<path d="M19859 13673
L19859 15773
" />
</g>
<g style="fill:#FFFFFF; fill-opacity:0.0; 
stroke:#FFFFFF; stroke-width:500; stroke-opacity:1; 
stroke-linecap:round; stroke-linejoin:round;">
<path d="M21759 11973
L23259 11973
" />
<path d="M21759 17473
L23259 17473
" />
</g>
<g style="fill:#FFFFFF; fill-opacity:0.0; 
stroke:#FFFFFF; stroke-width:200; stroke-opacity:1; 
stroke-linecap:round; stroke-linejoin:round;">
<path d="M19534 13673
L19859 13673
" />
<path d="M25159 13673
L25484 13673
" />
<path d="M19534 15773
L19859 15773
" />
<path d="M25159 15773
L25484 15773
" />
</g>
<g style="fill:#000000; fill-opacity:0.0; 
stroke:#000000; stroke-width:200; stroke-opacity:1; 
stroke-linecap:round; stroke-linejoin:round;">
<g >
</g>
<g >
</g>
<g >
</g>
<g >
</g>
<g >
</g>
<g >
</g>
<g >
</g>
<g >
</g>
<g >
</g>
<g >
</g>
<g >
</g>
<g >
</g>
<g >
</g>
<g >
</g>
<g >
</g>
<g >
</g>
<g >
</g>
<g >
</g>
<g >
</g>
<g >
</g>
<g >
</g>
<g >
</g>
<g >
</g>
<g >
</g>
<g >
</g>
<g >
</g>
<g >
</g>
<g >
</g>
<g >
</g>
<g >
</g>
<g >
</g>
<g >
</g>
<g >
</g>
<g >
</g>
</g>
<g style="fill:#FFFFFF; fill-opacity:0.0; 
stroke:#FFFFFF; stroke-width:200; stroke-opacity:1; 
stroke-linecap:round; stroke-linejoin:round;">
<path d="M47659 9223
L47984 9223
" />
<path d="M42034 9223
L42359 9223
" />
<path d="M47659 7123
L47984 7123
" />
<path d="M42034 7123
L42359 7123
" />
</g>
<g style="fill:#FFFFFF; fill-opacity:0.0; 
stroke:#FFFFFF; stroke-width:500; stroke-opacity:1; 
stroke-linecap:round; stroke-linejoin:round;">
<path d="M44259 10923
L45759 10923
" />
<path d="M44259 5423
L45759 5423
" />
</g>
<g style="fill:#FFFFFF; fill-opacity:0.0; 
stroke:#FFFFFF; stroke-width:200; stroke-opacity:1; 
stroke-linecap:round; stroke-linejoin:round;">
<path d="M42359 7123
L42359 9223
" />
<path d="M47659 7123
L47659 9223
" />
<path d="M42034 9223
L42034 10823
" />
<path d="M47984 9223
L47984 10823
" />
<path d="M47984 5523
L47984 7123
" />
<path d="M42034 5523
L42034 7123
" />
<path d="M42039 10823
L47979 10823
" />
<path d="M42039 5523
L47979 5523
" />
<path d="M25159 8273
L25484 8273
" />
<path d="M19534 8273
L19859 8273
" />
<path d="M25159 6173
L25484 6173
" />
<path d="M19534 6173
L19859 6173
" />
</g>
<g style="fill:#FFFFFF; fill-opacity:0.0; 
stroke:#FFFFFF; stroke-width:500; stroke-opacity:1; 
stroke-linecap:round; stroke-linejoin:round;">
<path d="M21759 9973
L23259 9973
" />
<path d="M21759 4473
L23259 4473
" />
</g>
<g style="fill:#FFFFFF; fill-opacity:0.0; 
stroke:#FFFFFF; stroke-width:200; stroke-opacity:1; 
stroke-linecap:round; stroke-linejoin:round;">
<path d="M19859 6173
L19859 8273
" />
<path d="M25159 6173
L25159 8273
" />
<path d="M19534 8273
L19534 9873
" />
<path d="M25484 8273
L25484 9873
" />
<path d="M25484 4573
L25484 6173
" />
<path d="M19534 4573
L19534 6173
" />
<path d="M19539 9873
L25479 9873
" />
<path d="M19539 4573
L25479 4573
" />
<path d="M2664 21448
L8604 21448
" />
<path d="M2664 26748
L8604 26748
" />
<path d="M2659 21448
L2659 23048
" />
<path d="M8609 21448
L8609 23048
" />
<path d="M8609 25148
L8609 26748
" />
<path d="M2659 25148
L2659 26748
" />
<path d="M8284 23048
L8284 25148
" />
<path d="M2984 23048
L2984 25148
" />
</g>
<g style="fill:#FFFFFF; fill-opacity:0.0; 
stroke:#FFFFFF; stroke-width:500; stroke-opacity:1; 
stroke-linecap:round; stroke-linejoin:round;">
<path d="M4884 21348
L6384 21348
" />
<path d="M4884 26848
L6384 26848
" />
</g>
<g style="fill:#FFFFFF; fill-opacity:0.0; 
stroke:#FFFFFF; stroke-width:200; stroke-opacity:1; 
stroke-linecap:round; stroke-linejoin:round;">
<path d="M2659 23048
L2984 23048
" />
<path d="M8284 23048
L8609 23048
" />
<path d="M2659 25148
L2984 25148
" />
<path d="M8284 25148
L8609 25148
" />
<path d="M8284 32648
L8609 32648
" />
<path d="M2659 32648
L2984 32648
" />
<path d="M8284 30548
L8609 30548
" />
<path d="M2659 30548
L2984 30548
" />
</g>
<g style="fill:#FFFFFF; fill-opacity:0.0; 
stroke:#FFFFFF; stroke-width:500; stroke-opacity:1; 
stroke-linecap:round; stroke-linejoin:round;">
<path d="M4884 34348
L6384 34348
" />
<path d="M4884 28848
L6384 28848
" />
</g>
<g style="fill:#FFFFFF; fill-opacity:0.0; 
stroke:#FFFFFF; stroke-width:200; stroke-opacity:1; 
stroke-linecap:round; stroke-linejoin:round;">
<path d="M2984 30548
L2984 32648
" />
<path d="M8284 30548
L8284 32648
" />
<path d="M2659 32648
L2659 34248
" />
<path d="M8609 32648
L8609 34248
" />
<path d="M8609 28948
L8609 30548
" />
<path d="M2659 28948
L2659 30548
" />
<path d="M2664 34248
L8604 34248
" />
<path d="M2664 28948
L8604 28948
" />
<path d="M8284 10148
L8609 10148
" />
<path d="M2659 10148
L2984 10148
" />
<path d="M8284 8048
L8609 8048
" />
<path d="M2659 8048
L2984 8048
" />
</g>
<g style="fill:#FFFFFF; fill-opacity:0.0; 
stroke:#FFFFFF; stroke-width:500; stroke-opacity:1; 
stroke-linecap:round; stroke-linejoin:round;">
<path d="M4884 11848
L6384 11848
" />
<path d="M4884 6348
L6384 6348
" />
</g>
<g style="fill:#FFFFFF; fill-opacity:0.0; 
stroke:#FFFFFF; stroke-width:200; stroke-opacity:1; 
stroke-linecap:round; stroke-linejoin:round;">
<path d="M2984 8048
L2984 10148
" />
<path d="M8284 8048
L8284 10148
" />
<path d="M2659 10148
L2659 11748
" />
<path d="M8609 10148
L8609 11748
" />
<path d="M8609 6448
L8609 8048
" />
<path d="M2659 6448
L2659 8048
" />
<path d="M2664 11748
L8604 11748
" />
<path d="M2664 6448
L8604 6448
" />
<path d="M2664 36448
L8604 36448
" />
<path d="M2664 41748
L8604 41748
" />
<path d="M2659 36448
L2659 38048
" />
<path d="M8609 36448
L8609 38048
" />
<path d="M8609 40148
L8609 41748
" />
<path d="M2659 40148
L2659 41748
" />
<path d="M8284 38048
L8284 40148
" />
<path d="M2984 38048
L2984 40148
" />
</g>
<g style="fill:#FFFFFF; fill-opacity:0.0; 
stroke:#FFFFFF; stroke-width:500; stroke-opacity:1; 
stroke-linecap:round; stroke-linejoin:round;">
<path d="M4884 36348
L6384 36348
" />
<path d="M4884 41848
L6384 41848
" />
</g>
<g style="fill:#FFFFFF; fill-opacity:0.0; 
stroke:#FFFFFF; stroke-width:200; stroke-opacity:1; 
stroke-linecap:round; stroke-linejoin:round;">
<path d="M2659 38048
L2984 38048
" />
<path d="M8284 38048
L8609 38048
" />
<path d="M2659 40148
L2984 40148
" />
<path d="M8284 40148
L8609 40148
" />
<path d="M2664 13948
L8604 13948
" />
<path d="M2664 19248
L8604 19248
" />
<path d="M2659 13948
L2659 15548
" />
<path d="M8609 13948
L8609 15548
" />
<path d="M8609 17648
L8609 19248
" />
<path d="M2659 17648
L2659 19248
" />
<path d="M8284 15548
L8284 17648
" />
<path d="M2984 15548
L2984 17648
" />
</g>
<g style="fill:#FFFFFF; fill-opacity:0.0; 
stroke:#FFFFFF; stroke-width:500; stroke-opacity:1; 
stroke-linecap:round; stroke-linejoin:round;">
<path d="M4884 13848
L6384 13848
" />
<path d="M4884 19348
L6384 19348
" />
</g>
<g style="fill:#FFFFFF; fill-opacity:0.0; 
stroke:#FFFFFF; stroke-width:200; stroke-opacity:1; 
stroke-linecap:round; stroke-linejoin:round;">
<path d="M2659 15548
L2984 15548
" />
<path d="M8284 15548
L8609 15548
" />
<path d="M2659 17648
L2984 17648
" />
<path d="M8284 17648
L8609 17648
" />
<path d="M52687 41408
L57668 44643
" />
<path d="M49800 45853
L54782 49088
" />
<path d="M52683 41405
L51811 42747
" />
<path d="M57673 44646
L56801 45987
" />
<path d="M55658 47749
L54786 49091
" />
<path d="M50667 44508
L49796 45850
" />
<path d="M56529 45810
L55385 47572
" />
<path d="M52084 42924
L50940 44685
" />
</g>
<g style="fill:#FFFFFF; fill-opacity:0.0; 
stroke:#FFFFFF; stroke-width:500; stroke-opacity:1; 
stroke-linecap:round; stroke-linejoin:round;">
<path d="M54603 42533
L55861 43350
" />
<path d="M51608 47146
L52866 47963
" />
</g>
<g style="fill:#FFFFFF; fill-opacity:0.0; 
stroke:#FFFFFF; stroke-width:200; stroke-opacity:1; 
stroke-linecap:round; stroke-linejoin:round;">
<path d="M51811 42747
L52084 42924
" />
<path d="M56529 45810
L56801 45987
" />
<path d="M50667 44508
L50940 44685
" />
<path d="M55385 47572
L55658 47749
" />
<path d="M46412 37333
L51393 40568
" />
<path d="M43525 41778
L48507 45013
" />
<path d="M46408 37330
L45536 38672
" />
<path d="M51398 40571
L50526 41912
" />
<path d="M49383 43674
L48511 45016
" />
<path d="M44392 40433
L43521 41775
" />
<path d="M50254 41735
L49110 43497
" />
<path d="M45809 38849
L44665 40610
" />
</g>
<g style="fill:#FFFFFF; fill-opacity:0.0; 
stroke:#FFFFFF; stroke-width:500; stroke-opacity:1; 
stroke-linecap:round; stroke-linejoin:round;">
<path d="M48328 38458
L49586 39275
" />
<path d="M45333 43071
L46591 43888
" />
</g>
<g style="fill:#FFFFFF; fill-opacity:0.0; 
stroke:#FFFFFF; stroke-width:200; stroke-opacity:1; 
stroke-linecap:round; stroke-linejoin:round;">
<path d="M45536 38672
L45809 38849
" />
<path d="M50254 41735
L50526 41912
" />
<path d="M44392 40433
L44665 40610
" />
<path d="M49110 43497
L49383 43674
" />
<path d="M40442 41526
L34705 39989
" />
<path d="M41814 36407
L36076 34869
" />
<path d="M40447 41527
L40861 39982
" />
<path d="M34700 39987
L35114 38442
" />
<path d="M35657 36414
L36072 34868
" />
<path d="M41405 37953
L41819 36408
" />
<path d="M35428 38526
L35971 36498
" />
<path d="M40547 39898
L41091 37869
" />
</g>
<g style="fill:#FFFFFF; fill-opacity:0.0; 
stroke:#FFFFFF; stroke-width:500; stroke-opacity:1; 
stroke-linecap:round; stroke-linejoin:round;">
<path d="M38272 41048
L36823 40660
" />
<path d="M39696 35736
L38247 35347
" />
</g>
<g style="fill:#FFFFFF; fill-opacity:0.0; 
stroke:#FFFFFF; stroke-width:200; stroke-opacity:1; 
stroke-linecap:round; stroke-linejoin:round;">
<path d="M40861 39982
L40547 39898
" />
<path d="M35428 38526
L35114 38442
" />
<path d="M41405 37953
L41091 37869
" />
<path d="M35971 36498
L35657 36414
" />
<path d="M47659 31723
L47984 31723
" />
<path d="M42034 31723
L42359 31723
" />
<path d="M47659 29623
L47984 29623
" />
<path d="M42034 29623
L42359 29623
" />
</g>
<g style="fill:#FFFFFF; fill-opacity:0.0; 
stroke:#FFFFFF; stroke-width:500; stroke-opacity:1; 
stroke-linecap:round; stroke-linejoin:round;">
<path d="M44259 33423
L45759 33423
" />
<path d="M44259 27923
L45759 27923
" />
</g>
<g style="fill:#FFFFFF; fill-opacity:0.0; 
stroke:#FFFFFF; stroke-width:200; stroke-opacity:1; 
stroke-linecap:round; stroke-linejoin:round;">
<path d="M42359 29623
L42359 31723
" />
<path d="M47659 29623
L47659 31723
" />
<path d="M42034 31723
L42034 33323
" />
<path d="M47984 31723
L47984 33323
" />
<path d="M47984 28023
L47984 29623
" />
<path d="M42034 28023
L42034 29623
" />
<path d="M42039 33323
L47979 33323
" />
<path d="M42039 28023
L47979 28023
" />
<path d="M42039 20523
L47979 20523
" />
<path d="M42039 25823
L47979 25823
" />
<path d="M42034 20523
L42034 22123
" />
<path d="M47984 20523
L47984 22123
" />
<path d="M47984 24223
L47984 25823
" />
<path d="M42034 24223
L42034 25823
" />
<path d="M47659 22123
L47659 24223
" />
<path d="M42359 22123
L42359 24223
" />
</g>
<g style="fill:#FFFFFF; fill-opacity:0.0; 
stroke:#FFFFFF; stroke-width:500; stroke-opacity:1; 
stroke-linecap:round; stroke-linejoin:round;">
<path d="M44259 20423
L45759 20423
" />
<path d="M44259 25923
L45759 25923
" />
</g>
<g style="fill:#FFFFFF; fill-opacity:0.0; 
stroke:#FFFFFF; stroke-width:200; stroke-opacity:1; 
stroke-linecap:round; stroke-linejoin:round;">
<path d="M42034 22123
L42359 22123
" />
<path d="M47659 22123
L47984 22123
" />
<path d="M42034 24223
L42359 24223
" />
<path d="M47659 24223
L47984 24223
" />
<path d="M42039 13023
L47979 13023
" />
<path d="M42039 18323
L47979 18323
" />
<path d="M42034 13023
L42034 14623
" />
<path d="M47984 13023
L47984 14623
" />
<path d="M47984 16723
L47984 18323
" />
<path d="M42034 16723
L42034 18323
" />
<path d="M47659 14623
L47659 16723
" />
<path d="M42359 14623
L42359 16723
" />
</g>
<g style="fill:#FFFFFF; fill-opacity:0.0; 
stroke:#FFFFFF; stroke-width:500; stroke-opacity:1; 
stroke-linecap:round; stroke-linejoin:round;">
<path d="M44259 12923
L45759 12923
" />
<path d="M44259 18423
L45759 18423
" />
</g>
<g style="fill:#FFFFFF; fill-opacity:0.0; 
stroke:#FFFFFF; stroke-width:200; stroke-opacity:1; 
stroke-linecap:round; stroke-linejoin:round;">
<path d="M42034 14623
L42359 14623
" />
<path d="M47659 14623
L47984 14623
" />
<path d="M42034 16723
L42359 16723
" />
<path d="M47659 16723
L47984 16723
" />
<path d="M40159 30773
L40484 30773
" />
<path d="M34534 30773
L34859 30773
" />
<path d="M40159 28673
L40484 28673
" />
<path d="M34534 28673
L34859 28673
" />
</g>
<g style="fill:#FFFFFF; fill-opacity:0.0; 
stroke:#FFFFFF; stroke-width:500; stroke-opacity:1; 
stroke-linecap:round; stroke-linejoin:round;">
<path d="M36759 32473
L38259 32473
" />
<path d="M36759 26973
L38259 26973
" />
</g>
<g style="fill:#FFFFFF; fill-opacity:0.0; 
stroke:#FFFFFF; stroke-width:200; stroke-opacity:1; 
stroke-linecap:round; stroke-linejoin:round;">
<path d="M34859 28673
L34859 30773
" />
<path d="M40159 28673
L40159 30773
" />
<path d="M34534 30773
L34534 32373
" />
<path d="M40484 30773
L40484 32373
" />
<path d="M40484 27073
L40484 28673
" />
<path d="M34534 27073
L34534 28673
" />
<path d="M34539 32373
L40479 32373
" />
<path d="M34539 27073
L40479 27073
" />
<path d="M34539 19573
L40479 19573
" />
<path d="M34539 24873
L40479 24873
" />
<path d="M34534 19573
L34534 21173
" />
<path d="M40484 19573
L40484 21173
" />
<path d="M40484 23273
L40484 24873
" />
<path d="M34534 23273
L34534 24873
" />
<path d="M40159 21173
L40159 23273
" />
<path d="M34859 21173
L34859 23273
" />
</g>
<g style="fill:#FFFFFF; fill-opacity:0.0; 
stroke:#FFFFFF; stroke-width:500; stroke-opacity:1; 
stroke-linecap:round; stroke-linejoin:round;">
<path d="M36759 19473
L38259 19473
" />
<path d="M36759 24973
L38259 24973
" />
</g>
<g style="fill:#FFFFFF; fill-opacity:0.0; 
stroke:#FFFFFF; stroke-width:200; stroke-opacity:1; 
stroke-linecap:round; stroke-linejoin:round;">
<path d="M34534 21173
L34859 21173
" />
<path d="M40159 21173
L40484 21173
" />
<path d="M34534 23273
L34859 23273
" />
<path d="M40159 23273
L40484 23273
" />
<path d="M40159 8273
L40484 8273
" />
<path d="M34534 8273
L34859 8273
" />
<path d="M40159 6173
L40484 6173
" />
<path d="M34534 6173
L34859 6173
" />
</g>
<g style="fill:#FFFFFF; fill-opacity:0.0; 
stroke:#FFFFFF; stroke-width:500; stroke-opacity:1; 
stroke-linecap:round; stroke-linejoin:round;">
<path d="M36759 9973
L38259 9973
" />
<path d="M36759 4473
L38259 4473
" />
</g>
<g style="fill:#FFFFFF; fill-opacity:0.0; 
stroke:#FFFFFF; stroke-width:200; stroke-opacity:1; 
stroke-linecap:round; stroke-linejoin:round;">
<path d="M34859 6173
L34859 8273
" />
<path d="M40159 6173
L40159 8273
" />
<path d="M34534 8273
L34534 9873
" />
<path d="M40484 8273
L40484 9873
" />
<path d="M40484 4573
L40484 6173
" />
<path d="M34534 4573
L34534 6173
" />
<path d="M34539 9873
L40479 9873
" />
<path d="M34539 4573
L40479 4573
" />
<path d="M34539 12073
L40479 12073
" />
<path d="M34539 17373
L40479 17373
" />
<path d="M34534 12073
L34534 13673
" />
<path d="M40484 12073
L40484 13673
" />
<path d="M40484 15773
L40484 17373
" />
<path d="M34534 15773
L34534 17373
" />
<path d="M40159 13673
L40159 15773
" />
<path d="M34859 13673
L34859 15773
" />
</g>
<g style="fill:#FFFFFF; fill-opacity:0.0; 
stroke:#FFFFFF; stroke-width:500; stroke-opacity:1; 
stroke-linecap:round; stroke-linejoin:round;">
<path d="M36759 11973
L38259 11973
" />
<path d="M36759 17473
L38259 17473
" />
</g>
<g style="fill:#FFFFFF; fill-opacity:0.0; 
stroke:#FFFFFF; stroke-width:200; stroke-opacity:1; 
stroke-linecap:round; stroke-linejoin:round;">
<path d="M34534 13673
L34859 13673
" />
<path d="M40159 13673
L40484 13673
" />
<path d="M34534 15773
L34859 15773
" />
<path d="M40159 15773
L40484 15773
" />
<path d="M27039 3648
L32979 3648
" />
<path d="M27039 8948
L32979 8948
" />
<path d="M27034 3648
L27034 5248
" />
<path d="M32984 3648
L32984 5248
" />
<path d="M32984 7348
L32984 8948
" />
<path d="M27034 7348
L27034 8948
" />
<path d="M32659 5248
L32659 7348
" />
<path d="M27359 5248
L27359 7348
" />
</g>
<g style="fill:#FFFFFF; fill-opacity:0.0; 
stroke:#FFFFFF; stroke-width:500; stroke-opacity:1; 
stroke-linecap:round; stroke-linejoin:round;">
<path d="M29259 3548
L30759 3548
" />
<path d="M29259 9048
L30759 9048
" />
</g>
<g style="fill:#FFFFFF; fill-opacity:0.0; 
stroke:#FFFFFF; stroke-width:200; stroke-opacity:1; 
stroke-linecap:round; stroke-linejoin:round;">
<path d="M27034 5248
L27359 5248
" />
<path d="M32659 5248
L32984 5248
" />
<path d="M27034 7348
L27359 7348
" />
<path d="M32659 7348
L32984 7348
" />
<path d="M32659 14848
L32984 14848
" />
<path d="M27034 14848
L27359 14848
" />
<path d="M32659 12748
L32984 12748
" />
<path d="M27034 12748
L27359 12748
" />
</g>
<g style="fill:#FFFFFF; fill-opacity:0.0; 
stroke:#FFFFFF; stroke-width:500; stroke-opacity:1; 
stroke-linecap:round; stroke-linejoin:round;">
<path d="M29259 16548
L30759 16548
" />
<path d="M29259 11048
L30759 11048
" />
</g>
<g style="fill:#FFFFFF; fill-opacity:0.0; 
stroke:#FFFFFF; stroke-width:200; stroke-opacity:1; 
stroke-linecap:round; stroke-linejoin:round;">
<path d="M27359 12748
L27359 14848
" />
<path d="M32659 12748
L32659 14848
" />
<path d="M27034 14848
L27034 16448
" />
<path d="M32984 14848
L32984 16448
" />
<path d="M32984 11148
L32984 12748
" />
<path d="M27034 11148
L27034 12748
" />
<path d="M27039 16448
L32979 16448
" />
<path d="M27039 11148
L32979 11148
" />
<path d="M32659 37348
L32984 37348
" />
<path d="M27034 37348
L27359 37348
" />
<path d="M32659 35248
L32984 35248
" />
<path d="M27034 35248
L27359 35248
" />
</g>
<g style="fill:#FFFFFF; fill-opacity:0.0; 
stroke:#FFFFFF; stroke-width:500; stroke-opacity:1; 
stroke-linecap:round; stroke-linejoin:round;">
<path d="M29259 39048
L30759 39048
" />
<path d="M29259 33548
L30759 33548
" />
</g>
<g style="fill:#FFFFFF; fill-opacity:0.0; 
stroke:#FFFFFF; stroke-width:200; stroke-opacity:1; 
stroke-linecap:round; stroke-linejoin:round;">
<path d="M27359 35248
L27359 37348
" />
<path d="M32659 35248
L32659 37348
" />
<path d="M27034 37348
L27034 38948
" />
<path d="M32984 37348
L32984 38948
" />
<path d="M32984 33648
L32984 35248
" />
<path d="M27034 33648
L27034 35248
" />
<path d="M27039 38948
L32979 38948
" />
<path d="M27039 33648
L32979 33648
" />
<path d="M27039 26148
L32979 26148
" />
<path d="M27039 31448
L32979 31448
" />
<path d="M27034 26148
L27034 27748
" />
<path d="M32984 26148
L32984 27748
" />
<path d="M32984 29848
L32984 31448
" />
<path d="M27034 29848
L27034 31448
" />
<path d="M32659 27748
L32659 29848
" />
<path d="M27359 27748
L27359 29848
" />
</g>
<g style="fill:#FFFFFF; fill-opacity:0.0; 
stroke:#FFFFFF; stroke-width:500; stroke-opacity:1; 
stroke-linecap:round; stroke-linejoin:round;">
<path d="M29259 26048
L30759 26048
" />
<path d="M29259 31548
L30759 31548
" />
</g>
<g style="fill:#FFFFFF; fill-opacity:0.0; 
stroke:#FFFFFF; stroke-width:200; stroke-opacity:1; 
stroke-linecap:round; stroke-linejoin:round;">
<path d="M27034 27748
L27359 27748
" />
<path d="M32659 27748
L32984 27748
" />
<path d="M27034 29848
L27359 29848
" />
<path d="M32659 29848
L32984 29848
" />
<path d="M32659 22348
L32984 22348
" />
<path d="M27034 22348
L27359 22348
" />
<path d="M32659 20248
L32984 20248
" />
<path d="M27034 20248
L27359 20248
" />
</g>
<g style="fill:#FFFFFF; fill-opacity:0.0; 
stroke:#FFFFFF; stroke-width:500; stroke-opacity:1; 
stroke-linecap:round; stroke-linejoin:round;">
<path d="M29259 24048
L30759 24048
" />
<path d="M29259 18548
L30759 18548
" />
</g>
<g style="fill:#FFFFFF; fill-opacity:0.0; 
stroke:#FFFFFF; stroke-width:200; stroke-opacity:1; 
stroke-linecap:round; stroke-linejoin:round;">
<path d="M27359 20248
L27359 22348
" />
<path d="M32659 20248
L32659 22348
" />
<path d="M27034 22348
L27034 23948
" />
<path d="M32984 22348
L32984 23948
" />
<path d="M32984 18648
L32984 20248
" />
<path d="M27034 18648
L27034 20248
" />
<path d="M27039 23948
L32979 23948
" />
<path d="M27039 18648
L32979 18648
" />
<path d="M12039 6448
L17979 6448
" />
<path d="M12039 11748
L17979 11748
" />
<path d="M12034 6448
L12034 8048
" />
<path d="M17984 6448
L17984 8048
" />
<path d="M17984 10148
L17984 11748
" />
<path d="M12034 10148
L12034 11748
" />
<path d="M17659 8048
L17659 10148
" />
<path d="M12359 8048
L12359 10148
" />
</g>
<g style="fill:#FFFFFF; fill-opacity:0.0; 
stroke:#FFFFFF; stroke-width:500; stroke-opacity:1; 
stroke-linecap:round; stroke-linejoin:round;">
<path d="M14259 6348
L15759 6348
" />
<path d="M14259 11848
L15759 11848
" />
</g>
<g style="fill:#FFFFFF; fill-opacity:0.0; 
stroke:#FFFFFF; stroke-width:200; stroke-opacity:1; 
stroke-linecap:round; stroke-linejoin:round;">
<path d="M12034 8048
L12359 8048
" />
<path d="M17659 8048
L17984 8048
" />
<path d="M12034 10148
L12359 10148
" />
<path d="M17659 10148
L17984 10148
" />
<path d="M12039 13948
L17979 13948
" />
<path d="M12039 19248
L17979 19248
" />
<path d="M12034 13948
L12034 15548
" />
<path d="M17984 13948
L17984 15548
" />
<path d="M17984 17648
L17984 19248
" />
<path d="M12034 17648
L12034 19248
" />
<path d="M17659 15548
L17659 17648
" />
<path d="M12359 15548
L12359 17648
" />
</g>
<g style="fill:#FFFFFF; fill-opacity:0.0; 
stroke:#FFFFFF; stroke-width:500; stroke-opacity:1; 
stroke-linecap:round; stroke-linejoin:round;">
<path d="M14259 13848
L15759 13848
" />
<path d="M14259 19348
L15759 19348
" />
</g>
<g style="fill:#FFFFFF; fill-opacity:0.0; 
stroke:#FFFFFF; stroke-width:200; stroke-opacity:1; 
stroke-linecap:round; stroke-linejoin:round;">
<path d="M12034 15548
L12359 15548
" />
<path d="M17659 15548
L17984 15548
" />
<path d="M12034 17648
L12359 17648
" />
<path d="M17659 17648
L17984 17648
" />
<path d="M17659 40148
L17984 40148
" />
<path d="M12034 40148
L12359 40148
" />
<path d="M17659 38048
L17984 38048
" />
<path d="M12034 38048
L12359 38048
" />
</g>
<g style="fill:#FFFFFF; fill-opacity:0.0; 
stroke:#FFFFFF; stroke-width:500; stroke-opacity:1; 
stroke-linecap:round; stroke-linejoin:round;">
<path d="M14259 41848
L15759 41848
" />
<path d="M14259 36348
L15759 36348
" />
</g>
<g style="fill:#FFFFFF; fill-opacity:0.0; 
stroke:#FFFFFF; stroke-width:200; stroke-opacity:1; 
stroke-linecap:round; stroke-linejoin:round;">
<path d="M12359 38048
L12359 40148
" />
<path d="M17659 38048
L17659 40148
" />
<path d="M12034 40148
L12034 41748
" />
<path d="M17984 40148
L17984 41748
" />
<path d="M17984 36448
L17984 38048
" />
<path d="M12034 36448
L12034 38048
" />
<path d="M12039 41748
L17979 41748
" />
<path d="M12039 36448
L17979 36448
" />
<path d="M12039 28948
L17979 28948
" />
<path d="M12039 34248
L17979 34248
" />
<path d="M12034 28948
L12034 30548
" />
<path d="M17984 28948
L17984 30548
" />
<path d="M17984 32648
L17984 34248
" />
<path d="M12034 32648
L12034 34248
" />
<path d="M17659 30548
L17659 32648
" />
<path d="M12359 30548
L12359 32648
" />
</g>
<g style="fill:#FFFFFF; fill-opacity:0.0; 
stroke:#FFFFFF; stroke-width:500; stroke-opacity:1; 
stroke-linecap:round; stroke-linejoin:round;">
<path d="M14259 28848
L15759 28848
" />
<path d="M14259 34348
L15759 34348
" />
</g>
<g style="fill:#FFFFFF; fill-opacity:0.0; 
stroke:#FFFFFF; stroke-width:200; stroke-opacity:1; 
stroke-linecap:round; stroke-linejoin:round;">
<path d="M12034 30548
L12359 30548
" />
<path d="M17659 30548
L17984 30548
" />
<path d="M12034 32648
L12359 32648
" />
<path d="M17659 32648
L17984 32648
" />
<path d="M17659 25148
L17984 25148
" />
<path d="M12034 25148
L12359 25148
" />
<path d="M17659 23048
L17984 23048
" />
<path d="M12034 23048
L12359 23048
" />
</g>
<g style="fill:#FFFFFF; fill-opacity:0.0; 
stroke:#FFFFFF; stroke-width:500; stroke-opacity:1; 
stroke-linecap:round; stroke-linejoin:round;">
<path d="M14259 26848
L15759 26848
" />
<path d="M14259 21348
L15759 21348
" />
</g>
<g style="fill:#FFFFFF; fill-opacity:0.0; 
stroke:#FFFFFF; stroke-width:200; stroke-opacity:1; 
stroke-linecap:round; stroke-linejoin:round;">
<path d="M12359 23048
L12359 25148
" />
<path d="M17659 23048
L17659 25148
" />
<path d="M12034 25148
L12034 26748
" />
<path d="M17984 25148
L17984 26748
" />
<path d="M17984 21448
L17984 23048
" />
<path d="M12034 21448
L12034 23048
" />
<path d="M12039 26748
L17979 26748
" />
<path d="M12039 21448
L17979 21448
" />
<path d="M19539 34573
L25479 34573
" />
<path d="M19539 39873
L25479 39873
" />
<path d="M19534 34573
L19534 36173
" />
<path d="M25484 34573
L25484 36173
" />
<path d="M25484 38273
L25484 39873
" />
<path d="M19534 38273
L19534 39873
" />
<path d="M25159 36173
L25159 38273
" />
<path d="M19859 36173
L19859 38273
" />
</g>
<g style="fill:#FFFFFF; fill-opacity:0.0; 
stroke:#FFFFFF; stroke-width:500; stroke-opacity:1; 
stroke-linecap:round; stroke-linejoin:round;">
<path d="M21759 34473
L23259 34473
" />
<path d="M21759 39973
L23259 39973
" />
</g>
<g style="fill:#FFFFFF; fill-opacity:0.0; 
stroke:#FFFFFF; stroke-width:200; stroke-opacity:1; 
stroke-linecap:round; stroke-linejoin:round;">
<path d="M19534 36173
L19859 36173
" />
<path d="M25159 36173
L25484 36173
" />
<path d="M19534 38273
L19859 38273
" />
<path d="M25159 38273
L25484 38273
" />
<path d="M19539 19573
L25479 19573
" />
<path d="M19539 24873
L25479 24873
" />
<path d="M19534 19573
L19534 21173
" />
<path d="M25484 19573
L25484 21173
" />
<path d="M25484 23273
L25484 24873
" />
<path d="M19534 23273
L19534 24873
" />
<path d="M25159 21173
L25159 23273
" />
<path d="M19859 21173
L19859 23273
" />
</g>
<g style="fill:#FFFFFF; fill-opacity:0.0; 
stroke:#FFFFFF; stroke-width:500; stroke-opacity:1; 
stroke-linecap:round; stroke-linejoin:round;">
<path d="M21759 19473
L23259 19473
" />
<path d="M21759 24973
L23259 24973
" />
</g>
<g style="fill:#FFFFFF; fill-opacity:0.0; 
stroke:#FFFFFF; stroke-width:200; stroke-opacity:1; 
stroke-linecap:round; stroke-linejoin:round;">
<path d="M19534 21173
L19859 21173
" />
<path d="M25159 21173
L25484 21173
" />
<path d="M19534 23273
L19859 23273
" />
<path d="M25159 23273
L25484 23273
" />
<path d="M25159 30773
L25484 30773
" />
<path d="M19534 30773
L19859 30773
" />
<path d="M25159 28673
L25484 28673
" />
<path d="M19534 28673
L19859 28673
" />
</g>
<g style="fill:#FFFFFF; fill-opacity:0.0; 
stroke:#FFFFFF; stroke-width:500; stroke-opacity:1; 
stroke-linecap:round; stroke-linejoin:round;">
<path d="M21759 32473
L23259 32473
" />
<path d="M21759 26973
L23259 26973
" />
</g>
<g style="fill:#FFFFFF; fill-opacity:0.0; 
stroke:#FFFFFF; stroke-width:200; stroke-opacity:1; 
stroke-linecap:round; stroke-linejoin:round;">
<path d="M19859 28673
L19859 30773
" />
<path d="M25159 28673
L25159 30773
" />
<path d="M19534 30773
L19534 32373
" />
<path d="M25484 30773
L25484 32373
" />
<path d="M25484 27073
L25484 28673
" />
<path d="M19534 27073
L19534 28673
" />
<path d="M19539 32373
L25479 32373
" />
<path d="M19539 27073
L25479 27073
" />
<path d="M19539 12073
L25479 12073
" />
<path d="M19539 17373
L25479 17373
" />
<path d="M19534 12073
L19534 13673
" />
<path d="M25484 12073
L25484 13673
" />
<path d="M25484 15773
L25484 17373
" />
<path d="M19534 15773
L19534 17373
" />
<path d="M25159 13673
L25159 15773
" />
<path d="M19859 13673
L19859 15773
" />
</g>
<g style="fill:#FFFFFF; fill-opacity:0.0; 
stroke:#FFFFFF; stroke-width:500; stroke-opacity:1; 
stroke-linecap:round; stroke-linejoin:round;">
<path d="M21759 11973
L23259 11973
" />
<path d="M21759 17473
L23259 17473
" />
</g>
<g style="fill:#FFFFFF; fill-opacity:0.0; 
stroke:#FFFFFF; stroke-width:200; stroke-opacity:1; 
stroke-linecap:round; stroke-linejoin:round;">
<path d="M19534 13673
L19859 13673
" />
<path d="M25159 13673
L25484 13673
" />
<path d="M19534 15773
L19859 15773
" />
<path d="M25159 15773
L25484 15773
" />
</g>
<g style="fill:#000000; fill-opacity:0.0; 
stroke:#000000; stroke-width:200; stroke-opacity:1; 
stroke-linecap:round; stroke-linejoin:round;">
</g>
<g style="fill:#000000; fill-opacity:0.0; 
stroke:#000000; stroke-width:19.685; stroke-opacity:1; 
stroke-linecap:round; stroke-linejoin:round;">
<path d="M49534.8 34548.2 A375 375 0.0 0 0 49732.1 34878.4 " />
<path d="M60924.8 42538.2 A362.353 362.353 0.0 0 0 60805.8 42066.7 " />
<path d="M49732 34878
L60805 42066
" />
<path d="M53744.8 52968.2 A362.353 362.353 0.0 0 0 54216.3 52849.2 " />
<path d="M60924 42538
L54216 52849
" />
<path d="M40659 44453
L53744 52968
" />
<path d="M33684 41848
L40659 44453
" />
<path d="M26584 41423
L33684 41848
" />
<path d="M19534 42748
L19534 41973
" />
<path d="M42034 3223
L42034 3423
" />
<path d="M34534 2323
L34534 2448
" />
<path d="M25484 2323
L25484 2473
" />
<path d="M17984 3573
L17984 4348
" />
<path d="M49534 4523
L49534 34548
" />
<path d="M26584 41423
L20084 41423
" />
<path d="M18984 43298
L559 43298
" />
<path d="M48984 3973
L42584 3973
" />
<path d="M41809 2998
L35084 2998
" />
<path d="M34309 2098
L25709 2098
" />
<path d="M24934 3023
L18534 3023
" />
<path d="M17434 4898
L559 4898
" />
<path d="M42034.8 3223.23 A225 225 0.0 0 0 41809.8 2998.23 " />
<path d="M34534.8 2323.23 A225 225 0.0 0 0 34309.8 2098.23 " />
<path d="M25709.8 2098.23 A225 225 0.0 0 0 25484.8 2323.23 " />
<path d="M20084.8 41423.2 A550 550 0.0 0 0 19534.8 41973.2 " />
<path d="M18984.8 43298.2 A550 550 0.0 0 0 19534.8 42748.2 " />
<path d="M9.84291 42748.2 A550 550 0.0 0 0 559.843 43298.2 " />
<path d="M49534.8 4523.23 A550 550 0.0 0 0 48984.8 3973.23 " />
<path d="M42034.8 3423.23 A550 550 0.0 0 0 42584.8 3973.23 " />
<path d="M34534.8 2448.23 A550 550 0.0 0 0 35084.8 2998.23 " />
<path d="M24934.8 3023.23 A550 550 0.0 0 0 25484.8 2473.23 " />
<path d="M18534.8 3023.23 A550 550 0.0 0 0 17984.8 3573.23 " />
<path d="M17434.8 4898.23 A550 550 0.0 0 0 17984.8 4348.23 " />
<path d="M559.843 4898.23 A550 550 0.0 0 0 9.84291 5448.23 " />
<path d="M9 42748
L9 5448
" />
<g >
</g>
<g >
</g>
<g >
</g>
<g >
</g>
<g >
</g>
<g >
</g>
<g >
</g>
<g >
</g>
<g >
</g>
<g >
</g>
<g >
</g>
<g >
</g>
<g >
</g>
<g >
</g>
<g >
</g>
<g >
</g>
<g >
</g>
<g >
</g>
<g >
</g>
<g >
</g>
<g >
</g>
<g >
</g>
<g >
</g>
<g >
</g>
<g >
</g>
<g >
</g>
<g >
</g>
<g >
</g>
<g >
</g>
<g >
</g>
<g >
</g>
<g >
</g>
</g> 
</svg>
