<?xml version="1.0" standalone="no"?>
 <!DOCTYPE svg PUBLIC "-//W3C//DTD SVG 1.1//EN" 
 "http://www.w3.org/Graphics/SVG/1.1/DTD/svg11.dtd"> 
<svg xmlns="http://www.w3.org/2000/svg" version="1.1" 
    width="15.4864cm" height="13.4671cm" viewBox="0 0 60970 53020 ">
<title>SVG Picture created as Apollo-brd.svg date 2020/02/24 02:50:06 </title>
  <desc>Picture generated by PCBNEW </desc>
<g style="fill:#000000; fill-opacity:1;stroke:#000000; stroke-opacity:1;
stroke-linecap:round; stroke-linejoin:round; "
 transform="translate(0 0) scale(1 1)">
</g>
<g style="fill:#000000; fill-opacity:0.0; 
stroke:#000000; stroke-width:-0.000393701; stroke-opacity:1; 
stroke-linecap:round; stroke-linejoin:round;">
<g >
</g>
<g >
</g>
<g >
</g>
<g >
</g>
<g >
</g>
<g >
</g>
<g >
</g>
<g >
</g>
<g >
</g>
<g >
</g>
<g >
</g>
<g >
</g>
<g >
</g>
<g >
</g>
<g >
</g>
<g >
</g>
<g >
</g>
<g >
</g>
<g >
</g>
<g >
</g>
<g >
</g>
<g >
</g>
<g >
</g>
<g >
</g>
<g >
</g>
<g >
</g>
<g >
</g>
<g >
</g>
<g >
</g>
<g >
</g>
<g >
</g>
<g >
</g>
<g >
</g>
<g >
</g>
</g>
<g style="fill:#FFFFFF; fill-opacity:0.0; 
stroke:#FFFFFF; stroke-width:-0.000393701; stroke-opacity:1; 
stroke-linecap:round; stroke-linejoin:round;">
</g>
<g style="fill:#FFFFFF; fill-opacity:0.0; 
stroke:#FFFFFF; stroke-width:200; stroke-opacity:1; 
stroke-linecap:round; stroke-linejoin:round;">
<path d="M13317 9223
L12992 9223
" />
<path d="M18942 9223
L18617 9223
" />
<path d="M13317 7123
L12992 7123
" />
<path d="M18942 7123
L18617 7123
" />
</g>
<g style="fill:#FFFFFF; fill-opacity:0.0; 
stroke:#FFFFFF; stroke-width:500; stroke-opacity:1; 
stroke-linecap:round; stroke-linejoin:round;">
<path d="M16717 10923
L15217 10923
" />
<path d="M16717 5423
L15217 5423
" />
</g>
<g style="fill:#FFFFFF; fill-opacity:0.0; 
stroke:#FFFFFF; stroke-width:200; stroke-opacity:1; 
stroke-linecap:round; stroke-linejoin:round;">
<path d="M18617 9223
L18617 7123
" />
<path d="M13317 9223
L13317 7123
" />
<path d="M18942 10823
L18942 9223
" />
<path d="M12992 10823
L12992 9223
" />
<path d="M12992 7123
L12992 5523
" />
<path d="M18942 7123
L18942 5523
" />
<path d="M18937 10823
L12997 10823
" />
<path d="M18937 5523
L12997 5523
" />
<path d="M35817 8273
L35492 8273
" />
<path d="M41442 8273
L41117 8273
" />
<path d="M35817 6173
L35492 6173
" />
<path d="M41442 6173
L41117 6173
" />
</g>
<g style="fill:#FFFFFF; fill-opacity:0.0; 
stroke:#FFFFFF; stroke-width:500; stroke-opacity:1; 
stroke-linecap:round; stroke-linejoin:round;">
<path d="M39217 9973
L37717 9973
" />
<path d="M39217 4473
L37717 4473
" />
</g>
<g style="fill:#FFFFFF; fill-opacity:0.0; 
stroke:#FFFFFF; stroke-width:200; stroke-opacity:1; 
stroke-linecap:round; stroke-linejoin:round;">
<path d="M41117 8273
L41117 6173
" />
<path d="M35817 8273
L35817 6173
" />
<path d="M41442 9873
L41442 8273
" />
<path d="M35492 9873
L35492 8273
" />
<path d="M35492 6173
L35492 4573
" />
<path d="M41442 6173
L41442 4573
" />
<path d="M41437 9873
L35497 9873
" />
<path d="M41437 4573
L35497 4573
" />
<path d="M58312 21448
L52372 21448
" />
<path d="M58312 26748
L52372 26748
" />
<path d="M58317 23048
L58317 21448
" />
<path d="M52367 23048
L52367 21448
" />
<path d="M52367 26748
L52367 25148
" />
<path d="M58317 26748
L58317 25148
" />
<path d="M52692 25148
L52692 23048
" />
<path d="M57992 25148
L57992 23048
" />
</g>
<g style="fill:#FFFFFF; fill-opacity:0.0; 
stroke:#FFFFFF; stroke-width:500; stroke-opacity:1; 
stroke-linecap:round; stroke-linejoin:round;">
<path d="M56092 21348
L54592 21348
" />
<path d="M56092 26848
L54592 26848
" />
</g>
<g style="fill:#FFFFFF; fill-opacity:0.0; 
stroke:#FFFFFF; stroke-width:200; stroke-opacity:1; 
stroke-linecap:round; stroke-linejoin:round;">
<path d="M58317 23048
L57992 23048
" />
<path d="M52692 23048
L52367 23048
" />
<path d="M58317 25148
L57992 25148
" />
<path d="M52692 25148
L52367 25148
" />
<path d="M52692 32648
L52367 32648
" />
<path d="M58317 32648
L57992 32648
" />
<path d="M52692 30548
L52367 30548
" />
<path d="M58317 30548
L57992 30548
" />
</g>
<g style="fill:#FFFFFF; fill-opacity:0.0; 
stroke:#FFFFFF; stroke-width:500; stroke-opacity:1; 
stroke-linecap:round; stroke-linejoin:round;">
<path d="M56092 34348
L54592 34348
" />
<path d="M56092 28848
L54592 28848
" />
</g>
<g style="fill:#FFFFFF; fill-opacity:0.0; 
stroke:#FFFFFF; stroke-width:200; stroke-opacity:1; 
stroke-linecap:round; stroke-linejoin:round;">
<path d="M57992 32648
L57992 30548
" />
<path d="M52692 32648
L52692 30548
" />
<path d="M58317 34248
L58317 32648
" />
<path d="M52367 34248
L52367 32648
" />
<path d="M52367 30548
L52367 28948
" />
<path d="M58317 30548
L58317 28948
" />
<path d="M58312 34248
L52372 34248
" />
<path d="M58312 28948
L52372 28948
" />
<path d="M52692 10148
L52367 10148
" />
<path d="M58317 10148
L57992 10148
" />
<path d="M52692 8048
L52367 8048
" />
<path d="M58317 8048
L57992 8048
" />
</g>
<g style="fill:#FFFFFF; fill-opacity:0.0; 
stroke:#FFFFFF; stroke-width:500; stroke-opacity:1; 
stroke-linecap:round; stroke-linejoin:round;">
<path d="M56092 11848
L54592 11848
" />
<path d="M56092 6348
L54592 6348
" />
</g>
<g style="fill:#FFFFFF; fill-opacity:0.0; 
stroke:#FFFFFF; stroke-width:200; stroke-opacity:1; 
stroke-linecap:round; stroke-linejoin:round;">
<path d="M57992 10148
L57992 8048
" />
<path d="M52692 10148
L52692 8048
" />
<path d="M58317 11748
L58317 10148
" />
<path d="M52367 11748
L52367 10148
" />
<path d="M52367 8048
L52367 6448
" />
<path d="M58317 8048
L58317 6448
" />
<path d="M58312 11748
L52372 11748
" />
<path d="M58312 6448
L52372 6448
" />
<path d="M58312 36448
L52372 36448
" />
<path d="M58312 41748
L52372 41748
" />
<path d="M58317 38048
L58317 36448
" />
<path d="M52367 38048
L52367 36448
" />
<path d="M52367 41748
L52367 40148
" />
<path d="M58317 41748
L58317 40148
" />
<path d="M52692 40148
L52692 38048
" />
<path d="M57992 40148
L57992 38048
" />
</g>
<g style="fill:#FFFFFF; fill-opacity:0.0; 
stroke:#FFFFFF; stroke-width:500; stroke-opacity:1; 
stroke-linecap:round; stroke-linejoin:round;">
<path d="M56092 36348
L54592 36348
" />
<path d="M56092 41848
L54592 41848
" />
</g>
<g style="fill:#FFFFFF; fill-opacity:0.0; 
stroke:#FFFFFF; stroke-width:200; stroke-opacity:1; 
stroke-linecap:round; stroke-linejoin:round;">
<path d="M58317 38048
L57992 38048
" />
<path d="M52692 38048
L52367 38048
" />
<path d="M58317 40148
L57992 40148
" />
<path d="M52692 40148
L52367 40148
" />
<path d="M58312 13948
L52372 13948
" />
<path d="M58312 19248
L52372 19248
" />
<path d="M58317 15548
L58317 13948
" />
<path d="M52367 15548
L52367 13948
" />
<path d="M52367 19248
L52367 17648
" />
<path d="M58317 19248
L58317 17648
" />
<path d="M52692 17648
L52692 15548
" />
<path d="M57992 17648
L57992 15548
" />
</g>
<g style="fill:#FFFFFF; fill-opacity:0.0; 
stroke:#FFFFFF; stroke-width:500; stroke-opacity:1; 
stroke-linecap:round; stroke-linejoin:round;">
<path d="M56092 13848
L54592 13848
" />
<path d="M56092 19348
L54592 19348
" />
</g>
<g style="fill:#FFFFFF; fill-opacity:0.0; 
stroke:#FFFFFF; stroke-width:200; stroke-opacity:1; 
stroke-linecap:round; stroke-linejoin:round;">
<path d="M58317 15548
L57992 15548
" />
<path d="M52692 15548
L52367 15548
" />
<path d="M58317 17648
L57992 17648
" />
<path d="M52692 17648
L52367 17648
" />
<path d="M8289 41408
L3308 44643
" />
<path d="M11176 45853
L6194 49088
" />
<path d="M9165 42747
L8293 41405
" />
<path d="M4175 45987
L3303 44646
" />
<path d="M6190 49091
L5319 47749
" />
<path d="M11180 45850
L10309 44508
" />
<path d="M5591 47572
L4447 45810
" />
<path d="M10036 44685
L8892 42924
" />
</g>
<g style="fill:#FFFFFF; fill-opacity:0.0; 
stroke:#FFFFFF; stroke-width:500; stroke-opacity:1; 
stroke-linecap:round; stroke-linejoin:round;">
<path d="M6373 42533
L5115 43350
" />
<path d="M9368 47146
L8110 47963
" />
</g>
<g style="fill:#FFFFFF; fill-opacity:0.0; 
stroke:#FFFFFF; stroke-width:200; stroke-opacity:1; 
stroke-linecap:round; stroke-linejoin:round;">
<path d="M9165 42747
L8892 42924
" />
<path d="M4447 45810
L4175 45987
" />
<path d="M10309 44508
L10036 44685
" />
<path d="M5591 47572
L5319 47749
" />
<path d="M14564 37333
L9583 40568
" />
<path d="M17451 41778
L12469 45013
" />
<path d="M15440 38672
L14568 37330
" />
<path d="M10450 41912
L9578 40571
" />
<path d="M12465 45016
L11594 43674
" />
<path d="M17455 41775
L16584 40433
" />
<path d="M11866 43497
L10722 41735
" />
<path d="M16311 40610
L15167 38849
" />
</g>
<g style="fill:#FFFFFF; fill-opacity:0.0; 
stroke:#FFFFFF; stroke-width:500; stroke-opacity:1; 
stroke-linecap:round; stroke-linejoin:round;">
<path d="M12648 38458
L11390 39275
" />
<path d="M15643 43071
L14385 43888
" />
</g>
<g style="fill:#FFFFFF; fill-opacity:0.0; 
stroke:#FFFFFF; stroke-width:200; stroke-opacity:1; 
stroke-linecap:round; stroke-linejoin:round;">
<path d="M15440 38672
L15167 38849
" />
<path d="M10722 41735
L10450 41912
" />
<path d="M16584 40433
L16311 40610
" />
<path d="M11866 43497
L11594 43674
" />
<path d="M20534 41526
L26271 39989
" />
<path d="M19162 36407
L24900 34869
" />
<path d="M20115 39982
L20529 41527
" />
<path d="M25862 38442
L26276 39987
" />
<path d="M24904 34868
L25319 36414
" />
<path d="M19157 36408
L19571 37953
" />
<path d="M25005 36498
L25548 38526
" />
<path d="M19885 37869
L20429 39898
" />
</g>
<g style="fill:#FFFFFF; fill-opacity:0.0; 
stroke:#FFFFFF; stroke-width:500; stroke-opacity:1; 
stroke-linecap:round; stroke-linejoin:round;">
<path d="M22704 41048
L24153 40660
" />
<path d="M21280 35736
L22729 35347
" />
</g>
<g style="fill:#FFFFFF; fill-opacity:0.0; 
stroke:#FFFFFF; stroke-width:200; stroke-opacity:1; 
stroke-linecap:round; stroke-linejoin:round;">
<path d="M20115 39982
L20429 39898
" />
<path d="M25548 38526
L25862 38442
" />
<path d="M19571 37953
L19885 37869
" />
<path d="M25005 36498
L25319 36414
" />
<path d="M13317 31723
L12992 31723
" />
<path d="M18942 31723
L18617 31723
" />
<path d="M13317 29623
L12992 29623
" />
<path d="M18942 29623
L18617 29623
" />
</g>
<g style="fill:#FFFFFF; fill-opacity:0.0; 
stroke:#FFFFFF; stroke-width:500; stroke-opacity:1; 
stroke-linecap:round; stroke-linejoin:round;">
<path d="M16717 33423
L15217 33423
" />
<path d="M16717 27923
L15217 27923
" />
</g>
<g style="fill:#FFFFFF; fill-opacity:0.0; 
stroke:#FFFFFF; stroke-width:200; stroke-opacity:1; 
stroke-linecap:round; stroke-linejoin:round;">
<path d="M18617 31723
L18617 29623
" />
<path d="M13317 31723
L13317 29623
" />
<path d="M18942 33323
L18942 31723
" />
<path d="M12992 33323
L12992 31723
" />
<path d="M12992 29623
L12992 28023
" />
<path d="M18942 29623
L18942 28023
" />
<path d="M18937 33323
L12997 33323
" />
<path d="M18937 28023
L12997 28023
" />
<path d="M18937 20523
L12997 20523
" />
<path d="M18937 25823
L12997 25823
" />
<path d="M18942 22123
L18942 20523
" />
<path d="M12992 22123
L12992 20523
" />
<path d="M12992 25823
L12992 24223
" />
<path d="M18942 25823
L18942 24223
" />
<path d="M13317 24223
L13317 22123
" />
<path d="M18617 24223
L18617 22123
" />
</g>
<g style="fill:#FFFFFF; fill-opacity:0.0; 
stroke:#FFFFFF; stroke-width:500; stroke-opacity:1; 
stroke-linecap:round; stroke-linejoin:round;">
<path d="M16717 20423
L15217 20423
" />
<path d="M16717 25923
L15217 25923
" />
</g>
<g style="fill:#FFFFFF; fill-opacity:0.0; 
stroke:#FFFFFF; stroke-width:200; stroke-opacity:1; 
stroke-linecap:round; stroke-linejoin:round;">
<path d="M18942 22123
L18617 22123
" />
<path d="M13317 22123
L12992 22123
" />
<path d="M18942 24223
L18617 24223
" />
<path d="M13317 24223
L12992 24223
" />
<path d="M18937 13023
L12997 13023
" />
<path d="M18937 18323
L12997 18323
" />
<path d="M18942 14623
L18942 13023
" />
<path d="M12992 14623
L12992 13023
" />
<path d="M12992 18323
L12992 16723
" />
<path d="M18942 18323
L18942 16723
" />
<path d="M13317 16723
L13317 14623
" />
<path d="M18617 16723
L18617 14623
" />
</g>
<g style="fill:#FFFFFF; fill-opacity:0.0; 
stroke:#FFFFFF; stroke-width:500; stroke-opacity:1; 
stroke-linecap:round; stroke-linejoin:round;">
<path d="M16717 12923
L15217 12923
" />
<path d="M16717 18423
L15217 18423
" />
</g>
<g style="fill:#FFFFFF; fill-opacity:0.0; 
stroke:#FFFFFF; stroke-width:200; stroke-opacity:1; 
stroke-linecap:round; stroke-linejoin:round;">
<path d="M18942 14623
L18617 14623
" />
<path d="M13317 14623
L12992 14623
" />
<path d="M18942 16723
L18617 16723
" />
<path d="M13317 16723
L12992 16723
" />
<path d="M20817 30773
L20492 30773
" />
<path d="M26442 30773
L26117 30773
" />
<path d="M20817 28673
L20492 28673
" />
<path d="M26442 28673
L26117 28673
" />
</g>
<g style="fill:#FFFFFF; fill-opacity:0.0; 
stroke:#FFFFFF; stroke-width:500; stroke-opacity:1; 
stroke-linecap:round; stroke-linejoin:round;">
<path d="M24217 32473
L22717 32473
" />
<path d="M24217 26973
L22717 26973
" />
</g>
<g style="fill:#FFFFFF; fill-opacity:0.0; 
stroke:#FFFFFF; stroke-width:200; stroke-opacity:1; 
stroke-linecap:round; stroke-linejoin:round;">
<path d="M26117 30773
L26117 28673
" />
<path d="M20817 30773
L20817 28673
" />
<path d="M26442 32373
L26442 30773
" />
<path d="M20492 32373
L20492 30773
" />
<path d="M20492 28673
L20492 27073
" />
<path d="M26442 28673
L26442 27073
" />
<path d="M26437 32373
L20497 32373
" />
<path d="M26437 27073
L20497 27073
" />
<path d="M26437 19573
L20497 19573
" />
<path d="M26437 24873
L20497 24873
" />
<path d="M26442 21173
L26442 19573
" />
<path d="M20492 21173
L20492 19573
" />
<path d="M20492 24873
L20492 23273
" />
<path d="M26442 24873
L26442 23273
" />
<path d="M20817 23273
L20817 21173
" />
<path d="M26117 23273
L26117 21173
" />
</g>
<g style="fill:#FFFFFF; fill-opacity:0.0; 
stroke:#FFFFFF; stroke-width:500; stroke-opacity:1; 
stroke-linecap:round; stroke-linejoin:round;">
<path d="M24217 19473
L22717 19473
" />
<path d="M24217 24973
L22717 24973
" />
</g>
<g style="fill:#FFFFFF; fill-opacity:0.0; 
stroke:#FFFFFF; stroke-width:200; stroke-opacity:1; 
stroke-linecap:round; stroke-linejoin:round;">
<path d="M26442 21173
L26117 21173
" />
<path d="M20817 21173
L20492 21173
" />
<path d="M26442 23273
L26117 23273
" />
<path d="M20817 23273
L20492 23273
" />
<path d="M20817 8273
L20492 8273
" />
<path d="M26442 8273
L26117 8273
" />
<path d="M20817 6173
L20492 6173
" />
<path d="M26442 6173
L26117 6173
" />
</g>
<g style="fill:#FFFFFF; fill-opacity:0.0; 
stroke:#FFFFFF; stroke-width:500; stroke-opacity:1; 
stroke-linecap:round; stroke-linejoin:round;">
<path d="M24217 9973
L22717 9973
" />
<path d="M24217 4473
L22717 4473
" />
</g>
<g style="fill:#FFFFFF; fill-opacity:0.0; 
stroke:#FFFFFF; stroke-width:200; stroke-opacity:1; 
stroke-linecap:round; stroke-linejoin:round;">
<path d="M26117 8273
L26117 6173
" />
<path d="M20817 8273
L20817 6173
" />
<path d="M26442 9873
L26442 8273
" />
<path d="M20492 9873
L20492 8273
" />
<path d="M20492 6173
L20492 4573
" />
<path d="M26442 6173
L26442 4573
" />
<path d="M26437 9873
L20497 9873
" />
<path d="M26437 4573
L20497 4573
" />
<path d="M26437 12073
L20497 12073
" />
<path d="M26437 17373
L20497 17373
" />
<path d="M26442 13673
L26442 12073
" />
<path d="M20492 13673
L20492 12073
" />
<path d="M20492 17373
L20492 15773
" />
<path d="M26442 17373
L26442 15773
" />
<path d="M20817 15773
L20817 13673
" />
<path d="M26117 15773
L26117 13673
" />
</g>
<g style="fill:#FFFFFF; fill-opacity:0.0; 
stroke:#FFFFFF; stroke-width:500; stroke-opacity:1; 
stroke-linecap:round; stroke-linejoin:round;">
<path d="M24217 11973
L22717 11973
" />
<path d="M24217 17473
L22717 17473
" />
</g>
<g style="fill:#FFFFFF; fill-opacity:0.0; 
stroke:#FFFFFF; stroke-width:200; stroke-opacity:1; 
stroke-linecap:round; stroke-linejoin:round;">
<path d="M26442 13673
L26117 13673
" />
<path d="M20817 13673
L20492 13673
" />
<path d="M26442 15773
L26117 15773
" />
<path d="M20817 15773
L20492 15773
" />
<path d="M33937 3648
L27997 3648
" />
<path d="M33937 8948
L27997 8948
" />
<path d="M33942 5248
L33942 3648
" />
<path d="M27992 5248
L27992 3648
" />
<path d="M27992 8948
L27992 7348
" />
<path d="M33942 8948
L33942 7348
" />
<path d="M28317 7348
L28317 5248
" />
<path d="M33617 7348
L33617 5248
" />
</g>
<g style="fill:#FFFFFF; fill-opacity:0.0; 
stroke:#FFFFFF; stroke-width:500; stroke-opacity:1; 
stroke-linecap:round; stroke-linejoin:round;">
<path d="M31717 3548
L30217 3548
" />
<path d="M31717 9048
L30217 9048
" />
</g>
<g style="fill:#FFFFFF; fill-opacity:0.0; 
stroke:#FFFFFF; stroke-width:200; stroke-opacity:1; 
stroke-linecap:round; stroke-linejoin:round;">
<path d="M33942 5248
L33617 5248
" />
<path d="M28317 5248
L27992 5248
" />
<path d="M33942 7348
L33617 7348
" />
<path d="M28317 7348
L27992 7348
" />
<path d="M28317 14848
L27992 14848
" />
<path d="M33942 14848
L33617 14848
" />
<path d="M28317 12748
L27992 12748
" />
<path d="M33942 12748
L33617 12748
" />
</g>
<g style="fill:#FFFFFF; fill-opacity:0.0; 
stroke:#FFFFFF; stroke-width:500; stroke-opacity:1; 
stroke-linecap:round; stroke-linejoin:round;">
<path d="M31717 16548
L30217 16548
" />
<path d="M31717 11048
L30217 11048
" />
</g>
<g style="fill:#FFFFFF; fill-opacity:0.0; 
stroke:#FFFFFF; stroke-width:200; stroke-opacity:1; 
stroke-linecap:round; stroke-linejoin:round;">
<path d="M33617 14848
L33617 12748
" />
<path d="M28317 14848
L28317 12748
" />
<path d="M33942 16448
L33942 14848
" />
<path d="M27992 16448
L27992 14848
" />
<path d="M27992 12748
L27992 11148
" />
<path d="M33942 12748
L33942 11148
" />
<path d="M33937 16448
L27997 16448
" />
<path d="M33937 11148
L27997 11148
" />
<path d="M28317 37348
L27992 37348
" />
<path d="M33942 37348
L33617 37348
" />
<path d="M28317 35248
L27992 35248
" />
<path d="M33942 35248
L33617 35248
" />
</g>
<g style="fill:#FFFFFF; fill-opacity:0.0; 
stroke:#FFFFFF; stroke-width:500; stroke-opacity:1; 
stroke-linecap:round; stroke-linejoin:round;">
<path d="M31717 39048
L30217 39048
" />
<path d="M31717 33548
L30217 33548
" />
</g>
<g style="fill:#FFFFFF; fill-opacity:0.0; 
stroke:#FFFFFF; stroke-width:200; stroke-opacity:1; 
stroke-linecap:round; stroke-linejoin:round;">
<path d="M33617 37348
L33617 35248
" />
<path d="M28317 37348
L28317 35248
" />
<path d="M33942 38948
L33942 37348
" />
<path d="M27992 38948
L27992 37348
" />
<path d="M27992 35248
L27992 33648
" />
<path d="M33942 35248
L33942 33648
" />
<path d="M33937 38948
L27997 38948
" />
<path d="M33937 33648
L27997 33648
" />
<path d="M33937 26148
L27997 26148
" />
<path d="M33937 31448
L27997 31448
" />
<path d="M33942 27748
L33942 26148
" />
<path d="M27992 27748
L27992 26148
" />
<path d="M27992 31448
L27992 29848
" />
<path d="M33942 31448
L33942 29848
" />
<path d="M28317 29848
L28317 27748
" />
<path d="M33617 29848
L33617 27748
" />
</g>
<g style="fill:#FFFFFF; fill-opacity:0.0; 
stroke:#FFFFFF; stroke-width:500; stroke-opacity:1; 
stroke-linecap:round; stroke-linejoin:round;">
<path d="M31717 26048
L30217 26048
" />
<path d="M31717 31548
L30217 31548
" />
</g>
<g style="fill:#FFFFFF; fill-opacity:0.0; 
stroke:#FFFFFF; stroke-width:200; stroke-opacity:1; 
stroke-linecap:round; stroke-linejoin:round;">
<path d="M33942 27748
L33617 27748
" />
<path d="M28317 27748
L27992 27748
" />
<path d="M33942 29848
L33617 29848
" />
<path d="M28317 29848
L27992 29848
" />
<path d="M28317 22348
L27992 22348
" />
<path d="M33942 22348
L33617 22348
" />
<path d="M28317 20248
L27992 20248
" />
<path d="M33942 20248
L33617 20248
" />
</g>
<g style="fill:#FFFFFF; fill-opacity:0.0; 
stroke:#FFFFFF; stroke-width:500; stroke-opacity:1; 
stroke-linecap:round; stroke-linejoin:round;">
<path d="M31717 24048
L30217 24048
" />
<path d="M31717 18548
L30217 18548
" />
</g>
<g style="fill:#FFFFFF; fill-opacity:0.0; 
stroke:#FFFFFF; stroke-width:200; stroke-opacity:1; 
stroke-linecap:round; stroke-linejoin:round;">
<path d="M33617 22348
L33617 20248
" />
<path d="M28317 22348
L28317 20248
" />
<path d="M33942 23948
L33942 22348
" />
<path d="M27992 23948
L27992 22348
" />
<path d="M27992 20248
L27992 18648
" />
<path d="M33942 20248
L33942 18648
" />
<path d="M33937 23948
L27997 23948
" />
<path d="M33937 18648
L27997 18648
" />
<path d="M48937 6448
L42997 6448
" />
<path d="M48937 11748
L42997 11748
" />
<path d="M48942 8048
L48942 6448
" />
<path d="M42992 8048
L42992 6448
" />
<path d="M42992 11748
L42992 10148
" />
<path d="M48942 11748
L48942 10148
" />
<path d="M43317 10148
L43317 8048
" />
<path d="M48617 10148
L48617 8048
" />
</g>
<g style="fill:#FFFFFF; fill-opacity:0.0; 
stroke:#FFFFFF; stroke-width:500; stroke-opacity:1; 
stroke-linecap:round; stroke-linejoin:round;">
<path d="M46717 6348
L45217 6348
" />
<path d="M46717 11848
L45217 11848
" />
</g>
<g style="fill:#FFFFFF; fill-opacity:0.0; 
stroke:#FFFFFF; stroke-width:200; stroke-opacity:1; 
stroke-linecap:round; stroke-linejoin:round;">
<path d="M48942 8048
L48617 8048
" />
<path d="M43317 8048
L42992 8048
" />
<path d="M48942 10148
L48617 10148
" />
<path d="M43317 10148
L42992 10148
" />
<path d="M48937 13948
L42997 13948
" />
<path d="M48937 19248
L42997 19248
" />
<path d="M48942 15548
L48942 13948
" />
<path d="M42992 15548
L42992 13948
" />
<path d="M42992 19248
L42992 17648
" />
<path d="M48942 19248
L48942 17648
" />
<path d="M43317 17648
L43317 15548
" />
<path d="M48617 17648
L48617 15548
" />
</g>
<g style="fill:#FFFFFF; fill-opacity:0.0; 
stroke:#FFFFFF; stroke-width:500; stroke-opacity:1; 
stroke-linecap:round; stroke-linejoin:round;">
<path d="M46717 13848
L45217 13848
" />
<path d="M46717 19348
L45217 19348
" />
</g>
<g style="fill:#FFFFFF; fill-opacity:0.0; 
stroke:#FFFFFF; stroke-width:200; stroke-opacity:1; 
stroke-linecap:round; stroke-linejoin:round;">
<path d="M48942 15548
L48617 15548
" />
<path d="M43317 15548
L42992 15548
" />
<path d="M48942 17648
L48617 17648
" />
<path d="M43317 17648
L42992 17648
" />
<path d="M43317 40148
L42992 40148
" />
<path d="M48942 40148
L48617 40148
" />
<path d="M43317 38048
L42992 38048
" />
<path d="M48942 38048
L48617 38048
" />
</g>
<g style="fill:#FFFFFF; fill-opacity:0.0; 
stroke:#FFFFFF; stroke-width:500; stroke-opacity:1; 
stroke-linecap:round; stroke-linejoin:round;">
<path d="M46717 41848
L45217 41848
" />
<path d="M46717 36348
L45217 36348
" />
</g>
<g style="fill:#FFFFFF; fill-opacity:0.0; 
stroke:#FFFFFF; stroke-width:200; stroke-opacity:1; 
stroke-linecap:round; stroke-linejoin:round;">
<path d="M48617 40148
L48617 38048
" />
<path d="M43317 40148
L43317 38048
" />
<path d="M48942 41748
L48942 40148
" />
<path d="M42992 41748
L42992 40148
" />
<path d="M42992 38048
L42992 36448
" />
<path d="M48942 38048
L48942 36448
" />
<path d="M48937 41748
L42997 41748
" />
<path d="M48937 36448
L42997 36448
" />
<path d="M48937 28948
L42997 28948
" />
<path d="M48937 34248
L42997 34248
" />
<path d="M48942 30548
L48942 28948
" />
<path d="M42992 30548
L42992 28948
" />
<path d="M42992 34248
L42992 32648
" />
<path d="M48942 34248
L48942 32648
" />
<path d="M43317 32648
L43317 30548
" />
<path d="M48617 32648
L48617 30548
" />
</g>
<g style="fill:#FFFFFF; fill-opacity:0.0; 
stroke:#FFFFFF; stroke-width:500; stroke-opacity:1; 
stroke-linecap:round; stroke-linejoin:round;">
<path d="M46717 28848
L45217 28848
" />
<path d="M46717 34348
L45217 34348
" />
</g>
<g style="fill:#FFFFFF; fill-opacity:0.0; 
stroke:#FFFFFF; stroke-width:200; stroke-opacity:1; 
stroke-linecap:round; stroke-linejoin:round;">
<path d="M48942 30548
L48617 30548
" />
<path d="M43317 30548
L42992 30548
" />
<path d="M48942 32648
L48617 32648
" />
<path d="M43317 32648
L42992 32648
" />
<path d="M43317 25148
L42992 25148
" />
<path d="M48942 25148
L48617 25148
" />
<path d="M43317 23048
L42992 23048
" />
<path d="M48942 23048
L48617 23048
" />
</g>
<g style="fill:#FFFFFF; fill-opacity:0.0; 
stroke:#FFFFFF; stroke-width:500; stroke-opacity:1; 
stroke-linecap:round; stroke-linejoin:round;">
<path d="M46717 26848
L45217 26848
" />
<path d="M46717 21348
L45217 21348
" />
</g>
<g style="fill:#FFFFFF; fill-opacity:0.0; 
stroke:#FFFFFF; stroke-width:200; stroke-opacity:1; 
stroke-linecap:round; stroke-linejoin:round;">
<path d="M48617 25148
L48617 23048
" />
<path d="M43317 25148
L43317 23048
" />
<path d="M48942 26748
L48942 25148
" />
<path d="M42992 26748
L42992 25148
" />
<path d="M42992 23048
L42992 21448
" />
<path d="M48942 23048
L48942 21448
" />
<path d="M48937 26748
L42997 26748
" />
<path d="M48937 21448
L42997 21448
" />
<path d="M41437 34573
L35497 34573
" />
<path d="M41437 39873
L35497 39873
" />
<path d="M41442 36173
L41442 34573
" />
<path d="M35492 36173
L35492 34573
" />
<path d="M35492 39873
L35492 38273
" />
<path d="M41442 39873
L41442 38273
" />
<path d="M35817 38273
L35817 36173
" />
<path d="M41117 38273
L41117 36173
" />
</g>
<g style="fill:#FFFFFF; fill-opacity:0.0; 
stroke:#FFFFFF; stroke-width:500; stroke-opacity:1; 
stroke-linecap:round; stroke-linejoin:round;">
<path d="M39217 34473
L37717 34473
" />
<path d="M39217 39973
L37717 39973
" />
</g>
<g style="fill:#FFFFFF; fill-opacity:0.0; 
stroke:#FFFFFF; stroke-width:200; stroke-opacity:1; 
stroke-linecap:round; stroke-linejoin:round;">
<path d="M41442 36173
L41117 36173
" />
<path d="M35817 36173
L35492 36173
" />
<path d="M41442 38273
L41117 38273
" />
<path d="M35817 38273
L35492 38273
" />
<path d="M41437 19573
L35497 19573
" />
<path d="M41437 24873
L35497 24873
" />
<path d="M41442 21173
L41442 19573
" />
<path d="M35492 21173
L35492 19573
" />
<path d="M35492 24873
L35492 23273
" />
<path d="M41442 24873
L41442 23273
" />
<path d="M35817 23273
L35817 21173
" />
<path d="M41117 23273
L41117 21173
" />
</g>
<g style="fill:#FFFFFF; fill-opacity:0.0; 
stroke:#FFFFFF; stroke-width:500; stroke-opacity:1; 
stroke-linecap:round; stroke-linejoin:round;">
<path d="M39217 19473
L37717 19473
" />
<path d="M39217 24973
L37717 24973
" />
</g>
<g style="fill:#FFFFFF; fill-opacity:0.0; 
stroke:#FFFFFF; stroke-width:200; stroke-opacity:1; 
stroke-linecap:round; stroke-linejoin:round;">
<path d="M41442 21173
L41117 21173
" />
<path d="M35817 21173
L35492 21173
" />
<path d="M41442 23273
L41117 23273
" />
<path d="M35817 23273
L35492 23273
" />
<path d="M35817 30773
L35492 30773
" />
<path d="M41442 30773
L41117 30773
" />
<path d="M35817 28673
L35492 28673
" />
<path d="M41442 28673
L41117 28673
" />
</g>
<g style="fill:#FFFFFF; fill-opacity:0.0; 
stroke:#FFFFFF; stroke-width:500; stroke-opacity:1; 
stroke-linecap:round; stroke-linejoin:round;">
<path d="M39217 32473
L37717 32473
" />
<path d="M39217 26973
L37717 26973
" />
</g>
<g style="fill:#FFFFFF; fill-opacity:0.0; 
stroke:#FFFFFF; stroke-width:200; stroke-opacity:1; 
stroke-linecap:round; stroke-linejoin:round;">
<path d="M41117 30773
L41117 28673
" />
<path d="M35817 30773
L35817 28673
" />
<path d="M41442 32373
L41442 30773
" />
<path d="M35492 32373
L35492 30773
" />
<path d="M35492 28673
L35492 27073
" />
<path d="M41442 28673
L41442 27073
" />
<path d="M41437 32373
L35497 32373
" />
<path d="M41437 27073
L35497 27073
" />
<path d="M41437 12073
L35497 12073
" />
<path d="M41437 17373
L35497 17373
" />
<path d="M41442 13673
L41442 12073
" />
<path d="M35492 13673
L35492 12073
" />
<path d="M35492 17373
L35492 15773
" />
<path d="M41442 17373
L41442 15773
" />
<path d="M35817 15773
L35817 13673
" />
<path d="M41117 15773
L41117 13673
" />
</g>
<g style="fill:#FFFFFF; fill-opacity:0.0; 
stroke:#FFFFFF; stroke-width:500; stroke-opacity:1; 
stroke-linecap:round; stroke-linejoin:round;">
<path d="M39217 11973
L37717 11973
" />
<path d="M39217 17473
L37717 17473
" />
</g>
<g style="fill:#FFFFFF; fill-opacity:0.0; 
stroke:#FFFFFF; stroke-width:200; stroke-opacity:1; 
stroke-linecap:round; stroke-linejoin:round;">
<path d="M41442 13673
L41117 13673
" />
<path d="M35817 13673
L35492 13673
" />
<path d="M41442 15773
L41117 15773
" />
<path d="M35817 15773
L35492 15773
" />
</g>
<g style="fill:#000000; fill-opacity:0.0; 
stroke:#000000; stroke-width:200; stroke-opacity:1; 
stroke-linecap:round; stroke-linejoin:round;">
<g >
</g>
<g >
</g>
<g >
</g>
<g >
</g>
<g >
</g>
<g >
</g>
<g >
</g>
<g >
</g>
<g >
</g>
<g >
</g>
<g >
</g>
<g >
</g>
<g >
</g>
<g >
</g>
<g >
</g>
<g >
</g>
<g >
</g>
<g >
</g>
<g >
</g>
<g >
</g>
<g >
</g>
<g >
</g>
<g >
</g>
<g >
</g>
<g >
</g>
<g >
</g>
<g >
</g>
<g >
</g>
<g >
</g>
<g >
</g>
<g >
</g>
<g >
</g>
<g >
</g>
<g >
</g>
</g>
<g style="fill:#FFFFFF; fill-opacity:0.0; 
stroke:#FFFFFF; stroke-width:200; stroke-opacity:1; 
stroke-linecap:round; stroke-linejoin:round;">
<path d="M13317 9223
L12992 9223
" />
<path d="M18942 9223
L18617 9223
" />
<path d="M13317 7123
L12992 7123
" />
<path d="M18942 7123
L18617 7123
" />
</g>
<g style="fill:#FFFFFF; fill-opacity:0.0; 
stroke:#FFFFFF; stroke-width:500; stroke-opacity:1; 
stroke-linecap:round; stroke-linejoin:round;">
<path d="M16717 10923
L15217 10923
" />
<path d="M16717 5423
L15217 5423
" />
</g>
<g style="fill:#FFFFFF; fill-opacity:0.0; 
stroke:#FFFFFF; stroke-width:200; stroke-opacity:1; 
stroke-linecap:round; stroke-linejoin:round;">
<path d="M18617 9223
L18617 7123
" />
<path d="M13317 9223
L13317 7123
" />
<path d="M18942 10823
L18942 9223
" />
<path d="M12992 10823
L12992 9223
" />
<path d="M12992 7123
L12992 5523
" />
<path d="M18942 7123
L18942 5523
" />
<path d="M18937 10823
L12997 10823
" />
<path d="M18937 5523
L12997 5523
" />
<path d="M35817 8273
L35492 8273
" />
<path d="M41442 8273
L41117 8273
" />
<path d="M35817 6173
L35492 6173
" />
<path d="M41442 6173
L41117 6173
" />
</g>
<g style="fill:#FFFFFF; fill-opacity:0.0; 
stroke:#FFFFFF; stroke-width:500; stroke-opacity:1; 
stroke-linecap:round; stroke-linejoin:round;">
<path d="M39217 9973
L37717 9973
" />
<path d="M39217 4473
L37717 4473
" />
</g>
<g style="fill:#FFFFFF; fill-opacity:0.0; 
stroke:#FFFFFF; stroke-width:200; stroke-opacity:1; 
stroke-linecap:round; stroke-linejoin:round;">
<path d="M41117 8273
L41117 6173
" />
<path d="M35817 8273
L35817 6173
" />
<path d="M41442 9873
L41442 8273
" />
<path d="M35492 9873
L35492 8273
" />
<path d="M35492 6173
L35492 4573
" />
<path d="M41442 6173
L41442 4573
" />
<path d="M41437 9873
L35497 9873
" />
<path d="M41437 4573
L35497 4573
" />
<path d="M58312 21448
L52372 21448
" />
<path d="M58312 26748
L52372 26748
" />
<path d="M58317 23048
L58317 21448
" />
<path d="M52367 23048
L52367 21448
" />
<path d="M52367 26748
L52367 25148
" />
<path d="M58317 26748
L58317 25148
" />
<path d="M52692 25148
L52692 23048
" />
<path d="M57992 25148
L57992 23048
" />
</g>
<g style="fill:#FFFFFF; fill-opacity:0.0; 
stroke:#FFFFFF; stroke-width:500; stroke-opacity:1; 
stroke-linecap:round; stroke-linejoin:round;">
<path d="M56092 21348
L54592 21348
" />
<path d="M56092 26848
L54592 26848
" />
</g>
<g style="fill:#FFFFFF; fill-opacity:0.0; 
stroke:#FFFFFF; stroke-width:200; stroke-opacity:1; 
stroke-linecap:round; stroke-linejoin:round;">
<path d="M58317 23048
L57992 23048
" />
<path d="M52692 23048
L52367 23048
" />
<path d="M58317 25148
L57992 25148
" />
<path d="M52692 25148
L52367 25148
" />
<path d="M52692 32648
L52367 32648
" />
<path d="M58317 32648
L57992 32648
" />
<path d="M52692 30548
L52367 30548
" />
<path d="M58317 30548
L57992 30548
" />
</g>
<g style="fill:#FFFFFF; fill-opacity:0.0; 
stroke:#FFFFFF; stroke-width:500; stroke-opacity:1; 
stroke-linecap:round; stroke-linejoin:round;">
<path d="M56092 34348
L54592 34348
" />
<path d="M56092 28848
L54592 28848
" />
</g>
<g style="fill:#FFFFFF; fill-opacity:0.0; 
stroke:#FFFFFF; stroke-width:200; stroke-opacity:1; 
stroke-linecap:round; stroke-linejoin:round;">
<path d="M57992 32648
L57992 30548
" />
<path d="M52692 32648
L52692 30548
" />
<path d="M58317 34248
L58317 32648
" />
<path d="M52367 34248
L52367 32648
" />
<path d="M52367 30548
L52367 28948
" />
<path d="M58317 30548
L58317 28948
" />
<path d="M58312 34248
L52372 34248
" />
<path d="M58312 28948
L52372 28948
" />
<path d="M52692 10148
L52367 10148
" />
<path d="M58317 10148
L57992 10148
" />
<path d="M52692 8048
L52367 8048
" />
<path d="M58317 8048
L57992 8048
" />
</g>
<g style="fill:#FFFFFF; fill-opacity:0.0; 
stroke:#FFFFFF; stroke-width:500; stroke-opacity:1; 
stroke-linecap:round; stroke-linejoin:round;">
<path d="M56092 11848
L54592 11848
" />
<path d="M56092 6348
L54592 6348
" />
</g>
<g style="fill:#FFFFFF; fill-opacity:0.0; 
stroke:#FFFFFF; stroke-width:200; stroke-opacity:1; 
stroke-linecap:round; stroke-linejoin:round;">
<path d="M57992 10148
L57992 8048
" />
<path d="M52692 10148
L52692 8048
" />
<path d="M58317 11748
L58317 10148
" />
<path d="M52367 11748
L52367 10148
" />
<path d="M52367 8048
L52367 6448
" />
<path d="M58317 8048
L58317 6448
" />
<path d="M58312 11748
L52372 11748
" />
<path d="M58312 6448
L52372 6448
" />
<path d="M58312 36448
L52372 36448
" />
<path d="M58312 41748
L52372 41748
" />
<path d="M58317 38048
L58317 36448
" />
<path d="M52367 38048
L52367 36448
" />
<path d="M52367 41748
L52367 40148
" />
<path d="M58317 41748
L58317 40148
" />
<path d="M52692 40148
L52692 38048
" />
<path d="M57992 40148
L57992 38048
" />
</g>
<g style="fill:#FFFFFF; fill-opacity:0.0; 
stroke:#FFFFFF; stroke-width:500; stroke-opacity:1; 
stroke-linecap:round; stroke-linejoin:round;">
<path d="M56092 36348
L54592 36348
" />
<path d="M56092 41848
L54592 41848
" />
</g>
<g style="fill:#FFFFFF; fill-opacity:0.0; 
stroke:#FFFFFF; stroke-width:200; stroke-opacity:1; 
stroke-linecap:round; stroke-linejoin:round;">
<path d="M58317 38048
L57992 38048
" />
<path d="M52692 38048
L52367 38048
" />
<path d="M58317 40148
L57992 40148
" />
<path d="M52692 40148
L52367 40148
" />
<path d="M58312 13948
L52372 13948
" />
<path d="M58312 19248
L52372 19248
" />
<path d="M58317 15548
L58317 13948
" />
<path d="M52367 15548
L52367 13948
" />
<path d="M52367 19248
L52367 17648
" />
<path d="M58317 19248
L58317 17648
" />
<path d="M52692 17648
L52692 15548
" />
<path d="M57992 17648
L57992 15548
" />
</g>
<g style="fill:#FFFFFF; fill-opacity:0.0; 
stroke:#FFFFFF; stroke-width:500; stroke-opacity:1; 
stroke-linecap:round; stroke-linejoin:round;">
<path d="M56092 13848
L54592 13848
" />
<path d="M56092 19348
L54592 19348
" />
</g>
<g style="fill:#FFFFFF; fill-opacity:0.0; 
stroke:#FFFFFF; stroke-width:200; stroke-opacity:1; 
stroke-linecap:round; stroke-linejoin:round;">
<path d="M58317 15548
L57992 15548
" />
<path d="M52692 15548
L52367 15548
" />
<path d="M58317 17648
L57992 17648
" />
<path d="M52692 17648
L52367 17648
" />
<path d="M8289 41408
L3308 44643
" />
<path d="M11176 45853
L6194 49088
" />
<path d="M9165 42747
L8293 41405
" />
<path d="M4175 45987
L3303 44646
" />
<path d="M6190 49091
L5319 47749
" />
<path d="M11180 45850
L10309 44508
" />
<path d="M5591 47572
L4447 45810
" />
<path d="M10036 44685
L8892 42924
" />
</g>
<g style="fill:#FFFFFF; fill-opacity:0.0; 
stroke:#FFFFFF; stroke-width:500; stroke-opacity:1; 
stroke-linecap:round; stroke-linejoin:round;">
<path d="M6373 42533
L5115 43350
" />
<path d="M9368 47146
L8110 47963
" />
</g>
<g style="fill:#FFFFFF; fill-opacity:0.0; 
stroke:#FFFFFF; stroke-width:200; stroke-opacity:1; 
stroke-linecap:round; stroke-linejoin:round;">
<path d="M9165 42747
L8892 42924
" />
<path d="M4447 45810
L4175 45987
" />
<path d="M10309 44508
L10036 44685
" />
<path d="M5591 47572
L5319 47749
" />
<path d="M14564 37333
L9583 40568
" />
<path d="M17451 41778
L12469 45013
" />
<path d="M15440 38672
L14568 37330
" />
<path d="M10450 41912
L9578 40571
" />
<path d="M12465 45016
L11594 43674
" />
<path d="M17455 41775
L16584 40433
" />
<path d="M11866 43497
L10722 41735
" />
<path d="M16311 40610
L15167 38849
" />
</g>
<g style="fill:#FFFFFF; fill-opacity:0.0; 
stroke:#FFFFFF; stroke-width:500; stroke-opacity:1; 
stroke-linecap:round; stroke-linejoin:round;">
<path d="M12648 38458
L11390 39275
" />
<path d="M15643 43071
L14385 43888
" />
</g>
<g style="fill:#FFFFFF; fill-opacity:0.0; 
stroke:#FFFFFF; stroke-width:200; stroke-opacity:1; 
stroke-linecap:round; stroke-linejoin:round;">
<path d="M15440 38672
L15167 38849
" />
<path d="M10722 41735
L10450 41912
" />
<path d="M16584 40433
L16311 40610
" />
<path d="M11866 43497
L11594 43674
" />
<path d="M20534 41526
L26271 39989
" />
<path d="M19162 36407
L24900 34869
" />
<path d="M20115 39982
L20529 41527
" />
<path d="M25862 38442
L26276 39987
" />
<path d="M24904 34868
L25319 36414
" />
<path d="M19157 36408
L19571 37953
" />
<path d="M25005 36498
L25548 38526
" />
<path d="M19885 37869
L20429 39898
" />
</g>
<g style="fill:#FFFFFF; fill-opacity:0.0; 
stroke:#FFFFFF; stroke-width:500; stroke-opacity:1; 
stroke-linecap:round; stroke-linejoin:round;">
<path d="M22704 41048
L24153 40660
" />
<path d="M21280 35736
L22729 35347
" />
</g>
<g style="fill:#FFFFFF; fill-opacity:0.0; 
stroke:#FFFFFF; stroke-width:200; stroke-opacity:1; 
stroke-linecap:round; stroke-linejoin:round;">
<path d="M20115 39982
L20429 39898
" />
<path d="M25548 38526
L25862 38442
" />
<path d="M19571 37953
L19885 37869
" />
<path d="M25005 36498
L25319 36414
" />
<path d="M13317 31723
L12992 31723
" />
<path d="M18942 31723
L18617 31723
" />
<path d="M13317 29623
L12992 29623
" />
<path d="M18942 29623
L18617 29623
" />
</g>
<g style="fill:#FFFFFF; fill-opacity:0.0; 
stroke:#FFFFFF; stroke-width:500; stroke-opacity:1; 
stroke-linecap:round; stroke-linejoin:round;">
<path d="M16717 33423
L15217 33423
" />
<path d="M16717 27923
L15217 27923
" />
</g>
<g style="fill:#FFFFFF; fill-opacity:0.0; 
stroke:#FFFFFF; stroke-width:200; stroke-opacity:1; 
stroke-linecap:round; stroke-linejoin:round;">
<path d="M18617 31723
L18617 29623
" />
<path d="M13317 31723
L13317 29623
" />
<path d="M18942 33323
L18942 31723
" />
<path d="M12992 33323
L12992 31723
" />
<path d="M12992 29623
L12992 28023
" />
<path d="M18942 29623
L18942 28023
" />
<path d="M18937 33323
L12997 33323
" />
<path d="M18937 28023
L12997 28023
" />
<path d="M18937 20523
L12997 20523
" />
<path d="M18937 25823
L12997 25823
" />
<path d="M18942 22123
L18942 20523
" />
<path d="M12992 22123
L12992 20523
" />
<path d="M12992 25823
L12992 24223
" />
<path d="M18942 25823
L18942 24223
" />
<path d="M13317 24223
L13317 22123
" />
<path d="M18617 24223
L18617 22123
" />
</g>
<g style="fill:#FFFFFF; fill-opacity:0.0; 
stroke:#FFFFFF; stroke-width:500; stroke-opacity:1; 
stroke-linecap:round; stroke-linejoin:round;">
<path d="M16717 20423
L15217 20423
" />
<path d="M16717 25923
L15217 25923
" />
</g>
<g style="fill:#FFFFFF; fill-opacity:0.0; 
stroke:#FFFFFF; stroke-width:200; stroke-opacity:1; 
stroke-linecap:round; stroke-linejoin:round;">
<path d="M18942 22123
L18617 22123
" />
<path d="M13317 22123
L12992 22123
" />
<path d="M18942 24223
L18617 24223
" />
<path d="M13317 24223
L12992 24223
" />
<path d="M18937 13023
L12997 13023
" />
<path d="M18937 18323
L12997 18323
" />
<path d="M18942 14623
L18942 13023
" />
<path d="M12992 14623
L12992 13023
" />
<path d="M12992 18323
L12992 16723
" />
<path d="M18942 18323
L18942 16723
" />
<path d="M13317 16723
L13317 14623
" />
<path d="M18617 16723
L18617 14623
" />
</g>
<g style="fill:#FFFFFF; fill-opacity:0.0; 
stroke:#FFFFFF; stroke-width:500; stroke-opacity:1; 
stroke-linecap:round; stroke-linejoin:round;">
<path d="M16717 12923
L15217 12923
" />
<path d="M16717 18423
L15217 18423
" />
</g>
<g style="fill:#FFFFFF; fill-opacity:0.0; 
stroke:#FFFFFF; stroke-width:200; stroke-opacity:1; 
stroke-linecap:round; stroke-linejoin:round;">
<path d="M18942 14623
L18617 14623
" />
<path d="M13317 14623
L12992 14623
" />
<path d="M18942 16723
L18617 16723
" />
<path d="M13317 16723
L12992 16723
" />
<path d="M20817 30773
L20492 30773
" />
<path d="M26442 30773
L26117 30773
" />
<path d="M20817 28673
L20492 28673
" />
<path d="M26442 28673
L26117 28673
" />
</g>
<g style="fill:#FFFFFF; fill-opacity:0.0; 
stroke:#FFFFFF; stroke-width:500; stroke-opacity:1; 
stroke-linecap:round; stroke-linejoin:round;">
<path d="M24217 32473
L22717 32473
" />
<path d="M24217 26973
L22717 26973
" />
</g>
<g style="fill:#FFFFFF; fill-opacity:0.0; 
stroke:#FFFFFF; stroke-width:200; stroke-opacity:1; 
stroke-linecap:round; stroke-linejoin:round;">
<path d="M26117 30773
L26117 28673
" />
<path d="M20817 30773
L20817 28673
" />
<path d="M26442 32373
L26442 30773
" />
<path d="M20492 32373
L20492 30773
" />
<path d="M20492 28673
L20492 27073
" />
<path d="M26442 28673
L26442 27073
" />
<path d="M26437 32373
L20497 32373
" />
<path d="M26437 27073
L20497 27073
" />
<path d="M26437 19573
L20497 19573
" />
<path d="M26437 24873
L20497 24873
" />
<path d="M26442 21173
L26442 19573
" />
<path d="M20492 21173
L20492 19573
" />
<path d="M20492 24873
L20492 23273
" />
<path d="M26442 24873
L26442 23273
" />
<path d="M20817 23273
L20817 21173
" />
<path d="M26117 23273
L26117 21173
" />
</g>
<g style="fill:#FFFFFF; fill-opacity:0.0; 
stroke:#FFFFFF; stroke-width:500; stroke-opacity:1; 
stroke-linecap:round; stroke-linejoin:round;">
<path d="M24217 19473
L22717 19473
" />
<path d="M24217 24973
L22717 24973
" />
</g>
<g style="fill:#FFFFFF; fill-opacity:0.0; 
stroke:#FFFFFF; stroke-width:200; stroke-opacity:1; 
stroke-linecap:round; stroke-linejoin:round;">
<path d="M26442 21173
L26117 21173
" />
<path d="M20817 21173
L20492 21173
" />
<path d="M26442 23273
L26117 23273
" />
<path d="M20817 23273
L20492 23273
" />
<path d="M20817 8273
L20492 8273
" />
<path d="M26442 8273
L26117 8273
" />
<path d="M20817 6173
L20492 6173
" />
<path d="M26442 6173
L26117 6173
" />
</g>
<g style="fill:#FFFFFF; fill-opacity:0.0; 
stroke:#FFFFFF; stroke-width:500; stroke-opacity:1; 
stroke-linecap:round; stroke-linejoin:round;">
<path d="M24217 9973
L22717 9973
" />
<path d="M24217 4473
L22717 4473
" />
</g>
<g style="fill:#FFFFFF; fill-opacity:0.0; 
stroke:#FFFFFF; stroke-width:200; stroke-opacity:1; 
stroke-linecap:round; stroke-linejoin:round;">
<path d="M26117 8273
L26117 6173
" />
<path d="M20817 8273
L20817 6173
" />
<path d="M26442 9873
L26442 8273
" />
<path d="M20492 9873
L20492 8273
" />
<path d="M20492 6173
L20492 4573
" />
<path d="M26442 6173
L26442 4573
" />
<path d="M26437 9873
L20497 9873
" />
<path d="M26437 4573
L20497 4573
" />
<path d="M26437 12073
L20497 12073
" />
<path d="M26437 17373
L20497 17373
" />
<path d="M26442 13673
L26442 12073
" />
<path d="M20492 13673
L20492 12073
" />
<path d="M20492 17373
L20492 15773
" />
<path d="M26442 17373
L26442 15773
" />
<path d="M20817 15773
L20817 13673
" />
<path d="M26117 15773
L26117 13673
" />
</g>
<g style="fill:#FFFFFF; fill-opacity:0.0; 
stroke:#FFFFFF; stroke-width:500; stroke-opacity:1; 
stroke-linecap:round; stroke-linejoin:round;">
<path d="M24217 11973
L22717 11973
" />
<path d="M24217 17473
L22717 17473
" />
</g>
<g style="fill:#FFFFFF; fill-opacity:0.0; 
stroke:#FFFFFF; stroke-width:200; stroke-opacity:1; 
stroke-linecap:round; stroke-linejoin:round;">
<path d="M26442 13673
L26117 13673
" />
<path d="M20817 13673
L20492 13673
" />
<path d="M26442 15773
L26117 15773
" />
<path d="M20817 15773
L20492 15773
" />
<path d="M33937 3648
L27997 3648
" />
<path d="M33937 8948
L27997 8948
" />
<path d="M33942 5248
L33942 3648
" />
<path d="M27992 5248
L27992 3648
" />
<path d="M27992 8948
L27992 7348
" />
<path d="M33942 8948
L33942 7348
" />
<path d="M28317 7348
L28317 5248
" />
<path d="M33617 7348
L33617 5248
" />
</g>
<g style="fill:#FFFFFF; fill-opacity:0.0; 
stroke:#FFFFFF; stroke-width:500; stroke-opacity:1; 
stroke-linecap:round; stroke-linejoin:round;">
<path d="M31717 3548
L30217 3548
" />
<path d="M31717 9048
L30217 9048
" />
</g>
<g style="fill:#FFFFFF; fill-opacity:0.0; 
stroke:#FFFFFF; stroke-width:200; stroke-opacity:1; 
stroke-linecap:round; stroke-linejoin:round;">
<path d="M33942 5248
L33617 5248
" />
<path d="M28317 5248
L27992 5248
" />
<path d="M33942 7348
L33617 7348
" />
<path d="M28317 7348
L27992 7348
" />
<path d="M28317 14848
L27992 14848
" />
<path d="M33942 14848
L33617 14848
" />
<path d="M28317 12748
L27992 12748
" />
<path d="M33942 12748
L33617 12748
" />
</g>
<g style="fill:#FFFFFF; fill-opacity:0.0; 
stroke:#FFFFFF; stroke-width:500; stroke-opacity:1; 
stroke-linecap:round; stroke-linejoin:round;">
<path d="M31717 16548
L30217 16548
" />
<path d="M31717 11048
L30217 11048
" />
</g>
<g style="fill:#FFFFFF; fill-opacity:0.0; 
stroke:#FFFFFF; stroke-width:200; stroke-opacity:1; 
stroke-linecap:round; stroke-linejoin:round;">
<path d="M33617 14848
L33617 12748
" />
<path d="M28317 14848
L28317 12748
" />
<path d="M33942 16448
L33942 14848
" />
<path d="M27992 16448
L27992 14848
" />
<path d="M27992 12748
L27992 11148
" />
<path d="M33942 12748
L33942 11148
" />
<path d="M33937 16448
L27997 16448
" />
<path d="M33937 11148
L27997 11148
" />
<path d="M28317 37348
L27992 37348
" />
<path d="M33942 37348
L33617 37348
" />
<path d="M28317 35248
L27992 35248
" />
<path d="M33942 35248
L33617 35248
" />
</g>
<g style="fill:#FFFFFF; fill-opacity:0.0; 
stroke:#FFFFFF; stroke-width:500; stroke-opacity:1; 
stroke-linecap:round; stroke-linejoin:round;">
<path d="M31717 39048
L30217 39048
" />
<path d="M31717 33548
L30217 33548
" />
</g>
<g style="fill:#FFFFFF; fill-opacity:0.0; 
stroke:#FFFFFF; stroke-width:200; stroke-opacity:1; 
stroke-linecap:round; stroke-linejoin:round;">
<path d="M33617 37348
L33617 35248
" />
<path d="M28317 37348
L28317 35248
" />
<path d="M33942 38948
L33942 37348
" />
<path d="M27992 38948
L27992 37348
" />
<path d="M27992 35248
L27992 33648
" />
<path d="M33942 35248
L33942 33648
" />
<path d="M33937 38948
L27997 38948
" />
<path d="M33937 33648
L27997 33648
" />
<path d="M33937 26148
L27997 26148
" />
<path d="M33937 31448
L27997 31448
" />
<path d="M33942 27748
L33942 26148
" />
<path d="M27992 27748
L27992 26148
" />
<path d="M27992 31448
L27992 29848
" />
<path d="M33942 31448
L33942 29848
" />
<path d="M28317 29848
L28317 27748
" />
<path d="M33617 29848
L33617 27748
" />
</g>
<g style="fill:#FFFFFF; fill-opacity:0.0; 
stroke:#FFFFFF; stroke-width:500; stroke-opacity:1; 
stroke-linecap:round; stroke-linejoin:round;">
<path d="M31717 26048
L30217 26048
" />
<path d="M31717 31548
L30217 31548
" />
</g>
<g style="fill:#FFFFFF; fill-opacity:0.0; 
stroke:#FFFFFF; stroke-width:200; stroke-opacity:1; 
stroke-linecap:round; stroke-linejoin:round;">
<path d="M33942 27748
L33617 27748
" />
<path d="M28317 27748
L27992 27748
" />
<path d="M33942 29848
L33617 29848
" />
<path d="M28317 29848
L27992 29848
" />
<path d="M28317 22348
L27992 22348
" />
<path d="M33942 22348
L33617 22348
" />
<path d="M28317 20248
L27992 20248
" />
<path d="M33942 20248
L33617 20248
" />
</g>
<g style="fill:#FFFFFF; fill-opacity:0.0; 
stroke:#FFFFFF; stroke-width:500; stroke-opacity:1; 
stroke-linecap:round; stroke-linejoin:round;">
<path d="M31717 24048
L30217 24048
" />
<path d="M31717 18548
L30217 18548
" />
</g>
<g style="fill:#FFFFFF; fill-opacity:0.0; 
stroke:#FFFFFF; stroke-width:200; stroke-opacity:1; 
stroke-linecap:round; stroke-linejoin:round;">
<path d="M33617 22348
L33617 20248
" />
<path d="M28317 22348
L28317 20248
" />
<path d="M33942 23948
L33942 22348
" />
<path d="M27992 23948
L27992 22348
" />
<path d="M27992 20248
L27992 18648
" />
<path d="M33942 20248
L33942 18648
" />
<path d="M33937 23948
L27997 23948
" />
<path d="M33937 18648
L27997 18648
" />
<path d="M48937 6448
L42997 6448
" />
<path d="M48937 11748
L42997 11748
" />
<path d="M48942 8048
L48942 6448
" />
<path d="M42992 8048
L42992 6448
" />
<path d="M42992 11748
L42992 10148
" />
<path d="M48942 11748
L48942 10148
" />
<path d="M43317 10148
L43317 8048
" />
<path d="M48617 10148
L48617 8048
" />
</g>
<g style="fill:#FFFFFF; fill-opacity:0.0; 
stroke:#FFFFFF; stroke-width:500; stroke-opacity:1; 
stroke-linecap:round; stroke-linejoin:round;">
<path d="M46717 6348
L45217 6348
" />
<path d="M46717 11848
L45217 11848
" />
</g>
<g style="fill:#FFFFFF; fill-opacity:0.0; 
stroke:#FFFFFF; stroke-width:200; stroke-opacity:1; 
stroke-linecap:round; stroke-linejoin:round;">
<path d="M48942 8048
L48617 8048
" />
<path d="M43317 8048
L42992 8048
" />
<path d="M48942 10148
L48617 10148
" />
<path d="M43317 10148
L42992 10148
" />
<path d="M48937 13948
L42997 13948
" />
<path d="M48937 19248
L42997 19248
" />
<path d="M48942 15548
L48942 13948
" />
<path d="M42992 15548
L42992 13948
" />
<path d="M42992 19248
L42992 17648
" />
<path d="M48942 19248
L48942 17648
" />
<path d="M43317 17648
L43317 15548
" />
<path d="M48617 17648
L48617 15548
" />
</g>
<g style="fill:#FFFFFF; fill-opacity:0.0; 
stroke:#FFFFFF; stroke-width:500; stroke-opacity:1; 
stroke-linecap:round; stroke-linejoin:round;">
<path d="M46717 13848
L45217 13848
" />
<path d="M46717 19348
L45217 19348
" />
</g>
<g style="fill:#FFFFFF; fill-opacity:0.0; 
stroke:#FFFFFF; stroke-width:200; stroke-opacity:1; 
stroke-linecap:round; stroke-linejoin:round;">
<path d="M48942 15548
L48617 15548
" />
<path d="M43317 15548
L42992 15548
" />
<path d="M48942 17648
L48617 17648
" />
<path d="M43317 17648
L42992 17648
" />
<path d="M43317 40148
L42992 40148
" />
<path d="M48942 40148
L48617 40148
" />
<path d="M43317 38048
L42992 38048
" />
<path d="M48942 38048
L48617 38048
" />
</g>
<g style="fill:#FFFFFF; fill-opacity:0.0; 
stroke:#FFFFFF; stroke-width:500; stroke-opacity:1; 
stroke-linecap:round; stroke-linejoin:round;">
<path d="M46717 41848
L45217 41848
" />
<path d="M46717 36348
L45217 36348
" />
</g>
<g style="fill:#FFFFFF; fill-opacity:0.0; 
stroke:#FFFFFF; stroke-width:200; stroke-opacity:1; 
stroke-linecap:round; stroke-linejoin:round;">
<path d="M48617 40148
L48617 38048
" />
<path d="M43317 40148
L43317 38048
" />
<path d="M48942 41748
L48942 40148
" />
<path d="M42992 41748
L42992 40148
" />
<path d="M42992 38048
L42992 36448
" />
<path d="M48942 38048
L48942 36448
" />
<path d="M48937 41748
L42997 41748
" />
<path d="M48937 36448
L42997 36448
" />
<path d="M48937 28948
L42997 28948
" />
<path d="M48937 34248
L42997 34248
" />
<path d="M48942 30548
L48942 28948
" />
<path d="M42992 30548
L42992 28948
" />
<path d="M42992 34248
L42992 32648
" />
<path d="M48942 34248
L48942 32648
" />
<path d="M43317 32648
L43317 30548
" />
<path d="M48617 32648
L48617 30548
" />
</g>
<g style="fill:#FFFFFF; fill-opacity:0.0; 
stroke:#FFFFFF; stroke-width:500; stroke-opacity:1; 
stroke-linecap:round; stroke-linejoin:round;">
<path d="M46717 28848
L45217 28848
" />
<path d="M46717 34348
L45217 34348
" />
</g>
<g style="fill:#FFFFFF; fill-opacity:0.0; 
stroke:#FFFFFF; stroke-width:200; stroke-opacity:1; 
stroke-linecap:round; stroke-linejoin:round;">
<path d="M48942 30548
L48617 30548
" />
<path d="M43317 30548
L42992 30548
" />
<path d="M48942 32648
L48617 32648
" />
<path d="M43317 32648
L42992 32648
" />
<path d="M43317 25148
L42992 25148
" />
<path d="M48942 25148
L48617 25148
" />
<path d="M43317 23048
L42992 23048
" />
<path d="M48942 23048
L48617 23048
" />
</g>
<g style="fill:#FFFFFF; fill-opacity:0.0; 
stroke:#FFFFFF; stroke-width:500; stroke-opacity:1; 
stroke-linecap:round; stroke-linejoin:round;">
<path d="M46717 26848
L45217 26848
" />
<path d="M46717 21348
L45217 21348
" />
</g>
<g style="fill:#FFFFFF; fill-opacity:0.0; 
stroke:#FFFFFF; stroke-width:200; stroke-opacity:1; 
stroke-linecap:round; stroke-linejoin:round;">
<path d="M48617 25148
L48617 23048
" />
<path d="M43317 25148
L43317 23048
" />
<path d="M48942 26748
L48942 25148
" />
<path d="M42992 26748
L42992 25148
" />
<path d="M42992 23048
L42992 21448
" />
<path d="M48942 23048
L48942 21448
" />
<path d="M48937 26748
L42997 26748
" />
<path d="M48937 21448
L42997 21448
" />
<path d="M41437 34573
L35497 34573
" />
<path d="M41437 39873
L35497 39873
" />
<path d="M41442 36173
L41442 34573
" />
<path d="M35492 36173
L35492 34573
" />
<path d="M35492 39873
L35492 38273
" />
<path d="M41442 39873
L41442 38273
" />
<path d="M35817 38273
L35817 36173
" />
<path d="M41117 38273
L41117 36173
" />
</g>
<g style="fill:#FFFFFF; fill-opacity:0.0; 
stroke:#FFFFFF; stroke-width:500; stroke-opacity:1; 
stroke-linecap:round; stroke-linejoin:round;">
<path d="M39217 34473
L37717 34473
" />
<path d="M39217 39973
L37717 39973
" />
</g>
<g style="fill:#FFFFFF; fill-opacity:0.0; 
stroke:#FFFFFF; stroke-width:200; stroke-opacity:1; 
stroke-linecap:round; stroke-linejoin:round;">
<path d="M41442 36173
L41117 36173
" />
<path d="M35817 36173
L35492 36173
" />
<path d="M41442 38273
L41117 38273
" />
<path d="M35817 38273
L35492 38273
" />
<path d="M41437 19573
L35497 19573
" />
<path d="M41437 24873
L35497 24873
" />
<path d="M41442 21173
L41442 19573
" />
<path d="M35492 21173
L35492 19573
" />
<path d="M35492 24873
L35492 23273
" />
<path d="M41442 24873
L41442 23273
" />
<path d="M35817 23273
L35817 21173
" />
<path d="M41117 23273
L41117 21173
" />
</g>
<g style="fill:#FFFFFF; fill-opacity:0.0; 
stroke:#FFFFFF; stroke-width:500; stroke-opacity:1; 
stroke-linecap:round; stroke-linejoin:round;">
<path d="M39217 19473
L37717 19473
" />
<path d="M39217 24973
L37717 24973
" />
</g>
<g style="fill:#FFFFFF; fill-opacity:0.0; 
stroke:#FFFFFF; stroke-width:200; stroke-opacity:1; 
stroke-linecap:round; stroke-linejoin:round;">
<path d="M41442 21173
L41117 21173
" />
<path d="M35817 21173
L35492 21173
" />
<path d="M41442 23273
L41117 23273
" />
<path d="M35817 23273
L35492 23273
" />
<path d="M35817 30773
L35492 30773
" />
<path d="M41442 30773
L41117 30773
" />
<path d="M35817 28673
L35492 28673
" />
<path d="M41442 28673
L41117 28673
" />
</g>
<g style="fill:#FFFFFF; fill-opacity:0.0; 
stroke:#FFFFFF; stroke-width:500; stroke-opacity:1; 
stroke-linecap:round; stroke-linejoin:round;">
<path d="M39217 32473
L37717 32473
" />
<path d="M39217 26973
L37717 26973
" />
</g>
<g style="fill:#FFFFFF; fill-opacity:0.0; 
stroke:#FFFFFF; stroke-width:200; stroke-opacity:1; 
stroke-linecap:round; stroke-linejoin:round;">
<path d="M41117 30773
L41117 28673
" />
<path d="M35817 30773
L35817 28673
" />
<path d="M41442 32373
L41442 30773
" />
<path d="M35492 32373
L35492 30773
" />
<path d="M35492 28673
L35492 27073
" />
<path d="M41442 28673
L41442 27073
" />
<path d="M41437 32373
L35497 32373
" />
<path d="M41437 27073
L35497 27073
" />
<path d="M41437 12073
L35497 12073
" />
<path d="M41437 17373
L35497 17373
" />
<path d="M41442 13673
L41442 12073
" />
<path d="M35492 13673
L35492 12073
" />
<path d="M35492 17373
L35492 15773
" />
<path d="M41442 17373
L41442 15773
" />
<path d="M35817 15773
L35817 13673
" />
<path d="M41117 15773
L41117 13673
" />
</g>
<g style="fill:#FFFFFF; fill-opacity:0.0; 
stroke:#FFFFFF; stroke-width:500; stroke-opacity:1; 
stroke-linecap:round; stroke-linejoin:round;">
<path d="M39217 11973
L37717 11973
" />
<path d="M39217 17473
L37717 17473
" />
</g>
<g style="fill:#FFFFFF; fill-opacity:0.0; 
stroke:#FFFFFF; stroke-width:200; stroke-opacity:1; 
stroke-linecap:round; stroke-linejoin:round;">
<path d="M41442 13673
L41117 13673
" />
<path d="M35817 13673
L35492 13673
" />
<path d="M41442 15773
L41117 15773
" />
<path d="M35817 15773
L35492 15773
" />
</g>
<g style="fill:#000000; fill-opacity:0.0; 
stroke:#000000; stroke-width:200; stroke-opacity:1; 
stroke-linecap:round; stroke-linejoin:round;">
</g>
<g style="fill:#000000; fill-opacity:0.0; 
stroke:#000000; stroke-width:19.685; stroke-opacity:1; 
stroke-linecap:round; stroke-linejoin:round;">
<path d="M11245 34878.4 A375 375 0.0 0 0 11442.2 34548.2 " />
<path d="M171.199 42066.7 A362.353 362.353 0.0 0 0 52.1962 42538.2 " />
<path d="M11244 34878
L171 42066
" />
<path d="M6760.7 52849.2 A362.353 362.353 0.0 0 0 7232.2 52968.2 " />
<path d="M52 42538
L6760 52849
" />
<path d="M20317 44453
L7232 52968
" />
<path d="M27292 41848
L20317 44453
" />
<path d="M34392 41423
L27292 41848
" />
<path d="M41442 42748
L41442 41973
" />
<path d="M18942 3223
L18942 3423
" />
<path d="M26442 2323
L26442 2448
" />
<path d="M35492 2323
L35492 2473
" />
<path d="M42992 3573
L42992 4348
" />
<path d="M11442 4523
L11442 34548
" />
<path d="M34392 41423
L40892 41423
" />
<path d="M41992 43298
L60417 43298
" />
<path d="M11992 3973
L18392 3973
" />
<path d="M19167 2998
L25892 2998
" />
<path d="M26667 2098
L35267 2098
" />
<path d="M36042 3023
L42442 3023
" />
<path d="M43542 4898
L60417 4898
" />
<path d="M19167.2 2998.23 A225 225 0.0 0 0 18942.2 3223.23 " />
<path d="M26667.2 2098.23 A225 225 0.0 0 0 26442.2 2323.23 " />
<path d="M35492.2 2323.23 A225 225 0.0 0 0 35267.2 2098.23 " />
<path d="M41442.2 41973.2 A550 550 0.0 0 0 40892.2 41423.2 " />
<path d="M41442.2 42748.2 A550 550 0.0 0 0 41992.2 43298.2 " />
<path d="M60417.2 43298.2 A550 550 0.0 0 0 60967.2 42748.2 " />
<path d="M11992.2 3973.23 A550 550 0.0 0 0 11442.2 4523.23 " />
<path d="M18392.2 3973.23 A550 550 0.0 0 0 18942.2 3423.23 " />
<path d="M25892.2 2998.23 A550 550 0.0 0 0 26442.2 2448.23 " />
<path d="M35492.2 2473.23 A550 550 0.0 0 0 36042.2 3023.23 " />
<path d="M42992.2 3573.23 A550 550 0.0 0 0 42442.2 3023.23 " />
<path d="M42992.2 4348.23 A550 550 0.0 0 0 43542.2 4898.23 " />
<path d="M60967.2 5448.23 A550 550 0.0 0 0 60417.2 4898.23 " />
<path d="M60967 42748
L60967 5448
" />
<g >
</g>
<g >
</g>
<g >
</g>
<g >
</g>
<g >
</g>
<g >
</g>
<g >
</g>
<g >
</g>
<g >
</g>
<g >
</g>
<g >
</g>
<g >
</g>
<g >
</g>
<g >
</g>
<g >
</g>
<g >
</g>
<g >
</g>
<g >
</g>
<g >
</g>
<g >
</g>
<g >
</g>
<g >
</g>
<g >
</g>
<g >
</g>
<g >
</g>
<g >
</g>
<g >
</g>
<g >
</g>
<g >
</g>
<g >
</g>
<g >
</g>
<g >
</g>
</g> 
</svg>
