<?xml version="1.0" standalone="no"?>
 <!DOCTYPE svg PUBLIC "-//W3C//DTD SVG 1.1//EN" 
 "http://www.w3.org/Graphics/SVG/1.1/DTD/svg11.dtd"> 
<svg xmlns="http://www.w3.org/2000/svg" version="1.1" 
    width="26.7691cm" height="12.0193cm" viewBox="0 0 105390 47320 ">
<title>SVG Picture created as zero60_bottom_plate_svg-brd.svg date 2019/02/08 16:47:26 </title>
  <desc>Picture generated by PCBNEW </desc>
<g style="fill:#000000; fill-opacity:1;stroke:#000000; stroke-opacity:1;
stroke-linecap:round; stroke-linejoin:round; "
 transform="translate(0 0) scale(1 1)">
</g>
<g style="fill:#000000; fill-opacity:0.0; 
stroke:#000000; stroke-width:-0.000393701; stroke-opacity:1; 
stroke-linecap:round; stroke-linejoin:round;">
</g>
<g style="fill:#FFFFFF; fill-opacity:0.0; 
stroke:#FFFFFF; stroke-width:-0.000393701; stroke-opacity:1; 
stroke-linecap:round; stroke-linejoin:round;">
</g>
<g style="fill:#000000; fill-opacity:0.0; 
stroke:#000000; stroke-width:-0.000393701; stroke-opacity:1; 
stroke-linecap:round; stroke-linejoin:round;">
</g>
<g style="fill:#FFFFFF; fill-opacity:0.0; 
stroke:#FFFFFF; stroke-width:-0.000393701; stroke-opacity:1; 
stroke-linecap:round; stroke-linejoin:round;">
</g>
<g style="fill:#000000; fill-opacity:0.0; 
stroke:#000000; stroke-width:-0.000393701; stroke-opacity:1; 
stroke-linecap:round; stroke-linejoin:round;">
</g>
<g style="fill:#000000; fill-opacity:0.0; 
stroke:#000000; stroke-width:78.7402; stroke-opacity:1; 
stroke-linecap:round; stroke-linejoin:round;">
<path d="M2007.87 39.3705 A1968.5 1968.5 0.0 0 0 39.3705 2007.87 " />
<path d="M39.3705 45315 A1968.5 1968.5 0.0 0 0 2007.87 47283.5 " />
<path d="M103386 47283.5 A1968.5 1968.5 0.0 0 0 105354 45315 " />
<path d="M105354 2007.87 A1968.5 1968.5 0.0 0 0 103386 39.3705 " />
<circle cx="94724.4" cy="13818.9" r="405.34" /> 
<circle cx="87244.1" cy="36259.8" r="405.34" /> 
<circle cx="64803.2" cy="28779.5" r="405.34" /> 
<circle cx="40590.6" cy="13818.9" r="405.34" /> 
<circle cx="25629.9" cy="36259.8" r="405.34" /> 
<circle cx="10669.3" cy="21299.2" r="405.34" /> 
<circle cx="36850.4" cy="45708.7" r="405.34" /> 
<circle cx="68740.2" cy="45708.7" r="401.498" /> 
<circle cx="98661.4" cy="45708.7" r="405.34" /> 
<circle cx="98661.4" cy="1811.02" r="405.34" /> 
<circle cx="6929.13" cy="45708.7" r="405.34" /> 
<circle cx="68740.2" cy="1811.02" r="405.34" /> 
<circle cx="6929.13" cy="1811.02" r="405.34" /> 
<circle cx="29370.1" cy="1811.02" r="405.34" /> 
<path d="M105354 2007
L105354 45314
" />
<path d="M39 45314
L39 2007
" />
<path d="M103385 47283
L2007 47283
" />
<path d="M2007 39
L103385 39
" />
</g> 
</svg>
