<?xml version="1.0" standalone="no"?>
 <!DOCTYPE svg PUBLIC "-//W3C//DTD SVG 1.1//EN" 
 "http://www.w3.org/Graphics/SVG/1.1/DTD/svg11.dtd"> 
<svg xmlns="http://www.w3.org/2000/svg" version="1.1" 
    width="26.7691cm" height="12.0193cm" viewBox="0 0 105390 47320 ">
<title>SVG Picture created as zero60_top_plate_trimmed__open_svg-brd.svg date 2019/02/11 22:06:02 </title>
  <desc>Picture generated by PCBNEW </desc>
<g style="fill:#000000; fill-opacity:1;stroke:#000000; stroke-opacity:1;
stroke-linecap:round; stroke-linejoin:round; "
 transform="translate(0 0) scale(1 1)">
</g>
<g style="fill:#000000; fill-opacity:0.0; 
stroke:#000000; stroke-width:-0.000393701; stroke-opacity:1; 
stroke-linecap:round; stroke-linejoin:round;">
</g>
<g style="fill:#FFFFFF; fill-opacity:0.0; 
stroke:#FFFFFF; stroke-width:-0.000393701; stroke-opacity:1; 
stroke-linecap:round; stroke-linejoin:round;">
</g>
<g style="fill:#000000; fill-opacity:0.0; 
stroke:#000000; stroke-width:-0.000393701; stroke-opacity:1; 
stroke-linecap:round; stroke-linejoin:round;">
</g>
<g style="fill:#FFFFFF; fill-opacity:0.0; 
stroke:#FFFFFF; stroke-width:-0.000393701; stroke-opacity:1; 
stroke-linecap:round; stroke-linejoin:round;">
</g>
<g style="fill:#000000; fill-opacity:0.0; 
stroke:#000000; stroke-width:-0.000393701; stroke-opacity:1; 
stroke-linecap:round; stroke-linejoin:round;">
</g>
<g style="fill:#000000; fill-opacity:0.0; 
stroke:#000000; stroke-width:78.7402; stroke-opacity:1; 
stroke-linecap:round; stroke-linejoin:round;">
<path d="M2795 6338
L2795 43740
" />
<path d="M102598 6338.58 A393.701 393.701 0.0 0 0 102205 5944.88 " />
<path d="M102205 44133.9 A393.701 393.701 0.0 0 0 102598 43740.2 " />
<path d="M2795.28 43740.2 A393.701 393.701 0.0 0 0 3188.98 44133.9 " />
<path d="M3188.98 5944.88 A393.701 393.701 0.0 0 0 2795.28 6338.58 " />
<path d="M3188 44133
L102204 44133
" />
<path d="M102598 43740
L102598 6338
" />
<path d="M3188 5944
L102204 5944
" />
<path d="M33690.9 2618.11 A1149.39 1149.39 0.0 0 0 34685 3190.54 " />
<path d="M32559.1 596.644 A1147.82 1147.82 0.0 0 0 31574.8 39.3705 " />
<path d="M2007.87 39.3705 A1968.5 1968.5 0.0 0 0 39.3705 2007.87 " />
<path d="M39.3705 45315 A1968.5 1968.5 0.0 0 0 2007.87 47283.5 " />
<path d="M105354 5157.48 A1968.5 1968.5 0.0 0 0 103386 3188.98 " />
<path d="M103386 47283.5 A1968.5 1968.5 0.0 0 0 105354 45315 " />
<path d="M32559 600
L33690 2618
" />
<path d="M34685 3188
L103385 3188
" />
<circle cx="36850.4" cy="45708.7" r="405.34" /> 
<path d="M105354 5157
L105354 45314
" />
<path d="M39 45314
L39 2007
" />
<path d="M103385 47283
L2007 47283
" />
<path d="M2007 39
L31574 39
" />
<circle cx="68740.2" cy="45708.7" r="401.498" /> 
<circle cx="98661.4" cy="45708.7" r="405.34" /> 
<circle cx="6929.13" cy="45708.7" r="405.34" /> 
<circle cx="6929.13" cy="1811.02" r="405.34" /> 
<circle cx="29370.1" cy="1802.98" r="405.34" /> 
</g> 
</svg>
